<svg xmlns="http://www.w3.org/2000/svg" viewBox="0 0 189.56 263.46"><defs><style>.af106f6f-0265-4da7-b008-2ed9db9d6868{fill:#3c3c3b;}.b88ea5fa-a5a7-4bb1-86bf-e5f0f4dd6678{fill:#474747;}.a49f29cc-ea20-4f78-b22e-9d0b6ed9aba0{fill:#616160;}.f0eb0155-dfa8-4551-a943-7b94e56b17e0{fill:#575756;}.fdfee7bf-30c0-490b-aaed-92e3bf01e007{fill:#0085d6;}.ba0d7f4b-b961-4d4d-be95-5055b1a72b28{fill:#0059ff;}.ba7a3e9f-ab0a-4507-bce1-99025f14c707{fill:#342f28;}.a00361c0-8315-4f82-9250-676e78f8a859{fill:#b2b2b2;}.e9528c95-ce74-48e3-a0fb-eebd1fee3a14{fill:#1d71b8;}.b9c6e2e2-d1a0-4a0c-9a2e-523696941a05{fill:#fff;}.a52a95ca-46db-4988-87b0-41951973f5f1{fill:#002e7f;}</style></defs><g id="ab56bf57-a4fc-49d4-ad44-19595eac2c76" data-name="Слой 1"><polygon class="af106f6f-0265-4da7-b008-2ed9db9d6868" points="93.76 225.21 92.99 247.37 61.56 251.66 63.66 226.63 93.76 225.21"/><polygon class="b88ea5fa-a5a7-4bb1-86bf-e5f0f4dd6678" points="110.63 72.04 66.38 64.5 66.38 227.68 100.95 224.57 102.68 123.62 110.63 116.01 110.63 72.04"/><polygon class="a49f29cc-ea20-4f78-b22e-9d0b6ed9aba0" points="66.38 64.5 0 69.69 0 218 66.38 227.68 66.38 64.5"/><polygon class="f0eb0155-dfa8-4551-a943-7b94e56b17e0" points="3.9 218.57 5.2 240.25 61.56 251.66 63.66 227.29 3.9 218.57"/><polygon class="f0eb0155-dfa8-4551-a943-7b94e56b17e0" points="48.98 82.83 15.3 85.15 15.3 96.21 48.98 95.35 48.98 82.83"/><path class="f0eb0155-dfa8-4551-a943-7b94e56b17e0" d="M60.94,114.91H6a1,1,0,0,1,0-2H60.94a1,1,0,0,1,0,2Z"/><path class="fdfee7bf-30c0-490b-aaed-92e3bf01e007" d="M185.34,263.46c-2.33,0-4.22-.51-4.22-2.84V54.89l-49.51-4.21a4.22,4.22,0,0,1,.54-8.43l53.46,4.47a4.22,4.22,0,0,1,3.95,4.21V260.62C189.56,263,187.67,263.46,185.34,263.46Z"/><path class="ba0d7f4b-b961-4d4d-be95-5055b1a72b28" d="M131.48,38.2H124.3c-1.84,0-3.33,3.86-3.33,8.62s1.49,8.63,3.33,8.63h7.18c1.84,0,3.33-3.87,3.33-8.63S133.32,38.2,131.48,38.2Z"/><rect class="fdfee7bf-30c0-490b-aaed-92e3bf01e007" x="106.85" y="22.02" width="3.92" height="4.65"/><path class="ba0d7f4b-b961-4d4d-be95-5055b1a72b28" d="M108.63,35.15c6.48,0,11.72.63,11.72,1.4v-9c0-.78-5.24-1.4-11.72-1.4s-11.72.62-11.72,1.4v9C96.91,35.78,102.16,35.15,108.63,35.15Z"/><ellipse class="ba0d7f4b-b961-4d4d-be95-5055b1a72b28" cx="108.63" cy="36.55" rx="11.72" ry="1.4"/><path class="fdfee7bf-30c0-490b-aaed-92e3bf01e007" d="M108.43,228.07c-12.42,0-22.49-.95-22.49-2.12v33.81c0,1.17,10.07,2.11,22.49,2.11s22.5-.94,22.5-2.11V226C130.93,227.12,120.86,228.07,108.43,228.07Z"/><path class="ba0d7f4b-b961-4d4d-be95-5055b1a72b28" d="M108.63,213.74c-18.86,0-34.16-1.83-34.16-4.1v8.85c0,2.26,15.3,4.09,34.16,4.09s34.16-1.83,34.16-4.09v-8.85C142.79,211.91,127.5,213.74,108.63,213.74Z"/><path class="ba0d7f4b-b961-4d4d-be95-5055b1a72b28" d="M108.63,223.58c-18.86,0-34.16-1.84-34.16-4.1v8.84c0,2.27,15.3,4.1,34.16,4.1s34.16-1.83,34.16-4.1v-8.84C142.79,221.74,127.5,223.58,108.63,223.58Z"/><ellipse class="ba7a3e9f-ab0a-4507-bce1-99025f14c707" cx="108.63" cy="209.64" rx="34.16" ry="4.09"/><path class="fdfee7bf-30c0-490b-aaed-92e3bf01e007" d="M108.63,56.79c10.31,0,18.66,1,18.66,2.23V36.13c0-1.23-8.35-2.23-18.66-2.23S90,34.9,90,36.13V59C90,57.79,98.33,56.79,108.63,56.79Z"/><ellipse class="ba7a3e9f-ab0a-4507-bce1-99025f14c707" cx="108.63" cy="59.02" rx="18.66" ry="2.24"/><path class="fdfee7bf-30c0-490b-aaed-92e3bf01e007" d="M108.63,161.43c-8.67,0-15.7-.84-15.7-1.88v48.21c0,1,7,1.88,15.7,1.88s15.7-.84,15.7-1.88V159.55C124.33,160.59,117.3,161.43,108.63,161.43Z"/><polygon class="ba0d7f4b-b961-4d4d-be95-5055b1a72b28" points="94.66 134.1 122.5 133.96 132.86 140.45 84.4 140.45 94.66 134.1"/><polygon class="ba0d7f4b-b961-4d4d-be95-5055b1a72b28" points="124.33 162.94 92.93 163.08 84.4 156.59 132.86 156.59 124.33 162.94"/><path class="fdfee7bf-30c0-490b-aaed-92e3bf01e007" d="M108.51,86.3c6.45,0,11.68.63,11.68,1.4V60.21c0-.77-5.23-1.4-11.68-1.4s-11.68.63-11.68,1.4V87.7C96.83,86.93,102.06,86.3,108.51,86.3Z"/><circle class="a00361c0-8315-4f82-9250-676e78f8a859" cx="108.81" cy="11.41" r="9.91"/><path class="e9528c95-ce74-48e3-a0fb-eebd1fee3a14" d="M108.81,22.82a11.41,11.41,0,1,1,11.4-11.41A11.42,11.42,0,0,1,108.81,22.82Zm0-19.82a8.41,8.41,0,1,0,8.4,8.41A8.42,8.42,0,0,0,108.81,3Z"/><path class="fdfee7bf-30c0-490b-aaed-92e3bf01e007" d="M108.63,98.81c10.31,0,18.66,1,18.66,2.24V88.39c0-1.23-8.35-2.23-18.66-2.23S90,87.16,90,88.39v12.66C90,99.81,98.33,98.81,108.63,98.81Z"/><ellipse class="ba7a3e9f-ab0a-4507-bce1-99025f14c707" cx="108.63" cy="101.05" rx="18.66" ry="2.24"/><path class="fdfee7bf-30c0-490b-aaed-92e3bf01e007" d="M108.51,128.53c6.45,0,11.68.63,11.68,1.4V102.58c0-.78-5.23-1.4-11.68-1.4s-11.68.62-11.68,1.4v27.35C96.83,129.16,102.06,128.53,108.51,128.53Z"/><rect class="fdfee7bf-30c0-490b-aaed-92e3bf01e007" x="93.8" y="128.04" width="29.42" height="5.91"/><rect class="fdfee7bf-30c0-490b-aaed-92e3bf01e007" x="84.4" y="140.45" width="48.46" height="16.15"/><line class="b9c6e2e2-d1a0-4a0c-9a2e-523696941a05" x1="103.74" y1="4.78" x2="109.45" y2="12.08"/><path class="af106f6f-0265-4da7-b008-2ed9db9d6868" d="M103.86,4.69c.67.46,1.27,1,1.9,1.45s1.21,1,1.78,1.55,1.37.89,1.67,1.64a4.06,4.06,0,0,1,.36,1.18,4,4,0,0,1,0,1.47l-.23.19a4,4,0,0,1-1.43-.36,4,4,0,0,1-1.06-.63c-.66-.47-.82-1.33-1.2-2s-.73-1.39-1.07-2.1-.67-1.44-1-2.19Z"/><path class="ba0d7f4b-b961-4d4d-be95-5055b1a72b28" d="M84.41,199.25h9.38c2.4,0,4.35-5.05,4.35-11.27s-2-11.27-4.35-11.27H84.41c-2.4,0-4.35,5-4.35,11.27S82,199.25,84.41,199.25Z"/><path class="fdfee7bf-30c0-490b-aaed-92e3bf01e007" d="M75.72,194.21h7.54c1.33,0,3.85-2.79,3.85-6.23s-2.52-6.23-3.85-6.23H75.72c-1.33,0-2.41,2.79-2.41,6.23S74.39,194.21,75.72,194.21Z"/><path class="a52a95ca-46db-4988-87b0-41951973f5f1" d="M75.33,169.86c-9.13,0-16.57,8.13-16.57,18.12S66.2,206.1,75.33,206.1,91.9,198,91.9,188,84.47,169.86,75.33,169.86Zm1.75,22.57a4.71,4.71,0,0,0,3-4.5,5.17,5.17,0,0,0-.09-1l8-4.7a16.11,16.11,0,0,1,1,5.7c0,7.71-5.27,14.12-12.14,15Zm1.45-8.11a4.09,4.09,0,0,0-5.57,0l-8.34-5.58a12.9,12.9,0,0,1,22,.85Zm-4.38,8-.25,10.59c-6.9-.79-12.21-7.21-12.21-15a16.36,16.36,0,0,1,1.41-6.65l8.35,5.57a5.15,5.15,0,0,0-.11,1A4.72,4.72,0,0,0,74.15,192.35Z"/><path class="a52a95ca-46db-4988-87b0-41951973f5f1" d="M122.52,115.55a14,14,0,1,0-14,14.16A14.11,14.11,0,0,0,122.52,115.55Zm-14-11.46a11.08,11.08,0,0,1,9.18,4.88l-6.48,3.56a3.81,3.81,0,0,0-2.38-.83,3.85,3.85,0,0,0-2.31.78l-6.71-4.15A11.16,11.16,0,0,1,108.51,104.09Zm1.43,22.83.2-7.82a3.81,3.81,0,0,0,2.52-3.58,3.68,3.68,0,0,0-.06-.66l6.36-3.48a11.59,11.59,0,0,1,.77,4.17A11.38,11.38,0,0,1,109.94,126.92ZM98.38,110.65l6.7,4.14a3.54,3.54,0,0,0-.07.73,3.79,3.79,0,0,0,2.34,3.51l-.2,7.9a11.36,11.36,0,0,1-9.85-11.38A11.67,11.67,0,0,1,98.38,110.65Z"/><path class="a52a95ca-46db-4988-87b0-41951973f5f1" d="M122.52,73.46a14,14,0,1,0-14,14.16A14.1,14.1,0,0,0,122.52,73.46ZM108.51,62a11.08,11.08,0,0,1,9.18,4.88l-6.48,3.55a3.87,3.87,0,0,0-2.38-.83,3.8,3.8,0,0,0-2.31.79l-6.71-4.15A11.16,11.16,0,0,1,108.51,62Zm1.43,22.83.2-7.82a3.82,3.82,0,0,0,2.52-3.59,3.57,3.57,0,0,0-.06-.65L119,69.29a11.51,11.51,0,0,1,.77,4.17A11.38,11.38,0,0,1,109.94,84.83ZM98.38,68.56l6.7,4.14a3.51,3.51,0,0,0-.07.72,3.82,3.82,0,0,0,2.34,3.52l-.2,7.9A11.36,11.36,0,0,1,97.3,73.46,11.6,11.6,0,0,1,98.38,68.56Z"/><path class="a52a95ca-46db-4988-87b0-41951973f5f1" d="M156.06,46.66c0-9.35-6.77-16.95-15.1-16.95s-15.1,7.6-15.1,16.95,6.77,17,15.1,17S156.06,56,156.06,46.66ZM141,32.94a11.68,11.68,0,0,1,9.9,5.84l-7,4.26a3.81,3.81,0,0,0-5.06-.06l-7.23-5A11.63,11.63,0,0,1,141,32.94Zm1.55,27.34.21-9.36a4.59,4.59,0,0,0,2.72-4.3,5.27,5.27,0,0,0-.07-.79l6.85-4.17a15,15,0,0,1,.83,5C153.05,53.62,148.49,59.41,142.51,60.28ZM130,40.79l7.22,5a5.12,5.12,0,0,0-.08.87,4.57,4.57,0,0,0,2.53,4.21l-.21,9.46c-6-.83-10.63-6.63-10.63-13.63A15.18,15.18,0,0,1,130,40.79Z"/></g></svg>