<svg width="91" height="91" viewBox="0 0 91 91" fill="none" xmlns="http://www.w3.org/2000/svg">
<path fill-rule="evenodd" clip-rule="evenodd" d="M46 1.31134e-07V11.5H45V0L46 1.31134e-07Z" fill="black"/>
<path fill-rule="evenodd" clip-rule="evenodd" d="M46 79.5V91H45V79.5H46Z" fill="black"/>
<path fill-rule="evenodd" clip-rule="evenodd" d="M45.5 34.5C39.4248 34.5 34.5 39.4249 34.5 45.5C34.5 51.5751 39.4248 56.5 45.5 56.5V57.5C38.8726 57.5 33.5 52.1274 33.5 45.5C33.5 38.8726 38.8726 33.5 45.5 33.5V34.5Z" fill="black"/>
<path fill-rule="evenodd" clip-rule="evenodd" d="M45.5 11.5C39.4248 11.5 34.5 16.4249 34.5 22.5C34.5 28.5751 39.4248 33.5 45.5 33.5V34.5C38.8726 34.5 33.5 29.1274 33.5 22.5C33.5 15.8726 38.8726 10.5 45.5 10.5V11.5Z" fill="black"/>
<path fill-rule="evenodd" clip-rule="evenodd" d="M45.5 57.5C39.4248 57.5 34.5 62.4249 34.5 68.5C34.5 74.5751 39.4248 79.5 45.5 79.5V80.5C38.8726 80.5 33.5 75.1274 33.5 68.5C33.5 61.8726 38.8726 56.5 45.5 56.5V57.5Z" fill="black"/>
<path fill-rule="evenodd" clip-rule="evenodd" d="M56.0067 21.9263L64.6718 15.4456L60.54 25.07L59.6211 24.6755L61.5005 20.2976L18.1477 75.658L17.3604 75.0415L60.7625 19.6182L56.6057 22.7272L56.0067 21.9263Z" fill="black"/>
</svg>
