<svg width="36" height="50" viewBox="0 0 36 50" fill="none" xmlns="http://www.w3.org/2000/svg">
<path d="M35.2113 17.6056C35.2113 32.3944 19.7183 50 17.6056 50C15.493 50 0 32.3944 0 17.6056C0 7.88231 7.88231 0 17.6056 0C27.329 0 35.2113 7.88231 35.2113 17.6056Z" fill="url(#paint0_linear_102_3324)"/>
<path fill-rule="evenodd" clip-rule="evenodd" d="M0.0931395 15.7836C1.00486 6.91638 8.49754 0 17.6056 0C27.0357 0 34.7341 7.41403 35.1899 16.7311C31.1585 21.7715 24.9563 25 18 25C10.6171 25 4.08359 21.3633 0.0931395 15.7836Z" fill="url(#paint1_radial_102_3324)"/>
<path d="M34.4613 17.6056C34.4613 24.7754 30.6884 32.7212 26.5753 38.9346C24.5278 42.0277 22.4183 44.6578 20.6985 46.5073C19.8373 47.4336 19.0846 48.1524 18.4947 48.6334C18.1986 48.8748 17.9583 49.0442 17.7764 49.1492C17.6946 49.1964 17.6388 49.2222 17.6056 49.2361C17.5724 49.2222 17.5166 49.1964 17.4348 49.1492C17.253 49.0442 17.0126 48.8748 16.7165 48.6334C16.1267 48.1524 15.374 47.4336 14.5127 46.5073C12.793 44.6578 10.6835 42.0277 8.63595 38.9346C4.52286 32.7212 0.75 24.7754 0.75 17.6056C0.75 8.29653 8.29652 0.75 17.6056 0.75C26.9147 0.75 34.4613 8.29653 34.4613 17.6056Z" stroke="url(#paint2_linear_102_3324)" stroke-width="1.5"/>
<circle cx="17.5" cy="17.5" r="13.5" fill="url(#paint3_radial_102_3324)"/>
<circle cx="17.5" cy="17.5" r="13" stroke="url(#paint4_linear_102_3324)"/>
<circle cx="17.5001" cy="17.5" r="13.4" transform="rotate(17.2793 17.5001 17.5)" stroke="url(#paint5_linear_102_3324)" stroke-width="0.2"/>
<mask id="path-7-inside-1_102_3324" fill="white">
<path fill-rule="evenodd" clip-rule="evenodd" d="M25.7333 16.3199C25.6449 15.6708 25.4682 15.0512 25.2325 14.4317C25.2031 14.3727 25.2325 14.3432 25.262 14.3137C25.4093 14.1957 25.586 14.0776 25.7333 13.9891C25.8217 13.9301 25.9101 13.8637 25.9984 13.7974C26.0868 13.731 26.1752 13.6646 26.2635 13.6056C26.1015 13.3106 25.9322 13.0229 25.7628 12.7353L25.7628 12.7352C25.5934 12.4476 25.424 12.1599 25.262 11.8649C24.8496 12.0419 24.4666 12.2189 24.0542 12.4255C23.6418 11.8944 23.1411 11.3929 22.6108 10.9798C22.7876 10.5668 22.9643 10.1832 23.1705 9.77019C22.876 9.60792 22.5887 9.43828 22.3015 9.26864L22.3015 9.26863C22.0143 9.09899 21.7271 8.92935 21.4325 8.76708C21.3 8.9441 21.1748 9.12112 21.0496 9.29814L21.0496 9.29814C20.9244 9.47516 20.7992 9.65218 20.6666 9.82919H20.6372C20.0186 9.59317 19.3705 9.41615 18.7225 9.29814C18.693 9.29814 18.6635 9.23913 18.6635 9.20963C18.6046 9.12112 18.6046 9.00311 18.6046 8.88509L18.5163 8H16.5132C16.5132 8.0295 16.5132 8.05901 16.4837 8.08851L16.4774 8.16439C16.4499 8.49689 16.4206 8.85124 16.3659 9.18012C16.3659 9.23913 16.3364 9.26863 16.2775 9.26863C15.6294 9.35714 15.0403 9.53416 14.4217 9.77019C14.3628 9.79969 14.3333 9.77019 14.3039 9.74068C14.2155 9.62267 14.1345 9.50466 14.0535 9.38664C13.9725 9.26863 13.8915 9.15062 13.8031 9.03261C13.7819 9.00084 13.757 8.96908 13.731 8.93595L13.731 8.93595C13.6845 8.87677 13.6346 8.81324 13.5969 8.73758C13.3023 8.89984 13.0151 9.06949 12.7279 9.23913C12.4407 9.40877 12.1535 9.57842 11.8589 9.74068C12.0356 10.1537 12.2124 10.5373 12.3891 10.9208L12.3891 10.9208C11.8589 11.3339 11.3876 11.8059 10.9752 12.337C10.9457 12.3665 10.9163 12.3665 10.8868 12.3665C10.8132 12.337 10.7469 12.3075 10.6806 12.2779C10.6143 12.2484 10.548 12.2189 10.4744 12.1894C10.3566 12.1304 10.2388 12.0788 10.1209 12.0272L10.1209 12.0272C10.0031 11.9755 9.88525 11.9239 9.76742 11.8649C9.60541 12.1599 9.43603 12.4476 9.26666 12.7352L9.26664 12.7352C9.09726 13.0229 8.92788 13.3106 8.76587 13.6056C8.97368 13.7617 9.18148 13.9076 9.3833 14.0493L9.38332 14.0493C9.5248 14.1486 9.66334 14.2459 9.79688 14.3432C9.53176 14.9922 9.35502 15.6708 9.26664 16.3494C9.04574 16.3641 8.8322 16.3863 8.61866 16.4084L8.61858 16.4084C8.40502 16.4305 8.19145 16.4526 7.97052 16.4674V18.4736C7.99998 18.4736 8.05889 18.4736 8.08835 18.5031C8.26513 18.5179 8.44928 18.5326 8.63342 18.5474C8.81749 18.5621 9.00156 18.5769 9.17827 18.5916C9.23719 18.5916 9.26664 18.6211 9.26664 18.6801C9.31679 18.9313 9.37643 19.1824 9.43479 19.4281C9.47926 19.6154 9.523 19.7996 9.56122 19.9783C9.59068 20.0815 9.6275 20.1848 9.66432 20.288C9.70114 20.3913 9.73796 20.4946 9.76742 20.5978C9.59068 20.7158 9.4213 20.8412 9.25192 20.9666C9.08254 21.092 8.91316 21.2174 8.73641 21.3354C8.96546 21.7525 9.20923 22.1696 9.44691 22.5763L9.44711 22.5766C9.5456 22.7451 9.64305 22.9119 9.73796 23.0761C9.87439 23.013 10.0071 22.9537 10.1374 22.8955L10.1375 22.8954C10.3728 22.7902 10.6004 22.6885 10.8279 22.5745C10.8868 22.545 10.9163 22.545 10.9752 22.604C11.0635 22.7073 11.1593 22.8179 11.255 22.9286C11.3508 23.0392 11.4465 23.1498 11.5349 23.2531C11.6674 23.3859 11.8073 23.5113 11.9473 23.6366C12.0872 23.762 12.2271 23.8874 12.3597 24.0202L11.8294 25.1708C12.124 25.333 12.4111 25.5027 12.6983 25.6723L12.6984 25.6724C12.9856 25.842 13.2729 26.0116 13.5674 26.1739C13.7233 25.9658 13.869 25.7576 14.0104 25.5555L14.0105 25.5554C14.1097 25.4137 14.2068 25.275 14.3039 25.1413C14.9519 25.4068 15.6 25.5838 16.2775 25.6724C16.2922 25.8789 16.3143 26.0854 16.3364 26.2919L16.3364 26.292C16.3585 26.4985 16.3806 26.705 16.3953 26.9115H18.3984C18.4132 26.705 18.4352 26.4984 18.4573 26.2919C18.4794 26.0854 18.5015 25.8789 18.5163 25.6724C19.2232 25.5838 19.8713 25.4068 20.5194 25.1413C20.755 25.4953 20.9907 25.8199 21.2558 26.1739C21.5504 26.0116 21.8376 25.842 22.1248 25.6724C22.412 25.5027 22.6992 25.3331 22.9938 25.1708C22.9643 25.1413 22.9643 25.1118 22.9643 25.0823L22.5225 24.1087C22.493 24.0497 22.493 23.9907 22.5519 23.9612C22.9349 23.6661 23.2884 23.3121 23.6124 22.9286C23.6713 22.8696 23.7228 22.8032 23.7744 22.7368L23.7744 22.7368C23.826 22.6704 23.8775 22.604 23.9364 22.545L25.0853 23.0761C25.2473 22.7811 25.4166 22.4934 25.586 22.2058L25.586 22.2057C25.7554 21.9181 25.9248 21.6304 26.0868 21.3354C25.9101 21.2174 25.7407 21.092 25.5713 20.9666C25.4019 20.8412 25.2325 20.7158 25.0558 20.5978C25.1736 20.2733 25.262 19.9488 25.3504 19.6243L25.3504 19.6242C25.4387 19.2997 25.4977 18.9752 25.5566 18.6506C25.5566 18.6211 25.586 18.5916 25.6155 18.5916C25.7223 18.5763 25.829 18.569 25.9399 18.5613L25.9399 18.5613C26.0432 18.5542 26.1499 18.5468 26.2635 18.5326C26.3666 18.5179 26.4624 18.5105 26.5581 18.5031C26.6539 18.4957 26.7496 18.4884 26.8527 18.4736V16.4674C26.6712 16.4674 26.445 16.445 26.2017 16.4209C26.05 16.4059 25.8917 16.3902 25.7333 16.3789V16.3199ZM17.5442 24.2857C13.7736 24.3152 10.6806 21.2469 10.7395 17.441C10.769 13.7826 13.7736 10.7143 17.5442 10.7438C21.2558 10.7438 24.2899 13.8121 24.2899 17.5295C24.2604 21.2469 21.2558 24.2857 17.5442 24.2857ZM21.6093 20.6863V15.6708V14.5497C21.6093 14.3432 21.5209 14.2547 21.3147 14.2547H19.7535C19.5178 14.2547 19.4294 14.3432 19.4294 14.5792V15.7298V15.8183H20.0186V14.8152H21.0496V20.8043H20.755V20.6568V16.5264C20.755 16.2609 20.6372 16.1429 20.3721 16.1429H19.1349C18.8403 16.1429 18.7225 16.2609 18.7225 16.5559V20.6863V20.8043H18.5163V20.6863V12.6615C18.5163 12.396 18.3984 12.278 18.1333 12.278H17.7798C17.5147 12.278 17.3969 12.396 17.3969 12.6615V20.6568V20.8043H17.0139V20.6863V17.1165V14.7857C17.0139 14.5202 16.8961 14.4022 16.631 14.4022H15.8356C15.5705 14.4022 15.4232 14.5202 15.4232 14.8152V17.913V18.0311H15.4527H15.9829C16.248 18.0311 16.4542 18.2081 16.4837 18.4736V18.6801C16.4837 19.0047 16.2775 19.2407 15.924 19.2407H15.3938V20.8338H14.9519V19.2407H14.4806V20.8043H14.0977V19.0637H14.2449H15.8946C16.1597 19.0637 16.307 18.9457 16.307 18.6506V18.5621C16.307 18.3556 16.1597 18.2081 15.9535 18.2081H13.5969C13.3612 18.2081 13.2434 18.3556 13.2434 18.5916V20.7158V20.8338H12.3008C13.3907 22.604 15.5116 23.9022 18.0155 23.6661C20.0186 23.4891 21.5504 22.5155 22.6992 20.8634V20.8338H21.6387C21.6093 20.7748 21.6093 20.7453 21.6093 20.6863ZM15.9535 13.045H14.9814V18.0311H14.5101V17.913V12.8975V12.75C14.5395 12.6025 14.6279 12.514 14.7752 12.514H16.1891C16.3659 12.514 16.4542 12.6025 16.4542 12.75V14.1366V14.1957H15.9535V13.045Z"/>
</mask>
<path fill-rule="evenodd" clip-rule="evenodd" d="M25.7333 16.3199C25.6449 15.6708 25.4682 15.0512 25.2325 14.4317C25.2031 14.3727 25.2325 14.3432 25.262 14.3137C25.4093 14.1957 25.586 14.0776 25.7333 13.9891C25.8217 13.9301 25.9101 13.8637 25.9984 13.7974C26.0868 13.731 26.1752 13.6646 26.2635 13.6056C26.1015 13.3106 25.9322 13.0229 25.7628 12.7353L25.7628 12.7352C25.5934 12.4476 25.424 12.1599 25.262 11.8649C24.8496 12.0419 24.4666 12.2189 24.0542 12.4255C23.6418 11.8944 23.1411 11.3929 22.6108 10.9798C22.7876 10.5668 22.9643 10.1832 23.1705 9.77019C22.876 9.60792 22.5887 9.43828 22.3015 9.26864L22.3015 9.26863C22.0143 9.09899 21.7271 8.92935 21.4325 8.76708C21.3 8.9441 21.1748 9.12112 21.0496 9.29814L21.0496 9.29814C20.9244 9.47516 20.7992 9.65218 20.6666 9.82919H20.6372C20.0186 9.59317 19.3705 9.41615 18.7225 9.29814C18.693 9.29814 18.6635 9.23913 18.6635 9.20963C18.6046 9.12112 18.6046 9.00311 18.6046 8.88509L18.5163 8H16.5132C16.5132 8.0295 16.5132 8.05901 16.4837 8.08851L16.4774 8.16439C16.4499 8.49689 16.4206 8.85124 16.3659 9.18012C16.3659 9.23913 16.3364 9.26863 16.2775 9.26863C15.6294 9.35714 15.0403 9.53416 14.4217 9.77019C14.3628 9.79969 14.3333 9.77019 14.3039 9.74068C14.2155 9.62267 14.1345 9.50466 14.0535 9.38664C13.9725 9.26863 13.8915 9.15062 13.8031 9.03261C13.7819 9.00084 13.757 8.96908 13.731 8.93595L13.731 8.93595C13.6845 8.87677 13.6346 8.81324 13.5969 8.73758C13.3023 8.89984 13.0151 9.06949 12.7279 9.23913C12.4407 9.40877 12.1535 9.57842 11.8589 9.74068C12.0356 10.1537 12.2124 10.5373 12.3891 10.9208L12.3891 10.9208C11.8589 11.3339 11.3876 11.8059 10.9752 12.337C10.9457 12.3665 10.9163 12.3665 10.8868 12.3665C10.8132 12.337 10.7469 12.3075 10.6806 12.2779C10.6143 12.2484 10.548 12.2189 10.4744 12.1894C10.3566 12.1304 10.2388 12.0788 10.1209 12.0272L10.1209 12.0272C10.0031 11.9755 9.88525 11.9239 9.76742 11.8649C9.60541 12.1599 9.43603 12.4476 9.26666 12.7352L9.26664 12.7352C9.09726 13.0229 8.92788 13.3106 8.76587 13.6056C8.97368 13.7617 9.18148 13.9076 9.3833 14.0493L9.38332 14.0493C9.5248 14.1486 9.66334 14.2459 9.79688 14.3432C9.53176 14.9922 9.35502 15.6708 9.26664 16.3494C9.04574 16.3641 8.8322 16.3863 8.61866 16.4084L8.61858 16.4084C8.40502 16.4305 8.19145 16.4526 7.97052 16.4674V18.4736C7.99998 18.4736 8.05889 18.4736 8.08835 18.5031C8.26513 18.5179 8.44928 18.5326 8.63342 18.5474C8.81749 18.5621 9.00156 18.5769 9.17827 18.5916C9.23719 18.5916 9.26664 18.6211 9.26664 18.6801C9.31679 18.9313 9.37643 19.1824 9.43479 19.4281C9.47926 19.6154 9.523 19.7996 9.56122 19.9783C9.59068 20.0815 9.6275 20.1848 9.66432 20.288C9.70114 20.3913 9.73796 20.4946 9.76742 20.5978C9.59068 20.7158 9.4213 20.8412 9.25192 20.9666C9.08254 21.092 8.91316 21.2174 8.73641 21.3354C8.96546 21.7525 9.20923 22.1696 9.44691 22.5763L9.44711 22.5766C9.5456 22.7451 9.64305 22.9119 9.73796 23.0761C9.87439 23.013 10.0071 22.9537 10.1374 22.8955L10.1375 22.8954C10.3728 22.7902 10.6004 22.6885 10.8279 22.5745C10.8868 22.545 10.9163 22.545 10.9752 22.604C11.0635 22.7073 11.1593 22.8179 11.255 22.9286C11.3508 23.0392 11.4465 23.1498 11.5349 23.2531C11.6674 23.3859 11.8073 23.5113 11.9473 23.6366C12.0872 23.762 12.2271 23.8874 12.3597 24.0202L11.8294 25.1708C12.124 25.333 12.4111 25.5027 12.6983 25.6723L12.6984 25.6724C12.9856 25.842 13.2729 26.0116 13.5674 26.1739C13.7233 25.9658 13.869 25.7576 14.0104 25.5555L14.0105 25.5554C14.1097 25.4137 14.2068 25.275 14.3039 25.1413C14.9519 25.4068 15.6 25.5838 16.2775 25.6724C16.2922 25.8789 16.3143 26.0854 16.3364 26.2919L16.3364 26.292C16.3585 26.4985 16.3806 26.705 16.3953 26.9115H18.3984C18.4132 26.705 18.4352 26.4984 18.4573 26.2919C18.4794 26.0854 18.5015 25.8789 18.5163 25.6724C19.2232 25.5838 19.8713 25.4068 20.5194 25.1413C20.755 25.4953 20.9907 25.8199 21.2558 26.1739C21.5504 26.0116 21.8376 25.842 22.1248 25.6724C22.412 25.5027 22.6992 25.3331 22.9938 25.1708C22.9643 25.1413 22.9643 25.1118 22.9643 25.0823L22.5225 24.1087C22.493 24.0497 22.493 23.9907 22.5519 23.9612C22.9349 23.6661 23.2884 23.3121 23.6124 22.9286C23.6713 22.8696 23.7228 22.8032 23.7744 22.7368L23.7744 22.7368C23.826 22.6704 23.8775 22.604 23.9364 22.545L25.0853 23.0761C25.2473 22.7811 25.4166 22.4934 25.586 22.2058L25.586 22.2057C25.7554 21.9181 25.9248 21.6304 26.0868 21.3354C25.9101 21.2174 25.7407 21.092 25.5713 20.9666C25.4019 20.8412 25.2325 20.7158 25.0558 20.5978C25.1736 20.2733 25.262 19.9488 25.3504 19.6243L25.3504 19.6242C25.4387 19.2997 25.4977 18.9752 25.5566 18.6506C25.5566 18.6211 25.586 18.5916 25.6155 18.5916C25.7223 18.5763 25.829 18.569 25.9399 18.5613L25.9399 18.5613C26.0432 18.5542 26.1499 18.5468 26.2635 18.5326C26.3666 18.5179 26.4624 18.5105 26.5581 18.5031C26.6539 18.4957 26.7496 18.4884 26.8527 18.4736V16.4674C26.6712 16.4674 26.445 16.445 26.2017 16.4209C26.05 16.4059 25.8917 16.3902 25.7333 16.3789V16.3199ZM17.5442 24.2857C13.7736 24.3152 10.6806 21.2469 10.7395 17.441C10.769 13.7826 13.7736 10.7143 17.5442 10.7438C21.2558 10.7438 24.2899 13.8121 24.2899 17.5295C24.2604 21.2469 21.2558 24.2857 17.5442 24.2857ZM21.6093 20.6863V15.6708V14.5497C21.6093 14.3432 21.5209 14.2547 21.3147 14.2547H19.7535C19.5178 14.2547 19.4294 14.3432 19.4294 14.5792V15.7298V15.8183H20.0186V14.8152H21.0496V20.8043H20.755V20.6568V16.5264C20.755 16.2609 20.6372 16.1429 20.3721 16.1429H19.1349C18.8403 16.1429 18.7225 16.2609 18.7225 16.5559V20.6863V20.8043H18.5163V20.6863V12.6615C18.5163 12.396 18.3984 12.278 18.1333 12.278H17.7798C17.5147 12.278 17.3969 12.396 17.3969 12.6615V20.6568V20.8043H17.0139V20.6863V17.1165V14.7857C17.0139 14.5202 16.8961 14.4022 16.631 14.4022H15.8356C15.5705 14.4022 15.4232 14.5202 15.4232 14.8152V17.913V18.0311H15.4527H15.9829C16.248 18.0311 16.4542 18.2081 16.4837 18.4736V18.6801C16.4837 19.0047 16.2775 19.2407 15.924 19.2407H15.3938V20.8338H14.9519V19.2407H14.4806V20.8043H14.0977V19.0637H14.2449H15.8946C16.1597 19.0637 16.307 18.9457 16.307 18.6506V18.5621C16.307 18.3556 16.1597 18.2081 15.9535 18.2081H13.5969C13.3612 18.2081 13.2434 18.3556 13.2434 18.5916V20.7158V20.8338H12.3008C13.3907 22.604 15.5116 23.9022 18.0155 23.6661C20.0186 23.4891 21.5504 22.5155 22.6992 20.8634V20.8338H21.6387C21.6093 20.7748 21.6093 20.7453 21.6093 20.6863ZM15.9535 13.045H14.9814V18.0311H14.5101V17.913V12.8975V12.75C14.5395 12.6025 14.6279 12.514 14.7752 12.514H16.1891C16.3659 12.514 16.4542 12.6025 16.4542 12.75V14.1366V14.1957H15.9535V13.045Z" fill="url(#paint6_radial_102_3324)"/>
<path d="M25.2325 14.4317L25.4195 14.3606L25.4159 14.3513L25.4115 14.3423L25.2325 14.4317ZM25.7333 16.3199H25.9333V16.3063L25.9315 16.2929L25.7333 16.3199ZM25.262 14.3137L25.1369 14.1576L25.1283 14.1645L25.1205 14.1724L25.262 14.3137ZM25.7333 13.9891L25.8364 14.1608L25.8444 14.1555L25.7333 13.9891ZM25.9984 13.7974L26.1185 13.9573L25.9984 13.7974ZM26.2635 13.6056L26.3746 13.7719L26.5271 13.6701L26.4389 13.5093L26.2635 13.6056ZM25.7628 12.7353L25.5891 12.8345L25.5904 12.8367L25.7628 12.7353ZM25.7628 12.7352L25.9364 12.636L25.9351 12.6338L25.7628 12.7352ZM25.262 11.8649L25.4373 11.7686L25.3499 11.6095L25.1831 11.6811L25.262 11.8649ZM24.0542 12.4255L23.8963 12.5481L23.997 12.6778L24.1438 12.6043L24.0542 12.4255ZM22.6108 10.9798L22.427 10.9011L22.3663 11.0429L22.4879 11.1376L22.6108 10.9798ZM23.1705 9.77019L23.3495 9.85952L23.4353 9.68768L23.267 9.59501L23.1705 9.77019ZM22.3015 9.26864L22.199 9.44035L22.1998 9.44084L22.3015 9.26864ZM22.3015 9.26863L22.4041 9.09692L22.4032 9.09643L22.3015 9.26863ZM21.4325 8.76708L21.529 8.5919L21.3767 8.50798L21.2724 8.6472L21.4325 8.76708ZM21.0496 9.29814L21.1952 9.43521L21.2048 9.42503L21.2129 9.41362L21.0496 9.29814ZM21.0496 9.29814L20.9039 9.16107L20.8944 9.17125L20.8863 9.18266L21.0496 9.29814ZM20.6666 9.82919V10.0292H20.7667L20.8267 9.94907L20.6666 9.82919ZM20.6372 9.82919L20.5659 10.0161L20.6003 10.0292H20.6372V9.82919ZM18.7225 9.29814L18.7583 9.10137L18.7405 9.09814H18.7225V9.29814ZM18.6635 9.20963H18.8635V9.14915L18.83 9.09881L18.6635 9.20963ZM18.6046 8.88509H18.8046V8.87513L18.8036 8.86522L18.6046 8.88509ZM18.5163 8L18.7153 7.98013L18.6973 7.8H18.5163V8ZM16.5132 8V7.8H16.3132V8H16.5132ZM16.4837 8.08851L16.3422 7.9472L16.2904 7.99902L16.2844 8.07199L16.4837 8.08851ZM16.4774 8.16439L16.2781 8.14788L16.2781 8.1479L16.4774 8.16439ZM16.3659 9.18012L16.1686 9.14729L16.1659 9.1636V9.18012H16.3659ZM16.2775 9.26863V9.06863H16.2639L16.2504 9.07047L16.2775 9.26863ZM14.4217 9.77019L14.3504 9.58333L14.3411 9.58688L14.3321 9.59136L14.4217 9.77019ZM14.3039 9.74068L14.1438 9.86056L14.1523 9.87194L14.1623 9.882L14.3039 9.74068ZM14.0535 9.38664L13.8886 9.49983L13.8886 9.49983L14.0535 9.38664ZM13.8031 9.03261L13.6363 9.1436L13.643 9.15249L13.8031 9.03261ZM13.731 8.93595L13.8886 8.81222L13.8805 8.80308L13.731 8.93595ZM13.731 8.93595L13.5734 9.05968L13.5815 9.06882L13.731 8.93595ZM13.5969 8.73758L13.7758 8.64825L13.6828 8.46191L13.5004 8.5624L13.5969 8.73758ZM12.7279 9.23913L12.6262 9.06692L12.7279 9.23913ZM11.8589 9.74068L11.7624 9.5655L11.6038 9.65288L11.675 9.81936L11.8589 9.74068ZM12.3891 10.9208L12.2075 11.0045L12.2075 11.0046L12.3891 10.9208ZM12.3891 10.9208L12.512 11.0786L12.6372 10.9811L12.5707 10.837L12.3891 10.9208ZM10.9752 12.337L11.1167 12.4783L11.1255 12.4695L11.1331 12.4596L10.9752 12.337ZM10.8868 12.3665L10.8124 12.5521L10.8482 12.5665H10.8868V12.3665ZM10.6806 12.2779L10.7619 12.0952L10.7619 12.0952L10.6806 12.2779ZM10.4744 12.1894L10.3848 12.3683L10.3923 12.372L10.4 12.3751L10.4744 12.1894ZM10.1209 12.0272L10.2012 11.844L10.2011 11.844L10.1209 12.0272ZM10.1209 12.0272L10.0406 12.2104L10.0407 12.2104L10.1209 12.0272ZM9.76742 11.8649L9.85697 11.6861L9.6848 11.5999L9.59211 11.7686L9.76742 11.8649ZM9.26666 12.7352L9.43763 12.839L9.439 12.8367L9.26666 12.7352ZM9.26664 12.7352L9.09567 12.6314L9.0943 12.6338L9.26664 12.7352ZM8.76587 13.6056L8.59056 13.5093L8.50708 13.6613L8.64575 13.7655L8.76587 13.6056ZM9.3833 14.0493L9.26835 14.213L9.27236 14.2157L9.3833 14.0493ZM9.38332 14.0493L9.49827 13.8856L9.49426 13.8829L9.38332 14.0493ZM9.79688 14.3432L9.98203 14.4188L10.0413 14.2738L9.91463 14.1815L9.79688 14.3432ZM9.26664 16.3494L9.27997 16.5489L9.44377 16.538L9.46497 16.3752L9.26664 16.3494ZM8.61866 16.4084L8.59805 16.2094L8.59595 16.2097L8.61866 16.4084ZM8.61858 16.4084L8.63919 16.6073L8.64129 16.6071L8.61858 16.4084ZM7.97052 16.4674L7.9572 16.2678L7.77052 16.2803V16.4674H7.97052ZM7.97052 18.4736H7.77052V18.6736H7.97052V18.4736ZM8.08835 18.5031L7.94682 18.6444L7.99863 18.6963L8.07171 18.7024L8.08835 18.5031ZM8.63342 18.5474L8.6494 18.348H8.6494L8.63342 18.5474ZM9.17827 18.5916L9.16164 18.7909L9.16994 18.7916H9.17827V18.5916ZM9.26664 18.6801H9.06664V18.6999L9.07052 18.7193L9.26664 18.6801ZM9.43479 19.4281L9.62938 19.3819L9.43479 19.4281ZM9.56122 19.9783L9.3652 20.0202L9.36889 20.0331L9.56122 19.9783ZM9.66432 20.288L9.47594 20.3552H9.47594L9.66432 20.288ZM9.76742 20.5978L9.87848 20.7642L9.99975 20.6832L9.95975 20.543L9.76742 20.5978ZM8.73641 21.3354L8.62535 21.1691L8.47283 21.2709L8.56111 21.4317L8.73641 21.3354ZM9.44691 22.5763L9.27424 22.6772L9.27442 22.6775L9.44691 22.5763ZM9.44711 22.5766L9.61978 22.4757L9.6196 22.4754L9.44711 22.5766ZM9.73796 23.0761L9.56481 23.1762L9.65617 23.3342L9.82188 23.2576L9.73796 23.0761ZM10.1374 22.8955L10.219 23.078L10.2195 23.0778L10.1374 22.8955ZM10.1375 22.8954L10.0558 22.7128L10.0553 22.7131L10.1375 22.8954ZM10.8279 22.5745L10.7383 22.3957H10.7383L10.8279 22.5745ZM10.9752 22.604L11.1271 22.474L11.1221 22.4682L11.1167 22.4627L10.9752 22.604ZM11.255 22.9286L11.1038 23.0594L11.255 22.9286ZM11.5349 23.2531L11.3829 23.3831L11.3879 23.389L11.3933 23.3944L11.5349 23.2531ZM11.9473 23.6366L11.8138 23.7856H11.8138L11.9473 23.6366ZM12.3597 24.0202L12.5413 24.1039L12.5996 23.9774L12.5012 23.8789L12.3597 24.0202ZM11.8294 25.1708L11.6478 25.0871L11.5699 25.2562L11.7329 25.346L11.8294 25.1708ZM12.6983 25.6723L12.8021 25.5013L12.8 25.5001L12.6983 25.6723ZM12.6984 25.6724L12.5946 25.8433L12.5967 25.8446L12.6984 25.6724ZM13.5674 26.1739L13.4709 26.3491L13.6233 26.433L13.7275 26.2938L13.5674 26.1739ZM14.0104 25.5555L14.1743 25.6702L14.1746 25.6697L14.0104 25.5555ZM14.0105 25.5554L13.8467 25.4407L13.8463 25.4412L14.0105 25.5554ZM14.3039 25.1413L14.3797 24.9562L14.2343 24.8967L14.142 25.0238L14.3039 25.1413ZM16.2775 25.6724L16.477 25.6581L16.4654 25.4952L16.3034 25.474L16.2775 25.6724ZM16.3364 26.2919L16.5356 26.2738L16.5353 26.2706L16.3364 26.2919ZM16.3364 26.292L16.1372 26.3101L16.1376 26.3133L16.3364 26.292ZM16.3953 26.9115L16.1958 26.9257L16.2091 27.1115H16.3953V26.9115ZM18.3984 26.9115V27.1115H18.5847L18.5979 26.9257L18.3984 26.9115ZM18.4573 26.2919L18.6562 26.3132L18.4573 26.2919ZM18.5163 25.6724L18.4914 25.4739L18.3284 25.4943L18.3168 25.6581L18.5163 25.6724ZM20.5194 25.1413L20.6858 25.0305L20.5951 24.8941L20.4435 24.9562L20.5194 25.1413ZM21.2558 26.1739L21.0957 26.2938L21.2 26.433L21.3523 26.3491L21.2558 26.1739ZM22.1248 25.6724L22.2265 25.8446H22.2265L22.1248 25.6724ZM22.9938 25.1708L23.0903 25.346L23.3232 25.2177L23.1353 25.0295L22.9938 25.1708ZM22.9643 25.0823H23.1643V25.039L23.1464 24.9996L22.9643 25.0823ZM22.5225 24.1087L22.7047 24.026L22.7014 24.0194L22.5225 24.1087ZM22.5519 23.9612L22.6415 24.14L22.6587 24.1314L22.674 24.1196L22.5519 23.9612ZM23.6124 22.9286L23.4709 22.7873L23.465 22.7931L23.4596 22.7995L23.6124 22.9286ZM23.7744 22.7368L23.6182 22.6118L23.6164 22.6141L23.7744 22.7368ZM23.7744 22.7368L23.9306 22.8617L23.9324 22.8595L23.7744 22.7368ZM23.9364 22.545L24.0203 22.3635L23.8936 22.3049L23.7949 22.4037L23.9364 22.545ZM25.0853 23.0761L25.0013 23.2576L25.1707 23.3359L25.2606 23.1724L25.0853 23.0761ZM25.586 22.2058L25.7584 22.3073L25.7597 22.305L25.586 22.2058ZM25.586 22.2057L25.4137 22.1042L25.4124 22.1065L25.586 22.2057ZM26.0868 21.3354L26.2621 21.4317L26.3504 21.2709L26.1979 21.1691L26.0868 21.3354ZM25.5713 20.9666L25.4523 21.1274V21.1274L25.5713 20.9666ZM25.0558 20.5978L24.8678 20.5296L24.8143 20.677L24.9447 20.7642L25.0558 20.5978ZM25.3504 19.6243L25.5434 19.6769L25.5448 19.671L25.3504 19.6243ZM25.3504 19.6242L25.1573 19.5717L25.1559 19.5775L25.3504 19.6242ZM25.5566 18.6506L25.7534 18.6863L25.7566 18.6686V18.6506H25.5566ZM25.6155 18.5916V18.7916H25.6297L25.6438 18.7896L25.6155 18.5916ZM25.9399 18.5613L25.9537 18.7612L25.9647 18.7598L25.9399 18.5613ZM25.9399 18.5613L25.9261 18.3615L25.9151 18.3629L25.9399 18.5613ZM26.2635 18.5326L26.2884 18.7311L26.2919 18.7306L26.2635 18.5326ZM26.5581 18.5031L26.5735 18.7025H26.5735L26.5581 18.5031ZM26.8527 18.4736L26.881 18.6716L27.0527 18.647V18.4736H26.8527ZM26.8527 16.4674H27.0527V16.2674H26.8527V16.4674ZM26.2017 16.4209L26.182 16.6199L26.2017 16.4209ZM25.7333 16.3789H25.5333V16.5651L25.719 16.5784L25.7333 16.3789ZM10.7395 17.441L10.9395 17.4441L10.9395 17.4426L10.7395 17.441ZM17.5442 24.2857V24.0857L17.5426 24.0857L17.5442 24.2857ZM17.5442 10.7438L17.5426 10.9438H17.5442V10.7438ZM24.2899 17.5295L24.4899 17.5311V17.5295H24.2899ZM19.4294 15.8183H19.2294V16.0183H19.4294V15.8183ZM20.0186 15.8183V16.0183H20.2186V15.8183H20.0186ZM20.0186 14.8152V14.6152H19.8186V14.8152H20.0186ZM21.0496 14.8152H21.2496V14.6152H21.0496V14.8152ZM21.0496 20.8043V21.0043H21.2496V20.8043H21.0496ZM20.755 20.8043H20.555V21.0043H20.755V20.8043ZM18.7225 20.8043V21.0043H18.9225V20.8043H18.7225ZM18.5163 20.8043H18.3163V21.0043H18.5163V20.8043ZM17.3969 20.8043V21.0043H17.5969V20.8043H17.3969ZM17.0139 20.8043H16.8139V21.0043H17.0139V20.8043ZM15.4232 18.0311H15.2232V18.2311H15.4232V18.0311ZM16.4837 18.4736H16.6837V18.4625L16.6825 18.4515L16.4837 18.4736ZM15.3938 19.2407V19.0407H15.1938V19.2407H15.3938ZM15.3938 20.8338V21.0338H15.5938V20.8338H15.3938ZM14.9519 20.8338H14.7519V21.0338H14.9519V20.8338ZM14.9519 19.2407H15.1519V19.0407H14.9519V19.2407ZM14.4806 19.2407V19.0407H14.2806V19.2407H14.4806ZM14.4806 20.8043V21.0043H14.6806V20.8043H14.4806ZM14.0977 20.8043H13.8977V21.0043H14.0977V20.8043ZM14.0977 19.0637V18.8637H13.8977V19.0637H14.0977ZM13.2434 20.8338V21.0338H13.4434V20.8338H13.2434ZM12.3008 20.8338V20.6338H11.9427L12.1304 20.9387L12.3008 20.8338ZM18.0155 23.6661L17.9979 23.4669L17.9967 23.467L18.0155 23.6661ZM22.6992 20.8634L22.8634 20.9775L22.8992 20.9261V20.8634H22.6992ZM22.6992 20.8338H22.8992V20.6338H22.6992V20.8338ZM21.6387 20.8338L21.4598 20.9232L21.515 21.0338H21.6387V20.8338ZM14.9814 13.045V12.845H14.7814V13.045H14.9814ZM15.9535 13.045H16.1535V12.845H15.9535V13.045ZM14.9814 18.0311V18.2311H15.1814V18.0311H14.9814ZM14.5101 18.0311H14.3101V18.2311H14.5101V18.0311ZM14.5101 12.75L14.3139 12.7108L14.3101 12.7302V12.75H14.5101ZM16.4542 14.1957V14.3957H16.6542V14.1957H16.4542ZM15.9535 14.1957H15.7535V14.3957H15.9535V14.1957ZM25.0456 14.5028C25.2773 15.112 25.4493 15.7165 25.5351 16.3469L25.9315 16.2929C25.8406 15.6251 25.6591 14.9905 25.4195 14.3606L25.0456 14.5028ZM25.1205 14.1724C25.1122 14.1806 25.0648 14.224 25.0394 14.2874C25.007 14.3688 25.0186 14.4509 25.0536 14.521L25.4115 14.3423C25.4129 14.3453 25.4184 14.3573 25.4199 14.3766C25.4216 14.3973 25.4181 14.4179 25.4109 14.4358C25.4044 14.452 25.3968 14.4615 25.3953 14.4633C25.3946 14.4642 25.3949 14.4636 25.4035 14.455L25.1205 14.1724ZM25.6303 13.8177C25.4776 13.9095 25.293 14.0325 25.1369 14.1576L25.3871 14.4697C25.5256 14.3588 25.6945 14.2458 25.8363 14.1606L25.6303 13.8177ZM25.8783 13.6375C25.7891 13.7045 25.7052 13.7674 25.6223 13.8228L25.8444 14.1555C25.9382 14.0928 26.031 14.023 26.1185 13.9573L25.8783 13.6375ZM26.1525 13.4393C26.0587 13.5019 25.9658 13.5717 25.8783 13.6375L26.1185 13.9573C26.2078 13.8902 26.2917 13.8273 26.3746 13.7719L26.1525 13.4393ZM25.5904 12.8367C25.7601 13.1248 25.9279 13.4099 26.0882 13.7019L26.4389 13.5093C26.2752 13.2112 26.1043 12.921 25.9351 12.6338L25.5904 12.8367ZM25.5891 12.8345L25.5891 12.8345L25.9364 12.636L25.9364 12.636L25.5891 12.8345ZM25.0867 11.9612C25.2504 12.2593 25.4213 12.5495 25.5904 12.8367L25.9351 12.6338C25.7655 12.3457 25.5976 12.0606 25.4373 11.7686L25.0867 11.9612ZM24.1438 12.6043C24.5525 12.3996 24.9319 12.2242 25.3409 12.0487L25.1831 11.6811C24.7673 11.8596 24.3808 12.0383 23.9647 12.2466L24.1438 12.6043ZM22.4879 11.1376C23.0051 11.5404 23.4941 12.0302 23.8963 12.5481L24.2122 12.3028C23.7896 11.7586 23.2771 11.2453 22.7337 10.822L22.4879 11.1376ZM22.9916 9.68085C22.7836 10.0976 22.6052 10.4847 22.427 10.9011L22.7947 11.0585C22.97 10.6489 23.1451 10.2689 23.3495 9.85952L22.9916 9.68085ZM22.1998 9.44084C22.4866 9.61024 22.7764 9.78141 23.074 9.94537L23.267 9.59501C22.9755 9.43443 22.6909 9.26632 22.4032 9.09643L22.1998 9.44084ZM22.199 9.44034L22.199 9.44035L22.4041 9.09693L22.4041 9.09692L22.199 9.44034ZM21.336 8.94226C21.6275 9.10284 21.9122 9.27095 22.1998 9.44084L22.4032 9.09643C22.1164 8.92703 21.8267 8.75585 21.529 8.5919L21.336 8.94226ZM21.2129 9.41362C21.3383 9.23627 21.462 9.06145 21.5926 8.88696L21.2724 8.6472C21.138 8.82675 21.0113 9.00597 20.8863 9.18265L21.2129 9.41362ZM21.1952 9.43522L21.1952 9.43521L20.904 9.16107L20.9039 9.16107L21.1952 9.43522ZM20.8267 9.94907C20.9612 9.76953 21.0879 9.59031 21.2129 9.41363L20.8863 9.18266C20.7609 9.36001 20.6372 9.53482 20.5066 9.70931L20.8267 9.94907ZM20.6372 10.0292H20.6666V9.62919H20.6372V10.0292ZM18.6866 9.4949C19.3233 9.61084 19.9595 9.78467 20.5659 10.0161L20.7085 9.64233C20.0777 9.40166 19.4177 9.22145 18.7583 9.10137L18.6866 9.4949ZM18.4635 9.20963C18.4635 9.27348 18.4887 9.33157 18.5104 9.36773C18.5229 9.38866 18.5421 9.41548 18.5697 9.43949C18.5954 9.46177 18.6478 9.49814 18.7225 9.49814V9.09814C18.7824 9.09814 18.8201 9.12712 18.8319 9.13742C18.8458 9.14944 18.852 9.15967 18.8535 9.16216C18.8556 9.16566 18.8571 9.16883 18.8584 9.17274C18.859 9.17459 18.8635 9.18786 18.8635 9.20963H18.4635ZM18.4046 8.88509C18.4046 8.98584 18.3981 9.17182 18.4971 9.32045L18.83 9.09881C18.8111 9.07042 18.8046 9.02037 18.8046 8.88509H18.4046ZM18.3172 8.01987L18.4056 8.90496L18.8036 8.86522L18.7153 7.98013L18.3172 8.01987ZM16.5132 8.2H18.5163V7.8H16.5132V8.2ZM16.6252 8.22982C16.7168 8.13814 16.7132 8.03243 16.7132 8H16.3132C16.3132 8.00395 16.3132 8.00608 16.3131 8.00794C16.3131 8.00964 16.3131 8.01004 16.3131 8.00967C16.3131 8.00893 16.3135 8.00359 16.3154 7.99582C16.3175 7.98757 16.3209 7.97806 16.3263 7.96845C16.3317 7.9589 16.3375 7.95185 16.3422 7.9472L16.6252 8.22982ZM16.6767 8.18091L16.683 8.10502L16.2844 8.07199L16.2781 8.14788L16.6767 8.18091ZM16.5632 9.21295C16.6195 8.8745 16.6494 8.51174 16.6767 8.18088L16.2781 8.1479C16.2505 8.48205 16.2217 8.82798 16.1686 9.14729L16.5632 9.21295ZM16.2775 9.46863C16.3379 9.46863 16.4199 9.45337 16.4853 9.38782C16.5507 9.32232 16.5659 9.24038 16.5659 9.18012H16.1659C16.1659 9.17888 16.1663 9.14119 16.2022 9.10519C16.2382 9.06914 16.276 9.06863 16.2775 9.06863V9.46863ZM14.493 9.95705C15.103 9.72432 15.6766 9.55256 16.3046 9.46679L16.2504 9.07047C15.5823 9.16173 14.9776 9.34401 14.3504 9.58333L14.493 9.95705ZM14.1623 9.882C14.1706 9.89025 14.2139 9.93781 14.2773 9.96322C14.3588 9.99586 14.4411 9.98415 14.5112 9.94902L14.3321 9.59136C14.3351 9.58986 14.3472 9.58436 14.3666 9.58281C14.3874 9.58114 14.4081 9.5847 14.4261 9.59191C14.4423 9.59841 14.4518 9.6061 14.4537 9.6076C14.4546 9.60836 14.454 9.60803 14.4454 9.59937L14.1623 9.882ZM13.8886 9.49983C13.9692 9.61735 14.0525 9.73873 14.1438 9.86056L14.4639 9.6208C14.3784 9.50661 14.2997 9.39196 14.2184 9.27346L13.8886 9.49983ZM13.643 9.15249C13.7285 9.26668 13.8072 9.38133 13.8886 9.49983L14.2184 9.27346C14.1377 9.15594 14.0544 9.03456 13.9632 8.91273L13.643 9.15249ZM13.5737 9.05945C13.6008 9.09394 13.6206 9.11938 13.6366 9.14343L13.9696 8.92179C13.9433 8.88231 13.9132 8.84422 13.8883 8.81245L13.5737 9.05945ZM13.5815 9.06882L13.5815 9.06883L13.8805 8.80308L13.8805 8.80307L13.5815 9.06882ZM13.4179 8.82691C13.4661 8.92346 13.5287 9.00218 13.5737 9.05945L13.8883 8.81244C13.8403 8.75136 13.8032 8.70301 13.7758 8.64825L13.4179 8.82691ZM12.8296 9.41133C13.1172 9.24145 13.4019 9.07334 13.6934 8.91276L13.5004 8.5624C13.2027 8.72635 12.913 8.89753 12.6262 9.06692L12.8296 9.41133ZM11.9554 9.91586C12.253 9.75191 12.5428 9.58073 12.8296 9.41133L12.6262 9.06692C12.3385 9.23681 12.0539 9.40492 11.7624 9.5655L11.9554 9.91586ZM12.5708 10.8371C12.3939 10.4533 12.2183 10.0721 12.0428 9.662L11.675 9.81936C11.853 10.2353 12.0309 10.6213 12.2075 11.0045L12.5708 10.8371ZM12.5707 10.837L12.5707 10.837L12.2075 11.0046L12.2075 11.0046L12.5707 10.837ZM11.1331 12.4596C11.5354 11.9417 11.9949 11.4814 12.512 11.0786L12.2662 10.763C11.7229 11.1863 11.2398 11.6701 10.8172 12.2143L11.1331 12.4596ZM10.8868 12.5665C10.9193 12.5665 11.0251 12.5701 11.1167 12.4783L10.8336 12.1956C10.8383 12.191 10.8453 12.1852 10.8549 12.1798C10.8646 12.1743 10.8741 12.1708 10.8824 12.1688C10.8902 12.1668 10.8956 12.1664 10.8964 12.1664C10.8968 12.1664 10.8964 12.1664 10.8947 12.1664C10.8929 12.1665 10.8907 12.1665 10.8868 12.1665V12.5665ZM10.5993 12.4607C10.6652 12.49 10.7348 12.521 10.8124 12.5521L10.9612 12.1808C10.8915 12.1529 10.8286 12.1249 10.7619 12.0952L10.5993 12.4607ZM10.4 12.3751C10.4697 12.403 10.5326 12.431 10.5993 12.4607L10.7619 12.0952C10.696 12.0659 10.6264 12.0349 10.5488 12.0038L10.4 12.3751ZM10.0407 12.2104C10.1592 12.2623 10.2723 12.3119 10.3848 12.3683L10.564 12.0106C10.4408 11.9489 10.3183 11.8953 10.2012 11.844L10.0407 12.2104ZM10.0407 12.2104L10.0408 12.2104L10.2011 11.844L10.2011 11.8439L10.0407 12.2104ZM9.67787 12.0437C9.80102 12.1054 9.92351 12.159 10.0406 12.2104L10.2012 11.844C10.0826 11.7921 9.96948 11.7424 9.85697 11.6861L9.67787 12.0437ZM9.439 12.8367C9.60813 12.5495 9.77903 12.2593 9.94273 11.9612L9.59211 11.7686C9.43178 12.0606 9.26393 12.3457 9.09431 12.6337L9.439 12.8367ZM9.4376 12.839L9.43761 12.839L9.0957 12.6314L9.09569 12.6315L9.4376 12.839ZM8.94118 13.7019C9.10151 13.4099 9.26936 13.1248 9.43899 12.8367L9.0943 12.6338C8.92517 12.921 8.75426 13.2112 8.59056 13.5093L8.94118 13.7019ZM9.49823 13.8856C9.29603 13.7436 9.09082 13.5995 8.88599 13.4457L8.64575 13.7655C8.85653 13.9238 9.06693 14.0715 9.26838 14.213L9.49823 13.8856ZM9.49426 13.8829L9.49424 13.8829L9.27236 14.2157L9.27238 14.2157L9.49426 13.8829ZM9.91463 14.1815C9.77944 14.083 9.63945 13.9848 9.49824 13.8856L9.26839 14.213C9.41015 14.3125 9.54724 14.4088 9.67912 14.5048L9.91463 14.1815ZM9.46497 16.3752C9.55116 15.7134 9.72355 15.0516 9.98203 14.4188L9.61173 14.2675C9.33997 14.9329 9.15888 15.6282 9.06832 16.3235L9.46497 16.3752ZM8.63927 16.6073C8.85333 16.5851 9.06329 16.5634 9.27997 16.5489L9.25332 16.1498C9.02819 16.1649 8.81106 16.1874 8.59805 16.2094L8.63927 16.6073ZM8.64129 16.6071L8.64137 16.6071L8.59595 16.2097L8.59587 16.2097L8.64129 16.6071ZM7.98384 16.6669C8.209 16.6519 8.42615 16.6294 8.63919 16.6073L8.59797 16.2094C8.38388 16.2316 8.1739 16.2534 7.9572 16.2678L7.98384 16.6669ZM8.17052 18.4736V16.4674H7.77052V18.4736H8.17052ZM8.22988 18.3618C8.17082 18.3026 8.09837 18.286 8.06236 18.28C8.02177 18.2732 7.98409 18.2736 7.97052 18.2736V18.6736C7.97807 18.6736 7.98309 18.6736 7.98812 18.6739C7.9931 18.6741 7.99573 18.6744 7.99651 18.6746C7.99763 18.6747 7.99336 18.6742 7.98583 18.6711C7.97831 18.668 7.96289 18.6605 7.94682 18.6444L8.22988 18.3618ZM8.6494 18.348C8.46519 18.3332 8.28138 18.3185 8.10498 18.3038L8.07171 18.7024C8.24888 18.7172 8.43337 18.732 8.61745 18.7467L8.6494 18.348ZM9.19491 18.3923C9.01781 18.3775 8.8334 18.3628 8.6494 18.348L8.61745 18.7467C8.80159 18.7615 8.98532 18.7762 9.16164 18.7909L9.19491 18.3923ZM9.46664 18.6801C9.46664 18.6199 9.45148 18.5379 9.38608 18.4724C9.32063 18.4069 9.23864 18.3916 9.17827 18.3916V18.7916C9.17682 18.7916 9.13902 18.7911 9.10302 18.7551C9.06708 18.7191 9.06664 18.6814 9.06664 18.6801H9.46664ZM9.62938 19.3819C9.57088 19.1356 9.5121 18.888 9.46277 18.641L9.07052 18.7193C9.12149 18.9746 9.18198 19.2292 9.2402 19.4744L9.62938 19.3819ZM9.75679 19.9364C9.71802 19.7552 9.67375 19.5688 9.62938 19.3819L9.2402 19.4744C9.28478 19.6621 9.32797 19.844 9.36564 20.0201L9.75679 19.9364ZM9.8527 20.2209C9.81548 20.1165 9.78092 20.0194 9.75355 19.9234L9.36889 20.0331C9.40043 20.1437 9.43951 20.2531 9.47594 20.3552L9.8527 20.2209ZM9.95975 20.543C9.92821 20.4324 9.88913 20.323 9.8527 20.2209L9.47594 20.3552C9.51316 20.4596 9.54771 20.5567 9.57509 20.6527L9.95975 20.543ZM9.37091 21.1274C9.54092 21.0015 9.70644 20.879 9.87848 20.7642L9.65636 20.4315C9.47491 20.5526 9.30167 20.6809 9.13292 20.8059L9.37091 21.1274ZM8.84747 21.5017C9.02892 21.3806 9.20216 21.2523 9.37091 21.1274L9.13292 20.8059C8.96291 20.9317 8.7974 21.0542 8.62535 21.1691L8.84747 21.5017ZM9.61958 22.4754C9.38167 22.0683 9.13927 21.6535 8.91172 21.2391L8.56111 21.4317C8.79166 21.8515 9.03679 22.2709 9.27424 22.6772L9.61958 22.4754ZM9.6196 22.4754L9.6194 22.4751L9.27442 22.6775L9.27462 22.6779L9.6196 22.4754ZM9.91112 22.976C9.81592 22.8113 9.71823 22.6442 9.61978 22.4757L9.27444 22.6775C9.37297 22.8461 9.47017 23.0125 9.56481 23.1762L9.91112 22.976ZM10.0557 22.7129C9.9256 22.771 9.79179 22.8309 9.65404 22.8945L9.82188 23.2576C9.95698 23.1952 10.0885 23.1364 10.219 23.078L10.0557 22.7129ZM10.0553 22.7131L10.0552 22.7131L10.2195 23.0778L10.2196 23.0778L10.0553 22.7131ZM10.7383 22.3957C10.5154 22.5074 10.2919 22.6073 10.0558 22.7128L10.2191 23.078C10.4538 22.9731 10.6853 22.8696 10.9174 22.7534L10.7383 22.3957ZM11.1167 22.4627C11.0816 22.4276 11.0217 22.3734 10.9345 22.3588C10.8447 22.3438 10.7721 22.3788 10.7383 22.3957L10.9174 22.7534C10.9278 22.7482 10.9267 22.7496 10.9195 22.7515C10.91 22.7541 10.8916 22.7572 10.8686 22.7534C10.8462 22.7496 10.8314 22.7412 10.826 22.7377C10.8219 22.735 10.8239 22.7355 10.8336 22.7453L11.1167 22.4627ZM11.4063 22.7977C11.3104 22.687 11.2151 22.5768 11.1271 22.474L10.8232 22.7341C10.912 22.8378 11.0081 22.9489 11.1038 23.0594L11.4063 22.7977ZM11.6868 23.1231C11.598 23.0193 11.5019 22.9082 11.4063 22.7977L11.1038 23.0594C11.1996 23.1702 11.295 23.2804 11.3829 23.3831L11.6868 23.1231ZM12.0807 23.4877C11.9401 23.3617 11.8044 23.24 11.6764 23.1118L11.3933 23.3944C11.5305 23.5318 11.6746 23.6608 11.8138 23.7856L12.0807 23.4877ZM12.5012 23.8789C12.3641 23.7415 12.22 23.6125 12.0807 23.4877L11.8138 23.7856C11.9544 23.9116 12.0902 24.0333 12.2181 24.1615L12.5012 23.8789ZM12.0111 25.2545L12.5413 24.1039L12.178 23.9365L11.6478 25.0871L12.0111 25.2545ZM12.8 25.5001C12.5133 25.3307 12.2235 25.1596 11.9259 24.9956L11.7329 25.346C12.0244 25.5065 12.309 25.6746 12.5966 25.8445L12.8 25.5001ZM12.8022 25.5014L12.8021 25.5013L12.5945 25.8432L12.5947 25.8433L12.8022 25.5014ZM13.6639 25.9987C13.3724 25.8382 13.0878 25.67 12.8002 25.5002L12.5967 25.8446C12.8835 26.014 13.1733 26.1851 13.4709 26.3491L13.6639 25.9987ZM13.8466 25.4408C13.7048 25.6433 13.561 25.8489 13.4073 26.054L13.7275 26.2938C13.8856 26.0827 14.0331 25.872 14.1743 25.6702L13.8466 25.4408ZM13.8463 25.4412L13.8462 25.4413L14.1746 25.6697L14.1747 25.6696L13.8463 25.4412ZM14.142 25.0238C14.0437 25.1591 13.9456 25.2993 13.8467 25.4407L14.1744 25.6701C14.2737 25.5281 14.3698 25.3909 14.4657 25.2588L14.142 25.0238ZM16.3034 25.474C15.6442 25.3879 15.0129 25.2157 14.3797 24.9562L14.228 25.3264C14.891 25.598 15.5558 25.7798 16.2516 25.8707L16.3034 25.474ZM16.5353 26.2706C16.5131 26.0635 16.4914 25.8605 16.477 25.6581L16.078 25.6866C16.093 25.8972 16.1155 26.1073 16.1375 26.3132L16.5353 26.2706ZM16.5356 26.2739L16.5356 26.2738L16.1372 26.31L16.1372 26.3101L16.5356 26.2739ZM16.5948 26.8973C16.5798 26.6866 16.5573 26.4766 16.5353 26.2707L16.1376 26.3133C16.1597 26.5204 16.1814 26.7233 16.1958 26.9257L16.5948 26.8973ZM18.3984 26.7115H16.3953V27.1115H18.3984V26.7115ZM18.2585 26.2706C18.2364 26.4766 18.214 26.6866 18.1989 26.8973L18.5979 26.9257C18.6124 26.7233 18.6341 26.5203 18.6562 26.3132L18.2585 26.2706ZM18.3168 25.6581C18.3023 25.8605 18.2806 26.0635 18.2585 26.2706L18.6562 26.3132C18.6782 26.1073 18.7007 25.8972 18.7158 25.6866L18.3168 25.6581ZM20.4435 24.9562C19.8107 25.2155 19.1798 25.3877 18.4914 25.4739L18.5411 25.8708C19.2667 25.78 19.9319 25.5981 20.5952 25.3264L20.4435 24.9562ZM21.4159 26.054C21.1518 25.7014 20.9186 25.3802 20.6858 25.0305L20.3529 25.2521C20.5914 25.6105 20.8295 25.9384 21.0957 26.2938L21.4159 26.054ZM22.023 25.5002C21.7354 25.67 21.4508 25.8382 21.1593 25.9987L21.3523 26.3491C21.6499 26.1851 21.9397 26.014 22.2265 25.8446L22.023 25.5002ZM22.8973 24.9956C22.5996 25.1596 22.3099 25.3308 22.023 25.5002L22.2265 25.8446C22.5141 25.6747 22.7988 25.5066 23.0903 25.346L22.8973 24.9956ZM22.7643 25.0823C22.7643 25.1147 22.7607 25.2204 22.8522 25.3121L23.1353 25.0295C23.1399 25.0341 23.1458 25.0412 23.1511 25.0507C23.1565 25.0604 23.16 25.0699 23.162 25.0781C23.164 25.0859 23.1643 25.0912 23.1644 25.092C23.1644 25.0923 23.1644 25.0919 23.1644 25.0902C23.1643 25.0884 23.1643 25.0862 23.1643 25.0823H22.7643ZM22.3403 24.1913L22.7822 25.165L23.1464 24.9996L22.7046 24.026L22.3403 24.1913ZM22.4624 23.7823C22.3774 23.8249 22.3195 23.9014 22.3061 23.9956C22.2945 24.0769 22.319 24.1489 22.3435 24.198L22.7014 24.0194C22.6965 24.0095 22.7063 24.0225 22.702 24.0521C22.6996 24.0691 22.6927 24.0888 22.6792 24.1071C22.6659 24.1252 22.651 24.1352 22.6415 24.14L22.4624 23.7823ZM23.4596 22.7995C23.1424 23.175 22.799 23.5183 22.4299 23.8027L22.674 24.1196C23.0707 23.8139 23.4343 23.4493 23.7652 23.0576L23.4596 22.7995ZM23.6164 22.6141C23.5636 22.6822 23.5195 22.7385 23.4709 22.7873L23.7539 23.0699C23.8231 23.0006 23.8821 22.9241 23.9324 22.8595L23.6164 22.6141ZM23.6182 22.6118L23.6182 22.6119L23.9306 22.8617L23.9306 22.8617L23.6182 22.6118ZM23.7949 22.4037C23.7257 22.473 23.6667 22.5495 23.6164 22.6141L23.9324 22.8595C23.9853 22.7914 24.0293 22.735 24.0779 22.6863L23.7949 22.4037ZM25.1692 22.8945L24.0203 22.3635L23.8525 22.7266L25.0013 23.2576L25.1692 22.8945ZM25.4137 22.1043C25.2445 22.3915 25.0736 22.6817 24.9099 22.9798L25.2606 23.1724C25.4209 22.8804 25.5887 22.5953 25.7584 22.3072L25.4137 22.1043ZM25.4124 22.1065L25.4124 22.1065L25.7597 22.305L25.7597 22.3049L25.4124 22.1065ZM25.9115 21.2391C25.7512 21.5311 25.5833 21.8162 25.4137 22.1042L25.7584 22.3072C25.9275 22.02 26.0984 21.7298 26.2621 21.4317L25.9115 21.2391ZM25.4523 21.1274C25.6211 21.2523 25.7943 21.3806 25.9757 21.5017L26.1979 21.1691C26.0258 21.0542 25.8603 20.9317 25.6903 20.8059L25.4523 21.1274ZM24.9447 20.7642C25.1168 20.879 25.2823 21.0015 25.4523 21.1274L25.6903 20.8059C25.5215 20.6809 25.3483 20.5526 25.1669 20.4315L24.9447 20.7642ZM25.1574 19.5717C25.0687 19.8974 24.9824 20.2141 24.8678 20.5296L25.2438 20.6661C25.3649 20.3326 25.4553 20.0002 25.5433 19.6768L25.1574 19.5717ZM25.1559 19.5775L25.1559 19.5776L25.5448 19.671L25.5448 19.6709L25.1559 19.5775ZM25.3598 18.6149C25.3006 18.9407 25.2431 19.2568 25.1574 19.5717L25.5433 19.6768C25.6343 19.3426 25.6947 19.0096 25.7534 18.6863L25.3598 18.6149ZM25.6155 18.3916C25.5356 18.3916 25.4725 18.4296 25.4335 18.4687C25.3943 18.5079 25.3566 18.5709 25.3566 18.6506H25.7566C25.7566 18.7008 25.7335 18.7343 25.7165 18.7514C25.6995 18.7684 25.6659 18.7916 25.6155 18.7916V18.3916ZM25.9261 18.3618C25.8165 18.3694 25.7024 18.3771 25.5872 18.3936L25.6438 18.7896C25.7421 18.7755 25.8416 18.7686 25.9537 18.7608L25.9261 18.3618ZM25.9151 18.3629L25.9151 18.3629L25.9647 18.7598L25.9647 18.7598L25.9151 18.3629ZM26.2387 18.3342C26.1314 18.3476 26.03 18.3546 25.9262 18.3618L25.9537 18.7608C26.0563 18.7538 26.1684 18.7461 26.2884 18.7311L26.2387 18.3342ZM26.5428 18.3037C26.4477 18.311 26.3457 18.3188 26.2352 18.3346L26.2919 18.7306C26.3876 18.7169 26.4771 18.7099 26.5735 18.7025L26.5428 18.3037ZM26.8244 18.2756C26.7287 18.2893 26.6392 18.2963 26.5428 18.3037L26.5735 18.7025C26.6685 18.6952 26.7705 18.6874 26.881 18.6716L26.8244 18.2756ZM26.6527 16.4674V18.4736H27.0527V16.4674H26.6527ZM26.182 16.6199C26.4219 16.6437 26.6592 16.6674 26.8527 16.6674V16.2674C26.6833 16.2674 26.4682 16.2463 26.2214 16.2219L26.182 16.6199ZM25.719 16.5784C25.8742 16.5895 26.0299 16.6049 26.182 16.6199L26.2214 16.2219C26.0701 16.2069 25.9091 16.1909 25.7476 16.1794L25.719 16.5784ZM25.5333 16.3199V16.3789H25.9333V16.3199H25.5333ZM10.5395 17.4379C10.4789 21.3572 13.6641 24.5161 17.5457 24.4857L17.5426 24.0857C13.8832 24.1144 10.8823 21.1366 10.9395 17.4441L10.5395 17.4379ZM17.5457 10.5438C13.6626 10.5134 10.5698 13.6727 10.5395 17.4394L10.9395 17.4426C10.9681 13.8925 13.8846 10.9152 17.5426 10.9438L17.5457 10.5438ZM24.4899 17.5295C24.4899 13.7031 21.3677 10.5438 17.5442 10.5438V10.9438C21.1439 10.9438 24.0899 13.9211 24.0899 17.5295H24.4899ZM17.5442 24.4857C21.368 24.4857 24.4596 21.356 24.4899 17.5311L24.0899 17.5279C24.0613 21.1378 21.1436 24.0857 17.5442 24.0857V24.4857ZM21.4093 15.6708V20.6863H21.8093V15.6708H21.4093ZM21.4093 14.5497V15.6708H21.8093V14.5497H21.4093ZM21.3147 14.4547C21.3946 14.4547 21.4043 14.4726 21.3978 14.466C21.3914 14.4596 21.4093 14.4695 21.4093 14.5497H21.8093C21.8093 14.4234 21.783 14.2858 21.6809 14.1834C21.5786 14.081 21.441 14.0547 21.3147 14.0547V14.4547ZM19.7535 14.4547H21.3147V14.0547H19.7535V14.4547ZM19.6294 14.5792C19.6294 14.4777 19.6501 14.4642 19.6446 14.4697C19.639 14.4753 19.6523 14.4547 19.7535 14.4547V14.0547C19.619 14.0547 19.4702 14.0782 19.3616 14.1871C19.2529 14.2959 19.2294 14.4446 19.2294 14.5792H19.6294ZM19.6294 15.7298V14.5792H19.2294V15.7298H19.6294ZM19.6294 15.8183V15.7298H19.2294V15.8183H19.6294ZM20.0186 15.6183H19.4294V16.0183H20.0186V15.6183ZM19.8186 14.8152V15.8183H20.2186V14.8152H19.8186ZM21.0496 14.6152H20.0186V15.0152H21.0496V14.6152ZM21.2496 20.8043V14.8152H20.8496V20.8043H21.2496ZM20.755 21.0043H21.0496V20.6043H20.755V21.0043ZM20.555 20.6568V20.8043H20.955V20.6568H20.555ZM20.555 16.5264V20.6568H20.955V16.5264H20.555ZM20.3721 16.3429C20.4796 16.3429 20.5124 16.3673 20.5214 16.3764C20.5305 16.3855 20.555 16.4185 20.555 16.5264H20.955C20.955 16.3688 20.9206 16.21 20.8045 16.0937C20.6883 15.9774 20.5296 15.9429 20.3721 15.9429V16.3429ZM19.1349 16.3429H20.3721V15.9429H19.1349V16.3429ZM18.9225 16.5559C18.9225 16.428 18.9492 16.3906 18.9597 16.3801C18.9702 16.3696 19.0074 16.3429 19.1349 16.3429V15.9429C18.9678 15.9429 18.7988 15.9751 18.6767 16.0974C18.5546 16.2197 18.5225 16.3887 18.5225 16.5559H18.9225ZM18.9225 20.6863V16.5559H18.5225V20.6863H18.9225ZM18.9225 20.8043V20.6863H18.5225V20.8043H18.9225ZM18.5163 21.0043H18.7225V20.6043H18.5163V21.0043ZM18.3163 20.6863V20.8043H18.7163V20.6863H18.3163ZM18.3163 12.6615V20.6863H18.7163V12.6615H18.3163ZM18.1333 12.478C18.2409 12.478 18.2736 12.5024 18.2827 12.5115C18.2918 12.5206 18.3163 12.5536 18.3163 12.6615H18.7163C18.7163 12.5039 18.6818 12.3451 18.5657 12.2288C18.4496 12.1125 18.2909 12.078 18.1333 12.078V12.478ZM17.7798 12.478H18.1333V12.078H17.7798V12.478ZM17.5969 12.6615C17.5969 12.5536 17.6214 12.5206 17.6305 12.5115C17.6395 12.5024 17.6723 12.478 17.7798 12.478V12.078C17.6223 12.078 17.4636 12.1125 17.3474 12.2288C17.2313 12.3451 17.1969 12.5039 17.1969 12.6615H17.5969ZM17.5969 20.6568V12.6615H17.1969V20.6568H17.5969ZM17.5969 20.8043V20.6568H17.1969V20.8043H17.5969ZM17.0139 21.0043H17.3969V20.6043H17.0139V21.0043ZM16.8139 20.6863V20.8043H17.2139V20.6863H16.8139ZM16.8139 17.1165V20.6863H17.2139V17.1165H16.8139ZM16.8139 14.7857V17.1165H17.2139V14.7857H16.8139ZM16.631 14.6022C16.7386 14.6022 16.7713 14.6266 16.7803 14.6357C16.7895 14.6448 16.8139 14.6778 16.8139 14.7857H17.2139C17.2139 14.6281 17.1795 14.4693 17.0634 14.3531C16.9473 14.2367 16.7885 14.2022 16.631 14.2022V14.6022ZM15.8356 14.6022H16.631V14.2022H15.8356V14.6022ZM15.6232 14.8152C15.6232 14.6984 15.6522 14.6578 15.6677 14.6431C15.6852 14.6265 15.7284 14.6022 15.8356 14.6022V14.2022C15.6778 14.2022 15.5148 14.2368 15.3924 14.353C15.2679 14.4711 15.2232 14.6371 15.2232 14.8152H15.6232ZM15.6232 17.913V14.8152H15.2232V17.913H15.6232ZM15.6232 18.0311V17.913H15.2232V18.0311H15.6232ZM15.4527 17.8311H15.4232V18.2311H15.4527V17.8311ZM15.9829 17.8311H15.4527V18.2311H15.9829V17.8311ZM16.6825 18.4515C16.6414 18.081 16.3462 17.8311 15.9829 17.8311V18.2311C16.1499 18.2311 16.2671 18.3352 16.2849 18.4957L16.6825 18.4515ZM16.6837 18.6801V18.4736H16.2837V18.6801H16.6837ZM15.924 19.4407C16.147 19.4407 16.3418 19.365 16.4806 19.2207C16.6181 19.0777 16.6837 18.8847 16.6837 18.6801H16.2837C16.2837 18.8001 16.2462 18.8874 16.1922 18.9435C16.1395 18.9983 16.0545 19.0407 15.924 19.0407V19.4407ZM15.3938 19.4407H15.924V19.0407H15.3938V19.4407ZM15.5938 20.8338V19.2407H15.1938V20.8338H15.5938ZM14.9519 21.0338H15.3938V20.6338H14.9519V21.0338ZM14.7519 19.2407V20.8338H15.1519V19.2407H14.7519ZM14.4806 19.4407H14.9519V19.0407H14.4806V19.4407ZM14.6806 20.8043V19.2407H14.2806V20.8043H14.6806ZM14.0977 21.0043H14.4806V20.6043H14.0977V21.0043ZM13.8977 19.0637V20.8043H14.2977V19.0637H13.8977ZM14.2449 18.8637H14.0977V19.2637H14.2449V18.8637ZM15.8946 18.8637H14.2449V19.2637H15.8946V18.8637ZM16.107 18.6506C16.107 18.7675 16.078 18.808 16.0625 18.8227C16.045 18.8393 16.0018 18.8637 15.8946 18.8637V19.2637C16.0524 19.2637 16.2154 19.229 16.3378 19.1129C16.4623 18.9948 16.507 18.8288 16.507 18.6506H16.107ZM16.107 18.5621V18.6506H16.507V18.5621H16.107ZM15.9535 18.4081C16.0489 18.4081 16.107 18.4658 16.107 18.5621H16.507C16.507 18.2454 16.2704 18.0081 15.9535 18.0081V18.4081ZM13.5969 18.4081H15.9535V18.0081H13.5969V18.4081ZM13.4434 18.5916C13.4434 18.5043 13.4653 18.4622 13.4813 18.4441C13.494 18.4298 13.5224 18.4081 13.5969 18.4081V18.0081C13.4357 18.0081 13.2873 18.0601 13.1822 18.1786C13.0804 18.2932 13.0434 18.4429 13.0434 18.5916H13.4434ZM13.4434 20.7158V18.5916H13.0434V20.7158H13.4434ZM13.4434 20.8338V20.7158H13.0434V20.8338H13.4434ZM12.3008 21.0338H13.2434V20.6338H12.3008V21.0338ZM17.9967 23.467C15.5756 23.6952 13.5248 22.4405 12.4711 20.729L12.1304 20.9387C13.2565 22.7676 15.4476 24.1091 18.0343 23.8653L17.9967 23.467ZM22.535 20.7492C21.4165 22.3577 19.9361 23.2956 17.9979 23.4669L18.0331 23.8654C20.1011 23.6826 21.6842 22.6734 22.8634 20.9775L22.535 20.7492ZM22.4992 20.8338V20.8634H22.8992V20.8338H22.4992ZM21.6387 21.0338H22.6992V20.6338H21.6387V21.0338ZM21.4093 20.6863C21.4093 20.7119 21.4088 20.7514 21.4157 20.7929C21.4234 20.8394 21.4386 20.8807 21.4598 20.9232L21.8177 20.7445C21.8132 20.7356 21.8114 20.7309 21.8107 20.7289C21.8104 20.7279 21.8103 20.7275 21.8103 20.7274C21.8103 20.7274 21.8103 20.7274 21.8103 20.7273C21.8102 20.727 21.8098 20.7248 21.8096 20.7183C21.8093 20.7109 21.8093 20.7021 21.8093 20.6863H21.4093ZM14.9814 13.245H15.9535V12.845H14.9814V13.245ZM15.1814 18.0311V13.045H14.7814V18.0311H15.1814ZM14.5101 18.2311H14.9814V17.8311H14.5101V18.2311ZM14.3101 17.913V18.0311H14.7101V17.913H14.3101ZM14.3101 12.8975V17.913H14.7101V12.8975H14.3101ZM14.3101 12.75V12.8975H14.7101V12.75H14.3101ZM14.7752 12.314C14.6591 12.314 14.5495 12.3501 14.4632 12.4293C14.3794 12.5063 14.3344 12.6082 14.3139 12.7108L14.7062 12.7892C14.7151 12.7443 14.7291 12.7282 14.7337 12.724C14.7357 12.7221 14.744 12.714 14.7752 12.714V12.314ZM16.1891 12.314H14.7752V12.714H16.1891V12.314ZM16.6542 12.75C16.6542 12.6358 16.6189 12.5172 16.5232 12.4293C16.4302 12.3439 16.3085 12.314 16.1891 12.314V12.714C16.2464 12.714 16.2574 12.7283 16.2527 12.724C16.2506 12.7221 16.2501 12.7204 16.2507 12.722C16.2516 12.7244 16.2542 12.7328 16.2542 12.75H16.6542ZM16.6542 14.1366V12.75H16.2542V14.1366H16.6542ZM16.6542 14.1957V14.1366H16.2542V14.1957H16.6542ZM15.9535 14.3957H16.4542V13.9957H15.9535V14.3957ZM15.7535 13.045V14.1957H16.1535V13.045H15.7535Z" fill="url(#paint7_linear_102_3324)" mask="url(#path-7-inside-1_102_3324)"/>
<defs>
<linearGradient id="paint0_linear_102_3324" x1="17.6056" y1="0" x2="17.6056" y2="50" gradientUnits="userSpaceOnUse">
<stop stop-color="#136F97"/>
<stop offset="0.494415" stop-color="#0C516F"/>
<stop offset="1" stop-color="#136F97"/>
</linearGradient>
<radialGradient id="paint1_radial_102_3324" cx="0" cy="0" r="1" gradientUnits="userSpaceOnUse" gradientTransform="translate(18 0.411765) rotate(90) scale(21.3529)">
<stop stop-color="white"/>
<stop offset="1" stop-color="white" stop-opacity="0"/>
</radialGradient>
<linearGradient id="paint2_linear_102_3324" x1="17.6056" y1="0" x2="17.6056" y2="50" gradientUnits="userSpaceOnUse">
<stop stop-color="#095272"/>
<stop offset="0.489583" stop-color="#0D5473"/>
<stop offset="1" stop-color="#064E6D"/>
</linearGradient>
<radialGradient id="paint3_radial_102_3324" cx="0" cy="0" r="1" gradientUnits="userSpaceOnUse" gradientTransform="translate(17.5 17.5) rotate(90) scale(13.5)">
<stop offset="0.708333" stop-color="white"/>
<stop offset="1" stop-color="#BACDD6"/>
</radialGradient>
<linearGradient id="paint4_linear_102_3324" x1="8" y1="6" x2="27.5" y2="31" gradientUnits="userSpaceOnUse">
<stop offset="0.203125" stop-color="#1B7EA9"/>
<stop offset="0.484375" stop-color="#3A9ECA"/>
<stop offset="0.796875" stop-color="#1C7BA4"/>
</linearGradient>
<linearGradient id="paint5_linear_102_3324" x1="8.00008" y1="5.99999" x2="25.5001" y2="28" gradientUnits="userSpaceOnUse">
<stop stop-color="#0A5372"/>
<stop offset="0.317708" stop-color="#0A5372" stop-opacity="0"/>
<stop offset="0.776042" stop-color="white" stop-opacity="0"/>
<stop offset="1" stop-color="white"/>
</linearGradient>
<radialGradient id="paint6_radial_102_3324" cx="0" cy="0" r="1" gradientUnits="userSpaceOnUse" gradientTransform="translate(22.1397 23.9688) rotate(-127.605) scale(23.1708 23.8136)">
<stop stop-color="#136F97"/>
<stop offset="1" stop-color="#00AEFA"/>
</radialGradient>
<linearGradient id="paint7_linear_102_3324" x1="11" y1="10.5" x2="25.0277" y2="24.4702" gradientUnits="userSpaceOnUse">
<stop stop-color="#81D8FF"/>
<stop offset="0.265625" stop-color="#66D0FF" stop-opacity="0"/>
<stop offset="0.645833" stop-color="#005981" stop-opacity="0"/>
<stop offset="1" stop-color="#005981"/>
</linearGradient>
</defs>
</svg>
