<svg width="36" height="50" viewBox="0 0 36 50" fill="none" xmlns="http://www.w3.org/2000/svg">
<path d="M35.2113 17.6056C35.2113 32.3944 19.7183 50 17.6056 50C15.493 50 0 32.3944 0 17.6056C0 7.88231 7.88231 0 17.6056 0C27.329 0 35.2113 7.88231 35.2113 17.6056Z" fill="url(#paint0_linear_102_3257)"/>
<path fill-rule="evenodd" clip-rule="evenodd" d="M0.0931396 15.7836C1.00486 6.91638 8.49754 0 17.6056 0C27.0357 0 34.7341 7.41403 35.1899 16.7311C31.1585 21.7715 24.9563 25 18 25C10.6171 25 4.08359 21.3633 0.0931396 15.7836Z" fill="url(#paint1_radial_102_3257)"/>
<path d="M34.4613 17.6056C34.4613 24.7754 30.6884 32.7212 26.5753 38.9346C24.5278 42.0277 22.4183 44.6578 20.6985 46.5073C19.8373 47.4336 19.0846 48.1524 18.4947 48.6334C18.1986 48.8748 17.9583 49.0442 17.7764 49.1492C17.6946 49.1964 17.6388 49.2222 17.6056 49.2361C17.5724 49.2222 17.5166 49.1964 17.4348 49.1492C17.253 49.0442 17.0126 48.8748 16.7165 48.6334C16.1267 48.1524 15.374 47.4336 14.5127 46.5073C12.793 44.6578 10.6835 42.0277 8.63595 38.9346C4.52286 32.7212 0.75 24.7754 0.75 17.6056C0.75 8.29653 8.29652 0.75 17.6056 0.75C26.9147 0.75 34.4613 8.29653 34.4613 17.6056Z" stroke="url(#paint2_linear_102_3257)" stroke-width="1.5"/>
<circle cx="17.5" cy="17.5" r="13.5" fill="url(#paint3_radial_102_3257)"/>
<circle cx="17.5" cy="17.5" r="13" stroke="url(#paint4_linear_102_3257)"/>
<circle cx="17.5001" cy="17.5" r="13.4" transform="rotate(17.2793 17.5001 17.5)" stroke="url(#paint5_linear_102_3257)" stroke-width="0.2"/>
<mask id="path-7-inside-1_102_3257" fill="white">
<path fill-rule="evenodd" clip-rule="evenodd" d="M23.9435 8.95136C24.2262 8.95136 24.4494 9.158 24.4792 9.42367L25 15.0323V24.4046H22.8127H22.4853H9.71842V23.7847H11.9504V22.7515C10.2541 22.3678 8.97443 20.8623 8.97443 19.0469C8.97443 16.9363 10.7005 15.2389 12.8134 15.2242H15.6703V14.5305H15.0008V13.7335H18.4975V14.5305H17.7833V15.2242H19.1373C21.2503 15.2242 22.9763 16.9363 22.9763 19.0321C22.9763 20.7295 21.8455 22.1759 20.298 22.663V23.7847H22.4704V22.1611C23.3186 21.3789 23.8394 20.2719 23.8394 19.0469C23.8394 16.6854 21.905 14.7666 19.5242 14.7666H19.2713L19.5093 9.45319C19.5093 9.17276 19.7474 8.95136 20.0301 8.95136H21.1908C21.4735 8.95136 21.6967 9.158 21.7264 9.42367L22.0984 13.3202L22.2621 9.45319C22.2621 9.17276 22.5002 8.95136 22.7829 8.95136H23.9435ZM12.6646 21.6003V22.1464V22.8253H13.2152V22.1464H14.8073V22.8253H15.3579V22.1464V21.6003V20.6704V20.1243V19.1945V18.6484V17.7185V17.1724V16.2426V15.8145V15.6965H12.6646V15.8145V16.2426V17.1724V17.7185V18.6484V19.1945V20.1243V20.6704V21.6003ZM12.6646 23.7847H19.5837V22.8106C19.4349 22.8253 19.2861 22.8401 19.1373 22.8401H12.8134H12.6646V23.7847ZM13.2152 16.2426H14.8222V17.1724H13.2152V16.2426ZM14.8222 17.7185H13.2152V18.6484H14.8222V17.7185ZM14.8222 19.1945H13.2152V20.1243H14.8222V19.1945ZM14.8222 20.6704H13.2152V21.6003H14.8222V20.6704Z"/>
</mask>
<path fill-rule="evenodd" clip-rule="evenodd" d="M23.9435 8.95136C24.2262 8.95136 24.4494 9.158 24.4792 9.42367L25 15.0323V24.4046H22.8127H22.4853H9.71842V23.7847H11.9504V22.7515C10.2541 22.3678 8.97443 20.8623 8.97443 19.0469C8.97443 16.9363 10.7005 15.2389 12.8134 15.2242H15.6703V14.5305H15.0008V13.7335H18.4975V14.5305H17.7833V15.2242H19.1373C21.2503 15.2242 22.9763 16.9363 22.9763 19.0321C22.9763 20.7295 21.8455 22.1759 20.298 22.663V23.7847H22.4704V22.1611C23.3186 21.3789 23.8394 20.2719 23.8394 19.0469C23.8394 16.6854 21.905 14.7666 19.5242 14.7666H19.2713L19.5093 9.45319C19.5093 9.17276 19.7474 8.95136 20.0301 8.95136H21.1908C21.4735 8.95136 21.6967 9.158 21.7264 9.42367L22.0984 13.3202L22.2621 9.45319C22.2621 9.17276 22.5002 8.95136 22.7829 8.95136H23.9435ZM12.6646 21.6003V22.1464V22.8253H13.2152V22.1464H14.8073V22.8253H15.3579V22.1464V21.6003V20.6704V20.1243V19.1945V18.6484V17.7185V17.1724V16.2426V15.8145V15.6965H12.6646V15.8145V16.2426V17.1724V17.7185V18.6484V19.1945V20.1243V20.6704V21.6003ZM12.6646 23.7847H19.5837V22.8106C19.4349 22.8253 19.2861 22.8401 19.1373 22.8401H12.8134H12.6646V23.7847ZM13.2152 16.2426H14.8222V17.1724H13.2152V16.2426ZM14.8222 17.7185H13.2152V18.6484H14.8222V17.7185ZM14.8222 19.1945H13.2152V20.1243H14.8222V19.1945ZM14.8222 20.6704H13.2152V21.6003H14.8222V20.6704Z" fill="url(#paint6_radial_102_3257)"/>
<path d="M24.4792 9.42367L24.6784 9.40517L24.678 9.4014L24.4792 9.42367ZM25 15.0323H25.2V15.023L25.1991 15.0138L25 15.0323ZM25 24.4046V24.6046H25.2V24.4046H25ZM9.71842 24.4046H9.51842V24.6046H9.71842V24.4046ZM9.71842 23.7847V23.5847H9.51842V23.7847H9.71842ZM11.9504 23.7847V23.9847H12.1504V23.7847H11.9504ZM11.9504 22.7515H12.1504V22.5917L11.9945 22.5565L11.9504 22.7515ZM12.8134 15.2242V15.0242L12.812 15.0242L12.8134 15.2242ZM15.6703 15.2242V15.4242H15.8703V15.2242H15.6703ZM15.6703 14.5305H15.8703V14.3305H15.6703V14.5305ZM15.0008 14.5305H14.8008V14.7305H15.0008V14.5305ZM15.0008 13.7335V13.5335H14.8008V13.7335H15.0008ZM18.4975 13.7335H18.6975V13.5335H18.4975V13.7335ZM18.4975 14.5305V14.7305H18.6975V14.5305H18.4975ZM17.7833 14.5305V14.3305H17.5833V14.5305H17.7833ZM17.7833 15.2242H17.5833V15.4242H17.7833V15.2242ZM20.298 22.663L20.2379 22.4722L20.098 22.5162V22.663H20.298ZM20.298 23.7847H20.098V23.9847H20.298V23.7847ZM22.4704 23.7847V23.9847H22.6704V23.7847H22.4704ZM22.4704 22.1611L22.3348 22.0141L22.2704 22.0735V22.1611H22.4704ZM19.2713 14.7666L19.0715 14.7577L19.0621 14.9666H19.2713V14.7666ZM19.5093 9.45319L19.7093 9.46215V9.45319H19.5093ZM21.7264 9.42367L21.9256 9.40466L21.9252 9.4014L21.7264 9.42367ZM22.0984 13.3202L21.8993 13.3392L22.2983 13.3286L22.0984 13.3202ZM22.2621 9.45319L22.4621 9.46165V9.45319H22.2621ZM12.6646 22.8253H12.4646V23.0253H12.6646V22.8253ZM13.2152 22.8253V23.0253H13.4152V22.8253H13.2152ZM13.2152 22.1464V21.9464H13.0152V22.1464H13.2152ZM14.8073 22.1464H15.0073V21.9464H14.8073V22.1464ZM14.8073 22.8253H14.6073V23.0253H14.8073V22.8253ZM15.3579 22.8253V23.0253H15.5579V22.8253H15.3579ZM15.3579 15.6965H15.5579V15.4965H15.3579V15.6965ZM12.6646 15.6965V15.4965H12.4646V15.6965H12.6646ZM19.5837 23.7847V23.9847H19.7837V23.7847H19.5837ZM12.6646 23.7847H12.4646V23.9847H12.6646V23.7847ZM19.5837 22.8106H19.7837V22.5897L19.564 22.6115L19.5837 22.8106ZM12.6646 22.8401V22.6401H12.4646V22.8401H12.6646ZM14.8222 16.2426H15.0222V16.0426H14.8222V16.2426ZM13.2152 16.2426V16.0426H13.0152V16.2426H13.2152ZM14.8222 17.1724V17.3724H15.0222V17.1724H14.8222ZM13.2152 17.1724H13.0152V17.3724H13.2152V17.1724ZM13.2152 17.7185V17.5185H13.0152V17.7185H13.2152ZM14.8222 17.7185H15.0222V17.5185H14.8222V17.7185ZM13.2152 18.6484H13.0152V18.8484H13.2152V18.6484ZM14.8222 18.6484V18.8484H15.0222V18.6484H14.8222ZM13.2152 19.1945V18.9945H13.0152V19.1945H13.2152ZM14.8222 19.1945H15.0222V18.9945H14.8222V19.1945ZM13.2152 20.1243H13.0152V20.3243H13.2152V20.1243ZM14.8222 20.1243V20.3243H15.0222V20.1243H14.8222ZM13.2152 20.6704V20.4704H13.0152V20.6704H13.2152ZM14.8222 20.6704H15.0222V20.4704H14.8222V20.6704ZM13.2152 21.6003H13.0152V21.8003H13.2152V21.6003ZM14.8222 21.6003V21.8003H15.0222V21.6003H14.8222ZM24.678 9.4014C24.6369 9.03461 24.3282 8.75136 23.9435 8.75136V9.15136C24.1243 9.15136 24.262 9.28138 24.2804 9.44593L24.678 9.4014ZM25.1991 15.0138L24.6783 9.40518L24.2801 9.44216L24.8009 15.0508L25.1991 15.0138ZM25.2 24.4046V15.0323H24.8V24.4046H25.2ZM22.8127 24.6046H25V24.2046H22.8127V24.6046ZM22.4853 24.6046H22.8127V24.2046H22.4853V24.6046ZM9.71842 24.6046H22.4853V24.2046H9.71842V24.6046ZM9.51842 23.7847V24.4046H9.91842V23.7847H9.51842ZM11.9504 23.5847H9.71842V23.9847H11.9504V23.5847ZM11.7504 22.7515V23.7847H12.1504V22.7515H11.7504ZM8.77443 19.0469C8.77443 20.9594 10.1224 22.543 11.9063 22.9466L11.9945 22.5565C10.3858 22.1925 9.17443 20.7652 9.17443 19.0469H8.77443ZM12.812 15.0242C10.592 15.0397 8.77443 16.8235 8.77443 19.0469H9.17443C9.17443 17.049 10.8089 15.4382 12.8148 15.4242L12.812 15.0242ZM15.6703 15.0242H12.8134V15.4242H15.6703V15.0242ZM15.4703 14.5305V15.2242H15.8703V14.5305H15.4703ZM15.0008 14.7305H15.6703V14.3305H15.0008V14.7305ZM14.8008 13.7335V14.5305H15.2008V13.7335H14.8008ZM18.4975 13.5335H15.0008V13.9335H18.4975V13.5335ZM18.6975 14.5305V13.7335H18.2975V14.5305H18.6975ZM17.7833 14.7305H18.4975V14.3305H17.7833V14.7305ZM17.9833 15.2242V14.5305H17.5833V15.2242H17.9833ZM19.1373 15.0242H17.7833V15.4242H19.1373V15.0242ZM23.1763 19.0321C23.1763 16.8243 21.3592 15.0242 19.1373 15.0242V15.4242C21.1414 15.4242 22.7763 17.0483 22.7763 19.0321H23.1763ZM20.358 22.8537C21.9854 22.3415 23.1763 20.8203 23.1763 19.0321H22.7763C22.7763 20.6386 21.7055 22.0103 20.2379 22.4722L20.358 22.8537ZM20.498 23.7847V22.663H20.098V23.7847H20.498ZM22.4704 23.5847H20.298V23.9847H22.4704V23.5847ZM22.2704 22.1611V23.7847H22.6704V22.1611H22.2704ZM23.6394 19.0469C23.6394 20.2138 23.1437 21.2681 22.3348 22.0141L22.606 22.3082C23.4935 21.4896 24.0394 20.3301 24.0394 19.0469H23.6394ZM19.5242 14.9666C21.7961 14.9666 23.6394 16.7973 23.6394 19.0469H24.0394C24.0394 16.5734 22.0139 14.5666 19.5242 14.5666V14.9666ZM19.2713 14.9666H19.5242V14.5666H19.2713V14.9666ZM19.3095 9.44423L19.0715 14.7577L19.4711 14.7756L19.7091 9.46214L19.3095 9.44423ZM20.0301 8.75136C19.6461 8.75136 19.3093 9.05334 19.3093 9.45319H19.7093C19.7093 9.29217 19.8487 9.15136 20.0301 9.15136V8.75136ZM21.1908 8.75136H20.0301V9.15136H21.1908V8.75136ZM21.9252 9.4014C21.8841 9.03461 21.5754 8.75136 21.1908 8.75136V9.15136C21.3716 9.15136 21.5092 9.28138 21.5277 9.44593L21.9252 9.4014ZM22.2975 13.3012L21.9255 9.40466L21.5273 9.44267L21.8993 13.3392L22.2975 13.3012ZM22.0623 9.44473L21.8986 13.3117L22.2983 13.3286L22.4619 9.46164L22.0623 9.44473ZM22.7829 8.75136C22.3989 8.75136 22.0621 9.05334 22.0621 9.45319H22.4621C22.4621 9.29217 22.6015 9.15136 22.7829 9.15136V8.75136ZM23.9435 8.75136H22.7829V9.15136H23.9435V8.75136ZM12.8646 22.1464V21.6003H12.4646V22.1464H12.8646ZM12.8646 22.8253V22.1464H12.4646V22.8253H12.8646ZM13.2152 22.6253H12.6646V23.0253H13.2152V22.6253ZM13.0152 22.1464V22.8253H13.4152V22.1464H13.0152ZM14.8073 21.9464H13.2152V22.3464H14.8073V21.9464ZM15.0073 22.8253V22.1464H14.6073V22.8253H15.0073ZM15.3579 22.6253H14.8073V23.0253H15.3579V22.6253ZM15.1579 22.1464V22.8253H15.5579V22.1464H15.1579ZM15.1579 21.6003V22.1464H15.5579V21.6003H15.1579ZM15.1579 20.6704V21.6003H15.5579V20.6704H15.1579ZM15.1579 20.1243V20.6704H15.5579V20.1243H15.1579ZM15.1579 19.1945V20.1243H15.5579V19.1945H15.1579ZM15.1579 18.6484V19.1945H15.5579V18.6484H15.1579ZM15.1579 17.7185V18.6484H15.5579V17.7185H15.1579ZM15.1579 17.1724V17.7185H15.5579V17.1724H15.1579ZM15.1579 16.2426V17.1724H15.5579V16.2426H15.1579ZM15.1579 15.8145V16.2426H15.5579V15.8145H15.1579ZM15.1579 15.6965V15.8145H15.5579V15.6965H15.1579ZM12.6646 15.8965H15.3579V15.4965H12.6646V15.8965ZM12.8646 15.8145V15.6965H12.4646V15.8145H12.8646ZM12.8646 16.2426V15.8145H12.4646V16.2426H12.8646ZM12.8646 17.1724V16.2426H12.4646V17.1724H12.8646ZM12.8646 17.7185V17.1724H12.4646V17.7185H12.8646ZM12.8646 18.6484V17.7185H12.4646V18.6484H12.8646ZM12.8646 19.1945V18.6484H12.4646V19.1945H12.8646ZM12.8646 20.1243V19.1945H12.4646V20.1243H12.8646ZM12.8646 20.6704V20.1243H12.4646V20.6704H12.8646ZM12.8646 21.6003V20.6704H12.4646V21.6003H12.8646ZM19.5837 23.5847H12.6646V23.9847H19.5837V23.5847ZM19.3837 22.8106V23.7847H19.7837V22.8106H19.3837ZM19.1373 23.0401C19.2977 23.0401 19.4564 23.0242 19.6035 23.0096L19.564 22.6115C19.4135 22.6265 19.2746 22.6401 19.1373 22.6401V23.0401ZM12.8134 23.0401H19.1373V22.6401H12.8134V23.0401ZM12.6646 23.0401H12.8134V22.6401H12.6646V23.0401ZM12.8646 23.7847V22.8401H12.4646V23.7847H12.8646ZM14.8222 16.0426H13.2152V16.4426H14.8222V16.0426ZM15.0222 17.1724V16.2426H14.6222V17.1724H15.0222ZM13.2152 17.3724H14.8222V16.9724H13.2152V17.3724ZM13.0152 16.2426V17.1724H13.4152V16.2426H13.0152ZM13.2152 17.9185H14.8222V17.5185H13.2152V17.9185ZM13.4152 18.6484V17.7185H13.0152V18.6484H13.4152ZM14.8222 18.4484H13.2152V18.8484H14.8222V18.4484ZM14.6222 17.7185V18.6484H15.0222V17.7185H14.6222ZM13.2152 19.3945H14.8222V18.9945H13.2152V19.3945ZM13.4152 20.1243V19.1945H13.0152V20.1243H13.4152ZM14.8222 19.9243H13.2152V20.3243H14.8222V19.9243ZM14.6222 19.1945V20.1243H15.0222V19.1945H14.6222ZM13.2152 20.8704H14.8222V20.4704H13.2152V20.8704ZM13.4152 21.6003V20.6704H13.0152V21.6003H13.4152ZM14.8222 21.4003H13.2152V21.8003H14.8222V21.4003ZM14.6222 20.6704V21.6003H15.0222V20.6704H14.6222Z" fill="url(#paint7_linear_102_3257)" mask="url(#path-7-inside-1_102_3257)"/>
<defs>
<linearGradient id="paint0_linear_102_3257" x1="17.6056" y1="0" x2="17.6056" y2="50" gradientUnits="userSpaceOnUse">
<stop stop-color="#136F97"/>
<stop offset="0.494415" stop-color="#0C516F"/>
<stop offset="1" stop-color="#136F97"/>
</linearGradient>
<radialGradient id="paint1_radial_102_3257" cx="0" cy="0" r="1" gradientUnits="userSpaceOnUse" gradientTransform="translate(18 0.411765) rotate(90) scale(21.3529)">
<stop stop-color="white"/>
<stop offset="1" stop-color="white" stop-opacity="0"/>
</radialGradient>
<linearGradient id="paint2_linear_102_3257" x1="17.6056" y1="0" x2="17.6056" y2="50" gradientUnits="userSpaceOnUse">
<stop stop-color="#095272"/>
<stop offset="0.489583" stop-color="#0D5473"/>
<stop offset="1" stop-color="#064E6D"/>
</linearGradient>
<radialGradient id="paint3_radial_102_3257" cx="0" cy="0" r="1" gradientUnits="userSpaceOnUse" gradientTransform="translate(17.5 17.5) rotate(90) scale(13.5)">
<stop offset="0.708333" stop-color="white"/>
<stop offset="1" stop-color="#BACDD6"/>
</radialGradient>
<linearGradient id="paint4_linear_102_3257" x1="8" y1="6" x2="27.5" y2="31" gradientUnits="userSpaceOnUse">
<stop offset="0.203125" stop-color="#1B7EA9"/>
<stop offset="0.484375" stop-color="#3A9ECA"/>
<stop offset="0.796875" stop-color="#1C7BA4"/>
</linearGradient>
<linearGradient id="paint5_linear_102_3257" x1="8.00008" y1="5.99999" x2="25.5001" y2="28" gradientUnits="userSpaceOnUse">
<stop stop-color="#0A5372"/>
<stop offset="0.317708" stop-color="#0A5372" stop-opacity="0"/>
<stop offset="0.776042" stop-color="white" stop-opacity="0"/>
<stop offset="1" stop-color="white"/>
</linearGradient>
<radialGradient id="paint6_radial_102_3257" cx="0" cy="0" r="1" gradientUnits="userSpaceOnUse" gradientTransform="translate(21 22) rotate(-128.66) scale(19.2094 19.9208)">
<stop stop-color="#136F97"/>
<stop offset="1" stop-color="#00AEFA"/>
</radialGradient>
<linearGradient id="paint7_linear_102_3257" x1="14.5" y1="13.5" x2="25" y2="25" gradientUnits="userSpaceOnUse">
<stop stop-color="#81D8FF"/>
<stop offset="0.265625" stop-color="#66D0FF" stop-opacity="0"/>
<stop offset="0.645833" stop-color="#005981" stop-opacity="0"/>
<stop offset="1" stop-color="#005981"/>
</linearGradient>
</defs>
</svg>
