<svg height="2048" width="2048" xmlns="http://www.w3.org/2000/svg"><path d="m1024 99c-363.757-4.933641-714.24892 229.17005-852.22557 565.19216-144.118834 330.15234-69.23634 740.28314 182.86195 997.77084 242.46368 260.9919 641.95021 356.7855 976.52052 234.6709 346.7397-118.0735 602.7227-458.5932 616.6378-825.0913 23.3394-360.13067-188.5355-719.42128-512.9533-876.29294-127.0345-63.39404-268.8921-96.452643-410.8414-96.24966zm0 100c359.2827-6.24861 700.9839 251.83638 793.7466 598.93035 97.0301 326.90765-34.2142 705.40425-315.9068 899.02415-292.6125 215.0744-726.53965 199.5143-1002.86235-36.1558-278.41405-221.9799-378.07351-632.5757-235.22824-958.18185 123.80746-301.01232 434.5886-507.43803 760.25079-503.61685zm354.5293 430.83594c-70.0788 142.05989-140.1575 284.11977-210.2363 426.17966-87.1354-113.33788-174.27085-226.67577-261.40628-340.01365-79.13867 234.05405-158.27735 468.10815-237.41602 702.16215 88.72396-114.043 177.44792-228.0859 266.17188-342.1289 91.52082 104.7233 183.04172 209.4466 274.56252 314.1699 56.1081-253.4564 112.2161-506.91277 168.3242-760.36916zm-448.39649 224.85937c82.85289 105.04233 165.70569 210.08469 248.55859 315.12699 20.6927-46.0651 41.3854-92.1302 62.0781-138.1953-19.8105 79.7038-39.6211 159.4075-59.4316 239.1113-84.5651-99.4805-169.1302-198.9609-253.69532-298.44142-34.30859 53.03912-68.61719 106.07812-102.92578 159.11722 35.13867-92.2396 70.27734-184.47919 105.41601-276.71879z"/></svg>