<svg width="36" height="50" viewBox="0 0 36 50" fill="none" xmlns="http://www.w3.org/2000/svg">
<path d="M35.2113 17.6056C35.2113 32.3944 19.7183 50 17.6056 50C15.493 50 0 32.3944 0 17.6056C0 7.88231 7.88231 0 17.6056 0C27.329 0 35.2113 7.88231 35.2113 17.6056Z" fill="url(#paint0_linear_102_3289)"/>
<path fill-rule="evenodd" clip-rule="evenodd" d="M0.0931396 15.7836C1.00486 6.91638 8.49754 0 17.6056 0C27.0357 0 34.7341 7.41403 35.1899 16.7311C31.1585 21.7715 24.9563 25 18 25C10.6171 25 4.08359 21.3633 0.0931396 15.7836Z" fill="url(#paint1_radial_102_3289)"/>
<path d="M34.4613 17.6056C34.4613 24.7754 30.6884 32.7212 26.5753 38.9346C24.5278 42.0277 22.4183 44.6578 20.6985 46.5073C19.8373 47.4336 19.0846 48.1524 18.4947 48.6334C18.1986 48.8748 17.9583 49.0442 17.7764 49.1492C17.6946 49.1964 17.6388 49.2222 17.6056 49.2361C17.5724 49.2222 17.5166 49.1964 17.4348 49.1492C17.253 49.0442 17.0126 48.8748 16.7165 48.6334C16.1267 48.1524 15.374 47.4336 14.5127 46.5073C12.793 44.6578 10.6835 42.0277 8.63595 38.9346C4.52286 32.7212 0.75 24.7754 0.75 17.6056C0.75 8.29653 8.29652 0.75 17.6056 0.75C26.9147 0.75 34.4613 8.29653 34.4613 17.6056Z" stroke="url(#paint2_linear_102_3289)" stroke-width="1.5"/>
<circle cx="17.5" cy="17.5" r="13.5" fill="url(#paint3_radial_102_3289)"/>
<circle cx="17.5" cy="17.5" r="13" stroke="url(#paint4_linear_102_3289)"/>
<circle cx="17.5001" cy="17.5" r="13.4" transform="rotate(17.2793 17.5001 17.5)" stroke="url(#paint5_linear_102_3289)" stroke-width="0.2"/>
<mask id="path-7-inside-1_102_3289" fill="white">
<path d="M25.1949 22.6098V21.9805V19.522V13.4488V12.9805V12.4244C25.1949 11.8976 24.7459 11.4732 24.1885 11.4732H23.2131V11.1073H22.888V10.3171H23.2131V9.6439H22.888V9H21.6339V9.6439H21.3087V10.3171H21.6339V11.0927H21.3087V11.6634H20.3643C19.8069 11.6634 19.3579 12.0878 19.3579 12.6146V18.761V19.9756C19.3579 20.2683 19.1102 20.5024 18.8005 20.5024H18.4909V12.3951C18.4909 11.722 17.918 11.1805 17.2058 11.1805C16.5401 11.1805 15.9982 11.6488 15.9208 12.2634H15.3789C14.8215 12.2634 14.3725 12.6878 14.3725 13.2146V13.7707V14.239V15.2488H12.112C11.6785 15.2488 11.3224 15.5854 11.3224 15.9951V16.7268C10.347 16.8439 9.58834 17.6195 9.58834 18.5707V22.6098H9V24H26V22.6098H25.1949ZM23.1976 19.522V14.9415H24.684V19.522H23.1976ZM23.1976 13.4488H24.684V14.4585H23.1976V13.4488ZM24.1421 11.9415C24.4517 11.9415 24.6995 12.1756 24.6995 12.4683V12.9805H23.2131V11.9415H24.1421ZM14.8525 13.2585C14.8525 12.9659 15.1002 12.7317 15.4098 12.7317H15.8898V13.7707H14.8525V13.2585ZM14.8525 14.239H15.8898V15.2488H14.8525V14.239ZM11.8333 16.7415V16.0098C11.8333 15.8634 11.9572 15.7317 12.1275 15.7317H14.357V22.6098H13.5209V18.5707C13.5209 17.6341 12.7778 16.8585 11.8333 16.7415ZM14.8525 22.6098V15.7317H15.8898V22.6098H14.8525ZM18.4754 20.9854H18.8315C19.3889 20.9854 19.8379 20.561 19.8379 20.0341V13.4488V12.6732C19.8379 12.3805 20.0856 12.1463 20.3953 12.1463H21.2933V19.522H20.8288V22.5951H18.4754V20.9854Z"/>
</mask>
<path d="M25.1949 22.6098V21.9805V19.522V13.4488V12.9805V12.4244C25.1949 11.8976 24.7459 11.4732 24.1885 11.4732H23.2131V11.1073H22.888V10.3171H23.2131V9.6439H22.888V9H21.6339V9.6439H21.3087V10.3171H21.6339V11.0927H21.3087V11.6634H20.3643C19.8069 11.6634 19.3579 12.0878 19.3579 12.6146V18.761V19.9756C19.3579 20.2683 19.1102 20.5024 18.8005 20.5024H18.4909V12.3951C18.4909 11.722 17.918 11.1805 17.2058 11.1805C16.5401 11.1805 15.9982 11.6488 15.9208 12.2634H15.3789C14.8215 12.2634 14.3725 12.6878 14.3725 13.2146V13.7707V14.239V15.2488H12.112C11.6785 15.2488 11.3224 15.5854 11.3224 15.9951V16.7268C10.347 16.8439 9.58834 17.6195 9.58834 18.5707V22.6098H9V24H26V22.6098H25.1949ZM23.1976 19.522V14.9415H24.684V19.522H23.1976ZM23.1976 13.4488H24.684V14.4585H23.1976V13.4488ZM24.1421 11.9415C24.4517 11.9415 24.6995 12.1756 24.6995 12.4683V12.9805H23.2131V11.9415H24.1421ZM14.8525 13.2585C14.8525 12.9659 15.1002 12.7317 15.4098 12.7317H15.8898V13.7707H14.8525V13.2585ZM14.8525 14.239H15.8898V15.2488H14.8525V14.239ZM11.8333 16.7415V16.0098C11.8333 15.8634 11.9572 15.7317 12.1275 15.7317H14.357V22.6098H13.5209V18.5707C13.5209 17.6341 12.7778 16.8585 11.8333 16.7415ZM14.8525 22.6098V15.7317H15.8898V22.6098H14.8525ZM18.4754 20.9854H18.8315C19.3889 20.9854 19.8379 20.561 19.8379 20.0341V13.4488V12.6732C19.8379 12.3805 20.0856 12.1463 20.3953 12.1463H21.2933V19.522H20.8288V22.5951H18.4754V20.9854Z" fill="url(#paint6_radial_102_3289)"/>
<path d="M25.1949 22.6098H24.9949V22.8098H25.1949V22.6098ZM23.2131 11.4732H23.0131V11.6732H23.2131V11.4732ZM23.2131 11.1073H23.4131V10.9073H23.2131V11.1073ZM22.888 11.1073H22.688V11.3073H22.888V11.1073ZM22.888 10.3171V10.1171H22.688V10.3171H22.888ZM23.2131 10.3171V10.5171H23.4131V10.3171H23.2131ZM23.2131 9.6439H23.4131V9.4439H23.2131V9.6439ZM22.888 9.6439H22.688V9.8439H22.888V9.6439ZM22.888 9H23.088V8.8H22.888V9ZM21.6339 9V8.8H21.4339V9H21.6339ZM21.6339 9.6439V9.8439H21.8339V9.6439H21.6339ZM21.3087 9.6439V9.4439H21.1087V9.6439H21.3087ZM21.3087 10.3171H21.1087V10.5171H21.3087V10.3171ZM21.6339 10.3171H21.8339V10.1171H21.6339V10.3171ZM21.6339 11.0927V11.2927H21.8339V11.0927H21.6339ZM21.3087 11.0927V10.8927H21.1087V11.0927H21.3087ZM21.3087 11.6634V11.8634H21.5087V11.6634H21.3087ZM18.4909 20.5024H18.2909V20.7024H18.4909V20.5024ZM15.9208 12.2634V12.4634H16.0972L16.1192 12.2884L15.9208 12.2634ZM14.3725 15.2488V15.4488H14.5725V15.2488H14.3725ZM11.3224 16.7268L11.3462 16.9254L11.5224 16.9043V16.7268H11.3224ZM9.58834 22.6098V22.8098H9.78834V22.6098H9.58834ZM9 22.6098V22.4098H8.8V22.6098H9ZM9 24H8.8V24.2H9V24ZM26 24V24.2H26.2V24H26ZM26 22.6098H26.2V22.4098H26V22.6098ZM23.1976 19.522H22.9976V19.722H23.1976V19.522ZM23.1976 14.9415V14.7415H22.9976V14.9415H23.1976ZM24.684 14.9415H24.884V14.7415H24.684V14.9415ZM24.684 19.522V19.722H24.884V19.522H24.684ZM23.1976 13.4488V13.2488H22.9976V13.4488H23.1976ZM24.684 13.4488H24.884V13.2488H24.684V13.4488ZM24.684 14.4585V14.6585H24.884V14.4585H24.684ZM23.1976 14.4585H22.9976V14.6585H23.1976V14.4585ZM24.6995 12.9805V13.1805H24.8995V12.9805H24.6995ZM23.2131 12.9805H23.0131V13.1805H23.2131V12.9805ZM23.2131 11.9415V11.7415H23.0131V11.9415H23.2131ZM15.8898 12.7317H16.0898V12.5317H15.8898V12.7317ZM15.8898 13.7707V13.9707H16.0898V13.7707H15.8898ZM14.8525 13.7707H14.6525V13.9707H14.8525V13.7707ZM14.8525 14.239V14.039H14.6525V14.239H14.8525ZM15.8898 14.239H16.0898V14.039H15.8898V14.239ZM15.8898 15.2488V15.4488H16.0898V15.2488H15.8898ZM14.8525 15.2488H14.6525V15.4488H14.8525V15.2488ZM11.8333 16.7415H11.6333V16.9182L11.8087 16.9399L11.8333 16.7415ZM14.357 15.7317H14.557V15.5317H14.357V15.7317ZM14.357 22.6098V22.8098H14.557V22.6098H14.357ZM13.5209 22.6098H13.3209V22.8098H13.5209V22.6098ZM13.5209 18.5707H13.7209H13.5209ZM14.8525 22.6098H14.6525V22.8098H14.8525V22.6098ZM14.8525 15.7317V15.5317H14.6525V15.7317H14.8525ZM15.8898 15.7317H16.0898V15.5317H15.8898V15.7317ZM15.8898 22.6098V22.8098H16.0898V22.6098H15.8898ZM18.4754 20.9854V20.7854H18.2754V20.9854H18.4754ZM21.2933 12.1463H21.4933V11.9463H21.2933V12.1463ZM21.2933 19.522V19.722H21.4933V19.522H21.2933ZM20.8288 19.522V19.322H20.6288V19.522H20.8288ZM20.8288 22.5951V22.7951H21.0288V22.5951H20.8288ZM18.4754 22.5951H18.2754V22.7951H18.4754V22.5951ZM25.3949 22.6098V21.9805H24.9949V22.6098H25.3949ZM25.3949 21.9805V19.522H24.9949V21.9805H25.3949ZM25.3949 19.522V13.4488H24.9949V19.522H25.3949ZM25.3949 13.4488V12.9805H24.9949V13.4488H25.3949ZM25.3949 12.9805V12.4244H24.9949V12.9805H25.3949ZM25.3949 12.4244C25.3949 11.7766 24.8456 11.2732 24.1885 11.2732V11.6732C24.6462 11.6732 24.9949 12.0185 24.9949 12.4244H25.3949ZM24.1885 11.2732H23.2131V11.6732H24.1885V11.2732ZM23.4131 11.4732V11.1073H23.0131V11.4732H23.4131ZM23.2131 10.9073H22.888V11.3073H23.2131V10.9073ZM23.088 11.1073V10.3171H22.688V11.1073H23.088ZM22.888 10.5171H23.2131V10.1171H22.888V10.5171ZM23.4131 10.3171V9.6439H23.0131V10.3171H23.4131ZM23.2131 9.4439H22.888V9.8439H23.2131V9.4439ZM23.088 9.6439V9H22.688V9.6439H23.088ZM22.888 8.8H21.6339V9.2H22.888V8.8ZM21.4339 9V9.6439H21.8339V9H21.4339ZM21.6339 9.4439H21.3087V9.8439H21.6339V9.4439ZM21.1087 9.6439V10.3171H21.5087V9.6439H21.1087ZM21.3087 10.5171H21.6339V10.1171H21.3087V10.5171ZM21.4339 10.3171V11.0927H21.8339V10.3171H21.4339ZM21.6339 10.8927H21.3087V11.2927H21.6339V10.8927ZM21.1087 11.0927V11.6634H21.5087V11.0927H21.1087ZM21.3087 11.4634H20.3643V11.8634H21.3087V11.4634ZM20.3643 11.4634C19.7072 11.4634 19.1579 11.9669 19.1579 12.6146H19.5579C19.5579 12.2087 19.9066 11.8634 20.3643 11.8634V11.4634ZM19.1579 12.6146V18.761H19.5579V12.6146H19.1579ZM19.1579 18.761V19.9756H19.5579V18.761H19.1579ZM19.1579 19.9756C19.1579 20.1474 19.0105 20.3024 18.8005 20.3024V20.7024C19.2099 20.7024 19.5579 20.3892 19.5579 19.9756H19.1579ZM18.8005 20.3024H18.4909V20.7024H18.8005V20.3024ZM18.6909 20.5024V12.3951H18.2909V20.5024H18.6909ZM18.6909 12.3951C18.6909 11.601 18.0177 10.9805 17.2058 10.9805V11.3805C17.8183 11.3805 18.2909 11.8429 18.2909 12.3951H18.6909ZM17.2058 10.9805C16.446 10.9805 15.8132 11.5172 15.7223 12.2384L16.1192 12.2884C16.1832 11.7803 16.6341 11.3805 17.2058 11.3805V10.9805ZM15.9208 12.0634H15.3789V12.4634H15.9208V12.0634ZM15.3789 12.0634C14.7218 12.0634 14.1725 12.5669 14.1725 13.2146H14.5725C14.5725 12.8087 14.9212 12.4634 15.3789 12.4634V12.0634ZM14.1725 13.2146V13.7707H14.5725V13.2146H14.1725ZM14.1725 13.7707V14.239H14.5725V13.7707H14.1725ZM14.1725 14.239V15.2488H14.5725V14.239H14.1725ZM14.3725 15.0488H12.112V15.4488H14.3725V15.0488ZM12.112 15.0488C11.5788 15.0488 11.1224 15.4644 11.1224 15.9951H11.5224C11.5224 15.7063 11.7782 15.4488 12.112 15.4488V15.0488ZM11.1224 15.9951V16.7268H11.5224V15.9951H11.1224ZM11.2986 16.5283C10.2352 16.6559 9.38834 17.5061 9.38834 18.5707H9.78834C9.78834 17.733 10.4587 17.0319 11.3462 16.9254L11.2986 16.5283ZM9.38834 18.5707V22.6098H9.78834V18.5707H9.38834ZM9.58834 22.4098H9V22.8098H9.58834V22.4098ZM8.8 22.6098V24H9.2V22.6098H8.8ZM9 24.2H26V23.8H9V24.2ZM26.2 24V22.6098H25.8V24H26.2ZM26 22.4098H25.1949V22.8098H26V22.4098ZM23.3976 19.522V14.9415H22.9976V19.522H23.3976ZM23.1976 15.1415H24.684V14.7415H23.1976V15.1415ZM24.484 14.9415V19.522H24.884V14.9415H24.484ZM24.684 19.322H23.1976V19.722H24.684V19.322ZM23.1976 13.6488H24.684V13.2488H23.1976V13.6488ZM24.484 13.4488V14.4585H24.884V13.4488H24.484ZM24.684 14.2585H23.1976V14.6585H24.684V14.2585ZM23.3976 14.4585V13.4488H22.9976V14.4585H23.3976ZM24.1421 12.1415C24.352 12.1415 24.4995 12.2965 24.4995 12.4683H24.8995C24.8995 12.0547 24.5514 11.7415 24.1421 11.7415V12.1415ZM24.4995 12.4683V12.9805H24.8995V12.4683H24.4995ZM24.6995 12.7805H23.2131V13.1805H24.6995V12.7805ZM23.4131 12.9805V11.9415H23.0131V12.9805H23.4131ZM23.2131 12.1415H24.1421V11.7415H23.2131V12.1415ZM15.0525 13.2585C15.0525 13.0868 15.1999 12.9317 15.4098 12.9317V12.5317C15.0005 12.5317 14.6525 12.8449 14.6525 13.2585H15.0525ZM15.4098 12.9317H15.8898V12.5317H15.4098V12.9317ZM15.6898 12.7317V13.7707H16.0898V12.7317H15.6898ZM15.8898 13.5707H14.8525V13.9707H15.8898V13.5707ZM15.0525 13.7707V13.2585H14.6525V13.7707H15.0525ZM14.8525 14.439H15.8898V14.039H14.8525V14.439ZM15.6898 14.239V15.2488H16.0898V14.239H15.6898ZM15.8898 15.0488H14.8525V15.4488H15.8898V15.0488ZM15.0525 15.2488V14.239H14.6525V15.2488H15.0525ZM12.0333 16.7415V16.0098H11.6333V16.7415H12.0333ZM12.0333 16.0098C12.0333 15.9776 12.0639 15.9317 12.1275 15.9317V15.5317C11.8505 15.5317 11.6333 15.7492 11.6333 16.0098H12.0333ZM12.1275 15.9317H14.357V15.5317H12.1275V15.9317ZM14.157 15.7317V22.6098H14.557V15.7317H14.157ZM14.357 22.4098H13.5209V22.8098H14.357V22.4098ZM13.7209 22.6098V18.5707H13.3209V22.6098H13.7209ZM13.7209 18.5707C13.7209 17.5237 12.8928 16.6713 11.8579 16.543L11.8087 16.9399C12.6627 17.0458 13.3209 17.7446 13.3209 18.5707H13.7209ZM15.0525 22.6098V15.7317H14.6525V22.6098H15.0525ZM14.8525 15.9317H15.8898V15.5317H14.8525V15.9317ZM15.6898 15.7317V22.6098H16.0898V15.7317H15.6898ZM15.8898 22.4098H14.8525V22.8098H15.8898V22.4098ZM18.4754 21.1854H18.8315V20.7854H18.4754V21.1854ZM18.8315 21.1854C19.4886 21.1854 20.0379 20.6819 20.0379 20.0341H19.6379C19.6379 20.44 19.2892 20.7854 18.8315 20.7854V21.1854ZM20.0379 20.0341V13.4488H19.6379V20.0341H20.0379ZM20.0379 13.4488V12.6732H19.6379V13.4488H20.0379ZM20.0379 12.6732C20.0379 12.5014 20.1853 12.3463 20.3953 12.3463V11.9463C19.9859 11.9463 19.6379 12.2596 19.6379 12.6732H20.0379ZM20.3953 12.3463H21.2933V11.9463H20.3953V12.3463ZM21.0933 12.1463V19.522H21.4933V12.1463H21.0933ZM21.2933 19.322H20.8288V19.722H21.2933V19.322ZM20.6288 19.522V22.5951H21.0288V19.522H20.6288ZM20.8288 22.3951H18.4754V22.7951H20.8288V22.3951ZM18.6754 22.5951V20.9854H18.2754V22.5951H18.6754Z" fill="url(#paint7_linear_102_3289)" mask="url(#path-7-inside-1_102_3289)"/>
<defs>
<linearGradient id="paint0_linear_102_3289" x1="17.6056" y1="0" x2="17.6056" y2="50" gradientUnits="userSpaceOnUse">
<stop stop-color="#136F97"/>
<stop offset="0.494415" stop-color="#0C516F"/>
<stop offset="1" stop-color="#136F97"/>
</linearGradient>
<radialGradient id="paint1_radial_102_3289" cx="0" cy="0" r="1" gradientUnits="userSpaceOnUse" gradientTransform="translate(18 0.411765) rotate(90) scale(21.3529)">
<stop stop-color="white"/>
<stop offset="1" stop-color="white" stop-opacity="0"/>
</radialGradient>
<linearGradient id="paint2_linear_102_3289" x1="17.6056" y1="0" x2="17.6056" y2="50" gradientUnits="userSpaceOnUse">
<stop stop-color="#095272"/>
<stop offset="0.489583" stop-color="#0D5473"/>
<stop offset="1" stop-color="#064E6D"/>
</linearGradient>
<radialGradient id="paint3_radial_102_3289" cx="0" cy="0" r="1" gradientUnits="userSpaceOnUse" gradientTransform="translate(17.5 17.5) rotate(90) scale(13.5)">
<stop offset="0.708333" stop-color="white"/>
<stop offset="1" stop-color="#BACDD6"/>
</radialGradient>
<linearGradient id="paint4_linear_102_3289" x1="8" y1="6" x2="27.5" y2="31" gradientUnits="userSpaceOnUse">
<stop offset="0.203125" stop-color="#1B7EA9"/>
<stop offset="0.484375" stop-color="#3A9ECA"/>
<stop offset="0.796875" stop-color="#1C7BA4"/>
</linearGradient>
<linearGradient id="paint5_linear_102_3289" x1="8.00008" y1="5.99999" x2="25.5001" y2="28" gradientUnits="userSpaceOnUse">
<stop stop-color="#0A5372"/>
<stop offset="0.317708" stop-color="#0A5372" stop-opacity="0"/>
<stop offset="0.776042" stop-color="white" stop-opacity="0"/>
<stop offset="1" stop-color="white"/>
</linearGradient>
<radialGradient id="paint6_radial_102_3289" cx="0" cy="0" r="1" gradientUnits="userSpaceOnUse" gradientTransform="translate(21.7568 21.6659) rotate(-131.163) scale(19.3401 20.3737)">
<stop stop-color="#136F97"/>
<stop offset="1" stop-color="#00AEFA"/>
</radialGradient>
<linearGradient id="paint7_linear_102_3289" x1="13.5" y1="13" x2="24.8856" y2="25.5861" gradientUnits="userSpaceOnUse">
<stop stop-color="#81D8FF"/>
<stop offset="0.265625" stop-color="#66D0FF" stop-opacity="0"/>
<stop offset="0.645833" stop-color="#005981" stop-opacity="0"/>
<stop offset="1" stop-color="#005981"/>
</linearGradient>
</defs>
</svg>
