<svg width="68" height="80" viewBox="0 0 68 80" fill="none" xmlns="http://www.w3.org/2000/svg">
<path d="M29.17 60.3636C29.17 60.301 28.3635 60.251 27.3687 60.251C26.3739 60.251 25.5674 60.301 25.5674 60.3636V79.6119C25.5674 79.6738 26.3739 79.7245 27.3687 79.7245C28.3635 79.7245 29.17 79.6738 29.17 79.6119V60.3636Z" fill="#312D29"/>
<path d="M29.17 12.7478C29.17 12.6076 28.3635 12.4928 27.3687 12.4928C26.3739 12.4928 25.5674 12.6076 25.5674 12.7478V56.3459C25.5674 56.4868 26.3739 56.6008 27.3687 56.6008C28.3635 56.6008 29.17 56.4868 29.17 56.3459V12.7478Z" fill="#E1D4C8"/>
<path d="M56.1587 60.1027C56.3375 60.1027 56.4824 59.4811 56.4824 58.7148C56.4824 57.9485 56.3375 57.3276 56.1587 57.3276H0.771343C0.592597 57.3276 0.447693 57.9485 0.447693 58.7148C0.447693 59.4811 0.592597 60.1027 0.771343 60.1027H56.1587Z" fill="#E1D4C8"/>
<path d="M28.719 32.6453C28.5652 32.6453 28.4406 33.2663 28.4406 34.0325C28.4406 34.7988 28.5652 35.4197 28.719 35.4197H56.9691H58.9651C62.1916 35.4197 64.8071 38.0353 64.8071 41.2621V44.3294V79.3764C64.8071 79.5672 65.428 79.7222 66.1943 79.7222C66.9606 79.7222 67.5822 79.5672 67.5822 79.3764V44.3294V39.9472C67.5822 35.9146 64.3126 32.6453 60.2796 32.6453H56.9691H28.719Z" fill="#E1D4C8"/>
<path d="M27.3443 46.863C29.0247 46.863 30.387 45.5008 30.387 43.8203C30.387 42.1399 29.0247 40.7776 27.3443 40.7776C25.6638 40.7776 24.3016 42.1399 24.3016 43.8203C24.3016 45.5008 25.6638 46.863 27.3443 46.863Z" fill="#E8DDD3"/>
<path fill-rule="evenodd" clip-rule="evenodd" d="M27.3447 48.7592C30.02 48.7592 32.1887 46.5901 32.1887 43.9149C32.1887 41.2397 30.02 39.0714 27.3447 39.0714C24.6694 39.0714 22.5006 41.2397 22.5006 43.9149C22.5006 46.5901 24.6694 48.7592 27.3447 48.7592ZM23.3629 43.9149C23.3629 42.688 23.9179 41.5908 24.7904 40.8603C24.8975 40.7708 25.0568 40.7999 25.1331 40.9169L26.6945 43.3066C26.5391 43.4721 26.444 43.695 26.444 43.9395C26.444 44.1497 26.5143 44.3443 26.6327 44.4993L25.1314 46.9054C25.0565 47.0262 24.8947 47.0575 24.7862 46.9666C23.9161 46.2361 23.3629 45.1403 23.3629 43.9149ZM27.3447 39.933C26.8283 39.933 26.335 40.0314 25.8822 40.2103C25.7502 40.2625 25.7011 40.4205 25.7718 40.5435L27.1986 43.0301C27.2539 43.0197 27.3108 43.0145 27.369 43.0145C27.7502 43.0145 28.0775 43.2448 28.2192 43.5742H31.0471C31.1897 43.5742 31.3023 43.452 31.2809 43.3111C30.9899 41.3985 29.3384 39.933 27.3447 39.933ZM27.369 44.8645C27.7502 44.8645 28.0775 44.6342 28.2192 44.3048L31.0429 44.26C31.187 44.2578 31.3021 44.3808 31.2803 44.5231C30.9875 46.4336 29.337 47.8968 27.3447 47.8968C26.8291 47.8968 26.3364 47.7992 25.8841 47.6203C25.7514 47.5681 25.7026 47.4093 25.7746 47.2856L27.1986 44.8489C27.2539 44.8593 27.3108 44.8645 27.369 44.8645Z" fill="#F33130"/>
<path d="M27.3691 44.3253C27.5842 44.3253 27.7586 44.1509 27.7586 43.9358C27.7586 43.7207 27.5842 43.5463 27.3691 43.5463C27.154 43.5463 26.9796 43.7207 26.9796 43.9358C26.9796 44.1509 27.154 44.3253 27.3691 44.3253Z" fill="#B3B3B3"/>
<path d="M27.3399 26.6583C29.0203 26.6583 30.3826 25.2961 30.3826 23.6156C30.3826 21.9352 29.0203 20.5729 27.3399 20.5729C25.6595 20.5729 24.2972 21.9352 24.2972 23.6156C24.2972 25.2961 25.6595 26.6583 27.3399 26.6583Z" fill="#E8DDD3"/>
<path fill-rule="evenodd" clip-rule="evenodd" d="M27.3417 28.5575C30.017 28.5575 32.1858 26.3892 32.1858 23.714C32.1858 21.0387 30.017 18.8696 27.3417 18.8696C24.6664 18.8696 22.4977 21.0387 22.4977 23.714C22.4977 26.3892 24.6664 28.5575 27.3417 28.5575ZM23.36 23.714C23.36 22.487 23.9149 21.3898 24.7875 20.6593C24.8945 20.5699 25.0538 20.599 25.1301 20.716L26.6915 23.105C26.5362 23.2704 26.4411 23.4933 26.4411 23.7378C26.4411 23.9488 26.5114 24.1426 26.6297 24.2976L25.1285 26.7045C25.0535 26.8245 24.8918 26.8558 24.7832 26.7649C23.9131 26.0344 23.36 24.9387 23.36 23.714ZM27.3417 19.7321C26.8254 19.7321 26.332 19.8305 25.8793 20.0094C25.7473 20.0616 25.6982 20.2195 25.7688 20.3425L27.1957 22.8284C27.2509 22.8188 27.3079 22.8128 27.3661 22.8128C27.7473 22.8128 28.0746 23.0439 28.2162 23.3733H31.0442C31.1867 23.3733 31.2994 23.2504 31.2779 23.1095C30.9869 21.1975 29.3354 19.7321 27.3417 19.7321ZM27.3661 24.6629C27.7473 24.6629 28.0746 24.4326 28.2162 24.1031L31.04 24.0591C31.1841 24.0569 31.2992 24.1798 31.2773 24.3222C30.9846 26.2326 29.334 27.6951 27.3417 27.6951C26.8261 27.6951 26.3334 27.5975 25.8812 27.4193C25.7485 27.3664 25.6997 27.2077 25.7717 27.0847L27.1957 24.6472C27.2509 24.6577 27.3079 24.6629 27.3661 24.6629Z" fill="#F33130"/>
<path d="M27.3676 24.1266C27.5827 24.1266 27.7571 23.9522 27.7571 23.7371C27.7571 23.522 27.5827 23.3476 27.3676 23.3476C27.1525 23.3476 26.9781 23.522 26.9781 23.7371C26.9781 23.9522 27.1525 24.1266 27.3676 24.1266Z" fill="#B3B3B3"/>
<path d="M15.5155 61.765C17.1959 61.765 18.5582 60.4027 18.5582 58.7222C18.5582 57.0418 17.1959 55.6795 15.5155 55.6795C13.835 55.6795 12.4727 57.0418 12.4727 58.7222C12.4727 60.4027 13.835 61.765 15.5155 61.765Z" fill="#E8DDD3"/>
<path fill-rule="evenodd" clip-rule="evenodd" d="M15.5152 63.6612C18.1905 63.6612 20.3592 61.4929 20.3592 58.8169C20.3592 56.1417 18.1905 53.9733 15.5152 53.9733C12.8399 53.9733 10.6712 56.1417 10.6712 58.8169C10.6712 61.4929 12.8399 63.6612 15.5152 63.6612ZM11.5334 58.8169C11.5334 57.59 12.0884 56.4927 12.9609 55.7622C13.0679 55.6728 13.2273 55.7026 13.3036 55.8189L14.865 58.2086C14.7096 58.3741 14.6145 58.597 14.6145 58.8415C14.6145 59.0517 14.6848 59.2462 14.8032 59.4013L13.302 61.8074C13.227 61.9281 13.0652 61.9595 12.9567 61.8685C12.0866 61.1381 11.5334 60.0423 11.5334 58.8169ZM15.5152 54.8357C14.9989 54.8357 14.5055 54.9341 14.0527 55.113C13.9207 55.1645 13.8717 55.3225 13.9423 55.4455L15.3692 57.9321C15.4244 57.9217 15.4814 57.9165 15.5396 57.9165C15.9207 57.9165 16.2481 58.1475 16.3897 58.4762H19.2176C19.3602 58.4762 19.4729 58.354 19.4514 58.2131C19.1604 56.3004 17.5089 54.8357 15.5152 54.8357ZM15.5396 59.7665C15.9207 59.7665 16.2481 59.5362 16.3897 59.2067L19.2135 59.162C19.3575 59.1598 19.4727 59.2828 19.4508 59.4251C19.158 61.3356 17.5075 62.7988 15.5152 62.7988C14.9996 62.7988 14.5068 62.7012 14.0546 62.5223C13.9219 62.4701 13.8732 62.3113 13.9451 62.1883L15.3692 59.7509C15.4244 59.7613 15.4814 59.7665 15.5396 59.7665Z" fill="#F33130"/>
<path d="M15.5403 59.2331C15.7554 59.2331 15.9298 59.0588 15.9298 58.8437C15.9298 58.6286 15.7554 58.4542 15.5403 58.4542C15.3252 58.4542 15.1508 58.6286 15.1508 58.8437C15.1508 59.0588 15.3252 59.2331 15.5403 59.2331Z" fill="#B3B3B3"/>
<path d="M43.3616 61.765C45.042 61.765 46.4043 60.4027 46.4043 58.7222C46.4043 57.0418 45.042 55.6795 43.3616 55.6795C41.6812 55.6795 40.3189 57.0418 40.3189 58.7222C40.3189 60.4027 41.6812 61.765 43.3616 61.765Z" fill="#E8DDD3"/>
<path fill-rule="evenodd" clip-rule="evenodd" d="M43.3612 63.6612C46.0365 63.6612 48.2052 61.4929 48.2052 58.8169C48.2052 56.1417 46.0365 53.9733 43.3612 53.9733C40.686 53.9733 38.5172 56.1417 38.5172 58.8169C38.5172 61.4929 40.686 63.6612 43.3612 63.6612ZM39.3794 58.8169C39.3794 57.59 39.9344 56.4927 40.8069 55.7622C40.914 55.6728 41.0733 55.7026 41.1496 55.8189L42.711 58.2086C42.5556 58.3741 42.4605 58.597 42.4605 58.8415C42.4605 59.0517 42.5308 59.2462 42.6492 59.4013L41.148 61.8074C41.073 61.9281 40.9112 61.9595 40.8028 61.8685C39.9326 61.1381 39.3794 60.0423 39.3794 58.8169ZM43.3612 54.8357C42.8448 54.8357 42.3515 54.9341 41.8987 55.113C41.7667 55.1645 41.7177 55.3225 41.7883 55.4455L43.2152 57.9321C43.2704 57.9217 43.3273 57.9165 43.3856 57.9165C43.7667 57.9165 44.0941 58.1475 44.2357 58.4762H47.0636C47.2062 58.4762 47.3189 58.354 47.2975 58.2131C47.0064 56.3004 45.3549 54.8357 43.3612 54.8357ZM43.3856 59.7665C43.7667 59.7665 44.0941 59.5362 44.2357 59.2067L47.0595 59.162C47.2035 59.1598 47.3186 59.2828 47.2968 59.4251C47.004 61.3356 45.3535 62.7988 43.3612 62.7988C42.8456 62.7988 42.3529 62.7012 41.9006 62.5223C41.7679 62.4701 41.7191 62.3113 41.7912 62.1883L43.2152 59.7509C43.2704 59.7613 43.3273 59.7665 43.3856 59.7665Z" fill="#F33130"/>
<path d="M43.3878 59.2331C43.6029 59.2331 43.7773 59.0588 43.7773 58.8437C43.7773 58.6286 43.6029 58.4542 43.3878 58.4542C43.1727 58.4542 42.9984 58.6286 42.9984 58.8437C42.9984 59.0588 43.1727 59.2331 43.3878 59.2331Z" fill="#B3B3B3"/>
<path d="M43.3616 36.9343C45.042 36.9343 46.4043 35.572 46.4043 33.8916C46.4043 32.2111 45.042 30.8489 43.3616 30.8489C41.6812 30.8489 40.3189 32.2111 40.3189 33.8916C40.3189 35.572 41.6812 36.9343 43.3616 36.9343Z" fill="#E8DDD3"/>
<path fill-rule="evenodd" clip-rule="evenodd" d="M43.3612 38.8306C46.0365 38.8306 48.2052 36.6615 48.2052 33.9862C48.2052 31.311 46.0365 29.1419 43.3612 29.1419C40.686 29.1419 38.5172 31.311 38.5172 33.9862C38.5172 36.6615 40.686 38.8306 43.3612 38.8306ZM39.3794 33.9862C39.3794 32.7593 39.9344 31.6621 40.8069 30.9316C40.914 30.8422 41.0733 30.8713 41.1496 30.9883L42.711 33.378C42.5556 33.5435 42.4605 33.7656 42.4605 34.0109C42.4605 34.2211 42.5308 34.4148 42.6492 34.5706L41.148 36.9768C41.073 37.0968 40.9112 37.1281 40.8028 37.0372C39.9326 36.3067 39.3794 35.2109 39.3794 33.9862ZM43.3612 30.0044C42.8448 30.0044 42.3515 30.1027 41.8987 30.2816C41.7667 30.3338 41.7177 30.4918 41.7883 30.6148L43.2152 33.1015C43.2704 33.091 43.3273 33.0858 43.3856 33.0858C43.7667 33.0858 44.0941 33.3161 44.2357 33.6456H47.0636C47.2062 33.6456 47.3189 33.5234 47.2975 33.3825C47.0064 31.4698 45.3549 30.0044 43.3612 30.0044ZM43.3856 34.9359C43.7667 34.9359 44.0941 34.7048 44.2357 34.3753L47.0595 34.3314C47.2035 34.3291 47.3186 34.4521 47.2968 34.5945C47.004 36.5049 45.3535 37.9681 43.3612 37.9681C42.8456 37.9681 42.3529 37.8698 41.9006 37.6916C41.7679 37.6394 41.7191 37.4799 41.7912 37.3569L43.2152 34.9202C43.2704 34.9299 43.3273 34.9359 43.3856 34.9359Z" fill="#F33130"/>
<path d="M43.3878 34.4026C43.6029 34.4026 43.7773 34.2282 43.7773 34.0131C43.7773 33.798 43.6029 33.6237 43.3878 33.6237C43.1727 33.6237 42.9984 33.798 42.9984 34.0131C42.9984 34.2282 43.1727 34.4026 43.3878 34.4026Z" fill="#B3B3B3"/>
<path d="M56.4325 60.8741C56.4325 61.062 56.3894 61.2147 56.3362 61.2147C56.2831 61.2147 56.24 61.062 56.24 60.8741C56.24 60.6855 56.2831 60.5334 56.3362 60.5334C56.3894 60.5334 56.4325 60.6855 56.4325 60.8741Z" fill="#EDEDED"/>
<path d="M56.4324 60.8741C56.4324 61.062 56.3894 61.2147 56.3362 61.2147H56.6306C56.6837 61.2147 56.7268 61.062 56.7268 60.8741C56.7268 60.6855 56.6837 60.5334 56.6306 60.5334H56.3362C56.3894 60.5334 56.4324 60.6855 56.4324 60.8741Z" fill="#B5B5B5"/>
<path d="M56.4347 55.8137C56.4347 56.0015 56.3915 56.1543 56.3384 56.1543C56.2852 56.1543 56.2421 56.0015 56.2421 55.8137C56.2421 55.6251 56.2852 55.473 56.3384 55.473C56.3915 55.473 56.4347 55.6251 56.4347 55.8137Z" fill="#EDEDED"/>
<path d="M56.4347 55.8137C56.4347 56.0015 56.3916 56.1543 56.3384 56.1543H56.6328C56.686 56.1543 56.7291 56.0015 56.7291 55.8137C56.7291 55.6251 56.686 55.473 56.6328 55.473H56.3384C56.3916 55.473 56.4347 55.6251 56.4347 55.8137Z" fill="#B5B5B5"/>
<path d="M56.6734 59.7531C56.6734 59.9409 56.6304 60.0938 56.5772 60.0938C56.5241 60.0938 56.481 59.9409 56.481 59.7531C56.481 59.5645 56.5241 59.4125 56.5772 59.4125C56.6304 59.4125 56.6734 59.5645 56.6734 59.7531Z" fill="#EDEDED"/>
<path d="M56.6734 59.7531C56.6734 59.9409 56.6304 60.0938 56.5772 60.0938H56.8716C56.9247 60.0938 56.9678 59.9409 56.9678 59.7531C56.9678 59.5645 56.9247 59.4125 56.8716 59.4125H56.5772C56.6304 59.4125 56.6734 59.5645 56.6734 59.7531Z" fill="#B5B5B5"/>
<path d="M56.1872 59.4155C56.1872 59.6033 56.1441 59.7561 56.0909 59.7561C56.0378 59.7561 55.9947 59.6033 55.9947 59.4155C55.9947 59.2269 56.0378 59.0748 56.0909 59.0748C56.1441 59.0748 56.1872 59.2269 56.1872 59.4155Z" fill="#EDEDED"/>
<path d="M56.1871 59.4155C56.1871 59.6033 56.1441 59.7561 56.0909 59.7561H56.3853C56.4384 59.7561 56.4815 59.6033 56.4815 59.4155C56.4815 59.2269 56.4384 59.0748 56.3853 59.0748H56.0909C56.1441 59.0748 56.1871 59.2269 56.1871 59.4155Z" fill="#B5B5B5"/>
<path d="M56.6727 58.3465C56.6727 58.5351 56.6296 58.6872 56.5765 58.6872C56.5233 58.6872 56.4802 58.5351 56.4802 58.3465C56.4802 58.1587 56.5233 58.0059 56.5765 58.0059C56.6296 58.0059 56.6727 58.1587 56.6727 58.3465Z" fill="#EDEDED"/>
<path d="M56.6727 58.3465C56.6727 58.5351 56.6296 58.6872 56.5765 58.6872H56.8708C56.924 58.6872 56.9671 58.5351 56.9671 58.3465C56.9671 58.1587 56.924 58.0059 56.8708 58.0059H56.5765C56.6296 58.0059 56.6727 58.1587 56.6727 58.3465Z" fill="#B5B5B5"/>
<path d="M56.6734 56.9347C56.6734 57.1226 56.6304 57.2754 56.5772 57.2754C56.5241 57.2754 56.481 57.1226 56.481 56.9347C56.481 56.7462 56.5241 56.5941 56.5772 56.5941C56.6304 56.5941 56.6734 56.7462 56.6734 56.9347Z" fill="#EDEDED"/>
<path d="M56.6734 56.9347C56.6734 57.1226 56.6304 57.2754 56.5772 57.2754H56.8716C56.9247 57.2754 56.9678 57.1226 56.9678 56.9347C56.9678 56.7462 56.9247 56.5941 56.8716 56.5941H56.5772C56.6304 56.5941 56.6734 56.7462 56.6734 56.9347Z" fill="#B5B5B5"/>
<path d="M56.1872 57.2694C56.1872 57.4573 56.1441 57.6101 56.0909 57.6101C56.0378 57.6101 55.9947 57.4573 55.9947 57.2694C55.9947 57.0809 56.0378 56.9288 56.0909 56.9288C56.1441 56.9288 56.1872 57.0809 56.1872 57.2694Z" fill="#EDEDED"/>
<path d="M56.1871 57.2694C56.1871 57.4573 56.1441 57.6101 56.0909 57.6101H56.3853C56.4384 57.6101 56.4815 57.4573 56.4815 57.2694C56.4815 57.0809 56.4384 56.9288 56.3853 56.9288H56.0909C56.1441 56.9288 56.1871 57.0809 56.1871 57.2694Z" fill="#B5B5B5"/>
<path d="M55.4028 58.3435C55.4028 60.172 55.2089 61.6538 54.9697 61.6538C54.7306 61.6538 54.5367 60.172 54.5367 58.3435C54.5367 56.5151 54.7306 55.0333 54.9697 55.0333C55.2089 55.0333 55.4028 56.5151 55.4028 58.3435Z" fill="#D21111"/>
<path d="M55.4027 58.3435C55.4027 60.172 55.2089 61.6538 54.9697 61.6538H56.2943C56.5335 61.6538 56.7274 60.172 56.7274 58.3435C56.7274 56.5151 56.5335 55.0333 56.2943 55.0333H54.9697C55.2089 55.0333 55.4027 56.5151 55.4027 58.3435Z" fill="#FF0F0C"/>
<path d="M54.4831 57.2694C54.4831 57.4573 54.44 57.6101 54.3869 57.6101C54.3337 57.6101 54.2906 57.4573 54.2906 57.2694C54.2906 57.0809 54.3337 56.9288 54.3869 56.9288C54.44 56.9288 54.4831 57.0809 54.4831 57.2694Z" fill="#EDEDED"/>
<path d="M51.9529 57.2694C51.9529 57.458 51.9098 57.6101 51.8566 57.6101H54.6825C54.7357 57.6101 54.7787 57.458 54.7787 57.2694C54.7787 57.0809 54.7357 56.9288 54.6825 56.9288H51.8566C51.9098 56.9288 51.9529 57.0809 51.9529 57.2694Z" fill="#9C9C9C"/>
<path d="M54.4838 59.4124C54.4838 59.6003 54.4408 59.7531 54.3876 59.7531C54.3345 59.7531 54.2914 59.6003 54.2914 59.4124C54.2914 59.2239 54.3345 59.0718 54.3876 59.0718C54.4408 59.0718 54.4838 59.2239 54.4838 59.4124Z" fill="#EDEDED"/>
<path d="M51.9521 59.4124C51.9521 59.6003 51.909 59.7531 51.8559 59.7531H54.6818C54.7349 59.7531 54.778 59.6003 54.778 59.4124C54.778 59.2239 54.7349 59.0718 54.6818 59.0718H51.8559C51.909 59.0718 51.9521 59.2239 51.9521 59.4124Z" fill="#9C9C9C"/>
<path d="M54.7276 60.8772C54.7276 61.065 54.6846 61.2179 54.6314 61.2179C54.5783 61.2179 54.5352 61.065 54.5352 60.8772C54.5352 60.6886 54.5783 60.5366 54.6314 60.5366C54.6846 60.5366 54.7276 60.6886 54.7276 60.8772Z" fill="#EDEDED"/>
<path d="M51.8087 60.8772C51.8087 61.065 51.7656 61.2179 51.7124 61.2179H54.9278C54.9809 61.2179 55.024 61.065 55.024 60.8772C55.024 60.6886 54.9809 60.5366 54.9278 60.5366H51.7124C51.7656 60.5366 51.8087 60.6886 51.8087 60.8772Z" fill="#B5B5B5"/>
<path d="M54.7255 55.8137C54.7255 56.0015 54.6824 56.1543 54.6293 56.1543C54.5761 56.1543 54.5331 56.0015 54.5331 55.8137C54.5331 55.6251 54.5761 55.473 54.6293 55.473C54.6824 55.473 54.7255 55.6251 54.7255 55.8137Z" fill="#EDEDED"/>
<path d="M51.8058 55.8137C51.8058 56.0015 51.7627 56.1543 51.7095 56.1543H54.9249C54.978 56.1543 55.0211 56.0015 55.0211 55.8137C55.0211 55.6251 54.978 55.473 54.9249 55.473H51.7095C51.7627 55.473 51.8058 55.6251 51.8058 55.8137Z" fill="#B5B5B5"/>
<path d="M54.9693 59.7531C54.9693 59.9409 54.9262 60.0938 54.8731 60.0938C54.8199 60.0938 54.7769 59.9409 54.7769 59.7531C54.7769 59.5645 54.8199 59.4125 54.8731 59.4125C54.9262 59.4125 54.9693 59.5645 54.9693 59.7531Z" fill="#EDEDED"/>
<path d="M51.7089 59.7531C51.7089 59.9417 51.6658 60.0938 51.6127 60.0938H55.1688C55.222 60.0938 55.2651 59.9417 55.2651 59.7531C55.2651 59.5645 55.222 59.4125 55.1688 59.4125H51.6127C51.6658 59.4125 51.7089 59.5645 51.7089 59.7531Z" fill="#B5B5B5"/>
<path d="M54.9708 58.3465C54.9708 58.5351 54.9278 58.6872 54.8746 58.6872C54.8215 58.6872 54.7784 58.5351 54.7784 58.3465C54.7784 58.1587 54.8215 58.0059 54.8746 58.0059C54.9278 58.0059 54.9708 58.1587 54.9708 58.3465Z" fill="#EDEDED"/>
<path d="M51.9513 58.3465C51.9513 58.5351 51.9082 58.6872 51.8551 58.6872H55.1679C55.221 58.6872 55.2641 58.5351 55.2641 58.3465C55.2641 58.1587 55.221 58.0059 55.1679 58.0059H51.8551C51.9082 58.0059 51.9513 58.1587 51.9513 58.3465Z" fill="#B5B5B5"/>
<path d="M54.97 56.9347C54.97 57.1226 54.927 57.2754 54.8738 57.2754C54.8207 57.2754 54.7776 57.1226 54.7776 56.9347C54.7776 56.7462 54.8207 56.5941 54.8738 56.5941C54.927 56.5941 54.97 56.7462 54.97 56.9347Z" fill="#EDEDED"/>
<path d="M51.9506 56.9347C51.9506 57.1226 51.9075 57.2754 51.8544 57.2754H55.1671C55.2203 57.2754 55.2634 57.1226 55.2634 56.9347C55.2634 56.7462 55.2203 56.5941 55.1671 56.5941H51.8544C51.9075 56.5941 51.9506 56.7462 51.9506 56.9347Z" fill="#B5B5B5"/>
<path d="M50.7309 58.3406C50.7309 60.169 50.537 61.6509 50.2979 61.6509C50.0587 61.6509 49.8648 60.169 49.8648 58.3406C49.8648 56.5121 50.0587 55.0303 50.2979 55.0303C50.537 55.0303 50.7309 56.5121 50.7309 58.3406Z" fill="#D21111"/>
<path d="M50.7309 58.3406C50.7309 60.169 50.537 61.6509 50.2979 61.6509H51.6226C51.8617 61.6509 52.0556 60.169 52.0556 58.3406C52.0556 56.5121 51.8617 55.0303 51.6226 55.0303H50.2979C50.537 55.0303 50.7309 56.5121 50.7309 58.3406Z" fill="#FF0F0C"/>
<path d="M50.0558 60.8772C50.0558 61.065 50.0128 61.2179 49.9596 61.2179C49.9065 61.2179 49.8634 61.065 49.8634 60.8772C49.8634 60.6886 49.9065 60.5366 49.9596 60.5366C50.0128 60.5366 50.0558 60.6886 50.0558 60.8772Z" fill="#EDEDED"/>
<path d="M50.0558 60.8772C50.0558 61.065 50.0127 61.2179 49.9596 61.2179H50.2539C50.3071 61.2179 50.3502 61.065 50.3502 60.8772C50.3502 60.6886 50.3071 60.5366 50.2539 60.5366H49.9596C50.0127 60.5366 50.0558 60.6886 50.0558 60.8772Z" fill="#B5B5B5"/>
<path d="M50.0558 55.8196C50.0558 56.0074 50.0128 56.1602 49.9596 56.1602C49.9065 56.1602 49.8634 56.0074 49.8634 55.8196C49.8634 55.631 49.9065 55.4782 49.9596 55.4782C50.0128 55.4782 50.0558 55.631 50.0558 55.8196Z" fill="#EDEDED"/>
<path d="M50.0558 55.8196C50.0558 56.0074 50.0127 56.1602 49.9596 56.1602H50.2539C50.3071 56.1602 50.3502 56.0074 50.3502 55.8196C50.3502 55.631 50.3071 55.4782 50.2539 55.4782H49.9596C50.0127 55.4782 50.0558 55.631 50.0558 55.8196Z" fill="#B5B5B5"/>
<path d="M50.2968 59.7561C50.2968 59.9439 50.2537 60.0967 50.2006 60.0967C50.1475 60.0967 50.1044 59.9439 50.1044 59.7561C50.1044 59.5675 50.1475 59.4154 50.2006 59.4154C50.2537 59.4154 50.2968 59.5675 50.2968 59.7561Z" fill="#EDEDED"/>
<path d="M50.2968 59.7561C50.2968 59.9439 50.2537 60.0967 50.2006 60.0967H50.4949C50.5481 60.0967 50.5912 59.9439 50.5912 59.7561C50.5912 59.5675 50.5481 59.4154 50.4949 59.4154H50.2006C50.2537 59.4154 50.2968 59.5675 50.2968 59.7561Z" fill="#B5B5B5"/>
<path d="M50.2975 58.3465C50.2975 58.5351 50.2544 58.6872 50.2012 58.6872C50.1481 58.6872 50.105 58.5351 50.105 58.3465C50.105 58.1587 50.1481 58.0059 50.2012 58.0059C50.2544 58.0059 50.2975 58.1587 50.2975 58.3465Z" fill="#EDEDED"/>
<path d="M50.2976 58.3465C50.2976 58.5351 50.2544 58.6872 50.2013 58.6872H50.4957C50.5488 58.6872 50.5919 58.5351 50.5919 58.3465C50.5919 58.1587 50.5488 58.0059 50.4957 58.0059H50.2013C50.2544 58.0059 50.2976 58.1587 50.2976 58.3465Z" fill="#B5B5B5"/>
<path d="M50.2982 56.9377C50.2982 57.1255 50.2551 57.2783 50.202 57.2783C50.1489 57.2783 50.1058 57.1255 50.1058 56.9377C50.1058 56.7491 50.1489 56.5963 50.202 56.5963C50.2551 56.5963 50.2982 56.7491 50.2982 56.9377Z" fill="#EDEDED"/>
<path d="M50.2982 56.9377C50.2982 57.1255 50.2551 57.2783 50.202 57.2783H50.4964C50.5495 57.2783 50.5926 57.1255 50.5926 56.9377C50.5926 56.7491 50.5495 56.5963 50.4964 56.5963H50.202C50.2551 56.5963 50.2982 56.7491 50.2982 56.9377Z" fill="#B5B5B5"/>
<path d="M56.4332 36.0428C56.4332 36.2314 56.3901 36.3842 56.337 36.3842C56.2838 36.3842 56.2407 36.2314 56.2407 36.0428C56.2407 35.8549 56.2838 35.7021 56.337 35.7021C56.3901 35.7021 56.4332 35.8549 56.4332 36.0428Z" fill="#EDEDED"/>
<path d="M56.4332 36.0428C56.4332 36.2314 56.3901 36.3842 56.3369 36.3842H56.6313C56.6845 36.3842 56.7275 36.2314 56.7275 36.0428C56.7275 35.8549 56.6845 35.7021 56.6313 35.7021H56.3369C56.3901 35.7021 56.4332 35.8549 56.4332 36.0428Z" fill="#B5B5B5"/>
<path d="M56.4332 30.9823C56.4332 31.1709 56.3901 31.323 56.337 31.323C56.2838 31.323 56.2407 31.1709 56.2407 30.9823C56.2407 30.7945 56.2838 30.6417 56.337 30.6417C56.3901 30.6417 56.4332 30.7945 56.4332 30.9823Z" fill="#EDEDED"/>
<path d="M56.4332 30.9823C56.4332 31.1709 56.3901 31.323 56.3369 31.323H56.6313C56.6845 31.323 56.7275 31.1709 56.7275 30.9823C56.7275 30.7945 56.6845 30.6417 56.6313 30.6417H56.3369C56.3901 30.6417 56.4332 30.7945 56.4332 30.9823Z" fill="#B5B5B5"/>
<path d="M56.6741 34.9218C56.6741 35.1104 56.631 35.2632 56.5779 35.2632C56.5247 35.2632 56.4816 35.1104 56.4816 34.9218C56.4816 34.7339 56.5247 34.5811 56.5779 34.5811C56.631 34.5811 56.6741 34.7339 56.6741 34.9218Z" fill="#EDEDED"/>
<path d="M56.6741 34.9218C56.6741 35.1104 56.631 35.2632 56.5779 35.2632H56.8722C56.9254 35.2632 56.9685 35.1104 56.9685 34.9218C56.9685 34.7339 56.9254 34.5811 56.8722 34.5811H56.5779C56.631 34.5811 56.6741 34.7339 56.6741 34.9218Z" fill="#B5B5B5"/>
<path d="M56.1893 34.5841C56.1893 34.7727 56.1462 34.9247 56.0931 34.9247C56.0399 34.9247 55.9968 34.7727 55.9968 34.5841C55.9968 34.3962 56.0399 34.2434 56.0931 34.2434C56.1462 34.2434 56.1893 34.3962 56.1893 34.5841Z" fill="#EDEDED"/>
<path d="M56.1893 34.5841C56.1893 34.7727 56.1462 34.9247 56.0931 34.9247H56.3875C56.4407 34.9247 56.4837 34.7727 56.4837 34.5841C56.4837 34.3962 56.4407 34.2434 56.3875 34.2434H56.0931C56.1462 34.2434 56.1893 34.3962 56.1893 34.5841Z" fill="#B5B5B5"/>
<path d="M56.6734 33.516C56.6734 33.7039 56.6304 33.8566 56.5772 33.8566C56.5241 33.8566 56.481 33.7039 56.481 33.516C56.481 33.3274 56.5241 33.1754 56.5772 33.1754C56.6304 33.1754 56.6734 33.3274 56.6734 33.516Z" fill="#EDEDED"/>
<path d="M56.6734 33.516C56.6734 33.7039 56.6304 33.8566 56.5772 33.8566H56.8716C56.9247 33.8566 56.9678 33.7039 56.9678 33.516C56.9678 33.3274 56.9247 33.1754 56.8716 33.1754H56.5772C56.6304 33.1754 56.6734 33.3274 56.6734 33.516Z" fill="#B5B5B5"/>
<path d="M56.6741 32.1035C56.6741 32.2921 56.631 32.4441 56.5779 32.4441C56.5247 32.4441 56.4816 32.2921 56.4816 32.1035C56.4816 31.9156 56.5247 31.7628 56.5779 31.7628C56.631 31.7628 56.6741 31.9156 56.6741 32.1035Z" fill="#EDEDED"/>
<path d="M56.6741 32.1035C56.6741 32.2921 56.631 32.4441 56.5779 32.4441H56.8722C56.9254 32.4441 56.9685 32.2921 56.9685 32.1035C56.9685 31.9156 56.9254 31.7628 56.8722 31.7628H56.5779C56.631 31.7628 56.6741 31.9156 56.6741 32.1035Z" fill="#B5B5B5"/>
<path d="M56.1908 32.447C56.1908 32.6356 56.1477 32.7876 56.0946 32.7876C56.0414 32.7876 55.9983 32.6356 55.9983 32.447C55.9983 32.2592 56.0414 32.1064 56.0946 32.1064C56.1477 32.1064 56.1908 32.2592 56.1908 32.447Z" fill="#EDEDED"/>
<path d="M56.1908 32.447C56.1908 32.6356 56.1477 32.7876 56.0945 32.7876H56.3889C56.442 32.7876 56.4851 32.6356 56.4851 32.447C56.4851 32.2592 56.442 32.1064 56.3889 32.1064H56.0945C56.1477 32.1064 56.1908 32.2592 56.1908 32.447Z" fill="#B5B5B5"/>
<path d="M55.4028 33.513C55.4028 35.3407 55.2089 36.8233 54.9697 36.8233C54.7306 36.8233 54.5367 35.3407 54.5367 33.513C54.5367 31.6846 54.7306 30.202 54.9697 30.202C55.2089 30.202 55.4028 31.6846 55.4028 33.513Z" fill="#D21111"/>
<path d="M55.4027 33.513C55.4027 35.3407 55.2089 36.8233 54.9697 36.8233H56.2943C56.5335 36.8233 56.7274 35.3407 56.7274 33.513C56.7274 31.6846 56.5335 30.202 56.2943 30.202H54.9697C55.2089 30.202 55.4027 31.6846 55.4027 33.513Z" fill="#FF0F0C"/>
<path d="M54.4823 32.441C54.4823 32.6296 54.4393 32.7816 54.3861 32.7816C54.333 32.7816 54.2899 32.6296 54.2899 32.441C54.2899 32.2532 54.333 32.1003 54.3861 32.1003C54.4393 32.1003 54.4823 32.2532 54.4823 32.441Z" fill="#EDEDED"/>
<path d="M51.9506 32.441C51.9506 32.6296 51.9075 32.7816 51.8544 32.7816H54.6803C54.7335 32.7816 54.7765 32.6296 54.7765 32.441C54.7765 32.2532 54.7335 32.1003 54.6803 32.1003H51.8544C51.9075 32.1003 51.9506 32.2532 51.9506 32.441Z" fill="#9C9C9C"/>
<path d="M54.4838 34.5871C54.4838 34.7757 54.4408 34.9278 54.3876 34.9278C54.3345 34.9278 54.2914 34.7757 54.2914 34.5871C54.2914 34.3992 54.3345 34.2465 54.3876 34.2465C54.4408 34.2465 54.4838 34.3992 54.4838 34.5871Z" fill="#EDEDED"/>
<path d="M51.9506 34.5871C51.9506 34.7757 51.9075 34.9285 51.8544 34.9285H54.6803C54.7335 34.9285 54.7765 34.7757 54.7765 34.5871C54.7765 34.3992 54.7335 34.2465 54.6803 34.2465H51.8544C51.9075 34.2465 51.9506 34.3992 51.9506 34.5871Z" fill="#9C9C9C"/>
<path d="M54.7276 36.0458C54.7276 36.2344 54.6846 36.3864 54.6314 36.3864C54.5783 36.3864 54.5352 36.2344 54.5352 36.0458C54.5352 35.858 54.5783 35.7051 54.6314 35.7051C54.6846 35.7051 54.7276 35.858 54.7276 36.0458Z" fill="#EDEDED"/>
<path d="M51.8087 36.0458C51.8087 36.2344 51.7656 36.3864 51.7124 36.3864H54.9278C54.9809 36.3864 55.024 36.2344 55.024 36.0458C55.024 35.858 54.9809 35.7051 54.9278 35.7051H51.7124C51.7656 35.7051 51.8087 35.858 51.8087 36.0458Z" fill="#B5B5B5"/>
<path d="M54.7255 30.9823C54.7255 31.1709 54.6824 31.323 54.6293 31.323C54.5761 31.323 54.5331 31.1709 54.5331 30.9823C54.5331 30.7945 54.5761 30.6417 54.6293 30.6417C54.6824 30.6417 54.7255 30.7945 54.7255 30.9823Z" fill="#EDEDED"/>
<path d="M51.8058 30.9823C51.8058 31.1709 51.7627 31.323 51.7095 31.323H54.9249C54.978 31.323 55.0211 31.1709 55.0211 30.9823C55.0211 30.7945 54.978 30.6417 54.9249 30.6417H51.7095C51.7627 30.6417 51.8058 30.7945 51.8058 30.9823Z" fill="#B5B5B5"/>
<path d="M54.9679 34.9247C54.9679 35.1133 54.9248 35.2661 54.8717 35.2661C54.8185 35.2661 54.7755 35.1133 54.7755 34.9247C54.7755 34.7368 54.8185 34.584 54.8717 34.584C54.9248 34.584 54.9679 34.7368 54.9679 34.9247Z" fill="#EDEDED"/>
<path d="M51.7068 34.9247C51.7068 35.1133 51.6637 35.2661 51.6106 35.2661H55.1667C55.2198 35.2661 55.2629 35.1133 55.2629 34.9247C55.2629 34.7368 55.2198 34.584 55.1667 34.584H51.6106C51.6637 34.584 51.7068 34.7368 51.7068 34.9247Z" fill="#B5B5B5"/>
<path d="M54.9708 33.516C54.9708 33.7039 54.9278 33.8566 54.8746 33.8566C54.8215 33.8566 54.7784 33.7039 54.7784 33.516C54.7784 33.3274 54.8215 33.1754 54.8746 33.1754C54.9278 33.1754 54.9708 33.3274 54.9708 33.516Z" fill="#EDEDED"/>
<path d="M51.9513 33.516C51.9513 33.7039 51.9082 33.8566 51.8551 33.8566H55.1679C55.221 33.8566 55.2641 33.7039 55.2641 33.516C55.2641 33.3274 55.221 33.1754 55.1679 33.1754H51.8551C51.9082 33.1754 51.9513 33.3274 51.9513 33.516Z" fill="#B5B5B5"/>
<path d="M54.97 32.1035C54.97 32.2921 54.927 32.4441 54.8738 32.4441C54.8207 32.4441 54.7776 32.2921 54.7776 32.1035C54.7776 31.9156 54.8207 31.7628 54.8738 31.7628C54.927 31.7628 54.97 31.9156 54.97 32.1035Z" fill="#EDEDED"/>
<path d="M51.9506 32.1035C51.9506 32.2921 51.9075 32.4441 51.8544 32.4441H55.1671C55.2203 32.4441 55.2634 32.2921 55.2634 32.1035C55.2634 31.9156 55.2203 31.7628 55.1671 31.7628H51.8544C51.9075 31.7628 51.9506 31.9156 51.9506 32.1035Z" fill="#B5B5B5"/>
<path d="M50.728 33.5123C50.728 35.3407 50.5342 36.8233 50.295 36.8233C50.0558 36.8233 49.862 35.3407 49.862 33.5123C49.862 31.6846 50.0558 30.202 50.295 30.202C50.5342 30.202 50.728 31.6846 50.728 33.5123Z" fill="#D21111"/>
<path d="M50.728 33.5123C50.728 35.3407 50.5341 36.8233 50.295 36.8233H51.6197C51.8588 36.8233 52.0527 35.3407 52.0527 33.5123C52.0527 31.6846 51.8588 30.202 51.6197 30.202H50.295C50.5341 30.202 50.728 31.6846 50.728 33.5123Z" fill="#FF0F0C"/>
<path d="M50.0558 36.0458C50.0558 36.2344 50.0128 36.3864 49.9596 36.3864C49.9065 36.3864 49.8634 36.2344 49.8634 36.0458C49.8634 35.858 49.9065 35.7051 49.9596 35.7051C50.0128 35.7051 50.0558 35.858 50.0558 36.0458Z" fill="#EDEDED"/>
<path d="M50.0558 36.0458C50.0558 36.2344 50.0127 36.3864 49.9596 36.3864H50.2539C50.3071 36.3864 50.3502 36.2344 50.3502 36.0458C50.3502 35.858 50.3071 35.7051 50.2539 35.7051H49.9596C50.0127 35.7051 50.0558 35.858 50.0558 36.0458Z" fill="#B5B5B5"/>
<path d="M50.0544 30.9854C50.0544 31.174 50.0113 31.326 49.9582 31.326C49.9051 31.326 49.862 31.174 49.862 30.9854C49.862 30.7975 49.9051 30.6447 49.9582 30.6447C50.0113 30.6447 50.0544 30.7975 50.0544 30.9854Z" fill="#EDEDED"/>
<path d="M50.0544 30.9854C50.0544 31.174 50.0113 31.326 49.9582 31.326H50.2526C50.3057 31.326 50.3488 31.174 50.3488 30.9854C50.3488 30.7975 50.3057 30.6447 50.2526 30.6447H49.9582C50.0113 30.6447 50.0544 30.7975 50.0544 30.9854Z" fill="#B5B5B5"/>
<path d="M50.2953 34.9277C50.2953 35.1163 50.2522 35.2683 50.1991 35.2683C50.1459 35.2683 50.1028 35.1163 50.1028 34.9277C50.1028 34.7399 50.1459 34.587 50.1991 34.587C50.2522 34.587 50.2953 34.7399 50.2953 34.9277Z" fill="#EDEDED"/>
<path d="M50.2953 34.9277C50.2953 35.1163 50.2522 35.2683 50.1991 35.2683H50.4935C50.5466 35.2683 50.5897 35.1163 50.5897 34.9277C50.5897 34.7399 50.5466 34.587 50.4935 34.587H50.1991C50.2522 34.587 50.2953 34.7399 50.2953 34.9277Z" fill="#B5B5B5"/>
<path d="M50.296 33.5219C50.296 33.7098 50.253 33.8626 50.1998 33.8626C50.1467 33.8626 50.1036 33.7098 50.1036 33.5219C50.1036 33.3334 50.1467 33.1805 50.1998 33.1805C50.253 33.1805 50.296 33.3334 50.296 33.5219Z" fill="#EDEDED"/>
<path d="M50.296 33.5219C50.296 33.7098 50.2529 33.8626 50.1998 33.8626H50.4942C50.5473 33.8626 50.5904 33.7098 50.5904 33.5219C50.5904 33.3334 50.5473 33.1805 50.4942 33.1805H50.1998C50.2529 33.1805 50.296 33.3334 50.296 33.5219Z" fill="#B5B5B5"/>
<path d="M50.2953 32.1064C50.2953 32.2949 50.2522 32.447 50.1991 32.447C50.1459 32.447 50.1028 32.2949 50.1028 32.1064C50.1028 31.9185 50.1459 31.7657 50.1991 31.7657C50.2522 31.7657 50.2953 31.9185 50.2953 32.1064Z" fill="#EDEDED"/>
<path d="M50.2953 32.1064C50.2953 32.2949 50.2522 32.447 50.1991 32.447H50.4935C50.5466 32.447 50.5897 32.2949 50.5897 32.1064C50.5897 31.9185 50.5466 31.7657 50.4935 31.7657H50.1991C50.2522 31.7657 50.2953 31.9185 50.2953 32.1064Z" fill="#B5B5B5"/>
<path d="M30.5333 30.1646H24.0584V36.6395H30.5333V30.1646Z" fill="#E8DDD3"/>
<path d="M27.3689 37.1833C29.1973 37.1833 30.6794 37.3771 30.6794 37.6164C30.6794 37.8556 29.1973 38.0494 27.3689 38.0494C25.5406 38.0494 24.0584 37.8556 24.0584 37.6164C24.0584 37.3771 25.5406 37.1833 27.3689 37.1833Z" fill="#D21111"/>
<path d="M27.3689 37.1833C29.1973 37.1833 30.6794 37.3771 30.6794 37.6164V36.2918C30.6794 36.0526 29.1973 35.8588 27.3689 35.8588C25.5406 35.8588 24.0584 36.0526 24.0584 36.2918V37.6164C24.0584 37.3771 25.5406 37.1833 27.3689 37.1833Z" fill="#FF0F0C"/>
<path d="M29.9002 37.8564C30.0884 37.8564 30.2409 37.8997 30.2409 37.9534C30.2409 38.0063 30.0884 38.0495 29.9002 38.0495C29.712 38.0495 29.5594 38.0063 29.5594 37.9534C29.5594 37.8997 29.712 37.8564 29.9002 37.8564Z" fill="#EDEDED"/>
<path d="M29.9002 37.8565C30.0884 37.8565 30.2409 37.8997 30.2409 37.9534V37.6589C30.2409 37.6052 30.0884 37.562 29.9002 37.562C29.712 37.562 29.5594 37.6052 29.5594 37.6589V37.9534C29.5594 37.8997 29.712 37.8565 29.9002 37.8565Z" fill="#B5B5B5"/>
<path d="M24.8404 37.8564C25.0286 37.8564 25.1812 37.8997 25.1812 37.9534C25.1812 38.0063 25.0286 38.0495 24.8404 38.0495C24.6522 38.0495 24.4996 38.0063 24.4996 37.9534C24.4996 37.8997 24.6522 37.8564 24.8404 37.8564Z" fill="#EDEDED"/>
<path d="M24.8404 37.8565C25.0286 37.8565 25.1812 37.8997 25.1812 37.9534V37.6589C25.1812 37.6052 25.0286 37.562 24.8404 37.562C24.6522 37.562 24.4996 37.6052 24.4996 37.6589V37.9534C24.4996 37.8997 24.6522 37.8565 24.8404 37.8565Z" fill="#B5B5B5"/>
<path d="M28.7821 37.6119C28.9702 37.6119 29.1228 37.6551 29.1228 37.708C29.1228 37.7617 28.9702 37.8042 28.7821 37.8042C28.5939 37.8042 28.4413 37.7617 28.4413 37.708C28.4413 37.6551 28.5939 37.6119 28.7821 37.6119Z" fill="#EDEDED"/>
<path d="M28.7821 37.6118C28.9702 37.6118 29.1228 37.655 29.1228 37.708V37.4136C29.1228 37.3606 28.9702 37.3174 28.7821 37.3174C28.5939 37.3174 28.4413 37.3606 28.4413 37.4136V37.708C28.4413 37.655 28.5939 37.6118 28.7821 37.6118Z" fill="#B5B5B5"/>
<path d="M27.3713 37.6119C27.5596 37.6119 27.7121 37.6551 27.7121 37.708C27.7121 37.7617 27.5596 37.8042 27.3713 37.8042C27.1831 37.8042 27.0305 37.7617 27.0305 37.708C27.0305 37.6551 27.1831 37.6119 27.3713 37.6119Z" fill="#EDEDED"/>
<path d="M27.3713 37.6118C27.5596 37.6118 27.7121 37.655 27.7121 37.708V37.4136C27.7121 37.3606 27.5596 37.3174 27.3713 37.3174C27.1831 37.3174 27.0305 37.3606 27.0305 37.4136V37.708C27.0305 37.655 27.1831 37.6118 27.3713 37.6118Z" fill="#B5B5B5"/>
<path d="M25.9606 37.6119C26.1488 37.6119 26.3014 37.6551 26.3014 37.708C26.3014 37.7617 26.1488 37.8042 25.9606 37.8042C25.7724 37.8042 25.6198 37.7617 25.6198 37.708C25.6198 37.6551 25.7724 37.6119 25.9606 37.6119Z" fill="#EDEDED"/>
<path d="M25.9606 37.6118C26.1488 37.6118 26.3014 37.655 26.3014 37.708V37.4136C26.3014 37.3606 26.1488 37.3174 25.9606 37.3174C25.7724 37.3174 25.6198 37.3606 25.6198 37.4136V37.708C25.6198 37.655 25.7724 37.6118 25.9606 37.6118Z" fill="#B5B5B5"/>
<path d="M27.3689 30.4479C29.1972 30.4479 30.6794 30.2541 30.6794 30.0148C30.6794 29.7755 29.1972 29.5817 27.3689 29.5817C25.5406 29.5817 24.0584 29.7755 24.0584 30.0148C24.0584 30.2541 25.5406 30.4479 27.3689 30.4479Z" fill="#D21111"/>
<path d="M27.3689 30.448C29.1972 30.448 30.6794 30.2542 30.6794 30.0149V31.3394C30.6794 31.5787 29.1972 31.7725 27.3689 31.7725C25.5406 31.7725 24.0584 31.5787 24.0584 31.3394V30.0149C24.0584 30.2542 25.5406 30.448 27.3689 30.448Z" fill="#FF0F0C"/>
<path d="M29.9016 29.7718C30.0898 29.7718 30.2424 29.7286 30.2424 29.6749C30.2424 29.622 30.0898 29.5787 29.9016 29.5787C29.7134 29.5787 29.5608 29.622 29.5608 29.6749C29.5608 29.7286 29.7134 29.7718 29.9016 29.7718Z" fill="#EDEDED"/>
<path d="M29.9016 29.7718C30.0898 29.7718 30.2424 29.7286 30.2424 29.6749V29.9694C30.2424 30.023 30.0898 30.0663 29.9016 30.0663C29.7134 30.0663 29.5608 30.023 29.5608 29.9694V29.6749C29.5608 29.7286 29.7134 29.7718 29.9016 29.7718Z" fill="#B5B5B5"/>
<path d="M24.8404 29.7718C25.0286 29.7718 25.1811 29.7286 25.1811 29.6749C25.1811 29.622 25.0286 29.5787 24.8404 29.5787C24.6522 29.5787 24.4996 29.622 24.4996 29.6749C24.4996 29.7286 24.6522 29.7718 24.8404 29.7718Z" fill="#EDEDED"/>
<path d="M24.8404 29.7718C25.0286 29.7718 25.1811 29.7286 25.1811 29.6749V29.9694C25.1811 30.023 25.0286 30.0655 24.8404 30.0655C24.6522 30.0655 24.4996 30.023 24.4996 29.9694V29.6749C24.4996 29.7286 24.6522 29.7718 24.8404 29.7718Z" fill="#B5B5B5"/>
<path d="M28.7821 30.0163C28.9702 30.0163 29.1228 29.9731 29.1228 29.9201C29.1228 29.8665 28.9702 29.8232 28.7821 29.8232C28.5939 29.8232 28.4413 29.8665 28.4413 29.9201C28.4413 29.9731 28.5939 30.0163 28.7821 30.0163Z" fill="#EDEDED"/>
<path d="M28.7821 30.0163C28.9702 30.0163 29.1228 29.9731 29.1228 29.9202V30.2146C29.1228 30.2675 28.9702 30.3107 28.7821 30.3107C28.5939 30.3107 28.4413 30.2675 28.4413 30.2146V29.9202C28.4413 29.9731 28.5939 30.0163 28.7821 30.0163Z" fill="#B5B5B5"/>
<path d="M27.3698 30.0163C27.5581 30.0163 27.7106 29.9731 27.7106 29.9201C27.7106 29.8665 27.5581 29.8232 27.3698 29.8232C27.1816 29.8232 27.0291 29.8665 27.0291 29.9201C27.0291 29.9731 27.1816 30.0163 27.3698 30.0163Z" fill="#EDEDED"/>
<path d="M27.3698 30.0163C27.5581 30.0163 27.7106 29.9731 27.7106 29.9202V30.2146C27.7106 30.2675 27.5581 30.3107 27.3698 30.3107C27.1816 30.3107 27.0291 30.2675 27.0291 30.2146V29.9202C27.0291 29.9731 27.1816 30.0163 27.3698 30.0163Z" fill="#B5B5B5"/>
<path d="M25.9598 30.0163C26.1481 30.0163 26.3006 29.9731 26.3006 29.9201C26.3006 29.8665 26.1481 29.8232 25.9598 29.8232C25.7716 29.8232 25.619 29.8665 25.619 29.9201C25.619 29.9731 25.7716 30.0163 25.9598 30.0163Z" fill="#EDEDED"/>
<path d="M25.9598 30.0163C26.1481 30.0163 26.3006 29.9731 26.3006 29.9202V30.2146C26.3006 30.2675 26.1481 30.3107 25.9598 30.3107C25.7716 30.3107 25.619 30.2675 25.619 30.2146V29.9202C25.619 29.9731 25.7716 30.0163 25.9598 30.0163Z" fill="#B5B5B5"/>
<path d="M31.1762 34.0131C31.1762 35.8415 31.3701 37.3241 31.6092 37.3241C31.8484 37.3241 32.0423 35.8415 32.0423 34.0131C32.0423 32.1854 31.8484 30.7028 31.6092 30.7028C31.3701 30.7028 31.1762 32.1854 31.1762 34.0131Z" fill="#D21111"/>
<path d="M31.1762 34.0131C31.1762 35.8415 31.3701 37.3241 31.6092 37.3241H30.2846C30.0455 37.3241 29.8516 35.8415 29.8516 34.0131C29.8516 32.1854 30.0455 30.7028 30.2846 30.7028H31.6092C31.3701 30.7028 31.1762 32.1854 31.1762 34.0131Z" fill="#FF0F0C"/>
<path d="M31.8498 36.5437C31.8498 36.7323 31.8929 36.8844 31.9461 36.8844C31.9992 36.8844 32.0423 36.7323 32.0423 36.5437C32.0423 36.3559 31.9992 36.2031 31.9461 36.2031C31.8929 36.2031 31.8498 36.3559 31.8498 36.5437Z" fill="#EDEDED"/>
<path d="M31.8498 36.5437C31.8498 36.7323 31.8929 36.8844 31.9461 36.8844H31.6517C31.5986 36.8844 31.5555 36.7323 31.5555 36.5437C31.5555 36.3559 31.5986 36.2031 31.6517 36.2031H31.9461C31.8929 36.2031 31.8498 36.3559 31.8498 36.5437Z" fill="#B5B5B5"/>
<path d="M31.8506 31.4803C31.8506 31.6688 31.8937 31.8209 31.9468 31.8209C32 31.8209 32.043 31.6688 32.043 31.4803C32.043 31.2924 32 31.1396 31.9468 31.1396C31.8937 31.1396 31.8506 31.2924 31.8506 31.4803Z" fill="#EDEDED"/>
<path d="M31.8506 31.4803C31.8506 31.6688 31.8937 31.8209 31.9468 31.8209H31.6525C31.5993 31.8209 31.5562 31.6688 31.5562 31.4803C31.5562 31.2924 31.5993 31.1396 31.6525 31.1396H31.9468C31.8937 31.1396 31.8506 31.2924 31.8506 31.4803Z" fill="#B5B5B5"/>
<path d="M31.606 35.4174C31.606 35.6053 31.6491 35.7581 31.7022 35.7581C31.7554 35.7581 31.7985 35.6053 31.7985 35.4174C31.7985 35.2289 31.7554 35.076 31.7022 35.076C31.6491 35.076 31.606 35.2289 31.606 35.4174Z" fill="#EDEDED"/>
<path d="M31.606 35.4174C31.606 35.6053 31.6491 35.7581 31.7022 35.7581H31.4079C31.3547 35.7581 31.3116 35.6053 31.3116 35.4174C31.3116 35.2289 31.3547 35.076 31.4079 35.076H31.7022C31.6491 35.076 31.606 35.2289 31.606 35.4174Z" fill="#B5B5B5"/>
<path d="M31.606 34.0138C31.606 34.2017 31.6491 34.3545 31.7022 34.3545C31.7554 34.3545 31.7985 34.2017 31.7985 34.0138C31.7985 33.8253 31.7554 33.6732 31.7022 33.6732C31.6491 33.6732 31.606 33.8253 31.606 34.0138Z" fill="#EDEDED"/>
<path d="M31.606 34.0138C31.606 34.2017 31.6491 34.3545 31.7022 34.3545H31.4079C31.3547 34.3545 31.3116 34.2017 31.3116 34.0138C31.3116 33.8253 31.3547 33.6732 31.4079 33.6732H31.7022C31.6491 33.6732 31.606 33.8253 31.606 34.0138Z" fill="#B5B5B5"/>
<path d="M31.606 32.6013C31.606 32.7899 31.6491 32.942 31.7022 32.942C31.7554 32.942 31.7985 32.7899 31.7985 32.6013C31.7985 32.4135 31.7554 32.2607 31.7022 32.2607C31.6491 32.2607 31.606 32.4135 31.606 32.6013Z" fill="#EDEDED"/>
<path d="M31.606 32.6013C31.606 32.7899 31.6491 32.942 31.7022 32.942H31.4079C31.3547 32.942 31.3116 32.7899 31.3116 32.6013C31.3116 32.4135 31.3547 32.2607 31.4079 32.2607H31.7022C31.6491 32.2607 31.606 32.4135 31.606 32.6013Z" fill="#B5B5B5"/>
<path d="M8.57213 59.5786C8.57213 59.7665 8.52905 59.9193 8.4759 59.9193C8.42275 59.9193 8.37967 59.7665 8.37967 59.5786C8.37967 59.3901 8.42275 59.2372 8.4759 59.2372C8.52905 59.2372 8.57213 59.3901 8.57213 59.5786Z" fill="#EDEDED"/>
<path d="M8.57212 59.5786C8.57212 59.7665 8.52904 59.9193 8.47589 59.9193H8.77025C8.82339 59.9193 8.86648 59.7665 8.86648 59.5786C8.86648 59.3901 8.82339 59.2372 8.77025 59.2372H8.47589C8.52904 59.2372 8.57212 59.3901 8.57212 59.5786Z" fill="#9C9C9C"/>
<path d="M8.57286 57.4297C8.57286 57.6176 8.52978 57.7704 8.47663 57.7704C8.42349 57.7704 8.3804 57.6176 8.3804 57.4297C8.3804 57.2411 8.42349 57.0891 8.47663 57.0891C8.52978 57.0891 8.57286 57.2411 8.57286 57.4297Z" fill="#EDEDED"/>
<path d="M8.57289 57.4297C8.57289 57.6176 8.5298 57.7704 8.47665 57.7704H8.77101C8.82416 57.7704 8.86724 57.6176 8.86724 57.4297C8.86724 57.2411 8.82416 57.0891 8.77101 57.0891H8.47665C8.5298 57.0891 8.57289 57.2411 8.57289 57.4297Z" fill="#9C9C9C"/>
<path d="M8.81603 61.0344C8.81603 61.2222 8.77294 61.3751 8.7198 61.3751C8.66665 61.3751 8.62357 61.2222 8.62357 61.0344C8.62357 60.8458 8.66665 60.6938 8.7198 60.6938C8.77294 60.6938 8.81603 60.8458 8.81603 61.0344Z" fill="#EDEDED"/>
<path d="M8.81602 61.0344C8.81602 61.2222 8.77293 61.3751 8.71979 61.3751H9.01414C9.06729 61.3751 9.11037 61.2222 9.11037 61.0344C9.11037 60.8458 9.06729 60.6938 9.01414 60.6938H8.71979C8.77293 60.6938 8.81602 60.8458 8.81602 61.0344Z" fill="#B5B5B5"/>
<path d="M8.81453 55.965C8.81453 56.1528 8.77145 56.3056 8.7183 56.3056C8.66515 56.3056 8.62207 56.1528 8.62207 55.965C8.62207 55.7764 8.66515 55.6243 8.7183 55.6243C8.77145 55.6243 8.81453 55.7764 8.81453 55.965Z" fill="#EDEDED"/>
<path d="M8.81452 55.965C8.81452 56.1528 8.77144 56.3056 8.71829 56.3056H9.01265C9.0658 56.3056 9.10888 56.1528 9.10888 55.965C9.10888 55.7764 9.0658 55.6243 9.01265 55.6243H8.71829C8.77144 55.6243 8.81452 55.7764 8.81452 55.965Z" fill="#B5B5B5"/>
<path d="M9.0577 59.9074C9.0577 60.0953 9.01461 60.2481 8.96147 60.2481C8.90832 60.2481 8.86523 60.0953 8.86523 59.9074C8.86523 59.7189 8.90832 59.5668 8.96147 59.5668C9.01461 59.5668 9.0577 59.7189 9.0577 59.9074Z" fill="#EDEDED"/>
<path d="M9.05769 59.9074C9.05769 60.0953 9.0146 60.2481 8.96146 60.2481H9.25581C9.30896 60.2481 9.35204 60.0953 9.35204 59.9074C9.35204 59.7189 9.30896 59.5668 9.25581 59.5668H8.96146C9.0146 59.5668 9.05769 59.7189 9.05769 59.9074Z" fill="#B5B5B5"/>
<path d="M9.05693 58.5008C9.05693 58.6894 9.01385 58.8414 8.9607 58.8414C8.90756 58.8414 8.86447 58.6894 8.86447 58.5008C8.86447 58.313 8.90756 58.1602 8.9607 58.1602C9.01385 58.1602 9.05693 58.313 9.05693 58.5008Z" fill="#EDEDED"/>
<path d="M9.05692 58.5008C9.05692 58.6894 9.01384 58.8414 8.96069 58.8414H9.25505C9.3082 58.8414 9.35128 58.6894 9.35128 58.5008C9.35128 58.313 9.3082 58.1602 9.25505 58.1602H8.96069C9.01384 58.1602 9.05692 58.313 9.05692 58.5008Z" fill="#B5B5B5"/>
<path d="M9.0577 57.086C9.0577 57.2739 9.01461 57.4267 8.96147 57.4267C8.90832 57.4267 8.86523 57.2739 8.86523 57.086C8.86523 56.8975 8.90832 56.7454 8.96147 56.7454C9.01461 56.7454 9.0577 56.8975 9.0577 57.086Z" fill="#EDEDED"/>
<path d="M9.05769 57.086C9.05769 57.2739 9.0146 57.4267 8.96146 57.4267H9.25581C9.30896 57.4267 9.35204 57.2739 9.35204 57.086C9.35204 56.8975 9.30896 56.7454 9.25581 56.7454H8.96146C9.0146 56.7454 9.05769 56.8975 9.05769 57.086Z" fill="#B5B5B5"/>
<path d="M7.78192 58.5038C7.78192 60.3322 7.58804 61.8141 7.34885 61.8141C7.10965 61.8141 6.91577 60.3322 6.91577 58.5038C6.91577 56.6753 7.10965 55.1935 7.34885 55.1935C7.58804 55.1935 7.78192 56.6753 7.78192 58.5038Z" fill="#D21111"/>
<path d="M7.78195 58.5038C7.78195 60.3322 7.58807 61.8141 7.34888 61.8141H8.67352C8.91272 61.8141 9.10659 60.3322 9.10659 58.5038C9.10659 56.6753 8.91272 55.1935 8.67352 55.1935H7.34888C7.58807 55.1935 7.78195 56.6753 7.78195 58.5038Z" fill="#FF0F0C"/>
<path d="M6.86369 59.5786C6.86369 59.7665 6.82061 59.9193 6.76747 59.9193C6.71432 59.9193 6.67123 59.7665 6.67123 59.5786C6.67123 59.3901 6.71432 59.2372 6.76747 59.2372C6.82061 59.2372 6.86369 59.3901 6.86369 59.5786Z" fill="#EDEDED"/>
<path d="M6.86369 59.5786C6.86369 59.7665 6.8206 59.9193 6.76746 59.9193H7.06181C7.11496 59.9193 7.15804 59.7665 7.15804 59.5786C7.15804 59.3901 7.11496 59.2372 7.06181 59.2372H6.76746C6.8206 59.2372 6.86369 59.3901 6.86369 59.5786Z" fill="#9C9C9C"/>
<path d="M6.86226 57.4297C6.86226 57.6176 6.81918 57.7704 6.76603 57.7704C6.71288 57.7704 6.6698 57.6176 6.6698 57.4297C6.6698 57.2411 6.71288 57.0891 6.76603 57.0891C6.81918 57.0891 6.86226 57.2411 6.86226 57.4297Z" fill="#EDEDED"/>
<path d="M6.86225 57.4297C6.86225 57.6176 6.81917 57.7704 6.76602 57.7704H7.06038C7.11352 57.7704 7.15661 57.6176 7.15661 57.4297C7.15661 57.2411 7.11352 57.0891 7.06038 57.0891H6.76602C6.81917 57.0891 6.86225 57.2411 6.86225 57.4297Z" fill="#9C9C9C"/>
<path d="M7.10759 61.0344C7.10759 61.2222 7.06451 61.3751 7.01136 61.3751C6.95822 61.3751 6.91513 61.2222 6.91513 61.0344C6.91513 60.8458 6.95822 60.6938 7.01136 60.6938C7.06451 60.6938 7.10759 60.8458 7.10759 61.0344Z" fill="#EDEDED"/>
<path d="M7.10758 61.0344C7.10758 61.2222 7.0645 61.3751 7.01135 61.3751H7.30571C7.35886 61.3751 7.40194 61.2222 7.40194 61.0344C7.40194 60.8458 7.35886 60.6938 7.30571 60.6938H7.01135C7.0645 60.6938 7.10758 60.8458 7.10758 61.0344Z" fill="#B5B5B5"/>
<path d="M7.10466 55.965C7.10466 56.1528 7.06158 56.3056 7.00843 56.3056C6.95529 56.3056 6.9122 56.1528 6.9122 55.965C6.9122 55.7764 6.95529 55.6243 7.00843 55.6243C7.06158 55.6243 7.10466 55.7764 7.10466 55.965Z" fill="#EDEDED"/>
<path d="M7.10465 55.965C7.10465 56.1528 7.06157 56.3056 7.00842 56.3056H7.30278C7.35593 56.3056 7.39901 56.1528 7.39901 55.965C7.39901 55.7764 7.35593 55.6243 7.30278 55.6243H7.00842C7.06157 55.6243 7.10465 55.7764 7.10465 55.965Z" fill="#B5B5B5"/>
<path d="M7.35289 59.9074C7.35289 60.0953 7.30981 60.2481 7.25666 60.2481C7.20352 60.2481 7.16043 60.0953 7.16043 59.9074C7.16043 59.7196 7.20352 59.5668 7.25666 59.5668C7.30981 59.5668 7.35289 59.7196 7.35289 59.9074Z" fill="#EDEDED"/>
<path d="M7.35288 59.9074C7.35288 60.0953 7.3098 60.2481 7.25665 60.2481H7.55101C7.60416 60.2481 7.64724 60.0953 7.64724 59.9074C7.64724 59.7196 7.60416 59.5668 7.55101 59.5668H7.25665C7.3098 59.5668 7.35288 59.7196 7.35288 59.9074Z" fill="#B5B5B5"/>
<path d="M7.35213 58.5008C7.35213 58.6894 7.30905 58.8414 7.2559 58.8414C7.20275 58.8414 7.15967 58.6894 7.15967 58.5008C7.15967 58.313 7.20275 58.1602 7.2559 58.1602C7.30905 58.1602 7.35213 58.313 7.35213 58.5008Z" fill="#EDEDED"/>
<path d="M7.35212 58.5008C7.35212 58.6894 7.30904 58.8414 7.25589 58.8414H7.55025C7.60339 58.8414 7.64648 58.6894 7.64648 58.5008C7.64648 58.313 7.60339 58.1602 7.55025 58.1602H7.25589C7.30904 58.1602 7.35212 58.313 7.35212 58.5008Z" fill="#B5B5B5"/>
<path d="M7.35289 57.086C7.35289 57.2739 7.30981 57.4267 7.25666 57.4267C7.20352 57.4267 7.16043 57.2739 7.16043 57.086C7.16043 56.8975 7.20352 56.7454 7.25666 56.7454C7.30981 56.7454 7.35289 56.8975 7.35289 57.086Z" fill="#EDEDED"/>
<path d="M7.35288 57.086C7.35288 57.2739 7.3098 57.4267 7.25665 57.4267H7.55101C7.60416 57.4267 7.64724 57.2739 7.64724 57.086C7.64724 56.8975 7.60416 56.7454 7.55101 56.7454H7.25665C7.3098 56.7454 7.35288 56.8975 7.35288 57.086Z" fill="#B5B5B5"/>
<path d="M6.12952 58.5038C6.12952 60.3322 5.93564 61.8141 5.69644 61.8141C5.45724 61.8141 5.26337 60.3322 5.26337 58.5038C5.26337 56.6753 5.45724 55.1935 5.69644 55.1935C5.93564 55.1935 6.12952 56.6753 6.12952 58.5038Z" fill="#D21111"/>
<path d="M6.12955 58.5038C6.12955 60.3322 5.93567 61.8141 5.69647 61.8141H7.02111C7.26031 61.8141 7.45419 60.3322 7.45419 58.5038C7.45419 56.6753 7.26031 55.1935 7.02111 55.1935H5.69647C5.93567 55.1935 6.12955 56.6753 6.12955 58.5038Z" fill="#FF0F0C"/>
<path d="M5.45659 61.0344C5.45659 61.2222 5.41351 61.3751 5.36036 61.3751C5.30721 61.3751 5.26413 61.2222 5.26413 61.0344C5.26413 60.8458 5.30721 60.6938 5.36036 60.6938C5.41351 60.6938 5.45659 60.8458 5.45659 61.0344Z" fill="#EDEDED"/>
<path d="M5.45658 61.0344C5.45658 61.2222 5.4135 61.3751 5.36035 61.3751H5.65471C5.70786 61.3751 5.75094 61.2222 5.75094 61.0344C5.75094 60.8458 5.70786 60.6938 5.65471 60.6938H5.36035C5.4135 60.6938 5.45658 60.8458 5.45658 61.0344Z" fill="#B5B5B5"/>
<path d="M5.45659 55.965C5.45659 56.1528 5.41351 56.3056 5.36036 56.3056C5.30721 56.3056 5.26413 56.1528 5.26413 55.965C5.26413 55.7764 5.30721 55.6243 5.36036 55.6243C5.41351 55.6243 5.45659 55.7764 5.45659 55.965Z" fill="#EDEDED"/>
<path d="M5.45658 55.965C5.45658 56.1528 5.4135 56.3056 5.36035 56.3056H5.65471C5.70786 56.3056 5.75094 56.1528 5.75094 55.965C5.75094 55.7764 5.70786 55.6243 5.65471 55.6243H5.36035C5.4135 55.6243 5.45658 55.7764 5.45658 55.965Z" fill="#B5B5B5"/>
<path d="M5.69823 59.9074C5.69823 60.096 5.65514 60.2481 5.602 60.2481C5.54885 60.2481 5.50577 60.096 5.50577 59.9074C5.50577 59.7196 5.54885 59.5668 5.602 59.5668C5.65514 59.5668 5.69823 59.7196 5.69823 59.9074Z" fill="#EDEDED"/>
<path d="M5.69828 59.9074C5.69828 60.096 5.6552 60.2481 5.60205 60.2481H5.89648C5.94963 60.2481 5.99271 60.096 5.99271 59.9074C5.99271 59.7196 5.94963 59.5668 5.89648 59.5668H5.60205C5.6552 59.5668 5.69828 59.7196 5.69828 59.9074Z" fill="#B5B5B5"/>
<path d="M5.69899 58.5008C5.69899 58.6894 5.65591 58.8414 5.60276 58.8414C5.54962 58.8414 5.50653 58.6894 5.50653 58.5008C5.50653 58.313 5.54962 58.1602 5.60276 58.1602C5.65591 58.1602 5.69899 58.313 5.69899 58.5008Z" fill="#EDEDED"/>
<path d="M5.69898 58.5008C5.69898 58.6894 5.6559 58.8414 5.60275 58.8414H5.89711C5.95026 58.8414 5.99334 58.6894 5.99334 58.5008C5.99334 58.313 5.95026 58.1602 5.89711 58.1602H5.60275C5.6559 58.1602 5.69898 58.313 5.69898 58.5008Z" fill="#B5B5B5"/>
<path d="M5.69759 57.086C5.69759 57.2739 5.6545 57.4267 5.60136 57.4267C5.54821 57.4267 5.50513 57.2739 5.50513 57.086C5.50513 56.8975 5.54821 56.7454 5.60136 56.7454C5.6545 56.7454 5.69759 56.8975 5.69759 57.086Z" fill="#EDEDED"/>
<path d="M5.69758 57.086C5.69758 57.2739 5.6545 57.4267 5.60135 57.4267H5.8957C5.94885 57.4267 5.99193 57.2739 5.99193 57.086C5.99193 56.8975 5.94885 56.7454 5.8957 56.7454H5.60135C5.6545 56.7454 5.69758 56.8975 5.69758 57.086Z" fill="#B5B5B5"/>
<path d="M26.296 17.7896C26.1078 17.7896 25.9552 17.7471 25.9552 17.6934C25.9552 17.6405 26.1078 17.5973 26.296 17.5973C26.4842 17.5973 26.6368 17.6405 26.6368 17.6934C26.6368 17.7471 26.4842 17.7896 26.296 17.7896Z" fill="#EDEDED"/>
<path d="M26.296 17.7897C26.1078 17.7897 25.9552 17.7471 25.9552 17.6935V17.9879C25.9552 18.0409 26.1078 18.0841 26.296 18.0841C26.4842 18.0841 26.6368 18.0409 26.6368 17.9879V17.6935C26.6368 17.7471 26.4842 17.7897 26.296 17.7897Z" fill="#9C9C9C"/>
<path d="M28.439 17.7896C28.2508 17.7896 28.0982 17.7471 28.0982 17.6934C28.0982 17.6405 28.2508 17.5973 28.439 17.5973C28.6272 17.5973 28.7798 17.6405 28.7798 17.6934C28.7798 17.7471 28.6272 17.7896 28.439 17.7896Z" fill="#EDEDED"/>
<path d="M28.439 17.7897C28.2508 17.7897 28.0982 17.7471 28.0982 17.6935V17.9879C28.0982 18.0409 28.2508 18.0841 28.439 18.0841C28.6272 18.0841 28.7798 18.0409 28.7798 17.9879V17.6935C28.7798 17.7471 28.6272 17.7897 28.439 17.7897Z" fill="#9C9C9C"/>
<path d="M24.8387 18.037C24.6504 18.037 24.4979 17.9945 24.4979 17.9408C24.4979 17.8879 24.6504 17.8447 24.8387 17.8447C25.0269 17.8447 25.1795 17.8879 25.1795 17.9408C25.1795 17.9945 25.0269 18.037 24.8387 18.037Z" fill="#EDEDED"/>
<path d="M24.8387 18.0372C24.6504 18.0372 24.4979 17.9946 24.4979 17.941V18.2354C24.4979 18.2883 24.6504 18.3316 24.8387 18.3316C25.0269 18.3316 25.1795 18.2883 25.1795 18.2354V17.941C25.1795 17.9946 25.0269 18.0372 24.8387 18.0372Z" fill="#B5B5B5"/>
<path d="M29.8985 18.0401C29.7103 18.0401 29.5577 17.9969 29.5577 17.944C29.5577 17.891 29.7103 17.8478 29.8985 17.8478C30.0867 17.8478 30.2393 17.891 30.2393 17.944C30.2393 17.9969 30.0867 18.0401 29.8985 18.0401Z" fill="#EDEDED"/>
<path d="M29.8985 18.04C29.7103 18.04 29.5577 17.9968 29.5577 17.9438V18.2382C29.5577 18.2912 29.7103 18.3344 29.8985 18.3344C30.0867 18.3344 30.2393 18.2912 30.2393 18.2382V17.9438C30.2393 17.9968 30.0867 18.04 29.8985 18.04Z" fill="#B5B5B5"/>
<path d="M25.9575 18.2763C25.7693 18.2763 25.6167 18.2331 25.6167 18.1802C25.6167 18.1265 25.7693 18.0833 25.9575 18.0833C26.1457 18.0833 26.2983 18.1265 26.2983 18.1802C26.2983 18.2331 26.1457 18.2763 25.9575 18.2763Z" fill="#EDEDED"/>
<path d="M25.9575 18.2764C25.7693 18.2764 25.6167 18.2331 25.6167 18.1802V18.4746C25.6167 18.5275 25.7693 18.5708 25.9575 18.5708C26.1457 18.5708 26.2983 18.5275 26.2983 18.4746V18.1802C26.2983 18.2331 26.1457 18.2764 25.9575 18.2764Z" fill="#B5B5B5"/>
<path d="M27.3675 18.2793C27.1793 18.2793 27.0267 18.236 27.0267 18.1824C27.0267 18.1295 27.1793 18.0862 27.3675 18.0862C27.5557 18.0862 27.7083 18.1295 27.7083 18.1824C27.7083 18.236 27.5557 18.2793 27.3675 18.2793Z" fill="#EDEDED"/>
<path d="M27.3675 18.2793C27.1793 18.2793 27.0267 18.2361 27.0267 18.1824V18.4769C27.0267 18.5305 27.1793 18.5738 27.3675 18.5738C27.5557 18.5738 27.7083 18.5305 27.7083 18.4769V18.1824C27.7083 18.2361 27.5557 18.2793 27.3675 18.2793Z" fill="#B5B5B5"/>
<path d="M28.7833 18.2793C28.5951 18.2793 28.4425 18.236 28.4425 18.1824C28.4425 18.1295 28.5951 18.0862 28.7833 18.0862C28.9715 18.0862 29.1241 18.1295 29.1241 18.1824C29.1241 18.236 28.9715 18.2793 28.7833 18.2793Z" fill="#EDEDED"/>
<path d="M28.7833 18.2793C28.5951 18.2793 28.4425 18.2361 28.4425 18.1824V18.4769C28.4425 18.5305 28.5951 18.5731 28.7833 18.5731C28.9715 18.5731 29.1241 18.5305 29.1241 18.4769V18.1824C29.1241 18.2361 28.9715 18.2793 28.7833 18.2793Z" fill="#B5B5B5"/>
<path d="M27.367 17.0077C25.5387 17.0077 24.0565 16.8139 24.0565 16.5746C24.0565 16.3353 25.5387 16.1415 27.367 16.1415C29.1953 16.1415 30.6775 16.3353 30.6775 16.5746C30.6775 16.8139 29.1953 17.0077 27.367 17.0077Z" fill="#D21111"/>
<path d="M27.367 17.0077C25.5387 17.0077 24.0565 16.8139 24.0565 16.5746V17.8992C24.0565 18.1385 25.5387 18.3323 27.367 18.3323C29.1953 18.3323 30.6775 18.1385 30.6775 17.8992V16.5746C30.6775 16.8139 29.1953 17.0077 27.367 17.0077Z" fill="#FF0F0C"/>
<path d="M26.2967 16.0893C26.1085 16.0893 25.9559 16.0461 25.9559 15.9932C25.9559 15.9403 26.1085 15.897 26.2967 15.897C26.4849 15.897 26.6374 15.9403 26.6374 15.9932C26.6374 16.0461 26.4849 16.0893 26.2967 16.0893Z" fill="#EDEDED"/>
<path d="M26.2967 16.0894C26.1085 16.0894 25.9559 16.0461 25.9559 15.9932V16.2876C25.9559 16.3405 26.1085 16.3838 26.2967 16.3838C26.4849 16.3838 26.6374 16.3405 26.6374 16.2876V15.9932C26.6374 16.0461 26.4849 16.0894 26.2967 16.0894Z" fill="#9C9C9C"/>
<path d="M28.4397 16.0893C28.2515 16.0893 28.0989 16.0461 28.0989 15.9932C28.0989 15.9403 28.2515 15.897 28.4397 15.897C28.6279 15.897 28.7804 15.9403 28.7804 15.9932C28.7804 16.0461 28.6279 16.0893 28.4397 16.0893Z" fill="#EDEDED"/>
<path d="M28.4397 16.0894C28.2515 16.0894 28.0989 16.0461 28.0989 15.9932V16.2876C28.0989 16.3405 28.2515 16.3838 28.4397 16.3838C28.6279 16.3838 28.7804 16.3405 28.7804 16.2876V15.9932C28.7804 16.0461 28.6279 16.0894 28.4397 16.0894Z" fill="#9C9C9C"/>
<path d="M24.8394 16.3338C24.6512 16.3338 24.4986 16.2906 24.4986 16.2377C24.4986 16.1848 24.6512 16.1415 24.8394 16.1415C25.0276 16.1415 25.1802 16.1848 25.1802 16.2377C25.1802 16.2906 25.0276 16.3338 24.8394 16.3338Z" fill="#EDEDED"/>
<path d="M24.8394 16.3339C24.6512 16.3339 24.4986 16.2907 24.4986 16.2377V16.5321C24.4986 16.5851 24.6512 16.6283 24.8394 16.6283C25.0276 16.6283 25.1802 16.5851 25.1802 16.5321V16.2377C25.1802 16.2907 25.0276 16.3339 24.8394 16.3339Z" fill="#B5B5B5"/>
<path d="M29.8992 16.3338C29.711 16.3338 29.5584 16.2906 29.5584 16.2377C29.5584 16.1848 29.711 16.1415 29.8992 16.1415C30.0874 16.1415 30.2399 16.1848 30.2399 16.2377C30.2399 16.2906 30.0874 16.3338 29.8992 16.3338Z" fill="#EDEDED"/>
<path d="M29.8992 16.3339C29.711 16.3339 29.5584 16.2907 29.5584 16.2377V16.5321C29.5584 16.5851 29.711 16.6283 29.8992 16.6283C30.0874 16.6283 30.2399 16.5851 30.2399 16.5321V16.2377C30.2399 16.2907 30.0874 16.3339 29.8992 16.3339Z" fill="#B5B5B5"/>
<path d="M25.9582 16.5753C25.77 16.5753 25.6174 16.5328 25.6174 16.4792C25.6174 16.4262 25.77 16.383 25.9582 16.383C26.1464 16.383 26.2989 16.4262 26.2989 16.4792C26.2989 16.5328 26.1464 16.5753 25.9582 16.5753Z" fill="#EDEDED"/>
<path d="M25.9582 16.5753C25.77 16.5753 25.6174 16.5329 25.6174 16.4792V16.7736C25.6174 16.8273 25.77 16.8698 25.9582 16.8698C26.1464 16.8698 26.2989 16.8273 26.2989 16.7736V16.4792C26.2989 16.5329 26.1464 16.5753 25.9582 16.5753Z" fill="#B5B5B5"/>
<path d="M27.3675 16.5753C27.1793 16.5753 27.0267 16.5328 27.0267 16.4792C27.0267 16.4262 27.1793 16.383 27.3675 16.383C27.5557 16.383 27.7083 16.4262 27.7083 16.4792C27.7083 16.5328 27.5557 16.5753 27.3675 16.5753Z" fill="#EDEDED"/>
<path d="M27.3675 16.5753C27.1793 16.5753 27.0267 16.5329 27.0267 16.4792V16.7736C27.0267 16.8273 27.1793 16.8698 27.3675 16.8698C27.5557 16.8698 27.7083 16.8273 27.7083 16.7736V16.4792C27.7083 16.5329 27.5557 16.5753 27.3675 16.5753Z" fill="#B5B5B5"/>
<path d="M28.7833 16.5753C28.5951 16.5753 28.4425 16.5328 28.4425 16.4792C28.4425 16.4262 28.5951 16.383 28.7833 16.383C28.9715 16.383 29.1241 16.4262 29.1241 16.4792C29.1241 16.5328 28.9715 16.5753 28.7833 16.5753Z" fill="#EDEDED"/>
<path d="M28.7833 16.5753C28.5951 16.5753 28.4425 16.5329 28.4425 16.4792V16.7736C28.4425 16.8273 28.5951 16.8698 28.7833 16.8698C28.9715 16.8698 29.1241 16.8273 29.1241 16.7736V16.4792C29.1241 16.5329 28.9715 16.5753 28.7833 16.5753Z" fill="#B5B5B5"/>
<path d="M27.3648 15.3625C25.5365 15.3625 24.0544 15.1687 24.0544 14.9295C24.0544 14.6902 25.5365 14.4964 27.3648 14.4964C29.1931 14.4964 30.6752 14.6902 30.6752 14.9295C30.6752 15.1687 29.1931 15.3625 27.3648 15.3625Z" fill="#D21111"/>
<path d="M27.3648 15.3626C25.5365 15.3626 24.0544 15.1688 24.0544 14.9295V16.2541C24.0544 16.4933 25.5365 16.6871 27.3648 16.6871C29.1931 16.6871 30.6752 16.4933 30.6752 16.2541V14.9295C30.6752 15.1688 29.1931 15.3626 27.3648 15.3626Z" fill="#FF0F0C"/>
<path d="M24.8365 14.6887C24.6483 14.6887 24.4957 14.6455 24.4957 14.5925C24.4957 14.5396 24.6483 14.4964 24.8365 14.4964C25.0247 14.4964 25.1773 14.5396 25.1773 14.5925C25.1773 14.6455 25.0247 14.6887 24.8365 14.6887Z" fill="#EDEDED"/>
<path d="M24.8365 14.6888C24.6483 14.6888 24.4957 14.6455 24.4957 14.5926V14.887C24.4957 14.94 24.6483 14.9832 24.8365 14.9832C25.0247 14.9832 25.1773 14.94 25.1773 14.887V14.5926C25.1773 14.6455 25.0247 14.6888 24.8365 14.6888Z" fill="#B5B5B5"/>
<path d="M29.8992 14.6917C29.711 14.6917 29.5584 14.6485 29.5584 14.5956C29.5584 14.5426 29.711 14.4994 29.8992 14.4994C30.0874 14.4994 30.2399 14.5426 30.2399 14.5956C30.2399 14.6485 30.0874 14.6917 29.8992 14.6917Z" fill="#EDEDED"/>
<path d="M29.8992 14.6917C29.711 14.6917 29.5584 14.6485 29.5584 14.5956V14.89C29.5584 14.9429 29.711 14.9862 29.8992 14.9862C30.0874 14.9862 30.2399 14.9429 30.2399 14.89V14.5956C30.2399 14.6485 30.0874 14.6917 29.8992 14.6917Z" fill="#B5B5B5"/>
<path d="M25.9553 14.9302C25.7671 14.9302 25.6146 14.8877 25.6146 14.834C25.6146 14.7811 25.7671 14.7379 25.9553 14.7379C26.1435 14.7379 26.2961 14.7811 26.2961 14.834C26.2961 14.8877 26.1435 14.9302 25.9553 14.9302Z" fill="#EDEDED"/>
<path d="M25.9553 14.9303C25.7671 14.9303 25.6146 14.8878 25.6146 14.8341V15.1286C25.6146 15.1815 25.7671 15.2247 25.9553 15.2247C26.1435 15.2247 26.2961 15.1815 26.2961 15.1286V14.8341C26.2961 14.8878 26.1435 14.9303 25.9553 14.9303Z" fill="#B5B5B5"/>
<path d="M27.366 14.9302C27.1778 14.9302 27.0252 14.8877 27.0252 14.834C27.0252 14.7811 27.1778 14.7379 27.366 14.7379C27.5542 14.7379 27.7068 14.7811 27.7068 14.834C27.7068 14.8877 27.5542 14.9302 27.366 14.9302Z" fill="#EDEDED"/>
<path d="M27.366 14.9303C27.1778 14.9303 27.0252 14.8878 27.0252 14.8341V15.1286C27.0252 15.1815 27.1778 15.2247 27.366 15.2247C27.5542 15.2247 27.7068 15.1815 27.7068 15.1286V14.8341C27.7068 14.8878 27.5542 14.9303 27.366 14.9303Z" fill="#B5B5B5"/>
<path d="M28.7782 14.9302C28.59 14.9302 28.4374 14.8877 28.4374 14.834C28.4374 14.7811 28.59 14.7379 28.7782 14.7379C28.9664 14.7379 29.1189 14.7811 29.1189 14.834C29.1189 14.8877 28.9664 14.9302 28.7782 14.9302Z" fill="#EDEDED"/>
<path d="M28.7782 14.9303C28.59 14.9303 28.4374 14.8878 28.4374 14.8341V15.1286C28.4374 15.1815 28.59 15.2247 28.7782 15.2247C28.9664 15.2247 29.1189 15.1815 29.1189 15.1286V14.8341C29.1189 14.8878 28.9664 14.9303 28.7782 14.9303Z" fill="#B5B5B5"/>
<path d="M27.3655 52.1546C25.5372 52.1546 24.055 51.9607 24.055 51.7215C24.055 51.4822 25.5372 51.2884 27.3655 51.2884C29.1939 51.2884 30.676 51.4822 30.676 51.7215C30.676 51.9607 29.1939 52.1546 27.3655 52.1546Z" fill="#FF0F0C"/>
<path d="M27.3655 52.1545C25.5372 52.1545 24.055 51.9606 24.055 51.7214V53.046C24.055 53.2852 25.5372 53.479 27.3655 53.479C29.1939 53.479 30.676 53.2852 30.676 53.046V51.7214C30.676 51.9606 29.1939 52.1545 27.3655 52.1545Z" fill="#E53028"/>
<path d="M27.3677 50.6496C25.5394 50.6496 24.0573 50.4558 24.0573 50.2166C24.0573 49.9773 25.5394 49.7835 27.3677 49.7835C29.196 49.7835 30.6781 49.9773 30.6781 50.2166C30.6781 50.4558 29.196 50.6496 27.3677 50.6496Z" fill="#FF0F0C"/>
<path d="M27.3677 50.6496C25.5394 50.6496 24.0573 50.4558 24.0573 50.2165V51.5411C24.0573 51.7804 25.5394 51.9742 27.3677 51.9742C29.196 51.9742 30.6781 51.7804 30.6781 51.5411V50.2165C30.6781 50.4558 29.196 50.6496 27.3677 50.6496Z" fill="#E53028"/>
<path d="M27.3682 49.3176C26.0776 49.3176 25.0313 49.1805 25.0313 49.012C25.0313 48.8428 26.0776 48.7056 27.3682 48.7056C28.6587 48.7056 29.705 48.8428 29.705 49.012C29.705 49.1805 28.6587 49.3176 27.3682 49.3176Z" fill="#FF0F0C"/>
<path d="M27.3682 49.3176C26.0776 49.3176 25.0313 49.1804 25.0313 49.012V49.9467C25.0313 50.1159 26.0776 50.2523 27.3682 50.2523C28.6587 50.2523 29.705 50.1159 29.705 49.9467V49.012C29.705 49.1804 28.6587 49.3176 27.3682 49.3176Z" fill="#E53028"/>
<path d="M27.3696 48.543C26.079 48.543 25.0328 48.4059 25.0328 48.2375C25.0328 48.0683 26.079 47.9311 27.3696 47.9311C28.6602 47.9311 29.7064 48.0683 29.7064 48.2375C29.7064 48.4059 28.6602 48.543 27.3696 48.543Z" fill="#FF0F0C"/>
<path d="M27.3696 48.5431C26.079 48.5431 25.0328 48.406 25.0328 48.2375V49.1722C25.0328 49.3407 26.079 49.4779 27.3696 49.4779C28.6602 49.4779 29.7064 49.3407 29.7064 49.1722V48.2375C29.7064 48.406 28.6602 48.5431 27.3696 48.5431Z" fill="#E53028"/>
<path d="M24.5927 56.3906C24.5927 56.0552 24.8208 55.7637 25.1488 55.6937C25.8241 55.5491 26.9782 55.3329 27.8302 55.3329C28.6822 55.3329 29.8363 55.5491 30.5116 55.6937C30.8396 55.7637 31.0676 56.0552 31.0676 56.3906V61.3609C31.0676 61.8357 30.6211 62.1868 30.1555 62.0951C29.4762 61.961 28.5464 61.8081 27.8302 61.8081C27.114 61.8081 26.1842 61.961 25.5049 62.0951C25.0392 62.1868 24.5927 61.8357 24.5927 61.3609V56.3906Z" fill="#E8DDD3"/>
<path d="M24.1959 58.8445C24.1959 60.6729 24.002 62.1547 23.7628 62.1547C23.5237 62.1547 23.3297 60.6729 23.3297 58.8445C23.3297 57.016 23.5237 55.5342 23.7628 55.5342C24.002 55.5342 24.1959 57.016 24.1959 58.8445Z" fill="#D21111"/>
<path d="M24.1959 58.8445C24.1959 60.6729 24.002 62.1547 23.7628 62.1547H25.0875C25.3267 62.1547 25.5205 60.6729 25.5205 58.8445C25.5205 57.016 25.3267 55.5342 25.0875 55.5342H23.7628C24.002 55.5342 24.1959 57.016 24.1959 58.8445Z" fill="#FF0F0C"/>
<path d="M23.5223 61.3721C23.5223 61.56 23.4792 61.7128 23.426 61.7128C23.3728 61.7128 23.3297 61.56 23.3297 61.3721C23.3297 61.1835 23.3728 61.0315 23.426 61.0315C23.4792 61.0315 23.5223 61.1835 23.5223 61.3721Z" fill="#EDEDED"/>
<path d="M23.5223 61.3721C23.5223 61.56 23.4792 61.7128 23.426 61.7128H23.7204C23.7736 61.7128 23.8167 61.56 23.8167 61.3721C23.8167 61.1835 23.7736 61.0315 23.7204 61.0315H23.426C23.4792 61.0315 23.5223 61.1835 23.5223 61.3721Z" fill="#B5B5B5"/>
<path d="M23.5208 56.3116C23.5208 56.4995 23.4777 56.6523 23.4246 56.6523C23.3714 56.6523 23.3283 56.4995 23.3283 56.3116C23.3283 56.123 23.3714 55.971 23.4246 55.971C23.4777 55.971 23.5208 56.123 23.5208 56.3116Z" fill="#EDEDED"/>
<path d="M23.5208 56.3116C23.5208 56.4995 23.4777 56.6523 23.4246 56.6523H23.7189C23.7721 56.6523 23.8151 56.4995 23.8151 56.3116C23.8151 56.123 23.7721 55.971 23.7189 55.971H23.4246C23.4777 55.971 23.5208 56.123 23.5208 56.3116Z" fill="#B5B5B5"/>
<path d="M23.764 60.2511C23.764 60.4389 23.7209 60.5917 23.6677 60.5917C23.6146 60.5917 23.5715 60.4389 23.5715 60.2511C23.5715 60.0625 23.6146 59.9104 23.6677 59.9104C23.7209 59.9104 23.764 60.0625 23.764 60.2511Z" fill="#EDEDED"/>
<path d="M23.764 60.2511C23.764 60.4389 23.7209 60.5917 23.6677 60.5917H23.9621C24.0152 60.5917 24.0583 60.4389 24.0583 60.2511C24.0583 60.0625 24.0152 59.9104 23.9621 59.9104H23.6677C23.7209 59.9104 23.764 60.0625 23.764 60.2511Z" fill="#B5B5B5"/>
<path d="M23.764 58.8445C23.764 59.0331 23.7209 59.1851 23.6677 59.1851C23.6146 59.1851 23.5715 59.0331 23.5715 58.8445C23.5715 58.6567 23.6146 58.5038 23.6677 58.5038C23.7209 58.5038 23.764 58.6567 23.764 58.8445Z" fill="#EDEDED"/>
<path d="M23.764 58.8445C23.764 59.0331 23.7209 59.1851 23.6677 59.1851H23.9621C24.0152 59.1851 24.0583 59.0331 24.0583 58.8445C24.0583 58.6567 24.0152 58.5038 23.9621 58.5038H23.6677C23.7209 58.5038 23.764 58.6567 23.764 58.8445Z" fill="#B5B5B5"/>
<path d="M23.7632 57.4327C23.7632 57.6205 23.7201 57.7733 23.667 57.7733C23.6138 57.7733 23.5707 57.6205 23.5707 57.4327C23.5707 57.2441 23.6138 57.0913 23.667 57.0913C23.7201 57.0913 23.7632 57.2441 23.7632 57.4327Z" fill="#EDEDED"/>
<path d="M23.7632 57.4327C23.7632 57.6205 23.7201 57.7733 23.667 57.7733H23.9613C24.0145 57.7733 24.0575 57.6205 24.0575 57.4327C24.0575 57.2441 24.0145 57.0913 23.9613 57.0913H23.667C23.7201 57.0913 23.7632 57.2441 23.7632 57.4327Z" fill="#B5B5B5"/>
<path d="M30.5472 58.8445C30.5472 60.6729 30.7411 62.1547 30.9803 62.1547C31.2195 62.1547 31.4134 60.6729 31.4134 58.8445C31.4134 57.016 31.2195 55.5342 30.9803 55.5342C30.7411 55.5342 30.5472 57.016 30.5472 58.8445Z" fill="#D21111"/>
<path d="M30.5472 58.8445C30.5472 60.6729 30.7411 62.1547 30.9803 62.1547H29.6557C29.4165 62.1547 29.2226 60.6729 29.2226 58.8445C29.2226 57.016 29.4165 55.5342 29.6557 55.5342H30.9803C30.7411 55.5342 30.5472 57.016 30.5472 58.8445Z" fill="#FF0F0C"/>
<path d="M31.2238 61.3781C31.2238 61.5659 31.2669 61.7187 31.3201 61.7187C31.3732 61.7187 31.4163 61.5659 31.4163 61.3781C31.4163 61.1895 31.3732 61.0367 31.3201 61.0367C31.2669 61.0367 31.2238 61.1895 31.2238 61.3781Z" fill="#EDEDED"/>
<path d="M31.2239 61.3781C31.2239 61.5659 31.2669 61.7187 31.3201 61.7187H31.0257C30.9726 61.7187 30.9295 61.5659 30.9295 61.3781C30.9295 61.1895 30.9726 61.0367 31.0257 61.0367H31.3201C31.2669 61.0367 31.2239 61.1895 31.2239 61.3781Z" fill="#B5B5B5"/>
<path d="M31.2238 56.3175C31.2238 56.5054 31.2669 56.6582 31.3201 56.6582C31.3732 56.6582 31.4163 56.5054 31.4163 56.3175C31.4163 56.1289 31.3732 55.9761 31.3201 55.9761C31.2669 55.9761 31.2238 56.1289 31.2238 56.3175Z" fill="#EDEDED"/>
<path d="M31.2239 56.3175C31.2239 56.5054 31.2669 56.6582 31.3201 56.6582H31.0257C30.9726 56.6582 30.9295 56.5054 30.9295 56.3175C30.9295 56.1289 30.9726 55.9761 31.0257 55.9761H31.3201C31.2669 55.9761 31.2239 56.1289 31.2239 56.3175Z" fill="#B5B5B5"/>
<path d="M30.9785 60.2571C30.9785 60.4449 31.0216 60.5977 31.0748 60.5977C31.1279 60.5977 31.171 60.4449 31.171 60.2571C31.171 60.0685 31.1279 59.9164 31.0748 59.9164C31.0216 59.9164 30.9785 60.0685 30.9785 60.2571Z" fill="#EDEDED"/>
<path d="M30.9785 60.2571C30.9785 60.4449 31.0216 60.5977 31.0748 60.5977H30.7804C30.7273 60.5977 30.6841 60.4449 30.6841 60.2571C30.6841 60.0685 30.7273 59.9164 30.7804 59.9164H31.0748C31.0216 59.9164 30.9785 60.0685 30.9785 60.2571Z" fill="#B5B5B5"/>
<path d="M30.9792 58.8474C30.9792 59.036 31.0223 59.1881 31.0754 59.1881C31.1286 59.1881 31.1718 59.036 31.1718 58.8474C31.1718 58.6596 31.1286 58.5068 31.0754 58.5068C31.0223 58.5068 30.9792 58.6596 30.9792 58.8474Z" fill="#EDEDED"/>
<path d="M30.9792 58.8474C30.9792 59.036 31.0223 59.1881 31.0755 59.1881H30.7811C30.728 59.1881 30.6849 59.036 30.6849 58.8474C30.6849 58.6596 30.728 58.5068 30.7811 58.5068H31.0755C31.0223 58.5068 30.9792 58.6596 30.9792 58.8474Z" fill="#B5B5B5"/>
<path d="M30.9785 57.4356C30.9785 57.6235 31.0216 57.7763 31.0748 57.7763C31.1279 57.7763 31.171 57.6235 31.171 57.4356C31.171 57.2471 31.1279 57.0942 31.0748 57.0942C31.0216 57.0942 30.9785 57.2471 30.9785 57.4356Z" fill="#EDEDED"/>
<path d="M30.9785 57.4356C30.9785 57.6235 31.0216 57.7763 31.0748 57.7763H30.7804C30.7273 57.7763 30.6841 57.6235 30.6841 57.4356C30.6841 57.2471 30.7273 57.0942 30.7804 57.0942H31.0748C31.0216 57.0942 30.9785 57.2471 30.9785 57.4356Z" fill="#B5B5B5"/>
<path d="M29.0832 11.5582C29.0832 11.7318 28.3073 11.8719 27.3501 11.8719C26.3929 11.8719 25.6169 11.7318 25.6169 11.5582V12.8149C25.6169 12.9878 26.3929 13.1287 27.3501 13.1287C28.3073 13.1287 29.0832 12.9878 29.0832 12.8149V11.5582Z" fill="#B5B5B5"/>
<path d="M27.3501 11.8718C28.3073 11.8718 29.0832 11.7317 29.0832 11.558C29.0832 11.3844 28.3073 11.2442 27.3501 11.2442C26.3929 11.2442 25.6169 11.3844 25.6169 11.558C25.6169 11.7317 26.3929 11.8718 27.3501 11.8718Z" fill="#F2F2F2"/>
<path d="M28.448 10.7031C28.448 10.8149 27.9492 10.9051 27.3338 10.9051C26.7185 10.9051 26.2196 10.8149 26.2196 10.7031V11.5112C26.2196 11.623 26.7185 11.7132 27.3338 11.7132C27.9492 11.7132 28.448 11.623 28.448 11.5112V10.7031Z" fill="#B5B5B5"/>
<path d="M27.3338 10.9052C27.9492 10.9052 28.448 10.815 28.448 10.7032C28.448 10.5921 27.9492 10.502 27.3338 10.502C26.7185 10.502 26.2196 10.5921 26.2196 10.7032C26.2196 10.815 26.7185 10.9052 27.3338 10.9052Z" fill="#F2F2F2"/>
<path d="M27.6767 8.23663C27.6767 8.30223 27.5685 8.35588 27.3534 8.35588C27.1646 8.35588 27.03 8.30223 27.03 8.23663L26.6935 10.7337C26.6935 10.8 26.989 10.8537 27.3534 10.8537C27.7178 10.8537 28.0132 10.8 28.0132 10.7337L27.6767 8.23663Z" fill="#B5B5B5"/>
<path d="M27.3534 8.3559C27.5685 8.3559 27.6767 8.30225 27.6767 8.23665C27.6767 8.17031 27.5685 8.11664 27.3534 8.11664C27.1647 8.11664 27.0301 8.17031 27.0301 8.23665C27.0301 8.30225 27.1647 8.3559 27.3534 8.3559Z" fill="#F2F2F2"/>
<path d="M27.4418 8.69458C29.5793 8.69458 31.3121 6.96177 31.3121 4.82425C31.3121 2.68673 29.5793 0.953918 27.4418 0.953918C25.3043 0.953918 23.5714 2.68673 23.5714 4.82425C23.5714 6.96177 25.3043 8.69458 27.4418 8.69458Z" fill="#E0D7CF" stroke="black" stroke-width="0.194734"/>
<path d="M27.4457 5.38004C27.728 5.38004 27.9569 5.15118 27.9569 4.86885C27.9569 4.58652 27.728 4.35767 27.4457 4.35767C27.1634 4.35767 26.9345 4.58652 26.9345 4.86885C26.9345 5.15118 27.1634 5.38004 27.4457 5.38004Z" fill="black"/>
<path d="M27.6209 5.87964L26.6935 1.90076L27.735 5.85134C27.7446 5.88712 27.7183 5.9229 27.6808 5.92513C27.6525 5.92588 27.6273 5.90722 27.6209 5.87964Z" fill="black" stroke="black" stroke-width="0.0973672" stroke-linecap="round" stroke-linejoin="round"/>
</svg>
