<svg width="61" height="61" viewBox="0 0 61 61" fill="none" xmlns="http://www.w3.org/2000/svg">
<rect x="0.790527" y="0.398438" width="60" height="60" rx="13.33" fill="#E1EFFE"/>
<path d="M32.9603 30.9596H28.1824L24.3315 23.8817L20.5129 30.9596H15.7368L22.4565 21.0449L16.0125 11.6526L20.9122 11.623L24.3315 18.2286L27.7564 11.623H32.7088L26.2654 21.0159L32.9603 30.9596Z" fill="#0579F7"/>
<path d="M36.9336 11.624H45.1358V15.7251H36.9336V11.624Z" fill="#0579F7"/>
<path d="M36.9332 19.2423H45.1353V23.3434H36.9332V19.2423Z" fill="#0579F7"/>
<path d="M36.9322 26.8598H45.1343V30.9609H36.9322V26.8598Z" fill="#0579F7"/>
<path d="M36.935 34.4773H45.1372V38.5784H36.935V34.4773Z" fill="#0579F7"/>
<path d="M26.335 34.4799H34.5372V38.581H26.335V34.4799Z" fill="#0579F7"/>
<path d="M15.7368 34.4799H23.939V38.581H15.7368V34.4799Z" fill="#0579F7"/>
<path d="M25.3503 48.0518H21.9632V43.1083H25.3503V43.8717H22.8304V45.1539H25.2984V45.9173H22.8304V47.2884H25.3503V48.0518ZM29.3535 48.0518H28.479L27.5526 46.7325L26.6187 48.0518H25.7516L27.0634 46.2137L25.8257 44.472H26.7002L27.5526 45.6875L28.3975 44.472H29.272L28.0343 46.2137L29.3535 48.0518ZM31.2652 48.1407C30.7217 48.1407 30.277 47.9653 29.9312 47.6145C29.5853 47.2587 29.4124 46.8066 29.4124 46.2582C29.4124 45.7147 29.5853 45.2675 29.9312 44.9167C30.277 44.561 30.7217 44.3831 31.2652 44.3831C31.8631 44.3831 32.3201 44.5956 32.6364 45.0205L32.125 45.4948C31.9273 45.2132 31.6531 45.0724 31.3023 45.0724C30.9762 45.0724 30.7143 45.1835 30.5167 45.4059C30.319 45.6233 30.2202 45.9074 30.2202 46.2582C30.2202 46.609 30.319 46.8956 30.5167 47.1179C30.7143 47.3403 30.9762 47.4514 31.3023 47.4514C31.6432 47.4514 31.9174 47.3106 32.125 47.029L32.6364 47.5033C32.3201 47.9282 31.8631 48.1407 31.2652 48.1407ZM34.9715 48.1407C34.428 48.1407 33.9783 47.9678 33.6226 47.6219C33.2718 47.2711 33.0964 46.8165 33.0964 46.2582C33.0964 45.7344 33.2668 45.2922 33.6078 44.9315C33.9536 44.5659 34.3884 44.3831 34.9122 44.3831C35.4409 44.3831 35.8658 44.5659 36.187 44.9315C36.5131 45.2972 36.6761 45.7641 36.6761 46.3323V46.5176H33.9116C33.9413 46.7992 34.0574 47.0339 34.26 47.2217C34.4626 47.4094 34.7269 47.5033 35.053 47.5033C35.2358 47.5033 35.4186 47.4687 35.6015 47.3995C35.7892 47.3304 35.9449 47.234 36.0684 47.1105L36.4241 47.6219C36.0634 47.9678 35.5792 48.1407 34.9715 48.1407ZM35.9201 45.9691C35.9103 45.7221 35.8189 45.5022 35.6459 45.3095C35.4779 45.1168 35.2334 45.0205 34.9122 45.0205C34.6058 45.0205 34.3662 45.1168 34.1933 45.3095C34.0203 45.4973 33.924 45.7172 33.9042 45.9691H35.9201ZM38.2224 48.0518H37.4442V43.1083H38.2224V48.0518Z" fill="#0579F7"/>
</svg>
