<svg width="133" height="133" viewBox="0 0 133 133" fill="none" xmlns="http://www.w3.org/2000/svg">
<g clip-path="url(#clip0_23_337)">
<path d="M0.555542 87.8917L77.1703 132.724L131.076 100.377L53.3353 55.5448L0.555542 87.8917Z" fill="#A6A6A6" fill-opacity="0.43"/>
<path d="M53.3353 55.5448L131.076 100.377L132.782 45.8973L53.3353 0.497498V55.5448Z" fill="#858585"/>
<path d="M104.486 91.8789C105.057 94.2838 104.153 96.5623 102.455 96.9684C100.758 97.3736 98.9151 95.7536 98.335 93.3488C97.7634 90.944 98.6763 88.6654 100.374 88.2602C102.071 87.8541 103.914 89.475 104.486 91.8789Z" fill="#A1A4AC"/>
<path d="M104.486 91.8781C104.921 93.7054 104.503 95.4594 103.53 96.3747L115.379 89.5441C116.258 89.0374 117.316 88.7482 117.981 87.9821C118.809 87.025 119.142 85.3896 118.741 83.692C118.331 81.9901 117.29 80.6807 116.113 80.2046C115.175 79.8267 114.177 80.3275 113.307 80.8299L100.374 88.2594C102.072 87.8533 103.914 89.4742 104.486 91.8781Z" fill="url(#paint0_linear_23_337)"/>
<path d="M109.519 84.4845C109.519 86.3655 106.977 87.89 103.837 87.89C100.707 87.89 98.1646 86.3655 98.1646 84.4845V96.9701C98.1646 98.8503 100.707 100.375 103.837 100.375C106.977 100.375 109.519 98.8503 109.519 96.9701V84.4845Z" fill="url(#paint1_linear_23_337)"/>
<path d="M109.519 84.4845C109.519 86.3655 106.977 87.8899 103.837 87.8899C100.707 87.8899 98.1646 86.3655 98.1646 84.4845C98.1646 82.6043 100.707 81.0798 103.837 81.0798C106.977 81.0798 109.519 82.6043 109.519 84.4845Z" fill="#A6ADBD"/>
<path d="M89.7276 99.8271C90.3077 102.232 89.3949 104.51 87.6972 104.916C85.9996 105.322 84.1569 103.701 83.5854 101.296C83.0053 98.8921 83.9181 96.6135 85.6157 96.2075C87.3133 95.8014 89.156 97.4223 89.7276 99.8271Z" fill="#A1A4AC"/>
<path d="M89.7276 99.8262C90.1626 101.653 89.7446 103.407 88.7721 104.322L100.621 97.4913C101.5 96.9854 102.558 96.6962 103.223 95.9302C104.051 94.973 104.392 93.3377 103.982 91.6392C103.573 89.9373 102.532 88.6287 101.355 88.1527C100.425 87.7739 99.427 88.2747 98.5483 88.7771L85.6157 96.2066C87.3133 95.8005 89.156 97.4214 89.7276 99.8262Z" fill="url(#paint2_linear_23_337)"/>
<path d="M91.357 103.785C91.357 107.546 85.7609 110.595 78.868 110.595C71.9752 110.595 66.3875 107.546 66.3875 103.785V106.764C66.3875 110.525 71.9752 113.574 78.868 113.574C85.7609 113.574 91.357 110.525 91.357 106.764V103.785Z" fill="#565D70"/>
<path d="M91.357 103.785C91.357 107.546 85.7609 110.595 78.868 110.595C71.9752 110.595 66.3875 107.546 66.3875 103.785C66.3875 100.024 71.9752 96.9752 78.868 96.9752C85.7609 96.9752 91.357 100.024 91.357 103.785Z" fill="#C6C6C6"/>
<path d="M91.357 100.379C91.357 104.14 85.7609 107.189 78.868 107.189C71.9752 107.189 66.3875 104.14 66.3875 100.379V103.359C66.3875 107.12 71.9752 110.169 78.868 110.169C85.7609 110.169 91.357 107.12 91.357 103.359V100.379Z" fill="#565D70"/>
<path d="M91.357 100.379C91.357 104.14 85.7609 107.189 78.868 107.189C71.9752 107.189 66.3875 104.14 66.3875 100.379C66.3875 96.6187 71.9752 93.5698 78.868 93.5698C85.7609 93.5698 91.357 96.6187 91.357 100.379Z" fill="#C6C6C6"/>
<path d="M70.3541 79.3839C65.6537 81.189 61.849 86.734 61.849 91.7697C61.849 94.6062 63.0518 96.6757 64.9542 97.6201L67.7694 99.0993C66.2168 98.0441 65.2528 96.1229 65.2528 93.5918C65.2528 92.2261 65.5343 90.8228 66.0291 89.4672C66.3789 88.5331 66.8309 87.6212 67.3684 86.7595C68.9295 84.2609 71.2157 82.1845 73.7664 81.206C75.6773 80.4707 77.4518 80.4698 78.8679 81.0687L75.7627 79.3839C74.2954 78.6519 72.41 78.5956 70.3541 79.3839Z" fill="#A8AEBB"/>
<path d="M65.2528 93.5919C65.2528 96.123 66.2168 98.0441 67.7694 99.0994C69.177 100.058 71.0793 100.302 73.195 99.6402L73.7665 92.8395C72.7939 92.953 72.0603 92.2884 72.0603 91.1965C72.0603 91.0327 72.0774 90.8663 72.1115 90.7008L66.0291 89.4673C65.5343 90.8228 65.2528 92.2261 65.2528 93.5919Z" fill="#A8AEBB"/>
<path fill-rule="evenodd" clip-rule="evenodd" d="M75.1229 98.8025C79.1836 96.5478 82.2717 91.5957 82.2717 87.0565C82.2717 84.8871 81.5721 83.1665 80.3863 82.0549L76.2233 88.9836C76.3086 89.2028 76.3598 89.4553 76.3598 89.7377C76.3598 90.6445 75.8566 91.5991 75.1229 92.2099V98.8025ZM73.195 99.6402C71.0793 100.302 69.177 100.058 67.7694 99.0994C66.2168 98.0441 65.2528 96.123 65.2528 93.5919C65.2528 92.2261 65.5343 90.8228 66.0291 89.4673L72.1115 90.7008C72.0774 90.8663 72.0603 91.0327 72.0603 91.1965C72.0603 92.2884 72.7939 92.9529 73.7665 92.8395L73.195 99.6402ZM67.3684 86.7596L72.6319 89.4673C73.0243 88.8829 73.5873 88.4094 74.2101 88.197C74.5342 88.0861 74.8499 88.058 75.1229 88.1023L78.8679 81.0687C77.4518 80.4699 75.6773 80.4707 73.7665 81.2061C71.2158 82.1846 68.9295 84.2609 67.3684 86.7596Z" fill="#4E5B7B"/>
<path d="M75.1229 88.1024C74.8499 88.058 74.5342 88.0862 74.2101 88.1971C73.5873 88.4095 73.0243 88.883 72.6319 89.4673L67.3684 86.7596C66.8309 87.6213 66.3789 88.5332 66.0291 89.4673L72.1115 90.7009C72.0774 90.8664 72.0603 91.0327 72.0603 91.1965C72.0603 92.2884 72.7939 92.953 73.7664 92.8395L73.195 99.6402C73.3826 99.5814 73.5702 99.5157 73.7664 99.4423C74.2271 99.2649 74.6793 99.0499 75.1229 98.8025V92.2099C75.8566 91.5991 76.3598 90.6445 76.3598 89.7377C76.3598 89.4554 76.3086 89.2029 76.2233 88.9836L80.3863 82.0549C79.9427 81.6378 79.431 81.3059 78.8679 81.0688L75.1229 88.1024Z" fill="#A8AEBB"/>
<path d="M83.9778 80.5177C79.2774 82.322 75.4642 87.867 75.4642 92.9027C75.4642 95.7392 76.6754 97.8087 78.5693 98.7531L81.393 100.232C79.8319 99.177 78.8679 97.2568 78.8679 94.7248C78.8679 93.3591 79.1494 91.9566 79.6527 90.6002C80.0025 89.6661 80.4546 88.7542 80.9921 87.8925C82.5532 85.3939 84.8394 83.3175 87.3816 82.3399C89.301 81.6037 91.0669 81.6037 92.4915 82.2017L89.3863 80.5177C87.919 79.7849 86.0338 79.7295 83.9778 80.5177Z" fill="#A8AEBB"/>
<path d="M78.8679 94.7248C78.8679 97.2567 79.8319 99.177 81.393 100.232C82.8006 101.191 84.7029 101.435 86.8185 100.773L87.3816 93.9724C86.4091 94.0858 85.684 93.4213 85.684 92.3293C85.684 92.1656 85.701 91.9992 85.7266 91.8337L79.6527 90.6002C79.1494 91.9565 78.8679 93.359 78.8679 94.7248Z" fill="#A8AEBB"/>
<path fill-rule="evenodd" clip-rule="evenodd" d="M88.7465 99.9362C92.7986 97.6807 95.8953 92.7286 95.8953 88.1902C95.8953 86.0208 95.1873 84.2993 94.01 83.1878L89.847 90.1164C89.9323 90.3357 89.9834 90.589 89.9834 90.8706C89.9834 91.7782 89.4801 92.732 88.7465 93.3428V99.9362ZM86.8185 100.773C84.7029 101.435 82.8006 101.191 81.393 100.232C79.8319 99.177 78.8679 97.2567 78.8679 94.7248C78.8679 93.359 79.1494 91.9565 79.6527 90.6002L85.7266 91.8337C85.701 91.9992 85.684 92.1656 85.684 92.3293C85.684 93.4213 86.4091 94.0858 87.3816 93.9724L86.8185 100.773ZM80.9921 87.8925L86.2469 90.6002C86.6394 90.0158 87.2025 89.5423 87.8338 89.3299C88.1579 89.219 88.465 89.1909 88.7465 89.2352L92.4915 82.2016C91.0669 81.6036 89.301 81.6036 87.3816 82.3398C84.8394 83.3174 82.5532 85.3938 80.9921 87.8925Z" fill="#4E5B7B"/>
<path d="M88.7465 89.2353C88.465 89.1909 88.1579 89.219 87.8337 89.3299C87.2025 89.5424 86.6394 90.0158 86.2469 90.6002L80.9921 87.8925C80.4546 88.7541 80.0024 89.6661 79.6527 90.6002L85.7266 91.8337C85.701 91.9992 85.684 92.1656 85.684 92.3294C85.684 93.4213 86.4091 94.0859 87.3816 93.9724L86.8185 100.773C87.0062 100.715 87.1939 100.649 87.3816 100.575C87.8508 100.398 88.3029 100.183 88.7465 99.9362V93.3428C89.4801 92.732 89.9834 91.7783 89.9834 90.8706C89.9834 90.5891 89.9323 90.3357 89.847 90.1165L94.01 83.1878C93.5664 82.7707 93.0545 82.4388 92.4915 82.2017L88.7465 89.2353Z" fill="#A8AEBB"/>
<path d="M71.5741 68.0466C72.1457 70.4514 71.233 72.7291 69.5354 73.1352C67.8377 73.5412 65.9951 71.9204 65.4236 69.5156C64.852 67.1116 65.7562 64.833 67.4538 64.427C69.1514 64.0218 70.994 65.6418 71.5741 68.0466Z" fill="#A1A4AC"/>
<path d="M71.5742 68.0457C72.0093 69.8722 71.5827 71.6261 70.6187 72.5414L82.468 65.7109C83.3466 65.205 84.4045 64.9158 85.0614 64.1497C85.8974 63.1926 86.23 61.5572 85.8205 59.8588C85.4196 58.1569 84.3703 56.8483 83.2016 56.3722C82.2632 55.9935 81.2651 56.4942 80.3864 56.9967L67.4539 64.4261C69.1515 64.0209 70.9941 65.6409 71.5742 68.0457Z" fill="url(#paint3_linear_23_337)"/>
<path d="M76.5987 60.6521C76.5987 62.5323 74.0565 64.0567 70.9257 64.0567C67.7864 64.0567 65.2528 62.5323 65.2528 60.6521V73.1368C65.2528 75.017 67.7864 76.5415 70.9257 76.5415C74.0565 76.5415 76.5987 75.017 76.5987 73.1368V60.6521Z" fill="url(#paint4_linear_23_337)"/>
<path d="M76.5987 60.6521C76.5987 62.5322 74.0565 64.0567 70.9257 64.0567C67.7864 64.0567 65.2528 62.5322 65.2528 60.6521C65.2528 58.771 67.7864 57.2466 70.9257 57.2466C74.0565 57.2466 76.5987 58.771 76.5987 60.6521Z" fill="#A6ADBD"/>
<path d="M56.8158 75.987C57.3874 78.3918 56.4831 80.6704 54.7855 81.0764C53.0879 81.4816 51.2453 79.8616 50.6652 77.4568C50.0936 75.052 51.0064 72.7743 52.704 72.3682C54.4016 71.9622 56.2357 73.583 56.8158 75.987Z" fill="#A1A4AC"/>
<path d="M56.8158 75.9861C57.2509 77.8134 56.8329 79.5674 55.8604 80.4827L67.7096 73.6521C68.5883 73.1454 69.6462 72.8562 70.3116 72.0902C71.139 71.133 71.4718 69.4977 71.0708 67.8001C70.6613 66.0982 69.6205 64.7887 68.4433 64.3127C67.5049 63.9348 66.5069 64.4355 65.6367 64.938L52.7041 72.3674C54.4017 71.9613 56.2358 73.5822 56.8158 75.9861Z" fill="url(#paint5_linear_23_337)"/>
<path d="M58.4367 79.9487C58.4367 83.7099 52.849 86.7588 45.9562 86.7588C39.0634 86.7588 33.4672 83.7099 33.4672 79.9487V82.9284C33.4672 86.6888 39.0634 89.7377 45.9562 89.7377C52.849 89.7377 58.4367 86.6888 58.4367 82.9284V79.9487Z" fill="#565D70"/>
<path d="M58.4367 79.9487C58.4367 83.7099 52.849 86.7588 45.9562 86.7588C39.0634 86.7588 33.4672 83.7099 33.4672 79.9487C33.4672 76.1874 39.0634 73.1385 45.9562 73.1385C52.849 73.1385 58.4367 76.1874 58.4367 79.9487Z" fill="#C6C6C6"/>
<path d="M58.4367 76.5398C58.4367 80.301 52.849 83.3499 45.9562 83.3499C39.0634 83.3499 33.4672 80.301 33.4672 76.5398V79.5196C33.4672 83.2799 39.0634 86.3288 45.9562 86.3288C52.849 86.3288 58.4367 83.2799 58.4367 79.5196V76.5398Z" fill="#565D70"/>
<path d="M58.4367 76.5398C58.4367 80.301 52.849 83.3499 45.9562 83.3499C39.0634 83.3499 33.4672 80.301 33.4672 76.5398C33.4672 72.7786 39.0634 69.7297 45.9562 69.7297C52.849 69.7297 58.4367 72.7786 58.4367 76.5398Z" fill="#C6C6C6"/>
<path d="M37.4426 55.5482C32.7422 57.3524 28.929 62.8983 28.929 67.934C28.929 70.7704 30.1403 72.84 32.0342 73.7844L34.8492 75.2627C33.2967 74.2083 32.3327 72.2872 32.3327 69.7561C32.3327 68.3904 32.6143 66.987 33.1176 65.6315C33.4673 64.6965 33.9194 63.7846 34.4569 62.923C36.018 60.4243 38.3042 58.348 40.8464 57.3703C42.7658 56.635 44.5317 56.6341 45.9563 57.233L42.8511 55.5482C41.3838 54.8154 39.4985 54.7599 37.4426 55.5482Z" fill="#A8AEBB"/>
<path d="M32.3326 69.7562C32.3326 72.2872 33.2965 74.2084 34.8491 75.2628C36.2652 76.2225 38.1676 76.4665 40.2832 75.8045L40.8463 69.0037C39.8738 69.1163 39.1487 68.4527 39.1487 67.3607C39.1487 67.1961 39.1658 67.0306 39.1914 66.8651L33.1175 65.6315C32.6142 66.9871 32.3326 68.3904 32.3326 69.7562Z" fill="#A8AEBB"/>
<path fill-rule="evenodd" clip-rule="evenodd" d="M42.2112 74.9667C46.2633 72.712 49.36 67.759 49.36 63.2207C49.36 61.0513 48.6519 59.3306 47.4747 58.2182L43.3031 65.1478C43.397 65.3662 43.4482 65.6195 43.4482 65.901C43.4482 66.8087 42.9363 67.7633 42.2112 68.3741V74.9667ZM40.2832 75.8044C38.1676 76.4664 36.2652 76.2224 34.8491 75.2627C33.2965 74.2083 32.3326 72.2872 32.3326 69.7561C32.3326 68.3903 32.6142 66.987 33.1175 65.6315L39.1914 66.865C39.1658 67.0305 39.1487 67.196 39.1487 67.3606C39.1487 68.4526 39.8738 69.1163 40.8463 69.0037L40.2832 75.8044ZM34.4568 62.9229L39.7117 65.6315C40.1041 65.0471 40.6672 64.5737 41.2984 64.3612C41.6226 64.2495 41.9297 64.2213 42.2112 64.2657L45.9562 57.2329C44.5316 56.6341 42.7657 56.6349 40.8463 57.3703C38.3041 58.3479 36.0179 60.4243 34.4568 62.9229Z" fill="#4E5B7B"/>
<path d="M42.2113 64.2657C41.9298 64.2214 41.6227 64.2495 41.2986 64.3613C40.6673 64.5737 40.1043 65.0471 39.7118 65.6315L34.4569 62.923C33.9194 63.7846 33.4674 64.6965 33.1176 65.6315L39.1915 66.8651C39.1659 67.0306 39.1488 67.196 39.1488 67.3607C39.1488 68.4526 39.8739 69.1163 40.8464 69.0037L40.2833 75.8044C40.471 75.7456 40.6587 75.6799 40.8464 75.6065C41.3156 75.4282 41.7677 75.2141 42.2113 74.9667V68.3741C42.9364 67.7633 43.4483 66.8088 43.4483 65.9011C43.4483 65.6196 43.3971 65.3662 43.3033 65.1478L47.4748 58.2183C47.0312 57.8011 46.5193 57.4701 45.9563 57.233L42.2113 64.2657Z" fill="#A8AEBB"/>
<path d="M51.0661 56.6845C46.3657 58.4887 42.5524 64.0346 42.5524 69.0703C42.5524 71.9067 43.7638 73.9763 45.6577 74.9206L48.4728 76.3999C46.9202 75.3446 45.9562 73.4235 45.9562 70.8924C45.9562 69.5267 46.2378 68.1233 46.7411 66.7678C47.0823 65.8328 47.5344 64.9209 48.0718 64.0593C49.6329 61.5606 51.9192 59.4843 54.4699 58.5066C56.3808 57.7713 58.1552 57.7704 59.5798 58.3693L56.4747 56.6845C54.9989 55.9517 53.1135 55.8962 51.0661 56.6845Z" fill="#A8AEBB"/>
<path d="M45.9562 70.8924C45.9562 73.4235 46.9202 75.3446 48.4728 76.3998C49.8889 77.3587 51.7913 77.6027 53.8984 76.9407L54.4699 70.14C53.4974 70.2526 52.7637 69.5889 52.7637 68.497C52.7637 68.3323 52.7808 68.1668 52.815 68.0013L46.7411 66.7678C46.2378 68.1233 45.9562 69.5266 45.9562 70.8924Z" fill="#A8AEBB"/>
<path fill-rule="evenodd" clip-rule="evenodd" d="M55.8349 76.103C59.887 73.8484 62.9837 68.8954 62.9837 64.357C62.9837 62.1877 62.2755 60.467 61.0898 59.3546L56.9267 66.2841C57.0206 66.5025 57.0633 66.7559 57.0633 67.0374C57.0633 67.9451 56.56 68.8996 55.8349 69.5104V76.103ZM53.8984 76.9407C51.7913 77.6027 49.8889 77.3587 48.4728 76.3999C46.9202 75.3446 45.9562 73.4235 45.9562 70.8924C45.9562 69.5267 46.2378 68.1233 46.7411 66.7678L52.815 68.0014C52.7808 68.1669 52.7637 68.3324 52.7637 68.497C52.7637 69.5889 53.4974 70.2526 54.4699 70.14L53.8984 76.9407ZM48.0718 64.0593L53.3353 66.7678C53.7277 66.1834 54.2908 65.71 54.9135 65.4976C55.2462 65.3858 55.5534 65.3577 55.8349 65.402L59.5798 58.3693C58.1552 57.7704 56.3808 57.7713 54.4699 58.5066C51.9192 59.4843 49.6329 61.5606 48.0718 64.0593Z" fill="#4E5B7B"/>
<path d="M55.8349 65.402C55.5534 65.3577 55.2462 65.3858 54.9135 65.4976C54.2908 65.71 53.7277 66.1834 53.3353 66.7678L48.0718 64.0593C47.5344 64.9209 47.0823 65.8328 46.7411 66.7678L52.815 68.0014C52.7808 68.1668 52.7637 68.3323 52.7637 68.497C52.7637 69.5889 53.4974 70.2526 54.4699 70.14L53.8984 76.9407C54.0861 76.8819 54.2737 76.8162 54.4699 76.7428C54.9305 76.5645 55.3913 76.3504 55.8349 76.103V69.5104C56.56 68.8996 57.0633 67.945 57.0633 67.0374C57.0633 66.7559 57.0206 66.5025 56.9267 66.2841L61.0898 59.3546C60.6462 58.9374 60.1428 58.6064 59.5798 58.3693L55.8349 65.402Z" fill="#A8AEBB"/>
</g>
<defs>
<linearGradient id="paint0_linear_23_337" x1="105.458" y1="85.6191" x2="110.995" y2="94.8366" gradientUnits="userSpaceOnUse">
<stop stop-color="#9098AC"/>
<stop offset="0.286458" stop-color="#DAE2F8"/>
<stop offset="1" stop-color="#333A4D"/>
</linearGradient>
<linearGradient id="paint1_linear_23_337" x1="97.03" y1="83.9172" x2="113.665" y2="84.1697" gradientUnits="userSpaceOnUse">
<stop stop-color="#9098AC"/>
<stop offset="0.286458" stop-color="#DAE2F8"/>
<stop offset="1" stop-color="#333A4D"/>
</linearGradient>
<linearGradient id="paint2_linear_23_337" x1="90.7085" y1="93.5672" x2="96.2365" y2="102.784" gradientUnits="userSpaceOnUse">
<stop stop-color="#9098AC"/>
<stop offset="0.286458" stop-color="#DAE2F8"/>
<stop offset="1" stop-color="#333A4D"/>
</linearGradient>
<linearGradient id="paint3_linear_23_337" x1="72.5467" y1="61.7867" x2="78.0747" y2="71.0033" gradientUnits="userSpaceOnUse">
<stop stop-color="#9098AC"/>
<stop offset="0.286458" stop-color="#DAE2F8"/>
<stop offset="1" stop-color="#333A4D"/>
</linearGradient>
<linearGradient id="paint4_linear_23_337" x1="64.1182" y1="60.0848" x2="80.7532" y2="60.3373" gradientUnits="userSpaceOnUse">
<stop stop-color="#9098AC"/>
<stop offset="0.286458" stop-color="#DAE2F8"/>
<stop offset="1" stop-color="#333A4D"/>
</linearGradient>
<linearGradient id="paint5_linear_23_337" x1="57.7884" y1="69.728" x2="63.3249" y2="78.9446" gradientUnits="userSpaceOnUse">
<stop stop-color="#9098AC"/>
<stop offset="0.286458" stop-color="#DAE2F8"/>
<stop offset="1" stop-color="#333A4D"/>
</linearGradient>
<clipPath id="clip0_23_337">
<rect width="133" height="133" fill="white"/>
</clipPath>
</defs>
</svg>
