<svg xmlns="http://www.w3.org/2000/svg" viewBox="0 0 64 64"><g data-name="Pressure Gauge"><rect width="12" height="13" x="26" y="20" fill="#898890"/><rect width="46" height="22" x="9" y="30" fill="#e0e0e2"/><rect width="46" height="12" x="9" y="35" fill="#d8d7da"/><circle cx="32" cy="41" r="15" fill="#ffeb99"/><path fill="#bdfdff" d="M21,41a11,11,0,0,1,22,0Z"/><rect width="30" height="4" x="17" y="8" fill="#898890"/><rect width="4" height="8" x="30" y="12" fill="#e0e0e2"/><rect width="6" height="30" x="3" y="26" fill="#898890"/><polygon fill="#898890" points="55 52 55 47 55 35 55 30 55 26 61 26 61 56 55 56 55 52"/><rect width="2" height="8" x="31" y="12" fill="#c6c5ca"/><path fill="#d80027" d="M35,47a3,3,0,0,1-6,0,2.964,2.964,0,0,1,1.05-2.26L32,34l1.95,10.74A2.964,2.964,0,0,1,35,47Z"/><path d="M32,29A12.013,12.013,0,0,0,20,41a1,1,0,0,0,1,1h3V40H22.05a9.873,9.873,0,0,1,.843-3.1l.813.469,1-1.732-.812-.469a10.074,10.074,0,0,1,2.271-2.272l.469.813,1.732-1-.469-.813a9.87,9.87,0,0,1,3.1-.841V32h2v-.948a9.87,9.87,0,0,1,3.1.841l-.469.813,1.732,1,.469-.813a10.074,10.074,0,0,1,2.271,2.272l-.812.469,1,1.732.813-.469A9.865,9.865,0,0,1,41.95,40H40v2h3a1,1,0,0,0,1-1A12.013,12.013,0,0,0,32,29Z"/><path d="M34.879,44.24l-1.9-10.419a1,1,0,0,0-1.966,0l-1.9,10.419A4.005,4.005,0,0,0,28.146,46H22v2h6.142a3.981,3.981,0,0,0,7.716,0H42V46H35.854A4.005,4.005,0,0,0,34.879,44.24ZM32,49a2,2,0,0,1-2-2,1.971,1.971,0,0,1,.7-1.505.993.993,0,0,0,.328-.577L32,39.589l.97,5.329a.993.993,0,0,0,.328.577A1.971,1.971,0,0,1,34,47,2,2,0,0,1,32,49Z"/><path d="M61,25H55a1,1,0,0,0-1,1v3H42.547A16.038,16.038,0,0,0,39,26.635V20a1,1,0,0,0-1-1H35V13H47a1,1,0,0,0,1-1V8a1,1,0,0,0-1-1H17a1,1,0,0,0-1,1v4a1,1,0,0,0,1,1H29v6H26a1,1,0,0,0-1,1v6.635A16.015,16.015,0,0,0,21.453,29H10V26a1,1,0,0,0-1-1H3a1,1,0,0,0-1,1V56a1,1,0,0,0,1,1H9a1,1,0,0,0,1-1V53H21.453a15.9,15.9,0,0,0,21.094,0H54v3a1,1,0,0,0,1,1h6a1,1,0,0,0,1-1V26A1,1,0,0,0,61,25ZM18,9H46v2H18Zm13,4h2v6H31ZM27,24h6V22H27V21H37v1H35v2h2v1.811a15.819,15.819,0,0,0-10,0ZM8,55H4V27H8Zm2-7h3V46H10V36h3V34H10V31h9.53a15.929,15.929,0,0,0,0,20H10Zm22,7A14,14,0,1,1,46,41,14.015,14.015,0,0,1,32,55Zm12.47-4a15.929,15.929,0,0,0,0-20H54v3H51v2h3V46H51v2h3v3ZM60,55H56V27h4Z"/><rect width="2" height="2" x="57" y="28"/><rect width="2" height="2" x="57" y="32"/><rect width="2" height="2" x="57" y="36"/><rect width="2" height="2" x="57" y="40"/><rect width="2" height="2" x="57" y="44"/><rect width="2" height="2" x="57" y="48"/><rect width="2" height="2" x="57" y="52"/><rect width="2" height="2" x="5" y="28"/><rect width="2" height="2" x="5" y="32"/><rect width="2" height="2" x="5" y="36"/><rect width="2" height="2" x="5" y="40"/><rect width="2" height="2" x="5" y="44"/><rect width="2" height="2" x="5" y="48"/><rect width="2" height="2" x="5" y="52"/></g></svg>