<svg xmlns="http://www.w3.org/2000/svg" viewBox="0 0 64 64"><g data-name="Pressure Gauge"><path fill="#78b9eb" d="M17 13H47a1 1 0 0 0 1-1V8a1 1 0 0 0-1-1H17a1 1 0 0 0-1 1v4A1 1 0 0 0 17 13zm1-4H46v2H18zM9 30V26H3V56H9V52H21.82a14.962 14.962 0 0 1 0-22zM32 34L30.05 44.74A2.964 2.964 0 0 0 29 47a3 3 0 0 0 6 0 2.964 2.964 0 0 0-1.05-2.26zM30 20H26v7l.1.21a14.989 14.989 0 0 1 11.8 0L38 27V20H30zM55 26v4H42.18a14.962 14.962 0 0 1 0 22H55v4h6V26z"/><path fill="#006df0" d="M32,29A12.013,12.013,0,0,0,20,41a1,1,0,0,0,1,1h3V40H22.05a9.873,9.873,0,0,1,.843-3.1l.813.469,1-1.732-.812-.469a10.074,10.074,0,0,1,2.271-2.272l.469.813,1.732-1-.469-.813a9.87,9.87,0,0,1,3.1-.841V32h2v-.948a9.87,9.87,0,0,1,3.1.841l-.469.813,1.732,1,.469-.813a10.074,10.074,0,0,1,2.271,2.272l-.812.469,1,1.732.813-.469A9.865,9.865,0,0,1,41.95,40H40v2h3a1,1,0,0,0,1-1A12.013,12.013,0,0,0,32,29Z"/><path fill="#006df0" d="M34.879,44.24l-1.9-10.419a1,1,0,0,0-1.966,0l-1.9,10.419A4.005,4.005,0,0,0,28.146,46H22v2h6.142a3.981,3.981,0,0,0,7.716,0H42V46H35.854A4.005,4.005,0,0,0,34.879,44.24ZM32,49a2,2,0,0,1-2-2,1.971,1.971,0,0,1,.7-1.505.993.993,0,0,0,.328-.577L32,39.589l.97,5.329a.993.993,0,0,0,.328.577A1.971,1.971,0,0,1,34,47,2,2,0,0,1,32,49Z"/><path fill="#006df0" d="M61,25H55a1,1,0,0,0-1,1v3H42.547A16.038,16.038,0,0,0,39,26.635V20a1,1,0,0,0-1-1H35V13H47a1,1,0,0,0,1-1V8a1,1,0,0,0-1-1H17a1,1,0,0,0-1,1v4a1,1,0,0,0,1,1H29v6H26a1,1,0,0,0-1,1v6.635A16.015,16.015,0,0,0,21.453,29H10V26a1,1,0,0,0-1-1H3a1,1,0,0,0-1,1V56a1,1,0,0,0,1,1H9a1,1,0,0,0,1-1V53H21.453a15.9,15.9,0,0,0,21.094,0H54v3a1,1,0,0,0,1,1h6a1,1,0,0,0,1-1V26A1,1,0,0,0,61,25ZM18,9H46v2H18Zm13,4h2v6H31ZM27,24h6V22H27V21H37v1H35v2h2v1.811a15.819,15.819,0,0,0-10,0ZM8,55H4V27H8Zm2-7h3V46H10V36h3V34H10V31h9.53a15.929,15.929,0,0,0,0,20H10Zm22,7A14,14,0,1,1,46,41,14.015,14.015,0,0,1,32,55Zm12.47-4a15.929,15.929,0,0,0,0-20H54v3H51v2h3V46H51v2h3v3ZM60,55H56V27h4Z"/><rect width="2" height="2" x="57" y="28" fill="#006df0"/><rect width="2" height="2" x="57" y="32" fill="#006df0"/><rect width="2" height="2" x="57" y="36" fill="#006df0"/><rect width="2" height="2" x="57" y="40" fill="#006df0"/><rect width="2" height="2" x="57" y="44" fill="#006df0"/><rect width="2" height="2" x="57" y="48" fill="#006df0"/><rect width="2" height="2" x="57" y="52" fill="#006df0"/><rect width="2" height="2" x="5" y="28" fill="#006df0"/><rect width="2" height="2" x="5" y="32" fill="#006df0"/><rect width="2" height="2" x="5" y="36" fill="#006df0"/><rect width="2" height="2" x="5" y="40" fill="#006df0"/><rect width="2" height="2" x="5" y="44" fill="#006df0"/><rect width="2" height="2" x="5" y="48" fill="#006df0"/><rect width="2" height="2" x="5" y="52" fill="#006df0"/></g></svg>