<?xml version="1.0" encoding="UTF-8" standalone="no"?>
<svg
   version="1.1"
   width="82"
   viewBox="0 0 82 82"
   height="82"
   id="svg2703"
   sodipodi:docname="r_Реактор шунтирующий.svg"
   inkscape:version="1.2.1 (9c6d41e, 2022-07-14)"
   xmlns:inkscape="http://www.inkscape.org/namespaces/inkscape"
   xmlns:sodipodi="http://sodipodi.sourceforge.net/DTD/sodipodi-0.dtd"
   xmlns="http://www.w3.org/2000/svg"
   xmlns:svg="http://www.w3.org/2000/svg">
  <defs
     id="defs2707" />
  <sodipodi:namedview
     id="namedview2705"
     pagecolor="#ffffff"
     bordercolor="#111111"
     borderopacity="1"
     inkscape:showpageshadow="0"
     inkscape:pageopacity="0"
     inkscape:pagecheckerboard="1"
     inkscape:deskcolor="#d1d1d1"
     showgrid="false"
     inkscape:zoom="9.2197802"
     inkscape:cx="18.384386"
     inkscape:cy="27.278308"
     inkscape:window-width="1846"
     inkscape:window-height="1016"
     inkscape:window-x="0"
     inkscape:window-y="0"
     inkscape:window-maximized="1"
     inkscape:current-layer="svg2703" />
  <g
     id="g2701"
     transform="translate(-4.5)">
    <g
       transform="rotate(-90,45.5,41)"
       id="g2699">
      <g
         clip-path="url(#clip0_53_204)"
         id="g2692">
        <path
           fill-rule="evenodd"
           clip-rule="evenodd"
           d="M 69,34.5 C 69,21.5213 58.4787,11 45.5,11 V 9 C 59.5833,9 71,20.4167 71,34.5 71,48.5833 59.5833,60 45.5,60 31.4167,60 20,48.5833 20,34.5 h 2 C 22,47.4787 32.5213,58 45.5,58 58.4787,58 69,47.4787 69,34.5 Z"
           fill="#000000"
           id="path2678" />
        <path
           fill-rule="evenodd"
           clip-rule="evenodd"
           d="M 46,35 H 20 v -1 h 26 z"
           fill="#000000"
           id="path2680" />
        <path
           fill-rule="evenodd"
           clip-rule="evenodd"
           d="M 45,71 V 34 h 1 v 37 z"
           fill="#000000"
           id="path2682" />
        <path
           fill-rule="evenodd"
           clip-rule="evenodd"
           d="M 46,0 V 11 H 45 V 4.37114e-8 Z"
           fill="#000000"
           id="path2684" />
        <path
           fill-rule="evenodd"
           clip-rule="evenodd"
           d="m 37,71 h 17 v 1 H 37 Z"
           fill="#000000"
           id="path2686" />
        <path
           fill-rule="evenodd"
           clip-rule="evenodd"
           d="m 44,81 h 3 v 1 h -3 z"
           fill="#000000"
           id="path2688" />
        <path
           fill-rule="evenodd"
           clip-rule="evenodd"
           d="m 41,76 h 9 v 1 h -9 z"
           fill="#000000"
           id="path2690" />
      </g>
      <defs
         id="defs2697">
        <clipPath
           id="clip0_53_204">
          <rect
             width="91"
             height="82"
             fill="#ffffff"
             id="rect2694"
             x="0"
             y="0" />
        </clipPath>
      </defs>
    </g>
  </g>
</svg>
