<?xml version="1.0" encoding="UTF-8" standalone="no"?>
<svg
   version="1.1"
   width="81"
   viewBox="0 0 81 84"
   height="84"
   id="svg1712"
   sodipodi:docname="r_Трансформатор напряжения 3-х обмоточный.svg"
   inkscape:version="1.2.1 (9c6d41e, 2022-07-14)"
   xmlns:inkscape="http://www.inkscape.org/namespaces/inkscape"
   xmlns:sodipodi="http://sodipodi.sourceforge.net/DTD/sodipodi-0.dtd"
   xmlns="http://www.w3.org/2000/svg"
   xmlns:svg="http://www.w3.org/2000/svg">
  <defs
     id="defs1716" />
  <sodipodi:namedview
     id="namedview1714"
     pagecolor="#ffffff"
     bordercolor="#111111"
     borderopacity="1"
     inkscape:showpageshadow="0"
     inkscape:pageopacity="0"
     inkscape:pagecheckerboard="1"
     inkscape:deskcolor="#d1d1d1"
     showgrid="false"
     inkscape:zoom="9.9880952"
     inkscape:cx="39.046484"
     inkscape:cy="43.501788"
     inkscape:window-width="1846"
     inkscape:window-height="1016"
     inkscape:window-x="0"
     inkscape:window-y="0"
     inkscape:window-maximized="1"
     inkscape:current-layer="svg1712" />
  <g
     id="g1710"
     transform="translate(-1.5,1.5)">
    <g
       transform="rotate(-90,42,40.5)"
       id="g1708">
      <path
         fill-rule="evenodd"
         clip-rule="evenodd"
         d="M 59.5,79 C 71.9264,79 82,68.9264 82,56.5 82,44.0736 71.9264,34 59.5,34 47.0736,34 37,44.0736 37,56.5 37,68.9264 47.0736,79 59.5,79 Z m 0,2 C 73.031,81 84,70.031 84,56.5 84,42.969 73.031,32 59.5,32 45.969,32 35,42.969 35,56.5 35,70.031 45.969,81 59.5,81 Z"
         fill="#000000"
         id="path1702" />
      <path
         fill-rule="evenodd"
         clip-rule="evenodd"
         d="M 24.5,79 C 36.9264,79 47,68.9264 47,56.5 47,44.0736 36.9264,34 24.5,34 12.0736,34 2,44.0736 2,56.5 2,68.9264 12.0736,79 24.5,79 Z m 0,2 C 38.031,81 49,70.031 49,56.5 49,42.969 38.031,32 24.5,32 10.969,32 0,42.969 0,56.5 0,70.031 10.969,81 24.5,81 Z"
         fill="#000000"
         id="path1704" />
      <path
         fill-rule="evenodd"
         clip-rule="evenodd"
         d="M 41.5,47 C 53.9264,47 64,36.9264 64,24.5 64,12.0736 53.9264,2 41.5,2 29.0736,2 19,12.0736 19,24.5 19,36.9264 29.0736,47 41.5,47 Z m 0,2 C 55.031,49 66,38.031 66,24.5 66,10.969 55.031,0 41.5,0 27.969,0 17,10.969 17,24.5 17,38.031 27.969,49 41.5,49 Z"
         fill="#000000"
         id="path1706" />
    </g>
  </g>
</svg>
