<?xml version='1.0' encoding='ASCII' standalone='yes'?>
<svg xmlns="http://www.w3.org/2000/svg" xmlns:xlink="http://www.w3.org/1999/xlink" version="1.1" width="81.0px" viewBox="0 0 81.0 84.0" height="84.0px">
  <g>
    <g transform=" rotate(90.000000 40.500000 42.000000)"><path fill-rule="evenodd" clip-rule="evenodd" d="M59.5 79C71.9264 79 82 68.9264 82 56.5C82 44.0736 71.9264 34 59.5 34C47.0736 34 37 44.0736 37 56.5C37 68.9264 47.0736 79 59.5 79ZM59.5 81C73.031 81 84 70.031 84 56.5C84 42.969 73.031 32 59.5 32C45.969 32 35 42.969 35 56.5C35 70.031 45.969 81 59.5 81Z" fill="black"/>
<path fill-rule="evenodd" clip-rule="evenodd" d="M24.5 79C36.9264 79 47 68.9264 47 56.5C47 44.0736 36.9264 34 24.5 34C12.0736 34 2 44.0736 2 56.5C2 68.9264 12.0736 79 24.5 79ZM24.5 81C38.031 81 49 70.031 49 56.5C49 42.969 38.031 32 24.5 32C10.969 32 0 42.969 0 56.5C0 70.031 10.969 81 24.5 81Z" fill="black"/>
<path fill-rule="evenodd" clip-rule="evenodd" d="M41.5 47C53.9264 47 64 36.9264 64 24.5C64 12.0736 53.9264 2 41.5 2C29.0736 2 19 12.0736 19 24.5C19 36.9264 29.0736 47 41.5 47ZM41.5 49C55.031 49 66 38.031 66 24.5C66 10.969 55.031 0 41.5 0C27.969 0 17 10.969 17 24.5C17 38.031 27.969 49 41.5 49Z" fill="black"/>
<path fill-rule="evenodd" clip-rule="evenodd" d="M19.5 48L9 66H30L19.5 48ZM19.5 49.9846L10.741 65H28.259L19.5 49.9846Z" fill="black"/>
<path fill-rule="evenodd" clip-rule="evenodd" d="M62.6805 56.7942L69.3158 51.3876L68.6842 50.6124L61.5 56.4661L54.3158 50.6124L53.6842 51.3876L61 57.3487V66H62V57.6978L68.3438 58.7159L68.5023 57.7285L62.6805 56.7942Z" fill="black"/>
<path fill-rule="evenodd" clip-rule="evenodd" d="M42.6805 20.7942L49.3158 15.3876L48.6842 14.6124L41.5 20.4661L34.3158 14.6124L33.6842 15.3876L41 21.3487V30H42V21.6978L48.3438 22.7159L48.5023 21.7285L42.6805 20.7942Z" fill="black"/>
<path fill-rule="evenodd" clip-rule="evenodd" d="M63.8477 7.59371L77.2345 3.5163L77.6741 4.39909L66.8284 12.28L66.2405 11.471L72.4144 6.98484L1.21988 41.873L0.779838 40.9751L71.5595 6.29017L64.139 8.55032L63.8477 7.59371Z" fill="black"/>
</g>
  </g>
</svg>
