<svg width="133" height="145" viewBox="0 0 133 145" fill="none" xmlns="http://www.w3.org/2000/svg">
<path d="M123.932 135.119H9.06814C7.3989 135.119 6.04541 133.767 6.04541 132.096V116.982C6.04541 115.312 7.3989 113.96 9.06814 113.96H123.932C125.601 113.96 126.955 115.312 126.955 116.982V132.096C126.955 133.767 125.601 135.119 123.932 135.119ZM12.0909 129.073H120.909V120.005H12.0909V129.073Z" fill="black"/>
<path d="M123.932 50.4824H9.06814C7.3989 50.4824 6.04541 49.1289 6.04541 47.4597V32.346C6.04541 30.6768 7.3989 29.3233 9.06814 29.3233H123.932C125.601 29.3233 126.955 30.6768 126.955 32.346V47.4597C126.955 49.1289 125.601 50.4824 123.932 50.4824ZM12.0909 44.4369H120.909V35.3688H12.0909V44.4369Z" fill="black"/>
<path d="M27.2045 144.19H15.1135C13.4443 144.19 12.0908 142.838 12.0908 141.168V132.1C12.0908 130.429 13.4443 129.077 15.1135 129.077H27.2045C28.8737 129.077 30.2272 130.429 30.2272 132.1V141.168C30.2272 142.838 28.8737 144.19 27.2045 144.19ZM18.1363 138.145H24.1817V135.122H18.1363V138.145Z" fill="black"/>
<path d="M117.886 144.19H105.795C104.126 144.19 102.772 142.838 102.772 141.168V132.1C102.772 130.429 104.126 129.077 105.795 129.077H117.886C119.555 129.077 120.909 130.429 120.909 132.1V141.168C120.909 142.838 119.555 144.19 117.886 144.19ZM108.818 138.145H114.863V135.122H108.818V138.145Z" fill="black"/>
<path d="M15.1136 113.963C14.6521 113.963 14.1879 113.856 13.7615 113.645L1.67059 107.599C0.646383 107.085 0 106.041 0 104.895V59.554C0 58.4083 0.646383 57.3625 1.67059 56.8497L13.7615 50.8043C14.6966 50.336 15.8113 50.3887 16.7033 50.9365C17.5939 51.4885 18.1363 52.4601 18.1363 53.5085V110.94C18.1363 111.989 17.5939 112.959 16.7033 113.511C16.2175 113.812 15.6656 113.963 15.1136 113.963ZM6.04546 103.026L12.0909 106.049V58.4002L6.04546 61.4229V103.026Z" fill="black"/>
<path d="M117.886 113.963C117.335 113.963 116.783 113.812 116.297 113.511C115.406 112.959 114.864 111.989 114.864 110.94V53.5085C114.864 52.46 115.406 51.4884 116.297 50.9378C117.189 50.3886 118.305 50.3373 119.239 50.8056L131.33 56.851C132.354 57.3625 133 58.4083 133 59.554V104.895C133 106.041 132.354 107.085 131.33 107.599L119.239 113.645C118.812 113.856 118.348 113.963 117.886 113.963ZM120.909 58.4001V106.049L126.955 103.026V61.4229L120.909 58.4001Z" fill="black"/>
<path d="M27.2043 29.3267H38.4181V35.3722H27.2043V29.3267Z" fill="black"/>
<path d="M60.8794 29.3267H72.1229V35.3722H60.8794V29.3267Z" fill="black"/>
<path d="M94.5818 29.3267H105.796V35.3722H94.5818V29.3267Z" fill="black"/>
<path d="M40.591 16.3722H25.9078C21.6221 16.3722 18.1365 12.8865 18.1365 8.59943C18.1365 4.31372 21.6221 0.825317 25.9092 0.825317H40.5924C44.8781 0.826667 48.3638 4.31372 48.3638 8.59943C48.3638 12.8865 44.8781 16.3722 40.591 16.3722ZM25.9092 6.87216C24.9565 6.87216 24.1819 7.64673 24.1819 8.59943C24.1819 9.55078 24.9565 10.3267 25.9092 10.3267H40.5924C41.5438 10.3267 42.3183 9.55212 42.3183 8.59943C42.3183 7.64539 41.5438 6.87081 40.5911 6.87081L25.9092 6.87216Z" fill="black"/>
<path d="M40.591 25.8722H25.9078C21.6221 25.8722 18.1365 22.3852 18.1365 18.0995C18.1365 13.8137 21.6221 10.3267 25.9092 10.3267H40.5924C44.8781 10.3267 48.3638 13.8137 48.3638 18.0995C48.3638 22.3852 44.8781 25.8722 40.591 25.8722ZM25.9092 16.3722C24.9565 16.3722 24.1819 17.1468 24.1819 18.0995C24.1819 19.0508 24.9565 19.8267 25.9092 19.8267H40.5924C41.5438 19.8267 42.3183 19.0508 42.3183 18.0995C42.3183 17.1481 41.5438 16.3722 40.5911 16.3722H25.9092Z" fill="black"/>
<path d="M40.591 35.3722H25.9078C21.6221 35.3722 18.1365 31.8865 18.1365 27.5994C18.1365 23.3137 21.6221 19.8253 25.9092 19.8253H40.5924C44.8781 19.8267 48.3638 23.3137 48.3638 27.5994C48.3638 31.8865 44.8781 35.3722 40.591 35.3722ZM25.9092 25.8722C24.9565 25.8722 24.1819 26.6467 24.1819 27.5994C24.1819 28.5521 24.9565 29.3267 25.9092 29.3267H40.5924C41.5438 29.3267 42.3183 28.5521 42.3183 27.5994C42.3183 26.6454 41.5438 25.8708 40.5911 25.8708L25.9092 25.8722Z" fill="black"/>
<path d="M73.8408 16.3722H59.1576C54.8719 16.3722 51.3862 12.8865 51.3862 8.59943C51.3862 4.31372 54.8719 0.825317 59.159 0.825317H73.8422C78.1279 0.826667 81.6135 4.31372 81.6135 8.59943C81.6135 12.8865 78.1279 16.3722 73.8408 16.3722ZM59.159 6.87216C58.2063 6.87216 57.4317 7.64673 57.4317 8.59943C57.4317 9.55078 58.2063 10.3267 59.159 10.3267H73.8422C74.7935 10.3267 75.5681 9.55212 75.5681 8.59943C75.5681 7.64539 74.7935 6.87081 73.8408 6.87081L59.159 6.87216Z" fill="black"/>
<path d="M73.8408 25.8722H59.1576C54.8719 25.8722 51.3862 22.3852 51.3862 18.0995C51.3862 13.8137 54.8719 10.3267 59.159 10.3267H73.8422C78.1279 10.3267 81.6135 13.8137 81.6135 18.0995C81.6135 22.3852 78.1279 25.8722 73.8408 25.8722ZM59.159 16.3722C58.2063 16.3722 57.4317 17.1468 57.4317 18.0995C57.4317 19.0508 58.2063 19.8267 59.159 19.8267H73.8422C74.7935 19.8267 75.5681 19.0508 75.5681 18.0995C75.5681 17.1481 74.7935 16.3722 73.8408 16.3722H59.159Z" fill="black"/>
<path d="M73.8408 35.3722H59.1576C54.8719 35.3722 51.3862 31.8865 51.3862 27.5994C51.3862 23.3137 54.8719 19.8253 59.159 19.8253H73.8422C78.1279 19.8267 81.6135 23.3137 81.6135 27.5994C81.6135 31.8865 78.1279 35.3722 73.8408 35.3722ZM59.159 25.8722C58.2063 25.8722 57.4317 26.6467 57.4317 27.5994C57.4317 28.5521 58.2063 29.3267 59.159 29.3267H73.8422C74.7935 29.3267 75.5681 28.5521 75.5681 27.5994C75.5681 26.6454 74.7935 25.8708 73.8408 25.8708L59.159 25.8722Z" fill="black"/>
<path d="M107.091 16.3722H92.4078C88.1221 16.3722 84.6365 12.8865 84.6365 8.59943C84.6365 4.31372 88.1221 0.825317 92.4092 0.825317H107.092C111.378 0.826667 114.864 4.31372 114.864 8.59943C114.864 12.8865 111.378 16.3722 107.091 16.3722ZM92.4092 6.87216C91.4565 6.87216 90.6819 7.64673 90.6819 8.59943C90.6819 9.55078 91.4565 10.3267 92.4092 10.3267H107.092C108.044 10.3267 108.818 9.55212 108.818 8.59943C108.818 7.64539 108.044 6.87081 107.091 6.87081L92.4092 6.87216Z" fill="black"/>
<path d="M107.091 25.8722H92.4078C88.1221 25.8722 84.6365 22.3852 84.6365 18.0995C84.6365 13.8137 88.1221 10.3267 92.4092 10.3267H107.092C111.378 10.3267 114.864 13.8137 114.864 18.0995C114.864 22.3852 111.378 25.8722 107.091 25.8722ZM92.4092 16.3722C91.4565 16.3722 90.6819 17.1468 90.6819 18.0995C90.6819 19.0508 91.4565 19.8267 92.4092 19.8267H107.092C108.044 19.8267 108.818 19.0508 108.818 18.0995C108.818 17.1481 108.044 16.3722 107.091 16.3722H92.4092Z" fill="black"/>
<path d="M107.091 35.3722H92.4078C88.1221 35.3722 84.6365 31.8865 84.6365 27.5994C84.6365 23.3137 88.1221 19.8253 92.4092 19.8253H107.092C111.378 19.8267 114.864 23.3137 114.864 27.5994C114.864 31.8865 111.378 35.3722 107.091 35.3722ZM92.4092 25.8722C91.4565 25.8722 90.6819 26.6467 90.6819 27.5994C90.6819 28.5521 91.4565 29.3267 92.4092 29.3267H107.092C108.044 29.3267 108.818 28.5521 108.818 27.5994C108.818 26.6454 108.044 25.8708 107.091 25.8708L92.4092 25.8722Z" fill="black"/>
<path d="M117.795 119.568H15.0227C13.3535 119.568 12 118.216 12 116.545V47.0227C12 45.3535 13.3535 44 15.0227 44H117.795C119.465 44 120.818 45.3535 120.818 47.0227V116.545C120.818 118.216 119.465 119.568 117.795 119.568ZM18.0455 113.523H114.773V50.0455H18.0455V113.523Z" fill="black"/>
<path d="M37.3636 94L29.5455 83.5682H27.0682V94H23.5568V70.7273H27.0682V80.5568H28.2159L37.0114 70.7273H41.2955L31.9886 81.1477L41.6477 94H37.3636ZM43.7528 73.75V70.7273H61.7642V73.75H54.5028V94H51.0028V73.75H43.7528ZM83.9375 70.7273V94H80.4375V73.7273H69.483V94H65.983V70.7273H83.9375ZM89.3068 94V70.7273H92.8182V80.8409H104.42V70.7273H107.943V94H104.42V83.8523H92.8182V94H89.3068Z" fill="black"/>
<path d="M37.3636 94L36.5634 94.5997L36.8634 95H37.3636V94ZM29.5455 83.5682L30.3457 82.9685L30.0457 82.5682H29.5455V83.5682ZM27.0682 83.5682V82.5682H26.0682V83.5682H27.0682ZM27.0682 94V95H28.0682V94H27.0682ZM23.5568 94H22.5568V95H23.5568V94ZM23.5568 70.7273V69.7273H22.5568V70.7273H23.5568ZM27.0682 70.7273H28.0682V69.7273H27.0682V70.7273ZM27.0682 80.5568H26.0682V81.5568H27.0682V80.5568ZM28.2159 80.5568V81.5568H28.663L28.9611 81.2236L28.2159 80.5568ZM37.0114 70.7273V69.7273H36.5643L36.2661 70.0605L37.0114 70.7273ZM41.2955 70.7273L42.0413 71.3934L43.5294 69.7273H41.2955V70.7273ZM31.9886 81.1477L31.2428 80.4816L30.6967 81.0931L31.1892 81.7485L31.9886 81.1477ZM41.6477 94V95H43.6502L42.4471 93.3992L41.6477 94ZM38.1638 93.4003L30.3457 82.9685L28.7452 84.1679L36.5634 94.5997L38.1638 93.4003ZM29.5455 82.5682H27.0682V84.5682H29.5455V82.5682ZM26.0682 83.5682V94H28.0682V83.5682H26.0682ZM27.0682 93H23.5568V95H27.0682V93ZM24.5568 94V70.7273H22.5568V94H24.5568ZM23.5568 71.7273H27.0682V69.7273H23.5568V71.7273ZM26.0682 70.7273V80.5568H28.0682V70.7273H26.0682ZM27.0682 81.5568H28.2159V79.5568H27.0682V81.5568ZM28.9611 81.2236L37.7566 71.3941L36.2661 70.0605L27.4707 79.89L28.9611 81.2236ZM37.0114 71.7273H41.2955V69.7273H37.0114V71.7273ZM40.5496 70.0611L31.2428 80.4816L32.7345 81.8139L42.0413 71.3934L40.5496 70.0611ZM31.1892 81.7485L40.8483 94.6008L42.4471 93.3992L32.788 80.5469L31.1892 81.7485ZM41.6477 93H37.3636V95H41.6477V93ZM43.7528 73.75H42.7528V74.75H43.7528V73.75ZM43.7528 70.7273V69.7273H42.7528V70.7273H43.7528ZM61.7642 70.7273H62.7642V69.7273H61.7642V70.7273ZM61.7642 73.75V74.75H62.7642V73.75H61.7642ZM54.5028 73.75V72.75H53.5028V73.75H54.5028ZM54.5028 94V95H55.5028V94H54.5028ZM51.0028 94H50.0028V95H51.0028V94ZM51.0028 73.75H52.0028V72.75H51.0028V73.75ZM44.7528 73.75V70.7273H42.7528V73.75H44.7528ZM43.7528 71.7273H61.7642V69.7273H43.7528V71.7273ZM60.7642 70.7273V73.75H62.7642V70.7273H60.7642ZM61.7642 72.75H54.5028V74.75H61.7642V72.75ZM53.5028 73.75V94H55.5028V73.75H53.5028ZM54.5028 93H51.0028V95H54.5028V93ZM52.0028 94V73.75H50.0028V94H52.0028ZM51.0028 72.75H43.7528V74.75H51.0028V72.75ZM83.9375 70.7273H84.9375V69.7273H83.9375V70.7273ZM83.9375 94V95H84.9375V94H83.9375ZM80.4375 94H79.4375V95H80.4375V94ZM80.4375 73.7273H81.4375V72.7273H80.4375V73.7273ZM69.483 73.7273V72.7273H68.483V73.7273H69.483ZM69.483 94V95H70.483V94H69.483ZM65.983 94H64.983V95H65.983V94ZM65.983 70.7273V69.7273H64.983V70.7273H65.983ZM82.9375 70.7273V94H84.9375V70.7273H82.9375ZM83.9375 93H80.4375V95H83.9375V93ZM81.4375 94V73.7273H79.4375V94H81.4375ZM80.4375 72.7273H69.483V74.7273H80.4375V72.7273ZM68.483 73.7273V94H70.483V73.7273H68.483ZM69.483 93H65.983V95H69.483V93ZM66.983 94V70.7273H64.983V94H66.983ZM65.983 71.7273H83.9375V69.7273H65.983V71.7273ZM89.3068 94H88.3068V95H89.3068V94ZM89.3068 70.7273V69.7273H88.3068V70.7273H89.3068ZM92.8182 70.7273H93.8182V69.7273H92.8182V70.7273ZM92.8182 80.8409H91.8182V81.8409H92.8182V80.8409ZM104.42 80.8409V81.8409H105.42V80.8409H104.42ZM104.42 70.7273V69.7273H103.42V70.7273H104.42ZM107.943 70.7273H108.943V69.7273H107.943V70.7273ZM107.943 94V95H108.943V94H107.943ZM104.42 94H103.42V95H104.42V94ZM104.42 83.8523H105.42V82.8523H104.42V83.8523ZM92.8182 83.8523V82.8523H91.8182V83.8523H92.8182ZM92.8182 94V95H93.8182V94H92.8182ZM90.3068 94V70.7273H88.3068V94H90.3068ZM89.3068 71.7273H92.8182V69.7273H89.3068V71.7273ZM91.8182 70.7273V80.8409H93.8182V70.7273H91.8182ZM92.8182 81.8409H104.42V79.8409H92.8182V81.8409ZM105.42 80.8409V70.7273H103.42V80.8409H105.42ZM104.42 71.7273H107.943V69.7273H104.42V71.7273ZM106.943 70.7273V94H108.943V70.7273H106.943ZM107.943 93H104.42V95H107.943V93ZM105.42 94V83.8523H103.42V94H105.42ZM104.42 82.8523H92.8182V84.8523H104.42V82.8523ZM91.8182 83.8523V94H93.8182V83.8523H91.8182ZM92.8182 93H89.3068V95H92.8182V93Z" fill="white"/>
</svg>
