<svg width="133" height="144" viewBox="0 0 133 144" fill="none" xmlns="http://www.w3.org/2000/svg">
<path d="M123.932 134.849H9.06814C7.3989 134.849 6.04541 133.497 6.04541 131.826V116.713C6.04541 115.042 7.3989 113.69 9.06814 113.69H123.932C125.601 113.69 126.955 115.042 126.955 116.713V131.826C126.955 133.497 125.601 134.849 123.932 134.849ZM12.0909 128.804H120.909V119.735H12.0909V128.804Z" fill="black"/>
<path d="M123.932 50.2127H9.06814C7.3989 50.2127 6.04541 48.8592 6.04541 47.19V32.0763C6.04541 30.4071 7.3989 29.0536 9.06814 29.0536H123.932C125.601 29.0536 126.955 30.4071 126.955 32.0763V47.19C126.955 48.8592 125.601 50.2127 123.932 50.2127ZM12.0909 44.1672H120.909V35.099H12.0909V44.1672Z" fill="black"/>
<path d="M27.2045 143.921H15.1135C13.4443 143.921 12.0908 142.569 12.0908 140.898V131.83C12.0908 130.159 13.4443 128.807 15.1135 128.807H27.2045C28.8737 128.807 30.2272 130.159 30.2272 131.83V140.898C30.2272 142.569 28.8737 143.921 27.2045 143.921ZM18.1363 137.875H24.1817V134.852H18.1363V137.875Z" fill="black"/>
<path d="M117.886 143.921H105.795C104.126 143.921 102.772 142.569 102.772 140.898V131.83C102.772 130.159 104.126 128.807 105.795 128.807H117.886C119.555 128.807 120.909 130.159 120.909 131.83V140.898C120.909 142.569 119.555 143.921 117.886 143.921ZM108.818 137.875H114.863V134.852H108.818V137.875Z" fill="black"/>
<path d="M15.1136 113.693C14.6521 113.693 14.1879 113.587 13.7615 113.375L1.67059 107.329C0.646383 106.815 0 105.771 0 104.625V59.2842C0 58.1386 0.646383 57.0927 1.67059 56.58L13.7615 50.5345C14.6966 50.0662 15.8113 50.1189 16.7033 50.6667C17.5939 51.2187 18.1363 52.1903 18.1363 53.2388V110.671C18.1363 111.719 17.5939 112.689 16.7033 113.241C16.2175 113.542 15.6656 113.693 15.1136 113.693ZM6.04546 102.756L12.0909 105.779V58.1304L6.04546 61.1531V102.756Z" fill="black"/>
<path d="M117.886 113.693C117.335 113.693 116.783 113.542 116.297 113.241C115.406 112.689 114.864 111.719 114.864 110.671V53.2387C114.864 52.1902 115.406 51.2186 116.297 50.6681C117.189 50.1189 118.305 50.0676 119.239 50.5358L131.33 56.5813C132.354 57.0927 133 58.1385 133 59.2842V104.625C133 105.771 132.354 106.815 131.33 107.329L119.239 113.375C118.812 113.587 118.348 113.693 117.886 113.693ZM120.909 58.1304V105.779L126.955 102.756V61.1531L120.909 58.1304Z" fill="black"/>
<path d="M27.2043 29.057H38.4181V35.1025H27.2043V29.057Z" fill="black"/>
<path d="M60.8794 29.057H72.1229V35.1025H60.8794V29.057Z" fill="black"/>
<path d="M94.5818 29.057H105.796V35.1025H94.5818V29.057Z" fill="black"/>
<path d="M40.591 16.1024H25.9078C21.6221 16.1024 18.1365 12.6167 18.1365 8.32965C18.1365 4.04394 21.6221 0.555542 25.9092 0.555542H40.5924C44.8781 0.556891 48.3638 4.04394 48.3638 8.32965C48.3638 12.6167 44.8781 16.1024 40.591 16.1024ZM25.9092 6.60238C24.9565 6.60238 24.1819 7.37696 24.1819 8.32965C24.1819 9.281 24.9565 10.0569 25.9092 10.0569H40.5924C41.5438 10.0569 42.3183 9.28235 42.3183 8.32965C42.3183 7.37561 41.5438 6.60103 40.5911 6.60103L25.9092 6.60238Z" fill="black"/>
<path d="M40.591 25.6023H25.9078C21.6221 25.6023 18.1365 22.1153 18.1365 17.8296C18.1365 13.5439 21.6221 10.0569 25.9092 10.0569H40.5924C44.8781 10.0569 48.3638 13.5439 48.3638 17.8296C48.3638 22.1153 44.8781 25.6023 40.591 25.6023ZM25.9092 16.1023C24.9565 16.1023 24.1819 16.8769 24.1819 17.8296C24.1819 18.781 24.9565 19.5569 25.9092 19.5569H40.5924C41.5438 19.5569 42.3183 18.781 42.3183 17.8296C42.3183 16.8783 41.5438 16.1023 40.5911 16.1023H25.9092Z" fill="black"/>
<path d="M40.591 35.1024H25.9078C21.6221 35.1024 18.1365 31.6167 18.1365 27.3297C18.1365 23.0439 21.6221 19.5555 25.9092 19.5555H40.5924C44.8781 19.5569 48.3638 23.0439 48.3638 27.3297C48.3638 31.6167 44.8781 35.1024 40.591 35.1024ZM25.9092 25.6024C24.9565 25.6024 24.1819 26.377 24.1819 27.3297C24.1819 28.2823 24.9565 29.0569 25.9092 29.0569H40.5924C41.5438 29.0569 42.3183 28.2823 42.3183 27.3297C42.3183 26.3756 41.5438 25.601 40.5911 25.601L25.9092 25.6024Z" fill="black"/>
<path d="M73.8408 16.1024H59.1576C54.8719 16.1024 51.3862 12.6167 51.3862 8.32965C51.3862 4.04394 54.8719 0.555542 59.159 0.555542H73.8422C78.1279 0.556891 81.6135 4.04394 81.6135 8.32965C81.6135 12.6167 78.1279 16.1024 73.8408 16.1024ZM59.159 6.60238C58.2063 6.60238 57.4317 7.37696 57.4317 8.32965C57.4317 9.281 58.2063 10.0569 59.159 10.0569H73.8422C74.7935 10.0569 75.5681 9.28235 75.5681 8.32965C75.5681 7.37561 74.7935 6.60103 73.8408 6.60103L59.159 6.60238Z" fill="black"/>
<path d="M73.8408 25.6023H59.1576C54.8719 25.6023 51.3862 22.1153 51.3862 17.8296C51.3862 13.5439 54.8719 10.0569 59.159 10.0569H73.8422C78.1279 10.0569 81.6135 13.5439 81.6135 17.8296C81.6135 22.1153 78.1279 25.6023 73.8408 25.6023ZM59.159 16.1023C58.2063 16.1023 57.4317 16.8769 57.4317 17.8296C57.4317 18.781 58.2063 19.5569 59.159 19.5569H73.8422C74.7935 19.5569 75.5681 18.781 75.5681 17.8296C75.5681 16.8783 74.7935 16.1023 73.8408 16.1023H59.159Z" fill="black"/>
<path d="M73.8408 35.1024H59.1576C54.8719 35.1024 51.3862 31.6167 51.3862 27.3297C51.3862 23.0439 54.8719 19.5555 59.159 19.5555H73.8422C78.1279 19.5569 81.6135 23.0439 81.6135 27.3297C81.6135 31.6167 78.1279 35.1024 73.8408 35.1024ZM59.159 25.6024C58.2063 25.6024 57.4317 26.377 57.4317 27.3297C57.4317 28.2823 58.2063 29.0569 59.159 29.0569H73.8422C74.7935 29.0569 75.5681 28.2823 75.5681 27.3297C75.5681 26.3756 74.7935 25.601 73.8408 25.601L59.159 25.6024Z" fill="black"/>
<path d="M107.091 16.1024H92.4078C88.1221 16.1024 84.6365 12.6167 84.6365 8.32965C84.6365 4.04394 88.1221 0.555542 92.4092 0.555542H107.092C111.378 0.556891 114.864 4.04394 114.864 8.32965C114.864 12.6167 111.378 16.1024 107.091 16.1024ZM92.4092 6.60238C91.4565 6.60238 90.6819 7.37696 90.6819 8.32965C90.6819 9.281 91.4565 10.0569 92.4092 10.0569H107.092C108.044 10.0569 108.818 9.28235 108.818 8.32965C108.818 7.37561 108.044 6.60103 107.091 6.60103L92.4092 6.60238Z" fill="black"/>
<path d="M107.091 25.6023H92.4078C88.1221 25.6023 84.6365 22.1153 84.6365 17.8296C84.6365 13.5439 88.1221 10.0569 92.4092 10.0569H107.092C111.378 10.0569 114.864 13.5439 114.864 17.8296C114.864 22.1153 111.378 25.6023 107.091 25.6023ZM92.4092 16.1023C91.4565 16.1023 90.6819 16.8769 90.6819 17.8296C90.6819 18.781 91.4565 19.5569 92.4092 19.5569H107.092C108.044 19.5569 108.818 18.781 108.818 17.8296C108.818 16.8783 108.044 16.1023 107.091 16.1023H92.4092Z" fill="black"/>
<path d="M107.091 35.1024H92.4078C88.1221 35.1024 84.6365 31.6167 84.6365 27.3297C84.6365 23.0439 88.1221 19.5555 92.4092 19.5555H107.092C111.378 19.5569 114.864 23.0439 114.864 27.3297C114.864 31.6167 111.378 35.1024 107.091 35.1024ZM92.4092 25.6024C91.4565 25.6024 90.6819 26.377 90.6819 27.3297C90.6819 28.2823 91.4565 29.0569 92.4092 29.0569H107.092C108.044 29.0569 108.818 28.2823 108.818 27.3297C108.818 26.3756 108.044 25.601 107.091 25.601L92.4092 25.6024Z" fill="black"/>
<path d="M117.795 119.298H15.0227C13.3535 119.298 12 117.946 12 116.276V46.753C12 45.0837 13.3535 43.7302 15.0227 43.7302H117.795C119.465 43.7302 120.818 45.0837 120.818 46.753V116.276C120.818 117.946 119.465 119.298 117.795 119.298ZM18.0455 113.253H114.773V49.7757H18.0455V113.253Z" fill="black"/>
<path d="M62.75 70.4575V93.7302H59.25V73.4575H48.2955V93.7302H44.7955V70.4575H62.75ZM87.4489 78.0257H83.9034C83.767 77.2681 83.5133 76.6014 83.142 76.0257C82.7708 75.4499 82.3163 74.9613 81.7784 74.5598C81.2405 74.1583 80.6383 73.8552 79.9716 73.6507C79.3125 73.4461 78.6117 73.3439 77.8693 73.3439C76.5284 73.3439 75.3277 73.681 74.267 74.3552C73.214 75.0295 72.3807 76.0181 71.767 77.3211C71.161 78.6242 70.858 80.2151 70.858 82.0939C70.858 83.9878 71.161 85.5863 71.767 86.8893C72.3807 88.1923 73.2178 89.1772 74.2784 89.8439C75.339 90.5105 76.5322 90.8439 77.858 90.8439C78.5928 90.8439 79.2898 90.7454 79.9489 90.5484C80.6155 90.3439 81.2178 90.0446 81.7557 89.6507C82.2936 89.2567 82.7481 88.7757 83.1193 88.2075C83.4981 87.6317 83.7595 86.9726 83.9034 86.2302L87.4489 86.2416C87.2595 87.3855 86.892 88.4386 86.3466 89.4007C85.8087 90.3552 85.1155 91.181 84.267 91.878C83.4261 92.5673 82.464 93.1014 81.3807 93.4802C80.2973 93.859 79.1155 94.0484 77.8352 94.0484C75.8201 94.0484 74.0246 93.5711 72.4489 92.6166C70.8731 91.6545 69.6307 90.2795 68.7216 88.4916C67.8201 86.7037 67.3693 84.5711 67.3693 82.0939C67.3693 79.609 67.8239 77.4764 68.733 75.6961C69.642 73.9083 70.8845 72.537 72.4602 71.5825C74.036 70.6204 75.8277 70.1393 77.8352 70.1393C79.0701 70.1393 80.2216 70.3173 81.2898 70.6734C82.3655 71.0219 83.3314 71.537 84.1875 72.2189C85.0436 72.8931 85.7519 73.7189 86.3125 74.6961C86.8731 75.6658 87.2519 76.7757 87.4489 78.0257Z" fill="black"/>
<path d="M62.75 70.4575H63.75V69.4575H62.75V70.4575ZM62.75 93.7302V94.7302H63.75V93.7302H62.75ZM59.25 93.7302H58.25V94.7302H59.25V93.7302ZM59.25 73.4575H60.25V72.4575H59.25V73.4575ZM48.2955 73.4575V72.4575H47.2955V73.4575H48.2955ZM48.2955 93.7302V94.7302H49.2955V93.7302H48.2955ZM44.7955 93.7302H43.7955V94.7302H44.7955V93.7302ZM44.7955 70.4575V69.4575H43.7955V70.4575H44.7955ZM61.75 70.4575V93.7302H63.75V70.4575H61.75ZM62.75 92.7302H59.25V94.7302H62.75V92.7302ZM60.25 93.7302V73.4575H58.25V93.7302H60.25ZM59.25 72.4575H48.2955V74.4575H59.25V72.4575ZM47.2955 73.4575V93.7302H49.2955V73.4575H47.2955ZM48.2955 92.7302H44.7955V94.7302H48.2955V92.7302ZM45.7955 93.7302V70.4575H43.7955V93.7302H45.7955ZM44.7955 71.4575H62.75V69.4575H44.7955V71.4575ZM87.4489 78.0257V79.0257H88.6188L88.4367 77.87L87.4489 78.0257ZM83.9034 78.0257L82.9192 78.2028L83.0673 79.0257H83.9034V78.0257ZM81.7784 74.5598L82.3766 73.7584L82.3766 73.7584L81.7784 74.5598ZM79.9716 73.6507L79.6752 74.6057L79.6783 74.6067L79.9716 73.6507ZM74.267 74.3552L73.7306 73.5113L73.7278 73.5131L74.267 74.3552ZM71.767 77.3211L70.8623 76.8951L70.8603 76.8994L71.767 77.3211ZM71.767 86.8893L70.8603 87.3111L70.8623 87.3154L71.767 86.8893ZM74.2784 89.8439L73.7462 90.6905L73.7462 90.6905L74.2784 89.8439ZM79.9489 90.5484L80.2352 91.5066L80.2422 91.5044L79.9489 90.5484ZM81.7557 89.6507L81.1648 88.8439L81.7557 89.6507ZM83.1193 88.2075L82.2839 87.6579L82.2822 87.6605L83.1193 88.2075ZM83.9034 86.2302L83.9066 85.2302L83.0792 85.2276L82.9217 86.0399L83.9034 86.2302ZM87.4489 86.2416L88.4354 86.4049L88.6274 85.2454L87.4521 85.2416L87.4489 86.2416ZM86.3466 89.4007L85.4767 88.9075L85.4754 88.9098L86.3466 89.4007ZM84.267 91.878L84.901 92.6513L84.9018 92.6507L84.267 91.878ZM81.3807 93.4802L81.7107 94.4242L81.7107 94.4242L81.3807 93.4802ZM72.4489 92.6166L71.9277 93.4701L71.9307 93.4719L72.4489 92.6166ZM68.7216 88.4916L67.8287 88.9418L67.8302 88.9448L68.7216 88.4916ZM68.733 75.6961L69.6236 76.1509L69.6243 76.1494L68.733 75.6961ZM72.4602 71.5825L72.9784 72.4378L72.9813 72.436L72.4602 71.5825ZM81.2898 70.6734L80.9735 71.6221L80.9816 71.6247L81.2898 70.6734ZM84.1875 72.2189L83.5645 73.0011L83.5688 73.0045L84.1875 72.2189ZM86.3125 74.6961L85.4451 75.1937L85.4468 75.1966L86.3125 74.6961ZM87.4489 77.0257H83.9034V79.0257H87.4489V77.0257ZM84.8876 77.8485C84.7307 76.9771 84.4335 76.1834 83.9825 75.4838L82.3016 76.5676C82.593 77.0195 82.8034 77.5591 82.9192 78.2028L84.8876 77.8485ZM83.9825 75.4838C83.548 74.8099 83.0121 74.2328 82.3766 73.7584L81.1802 75.3611C81.6205 75.6898 81.9937 76.0899 82.3016 76.5676L83.9825 75.4838ZM82.3766 73.7584C81.7432 73.2856 81.037 72.9316 80.2649 72.6947L79.6783 74.6067C80.2395 74.7789 80.7379 75.0309 81.1802 75.3611L82.3766 73.7584ZM80.268 72.6956C79.5059 72.4591 78.7046 72.3439 77.8693 72.3439V74.3439C78.5189 74.3439 79.1191 74.4332 79.6752 74.6057L80.268 72.6956ZM77.8693 72.3439C76.3517 72.3439 74.9624 72.7282 73.7306 73.5113L74.8035 75.1991C75.6929 74.6337 76.7051 74.3439 77.8693 74.3439V72.3439ZM73.7278 73.5131C72.4933 74.3035 71.5438 75.4481 70.8623 76.8951L72.6717 77.7472C73.2176 76.5881 73.9347 75.7554 74.8063 75.1974L73.7278 73.5131ZM70.8603 76.8994C70.177 78.3686 69.858 80.1123 69.858 82.0939H71.858C71.858 80.3179 72.145 78.8798 72.6738 77.7429L70.8603 76.8994ZM69.858 82.0939C69.858 84.0892 70.1766 85.8409 70.8603 87.311L72.6738 86.4676C72.1454 85.3316 71.858 83.8864 71.858 82.0939H69.858ZM70.8623 87.3154C71.5449 88.7648 72.5007 89.9076 73.7462 90.6905L74.8106 88.9972C73.9349 88.4468 73.2164 87.6199 72.6717 86.4633L70.8623 87.3154ZM73.7462 90.6905C74.9757 91.4633 76.3554 91.8439 77.858 91.8439V89.8439C76.709 89.8439 75.7023 89.5577 74.8106 88.9972L73.7462 90.6905ZM77.858 91.8439C78.6832 91.8439 79.4771 91.7331 80.2352 91.5065L79.6625 89.5903C79.1025 89.7576 78.5024 89.8439 77.858 89.8439V91.8439ZM80.2422 91.5044C81.0107 91.2686 81.7144 90.9204 82.3466 90.4574L81.1648 88.8439C80.7212 89.1688 80.2203 89.4191 79.6555 89.5924L80.2422 91.5044ZM82.3466 90.4574C82.9833 89.9911 83.5207 89.4215 83.9565 88.7544L82.2822 87.6605C81.9755 88.1299 81.6039 88.5224 81.1648 88.8439L82.3466 90.4574ZM83.9547 88.7571C84.412 88.0621 84.7188 87.2786 84.8851 86.4206L82.9217 86.0399C82.8002 86.6667 82.5842 87.2014 82.2839 87.6579L83.9547 88.7571ZM83.9002 87.2302L87.4457 87.2416L87.4521 85.2416L83.9066 85.2302L83.9002 87.2302ZM86.4623 86.0782C86.2912 87.1119 85.9614 88.0525 85.4767 88.9075L87.2165 89.8939C87.8227 88.8246 88.2278 87.6591 88.4354 86.4049L86.4623 86.0782ZM85.4754 88.9098C84.9984 89.7563 84.3854 90.4866 83.6323 91.1052L84.9018 92.6507C85.8456 91.8754 86.6191 90.9541 87.2178 89.8916L85.4754 88.9098ZM83.633 91.1046C82.8876 91.7157 82.0296 92.194 81.0506 92.5363L81.7107 94.4242C82.8984 94.0089 83.9647 93.419 84.901 92.6513L83.633 91.1046ZM81.0506 92.5363C80.0849 92.8739 79.016 93.0484 77.8352 93.0484V95.0484C79.215 95.0484 80.5098 94.8441 81.7107 94.4242L81.0506 92.5363ZM77.8352 93.0484C75.985 93.0484 74.372 92.6124 72.967 91.7613L71.9307 93.4719C73.6772 94.5299 75.6551 95.0484 77.8352 95.0484V93.0484ZM72.97 91.7631C71.5659 90.9058 70.4456 89.6759 69.613 88.0383L67.8302 88.9448C68.8157 90.8831 70.1803 92.4031 71.9277 93.4701L72.97 91.7631ZM69.6145 88.0414C68.7981 86.4223 68.3693 84.4511 68.3693 82.0939H66.3693C66.3693 84.6911 66.842 86.9851 67.8287 88.9418L69.6145 88.0414ZM68.3693 82.0939C68.3693 79.7295 68.8017 77.7603 69.6236 76.1509L67.8423 75.2414C66.846 77.1926 66.3693 79.4886 66.3693 82.0939H68.3693ZM69.6243 76.1494C70.4567 74.5124 71.5761 73.2872 72.9783 72.4378L71.9421 70.7272C70.1928 71.7869 68.8274 73.3041 67.8416 75.2429L69.6243 76.1494ZM72.9813 72.436C74.3866 71.578 75.9949 71.1393 77.8352 71.1393V69.1393C75.6604 69.1393 73.6854 69.6628 71.9391 70.729L72.9813 72.436ZM77.8352 71.1393C78.9729 71.1393 80.0167 71.3031 80.9735 71.6221L81.606 69.7247C80.4265 69.3315 79.1672 69.1393 77.8352 69.1393V71.1393ZM80.9816 71.6247C81.947 71.9375 82.8055 72.3966 83.5645 73.0011L84.8105 71.4366C83.8574 70.6775 82.7841 70.1063 81.5979 69.7221L80.9816 71.6247ZM83.5688 73.0045C84.3208 73.5968 84.946 74.3236 85.4451 75.1937L87.1799 74.1985C86.5578 73.1141 85.7663 72.1894 84.8062 71.4333L83.5688 73.0045ZM85.4468 75.1966C85.9384 76.047 86.2808 77.0372 86.4611 78.1813L88.4367 77.87C88.223 76.5142 87.8079 75.2847 87.1782 74.1956L85.4468 75.1966Z" fill="white"/>
</svg>
