<svg width="133" height="144" viewBox="0 0 133 144" fill="none" xmlns="http://www.w3.org/2000/svg">
<path d="M123.932 134.484H9.06814C7.3989 134.484 6.04541 133.132 6.04541 131.461V116.348C6.04541 114.677 7.3989 113.325 9.06814 113.325H123.932C125.601 113.325 126.955 114.677 126.955 116.348V131.461C126.955 133.132 125.601 134.484 123.932 134.484ZM12.0909 128.438H120.909V119.37H12.0909V128.438Z" fill="black"/>
<path d="M123.932 49.8476H9.06814C7.3989 49.8476 6.04541 48.4941 6.04541 46.8248V31.7112C6.04541 30.042 7.3989 28.6885 9.06814 28.6885H123.932C125.601 28.6885 126.955 30.042 126.955 31.7112V46.8248C126.955 48.4941 125.601 49.8476 123.932 49.8476ZM12.0909 43.8021H120.909V34.7339H12.0909V43.8021Z" fill="black"/>
<path d="M27.2045 143.556H15.1135C13.4443 143.556 12.0908 142.203 12.0908 140.533V131.465C12.0908 129.794 13.4443 128.442 15.1135 128.442H27.2045C28.8737 128.442 30.2272 129.794 30.2272 131.465V140.533C30.2272 142.203 28.8737 143.556 27.2045 143.556ZM18.1363 137.51H24.1817V134.487H18.1363V137.51Z" fill="black"/>
<path d="M117.886 143.556H105.795C104.126 143.556 102.772 142.203 102.772 140.533V131.465C102.772 129.794 104.126 128.442 105.795 128.442H117.886C119.555 128.442 120.909 129.794 120.909 131.465V140.533C120.909 142.203 119.555 143.556 117.886 143.556ZM108.818 137.51H114.863V134.487H108.818V137.51Z" fill="black"/>
<path d="M15.1136 113.328C14.6521 113.328 14.1879 113.222 13.7615 113.01L1.67059 106.964C0.646383 106.45 0 105.406 0 104.26V58.9191C0 57.7734 0.646383 56.7276 1.67059 56.2149L13.7615 50.1694C14.6966 49.7011 15.8113 49.7538 16.7033 50.3016C17.5939 50.8536 18.1363 51.8252 18.1363 52.8737V110.305C18.1363 111.354 17.5939 112.324 16.7033 112.876C16.2175 113.177 15.6656 113.328 15.1136 113.328ZM6.04546 102.391L12.0909 105.414V57.7653L6.04546 60.788V102.391Z" fill="black"/>
<path d="M117.886 113.328C117.335 113.328 116.783 113.177 116.297 112.876C115.406 112.324 114.864 111.354 114.864 110.305V52.8736C114.864 51.8251 115.406 50.8535 116.297 50.3029C117.189 49.7537 118.305 49.7024 119.239 50.1707L131.33 56.2162C132.354 56.7276 133 57.7734 133 58.9191V104.26C133 105.406 132.354 106.45 131.33 106.964L119.239 113.01C118.812 113.222 118.348 113.328 117.886 113.328ZM120.909 57.7652V105.414L126.955 102.391V60.788L120.909 57.7652Z" fill="black"/>
<path d="M27.2043 28.6919H38.4181V34.7374H27.2043V28.6919Z" fill="black"/>
<path d="M60.8794 28.6919H72.1229V34.7374H60.8794V28.6919Z" fill="black"/>
<path d="M94.5818 28.6919H105.796V34.7374H94.5818V28.6919Z" fill="black"/>
<path d="M40.591 15.7373H25.9078C21.6221 15.7373 18.1365 12.2516 18.1365 7.96454C18.1365 3.67883 21.6221 0.19043 25.9092 0.19043H40.5924C44.8781 0.191779 48.3638 3.67883 48.3638 7.96454C48.3638 12.2516 44.8781 15.7373 40.591 15.7373ZM25.9092 6.23727C24.9565 6.23727 24.1819 7.01185 24.1819 7.96454C24.1819 8.91589 24.9565 9.69181 25.9092 9.69181H40.5924C41.5438 9.69181 42.3183 8.91724 42.3183 7.96454C42.3183 7.0105 41.5438 6.23592 40.5911 6.23592L25.9092 6.23727Z" fill="black"/>
<path d="M40.591 25.2372H25.9078C21.6221 25.2372 18.1365 21.7502 18.1365 17.4645C18.1365 13.1788 21.6221 9.69177 25.9092 9.69177H40.5924C44.8781 9.69177 48.3638 13.1788 48.3638 17.4645C48.3638 21.7502 44.8781 25.2372 40.591 25.2372ZM25.9092 15.7372C24.9565 15.7372 24.1819 16.5118 24.1819 17.4645C24.1819 18.4159 24.9565 19.1918 25.9092 19.1918H40.5924C41.5438 19.1918 42.3183 18.4159 42.3183 17.4645C42.3183 16.5132 41.5438 15.7372 40.5911 15.7372H25.9092Z" fill="black"/>
<path d="M40.591 34.7373H25.9078C21.6221 34.7373 18.1365 31.2516 18.1365 26.9645C18.1365 22.6788 21.6221 19.1904 25.9092 19.1904H40.5924C44.8781 19.1918 48.3638 22.6788 48.3638 26.9645C48.3638 31.2516 44.8781 34.7373 40.591 34.7373ZM25.9092 25.2373C24.9565 25.2373 24.1819 26.0118 24.1819 26.9645C24.1819 27.9172 24.9565 28.6918 25.9092 28.6918H40.5924C41.5438 28.6918 42.3183 27.9172 42.3183 26.9645C42.3183 26.0105 41.5438 25.2359 40.5911 25.2359L25.9092 25.2373Z" fill="black"/>
<path d="M73.8408 15.7373H59.1576C54.8719 15.7373 51.3862 12.2516 51.3862 7.96454C51.3862 3.67883 54.8719 0.19043 59.159 0.19043H73.8422C78.1279 0.191779 81.6135 3.67883 81.6135 7.96454C81.6135 12.2516 78.1279 15.7373 73.8408 15.7373ZM59.159 6.23727C58.2063 6.23727 57.4317 7.01185 57.4317 7.96454C57.4317 8.91589 58.2063 9.69181 59.159 9.69181H73.8422C74.7935 9.69181 75.5681 8.91724 75.5681 7.96454C75.5681 7.0105 74.7935 6.23592 73.8408 6.23592L59.159 6.23727Z" fill="black"/>
<path d="M73.8408 25.2372H59.1576C54.8719 25.2372 51.3862 21.7502 51.3862 17.4645C51.3862 13.1788 54.8719 9.69177 59.159 9.69177H73.8422C78.1279 9.69177 81.6135 13.1788 81.6135 17.4645C81.6135 21.7502 78.1279 25.2372 73.8408 25.2372ZM59.159 15.7372C58.2063 15.7372 57.4317 16.5118 57.4317 17.4645C57.4317 18.4159 58.2063 19.1918 59.159 19.1918H73.8422C74.7935 19.1918 75.5681 18.4159 75.5681 17.4645C75.5681 16.5132 74.7935 15.7372 73.8408 15.7372H59.159Z" fill="black"/>
<path d="M73.8408 34.7373H59.1576C54.8719 34.7373 51.3862 31.2516 51.3862 26.9645C51.3862 22.6788 54.8719 19.1904 59.159 19.1904H73.8422C78.1279 19.1918 81.6135 22.6788 81.6135 26.9645C81.6135 31.2516 78.1279 34.7373 73.8408 34.7373ZM59.159 25.2373C58.2063 25.2373 57.4317 26.0118 57.4317 26.9645C57.4317 27.9172 58.2063 28.6918 59.159 28.6918H73.8422C74.7935 28.6918 75.5681 27.9172 75.5681 26.9645C75.5681 26.0105 74.7935 25.2359 73.8408 25.2359L59.159 25.2373Z" fill="black"/>
<path d="M107.091 15.7373H92.4078C88.1221 15.7373 84.6365 12.2516 84.6365 7.96454C84.6365 3.67883 88.1221 0.19043 92.4092 0.19043H107.092C111.378 0.191779 114.864 3.67883 114.864 7.96454C114.864 12.2516 111.378 15.7373 107.091 15.7373ZM92.4092 6.23727C91.4565 6.23727 90.6819 7.01185 90.6819 7.96454C90.6819 8.91589 91.4565 9.69181 92.4092 9.69181H107.092C108.044 9.69181 108.818 8.91724 108.818 7.96454C108.818 7.0105 108.044 6.23592 107.091 6.23592L92.4092 6.23727Z" fill="black"/>
<path d="M107.091 25.2372H92.4078C88.1221 25.2372 84.6365 21.7502 84.6365 17.4645C84.6365 13.1788 88.1221 9.69177 92.4092 9.69177H107.092C111.378 9.69177 114.864 13.1788 114.864 17.4645C114.864 21.7502 111.378 25.2372 107.091 25.2372ZM92.4092 15.7372C91.4565 15.7372 90.6819 16.5118 90.6819 17.4645C90.6819 18.4159 91.4565 19.1918 92.4092 19.1918H107.092C108.044 19.1918 108.818 18.4159 108.818 17.4645C108.818 16.5132 108.044 15.7372 107.091 15.7372H92.4092Z" fill="black"/>
<path d="M107.091 34.7373H92.4078C88.1221 34.7373 84.6365 31.2516 84.6365 26.9645C84.6365 22.6788 88.1221 19.1904 92.4092 19.1904H107.092C111.378 19.1918 114.864 22.6788 114.864 26.9645C114.864 31.2516 111.378 34.7373 107.091 34.7373ZM92.4092 25.2373C91.4565 25.2373 90.6819 26.0118 90.6819 26.9645C90.6819 27.9172 91.4565 28.6918 92.4092 28.6918H107.092C108.044 28.6918 108.818 27.9172 108.818 26.9645C108.818 26.0105 108.044 25.2359 107.091 25.2359L92.4092 25.2373Z" fill="black"/>
<path d="M117.795 118.933H15.0227C13.3535 118.933 12 117.581 12 115.911V46.3878C12 44.7186 13.3535 43.3651 15.0227 43.3651H117.795C119.465 43.3651 120.818 44.7186 120.818 46.3878V115.911C120.818 117.581 119.465 118.933 117.795 118.933ZM18.0455 112.888H114.773V49.4106H18.0455V112.888Z" fill="black"/>
<path d="M51.3636 93.3651L43.5455 82.9333H41.0682V93.3651H37.5568V70.0924H41.0682V79.9219H42.2159L51.0114 70.0924H55.2955L45.9886 80.5128L55.6477 93.3651H51.3636ZM58.9006 93.3651V70.0924H67.196C69.0066 70.0924 70.5066 70.4219 71.696 71.081C72.8854 71.7401 73.7756 72.6416 74.3665 73.7856C74.9574 74.9219 75.2528 76.2022 75.2528 77.6265C75.2528 79.0583 74.9536 80.3462 74.3551 81.4901C73.7642 82.6265 72.8703 83.528 71.6733 84.1947C70.4839 84.8537 68.9877 85.1833 67.1847 85.1833H61.4801V82.206H66.8665C68.0104 82.206 68.9384 82.0091 69.6506 81.6151C70.3627 81.2136 70.8854 80.6681 71.2188 79.9787C71.5521 79.2894 71.7188 78.5053 71.7188 77.6265C71.7188 76.7477 71.5521 75.9674 71.2188 75.2856C70.8854 74.6037 70.3589 74.0697 69.6392 73.6833C68.9271 73.2969 67.9877 73.1037 66.821 73.1037H62.4119V93.3651H58.9006ZM81.017 93.6833V90.5924H82.4148C82.9981 90.5924 83.4792 90.4939 83.858 90.2969C84.2443 90.1 84.5587 89.8348 84.8011 89.5015C85.0511 89.1606 85.2595 88.7894 85.4261 88.3878L85.7557 87.5583L77.5739 70.0924H81.3011L87.4034 83.5469L92.8352 70.0924H96.517L88.4716 89.331C88.1307 90.1037 87.7367 90.8197 87.2898 91.4787C86.8504 92.1378 86.2633 92.6719 85.5284 93.081C84.7936 93.4825 83.8201 93.6833 82.608 93.6833H81.017Z" fill="black"/>
<path d="M51.3636 93.3651L50.5634 93.9648L50.8634 94.3651H51.3636V93.3651ZM43.5455 82.9333L44.3457 82.3336L44.0457 81.9333H43.5455V82.9333ZM41.0682 82.9333V81.9333H40.0682V82.9333H41.0682ZM41.0682 93.3651V94.3651H42.0682V93.3651H41.0682ZM37.5568 93.3651H36.5568V94.3651H37.5568V93.3651ZM37.5568 70.0924V69.0924H36.5568V70.0924H37.5568ZM41.0682 70.0924H42.0682V69.0924H41.0682V70.0924ZM41.0682 79.9219H40.0682V80.9219H41.0682V79.9219ZM42.2159 79.9219V80.9219H42.663L42.9611 80.5888L42.2159 79.9219ZM51.0114 70.0924V69.0924H50.5643L50.2661 69.4256L51.0114 70.0924ZM55.2955 70.0924L56.0413 70.7585L57.5294 69.0924H55.2955V70.0924ZM45.9886 80.5128L45.2428 79.8467L44.6967 80.4582L45.1892 81.1136L45.9886 80.5128ZM55.6477 93.3651V94.3651H57.6502L56.4471 92.7643L55.6477 93.3651ZM52.1638 92.7654L44.3457 82.3336L42.7452 83.533L50.5634 93.9648L52.1638 92.7654ZM43.5455 81.9333H41.0682V83.9333H43.5455V81.9333ZM40.0682 82.9333V93.3651H42.0682V82.9333H40.0682ZM41.0682 92.3651H37.5568V94.3651H41.0682V92.3651ZM38.5568 93.3651V70.0924H36.5568V93.3651H38.5568ZM37.5568 71.0924H41.0682V69.0924H37.5568V71.0924ZM40.0682 70.0924V79.9219H42.0682V70.0924H40.0682ZM41.0682 80.9219H42.2159V78.9219H41.0682V80.9219ZM42.9611 80.5888L51.7566 70.7592L50.2661 69.4256L41.4707 79.2551L42.9611 80.5888ZM51.0114 71.0924H55.2955V69.0924H51.0114V71.0924ZM54.5496 69.4263L45.2428 79.8467L46.7345 81.179L56.0413 70.7585L54.5496 69.4263ZM45.1892 81.1136L54.8483 93.9659L56.4471 92.7643L46.788 79.912L45.1892 81.1136ZM55.6477 92.3651H51.3636V94.3651H55.6477V92.3651ZM58.9006 93.3651H57.9006V94.3651H58.9006V93.3651ZM58.9006 70.0924V69.0924H57.9006V70.0924H58.9006ZM74.3665 73.7856L73.478 74.2445L73.4793 74.2469L74.3665 73.7856ZM74.3551 81.4901L73.4691 81.0265L73.4679 81.0288L74.3551 81.4901ZM71.6733 84.1947L72.158 85.0693L72.1599 85.0683L71.6733 84.1947ZM61.4801 85.1833H60.4801V86.1833H61.4801V85.1833ZM61.4801 82.206V81.206H60.4801V82.206H61.4801ZM69.6506 81.6151L70.1346 82.4902L70.1417 82.4862L69.6506 81.6151ZM69.6392 73.6833L69.1623 74.5623L69.1662 74.5644L69.6392 73.6833ZM62.4119 73.1037V72.1037H61.4119V73.1037H62.4119ZM62.4119 93.3651V94.3651H63.4119V93.3651H62.4119ZM59.9006 93.3651V70.0924H57.9006V93.3651H59.9006ZM58.9006 71.0924H67.196V69.0924H58.9006V71.0924ZM67.196 71.0924C68.8912 71.0924 70.2114 71.4016 71.2113 71.9557L72.1807 70.2063C70.8019 69.4423 69.122 69.0924 67.196 69.0924V71.0924ZM71.2113 71.9557C72.2383 72.5248 72.9829 73.2861 73.478 74.2445L75.2549 73.3266C74.5682 71.9972 73.5326 70.9555 72.1807 70.2063L71.2113 71.9557ZM73.4793 74.2469C73.9881 75.2254 74.2528 76.3446 74.2528 77.6265H76.2528C76.2528 76.0599 75.9267 74.6184 75.2537 73.3242L73.4793 74.2469ZM74.2528 77.6265C74.2528 78.9147 73.9848 80.0407 73.4691 81.0265L75.2412 81.9537C75.9224 80.6516 76.2528 79.2019 76.2528 77.6265H74.2528ZM73.4679 81.0288C72.9737 81.9792 72.2252 82.7426 71.1867 83.321L72.1599 85.0683C73.5154 84.3133 74.5547 83.2738 75.2423 81.9515L73.4679 81.0288ZM71.1886 83.32C70.1881 83.8744 68.8715 84.1833 67.1847 84.1833V86.1833C69.1039 86.1833 70.7797 85.8331 72.158 85.0693L71.1886 83.32ZM67.1847 84.1833H61.4801V86.1833H67.1847V84.1833ZM62.4801 85.1833V82.206H60.4801V85.1833H62.4801ZM61.4801 83.206H66.8665V81.206H61.4801V83.206ZM66.8665 83.206C68.1148 83.206 69.2264 82.9926 70.1346 82.4901L69.1665 80.7401C68.6505 81.0255 67.906 81.206 66.8665 81.206V83.206ZM70.1417 82.4862C71.0188 81.9917 71.6908 81.2997 72.119 80.4141L70.3185 79.5434C70.08 80.0366 69.7066 80.4355 69.1594 80.744L70.1417 82.4862ZM72.119 80.4141C72.527 79.5702 72.7188 78.6338 72.7188 77.6265H70.7188C70.7188 78.3768 70.5771 79.0085 70.3185 79.5434L72.119 80.4141ZM72.7188 77.6265C72.7188 76.6195 72.5271 75.685 72.1171 74.8464L70.3204 75.7248C70.577 76.2498 70.7188 76.8759 70.7188 77.6265H72.7188ZM72.1171 74.8464C71.6846 73.9617 71.0016 73.2797 70.1122 72.8022L69.1662 74.5644C69.7162 74.8596 70.0862 75.2458 70.3204 75.7248L72.1171 74.8464ZM70.1161 72.8043C69.2073 72.3112 68.0857 72.1037 66.821 72.1037V74.1037C67.8897 74.1037 68.6469 74.2826 69.1623 74.5623L70.1161 72.8043ZM66.821 72.1037H62.4119V74.1037H66.821V72.1037ZM61.4119 73.1037V93.3651H63.4119V73.1037H61.4119ZM62.4119 92.3651H58.9006V94.3651H62.4119V92.3651ZM81.017 93.6833H80.017V94.6833H81.017V93.6833ZM81.017 90.5924V89.5924H80.017V90.5924H81.017ZM83.858 90.2969L83.4038 89.406L83.3966 89.4097L83.858 90.2969ZM84.8011 89.5015L83.9947 88.9101L83.9924 88.9133L84.8011 89.5015ZM85.4261 88.3878L86.3497 88.7712L86.3527 88.7641L86.3555 88.757L85.4261 88.3878ZM85.7557 87.5583L86.685 87.9275L86.8447 87.5256L86.6612 87.1341L85.7557 87.5583ZM77.5739 70.0924V69.0924H76.0011L76.6683 70.5166L77.5739 70.0924ZM81.3011 70.0924L82.2118 69.6793L81.9456 69.0924H81.3011V70.0924ZM87.4034 83.5469L86.4927 83.96L87.4569 86.0858L88.3307 83.9213L87.4034 83.5469ZM92.8352 70.0924V69.0924H92.1605L91.9079 69.718L92.8352 70.0924ZM96.517 70.0924L97.4396 70.4782L98.0192 69.0924H96.517V70.0924ZM88.4716 89.331L89.3865 89.7347L89.3904 89.7258L89.3942 89.7168L88.4716 89.331ZM87.2898 91.4787L86.4621 90.9175L86.4577 90.924L87.2898 91.4787ZM85.5284 93.081L86.0079 93.9586L86.0148 93.9548L85.5284 93.081ZM82.017 93.6833V90.5924H80.017V93.6833H82.017ZM81.017 91.5924H82.4148V89.5924H81.017V91.5924ZM82.4148 91.5924C83.1028 91.5924 83.7555 91.4773 84.3193 91.1841L83.3966 89.4097C83.2028 89.5105 82.8934 89.5924 82.4148 89.5924V91.5924ZM84.3121 91.1878C84.8313 90.9231 85.2699 90.5571 85.6099 90.0896L83.9924 88.9133C83.8475 89.1125 83.6573 89.2768 83.4038 89.406L84.3121 91.1878ZM85.6075 90.0928C85.9061 89.6857 86.1533 89.2444 86.3497 88.7712L84.5025 88.0045C84.3656 88.3343 84.1962 88.6354 83.9947 88.9101L85.6075 90.0928ZM86.3555 88.757L86.685 87.9275L84.8263 87.1891L84.4968 88.0186L86.3555 88.757ZM86.6612 87.1341L78.4794 69.6682L76.6683 70.5166L84.8501 87.9825L86.6612 87.1341ZM77.5739 71.0924H81.3011V69.0924H77.5739V71.0924ZM80.3904 70.5054L86.4927 83.96L88.3141 83.1339L82.2118 69.6793L80.3904 70.5054ZM88.3307 83.9213L93.7625 70.4667L91.9079 69.718L86.4761 83.1726L88.3307 83.9213ZM92.8352 71.0924H96.517V69.0924H92.8352V71.0924ZM95.5945 69.7066L87.549 88.9452L89.3942 89.7168L97.4396 70.4782L95.5945 69.7066ZM87.5567 88.9274C87.2386 89.6484 86.8734 90.3111 86.4621 90.9175L88.1174 92.04C88.6001 91.3282 89.0228 90.5591 89.3865 89.7347L87.5567 88.9274ZM86.4577 90.924C86.112 91.4427 85.6467 91.8706 85.042 92.2073L86.0148 93.9548C86.8798 93.4732 87.5888 92.833 88.1218 92.0334L86.4577 90.924ZM85.0489 92.2035C84.5123 92.4967 83.7226 92.6833 82.608 92.6833V94.6833C83.9176 94.6833 85.0748 94.4684 86.0079 93.9586L85.0489 92.2035ZM82.608 92.6833H81.017V94.6833H82.608V92.6833Z" fill="white"/>
</svg>
