<svg width="61" height="61" viewBox="0 0 61 61" fill="none" xmlns="http://www.w3.org/2000/svg">
<rect x="0.830078" y="0.398438" width="60" height="60" rx="13.33" fill="#E1EFFE"/>
<path fill-rule="evenodd" clip-rule="evenodd" d="M30.4764 41.2612C24.1456 41.2612 17.7046 39.7748 17.7046 36.9672V13.2403C17.7046 11.9935 18.9748 11.0073 20.9414 10.296C22.2749 9.77744 23.9334 9.45794 25.5056 9.26116C27.0872 9.0523 28.7857 8.94629 30.4764 8.94629L30.5649 8.94639L30.6416 8.94629C31.7518 8.94629 40.4064 9.00711 42.5493 11.7369C42.9986 12.186 43.2482 12.6875 43.2482 13.2403V36.9672C43.2482 39.8299 36.8073 41.2612 30.4764 41.2612ZM41.7068 29.2371V29.8487V32.4622V33.7023V36.3158V36.9672C41.7068 36.994 41.7032 37.0216 41.6959 37.05C41.6957 37.0505 41.6956 37.0511 41.6954 37.0517C41.6921 37.0643 41.6881 37.0771 41.6834 37.09C41.6503 37.1804 41.5821 37.2781 41.4795 37.3808C41.3292 37.531 41.1051 37.6918 40.8089 37.8559C39.6111 38.5194 37.2343 39.237 33.7934 39.5293C33.7901 39.5296 33.7867 39.5299 33.7834 39.5302C33.7744 39.531 33.7655 39.5317 33.7566 39.5325C32.7524 39.6167 31.6581 39.6647 30.4764 39.6647C30.0222 39.6647 29.581 39.6579 29.1528 39.6447C27.9124 39.6067 26.7816 39.5162 25.7644 39.3886C21.6019 38.8666 19.3406 37.7237 19.2489 37.0117C19.247 36.9967 19.246 36.9819 19.246 36.9672V29.2583C19.3836 29.4019 19.529 29.5381 19.6813 29.6662C19.9081 29.8569 20.1505 30.0298 20.4063 30.1826C20.479 30.226 20.5527 30.2678 20.6275 30.308C20.6306 30.3096 20.6338 30.3113 20.6369 30.313C21.2052 30.6166 21.8333 30.8243 22.4999 30.9151C22.5071 30.9161 22.5142 30.917 22.5214 30.918C22.7645 30.9501 23.0126 30.9667 23.2647 30.9667C24.2694 30.9667 25.274 30.7121 26.1334 30.2028C26.4344 30.0244 26.7901 29.9559 27.131 30.0021C27.2153 30.0136 27.2986 30.032 27.38 30.0575C27.482 30.0894 27.5808 30.1325 27.6746 30.1868C28.3708 30.5898 29.1615 30.8528 29.9699 30.9372C30.1565 30.9567 30.344 30.9667 30.5315 30.9667C31.5395 30.9667 32.5154 30.6783 33.3616 30.1749C33.8183 29.9031 34.4012 29.9031 34.858 30.1749C34.9253 30.2149 34.9935 30.2536 35.0624 30.2909C35.6686 30.619 36.3346 30.8388 37.0268 30.9254C37.245 30.9526 37.4658 30.9667 37.6881 30.9667C37.7871 30.9667 37.8855 30.9641 37.9832 30.9589C39.4486 30.8816 40.7596 30.2317 41.7068 29.2371ZM41.7068 25.4065C41.7068 27.6086 39.8901 29.4253 37.6881 29.4253C36.5871 29.4253 35.4861 28.9848 34.7153 28.104C34.3898 27.7489 33.8298 27.7489 33.5042 28.104C32.7886 28.9298 31.6875 29.4253 30.5315 29.4253C29.3754 29.4253 28.2744 28.9298 27.5037 28.049C27.1781 27.6938 26.6181 27.6938 26.2925 28.049C25.5218 28.9298 24.4208 29.4253 23.2647 29.4253C21.0627 29.4253 19.246 27.6086 19.246 25.4065V14.9252C21.9989 17.151 29.6055 17.2039 30.6416 17.2039C31.6387 17.2039 38.7218 17.1549 41.7068 15.167V25.4065ZM20.419 13.0751C21.1652 13.7897 24.8214 14.9807 30.6416 14.9807C36.4617 14.9807 40.118 13.7897 40.8641 13.0751C40.118 12.3605 36.4617 11.1695 30.6416 11.1695C24.8214 11.1695 21.1652 12.2811 20.419 13.0751Z" fill="#0579F7"/>
<path d="M19.6823 35.0052C19.6823 35.5719 19.8467 35.8552 20.1755 35.8552C20.5044 35.8552 20.6688 35.5719 20.6688 35.0052C20.6688 34.4415 20.5044 34.1596 20.1755 34.1596C19.8467 34.1596 19.6823 34.4415 19.6823 35.0052Z" fill="#0579F7"/>
<path d="M19.3971 32.0016C19.7259 32.0016 19.8903 31.7183 19.8903 31.1517C19.8903 30.5879 19.7259 30.3061 19.3971 30.3061C19.3422 30.3061 19.2919 30.3139 19.2462 30.3296V31.978C19.2919 31.9938 19.3422 32.0016 19.3971 32.0016Z" fill="#0579F7"/>
<path d="M22.4305 35.0052C22.4305 35.5719 22.5949 35.8552 22.9238 35.8552C23.2526 35.8552 23.417 35.5719 23.417 35.0052C23.417 34.4415 23.2526 34.1596 22.9238 34.1596C22.5949 34.1596 22.4305 34.4415 22.4305 35.0052Z" fill="#0579F7"/>
<path d="M35.8062 35.0052C35.8062 35.5719 35.9706 35.8552 36.2994 35.8552C36.6283 35.8552 36.7927 35.5719 36.7927 35.0052C36.7927 34.4415 36.6283 34.1596 36.2994 34.1596C35.9706 34.1596 35.8062 34.4415 35.8062 35.0052Z" fill="#0579F7"/>
<path d="M40.5242 35.0052C40.5242 35.5719 40.6886 35.8552 41.0175 35.8552C41.3463 35.8552 41.5107 35.5719 41.5107 35.0052C41.5107 34.4415 41.3463 34.1596 41.0175 34.1596C40.6886 34.1596 40.5242 34.4415 40.5242 35.0052Z" fill="#0579F7"/>
<path d="M40.5242 31.1517C40.5242 31.7183 40.6886 32.0016 41.0175 32.0016C41.3463 32.0016 41.5107 31.7183 41.5107 31.1517C41.5107 30.5879 41.3463 30.3061 41.0175 30.3061C40.6886 30.3061 40.5242 30.5879 40.5242 31.1517Z" fill="#0579F7"/>
<path d="M33.8364 31.1517C33.8364 31.7183 34.0008 32.0016 34.3296 32.0016C34.6585 32.0016 34.8229 31.7183 34.8229 31.1517C34.8229 30.5879 34.6585 30.3061 34.3296 30.3061C34.0008 30.3061 33.8364 30.5879 33.8364 31.1517Z" fill="#0579F7"/>
<path d="M31.0881 31.1517C31.0881 31.7183 31.2526 32.0016 31.5814 32.0016C31.9102 32.0016 32.0746 31.7183 32.0746 31.1517C32.0746 30.9968 32.0622 30.8632 32.0374 30.7509C31.7315 30.8396 31.417 30.9023 31.0973 30.9365C31.0912 31.0029 31.0881 31.0747 31.0881 31.1517Z" fill="#0579F7"/>
<path d="M28.3399 31.1517C28.3399 31.7183 28.5043 32.0016 28.8331 32.0016C29.162 32.0016 29.3264 31.7183 29.3264 31.1517C29.3264 31.0303 29.3188 30.9219 29.3035 30.8267C29.0095 30.7597 28.7208 30.6697 28.4414 30.5585C28.3737 30.6982 28.3399 30.896 28.3399 31.1517Z" fill="#0579F7"/>
<path d="M21.8436 38.5779C21.7945 38.2014 21.6356 38.0132 21.3669 38.0132C21.1861 38.0132 21.055 38.0984 20.9736 38.2688C21.2348 38.3737 21.525 38.4774 21.8436 38.5779Z" fill="#0579F7"/>
<path d="M24.6084 38.8588C24.6084 38.2951 24.4439 38.0132 24.1151 38.0132C23.7863 38.0132 23.6218 38.2951 23.6218 38.8588C23.6218 38.9217 23.6239 38.9811 23.6279 39.037C23.9304 39.1001 24.2479 39.1599 24.5803 39.2157C24.599 39.1128 24.6084 38.9939 24.6084 38.8588Z" fill="#0579F7"/>
<path d="M27.3566 38.8588C27.3566 38.2951 27.1922 38.0132 26.8633 38.0132C26.5345 38.0132 26.3701 38.2951 26.3701 38.8588C26.3701 39.1251 26.4064 39.3289 26.4791 39.4701C26.7162 39.4944 26.9589 39.5168 27.2072 39.537C27.3068 39.3968 27.3566 39.1707 27.3566 38.8588Z" fill="#0579F7"/>
<path d="M32.0746 38.8588C32.0746 38.2951 31.9102 38.0132 31.5814 38.0132C31.2526 38.0132 31.0881 38.2951 31.0881 38.8588C31.0881 39.2836 31.1805 39.5492 31.3654 39.6555C31.5174 39.6523 31.6679 39.6484 31.8168 39.6436C31.9887 39.5301 32.0746 39.2685 32.0746 38.8588Z" fill="#0579F7"/>
<path d="M36.7927 38.8588C36.7927 38.2951 36.6283 38.0132 36.2994 38.0132C35.9706 38.0132 35.8062 38.2951 35.8062 38.8588C35.8062 39.0271 35.8207 39.1705 35.8497 39.2888C36.1717 39.24 36.481 39.1874 36.7774 39.1316C36.7876 39.0495 36.7927 38.9585 36.7927 38.8588Z" fill="#0579F7"/>
<path fill-rule="evenodd" clip-rule="evenodd" d="M36.6507 30.8648V30.6496L36.4747 30.8271C36.5331 30.8406 36.5918 30.8532 36.6507 30.8648ZM41.4795 37.3808C41.3292 37.531 41.1051 37.6918 40.8089 37.8559C40.8854 37.7459 40.9796 37.6486 41.0913 37.564C41.2002 37.4827 41.3208 37.424 41.453 37.3877C41.4618 37.3853 41.4706 37.383 41.4795 37.3808ZM23.6218 31.1517C23.6218 31.082 23.6244 31.0166 23.6294 30.9555C23.951 30.9357 24.2708 30.8897 24.584 30.8176C24.6002 30.915 24.6084 31.0264 24.6084 31.1517C24.6084 31.7183 24.4439 32.0016 24.1151 32.0016C23.7863 32.0016 23.6218 31.7183 23.6218 31.1517Z" fill="#0579F7"/>
<path d="M39.0477 38.0132C38.7469 38.0132 38.5836 38.2491 38.558 38.7209C38.8975 38.6259 39.2104 38.5273 39.4963 38.4267C39.4272 38.151 39.2776 38.0132 39.0477 38.0132Z" fill="#0579F7"/>
<path d="M41.7068 29.2371C41.5657 29.3853 41.4167 29.5258 41.2602 29.6579C41.4269 29.6884 41.5758 29.752 41.7068 29.8487L41.707 29.8488L41.7068 29.2371Z" fill="#0579F7"/>
<path d="M19.246 29.2583L19.2462 29.6445C19.2951 29.6393 19.3454 29.6367 19.3971 29.6367C19.4971 29.6367 19.5919 29.6465 19.6813 29.6662C19.529 29.5381 19.3836 29.4019 19.246 29.2583Z" fill="#0579F7"/>
<path d="M20.4063 30.1826C20.1505 30.0298 19.9081 29.8569 19.6813 29.6662C19.5919 29.6465 19.4971 29.6367 19.3971 29.6367C19.3454 29.6367 19.2951 29.6393 19.2462 29.6445V30.3296C19.2919 30.3139 19.3422 30.3061 19.3971 30.3061C19.7259 30.3061 19.8903 30.5879 19.8903 31.1517C19.8903 31.7183 19.7259 32.0016 19.3971 32.0016C19.3422 32.0016 19.2919 31.9938 19.2462 31.978V32.6632C19.2951 32.6685 19.3454 32.6711 19.3971 32.6711C19.6055 32.6711 19.7905 32.6285 19.952 32.5433C20.1164 32.4582 20.2485 32.3437 20.3483 32.1998C20.4511 32.056 20.5274 31.8959 20.5774 31.7198C20.6302 31.5407 20.6566 31.3513 20.6566 31.1517C20.6566 30.8815 20.6126 30.6349 20.5245 30.4118C20.4923 30.3303 20.4529 30.2539 20.4063 30.1826Z" fill="#0579F7"/>
<path d="M21.7181 32.6182H22.4756V30.9117C22.2168 30.8753 21.9639 30.8213 21.7181 30.7509V32.6182Z" fill="#0579F7"/>
<path d="M20.7933 30.6936L21.2249 31.1473L21.6404 30.728C21.4207 30.6615 21.2067 30.5819 20.9996 30.49L20.7933 30.6936Z" fill="#0579F7"/>
<path d="M23.6294 30.9555C23.5081 30.963 23.3863 30.9667 23.2647 30.9667C23.1299 30.9667 22.9963 30.9619 22.8639 30.9526C22.8583 31.0175 22.8555 31.0838 22.8555 31.1517C22.8555 31.3513 22.8805 31.5407 22.9304 31.7198C22.9833 31.8959 23.0596 32.056 23.1594 32.1998C23.2622 32.3437 23.3943 32.4582 23.5558 32.5433C23.7202 32.6285 23.9066 32.6711 24.1151 32.6711C24.3236 32.6711 24.5085 32.6285 24.67 32.5433C24.8344 32.4582 24.9666 32.3437 25.0664 32.1998C25.1691 32.056 25.2455 31.8959 25.2954 31.7198C25.3482 31.5407 25.3747 31.3513 25.3747 31.1517C25.3747 30.9553 25.3514 30.7714 25.3049 30.5999C25.0702 30.6885 24.8291 30.7611 24.584 30.8176C24.6002 30.915 24.6084 31.0264 24.6084 31.1517C24.6084 31.7183 24.4439 32.0016 24.1151 32.0016C23.7863 32.0016 23.6218 31.7183 23.6218 31.1517C23.6218 31.082 23.6244 31.0166 23.6294 30.9555Z" fill="#0579F7"/>
<path d="M27.1937 30.0119C27.1728 30.0082 27.1519 30.005 27.131 30.0021C26.7901 29.9559 26.4344 30.0244 26.1334 30.2028C26.0407 30.2577 25.9465 30.3097 25.8507 30.3586L25.5113 30.6936L25.9429 31.1473L26.4362 30.6496V32.6182H27.1937V30.0119Z" fill="#0579F7"/>
<path d="M30.084 30.9479C30.0459 30.9447 30.0079 30.9412 29.9699 30.9372C29.7459 30.9138 29.5232 30.8767 29.3035 30.8267C29.3188 30.9219 29.3264 31.0303 29.3264 31.1517C29.3264 31.7183 29.162 32.0016 28.8331 32.0016C28.5043 32.0016 28.3399 31.7183 28.3399 31.1517C28.3399 30.896 28.3737 30.6982 28.4414 30.5585C28.2153 30.4686 27.9954 30.3648 27.7836 30.2482C27.7542 30.3002 27.7282 30.3548 27.7057 30.4118C27.6176 30.6349 27.5736 30.8815 27.5736 31.1517C27.5736 31.3513 27.5985 31.5407 27.6484 31.7198C27.7013 31.8959 27.7776 32.056 27.8775 32.1998C27.9802 32.3437 28.1123 32.4582 28.2738 32.5433C28.4382 32.6285 28.6247 32.6711 28.8331 32.6711C29.0416 32.6711 29.2266 32.6285 29.3881 32.5433C29.5525 32.4582 29.6846 32.3437 29.7844 32.1998C29.8872 32.056 29.9635 31.8959 30.0134 31.7198C30.0663 31.5407 30.0927 31.3513 30.0927 31.1517C30.0927 31.0822 30.0898 31.0143 30.084 30.9479Z" fill="#0579F7"/>
<path d="M31.0973 30.9365C30.9103 30.9564 30.7214 30.9667 30.5315 30.9667C30.464 30.9667 30.3967 30.9654 30.3293 30.9628C30.3243 31.0244 30.3218 31.0874 30.3218 31.1517C30.3218 31.3513 30.3468 31.5407 30.3967 31.7198C30.4495 31.8959 30.5259 32.056 30.6257 32.1998C30.7285 32.3437 30.8606 32.4582 31.0221 32.5433C31.1865 32.6285 31.3729 32.6711 31.5814 32.6711C31.7898 32.6711 31.9748 32.6285 32.1363 32.5433C32.3007 32.4582 32.4328 32.3437 32.5327 32.1998C32.6354 32.056 32.7118 31.8959 32.7617 31.7198C32.8145 31.5407 32.841 31.3513 32.841 31.1517C32.841 30.9149 32.8071 30.6962 32.7395 30.4956C32.5117 30.5959 32.2772 30.6814 32.0374 30.7509C32.0622 30.8632 32.0746 30.9968 32.0746 31.1517C32.0746 31.7183 31.9102 32.0016 31.5814 32.0016C31.2526 32.0016 31.0881 31.7183 31.0881 31.1517C31.0881 31.0747 31.0912 31.0029 31.0973 30.9365Z" fill="#0579F7"/>
<path fill-rule="evenodd" clip-rule="evenodd" d="M34.858 30.1749C34.4012 29.9031 33.8183 29.9031 33.3616 30.1749C33.342 30.1865 33.3226 30.198 33.303 30.2093C33.264 30.2729 33.2304 30.3404 33.2022 30.4118C33.1141 30.6349 33.0701 30.8815 33.0701 31.1517C33.0701 31.3513 33.095 31.5407 33.1449 31.7198C33.1978 31.8959 33.2741 32.056 33.374 32.1998C33.4767 32.3437 33.6088 32.4582 33.7703 32.5433C33.9347 32.6285 34.1212 32.6711 34.3296 32.6711C34.5381 32.6711 34.7231 32.6285 34.8846 32.5433C35.049 32.4582 35.1811 32.3437 35.2809 32.1998C35.3837 32.056 35.46 31.8959 35.5099 31.7198C35.5628 31.5407 35.5892 31.3513 35.5892 31.1517C35.5892 30.9164 35.5558 30.699 35.489 30.4994C35.3439 30.4358 35.2016 30.3662 35.0624 30.2909C34.9935 30.2536 34.9253 30.2149 34.858 30.1749ZM34.3296 32.0016C34.0008 32.0016 33.8364 31.7183 33.8364 31.1517C33.8364 30.5879 34.0008 30.3061 34.3296 30.3061C34.6585 30.3061 34.8229 30.5879 34.8229 31.1517C34.8229 31.7183 34.6585 32.0016 34.3296 32.0016Z" fill="#0579F7"/>
<path d="M36.6507 32.6182H37.4082V30.9593C37.2803 30.9525 37.1531 30.9412 37.0268 30.9254C36.9005 30.9096 36.7751 30.8893 36.6507 30.8648V32.6182Z" fill="#0579F7"/>
<path d="M38.6205 32.6182H39.378V30.7029C39.1326 30.7818 38.8796 30.844 38.6205 30.8881V32.6182Z" fill="#0579F7"/>
<path fill-rule="evenodd" clip-rule="evenodd" d="M41.7068 32.4622V29.8487C41.5758 29.752 41.4269 29.6884 41.2602 29.6579C40.8388 30.0135 40.3639 30.3082 39.849 30.5274C39.7883 30.7193 39.7579 30.9274 39.7579 31.1517C39.7579 31.3513 39.7829 31.5407 39.8328 31.7198C39.8856 31.8959 39.962 32.056 40.0618 32.1998C40.1645 32.3437 40.2967 32.4582 40.4582 32.5433C40.6226 32.6285 40.809 32.6711 41.0175 32.6711C41.2259 32.6711 41.4109 32.6285 41.5724 32.5433C41.6199 32.5187 41.6647 32.4917 41.7068 32.4622ZM41.0175 32.0016C40.6886 32.0016 40.5242 31.7183 40.5242 31.1517C40.5242 30.5879 40.6886 30.3061 41.0175 30.3061C41.3463 30.3061 41.5107 30.5879 41.5107 31.1517C41.5107 31.7183 41.3463 32.0016 41.0175 32.0016Z" fill="#0579F7"/>
<path d="M35.7258 30.6936L36.1574 31.1473L36.4747 30.8271C36.2442 30.7737 36.0177 30.7056 35.7967 30.6237L35.7258 30.6936Z" fill="#0579F7"/>
<path fill-rule="evenodd" clip-rule="evenodd" d="M41.0175 36.5246C41.2259 36.5246 41.4109 36.4821 41.5724 36.3969C41.6199 36.3723 41.6647 36.3453 41.7068 36.3158V33.7023C41.5152 33.5609 41.2854 33.4902 41.0175 33.4902C40.7444 33.4902 40.5095 33.5636 40.3128 33.7104C40.119 33.8572 39.9781 34.0422 39.89 34.2653C39.8019 34.4885 39.7579 34.7351 39.7579 35.0052C39.7579 35.2049 39.7829 35.3943 39.8328 35.5734C39.8856 35.7495 39.962 35.9095 40.0618 36.0534C40.1645 36.1973 40.2967 36.3118 40.4582 36.3969C40.6226 36.4821 40.809 36.5246 41.0175 36.5246ZM41.0175 35.8552C40.6886 35.8552 40.5242 35.5719 40.5242 35.0052C40.5242 34.4415 40.6886 34.1596 41.0175 34.1596C41.3463 34.1596 41.5107 34.4415 41.5107 35.0052C41.5107 35.5719 41.3463 35.8552 41.0175 35.8552Z" fill="#0579F7"/>
<path d="M39.378 36.4718H38.6205V34.5032L38.1272 35.0008L37.6956 34.5472L38.7218 33.5343H39.378V36.4718Z" fill="#0579F7"/>
<path fill-rule="evenodd" clip-rule="evenodd" d="M36.8543 36.3969C36.6929 36.4821 36.5079 36.5246 36.2994 36.5246C36.091 36.5246 35.9045 36.4821 35.7401 36.3969C35.5786 36.3118 35.4465 36.1973 35.3437 36.0534C35.2439 35.9095 35.1676 35.7495 35.1147 35.5734C35.0648 35.3943 35.0399 35.2049 35.0399 35.0052C35.0399 34.7351 35.0839 34.4885 35.172 34.2653C35.2601 34.0422 35.401 33.8572 35.5948 33.7104C35.7915 33.5636 36.0264 33.4902 36.2994 33.4902C36.5725 33.4902 36.8059 33.5636 36.9997 33.7104C37.1964 33.8572 37.3388 34.0422 37.4269 34.2653C37.515 34.4885 37.559 34.7351 37.559 35.0052C37.559 35.2049 37.5326 35.3943 37.4797 35.5734C37.4298 35.7495 37.3535 35.9095 37.2507 36.0534C37.1509 36.1973 37.0188 36.3118 36.8543 36.3969ZM36.2994 35.8552C35.9706 35.8552 35.8062 35.5719 35.8062 35.0052C35.8062 34.4415 35.9706 34.1596 36.2994 34.1596C36.6283 34.1596 36.7927 34.4415 36.7927 35.0052C36.7927 35.5719 36.6283 35.8552 36.2994 35.8552Z" fill="#0579F7"/>
<path d="M34.6599 36.4718H33.9024V34.5032L33.4092 35.0008L32.9776 34.5472L34.0037 33.5343H34.6599V36.4718Z" fill="#0579F7"/>
<path fill-rule="evenodd" clip-rule="evenodd" d="M32.1363 36.3969C31.9748 36.4821 31.7898 36.5246 31.5814 36.5246C31.3729 36.5246 31.1865 36.4821 31.0221 36.3969C30.8606 36.3118 30.7285 36.1973 30.6257 36.0534C30.5259 35.9095 30.4495 35.7495 30.3967 35.5734C30.3468 35.3943 30.3218 35.2049 30.3218 35.0052C30.3218 34.7351 30.3659 34.4885 30.4539 34.2653C30.542 34.0422 30.683 33.8572 30.8767 33.7104C31.0735 33.5636 31.3083 33.4902 31.5814 33.4902C31.8544 33.4902 32.0879 33.5636 32.2816 33.7104C32.4784 33.8572 32.6208 34.0422 32.7088 34.2653C32.7969 34.4885 32.841 34.7351 32.841 35.0052C32.841 35.2049 32.8145 35.3943 32.7617 35.5734C32.7118 35.7495 32.6354 35.9095 32.5327 36.0534C32.4328 36.1973 32.3007 36.3118 32.1363 36.3969ZM31.5814 35.8552C31.2526 35.8552 31.0881 35.5719 31.0881 35.0052C31.0881 34.4415 31.2526 34.1596 31.5814 34.1596C31.9102 34.1596 32.0746 34.4415 32.0746 35.0052C32.0746 35.5719 31.9102 35.8552 31.5814 35.8552Z" fill="#0579F7"/>
<path d="M31.0881 35.0052C31.0881 35.5719 31.2526 35.8552 31.5814 35.8552C31.9102 35.8552 32.0746 35.5719 32.0746 35.0052C32.0746 34.4415 31.9102 34.1596 31.5814 34.1596C31.2526 34.1596 31.0881 34.4415 31.0881 35.0052Z" fill="#0579F7"/>
<path d="M29.9419 36.4718H29.1844V34.5032L28.6911 35.0008L28.2595 34.5472L29.2857 33.5343H29.9419V36.4718Z" fill="#0579F7"/>
<path d="M27.9721 36.4718H27.2146V34.5032L26.7214 35.0008L26.2898 34.5472L27.3159 33.5343H27.9721V36.4718Z" fill="#0579F7"/>
<path d="M26.0023 36.4718H25.2448V34.5032L24.7516 35.0008L24.32 34.5472L25.3461 33.5343H26.0023V36.4718Z" fill="#0579F7"/>
<path fill-rule="evenodd" clip-rule="evenodd" d="M23.4787 36.3969C23.3172 36.4821 23.1322 36.5246 22.9238 36.5246C22.7153 36.5246 22.5289 36.4821 22.3644 36.3969C22.203 36.3118 22.0708 36.1973 21.9681 36.0534C21.8683 35.9095 21.7919 35.7495 21.7391 35.5734C21.6892 35.3943 21.6642 35.2049 21.6642 35.0052C21.6642 34.7351 21.7082 34.4885 21.7963 34.2653C21.8844 34.0422 22.0253 33.8572 22.2191 33.7104C22.4158 33.5636 22.6507 33.4902 22.9238 33.4902C23.1968 33.4902 23.4302 33.5636 23.624 33.7104C23.8207 33.8572 23.9631 34.0422 24.0512 34.2653C24.1393 34.4885 24.1833 34.7351 24.1833 35.0052C24.1833 35.2049 24.1569 35.3943 24.1041 35.5734C24.0541 35.7495 23.9778 35.9095 23.875 36.0534C23.7752 36.1973 23.6431 36.3118 23.4787 36.3969ZM22.9238 35.8552C22.5949 35.8552 22.4305 35.5719 22.4305 35.0052C22.4305 34.4415 22.5949 34.1596 22.9238 34.1596C23.2526 34.1596 23.417 34.4415 23.417 35.0052C23.417 35.5719 23.2526 35.8552 22.9238 35.8552Z" fill="#0579F7"/>
<path fill-rule="evenodd" clip-rule="evenodd" d="M20.1755 36.5246C20.384 36.5246 20.5689 36.4821 20.7304 36.3969C20.8948 36.3118 21.027 36.1973 21.1268 36.0534C21.2296 35.9095 21.3059 35.7495 21.3558 35.5734C21.4087 35.3943 21.4351 35.2049 21.4351 35.0052C21.4351 34.7351 21.391 34.4885 21.303 34.2653C21.2149 34.0422 21.0725 33.8572 20.8758 33.7104C20.682 33.5636 20.4486 33.4902 20.1755 33.4902C19.9025 33.4902 19.6676 33.5636 19.4709 33.7104C19.3858 33.7749 19.3109 33.8467 19.2462 33.9259V36.0888C19.3448 36.2162 19.4682 36.3189 19.6162 36.3969C19.7806 36.4821 19.9671 36.5246 20.1755 36.5246ZM20.1755 35.8552C19.8467 35.8552 19.6823 35.5719 19.6823 35.0052C19.6823 34.4415 19.8467 34.1596 20.1755 34.1596C20.5044 34.1596 20.6688 34.4415 20.6688 35.0052C20.6688 35.5719 20.5044 35.8552 20.1755 35.8552Z" fill="#0579F7"/>
<path d="M21.3669 37.3438C21.0938 37.3438 20.8589 37.4172 20.6622 37.564C20.5138 37.6764 20.3964 37.8113 20.3099 37.9685C20.5049 38.0688 20.7263 38.1694 20.9736 38.2688C21.055 38.0984 21.1861 38.0132 21.3669 38.0132C21.6356 38.0132 21.7945 38.2014 21.8436 38.5779C22.0877 38.6549 22.3485 38.73 22.6258 38.8026C22.6201 38.5544 22.5762 38.3265 22.4943 38.1189C22.4062 37.8958 22.2638 37.7108 22.0671 37.564C21.8733 37.4172 21.6399 37.3438 21.3669 37.3438Z" fill="#0579F7"/>
<path fill-rule="evenodd" clip-rule="evenodd" d="M33.7934 39.5293C33.7901 39.5296 33.7867 39.5299 33.7834 39.5302C33.7744 39.531 33.7655 39.5317 33.7566 39.5325C33.7689 39.5314 33.7811 39.5304 33.7934 39.5293ZM37.7889 38.9184V38.9184ZM40.1897 38.157V38.157ZM41.4795 37.3808L41.4796 37.3807C41.5823 37.2781 41.6503 37.1804 41.6834 37.09C41.6503 37.1804 41.5821 37.2781 41.4795 37.3808ZM41.7068 33.7023L41.707 33.7024V32.4621L41.7068 32.4622V33.7023ZM35.489 30.4994V30.4994ZM27.7836 30.2482V30.2482Z" fill="#0579F7"/>
<path fill-rule="evenodd" clip-rule="evenodd" d="M19.246 36.9672C19.246 36.9819 19.247 36.9967 19.2489 37.0117C19.2638 37.1272 19.3359 37.2541 19.4639 37.3878H19.7274V37.6152C19.884 37.7308 20.0784 37.8495 20.3099 37.9685C20.3964 37.8113 20.5138 37.6764 20.6622 37.564C20.8589 37.4172 21.0938 37.3438 21.3669 37.3438C21.6399 37.3438 21.8733 37.4172 22.0671 37.564C22.2638 37.7108 22.4062 37.8958 22.4943 38.1189C22.5762 38.3265 22.6201 38.5544 22.6258 38.8026C22.7011 38.8223 22.7777 38.8418 22.8555 38.8611L22.8555 38.8588C22.8555 38.5887 22.8996 38.342 22.9877 38.1189C23.0757 37.8958 23.2167 37.7108 23.4104 37.564C23.6072 37.4172 23.842 37.3438 24.1151 37.3438C24.3882 37.3438 24.6216 37.4172 24.8153 37.564C25.0121 37.7108 25.1545 37.8958 25.2425 38.1189C25.3306 38.342 25.3747 38.5887 25.3747 38.8588C25.3747 39.0227 25.3569 39.1797 25.3212 39.3297C25.4344 39.3456 25.549 39.3611 25.6652 39.376C25.6243 39.2121 25.6038 39.0396 25.6038 38.8588C25.6038 38.5887 25.6478 38.342 25.7359 38.1189C25.824 37.8958 25.9649 37.7108 26.1587 37.564C26.3554 37.4172 26.5903 37.3438 26.8633 37.3438C27.1364 37.3438 27.3698 37.4172 27.5636 37.564C27.7603 37.7108 27.9027 37.8958 27.9908 38.1189C28.0789 38.342 28.1229 38.5887 28.1229 38.8588C28.1229 39.0584 28.0965 39.2478 28.0436 39.4269C28.0276 39.4837 28.0088 39.5387 27.9872 39.5921C28.3642 39.6147 28.7528 39.6325 29.1528 39.6447C29.1633 39.6451 29.1738 39.6454 29.1844 39.6457V38.3567L28.6911 38.8544L28.2595 38.4008L29.2857 37.3878H29.9419V39.6615C30.1181 39.6637 30.2962 39.6647 30.4764 39.6647H30.4868C30.4516 39.589 30.4215 39.5098 30.3967 39.4269C30.3468 39.2478 30.3218 39.0584 30.3218 38.8588C30.3218 38.5887 30.3659 38.342 30.4539 38.1189C30.542 37.8958 30.683 37.7108 30.8767 37.564C31.0735 37.4172 31.3083 37.3438 31.5814 37.3438C31.8544 37.3438 32.0879 37.4172 32.2816 37.564C32.4784 37.7108 32.6208 37.8958 32.7088 38.1189C32.7969 38.342 32.841 38.5887 32.841 38.8588C32.841 39.0584 32.8145 39.2478 32.7617 39.4269C32.7443 39.4884 32.7236 39.5479 32.6998 39.6054C33.0624 39.5856 33.4147 39.5611 33.7566 39.5325L33.7834 39.5302C33.7867 39.5299 33.7901 39.5296 33.7934 39.5293C33.8299 39.5263 33.8662 39.5231 33.9024 39.5199V38.3567L33.4092 38.8544L32.9776 38.4008L34.0037 37.3878H34.6599V39.4445C34.8107 39.4278 34.9592 39.4102 35.1053 39.3918C35.0617 39.2231 35.0399 39.0455 35.0399 38.8588C35.0399 38.5887 35.0839 38.342 35.172 38.1189C35.2601 37.8958 35.401 37.7108 35.5948 37.564C35.7915 37.4172 36.0264 37.3438 36.2994 37.3438C36.5725 37.3438 36.8059 37.4172 36.9997 37.564C37.1964 37.7108 37.3388 37.8958 37.4269 38.1189C37.515 38.342 37.559 38.5887 37.559 38.8588C37.559 38.8921 37.5583 38.9251 37.5568 38.9578C37.5567 38.9609 37.5565 38.9641 37.5563 38.9672L37.5561 38.9718C37.6348 38.9542 37.7124 38.9364 37.7889 38.9184C37.7884 38.8986 37.7881 38.8788 37.7881 38.8588C37.7881 38.5887 37.8322 38.342 37.9202 38.1189C38.0083 37.8958 38.1492 37.7108 38.343 37.564C38.5397 37.4172 38.7746 37.3438 39.0477 37.3438C39.3207 37.3438 39.5541 37.4172 39.7479 37.564C39.9446 37.7108 40.087 37.8958 40.1751 38.1189C40.1801 38.1315 40.185 38.1442 40.1897 38.157C40.4224 38.0565 40.6289 37.9556 40.8089 37.8559C40.8854 37.7459 40.9796 37.6486 41.0913 37.564C41.2002 37.4827 41.3208 37.424 41.453 37.3877C41.4618 37.3853 41.4706 37.383 41.4795 37.3808C41.5821 37.2781 41.6503 37.1804 41.6834 37.09C41.6881 37.0771 41.6921 37.0643 41.6954 37.0517L41.6959 37.05C41.7032 37.0216 41.7068 36.994 41.7068 36.9672V36.3158C41.6647 36.3453 41.6199 36.3723 41.5724 36.3969C41.4109 36.4821 41.2259 36.5246 41.0175 36.5246C40.809 36.5246 40.6226 36.4821 40.4582 36.3969C40.2967 36.3118 40.1645 36.1973 40.0618 36.0534C39.962 35.9095 39.8856 35.7495 39.8328 35.5734C39.7829 35.3943 39.7579 35.2049 39.7579 35.0052C39.7579 34.7351 39.8019 34.4885 39.89 34.2653C39.9781 34.0422 40.119 33.8572 40.3128 33.7104C40.5095 33.5636 40.7444 33.4902 41.0175 33.4902C41.2854 33.4902 41.5152 33.5609 41.7068 33.7023V32.4622C41.6647 32.4917 41.6199 32.5187 41.5724 32.5433C41.4109 32.6285 41.2259 32.6711 41.0175 32.6711C40.809 32.6711 40.6226 32.6285 40.4582 32.5433C40.2967 32.4582 40.1645 32.3437 40.0618 32.1998C39.962 32.056 39.8856 31.8959 39.8328 31.7198C39.7829 31.5407 39.7579 31.3513 39.7579 31.1517C39.7579 30.9274 39.7883 30.7193 39.849 30.5274C39.6954 30.5927 39.5383 30.6514 39.378 30.7029V32.6182H38.6205V30.8881C38.5293 30.9037 38.4373 30.917 38.3445 30.928L38.1272 31.1473L37.9496 30.9606C37.863 30.9646 37.7757 30.9667 37.6881 30.9667C37.5944 30.9667 37.5012 30.9642 37.4082 30.9593V32.6182H36.6507V30.8648C36.5918 30.8532 36.5331 30.8406 36.4747 30.8271L36.1574 31.1473L35.7258 30.6936L35.7967 30.6237C35.6929 30.5853 35.5903 30.5438 35.489 30.4994C35.5558 30.699 35.5892 30.9164 35.5892 31.1517C35.5892 31.3513 35.5628 31.5407 35.5099 31.7198C35.46 31.8959 35.3837 32.056 35.2809 32.1998C35.1811 32.3437 35.049 32.4582 34.8846 32.5433C34.7231 32.6285 34.5381 32.6711 34.3296 32.6711C34.1212 32.6711 33.9347 32.6285 33.7703 32.5433C33.6088 32.4582 33.4767 32.3437 33.374 32.1998C33.2741 32.056 33.1978 31.8959 33.1449 31.7198C33.095 31.5407 33.0701 31.3513 33.0701 31.1517C33.0701 30.8815 33.1141 30.6349 33.2022 30.4118C33.2304 30.3404 33.264 30.2729 33.303 30.2093C33.1207 30.3149 32.9325 30.4106 32.7395 30.4956C32.8071 30.6962 32.841 30.9149 32.841 31.1517C32.841 31.3513 32.8145 31.5407 32.7617 31.7198C32.7118 31.8959 32.6354 32.056 32.5327 32.1998C32.4328 32.3437 32.3007 32.4582 32.1363 32.5433C31.9748 32.6285 31.7898 32.6711 31.5814 32.6711C31.3729 32.6711 31.1865 32.6285 31.0221 32.5433C30.8606 32.4582 30.7285 32.3437 30.6257 32.1998C30.5259 32.056 30.4495 31.8959 30.3967 31.7198C30.3468 31.5407 30.3218 31.3513 30.3218 31.1517C30.3218 31.0874 30.3243 31.0244 30.3293 30.9628C30.2474 30.9597 30.1656 30.9547 30.084 30.9479C30.0898 31.0143 30.0927 31.0822 30.0927 31.1517C30.0927 31.3513 30.0663 31.5407 30.0134 31.7198C29.9635 31.8959 29.8872 32.056 29.7844 32.1998C29.6846 32.3437 29.5525 32.4582 29.3881 32.5433C29.2266 32.6285 29.0416 32.6711 28.8331 32.6711C28.6247 32.6711 28.4382 32.6285 28.2738 32.5433C28.1123 32.4582 27.9802 32.3437 27.8775 32.1998C27.7776 32.056 27.7013 31.8959 27.6484 31.7198C27.5985 31.5407 27.5736 31.3513 27.5736 31.1517C27.5736 30.8815 27.6176 30.6349 27.7057 30.4118C27.7282 30.3548 27.7542 30.3002 27.7836 30.2482C27.747 30.2281 27.7106 30.2076 27.6746 30.1868C27.5808 30.1325 27.482 30.0894 27.38 30.0575C27.3189 30.0383 27.2566 30.0231 27.1937 30.0119V32.6182H26.4362V30.6496L25.9429 31.1473L25.5113 30.6936L25.8507 30.3586C25.6735 30.4492 25.4912 30.5296 25.3049 30.5999C25.3514 30.7714 25.3747 30.9553 25.3747 31.1517C25.3747 31.3513 25.3482 31.5407 25.2954 31.7198C25.2455 31.8959 25.1691 32.056 25.0664 32.1998C24.9666 32.3437 24.8344 32.4582 24.67 32.5433C24.5085 32.6285 24.3236 32.6711 24.1151 32.6711C23.9066 32.6711 23.7202 32.6285 23.5558 32.5433C23.3943 32.4582 23.2622 32.3437 23.1594 32.1998C23.0596 32.056 22.9833 31.8959 22.9304 31.7198C22.8805 31.5407 22.8555 31.3513 22.8555 31.1517C22.8555 31.0838 22.8583 31.0175 22.8639 30.9526C22.7487 30.9445 22.6345 30.9329 22.5214 30.918C22.5142 30.917 22.5071 30.9161 22.4999 30.9151C22.4918 30.914 22.4837 30.9129 22.4756 30.9117V32.6182H21.7181V30.7509C21.6921 30.7434 21.6662 30.7358 21.6404 30.728L21.2249 31.1473L20.7933 30.6936L20.9996 30.49C20.8762 30.4352 20.7552 30.3762 20.6369 30.313C20.6338 30.3113 20.6306 30.3096 20.6275 30.308C20.5527 30.2678 20.479 30.226 20.4063 30.1826C20.4529 30.2539 20.4923 30.3303 20.5245 30.4118C20.6126 30.6349 20.6566 30.8815 20.6566 31.1517C20.6566 31.3513 20.6302 31.5407 20.5774 31.7198C20.5274 31.8959 20.4511 32.056 20.3483 32.1998C20.2485 32.3437 20.1164 32.4582 19.952 32.5433C19.7905 32.6285 19.6055 32.6711 19.3971 32.6711C19.3454 32.6711 19.2951 32.6685 19.2462 32.6632V33.9259C19.3109 33.8467 19.3858 33.7749 19.4709 33.7104C19.6676 33.5636 19.9025 33.4902 20.1755 33.4902C20.4486 33.4902 20.682 33.5636 20.8758 33.7104C21.0725 33.8572 21.2149 34.0422 21.303 34.2653C21.391 34.4885 21.4351 34.7351 21.4351 35.0052C21.4351 35.2049 21.4087 35.3943 21.3558 35.5734C21.3059 35.7495 21.2296 35.9095 21.1268 36.0534C21.027 36.1973 20.8948 36.3118 20.7304 36.3969C20.5689 36.4821 20.384 36.5246 20.1755 36.5246C19.9671 36.5246 19.7806 36.4821 19.6162 36.3969C19.4682 36.3189 19.3448 36.2162 19.2462 36.0888L19.246 36.9672ZM22.9238 36.5246C23.1322 36.5246 23.3172 36.4821 23.4787 36.3969C23.6431 36.3118 23.7752 36.1973 23.875 36.0534C23.9778 35.9095 24.0541 35.7495 24.1041 35.5734C24.1569 35.3943 24.1833 35.2049 24.1833 35.0052C24.1833 34.7351 24.1393 34.4885 24.0512 34.2653C23.9631 34.0422 23.8207 33.8572 23.624 33.7104C23.4302 33.5636 23.1968 33.4902 22.9238 33.4902C22.6507 33.4902 22.4158 33.5636 22.2191 33.7104C22.0253 33.8572 21.8844 34.0422 21.7963 34.2653C21.7082 34.4885 21.6642 34.7351 21.6642 35.0052C21.6642 35.2049 21.6892 35.3943 21.7391 35.5734C21.7919 35.7495 21.8683 35.9095 21.9681 36.0534C22.0708 36.1973 22.203 36.3118 22.3644 36.3969C22.5289 36.4821 22.7153 36.5246 22.9238 36.5246ZM25.2448 36.4718H26.0023V33.5343H25.3461L24.32 34.5472L24.7516 35.0008L25.2448 34.5032V36.4718ZM27.2146 36.4718H27.9721V33.5343H27.3159L26.2898 34.5472L26.7214 35.0008L27.2146 34.5032V36.4718ZM29.1844 36.4718H29.9419V33.5343H29.2857L28.2595 34.5472L28.6911 35.0008L29.1844 34.5032V36.4718ZM31.5814 36.5246C31.7898 36.5246 31.9748 36.4821 32.1363 36.3969C32.3007 36.3118 32.4328 36.1973 32.5327 36.0534C32.6354 35.9095 32.7118 35.7495 32.7617 35.5734C32.8145 35.3943 32.841 35.2049 32.841 35.0052C32.841 34.7351 32.7969 34.4885 32.7088 34.2653C32.6208 34.0422 32.4784 33.8572 32.2816 33.7104C32.0879 33.5636 31.8544 33.4902 31.5814 33.4902C31.3083 33.4902 31.0735 33.5636 30.8767 33.7104C30.683 33.8572 30.542 34.0422 30.4539 34.2653C30.3659 34.4885 30.3218 34.7351 30.3218 35.0052C30.3218 35.2049 30.3468 35.3943 30.3967 35.5734C30.4495 35.7495 30.5259 35.9095 30.6257 36.0534C30.7285 36.1973 30.8606 36.3118 31.0221 36.3969C31.1865 36.4821 31.3729 36.5246 31.5814 36.5246ZM33.9024 36.4718H34.6599V33.5343H34.0037L32.9776 34.5472L33.4092 35.0008L33.9024 34.5032V36.4718ZM36.2994 36.5246C36.5079 36.5246 36.6929 36.4821 36.8543 36.3969C37.0188 36.3118 37.1509 36.1973 37.2507 36.0534C37.3535 35.9095 37.4298 35.7495 37.4797 35.5734C37.5326 35.3943 37.559 35.2049 37.559 35.0052C37.559 34.7351 37.515 34.4885 37.4269 34.2653C37.3388 34.0422 37.1964 33.8572 36.9997 33.7104C36.8059 33.5636 36.5725 33.4902 36.2994 33.4902C36.0264 33.4902 35.7915 33.5636 35.5948 33.7104C35.401 33.8572 35.2601 34.0422 35.172 34.2653C35.0839 34.4885 35.0399 34.7351 35.0399 35.0052C35.0399 35.2049 35.0648 35.3943 35.1147 35.5734C35.1676 35.7495 35.2439 35.9095 35.3437 36.0534C35.4465 36.1973 35.5786 36.3118 35.7401 36.3969C35.9045 36.4821 36.091 36.5246 36.2994 36.5246ZM38.6205 36.4718H39.378V33.5343H38.7218L37.6956 34.5472L38.1272 35.0008L38.6205 34.5032V36.4718Z" fill="#0579F7"/>
<path d="M22.9877 38.1189C22.8996 38.342 22.8555 38.5887 22.8555 38.8588L22.8555 38.8611C23.1009 38.922 23.3584 38.9808 23.6279 39.037C23.6239 38.9811 23.6218 38.9217 23.6218 38.8588C23.6218 38.2951 23.7863 38.0132 24.1151 38.0132C24.4439 38.0132 24.6084 38.2951 24.6084 38.8588C24.6084 38.9939 24.599 39.1128 24.5803 39.2157C24.8196 39.2559 25.0666 39.294 25.3212 39.3297C25.3569 39.1797 25.3747 39.0227 25.3747 38.8588C25.3747 38.5887 25.3306 38.342 25.2425 38.1189C25.1545 37.8958 25.0121 37.7108 24.8153 37.564C24.6216 37.4172 24.3882 37.3438 24.1151 37.3438C23.842 37.3438 23.6072 37.4172 23.4104 37.564C23.2167 37.7108 23.0757 37.8958 22.9877 38.1189Z" fill="#0579F7"/>
<path d="M25.7359 38.1189C25.6478 38.342 25.6038 38.5887 25.6038 38.8588C25.6038 39.0396 25.6243 39.2121 25.6652 39.376C25.6982 39.3803 25.7312 39.3845 25.7644 39.3886C25.9967 39.4178 26.235 39.445 26.4791 39.4701C26.4064 39.3289 26.3701 39.1251 26.3701 38.8588C26.3701 38.2951 26.5345 38.0132 26.8633 38.0132C27.1922 38.0132 27.3566 38.2951 27.3566 38.8588C27.3566 39.1707 27.3068 39.3968 27.2072 39.537C27.4614 39.5577 27.7214 39.5761 27.9872 39.5921C28.0088 39.5387 28.0276 39.4837 28.0436 39.4269C28.0965 39.2478 28.1229 39.0584 28.1229 38.8588C28.1229 38.5887 28.0789 38.342 27.9908 38.1189C27.9027 37.8958 27.7603 37.7108 27.5636 37.564C27.3698 37.4172 27.1364 37.3438 26.8633 37.3438C26.5903 37.3438 26.3554 37.4172 26.1587 37.564C25.9649 37.7108 25.824 37.8958 25.7359 38.1189Z" fill="#0579F7"/>
<path d="M28.6911 38.8544L29.1844 38.3567V39.6457C29.4325 39.6531 29.6851 39.6584 29.9419 39.6615V37.3878H29.2857L28.2595 38.4008L28.6911 38.8544Z" fill="#0579F7"/>
<path d="M30.3218 38.8588C30.3218 39.0584 30.3468 39.2478 30.3967 39.4269C30.4215 39.5098 30.4516 39.589 30.4868 39.6647C30.7853 39.6647 31.0781 39.6615 31.3654 39.6555C31.1805 39.5492 31.0881 39.2836 31.0881 38.8588C31.0881 38.2951 31.2526 38.0132 31.5814 38.0132C31.9102 38.0132 32.0746 38.2951 32.0746 38.8588C32.0746 39.2685 31.9887 39.5301 31.8168 39.6436C32.1176 39.634 32.4119 39.6212 32.6998 39.6054C32.7236 39.5479 32.7443 39.4884 32.7617 39.4269C32.8145 39.2478 32.841 39.0584 32.841 38.8588C32.841 38.5887 32.7969 38.342 32.7088 38.1189C32.6208 37.8958 32.4784 37.7108 32.2816 37.564C32.0879 37.4172 31.8544 37.3438 31.5814 37.3438C31.3083 37.3438 31.0735 37.4172 30.8767 37.564C30.683 37.7108 30.542 37.8958 30.4539 38.1189C30.3659 38.342 30.3218 38.5887 30.3218 38.8588Z" fill="#0579F7"/>
<path d="M33.4092 38.8544L33.9024 38.3567V39.5199C34.1611 39.4971 34.4136 39.4719 34.6599 39.4445V37.3878H34.0037L32.9776 38.4008L33.4092 38.8544Z" fill="#0579F7"/>
<path d="M35.172 38.1189C35.0839 38.342 35.0399 38.5887 35.0399 38.8588C35.0399 39.0455 35.0617 39.2231 35.1053 39.3918C35.3605 39.3598 35.6087 39.3253 35.8497 39.2888C35.8207 39.1705 35.8062 39.0271 35.8062 38.8588C35.8062 38.2951 35.9706 38.0132 36.2994 38.0132C36.6283 38.0132 36.7927 38.2951 36.7927 38.8588C36.7927 38.9585 36.7876 39.0495 36.7774 39.1316C37.0477 39.0808 37.3073 39.0274 37.5561 38.9718L37.5563 38.9672L37.5568 38.9578C37.5583 38.9251 37.559 38.8921 37.559 38.8588C37.559 38.5887 37.515 38.342 37.4269 38.1189C37.3388 37.8958 37.1964 37.7108 36.9997 37.564C36.8059 37.4172 36.5725 37.3438 36.2994 37.3438C36.0264 37.3438 35.7915 37.4172 35.5948 37.564C35.401 37.7108 35.2601 37.8958 35.172 38.1189Z" fill="#0579F7"/>
<path d="M37.9202 38.1189C37.8322 38.342 37.7881 38.5887 37.7881 38.8588C37.7881 38.8788 37.7884 38.8986 37.7889 38.9184C38.0587 38.8549 38.3152 38.7888 38.558 38.7209C38.5836 38.2491 38.7469 38.0132 39.0477 38.0132C39.2776 38.0132 39.4272 38.151 39.4963 38.4267C39.7486 38.3379 39.9798 38.2476 40.1897 38.157C40.185 38.1442 40.1801 38.1315 40.1751 38.1189C40.087 37.8958 39.9446 37.7108 39.7479 37.564C39.5541 37.4172 39.3207 37.3438 39.0477 37.3438C38.7746 37.3438 38.5397 37.4172 38.343 37.564C38.1492 37.7108 38.0083 37.8958 37.9202 38.1189Z" fill="#0579F7"/>
<path d="M19.7274 37.3878H19.4639C19.5347 37.4618 19.6226 37.5378 19.7274 37.6152V37.3878Z" fill="#0579F7"/>
<path d="M38.3445 30.928C38.2252 30.9422 38.1047 30.9525 37.9832 30.9589C37.972 30.9595 37.9608 30.9601 37.9496 30.9606L38.1272 31.1473L38.3445 30.928Z" fill="#0579F7"/>
<path d="M13.349 49.2065C12.9538 49.6059 12.4494 49.8056 11.8359 49.8056C11.2224 49.8056 10.718 49.6059 10.3227 49.2065C9.92743 48.803 9.72979 48.2924 9.72979 47.6748C9.72979 47.0571 9.92743 46.5486 10.3227 46.1492C10.718 45.7457 11.2224 45.544 11.8359 45.544C12.4494 45.544 12.9538 45.7457 13.349 46.1492C13.7443 46.5486 13.942 47.0571 13.942 47.6748C13.942 48.2924 13.7443 48.803 13.349 49.2065ZM11.8359 49.1632C12.2435 49.1632 12.5729 49.0232 12.8241 48.7433C13.0752 48.4591 13.2008 48.103 13.2008 47.6748C13.2008 47.2424 13.0752 46.8863 12.8241 46.6063C12.5729 46.3263 12.2435 46.1863 11.8359 46.1863C11.4241 46.1863 11.0927 46.3263 10.8415 46.6063C10.5945 46.8863 10.4709 47.2424 10.4709 47.6748C10.4709 48.1071 10.5945 48.4633 10.8415 48.7433C11.0927 49.0232 11.4241 49.1632 11.8359 49.1632ZM15.6938 49.8056C15.1092 49.8056 14.6521 49.645 14.3227 49.3238L14.6254 48.91C14.8971 49.1529 15.2533 49.2744 15.6938 49.2744C15.9203 49.2744 16.0973 49.2394 16.225 49.1694C16.3567 49.0953 16.4226 48.9965 16.4226 48.873C16.4226 48.6136 16.1612 48.4839 15.6382 48.4839H15.0021V47.965H15.6382C15.8647 47.965 16.0418 47.9321 16.1694 47.8662C16.3012 47.8004 16.367 47.7036 16.367 47.5759C16.367 47.4689 16.2991 47.3804 16.1632 47.3104C16.0274 47.2404 15.8565 47.2054 15.6506 47.2054C15.2512 47.2054 14.9321 47.3248 14.6933 47.5636L14.3721 47.1683C14.6892 46.843 15.105 46.6804 15.6197 46.6804C16.0603 46.6763 16.4062 46.7483 16.6573 46.8966C16.9126 47.0407 17.0402 47.2383 17.0402 47.4895C17.0402 47.6789 16.96 47.8395 16.7994 47.9712C16.6429 48.0989 16.4597 48.1771 16.2497 48.2059C16.4597 48.2224 16.6532 48.2924 16.8303 48.4159C17.0114 48.5394 17.102 48.7083 17.102 48.9224C17.102 49.1818 16.9744 49.3938 16.7191 49.5585C16.4679 49.7232 16.1262 49.8056 15.6938 49.8056ZM19.1328 49.8056C18.6799 49.8056 18.3052 49.6614 18.0088 49.3732C17.7164 49.0809 17.5702 48.7021 17.5702 48.2368C17.5702 47.8004 17.7123 47.4318 17.9964 47.1313C18.2846 46.8266 18.647 46.6742 19.0834 46.6742C19.524 46.6742 19.8781 46.8266 20.1457 47.1313C20.4175 47.436 20.5534 47.8251 20.5534 48.2986V48.453H18.2496C18.2743 48.6877 18.3711 48.8832 18.5399 49.0397C18.7087 49.1962 18.929 49.2744 19.2008 49.2744C19.3531 49.2744 19.5055 49.2456 19.6578 49.1879C19.8143 49.1303 19.944 49.05 20.0469 48.9471L20.3434 49.3732C20.0428 49.6614 19.6393 49.8056 19.1328 49.8056ZM19.9234 47.9959C19.9151 47.7901 19.839 47.6068 19.6949 47.4462C19.5549 47.2857 19.3511 47.2054 19.0834 47.2054C18.8281 47.2054 18.6284 47.2857 18.4843 47.4462C18.3402 47.6027 18.2599 47.7859 18.2435 47.9959H19.9234ZM22.7993 49.8056C22.404 49.8056 22.0849 49.6429 21.842 49.3176V50.8679H21.1935V46.7483H21.842V47.156C22.0808 46.8348 22.3999 46.6742 22.7993 46.6742C23.1904 46.6742 23.5075 46.8142 23.7504 47.0942C23.9975 47.3742 24.121 47.7551 24.121 48.2368C24.121 48.7185 23.9975 49.1015 23.7504 49.3856C23.5075 49.6656 23.1904 49.8056 22.7993 49.8056ZM22.6078 49.2312C22.8631 49.2312 23.0669 49.1385 23.2193 48.9532C23.3716 48.768 23.4478 48.5291 23.4478 48.2368C23.4478 47.9445 23.3716 47.7077 23.2193 47.5265C23.0669 47.3413 22.8631 47.2486 22.6078 47.2486C22.4596 47.2486 22.3134 47.2877 22.1693 47.366C22.0252 47.4442 21.9161 47.5389 21.842 47.6501V48.8297C21.9161 48.9409 22.0252 49.0356 22.1693 49.1138C22.3134 49.1921 22.4596 49.2312 22.6078 49.2312ZM26.1105 49.8056C25.6493 49.8056 25.2788 49.6553 24.9988 49.3547C24.7188 49.05 24.5788 48.6774 24.5788 48.2368C24.5788 47.7962 24.7188 47.4257 24.9988 47.1251C25.2788 46.8245 25.6493 46.6742 26.1105 46.6742C26.5758 46.6742 26.9484 46.8245 27.2284 47.1251C27.5084 47.4257 27.6484 47.7962 27.6484 48.2368C27.6484 48.6815 27.5084 49.0541 27.2284 49.3547C26.9484 49.6553 26.5758 49.8056 26.1105 49.8056ZM26.1105 49.2312C26.3781 49.2312 26.5881 49.1365 26.7405 48.9471C26.8969 48.7535 26.9752 48.5168 26.9752 48.2368C26.9752 47.9609 26.8969 47.7283 26.7405 47.5389C26.5881 47.3454 26.3781 47.2486 26.1105 47.2486C25.847 47.2486 25.637 47.3454 25.4805 47.5389C25.3282 47.7283 25.252 47.9609 25.252 48.2368C25.252 48.5168 25.3282 48.7535 25.4805 48.9471C25.637 49.1365 25.847 49.2312 26.1105 49.2312ZM29.582 50.4911V49.1941C29.722 49.1612 29.827 49.0809 29.897 48.9532C29.9711 48.8215 30.0308 48.5703 30.0761 48.1997L30.2552 46.7483H32.5589V49.1632H32.8863V50.4911H32.2378V49.7314H30.2305V50.4911H29.582ZM30.8296 47.3165L30.7246 48.2739C30.6834 48.6691 30.5517 48.9656 30.3293 49.1632H31.9104V47.3165H30.8296ZM35.8897 49.7314H35.2412V49.4103C35.0106 49.6738 34.6895 49.8056 34.2777 49.8056C34.006 49.8056 33.7651 49.7191 33.5551 49.5462C33.3451 49.3691 33.2401 49.1262 33.2401 48.8174C33.2401 48.5003 33.343 48.2594 33.5489 48.0947C33.7589 47.9301 34.0018 47.8477 34.2777 47.8477C34.7018 47.8477 35.023 47.9753 35.2412 48.2306V47.7859C35.2412 47.613 35.1774 47.4771 35.0497 47.3783C34.9221 47.2795 34.7533 47.2301 34.5433 47.2301C34.2098 47.2301 33.9154 47.3557 33.6601 47.6068L33.3945 47.156C33.7321 46.8348 34.1501 46.6742 34.6483 46.6742C35.0147 46.6742 35.3133 46.7607 35.5438 46.9336C35.7744 47.1066 35.8897 47.3804 35.8897 47.7551V49.7314ZM34.5309 49.3609C34.8562 49.3609 35.093 49.2579 35.2412 49.0521V48.6012C35.093 48.3953 34.8562 48.2924 34.5309 48.2924C34.3457 48.2924 34.1933 48.3418 34.0739 48.4406C33.9545 48.5394 33.8948 48.6691 33.8948 48.8297C33.8948 48.9903 33.9545 49.12 34.0739 49.2188C34.1933 49.3135 34.3457 49.3609 34.5309 49.3609ZM37.379 49.7314H36.7305V46.7483H37.379V47.9218H38.7501V46.7483H39.3986V49.7314H38.7501V48.49H37.379V49.7314ZM40.8893 49.7314H40.2408V46.7483H40.8893V47.9218H42.2604V46.7483H42.9089V49.7314H42.2604V48.49H40.8893V49.7314ZM43.7511 46.7483H44.3996V47.8292H45.4557C45.7728 47.8292 46.0157 47.9198 46.1845 48.1009C46.3575 48.2821 46.4439 48.5086 46.4439 48.7803C46.4439 49.0479 46.3554 49.2744 46.1784 49.4597C46.0054 49.6409 45.7646 49.7314 45.4557 49.7314H43.7511V46.7483ZM45.3754 48.3974H44.3996V49.1632H45.3754C45.5031 49.1632 45.6019 49.1282 45.6719 49.0582C45.746 48.9882 45.7831 48.8956 45.7831 48.7803C45.7831 48.665 45.746 48.5724 45.6719 48.5024C45.6019 48.4324 45.5031 48.3974 45.3754 48.3974ZM47.5433 49.7314H46.8948V46.7483H47.5433V49.7314ZM50.9958 49.7314H50.267L49.495 48.6321L48.7168 49.7314H47.9942L49.0874 48.1997L48.0559 46.7483H48.7847L49.495 47.7612L50.1991 46.7483H50.9279L49.8964 48.1997L50.9958 49.7314Z" fill="#0579F7"/>
</svg>
