<svg width="91" height="91" viewBox="0 0 91 91" fill="none" xmlns="http://www.w3.org/2000/svg">
<path fill-rule="evenodd" clip-rule="evenodd" d="M57 57V34H34V57H57ZM58 33H33V58H58V33Z" fill="black"/>
<path fill-rule="evenodd" clip-rule="evenodd" d="M91 46H58V45H91L91 46Z" fill="black"/>
<path fill-rule="evenodd" clip-rule="evenodd" d="M52 46H39V45H52V46Z" fill="black"/>
<path fill-rule="evenodd" clip-rule="evenodd" d="M0 45H33V46H0V45Z" fill="black"/>
<path d="M57.1122 62.5223H60.4822V69.1923H57.2022C56.6089 69.1923 56.1455 69.029 55.8122 68.7023C55.4722 68.3823 55.3022 67.979 55.3022 67.4923C55.3022 67.0923 55.4155 66.7523 55.6422 66.4723C55.8622 66.199 56.1355 66.029 56.4622 65.9623C56.1022 65.909 55.7989 65.7223 55.5522 65.4023C55.2989 65.089 55.1722 64.729 55.1722 64.3223C55.1722 63.789 55.3455 63.3556 55.6922 63.0223C56.0322 62.689 56.5055 62.5223 57.1122 62.5223ZM57.4422 66.4323C57.1489 66.4323 56.9189 66.5123 56.7522 66.6723C56.5855 66.8323 56.5022 67.039 56.5022 67.2923C56.5022 67.5523 56.5855 67.7623 56.7522 67.9223C56.9189 68.0823 57.1489 68.1623 57.4422 68.1623H59.3122V66.4323H57.4422ZM57.3922 63.5523C57.0722 63.5523 56.8222 63.6323 56.6422 63.7923C56.4622 63.959 56.3722 64.189 56.3722 64.4823C56.3722 64.7423 56.4622 64.959 56.6422 65.1323C56.8222 65.3123 57.0722 65.4023 57.3922 65.4023H59.3122V63.5523H57.3922Z" fill="black"/>
<path d="M48.1878 62.5223H49.3578V65.4323H52.8278V62.5223H53.9978V69.1923H52.8278V66.4623H49.3578V69.1923H48.1878V62.5223Z" fill="black"/>
<line x1="33.3536" y1="33.6464" x2="57.3536" y2="57.6464" stroke="black"/>
</svg>
