<svg height="2048" width="2048" xmlns="http://www.w3.org/2000/svg"><path d="m1024.0215 99.355469c-19.3234-.016932-38.64591 7.149111-52.98048 21.550781l-850.10352 850.11133c-28.66915 28.66788-28.536351 77.29502.13281 105.96292l849.97071 849.9648c28.66915 28.6776 77.29378 28.8033 105.96288 0l850.1055-850.0996c28.6691-28.6679 28.5364-77.29696-.1348-105.96484l-849.9726-849.97461c-14.3346-14.33394-33.6571-21.533849-52.9805-21.550781zm-.0645 126.044921 798.6602 798.66601-798.6602 798.6563-798.66012-798.6563zm-18.8789 392.36133-.0019.41601c0 .00968-8.36696 1.54883-8.37112 1.54883-.01 0-6.8522 4.64453-6.85742 4.64453-.01 0-4.76342 7.0625-4.76758 7.0625 0 .00968-1.61028 8.41797-1.61328 8.41797v286.24219l-202.64063-202.63867h.00977c-.01001 0-7.19583-4.64453-7.19922-4.64453-.01196 0-8.01684-1.62688-8.07813-1.63867-.07751.01219-8.31518 1.54296-8.31836 1.54296-.00999-.00967-7.06584 4.74024-7.06835 4.74024l-26.63282 26.61719s-4.86045 7.16015-4.86133 7.16015c-.00999 0-1.5041 8.22266-1.5039 8.22266.0002.00967 1.61378 8.12695 1.61523 8.12695.00021.00968 4.61243 7.16016 4.61524 7.16016l202.53906 202.54297h-286.45703l-.05664-.06836c0 .00967-8.33159 1.83789-8.33594 1.83789-.00999.00967-6.85092 4.64453-6.85547 4.64453v-.04883c-.00999.00968-4.76313 7.06445-4.76758 7.06445-.00999 0-1.61194 8.41606-1.61523 8.41606v37.666s1.60063 8.5156 1.6582 8.5156c0 .0194 4.74561 6.8691 4.7461 6.8691.01 0 6.89425 4.6446 6.89648 4.6446.01.0193 8.36732 1.8379 8.37109 1.8379h286.35938l-202.36719 202.3671v-.0761c-.01.0097-4.86007 7.1601-4.86133 7.1601-.01.0097-1.50586 8.2227-1.50586 8.2227.00021.0193 1.61603 8.1269 1.61719 8.1269 0 0 4.63062 7.1602 4.61524 7.1602l26.63671 26.6172c.01.0097 7.27806 4.7402 7.28125 4.7402 0 0 8.10404 1.6446 8.10743 1.6446.01199 0 8.21254-1.5469 8.21679-1.5469 0 0 7.17132-4.8379 7.17383-4.8379l202.66797-202.668v286.8613l-.05273-.0566c0 .0097 1.66004 8.5137 1.6582 8.5137 0 .0097 4.74414 6.8691 4.74414 6.8691.00999.0097 6.89474 4.6445 6.89648 4.6445 0 0 8.30856 1.7412 8.37106 1.8379l37.6543-.0097c.01 0 8.5313-1.7403 8.5371-1.7403 0 0 6.8507-4.6445 6.8555-4.6445.01-.0097 4.7413-6.8691 4.7461-6.8691 0 0 1.6329-8.5157 1.6367-8.5157v-286.6972l202.5235 202.5136c-.01.0194 7.2754 4.7403 7.2793 4.7403.0099.0097 8.1064 1.5488 8.1093 1.5488.012 0 8.212-1.5488 8.2168-1.5488 0 0 7.171-4.8379 7.1758-4.8379l26.625-26.6348c.0101 0 4.7193-7.0644 4.7793-7.0644-.0002-.0194 1.6403-8.3193 1.5996-8.416-.0002-.0097-1.6172-8.1289-1.6191-8.1289-.012.0096-4.7135-7.2559-4.7754-7.2559l-202.0156-202.0293h285.957c.01.0097 8.5313-1.7422 8.5351-1.7422.01 0 6.8526-4.6445 6.8555-4.6445.01-.0194 4.7403-6.8692 4.7461-6.8692 0 0 1.6329-8.5136 1.6367-8.5136v-37.6563c0-.0097-1.6259-8.3212-1.623-8.41795-.0101-.00968-4.7213-7.0625-4.7793-7.0625-.0101-.00968-6.8955-4.64453-6.8984-4.64453 0 .00967-8.5079-1.83699-8.5118-1.74024h-286.8242l202.9258-202.91992c.01-.00968 4.7174-7.06445 4.7773-7.06445-.0002-.01935 1.6426-8.32032 1.6426-8.32032-.0002-.00967-1.6162-8.12695-1.6172-8.12695-.01-.00967-4.8457-7.16016-4.8476-7.16016l-26.6309-26.63671c-.01 0-7.042-4.74024-7.0449-4.74024-.0101-.00967-8.1065-1.54687-8.1113-1.54687-.012 0-8.3467 1.54687-8.3496 1.54687-.0101.00968-7.0665 4.74024-7.0684 4.74024l-202.6719 202.66992v-286.26367c0-.00968-1.6259-8.32122-1.623-8.41797-.01-.01935-4.7207-7.0625-4.7207-7.0625-.01-.00968-6.8946-4.64453-6.8965-4.64453-.01 0-8.5313-1.64454-8.5332-1.64454zm-239.51951 99.41016c.00031-.00005.03316-.00586.03321-.00586h-.0625c.00001 0 .02907.00581.02929.00586z" transform="matrix(1.00000018909 0 0 1.00000018909 .00001499425 .00459879149)"/></svg>