<?xml version="1.0" encoding="UTF-8"?>
<svg width="700pt" height="700pt" version="1.1" viewBox="0 0 700 700" xmlns="http://www.w3.org/2000/svg" xmlns:xlink="http://www.w3.org/1999/xlink">
 <defs>
  <symbol id="t" overflow="visible">
   <path d="m3.6562-0.21875c-0.1875 0.09375-0.38672 0.16797-0.59375 0.21875-0.19922 0.050781-0.40625 0.078125-0.625 0.078125-0.66797 0-1.1992-0.17969-1.5938-0.54688-0.38672-0.375-0.57812-0.87891-0.57812-1.5156 0-0.64453 0.19141-1.1484 0.57812-1.5156 0.39453-0.375 0.92578-0.5625 1.5938-0.5625 0.21875 0 0.42578 0.027344 0.625 0.078125 0.20703 0.054687 0.40625 0.125 0.59375 0.21875v0.82812c-0.1875-0.125-0.375-0.21875-0.5625-0.28125-0.17969-0.0625-0.37109-0.09375-0.57812-0.09375-0.36719 0-0.65625 0.12109-0.875 0.35938-0.21094 0.23047-0.3125 0.55469-0.3125 0.96875 0 0.40625 0.10156 0.73047 0.3125 0.96875 0.21875 0.23047 0.50781 0.34375 0.875 0.34375 0.20703 0 0.39844-0.023437 0.57812-0.078125 0.1875-0.0625 0.375-0.16016 0.5625-0.29688z"/>
  </symbol>
  <symbol id="d" overflow="visible">
   <path d="m2.6875-2.1719c-0.085938-0.039063-0.16797-0.070313-0.25-0.09375-0.085938-0.019531-0.16797-0.03125-0.25-0.03125-0.25 0-0.44531 0.085937-0.57812 0.25-0.125 0.15625-0.1875 0.38281-0.1875 0.67188v1.375h-0.96875v-2.9844h0.96875v0.48438c0.11328-0.19531 0.25-0.33594 0.40625-0.42188 0.16406-0.09375 0.35938-0.14062 0.57812-0.14062h0.10938c0.039063 0 0.09375 0.007812 0.15625 0.015625z"/>
  </symbol>
  <symbol id="a" overflow="visible">
   <path d="m3.4375-1.5v0.26562h-2.2344c0.03125 0.23047 0.11328 0.40234 0.25 0.51562 0.13281 0.10547 0.32812 0.15625 0.57812 0.15625 0.20703 0 0.41406-0.023438 0.625-0.078125 0.20703-0.0625 0.42188-0.15625 0.64062-0.28125v0.73438c-0.21875 0.09375-0.44531 0.16406-0.67188 0.20312-0.23047 0.039062-0.45312 0.0625-0.67188 0.0625-0.54297 0-0.96484-0.13281-1.2656-0.40625-0.30469-0.28125-0.45312-0.67188-0.45312-1.1719 0-0.47656 0.14453-0.85938 0.4375-1.1406 0.30078-0.28125 0.70703-0.42188 1.2188-0.42188 0.46875 0 0.84375 0.14062 1.125 0.42188s0.42188 0.66406 0.42188 1.1406zm-0.96875-0.32812c0-0.17578-0.058594-0.31641-0.17188-0.42188-0.10547-0.11328-0.24219-0.17188-0.40625-0.17188-0.1875 0-0.33984 0.054687-0.45312 0.15625-0.11719 0.10547-0.1875 0.25-0.21875 0.4375z"/>
  </symbol>
  <symbol id="j" overflow="visible">
   <path d="m1.7969-1.3438c-0.19922 0-0.35156 0.039062-0.45312 0.10938-0.09375 0.0625-0.14062 0.16406-0.14062 0.29688 0 0.11719 0.035156 0.21094 0.10938 0.28125 0.082031 0.0625 0.19531 0.09375 0.34375 0.09375 0.17578 0 0.32812-0.0625 0.45312-0.1875s0.1875-0.28516 0.1875-0.48438v-0.10938zm1.4688-0.35938v1.7031h-0.96875v-0.4375c-0.125 0.17969-0.27344 0.30859-0.4375 0.39062-0.15625 0.082031-0.35156 0.125-0.57812 0.125-0.3125 0-0.57031-0.085938-0.76562-0.26562-0.1875-0.1875-0.28125-0.42188-0.28125-0.70312 0-0.35156 0.11719-0.61328 0.35938-0.78125 0.23828-0.16406 0.61719-0.25 1.1406-0.25h0.5625v-0.0625c0-0.15625-0.0625-0.26562-0.1875-0.32812-0.11719-0.070312-0.29688-0.10938-0.54688-0.10938-0.21094 0-0.40234 0.023437-0.57812 0.0625-0.17969 0.042969-0.33984 0.10156-0.48438 0.17188v-0.71875c0.19531-0.050781 0.39844-0.085938 0.60938-0.10938 0.20703-0.03125 0.41406-0.046875 0.625-0.046875 0.53906 0 0.92969 0.10938 1.1719 0.32812 0.23828 0.21094 0.35938 0.55469 0.35938 1.0312z"/>
  </symbol>
  <symbol id="c" overflow="visible">
   <path d="m1.5-3.8438v0.85938h0.98438v0.67188h-0.98438v1.2812c0 0.13672 0.023438 0.23047 0.078125 0.28125 0.0625 0.042969 0.17578 0.0625 0.34375 0.0625h0.48438v0.6875h-0.8125c-0.38672 0-0.65625-0.078125-0.8125-0.23438s-0.23438-0.42188-0.23438-0.79688v-1.2812h-0.46875v-0.67188h0.46875v-0.85938z"/>
  </symbol>
  <symbol id="i" overflow="visible">
   <path d="m2.5-2.5469v-1.6094h0.95312v4.1562h-0.95312v-0.4375c-0.13672 0.17969-0.28125 0.30859-0.4375 0.39062-0.15625 0.082031-0.33984 0.125-0.54688 0.125-0.375 0-0.68359-0.14453-0.92188-0.4375-0.23047-0.28906-0.34375-0.67188-0.34375-1.1406 0-0.45703 0.11328-0.83203 0.34375-1.125 0.23828-0.28906 0.54688-0.4375 0.92188-0.4375 0.19531 0 0.375 0.042969 0.53125 0.125 0.16406 0.085938 0.31641 0.21484 0.45312 0.39062zm-0.64062 1.9375c0.20703 0 0.36328-0.070313 0.46875-0.21875 0.11328-0.15625 0.17188-0.37891 0.17188-0.67188 0-0.28125-0.058594-0.49219-0.17188-0.64062-0.10547-0.15625-0.26172-0.23438-0.46875-0.23438-0.19922 0-0.35547 0.078125-0.46875 0.23438-0.10547 0.14844-0.15625 0.35938-0.15625 0.64062 0 0.29297 0.050781 0.51562 0.15625 0.67188 0.11328 0.14844 0.26953 0.21875 0.46875 0.21875z"/>
  </symbol>
  <symbol id="h" overflow="visible">
   <path d="m2.0469-0.60938c0.20703 0 0.36328-0.070313 0.46875-0.21875 0.11328-0.15625 0.17188-0.37891 0.17188-0.67188 0-0.28125-0.058594-0.49219-0.17188-0.64062-0.10547-0.15625-0.26172-0.23438-0.46875-0.23438-0.19922 0-0.35547 0.078125-0.46875 0.23438-0.10547 0.14844-0.15625 0.35938-0.15625 0.64062 0 0.29297 0.050781 0.51562 0.15625 0.67188 0.11328 0.14844 0.26953 0.21875 0.46875 0.21875zm-0.625-1.9375c0.125-0.17578 0.26562-0.30469 0.42188-0.39062 0.16406-0.082031 0.35156-0.125 0.5625-0.125 0.36328 0 0.66406 0.14844 0.90625 0.4375 0.23828 0.29297 0.35938 0.66797 0.35938 1.125 0 0.46875-0.12109 0.85156-0.35938 1.1406-0.24219 0.29297-0.54297 0.4375-0.90625 0.4375-0.21094 0-0.39844-0.042969-0.5625-0.125-0.15625-0.082031-0.29688-0.21094-0.42188-0.39062v0.4375h-0.96875v-4.1562h0.96875z"/>
  </symbol>
  <symbol id="g" overflow="visible">
   <path d="m0.0625-2.9844h0.95312l0.8125 2.0156 0.6875-2.0156h0.95312l-1.2656 3.2656c-0.125 0.33203-0.27344 0.56641-0.4375 0.70312-0.16797 0.13281-0.39062 0.20312-0.67188 0.20312h-0.54688v-0.64062h0.29688c0.16406 0 0.28516-0.027344 0.35938-0.078125 0.070313-0.054688 0.12891-0.14062 0.17188-0.26562l0.03125-0.09375z"/>
  </symbol>
  <symbol id="f" overflow="visible">
   <path d="m0.5-3.9844h1.0312v3.5938c0 0.5-0.13672 0.86719-0.40625 1.1094-0.27344 0.25-0.67969 0.375-1.2188 0.375h-0.21875v-0.78125h0.17188c0.20703 0 0.36328-0.0625 0.46875-0.1875 0.11328-0.11719 0.17188-0.28516 0.17188-0.51562z"/>
  </symbol>
  <symbol id="s" overflow="visible">
   <path d="m0.45312-2.9844h0.96875v2.9844h-0.96875zm0-1.1719h0.96875v0.78125h-0.96875z"/>
  </symbol>
  <symbol id="e" overflow="visible">
   <path d="m3.4688-1.8281v1.8281h-0.96875v-1.3906c0-0.25781-0.007812-0.4375-0.015625-0.53125-0.011719-0.10156-0.03125-0.17578-0.0625-0.21875-0.03125-0.0625-0.085937-0.10938-0.15625-0.14062-0.0625-0.039062-0.13281-0.0625-0.20312-0.0625-0.21094 0-0.37109 0.078125-0.48438 0.23438-0.10547 0.15625-0.15625 0.37109-0.15625 0.64062v1.4688h-0.96875v-2.9844h0.96875v0.4375c0.13281-0.17578 0.28516-0.30469 0.45312-0.39062 0.16406-0.082031 0.34375-0.125 0.53125-0.125 0.34375 0 0.60156 0.10938 0.78125 0.32812 0.1875 0.21094 0.28125 0.51172 0.28125 0.90625z"/>
  </symbol>
  <symbol id="b" overflow="visible">
   <path d="m1.875-2.375c-0.21094 0-0.37109 0.078125-0.48438 0.23438-0.10547 0.14844-0.15625 0.35938-0.15625 0.64062 0 0.29297 0.050781 0.51562 0.15625 0.67188 0.11328 0.14844 0.27344 0.21875 0.48438 0.21875 0.20703 0 0.36719-0.070313 0.48438-0.21875 0.11328-0.15625 0.17188-0.37891 0.17188-0.67188 0-0.28125-0.058594-0.49219-0.17188-0.64062-0.11719-0.15625-0.27734-0.23438-0.48438-0.23438zm0-0.6875c0.51953 0 0.92188 0.14062 1.2031 0.42188 0.28906 0.27344 0.4375 0.65234 0.4375 1.1406 0 0.5-0.14844 0.89062-0.4375 1.1719-0.28125 0.27344-0.68359 0.40625-1.2031 0.40625-0.51172 0-0.91406-0.13281-1.2031-0.40625-0.29297-0.28125-0.4375-0.67188-0.4375-1.1719 0-0.48828 0.14453-0.86719 0.4375-1.1406 0.28906-0.28125 0.69141-0.42188 1.2031-0.42188z"/>
  </symbol>
  <symbol id="r" overflow="visible">
   <path d="m2.4219-4.1562v0.625h-0.51562c-0.13672 0-0.23438 0.027344-0.29688 0.078125-0.054687 0.054687-0.078125 0.13672-0.078125 0.25v0.21875h0.82812v0.67188h-0.82812v2.3125h-0.95312v-2.3125h-0.46875v-0.67188h0.46875v-0.21875c0-0.32031 0.085937-0.5625 0.26562-0.71875 0.1875-0.15625 0.47266-0.23438 0.85938-0.23438z"/>
  </symbol>
  <symbol id="q" overflow="visible">
   <path d="m3.2344-2.5c0.11328-0.17578 0.25391-0.3125 0.42188-0.40625 0.16406-0.10156 0.35156-0.15625 0.5625-0.15625 0.33203 0 0.58594 0.10938 0.76562 0.32812 0.1875 0.21094 0.28125 0.51172 0.28125 0.90625v1.8281h-0.96875v-1.5625c0.007813-0.019531 0.015625-0.039062 0.015625-0.0625v-0.10938c0-0.21875-0.03125-0.375-0.09375-0.46875s-0.16406-0.14062-0.29688-0.14062c-0.1875 0-0.33594 0.078125-0.4375 0.23438-0.09375 0.14844-0.14062 0.35938-0.14062 0.64062v1.4688h-0.96875v-1.5625c0-0.33203-0.03125-0.54688-0.09375-0.64062-0.054688-0.09375-0.15234-0.14062-0.29688-0.14062-0.17969 0-0.32031 0.078125-0.42188 0.23438-0.09375 0.14844-0.14062 0.35938-0.14062 0.64062v1.4688h-0.96875v-2.9844h0.96875v0.4375c0.11328-0.17578 0.24219-0.30469 0.39062-0.39062 0.15625-0.082031 0.32812-0.125 0.51562-0.125 0.20703 0 0.39062 0.054688 0.54688 0.15625 0.15625 0.09375 0.27344 0.23047 0.35938 0.40625z"/>
  </symbol>
  <symbol id="p" overflow="visible">
   <path d="m3.4688-1.8281v1.8281h-0.96875v-1.3906c0-0.25781-0.007812-0.4375-0.015625-0.53125-0.011719-0.10156-0.03125-0.17578-0.0625-0.21875-0.03125-0.0625-0.085937-0.10938-0.15625-0.14062-0.0625-0.039062-0.13281-0.0625-0.20312-0.0625-0.21094 0-0.37109 0.078125-0.48438 0.23438-0.10547 0.15625-0.15625 0.37109-0.15625 0.64062v1.4688h-0.96875v-4.1562h0.96875v1.6094c0.13281-0.17578 0.28516-0.30469 0.45312-0.39062 0.16406-0.082031 0.34375-0.125 0.53125-0.125 0.34375 0 0.60156 0.10938 0.78125 0.32812 0.1875 0.21094 0.28125 0.51172 0.28125 0.90625z"/>
  </symbol>
  <symbol id="o" overflow="visible">
   <path d="m0.5-3.9844h1.1562l1.4375 2.7344v-2.7344h0.98438v3.9844h-1.1562l-1.4375-2.7344v2.7344h-0.98438z"/>
  </symbol>
  <symbol id="n" overflow="visible">
   <path d="m0.42188-1.1719v-1.8125h0.96875v0.29688 0.60938 0.48438c0 0.24219 0.003906 0.41797 0.015625 0.53125 0.007812 0.10547 0.03125 0.17969 0.0625 0.21875 0.039062 0.0625 0.09375 0.11719 0.15625 0.15625 0.0625 0.03125 0.13281 0.046875 0.21875 0.046875 0.19531 0 0.35156-0.078125 0.46875-0.23438 0.11328-0.15625 0.17188-0.36719 0.17188-0.64062v-1.4688h0.95312v2.9844h-0.95312v-0.4375c-0.14844 0.17969-0.30469 0.30859-0.46875 0.39062-0.15625 0.082031-0.33594 0.125-0.53125 0.125-0.34375 0-0.60938-0.10156-0.79688-0.3125-0.17969-0.21875-0.26562-0.53125-0.26562-0.9375z"/>
  </symbol>
  <symbol id="m" overflow="visible">
   <path d="m0.5-3.9844h1.7031c0.50781 0 0.89844 0.11719 1.1719 0.34375 0.26953 0.21875 0.40625 0.53906 0.40625 0.95312 0 0.41797-0.13672 0.74219-0.40625 0.96875-0.27344 0.21875-0.66406 0.32812-1.1719 0.32812h-0.67188v1.3906h-1.0312zm1.0312 0.75v1.1094h0.5625c0.19531 0 0.34766-0.046875 0.45312-0.14062 0.11328-0.10156 0.17188-0.24219 0.17188-0.42188 0-0.17578-0.058594-0.3125-0.17188-0.40625-0.10547-0.09375-0.25781-0.14062-0.45312-0.14062z"/>
  </symbol>
  <symbol id="l" overflow="visible">
   <path d="m0.45312-2.9844h0.96875v2.9375c0 0.39453-0.10156 0.69531-0.29688 0.90625-0.1875 0.21875-0.46484 0.32812-0.82812 0.32812h-0.48438v-0.64062h0.17188c0.17578 0 0.29688-0.042969 0.35938-0.125 0.070312-0.074219 0.10938-0.23047 0.10938-0.46875zm0-1.1719h0.96875v0.78125h-0.96875z"/>
  </symbol>
  <symbol id="k" overflow="visible">
   <path d="m2.875-2.8906v0.76562c-0.125-0.082031-0.25781-0.14453-0.39062-0.1875-0.13672-0.039062-0.27344-0.0625-0.40625-0.0625-0.27344 0-0.48047 0.078125-0.625 0.23438-0.14844 0.15625-0.21875 0.37109-0.21875 0.64062 0 0.28125 0.070313 0.5 0.21875 0.65625 0.14453 0.15625 0.35156 0.23438 0.625 0.23438 0.14453 0 0.28516-0.019531 0.42188-0.0625 0.13281-0.039063 0.25781-0.10938 0.375-0.20312v0.78125c-0.14844 0.0625-0.29688 0.10156-0.45312 0.125-0.15625 0.03125-0.3125 0.046875-0.46875 0.046875-0.54297 0-0.96484-0.13281-1.2656-0.40625-0.30469-0.28125-0.45312-0.67188-0.45312-1.1719 0-0.48828 0.14844-0.86719 0.45312-1.1406 0.30078-0.28125 0.72266-0.42188 1.2656-0.42188 0.15625 0 0.3125 0.015625 0.46875 0.046875 0.15625 0.023437 0.30469 0.0625 0.45312 0.125z"/>
  </symbol>
 </defs>
 <g>
  <path d="m104.63 510.95c-2.1094 0.003907-4.0352-1.207-4.9453-3.1133-0.90625-1.9062-0.64062-4.1602 0.69141-5.8008 0.28516-0.35156 16.844-21.406 33.195-70.328 27.484-82.207 33.258-178.42 33.258-244.67 0-3.0195 2.4492-5.4688 5.4688-5.4688h214.95c1.4492 0 2.8398 0.57422 3.8672 1.6016 1.0273 1.0273 1.6016 2.418 1.6016 3.8672 0 230.25 65.789 314.18 66.457 315 1.9023 2.3594 1.5312 5.8125-0.82812 7.7148-2.3555 1.9062-5.8125 1.5352-7.7148-0.82422-0.72266-0.88672-17.742-22.246-34.77-72.844-27.453-81.539-33.785-176.45-34.113-243.57h-203.98c-0.32812 67.125-6.6602 162.03-34.113 243.57-17.031 50.641-34.051 71.957-34.773 72.844-1.0352 1.2773-2.5977 2.0234-4.2422 2.0234z"/>
  <path d="m611.94 547.97h-524.9c-3.0195 0-5.4688-2.4492-5.4688-5.4688v-35.996c0-3.0195 2.4492-5.4688 5.4688-5.4688 3.0234 0 5.4688 2.4492 5.4688 5.4688v30.527h513.95l-0.066407-30.516h0.003907c0-3.0195 2.4453-5.4688 5.4688-5.4688 1.4492 0 2.8398 0.57422 3.8672 1.6016 1.0234 1.0273 1.6016 2.418 1.6016 3.8672l0.078124 35.996h-0.003906c0.003906 1.4492-0.57031 2.8438-1.5977 3.8711-1.0273 1.0195-2.4219 1.5898-3.8711 1.5859z"/>
  <path d="m371.88 192.5c-1.7578 0-3.4102-0.84766-4.4375-2.2773-1.0273-1.4258-1.3047-3.2617-0.74609-4.9297 0.41406-1.2461 9.5938-30.121-18.891-42.207-2.3555-0.99609-3.7031-3.4922-3.25-6.0078s2.5898-4.3828 5.1445-4.4922c1.7617-0.097657 17.5-1.4648 18.254-18.254v-0.003906c0.10938-2.4375 1.8281-4.5117 4.207-5.0703 2.375-0.5625 4.8398 0.52344 6.0312 2.6562 0.51562 0.875 13.77 22.531 60.309 20.672 19.438-0.77734 34.094-7.5156 43.555-20.027h-0.003906c4.1055-5.3633 6.9727-11.566 8.4023-18.168 0.24609-1.5703 1.1641-2.957 2.5117-3.7969 1.3516-0.83984 3.0039-1.0508 4.5195-0.57812 5.5352 1.5781 11.23 2.5273 16.977 2.832 7.7969 0.38281 18.32-0.58984 24.215-7.3281 1.0273-1.1719 2.5039-1.8516 4.0625-1.8633 1.5586-0.015625 3.0469 0.63672 4.0977 1.7891 1.0938 1.2344 28.25 30.23 63.438 14.59 2.7617-1.2266 5.9922 0.015625 7.2188 2.7773 1.2266 2.7617-0.019531 5.9922-2.7773 7.2188-17.633 7.832-36.391 7.3164-54.262-1.4883-6.4102-3.1836-12.375-7.1914-17.742-11.922-13.18 9.9766-33.238 7.2852-42.863 5.2305-2.0312 6.2539-5.0977 12.125-9.0664 17.367-7.9297 10.488-23.352 23.219-51.844 24.359-34.301 1.3672-53.18-9.2188-62.531-17.367v-0.003907c-2.5469 5.8789-7.0664 10.688-12.773 13.598 18.473 14.414 17.367 37.383 13.43 48.988-0.75391 2.2188-2.8398 3.7109-5.1836 3.707z"/>
  <path d="m188.73 192.5c-2.1719 0-4.1406-1.2891-5.0078-3.2812-6.5625-15.062-4.2422-26.25-1.0938-32.965 0.53125-1.1328 1.1328-2.2266 1.8047-3.2812-5.5234-1.6016-10.344-5.0156-13.684-9.6914-4.3086-6.1133-5-13.266-4.7344-18.594-15.191 0.40625-37.34-4.6602-44.711-26.785-5.8828-17.652-2.0781-30.812 2.1875-38.742h-0.003906c2.6836-5.1758 6.4531-9.7109 11.047-13.301 1.1758-0.84375 2.6445-1.1914 4.0742-0.95703 1.4336 0.23438 2.7148 1.0273 3.5586 2.207 1.7656 2.4492 1.207 5.8672-1.2461 7.6328-0.78906 0.57812-17.961 13.594-9.2422 39.758 3.2812 9.7344 10.688 15.859 22.117 18.211 5.8398 1.1406 11.828 1.332 17.73 0.57031 1.8477-0.30078 3.7188 0.36328 4.9648 1.7617 1.2422 1.3984 1.6836 3.3398 1.168 5.1367 0 0.078124-2.7227 10.129 2.0547 16.867 2.8438 4.0039 8.0625 6.2891 15.5 6.7812 2.3086 0.15625 4.2695 1.75 4.8945 3.9766 0.62891 2.2266-0.21484 4.6055-2.1055 5.9453-0.51562 0.38281-13.453 10.227-4.2656 31.086v-0.003907c0.58594 1.3281 0.61719 2.8359 0.089844 4.1875-0.52734 1.3516-1.5703 2.4375-2.8984 3.0195-0.69141 0.30859-1.4414 0.46484-2.1992 0.46094z"/>
  <path d="m172.4 124.14c-2.8438-0.003906-5.2109-2.1797-5.4453-5.0117-0.23828-2.832 1.7344-5.375 4.5352-5.8477 0.25 0 15.641-2.832 20.43-13.223l0.003906-0.003906c1.2656-2.7422 4.5117-3.9375 7.2539-2.6719 2.7422 1.2656 3.9414 4.5156 2.6758 7.2578-7.25 15.719-27.684 19.281-28.547 19.438v-0.003906c-0.30078 0.042969-0.60547 0.066406-0.90625 0.066406z"/>
  <path d="m343.82 62.715c-39.078 0-44.133-29.902-44.133-30.176-0.46875-2.9844 1.5703-5.7812 4.5547-6.25 2.9844-0.46875 5.7852 1.5703 6.25 4.5547 0.16406 0.95312 4.1133 21.754 35.262 20.914 31.422-0.875 35.426-20.18 35.578-21h0.003907c0.40625-2.2812 2.207-4.0586 4.4922-4.4375 2.2852-0.37891 4.5586 0.72266 5.6797 2.75 0.42578 0.74219 11.145 18.953 39.648 16.582 20.355-1.6953 24.695-18.168 24.742-18.332 0.34375-1.4141 1.2383-2.6328 2.4844-3.3867 1.2461-0.75391 2.7422-0.98047 4.1562-0.625 1.4141 0.35547 2.6289 1.2578 3.3711 2.5078 0.74609 1.2539 0.96094 2.7539 0.59766 4.1641-0.24219 0.98438-6.375 24.227-34.441 26.566-2.0781 0.17578-4.0781 0.25-6.0156 0.25-19.207 0-31.238-8.0625-37.801-14.523-5.0977 8.5312-16.637 19.688-42.195 20.41z"/>
  <path d="m116.13 125.43c-21.723 0-33.086-17.25-33.238-17.5-1.6367-2.5391-0.90234-5.9258 1.6367-7.5625 2.5391-1.6367 5.9258-0.90234 7.5625 1.6367 2.9609 4.0547 6.8594 7.3359 11.363 9.5586 9.7461 4.7695 21.023 3.6641 33.523-3.2812 2.6406-1.4688 5.9688-0.51953 7.4375 2.1211s0.51953 5.9688-2.1211 7.4375c-9.9531 5.5352-18.703 7.5898-26.164 7.5898z"/>
  <path d="m611.41 511.88h-523.91c-3.0195 0-5.4688-2.4492-5.4688-5.4688s2.4492-5.4688 5.4688-5.4688h523.91c3.0195 0 5.4688 2.4492 5.4688 5.4688s-2.4492 5.4688-5.4688 5.4688z"/>
  <path d="m490.56 511.52c-0.36719 0.003906-0.73438-0.03125-1.0938-0.097657-2.9648-0.58203-4.8906-3.457-4.3086-6.418l34.453-175c0.51562-2.543 2.75-4.3711 5.3477-4.375 2.5977-0.003906 4.8398 1.8281 5.3594 4.375l35.547 174.08v-0.003906c0.60156 2.9609-1.3047 5.8516-4.2656 6.4531-2.9609 0.60547-5.8516-1.3047-6.4531-4.2656l-30.047-147.4-29.18 148.25c-0.50781 2.5586-2.75 4.4062-5.3594 4.4062z"/>
  <path d="m525.55 511.52c-2.4961 0-4.6758-1.6914-5.293-4.1094l-19.785-77.305v-0.003906c-0.42188-1.6367-0.058594-3.375 0.97656-4.7109 1.0391-1.3359 2.6367-2.1172 4.3281-2.1133h39.18-0.003906c1.6875 0 3.2773 0.77734 4.3164 2.1055 1.0352 1.3281 1.3984 3.0625 0.98828 4.6992l-19.402 77.305c-0.60937 2.4258-2.7891 4.1289-5.293 4.1328zm-12.73-77.305 12.676 49.578 12.445-49.578z"/>
  <path d="m266.88 485.96c-1.5391 0.003906-3.0078-0.63672-4.0469-1.7695-1.043-1.1328-1.5586-2.6484-1.4219-4.1797l8.75-99.137-53.527-0.003906c-1.8711 0-3.6133-0.95703-4.6172-2.5391-1-1.582-1.125-3.5625-0.32812-5.2578l69.312-146.81c1.1328-2.3984 3.8242-3.6406 6.3828-2.9414s4.2461 3.1328 4.0078 5.7734l-9.1992 99.684h54c1.875 0 3.6172 0.96094 4.6211 2.543 1.0039 1.5859 1.125 3.5703 0.32031 5.2656l-69.363 146.25c-0.89844 1.8945-2.7969 3.1094-4.8906 3.1289zm-41.562-116.03h50.883c1.5352-0.003906 3.0039 0.63672 4.0469 1.7695 1.0391 1.1328 1.5547 2.6484 1.4219 4.1836l-6.6289 74.648 52.5-110.82h-51.395c-1.5469 0.007812-3.0195-0.64062-4.0625-1.7773-1.043-1.1406-1.5547-2.668-1.4062-4.207l6.9219-74.727z"/>
  <path d="m514 239.28h-0.054688c-2.6445-0.027344-4.8906-1.9453-5.3359-4.5508-2.9219-17.598-22.051-19.602-22.859-19.688-3.0195-0.26562-5.2539-2.9297-4.9883-5.9492 0.26563-3.0234 2.9297-5.2539 5.9492-4.9883 7.4258 0.64453 20.375 4.8789 27.715 15.957 5.2617-6.8359 14.359-12.785 28.844-12.031 3.0195 0.15234 5.3477 2.7227 5.1953 5.7422-0.15234 3.0195-2.7227 5.3477-5.7422 5.1953-19.688-1.0078-23.023 14.086-23.34 15.805-0.46875 2.6055-2.7344 4.5039-5.3828 4.5078z"/>
  <path d="m115.09 336.16c-2.2891 0-4.3359-1.4297-5.1289-3.5781-6.1914-16.898-25.898-15.117-26.098-15.094-3.0039 0.30469-5.6836-1.8867-5.9883-4.8945-0.30078-3.0039 1.8906-5.6836 4.8945-5.9883 7.4062-0.74219 20.914 1.0078 30.199 10.523 3.8945-7.6562 11.727-15.227 26.098-17.195 2.9258-0.28906 5.5586 1.7852 5.957 4.6992 0.40234 2.9141-1.5742 5.6211-4.4688 6.1289-20.082 2.7578-20.004 19.141-19.992 19.828l-0.003906 0.003906c0.046875 2.668-1.8398 4.9766-4.4609 5.4688-0.33203 0.066406-0.66797 0.097656-1.0078 0.097656z"/>
  <path d="m224.22 64.16h-0.16406c-15.98-0.066406-25.297-9.2969-27.441-18.418-0.69141-2.9414 1.1328-5.8906 4.0742-6.582s5.8867 1.1328 6.5781 4.0742c1.5977 6.8242 9.8438 9.9648 16.832 9.9844l0.12109 0.003906c6.3125 0 14.219-2.4492 15.926-9.3945 0.71484-2.9375 3.6758-4.7383 6.6094-4.0195 2.9375 0.71484 4.7383 3.6758 4.0195 6.6094-2.6328 10.785-13.035 17.742-26.555 17.742z"/>
  <path d="m309.53 145.1h-0.16406c-15.98-0.066406-25.297-9.2969-27.441-18.418-0.69141-2.9414 1.1328-5.8906 4.0742-6.582s5.8867 1.1328 6.5781 4.0742c1.5977 6.8242 9.8438 9.9648 16.832 9.9844l0.12109 0.003906c6.3125 0 14.219-2.4492 15.926-9.3945 0.71484-2.9375 3.6758-4.7383 6.6094-4.0195 2.9375 0.71484 4.7383 3.6758 4.0195 6.6094-2.6328 10.785-13.035 17.742-26.555 17.742z"/>
  <path d="m543.59 64.16h-0.16406c-15.98-0.066406-25.297-9.2969-27.441-18.418-0.69141-2.9414 1.1328-5.8906 4.0742-6.582s5.8867 1.1328 6.5781 4.0742c1.5977 6.8242 9.8438 9.9648 16.832 9.9844 6.3555 0 14.328-2.418 16.023-9.3945v0.003906c0.71484-2.9375 3.6758-4.7383 6.6133-4.0195 2.9336 0.71484 4.7344 3.6758 4.0195 6.6094-2.6133 10.785-13.016 17.742-26.535 17.742z"/>
  <path d="m458.58 352.7c-34.531 0-60.891-11.145-62.629-11.898v-0.003907c-2.7734-1.207-4.043-4.4336-2.832-7.207 1.207-2.7734 4.4336-4.0391 7.207-2.832 0.63281 0.27344 63.961 26.93 120.72-4.4844h-0.003907c2.6406-1.4219 5.9297-0.45703 7.3828 2.168 1.4492 2.6211 0.51953 5.9219-2.0859 7.4023-23.211 12.809-46.945 16.855-67.758 16.855z"/>
  <path d="m458.72 386.73c-24.949 0-45.883-5.8203-55.496-8.4883v0.003907c-2.9141-0.8125-4.6172-3.8281-3.8086-6.7383 0.8125-2.9141 3.8281-4.6172 6.7383-3.8086 63.359 17.609 95.648 1.5547 106.27-3.7305v0.003906c2.7188-1.3438 6.0117-0.23047 7.3555 2.4883 1.3438 2.7148 0.23047 6.0117-2.4883 7.3555-19.754 9.7773-40.25 12.914-58.57 12.914z"/>
  <path d="m461.56 419.76c-17.5 0-34.562-3.0938-49.359-6.4531-2.9492-0.66797-4.7969-3.6016-4.125-6.5508 0.67188-2.9453 3.6055-4.793 6.5508-4.1211 26.402 6.0039 60.398 11.156 89.164-2.3516 1.3242-0.79297 2.9219-0.98828 4.3945-0.53906 1.4766 0.45312 2.6953 1.5039 3.3516 2.8984 0.66016 1.3945 0.69922 3.0039 0.10938 4.4258-0.58984 1.4258-1.7539 2.5352-3.207 3.0586-15.039 7.1289-31.117 9.6328-46.879 9.6328z"/>
  <path d="m599.38 351.09c-41.727 0-73.762-14.371-75.238-15.051-1.3203-0.60156-2.3477-1.7031-2.8555-3.0625s-0.45312-2.8633 0.14844-4.1836c1.2539-2.7461 4.4961-3.9609 7.2461-2.707 0.57812 0.26172 38.609 17.195 83.988 13.531 3.0195-0.24219 5.6641 2.0117 5.9062 5.0312 0.24219 3.0195-2.0117 5.6641-5.0312 5.9062-4.8789 0.34766-9.6133 0.53516-14.164 0.53516z"/>
  <path d="m602.85 386.93c-23.707-0.007812-47.207-4.4609-69.277-13.125-2.793-1.1562-4.1211-4.3555-2.9688-7.1484 1.1523-2.793 4.3555-4.125 7.1484-2.9688 23.836 9.3555 49.41 13.461 74.977 12.031 3.0195-0.17578 5.6094 2.1289 5.7852 5.1523 0.17578 3.0195-2.1328 5.6094-5.1523 5.7852-3.5664 0.17578-7.0742 0.27344-10.512 0.27344z"/>
  <path d="m604.68 421.87c-22.633-0.20312-45.062-4.2734-66.324-12.031-2.8203-1.082-4.2305-4.2461-3.1523-7.0664 1.082-2.8203 4.2461-4.2305 7.0664-3.1484 17.16 6.5625 45.598 12.59 70.461 11.125v-0.003906c3.0195-0.17578 5.6094 2.1328 5.7852 5.1523 0.17578 3.0195-2.1328 5.6094-5.1523 5.7852-2.875 0.10938-5.7852 0.1875-8.6836 0.1875z"/>
 </g>
</svg>
