<svg width="90" height="90" viewBox="0 0 90 90" fill="none" xmlns="http://www.w3.org/2000/svg">
<path d="M72.6157 3.32983C74.509 3.49583 76.2322 4.21694 77.8597 5.11327C81.2297 6.96918 83.8229 9.63335 85.5474 13.0789C87.2757 16.532 87.7433 20.2052 87.1818 24.011C87.0445 24.9415 86.8171 25.8587 86.6326 26.7824C86.4319 27.7873 85.7685 28.5179 85.0974 29.2079C83.1169 31.2443 81.0758 33.2217 79.0939 35.2568C75.9597 38.4751 72.8517 41.7189 69.7377 44.9568C66.9888 47.815 64.2466 50.6798 61.5019 53.542C58.7774 56.383 56.0502 59.2213 53.3302 62.0665C50.9932 64.5112 48.6675 66.9667 46.3315 69.4123C43.6912 72.1763 41.0427 74.9325 38.4027 77.6967C37.6406 78.4947 36.8956 79.3089 36.0767 80.0628C36.1038 79.8318 36.1801 79.6422 36.2923 79.477C39.1008 75.3414 40.1721 70.7937 39.252 65.8826C37.7352 57.7869 31.7002 52.1044 23.558 50.8673C25.6596 48.8065 27.7426 46.7998 29.8214 44.7887C33.5424 41.1888 37.2594 37.5847 40.9807 33.9852C44.4075 30.6706 47.8393 27.3612 51.2663 24.0468C54.9668 20.4678 58.672 16.8936 62.3606 13.3025C65.6103 10.1387 68.8394 6.9538 72.0801 3.78082C72.2464 3.61799 72.4366 3.4796 72.6157 3.32983Z" fill="#E1C851"/>
<path d="M23.5375 50.9195C31.7002 52.1045 37.7352 57.7869 39.252 65.8827C40.1721 70.7938 39.1008 75.3415 36.2923 79.4771C36.1801 79.6423 36.1038 79.8319 36.0185 80.073C33.4351 83.2359 30.3725 85.6359 26.4016 86.738C23.8335 87.4508 21.2502 87.4866 18.6185 87.2097C15.2581 86.8562 12.2992 85.506 9.7472 83.4285C6.68848 80.9384 4.56508 77.7419 3.49737 73.8713C2.85291 71.5351 2.78824 69.1483 3.04211 66.8189C3.46009 62.9838 4.97985 59.5376 7.7126 56.7177C8.54659 55.8571 9.41939 55.0341 10.3926 54.1849C10.7174 54.0738 10.9369 53.9913 11.1287 53.8664C14.9138 51.4019 19.0523 50.4327 23.5375 50.9195ZM30.0671 78.1854C33.0959 75.2634 34.4089 71.641 33.8501 67.5363C32.8895 60.4806 27.1684 55.9447 20.0402 56.4722C18.691 56.5721 17.3819 57.2152 15.9175 57.638C10.512 60.0414 7.50639 66.166 8.98994 72.0664C10.1756 76.782 13.1925 79.9263 17.8768 81.2392C22.4154 82.5112 26.4882 81.4519 30.0671 78.1854Z" fill="#D9DADD"/>
<path d="M23.558 50.8673C19.0524 50.4327 14.9138 51.4019 11.1287 53.8664C10.9369 53.9913 10.7174 54.0737 10.4474 54.1623C11.3357 53.2191 12.2881 52.2902 13.2391 51.3598C15.8289 48.8261 18.4076 46.281 21.0101 43.7605C24.048 40.8183 27.1062 37.8971 30.1562 34.9674C31.544 33.6342 32.9345 32.3038 34.3216 30.9699C37.455 27.9568 40.586 24.9412 43.7203 21.929C45.0235 20.6766 46.3352 19.4329 47.6383 18.1803C50.7932 15.1478 53.9432 12.1103 57.0996 9.07931C58.2767 7.949 59.5524 6.90769 60.6286 5.68932C62.1125 4.0093 64.0284 3.33666 66.1176 3.19836C68.2474 3.05738 70.3955 3.19305 72.5756 3.26873C72.4366 3.47962 72.2464 3.61801 72.0801 3.78084C68.8394 6.95382 65.6103 10.1387 62.3607 13.3025C58.672 16.8937 54.9668 20.4678 51.2663 24.0468C47.8394 27.3612 44.4076 30.6706 40.9808 33.9852C37.2594 37.5847 33.5424 41.1888 29.8214 44.7887C27.7426 46.7998 25.6596 48.8066 23.558 50.8673Z" fill="#BF9F0B"/>
<path d="M16.0543 57.6076C17.3819 57.2151 18.691 56.572 20.0402 56.4721C27.1684 55.9446 32.8895 60.4805 33.8501 67.5362C34.4089 71.6409 33.0959 75.2633 29.9402 78.2089C27.8478 78.6711 25.9055 79.1187 23.8436 78.7872C19.2411 78.0473 15.8567 75.638 13.9737 71.4097C12.0009 66.9794 12.5318 62.6904 15.364 58.7169C15.6162 58.363 15.8252 57.9781 16.0543 57.6076Z" fill="#FFD200"/>
<path d="M15.9858 57.6228C15.8252 57.9782 15.6162 58.363 15.3639 58.717C12.5318 62.6904 12.0009 66.9795 13.9737 71.4098C15.8566 75.638 19.2411 78.0474 23.8436 78.7873C25.9055 79.1187 27.8478 78.6711 29.8896 78.2313C26.4882 81.4519 22.4154 82.5112 17.8768 81.2392C13.1925 79.9263 10.1756 76.782 8.98993 72.0664C7.50637 66.166 10.5119 60.0414 15.9858 57.6228Z" fill="#67686D"/>
</svg>
