<svg width="91" height="91" viewBox="0 0 91 91" fill="none" xmlns="http://www.w3.org/2000/svg">
<path fill-rule="evenodd" clip-rule="evenodd" d="M45.5 13.2929L52.2176 20.0104L51.5104 20.7175L45.5 14.7071L39.4896 20.7175L38.7825 20.0104L45.5 13.2929Z" fill="black"/>
<path fill-rule="evenodd" clip-rule="evenodd" d="M46 4.37114e-08L46 14H45L45 0L46 4.37114e-08Z" fill="black"/>
<path fill-rule="evenodd" clip-rule="evenodd" d="M40 20H51V21H40V20Z" fill="black"/>
<path fill-rule="evenodd" clip-rule="evenodd" d="M45.5 77.435L52.2176 70.7175L51.5104 70.0104L45.5 76.0208L39.4896 70.0104L38.7825 70.7175L45.5 77.435Z" fill="black"/>
<path fill-rule="evenodd" clip-rule="evenodd" d="M45 91L45 76H46L46 91H45Z" fill="black"/>
<path fill-rule="evenodd" clip-rule="evenodd" d="M40 70.7279H51V69.7279H40V70.7279Z" fill="black"/>
<path fill-rule="evenodd" clip-rule="evenodd" d="M45.5 21.2929L52.2175 28.0104L51.5104 28.7175L45.5 22.7071L39.4896 28.7175L38.7825 28.0104L45.5 21.2929Z" fill="black"/>
<path fill-rule="evenodd" clip-rule="evenodd" d="M45.5 69.435L52.2175 62.7175L51.5104 62.0104L45.5 68.0208L39.4896 62.0104L38.7825 62.7175L45.5 69.435Z" fill="black"/>
<path fill-rule="evenodd" clip-rule="evenodd" d="M45 68L45 22H46L46 68H45Z" fill="black"/>
</svg>
