<svg width="91" height="91" viewBox="0 0 91 91" fill="none" xmlns="http://www.w3.org/2000/svg">
<path fill-rule="evenodd" clip-rule="evenodd" d="M46 21.5V33H45V21.5H46ZM46 4.37114e-08V15H45V0L46 4.37114e-08Z" fill="black"/>
<path fill-rule="evenodd" clip-rule="evenodd" d="M46 69.5V58H45V69.5H46ZM46 91V76H45V91H46Z" fill="black"/>
<path fill-rule="evenodd" clip-rule="evenodd" d="M46 33V58H45V33H46Z" fill="black"/>
<path fill-rule="evenodd" clip-rule="evenodd" d="M45.7175 14.2928L52.435 21.0103L51.7279 21.7174L45.7175 15.707L39.7071 21.7174L39 21.0103L45.7175 14.2928Z" fill="black"/>
<path fill-rule="evenodd" clip-rule="evenodd" d="M45.7175 76.435L52.435 69.7175L51.7279 69.0104L45.7175 75.0208L39.7071 69.0104L39 69.7175L45.7175 76.435Z" fill="black"/>
<path fill-rule="evenodd" clip-rule="evenodd" d="M45.7175 20.2928L52.435 27.0103L51.7279 27.7174L45.7175 21.707L39.7071 27.7174L39 27.0103L45.7175 20.2928Z" fill="black"/>
<path fill-rule="evenodd" clip-rule="evenodd" d="M45.7175 70.435L52.435 63.7175L51.7279 63.0104L45.7175 69.0208L39.7071 63.0104L39 63.7175L45.7175 70.435Z" fill="black"/>
<path fill-rule="evenodd" clip-rule="evenodd" d="M42 56.146H49.6581V33.1924H42V56.146Z" stroke="black" stroke-width="1.1" stroke-miterlimit="3" stroke-linecap="round" stroke-linejoin="round"/>
</svg>
