<svg width="91" height="91" viewBox="0 0 91 91" fill="none" xmlns="http://www.w3.org/2000/svg">
<path fill-rule="evenodd" clip-rule="evenodd" d="M13.293 45.5L20.0105 38.7825L20.7176 39.4896L14.7072 45.5L20.7176 51.5104L20.0105 52.2175L13.293 45.5Z" fill="black"/>
<path fill-rule="evenodd" clip-rule="evenodd" d="M4.37114e-08 45H14V46H0L4.37114e-08 45Z" fill="black"/>
<path fill-rule="evenodd" clip-rule="evenodd" d="M20 51V40H21V51H20Z" fill="black"/>
<path fill-rule="evenodd" clip-rule="evenodd" d="M77.4351 45.5L70.7176 38.7825L70.0105 39.4896L76.0209 45.5L70.0105 51.5104L70.7176 52.2175L77.4351 45.5Z" fill="black"/>
<path fill-rule="evenodd" clip-rule="evenodd" d="M91 46H76V45H91V46Z" fill="black"/>
<path fill-rule="evenodd" clip-rule="evenodd" d="M70.7278 51V40H69.7278V51H70.7278Z" fill="black"/>
<path fill-rule="evenodd" clip-rule="evenodd" d="M21.293 45.5L28.0105 38.7825L28.7176 39.4896L22.7072 45.5L28.7176 51.5104L28.0105 52.2175L21.293 45.5Z" fill="black"/>
<path fill-rule="evenodd" clip-rule="evenodd" d="M69.4351 45.5L62.7176 38.7825L62.0105 39.4896L68.0209 45.5L62.0105 51.5104L62.7176 52.2175L69.4351 45.5Z" fill="black"/>
<path fill-rule="evenodd" clip-rule="evenodd" d="M34 34V57H57V34H34ZM33 58H58V33H33V58Z" fill="black"/>
<path fill-rule="evenodd" clip-rule="evenodd" d="M46 39V52H45V39H46Z" fill="black"/>
<path d="M39.38 31.91H37.94L35.7 29.1L35.12 29.78V31.91H33.95V25.24H35.12V28.42L37.73 25.24H39.18L36.47 28.39L39.38 31.91Z" fill="black"/>
<path fill-rule="evenodd" clip-rule="evenodd" d="M22 45H33V46H22V45Z" fill="black"/>
<path fill-rule="evenodd" clip-rule="evenodd" d="M68.1 46H57V45H68.1V46Z" fill="black"/>
<line x1="33.3536" y1="33.6464" x2="57.3536" y2="57.6464" stroke="black"/>
</svg>
