<svg version="1.1" id="Layer_1" xmlns="http://www.w3.org/2000/svg" xmlns:xlink="http://www.w3.org/1999/xlink" x="0px" y="0px"
	 width="100%" viewBox="0 0 354 446" enable-background="new 0 0 354 446" xml:space="preserve">
<path fill="#FFFFFF" opacity="1.000000" stroke="none" 
	d="
M145.000000,0.999999 
	C214.926315,1.000000 284.852631,1.000000 355.000000,1.000000 
	C355.000000,69.354073 355.000000,137.708374 354.680115,206.396454 
	C344.020569,200.778214 333.678589,194.830261 323.341827,188.873260 
	C304.965210,178.282990 286.590210,167.689957 268.217407,157.093018 
	C249.559280,146.331497 230.922882,135.532166 212.241623,124.810936 
	C201.199631,118.473900 190.089157,112.256149 178.977325,105.581268 
	C178.308929,102.169380 177.585968,99.176300 177.051590,96.149918 
	C174.871429,83.802917 172.779800,71.440277 170.597198,59.093716 
	C168.046661,44.665859 165.435303,30.248749 162.913177,15.498560 
	C164.342117,11.907222 161.639633,11.143624 159.722717,9.962021 
	C154.831985,6.947360 149.909668,3.983928 145.000000,0.999999 
z"/>
<path fill="#FFFFFF" opacity="1.000000" stroke="none" 
	d="
M355.000000,209.000000 
	C355.000000,288.247986 355.000000,367.496002 355.000000,447.000000 
	C298.979370,447.000000 242.958344,447.000000 186.606415,446.648560 
	C194.002426,444.178436 194.015106,444.178406 193.996750,436.096069 
	C193.988525,432.472076 193.917938,428.848175 193.929199,424.839905 
	C193.581573,420.257080 190.512558,419.400269 187.059875,418.501282 
	C186.973480,380.370331 186.933624,342.703827 187.223083,304.903870 
	C201.992188,296.522858 216.431961,288.275299 230.926956,280.491699 
	C230.987930,290.248413 230.981171,299.541168 231.001785,308.833832 
	C231.060272,335.215546 231.129929,361.597290 230.807922,387.998657 
	C227.075882,388.722839 223.888596,389.595795 224.005432,394.476746 
	C223.998825,399.254791 223.559219,403.630310 224.178955,407.850281 
	C224.499115,410.030487 226.252258,412.968597 228.129974,413.781921 
	C235.714172,417.066864 243.785706,416.711212 251.596375,414.619263 
	C254.896133,413.735474 257.458221,411.322510 257.081146,406.956024 
	C256.711548,402.676270 256.985962,398.340881 257.015656,393.654114 
	C256.349365,389.168793 253.300491,388.268982 249.852905,387.516907 
	C249.920670,347.705261 249.939240,308.359009 250.278687,268.879730 
	C265.012939,260.509064 279.426331,252.271454 293.908813,244.495834 
	C293.950500,282.644165 293.923096,320.330536 293.590668,358.171021 
	C290.673126,360.093323 286.531158,360.460480 287.048401,365.573792 
	C287.018677,370.673157 286.775177,375.329834 287.128326,379.940765 
	C287.246704,381.486694 288.546478,383.676392 289.885529,384.274109 
	C297.909760,387.856110 306.109222,387.926605 314.552704,385.253052 
	C317.865051,384.204254 319.151947,382.736572 319.039368,379.413940 
	C318.887970,374.945740 318.997986,370.468658 319.027069,365.592682 
	C319.957153,359.713837 315.223389,359.635712 312.081055,357.510193 
	C311.998169,315.703033 311.976685,274.359253 312.278320,232.880707 
	C318.328583,229.420029 324.010437,226.012970 329.793579,222.787476 
	C338.157257,218.122665 346.594269,213.589386 355.000000,209.000000 
z"/>
<path fill="#FFFFFF" opacity="1.000000" stroke="none" 
	d="
M170.000000,447.000000 
	C113.727264,447.000000 57.454529,447.000000 1.000000,447.000000 
	C1.000000,367.979187 1.000000,288.958252 1.359329,209.500778 
	C4.910265,210.749893 8.172879,212.314850 11.280575,214.143158 
	C21.887705,220.383392 32.440319,226.716293 43.007538,233.481812 
	C43.000717,267.493408 42.984871,301.037048 43.010448,334.580658 
	C43.016651,342.713013 43.159424,350.845215 42.848995,358.997070 
	C39.107368,359.708740 35.910793,360.568329 35.997375,365.451904 
	C35.997463,370.067535 36.153851,374.222229 35.949825,378.359100 
	C35.775539,381.892944 37.462135,383.882477 40.536011,384.991547 
	C48.477196,387.856781 56.431660,387.846191 64.385071,385.007721 
	C67.477722,383.903992 69.178452,381.958771 69.043076,378.442627 
	C68.870895,373.970367 68.993790,369.486816 69.027420,364.633362 
	C68.321556,360.157715 65.269890,359.251923 61.819248,358.517029 
	C61.919586,352.410980 61.985523,346.769379 61.996323,341.127625 
	C62.058258,308.762848 62.107105,276.398041 62.505207,244.063293 
	C64.562714,245.060379 66.284348,246.011948 67.986694,246.996857 
	C80.657883,254.327988 93.325249,261.665741 105.996277,269.469879 
	C106.003922,309.290710 106.009117,348.643097 105.638519,388.011658 
	C101.913101,388.761597 98.805214,389.739655 99.058968,394.599426 
	C99.021988,399.696350 98.775452,404.352661 99.129356,408.962891 
	C99.247757,410.505310 100.556488,412.640778 101.906296,413.291718 
	C109.915192,417.153900 118.129623,416.789093 126.550697,414.245605 
	C129.888199,413.237549 131.151428,411.733551 131.039276,408.412659 
	C130.888367,403.944855 130.997986,399.468201 131.027100,394.592651 
	C131.957047,388.713898 127.223358,388.635742 124.081039,386.510193 
	C124.066414,350.709991 124.113190,315.373199 124.509071,280.064453 
	C126.752403,281.071655 128.682922,281.987000 130.535004,283.040253 
	C143.395706,290.353973 156.240128,297.696350 169.055725,305.495056 
	C168.965393,343.625610 168.909088,381.290710 168.478699,418.982605 
	C164.260208,419.763306 161.157608,421.163208 162.004669,426.474670 
	C161.998627,431.066376 162.255737,435.211761 161.924484,439.309570 
	C161.598679,443.340088 164.028625,444.774933 167.060806,445.956573 
	C168.029037,446.333893 169.019623,446.653839 170.000000,447.000000 
z"/>
<path fill="#CAE6F6" opacity="1.000000" stroke="none" 
	d="
M169.089752,305.029541 
	C156.240128,297.696350 143.395706,290.353973 130.535004,283.040253 
	C128.682922,281.987000 126.752403,281.071655 124.406555,279.724487 
	C117.967896,275.904755 111.980858,272.453094 105.993820,269.001404 
	C93.325249,261.665741 80.657883,254.327988 67.986694,246.996857 
	C66.284348,246.011948 64.562714,245.060379 62.361191,243.741760 
	C55.586155,239.931396 49.299950,236.472610 43.013741,233.013824 
	C32.440319,226.716293 21.887705,220.383392 11.280575,214.143158 
	C8.172879,212.314850 4.910265,210.749893 1.359329,209.032120 
	C1.000000,208.555557 1.000000,208.111099 1.320927,207.197815 
	C21.338589,195.424042 41.025364,184.101715 60.735523,172.820251 
	C74.095619,165.173355 87.488548,157.583847 100.928452,150.381821 
	C99.972610,156.582718 98.955116,162.370468 97.638657,168.299194 
	C92.157066,171.438400 86.971161,174.430969 81.792671,177.436325 
	C76.075653,180.754227 75.933205,190.687241 81.616669,193.976562 
	C100.766937,205.059891 119.996277,216.007980 139.068466,227.223587 
	C142.582581,229.290115 145.225174,229.111328 148.645538,227.101379 
	C167.577744,215.976013 186.593887,204.990555 205.701675,194.169754 
	C208.885666,192.366669 209.826477,190.346817 210.023865,186.765182 
	C210.307999,181.609818 208.754944,178.478561 203.966690,176.318207 
	C199.136581,174.138977 194.656937,171.182968 189.836456,168.247314 
	C187.589218,156.725815 185.435806,145.540405 183.498123,134.317780 
	C181.871384,124.895973 180.496094,115.430763 179.009476,105.984764 
	C190.089157,112.256149 201.199631,118.473900 212.241623,124.810936 
	C230.922882,135.532166 249.559280,146.331497 268.217407,157.093018 
	C286.590210,167.689957 304.965210,178.282990 323.341827,188.873260 
	C333.678589,194.830261 344.020569,200.778214 354.680115,206.865112 
	C355.000000,207.444443 355.000000,207.888901 355.000000,208.666672 
	C346.594269,213.589386 338.157257,218.122665 329.793579,222.787476 
	C324.010437,226.012970 318.328583,229.420029 311.931580,232.921906 
	C305.454376,236.743179 299.647064,240.388519 293.839722,244.033844 
	C279.426331,252.271454 265.012939,260.509064 249.922806,268.890503 
	C243.121277,272.698761 236.996506,276.363251 230.871719,280.027710 
	C216.431961,288.275299 201.992188,296.522858 186.895020,304.992737 
	C180.864426,309.822906 175.471161,310.181335 170.029922,305.318237 
	C169.807877,305.119812 169.407211,305.121246 169.089752,305.029541 
M179.836899,236.654892 
	C178.795792,238.497696 177.754684,240.340500 176.178375,242.692886 
	C167.327454,247.579422 158.431549,252.387543 149.664001,257.419342 
	C147.932770,258.412933 145.608170,260.147583 145.431778,261.747162 
	C144.871109,266.832001 145.076263,272.019257 145.284988,277.154785 
	C145.323944,278.113220 146.749664,279.015350 147.535400,279.943451 
	C148.360748,278.919525 149.813736,277.944519 149.897980,276.862854 
	C150.193695,273.066254 149.880295,269.224976 150.099823,265.418060 
	C150.172668,264.155090 150.819153,262.327698 151.775162,261.805908 
	C161.067352,256.734070 170.481049,251.884903 180.380280,247.381470 
	C183.948044,245.504898 187.515808,243.628311 191.515686,242.240616 
	C192.650238,242.842499 193.784790,243.444382 194.831268,244.723145 
	C193.762314,246.797119 192.693359,248.871094 191.003586,251.374588 
	C182.113541,256.218414 173.180832,260.986938 164.373016,265.975952 
	C162.799454,266.867279 160.765808,268.579987 160.625641,270.071442 
	C160.145752,275.176941 160.297104,280.357635 160.509201,285.497192 
	C160.546082,286.390656 162.044998,287.223785 162.868637,288.084778 
	C163.627991,287.199402 164.979004,286.354645 165.043076,285.421539 
	C165.304398,281.615967 164.998611,277.770782 165.275085,273.967346 
	C165.377075,272.564240 166.144974,270.576569 167.229172,269.977325 
	C176.370377,264.924835 185.655334,260.132507 195.542923,255.709518 
	C199.036972,253.788055 202.531021,251.866592 206.336182,250.507645 
	C207.494888,251.048950 208.653595,251.590271 209.807083,252.808548 
	C208.709244,254.875061 207.611404,256.941589 205.999512,259.540375 
	C197.117584,264.377014 188.180801,269.117676 179.402023,274.134766 
	C177.735397,275.087280 175.721695,277.033783 175.548401,278.696747 
	C175.034958,283.624115 175.215149,288.646698 175.476562,293.613495 
	C175.532211,294.670807 177.078934,295.649628 177.938690,296.664612 
	C178.634277,295.523041 179.836807,294.421112 179.929749,293.232422 
	C180.200745,289.766663 179.726746,286.228760 180.153625,282.794830 
	C180.375626,281.008850 181.448303,278.626251 182.877899,277.807861 
	C191.506134,272.868683 200.348755,268.303986 209.871307,263.855072 
	C214.498138,263.524994 218.651367,262.466309 220.774811,257.018250 
	C221.513367,256.645447 222.262909,256.292725 222.988770,255.896652 
	C228.899628,252.671249 237.049500,250.993347 233.092224,242.103516 
	C237.761688,239.300018 241.827423,236.858994 247.554733,233.420364 
	C256.435059,235.310013 266.850250,233.492386 276.361450,226.926620 
	C277.942993,225.834854 279.965637,225.382095 282.571411,225.023178 
	C287.001648,224.500900 291.601532,224.223557 292.944519,218.048691 
	C301.792084,213.312378 310.639648,208.576065 319.940796,203.596924 
	C320.121460,205.549393 319.949921,206.952240 320.437622,208.066589 
	C320.943420,209.222397 322.087738,210.098785 322.952789,211.097351 
	C323.693451,210.028366 324.902466,209.029526 325.075348,207.875488 
	C325.415009,205.608246 325.184204,203.254639 325.179016,200.936798 
	C325.170105,196.970947 323.264740,196.480057 320.044495,198.020782 
	C316.384644,199.771835 312.654999,201.377075 309.264587,202.251556 
	C309.568024,199.166428 310.115326,196.081284 310.115112,192.996155 
	C310.114807,188.844574 308.601257,187.983109 304.804871,189.942398 
	C297.867157,193.522858 291.058990,197.354446 284.118408,200.929123 
	C282.266693,201.882843 280.130676,202.284561 278.018646,202.189529 
	C277.424927,197.854294 273.502411,199.068405 271.348724,197.386047 
	C277.655029,193.908737 283.961365,190.431412 290.627258,186.755814 
	C290.734619,188.273270 290.582581,189.039597 290.867981,189.570862 
	C291.528259,190.799957 292.400391,191.915253 293.186615,193.076706 
	C293.846649,191.954559 294.770081,190.902725 295.093567,189.690765 
	C295.425079,188.448669 295.185303,187.049683 295.168121,185.719696 
	C295.097321,180.240540 293.917450,179.533493 288.912415,182.208405 
	C283.639832,185.026306 278.494293,188.084473 273.193268,190.845734 
	C269.568024,192.734055 265.771515,194.293579 262.147827,195.273407 
	C264.176483,192.458298 262.166077,191.201752 259.985291,190.677826 
	C257.622650,190.110199 255.095245,190.228149 252.928024,189.371017 
	C260.456329,185.235962 267.984589,181.100906 276.165802,176.607224 
	C276.165802,179.163345 275.871704,180.889542 276.270111,182.437469 
	C276.531830,183.454193 277.793335,184.213593 278.607086,185.088242 
	C279.399811,184.217407 280.711548,183.435150 280.878357,182.457535 
	C281.237396,180.353394 281.029510,178.148560 281.014099,175.985214 
	C280.970703,169.898132 279.734955,169.182190 274.290649,172.135956 
	C261.288025,179.190430 248.301010,186.273666 235.298798,193.328918 
	C201.990295,211.402725 168.661270,229.438919 135.407806,247.613388 
	C133.579681,248.612549 131.307312,250.589569 131.068939,252.357773 
	C130.451828,256.935089 130.739838,261.655457 130.948471,266.306061 
	C130.992508,267.287384 132.241165,268.214661 132.934799,269.166840 
	C133.828491,268.216858 135.394043,267.331879 135.493378,266.305023 
	C135.828491,262.841095 135.394760,259.299866 135.770111,255.844131 
	C135.935928,254.317444 136.976181,252.268570 138.235718,251.573563 
	C150.450104,244.833710 162.795410,238.331085 175.246338,232.443069 
	C176.832977,233.626831 178.419617,234.810577 179.836899,236.654892 
z"/>
<path fill="#FFFFFF" opacity="1.000000" stroke="none" 
	d="
M100.866791,149.968658 
	C87.488548,157.583847 74.095619,165.173355 60.735523,172.820251 
	C41.025364,184.101715 21.338589,195.424042 1.320927,206.864471 
	C1.000000,138.419724 1.000000,69.839447 1.000000,1.000000 
	C48.020576,1.000000 95.041634,1.000000 142.413544,1.337483 
	C137.083511,4.798302 131.310028,7.773109 125.816803,11.197512 
	C124.945450,11.740703 125.336563,14.309064 124.962799,16.308603 
	C124.579247,16.932545 124.242233,17.165905 124.193733,17.448740 
	C120.758591,37.479847 117.436623,57.530796 113.909271,77.545555 
	C109.651924,101.702477 105.222015,125.828987 100.866791,149.968658 
z"/>
<path fill="#1D619C" opacity="1.000000" stroke="none" 
	d="
M125.143982,15.941111 
	C125.336563,14.309064 124.945450,11.740703 125.816803,11.197512 
	C131.310028,7.773109 137.083511,4.798302 142.882202,1.337483 
	C143.444443,1.000000 143.888901,1.000000 144.666672,0.999999 
	C149.909668,3.983928 154.831985,6.947360 159.722717,9.962021 
	C161.639633,11.143624 164.342117,11.907222 162.586349,15.583302 
	C161.094391,16.700468 159.992096,17.404478 158.548019,18.133511 
	C154.391769,20.430750 150.577286,22.702965 146.422867,25.032692 
	C144.343567,25.077051 142.604218,25.063896 140.650513,24.796089 
	C136.623779,22.387968 132.811386,20.234499 128.728943,17.918770 
	C127.353928,17.151377 126.248962,16.546244 125.143982,15.941111 
z"/>
<path fill="#1D619C" opacity="1.000000" stroke="none" 
	d="
M170.466858,447.000000 
	C169.019623,446.653839 168.029037,446.333893 167.060806,445.956573 
	C164.028625,444.774933 161.598679,443.340088 161.924484,439.309570 
	C162.255737,435.211761 161.998627,431.066376 162.367218,426.495850 
	C171.860687,431.706940 186.170273,431.327545 193.875656,425.224243 
	C193.917938,428.848175 193.988525,432.472076 193.996750,436.096069 
	C194.015106,444.178406 194.002426,444.178436 186.137756,446.648560 
	C180.977905,447.000000 175.955811,447.000000 170.466858,447.000000 
z"/>
<path fill="#6C6F71" opacity="1.000000" stroke="none" 
	d="
M140.864853,25.050743 
	C142.604218,25.063896 144.343567,25.077051 146.536362,25.373213 
	C149.116180,29.245708 151.242554,32.835197 153.918381,37.352192 
	C155.770782,30.181767 157.330292,24.145128 158.889786,18.108490 
	C159.992096,17.404478 161.094391,16.700468 162.523529,15.911715 
	C165.435303,30.248749 168.046661,44.665859 170.597198,59.093716 
	C172.779800,71.440277 174.871429,83.802917 177.051590,96.149918 
	C177.585968,99.176300 178.308929,102.169380 178.977325,105.581268 
	C180.496094,115.430763 181.871384,124.895973 183.498123,134.317780 
	C185.435806,145.540405 187.589218,156.725815 189.806580,168.704208 
	C192.731735,177.245560 188.760086,180.768204 182.175430,184.158310 
	C170.093582,190.378632 158.611832,197.756348 146.718567,204.361008 
	C145.159821,205.226654 142.255829,205.099258 140.645370,204.213196 
	C129.161560,197.895035 117.911858,191.153046 106.468819,184.758575 
	C96.411392,179.138428 96.343185,179.260483 97.937622,168.158203 
	C98.955116,162.370468 99.972610,156.582718 100.928452,150.381821 
	C105.222015,125.828987 109.651924,101.702477 113.909271,77.545555 
	C117.436623,57.530796 120.758591,37.479847 124.193733,17.448740 
	C124.242233,17.165905 124.579247,16.932545 124.962799,16.308603 
	C126.248962,16.546244 127.353928,17.151377 128.726959,18.320572 
	C130.377960,24.715359 131.760895,30.546087 133.415146,37.520767 
	C136.326889,32.646820 138.595871,28.848782 140.864853,25.050743 
M165.939331,70.786079 
	C159.246140,74.596359 152.552948,78.406647 145.350342,82.506935 
	C150.162720,87.070137 154.444702,91.130402 158.966156,95.417717 
	C161.689072,87.386543 164.437744,79.279404 167.564285,70.926300 
	C167.248260,70.820267 166.932236,70.714233 165.939331,70.786079 
M100.750694,173.901566 
	C107.838249,168.170624 114.925812,162.439667 122.117638,156.624405 
	C117.610374,145.967651 113.237099,135.627686 108.863815,125.287720 
	C108.479889,125.303856 108.095963,125.319984 107.712036,125.336121 
	C105.018776,141.434326 102.325516,157.532547 99.311348,173.964859 
	C99.383949,174.230850 99.456551,174.496857 99.529152,174.762848 
	C99.723335,174.548965 99.917519,174.335068 100.750694,173.901566 
M164.310654,191.844574 
	C171.999313,187.375870 179.687973,182.907166 188.070358,178.035248 
	C179.856735,171.343597 172.317596,165.201477 164.434799,158.779358 
	C158.422821,173.072083 152.624176,186.857620 146.825546,200.643158 
	C147.140549,200.869110 147.455566,201.095062 147.770569,201.320999 
	C153.067322,198.272949 158.364059,195.224899 164.310654,191.844574 
M135.983139,189.553452 
	C131.734314,179.505203 127.485497,169.456940 122.989174,158.823364 
	C114.845146,165.456375 107.328957,171.578018 99.342552,178.082642 
	C113.204842,186.063522 126.306740,193.606628 139.408630,201.149719 
	C139.732422,200.842255 140.056213,200.534775 140.380005,200.227295 
	C139.008835,196.906097 137.637665,193.584885 135.983139,189.553452 
M142.702438,180.497467 
	C142.702438,168.346985 142.702438,156.196503 142.702438,142.755508 
	C136.822540,147.498230 132.272903,151.335587 127.531708,154.919495 
	C125.257927,156.638260 125.013145,158.170883 126.154198,160.775345 
	C131.081482,172.021957 135.748917,183.382263 140.548630,194.685165 
	C140.930496,195.584442 141.600098,196.361526 142.702026,198.076202 
	C142.702026,191.771454 142.702026,186.633575 142.702438,180.497467 
M183.441788,147.092957 
	C182.182404,140.027634 180.923004,132.962296 179.663620,125.896973 
	C174.319061,135.473694 170.145859,145.147781 166.189758,154.909851 
	C165.860519,155.722290 166.679764,157.504944 167.503052,158.199753 
	C174.068802,163.740921 180.764420,169.128220 188.427078,175.384781 
	C186.699020,165.413010 185.183884,156.669861 183.441788,147.092957 
M160.674164,162.077866 
	C160.869598,160.103577 161.987534,157.139404 161.107437,156.319214 
	C156.205994,151.751419 150.820236,147.703323 145.285034,143.222397 
	C145.285034,161.620758 145.285034,179.304520 145.285034,198.481979 
	C150.692734,185.636063 155.507172,174.199448 160.674164,162.077866 
M115.621964,122.930145 
	C123.852715,127.663193 132.083466,132.396240 141.618011,137.879028 
	C136.830841,124.599335 132.591919,112.840477 128.977280,102.813400 
	C122.747314,108.112877 116.288330,113.607170 109.579735,119.313797 
	C111.871170,120.700012 113.430122,121.643120 115.621964,122.930145 
M148.019302,136.601349 
	C157.784515,130.995651 167.549728,125.389961 177.876556,119.461876 
	C171.572296,112.848648 165.670975,106.658096 159.451385,100.133667 
	C155.210083,111.902046 151.152466,123.113846 147.162140,134.349564 
	C146.923279,135.022110 147.222656,135.885788 148.019302,136.601349 
M154.829498,135.312439 
	C151.972870,136.979889 149.116241,138.647324 145.735886,140.620483 
	C151.789230,145.551208 157.530792,150.227982 163.590683,155.164062 
	C168.164352,144.294022 172.533051,133.911118 177.434326,122.262428 
	C169.226334,127.008141 162.348572,130.984741 154.829498,135.312439 
M128.532516,132.963165 
	C122.855751,129.688766 117.178993,126.414368 111.502228,123.139969 
	C111.222130,123.358612 110.942032,123.577255 110.661934,123.795891 
	C114.981651,134.017548 119.301376,144.239182 123.900871,155.122849 
	C130.099625,150.082047 135.676102,145.547272 141.720734,140.631805 
	C137.123947,137.950867 133.149246,135.632736 128.532516,132.963165 
M154.324539,74.843185 
	C158.995636,72.110458 163.666718,69.377724 168.682159,66.443535 
	C164.024185,58.614189 159.691422,51.331474 154.732452,42.996201 
	C151.531708,55.815254 148.686020,67.212265 145.545990,79.788147 
	C149.095200,77.775078 151.383652,76.477089 154.324539,74.843185 
M131.110886,45.685654 
	C127.068611,52.520618 123.026344,59.355587 118.790268,66.518250 
	C126.183609,70.781250 133.308884,74.889694 140.632263,79.112358 
	C140.864914,78.025513 141.149948,77.499359 141.044464,77.068916 
	C138.442886,66.454079 135.807739,55.847389 133.100647,45.259174 
	C133.053116,45.073307 132.051270,45.131428 131.110886,45.685654 
M139.505737,88.085831 
	C137.191498,90.463066 135.010223,92.991806 132.524399,95.173538 
	C130.191849,97.220757 129.791946,99.175667 130.942886,102.119843 
	C133.956390,109.828598 136.583084,117.687927 139.419312,125.467064 
	C140.224915,127.676620 141.220398,129.816940 142.537781,132.966934 
	C142.537781,116.509499 142.537781,101.315460 142.537781,85.494774 
	C141.410583,86.431084 140.702133,87.019562 139.505737,88.085831 
M116.727203,75.548782 
	C114.368210,88.599632 112.009216,101.650482 109.567841,115.157074 
	C115.304092,109.570343 120.633820,104.436874 125.865425,99.205284 
	C126.459824,98.610886 126.974014,97.300339 126.729362,96.599892 
	C123.863029,88.393333 120.844292,80.240005 117.373436,70.722527 
	C117.060387,73.157066 116.954849,73.977837 116.727203,75.548782 
M174.829651,97.780441 
	C173.286453,89.375275 171.743240,80.970100 169.934860,71.120621 
	C166.661758,80.064659 163.878220,87.502037 161.263611,94.998352 
	C160.873322,96.117363 160.750320,97.987679 161.397034,98.705116 
	C166.115707,103.939751 171.062805,108.968452 175.937775,114.062187 
	C176.402679,113.860687 176.867584,113.659180 177.332504,113.457680 
	C176.542679,108.516075 175.752853,103.574463 174.829651,97.780441 
M144.926971,130.391129 
	C145.058472,130.627441 145.189972,130.863754 145.321472,131.100067 
	C145.551331,130.926926 145.909973,130.800674 145.992554,130.573914 
	C149.674454,120.464462 153.371033,110.359795 156.925705,100.205505 
	C157.243164,99.298630 156.999100,97.709015 156.372055,97.038498 
	C152.923721,93.350998 149.274933,89.850937 144.906799,85.501869 
	C144.906799,100.909386 144.906799,115.257576 144.926971,130.391129 
M121.100166,74.491997 
	C123.618294,81.382919 126.136429,88.273849 128.352829,94.339096 
	C132.796463,90.332443 137.049149,86.497948 141.698425,82.305870 
	C134.439667,78.117630 127.509178,74.118805 119.735771,69.633614 
	C120.298531,71.662277 120.591286,72.717636 121.100166,74.491997 
M138.546356,33.053482 
	C134.318756,37.738785 134.039383,42.979317 136.150513,48.682495 
	C137.009186,51.002186 137.442184,53.479271 138.071609,55.884029 
	C139.383255,60.895275 140.696716,65.906052 142.360031,72.255280 
	C142.360031,56.458042 142.360031,42.209473 142.360031,26.806757 
	C140.789963,29.359129 139.847198,30.891739 138.546356,33.053482 
M122.844193,55.357780 
	C124.800850,52.075264 126.805862,48.820274 128.696045,45.499916 
	C129.832886,43.502903 131.931580,41.210526 131.622101,39.386040 
	C130.556763,33.105503 128.621643,26.972507 127.017899,20.783297 
	C126.775482,20.834681 126.533073,20.886065 126.290657,20.937447 
	C124.101952,33.401871 121.913239,45.866291 119.724533,58.330715 
	C120.015877,58.438354 120.307220,58.545998 120.598564,58.653641 
	C121.218124,57.761753 121.837677,56.869869 122.844193,55.357780 
M144.896179,37.569199 
	C144.896179,48.361710 144.896179,59.154221 144.896179,69.946732 
	C147.442520,63.068886 148.457779,55.751301 151.180344,49.136395 
	C154.928299,40.030102 149.720520,34.353703 144.896072,27.026709 
	C144.896072,30.955902 144.896072,33.778805 144.896179,37.569199 
M161.690048,23.427361 
	C161.350555,22.592731 161.011078,21.758102 160.470352,20.428741 
	C158.964462,26.281485 157.527710,31.555012 156.292984,36.875431 
	C155.970886,38.263371 155.761902,40.079487 156.383484,41.216476 
	C159.435638,46.799549 162.785385,52.219940 166.438400,58.387291 
	C166.864883,56.931793 167.158905,56.472504 167.093658,56.071686 
	C165.363373,45.438622 163.596024,34.811592 161.690048,23.427361 
z"/>
<path fill="#1C609B" opacity="1.000000" stroke="none" 
	d="
M293.908813,244.495834 
	C299.647064,240.388519 305.454376,236.743179 311.608459,233.056656 
	C311.976685,274.359253 311.998169,315.703033 312.010315,357.936646 
	C311.388062,360.666962 310.993591,363.971222 310.125427,364.100769 
	C305.798279,364.746338 301.254700,365.089294 296.992340,364.352509 
	C295.635620,364.117981 294.910065,360.231995 293.895691,358.016876 
	C293.923096,320.330536 293.950500,282.644165 293.908813,244.495834 
z"/>
<path fill="#1C609B" opacity="1.000000" stroke="none" 
	d="
M230.926956,280.491699 
	C236.996506,276.363251 243.121277,272.698761 249.601929,269.023560 
	C249.939240,308.359009 249.920670,347.705261 249.585144,387.788300 
	C248.884644,390.051239 248.661697,392.831909 248.092133,392.904816 
	C243.588364,393.481354 238.970825,393.977173 234.499023,393.487152 
	C233.212006,393.346130 232.286469,389.906342 231.195190,387.979004 
	C231.129929,361.597290 231.060272,335.215546 231.001785,308.833832 
	C230.981171,299.541168 230.987930,290.248413 230.926956,280.491699 
z"/>
<path fill="#1C609B" opacity="1.000000" stroke="none" 
	d="
M169.055725,305.495056 
	C169.407211,305.121246 169.807877,305.119812 170.029922,305.318237 
	C175.471161,310.181335 180.864426,309.822906 186.565704,305.126221 
	C186.933624,342.703827 186.973480,380.370331 186.950516,418.902679 
	C186.942780,422.139465 187.017883,424.613861 183.806686,424.929077 
	C180.730347,425.231110 177.630615,425.452789 174.542465,425.437927 
	C170.347763,425.417786 168.200729,423.353058 168.852783,418.955780 
	C168.909088,381.290710 168.965393,343.625610 169.055725,305.495056 
z"/>
<path fill="#1D619C" opacity="1.000000" stroke="none" 
	d="
M256.977722,394.029907 
	C256.985962,398.340881 256.711548,402.676270 257.081146,406.956024 
	C257.458221,411.322510 254.896133,413.735474 251.596375,414.619263 
	C243.785706,416.711212 235.714172,417.066864 228.129974,413.781921 
	C226.252258,412.968597 224.499115,410.030487 224.178955,407.850281 
	C223.559219,403.630310 223.998825,399.254791 224.355637,394.522339 
	C232.842606,400.529938 247.539673,400.497589 256.977722,394.029907 
z"/>
<path fill="#1D619C" opacity="1.000000" stroke="none" 
	d="
M318.995758,365.995392 
	C318.997986,370.468658 318.887970,374.945740 319.039368,379.413940 
	C319.151947,382.736572 317.865051,384.204254 314.552704,385.253052 
	C306.109222,387.926605 297.909760,387.856110 289.885529,384.274109 
	C288.546478,383.676392 287.246704,381.486694 287.128326,379.940765 
	C286.775177,375.329834 287.018677,370.673157 287.372498,365.678650 
	C290.182709,366.531830 292.531403,368.237427 295.138275,368.857574 
	C303.372070,370.816254 311.402771,369.945007 318.995758,365.995392 
z"/>
<path fill="#BFDDF1" opacity="1.000000" stroke="none" 
	d="
M319.027069,365.592682 
	C311.402771,369.945007 303.372070,370.816254 295.138275,368.857574 
	C292.531403,368.237427 290.182709,366.531830 287.391785,365.218079 
	C286.531158,360.460480 290.673126,360.093323 293.590668,358.171021 
	C294.910065,360.231995 295.635620,364.117981 296.992340,364.352509 
	C301.254700,365.089294 305.798279,364.746338 310.125427,364.100769 
	C310.993591,363.971222 311.388062,360.666962 312.071686,358.400055 
	C315.223389,359.635712 319.957153,359.713837 319.027069,365.592682 
z"/>
<path fill="#BFDDF1" opacity="1.000000" stroke="none" 
	d="
M257.015686,393.654114 
	C247.539673,400.497589 232.842606,400.529938 224.361694,394.055359 
	C223.888596,389.595795 227.075882,388.722839 230.807922,387.998657 
	C232.286469,389.906342 233.212006,393.346130 234.499023,393.487152 
	C238.970825,393.977173 243.588364,393.481354 248.092133,392.904816 
	C248.661697,392.831909 248.884644,390.051239 249.535919,388.253723 
	C253.300491,388.268982 256.349365,389.168793 257.015686,393.654114 
z"/>
<path fill="#C3E1F3" opacity="1.000000" stroke="none" 
	d="
M168.478699,418.982605 
	C168.200729,423.353058 170.347763,425.417786 174.542465,425.437927 
	C177.630615,425.452789 180.730347,425.231110 183.806686,424.929077 
	C187.017883,424.613861 186.942780,422.139465 186.997070,419.367126 
	C190.512558,419.400269 193.581573,420.257080 193.929199,424.839905 
	C186.170273,431.327545 171.860687,431.706940 162.372726,426.028687 
	C161.157608,421.163208 164.260208,419.763306 168.478699,418.982605 
z"/>
<path fill="#1C609B" opacity="1.000000" stroke="none" 
	d="
M43.007542,233.481812 
	C49.299950,236.472610 55.586155,239.931396 62.016380,243.711700 
	C62.107105,276.398041 62.058258,308.762848 61.996323,341.127625 
	C61.985523,346.769379 61.919586,352.410980 61.566399,358.799164 
	C60.867836,361.059937 60.641388,363.818237 60.070881,363.891327 
	C55.579079,364.466888 50.974461,364.961731 46.513985,364.476257 
	C45.238071,364.337372 44.321011,360.901581 43.239399,358.977509 
	C43.159424,350.845215 43.016651,342.713013 43.010448,334.580658 
	C42.984871,301.037048 43.000717,267.493408 43.007542,233.481812 
z"/>
<path fill="#1C609B" opacity="1.000000" stroke="none" 
	d="
M105.996277,269.469879 
	C111.980858,272.453094 117.967896,275.904755 124.057449,279.696411 
	C124.113190,315.373199 124.066414,350.709991 124.010300,386.936859 
	C123.691658,389.544220 123.594887,392.672333 123.039459,392.756012 
	C118.529694,393.435486 113.890854,393.987183 109.391632,393.548706 
	C108.097755,393.422577 107.131035,389.939423 106.014313,387.995453 
	C106.009117,348.643097 106.003922,309.290710 105.996277,269.469879 
z"/>
<path fill="#1D619C" opacity="1.000000" stroke="none" 
	d="
M68.989464,365.008118 
	C68.993790,369.486816 68.870895,373.970367 69.043076,378.442627 
	C69.178452,381.958771 67.477722,383.903992 64.385071,385.007721 
	C56.431660,387.846191 48.477196,387.856781 40.536011,384.991547 
	C37.462135,383.882477 35.775539,381.892944 35.949825,378.359100 
	C36.153851,374.222229 35.997463,370.067535 36.352692,365.481628 
	C44.786793,371.503601 59.225204,371.488159 68.989464,365.008118 
z"/>
<path fill="#1D619C" opacity="1.000000" stroke="none" 
	d="
M130.995789,394.995361 
	C130.997986,399.468201 130.888367,403.944855 131.039276,408.412659 
	C131.151428,411.733551 129.888199,413.237549 126.550697,414.245605 
	C118.129623,416.789093 109.915192,417.153900 101.906296,413.291718 
	C100.556488,412.640778 99.247757,410.505310 99.129356,408.962891 
	C98.775452,404.352661 99.021988,399.696350 99.377884,394.712463 
	C101.559593,395.396698 103.284172,396.815887 105.254852,397.389343 
	C114.106712,399.965179 122.740616,399.287140 130.995789,394.995361 
z"/>
<path fill="#BFDDF1" opacity="1.000000" stroke="none" 
	d="
M69.027420,364.633362 
	C59.225204,371.488159 44.786793,371.503601 36.352646,365.012939 
	C35.910793,360.568329 39.107368,359.708740 42.848999,358.997070 
	C44.321011,360.901581 45.238071,364.337372 46.513985,364.476257 
	C50.974461,364.961731 55.579079,364.466888 60.070881,363.891327 
	C60.641388,363.818237 60.867836,361.059937 61.506531,359.263550 
	C65.269890,359.251923 68.321556,360.157715 69.027420,364.633362 
z"/>
<path fill="#BFDDF1" opacity="1.000000" stroke="none" 
	d="
M131.027100,394.592651 
	C122.740616,399.287140 114.106712,399.965179 105.254852,397.389343 
	C103.284172,396.815887 101.559593,395.396698 99.402786,394.253876 
	C98.805214,389.739655 101.913101,388.761597 105.638519,388.011658 
	C107.131035,389.939423 108.097755,393.422577 109.391632,393.548706 
	C113.890854,393.987183 118.529694,393.435486 123.039459,392.756012 
	C123.594887,392.672333 123.691658,389.544220 124.071716,387.400269 
	C127.223358,388.635742 131.957047,388.713898 131.027100,394.592651 
z"/>
<path fill="#1E629C" opacity="1.000000" stroke="none" 
	d="
M97.638657,168.299194 
	C96.343185,179.260483 96.411392,179.138428 106.468819,184.758575 
	C117.911858,191.153046 129.161560,197.895035 140.645370,204.213196 
	C142.255829,205.099258 145.159821,205.226654 146.718567,204.361008 
	C158.611832,197.756348 170.093582,190.378632 182.175430,184.158310 
	C188.760086,180.768204 192.731735,177.245560 189.993881,169.024185 
	C194.656937,171.182968 199.136581,174.138977 203.966690,176.318207 
	C208.754944,178.478561 210.307999,181.609818 210.023865,186.765182 
	C209.826477,190.346817 208.885666,192.366669 205.701675,194.169754 
	C186.593887,204.990555 167.577744,215.976013 148.645538,227.101379 
	C145.225174,229.111328 142.582581,229.290115 139.068466,227.223587 
	C119.996277,216.007980 100.766937,205.059891 81.616669,193.976562 
	C75.933205,190.687241 76.075653,180.754227 81.792671,177.436325 
	C86.971161,174.430969 92.157066,171.438400 97.638657,168.299194 
z"/>
<path fill="#24669F" opacity="1.000000" stroke="none" 
	d="
M281.784454,224.634048 
	C279.965637,225.382095 277.942993,225.834854 276.361450,226.926620 
	C266.850250,233.492386 256.435059,235.310013 247.554733,233.420364 
	C241.827423,236.858994 237.761688,239.300018 233.092224,242.103516 
	C237.049500,250.993347 228.899628,252.671249 222.988770,255.896652 
	C222.262909,256.292725 221.513367,256.645447 220.296371,256.815521 
	C219.218369,255.447021 218.618820,254.281235 218.279205,252.994049 
	C218.688751,252.556549 218.838364,252.240433 218.991638,251.958160 
	C218.995300,251.991989 218.928192,251.980652 219.288818,251.996384 
	C219.754257,251.654831 219.859055,251.297562 219.980804,250.970276 
	C219.997757,251.000290 219.948685,250.951660 220.274811,251.200150 
	C222.548752,250.532318 224.783173,249.947632 226.351486,248.592178 
	C227.553696,247.553162 228.693832,245.394913 228.432068,244.003326 
	C228.169159,242.605515 226.338882,240.936661 224.844559,240.437881 
	C219.430588,238.630737 215.315521,241.340408 211.324921,245.082626 
	C209.264771,246.097366 207.539825,247.051239 205.475464,247.940125 
	C204.445496,246.235519 203.754944,244.595901 203.292847,242.968262 
	C203.521301,242.980255 203.979675,243.005798 204.340775,243.005905 
	C207.987396,241.004028 211.272934,239.002029 214.558456,237.000046 
	C214.356705,236.398270 214.154953,235.796494 213.953201,235.194717 
	C208.724396,235.797134 203.328964,232.387817 197.853546,236.873688 
	C195.218491,237.965363 192.989182,239.004822 190.463745,239.992798 
	C189.447327,238.803848 188.727051,237.666382 188.334579,236.409973 
	C189.104950,235.833237 189.547531,235.375458 189.990524,234.952789 
	C189.990936,234.987915 189.925064,234.963486 190.291412,235.030045 
	C197.560883,230.195145 205.305801,228.877304 214.938721,230.800034 
	C213.819672,227.000031 213.852463,223.428619 212.204330,222.289734 
	C208.885391,219.996292 203.913528,216.904160 200.942047,217.936493 
	C193.895752,220.384476 187.619095,225.047745 180.681015,228.887726 
	C178.588226,229.893478 176.845795,230.827133 175.103348,231.760773 
	C162.795410,238.331085 150.450104,244.833710 138.235718,251.573563 
	C136.976181,252.268570 135.935928,254.317444 135.770111,255.844131 
	C135.394760,259.299866 135.828491,262.841095 135.493378,266.305023 
	C135.394043,267.331879 133.828491,268.216858 132.934784,269.166840 
	C132.241165,268.214661 130.992508,267.287384 130.948471,266.306061 
	C130.739838,261.655457 130.451828,256.935089 131.068939,252.357773 
	C131.307312,250.589569 133.579681,248.612549 135.407806,247.613388 
	C168.661270,229.438919 201.990295,211.402725 235.298798,193.328918 
	C248.301010,186.273666 261.288025,179.190430 274.290649,172.135956 
	C279.734955,169.182190 280.970703,169.898132 281.014099,175.985214 
	C281.029510,178.148560 281.237396,180.353394 280.878357,182.457535 
	C280.711548,183.435150 279.399811,184.217407 278.607086,185.088242 
	C277.793335,184.213593 276.531830,183.454193 276.270111,182.437469 
	C275.871704,180.889542 276.165802,179.163345 276.165802,176.607224 
	C267.984589,181.100906 260.456329,185.235962 252.479889,189.783035 
	C250.669418,190.835144 249.307068,191.475235 247.609558,192.191132 
	C240.474030,196.071884 233.673660,199.876831 226.547546,203.792160 
	C224.454254,204.885269 222.686707,205.867981 220.565796,206.909515 
	C216.162231,209.179779 212.112015,211.391251 207.220474,214.062088 
	C210.064835,215.358124 211.942291,216.213593 213.892975,217.445465 
	C213.741486,222.156570 217.241669,222.968704 220.137207,223.686935 
	C228.383423,225.732361 236.488831,225.420227 244.119598,221.179077 
	C250.909561,218.042358 257.601654,214.593414 264.681702,211.099091 
	C266.314972,211.438309 267.560272,211.822922 268.805603,212.207550 
	C268.149292,213.515671 267.492981,214.823776 266.494965,216.169647 
	C258.811523,219.998718 251.469772,223.790009 244.128021,227.581314 
	C244.290527,228.145203 244.453018,228.709091 244.615524,229.272964 
	C251.115494,228.825165 257.844025,229.262009 264.045685,227.659683 
	C269.348541,226.289581 274.047058,222.580383 279.240234,219.810059 
	C279.752411,219.499664 279.897583,219.213974 279.830139,218.848648 
	C279.757233,218.840088 279.677399,218.716904 280.060547,218.813232 
	C286.129303,219.590714 283.525604,222.213394 281.784454,224.634048 
z"/>
<path fill="#2869A1" opacity="1.000000" stroke="none" 
	d="
M209.119659,263.614014 
	C200.348755,268.303986 191.506134,272.868683 182.877899,277.807861 
	C181.448303,278.626251 180.375626,281.008850 180.153625,282.794830 
	C179.726746,286.228760 180.200745,289.766663 179.929749,293.232422 
	C179.836807,294.421112 178.634277,295.523041 177.938690,296.664612 
	C177.078934,295.649628 175.532211,294.670807 175.476562,293.613495 
	C175.215149,288.646698 175.034958,283.624115 175.548401,278.696747 
	C175.721695,277.033783 177.735397,275.087280 179.402023,274.134766 
	C188.180801,269.117676 197.117584,264.377014 206.582458,259.209839 
	C208.696594,259.110992 210.227814,259.342712 211.759018,259.574432 
	C210.879227,260.920959 209.999435,262.267487 209.119659,263.614014 
z"/>
<path fill="#2869A1" opacity="1.000000" stroke="none" 
	d="
M194.897064,255.261932 
	C185.655334,260.132507 176.370377,264.924835 167.229172,269.977325 
	C166.144974,270.576569 165.377075,272.564240 165.275085,273.967346 
	C164.998611,277.770782 165.304398,281.615967 165.043076,285.421539 
	C164.979004,286.354645 163.627991,287.199402 162.868637,288.084778 
	C162.044998,287.223785 160.546082,286.390656 160.509201,285.497192 
	C160.297104,280.357635 160.145752,275.176941 160.625641,270.071442 
	C160.765808,268.579987 162.799454,266.867279 164.373016,265.975952 
	C173.180832,260.986938 182.113541,256.218414 191.637268,251.085480 
	C193.733856,250.797943 195.196732,250.799515 196.659607,250.801102 
	C196.072083,252.288040 195.484573,253.774979 194.897064,255.261932 
z"/>
<path fill="#25679F" opacity="1.000000" stroke="none" 
	d="
M179.860107,246.972260 
	C170.481049,251.884903 161.067352,256.734070 151.775162,261.805908 
	C150.819153,262.327698 150.172668,264.155090 150.099823,265.418060 
	C149.880295,269.224976 150.193695,273.066254 149.897980,276.862854 
	C149.813736,277.944519 148.360748,278.919525 147.535400,279.943451 
	C146.749664,279.015350 145.323944,278.113220 145.284988,277.154785 
	C145.076263,272.019257 144.871109,266.832001 145.431778,261.747162 
	C145.608170,260.147583 147.932770,258.412933 149.664001,257.419342 
	C158.431549,252.387543 167.327454,247.579422 176.803925,242.379608 
	C178.914185,242.183868 180.398926,242.301392 182.777466,242.489655 
	C181.401550,244.603775 180.630829,245.788025 179.860107,246.972260 
z"/>
<path fill="#2869A1" opacity="1.000000" stroke="none" 
	d="
M308.955688,203.045685 
	C312.654999,201.377075 316.384644,199.771835 320.044495,198.020782 
	C323.264740,196.480057 325.170105,196.970947 325.179016,200.936798 
	C325.184204,203.254639 325.415009,205.608246 325.075348,207.875488 
	C324.902466,209.029526 323.693451,210.028366 322.952789,211.097351 
	C322.087738,210.098785 320.943420,209.222397 320.437622,208.066589 
	C319.949921,206.952240 320.121460,205.549393 319.940796,203.596924 
	C310.639648,208.576065 301.792084,213.312378 292.480591,217.763794 
	C291.648804,215.824615 291.280945,214.170334 291.049316,212.358978 
	C291.646545,211.884003 292.107574,211.566101 292.801971,211.514679 
	C298.369537,208.842590 303.703735,205.904022 309.020874,202.989075 
	C309.003754,203.012695 308.955688,203.045685 308.955688,203.045685 
z"/>
<path fill="#27689F" opacity="1.000000" stroke="none" 
	d="
M278.125153,202.939697 
	C280.130676,202.284561 282.266693,201.882843 284.118408,200.929123 
	C291.058990,197.354446 297.867157,193.522858 304.804871,189.942398 
	C308.601257,187.983109 310.114807,188.844574 310.115112,192.996155 
	C310.115326,196.081284 309.568024,199.166428 309.110138,202.648621 
	C308.955688,203.045685 309.003754,203.012695 308.650940,202.919678 
	C306.832916,200.685989 305.367645,198.545334 303.405792,195.679230 
	C297.932800,199.103470 291.947510,202.848221 285.588867,206.723846 
	C282.829651,207.867874 280.443787,208.881042 277.758545,209.732269 
	C276.955475,208.079849 276.451721,206.589355 276.236511,204.970261 
	C277.058380,204.207672 277.591766,203.573685 278.125153,202.939697 
z"/>
<path fill="#24669F" opacity="1.000000" stroke="none" 
	d="
M262.051575,196.000092 
	C265.771515,194.293579 269.568024,192.734055 273.193268,190.845734 
	C278.494293,188.084473 283.639832,185.026306 288.912415,182.208405 
	C293.917450,179.533493 295.097321,180.240540 295.168121,185.719696 
	C295.185303,187.049683 295.425079,188.448669 295.093567,189.690765 
	C294.770081,190.902725 293.846649,191.954559 293.186615,193.076691 
	C292.400391,191.915253 291.528259,190.799957 290.867981,189.570862 
	C290.582581,189.039597 290.734619,188.273270 290.627258,186.755814 
	C283.961365,190.431412 277.655029,193.908737 270.783661,197.733292 
	C267.741425,199.431564 265.264252,200.782593 262.649780,202.169952 
	C262.512451,202.206268 262.228424,202.200974 262.128662,201.822418 
	C261.730255,199.930328 261.431641,198.416763 261.323364,196.794876 
	C261.736237,196.491608 261.915527,196.262787 262.051575,196.000092 
z"/>
<path fill="#65676A" opacity="1.000000" stroke="none" 
	d="
M195.219986,255.485718 
	C195.484573,253.774979 196.072083,252.288040 196.659607,250.801102 
	C195.196732,250.799515 193.733856,250.797943 191.947678,250.870697 
	C192.693359,248.871094 193.762314,246.797119 195.298401,244.368896 
	C198.198486,243.661865 200.631439,243.309067 203.064392,242.956268 
	C203.754944,244.595901 204.445496,246.235519 205.550156,248.258270 
	C205.984528,249.075974 206.004791,249.510544 206.025055,249.945129 
	C202.531021,251.866592 199.036972,253.788055 195.219986,255.485718 
z"/>
<path fill="#65676A" opacity="1.000000" stroke="none" 
	d="
M290.913086,212.516068 
	C291.280945,214.170334 291.648804,215.824615 292.151550,217.886475 
	C291.601532,224.223557 287.001648,224.500900 282.177917,224.828613 
	C283.525604,222.213394 286.129303,219.590714 280.082520,218.452301 
	C280.441956,216.356964 281.162537,214.718903 282.339050,213.068665 
	C285.501007,212.876358 288.207062,212.696213 290.913086,212.516068 
z"/>
<path fill="#65676A" opacity="1.000000" stroke="none" 
	d="
M209.495483,263.734558 
	C209.999435,262.267487 210.879227,260.920959 211.759018,259.574432 
	C210.227814,259.342712 208.696594,259.110992 206.839478,258.943665 
	C207.611404,256.941589 208.709244,254.875061 210.256866,252.443512 
	C212.785690,252.042572 214.864731,252.006668 217.014053,252.242706 
	C217.395966,252.714935 217.707611,252.915207 218.019257,253.115463 
	C218.618820,254.281235 219.218369,255.447021 219.949738,256.915588 
	C218.651367,262.466309 214.498138,263.524994 209.495483,263.734558 
z"/>
<path fill="#65676A" opacity="1.000000" stroke="none" 
	d="
M180.120193,247.176865 
	C180.630829,245.788025 181.401550,244.603775 182.777466,242.489655 
	C180.398926,242.301392 178.914185,242.183868 177.071518,242.124817 
	C177.754684,240.340500 178.795792,238.497696 180.333572,236.309372 
	C182.741028,235.979111 184.651825,235.994385 186.928314,236.126480 
	C187.531616,236.338516 187.769196,236.433701 188.006775,236.528900 
	C188.727051,237.666382 189.447327,238.803848 190.555664,240.269516 
	C190.990341,240.982376 191.036942,241.367065 191.083557,241.751740 
	C187.515808,243.628311 183.948044,245.504898 180.120193,247.176865 
z"/>
<path fill="#3A3C3D" opacity="1.000000" stroke="none" 
	d="
M262.099701,195.636749 
	C261.915527,196.262787 261.736237,196.491608 260.970642,196.696823 
	C257.653778,196.785873 254.879944,196.864624 251.804337,196.757385 
	C250.316605,195.086044 249.130661,193.600693 247.944717,192.115326 
	C249.307068,191.475235 250.669418,190.835144 252.335724,190.121094 
	C255.095245,190.228149 257.622650,190.110199 259.985291,190.677826 
	C262.166077,191.201752 264.176483,192.458298 262.099701,195.636749 
z"/>
<path fill="#3A3C3D" opacity="1.000000" stroke="none" 
	d="
M262.787079,202.133636 
	C265.264252,200.782593 267.741425,199.431564 270.595123,198.021454 
	C273.502411,199.068405 277.424927,197.854294 278.071899,202.564606 
	C277.591766,203.573685 277.058380,204.207672 275.794098,204.927597 
	C272.371155,205.011551 269.679138,205.009567 266.677094,204.908844 
	C265.173737,203.917953 263.980408,203.025787 262.787079,202.133636 
z"/>
<path fill="#383939" opacity="1.000000" stroke="none" 
	d="
M186.562592,236.009644 
	C184.651825,235.994385 182.741028,235.979111 180.418243,235.979095 
	C178.419617,234.810577 176.832977,233.626831 175.174835,232.101929 
	C176.845795,230.827133 178.588226,229.893478 181.120209,228.888275 
	C189.785858,229.033279 190.392899,229.498810 189.925064,234.963486 
	C189.925064,234.963486 189.990936,234.987915 189.665649,234.672882 
	C188.414444,234.908432 187.488525,235.459030 186.562592,236.009644 
z"/>
<path fill="#3A3C3D" opacity="1.000000" stroke="none" 
	d="
M216.943787,251.970764 
	C214.864731,252.006668 212.785690,252.042572 210.259476,252.105042 
	C208.653595,251.590271 207.494888,251.048950 206.180634,250.226379 
	C206.004791,249.510544 205.984528,249.075974 205.889557,248.323257 
	C207.539825,247.051239 209.264771,246.097366 211.748535,245.132385 
	C215.678986,246.182556 221.189499,244.258743 219.948685,250.951660 
	C219.948685,250.951660 219.997757,251.000290 219.626862,250.956726 
	C219.146713,251.268997 219.037445,251.624832 218.928192,251.980652 
	C218.928192,251.980652 218.995300,251.991989 218.700928,251.690994 
	C217.918961,251.583588 217.431381,251.777176 216.943787,251.970764 
z"/>
<path fill="#383939" opacity="1.000000" stroke="none" 
	d="
M191.299622,241.996185 
	C191.036942,241.367065 190.990341,240.982376 190.851807,240.320984 
	C192.989182,239.004822 195.218491,237.965363 198.231903,236.932297 
	C205.402664,237.976898 206.037277,238.752594 203.979675,243.005798 
	C203.979675,243.005798 203.521301,242.980255 203.292847,242.968262 
	C200.631439,243.309067 198.198486,243.661865 195.342438,244.030472 
	C193.784790,243.444382 192.650238,242.842499 191.299622,241.996185 
z"/>
<path fill="#C2DEEE" opacity="1.000000" stroke="none" 
	d="
M140.650513,24.796091 
	C138.595871,28.848782 136.326889,32.646820 133.415146,37.520767 
	C131.760895,30.546087 130.377960,24.715359 128.997025,18.482830 
	C132.811386,20.234499 136.623779,22.387968 140.650513,24.796091 
z"/>
<path fill="#C2DEEE" opacity="1.000000" stroke="none" 
	d="
M158.548019,18.133511 
	C157.330292,24.145128 155.770782,30.181767 153.918381,37.352192 
	C151.242554,32.835197 149.116180,29.245708 146.876297,25.315701 
	C150.577286,22.702965 154.391769,20.430750 158.548019,18.133511 
z"/>
<path fill="#C9E5F4" opacity="1.000000" stroke="none" 
	d="
M163.985733,192.010712 
	C158.364059,195.224899 153.067322,198.272949 147.770569,201.320999 
	C147.455566,201.095062 147.140549,200.869110 146.825546,200.643158 
	C152.624176,186.857620 158.422821,173.072083 164.434799,158.779358 
	C172.317596,165.201477 179.856735,171.343597 188.070358,178.035248 
	C179.687973,182.907166 171.999313,187.375870 163.985733,192.010712 
z"/>
<path fill="#C9E5F4" opacity="1.000000" stroke="none" 
	d="
M136.124817,189.908569 
	C137.637665,193.584885 139.008835,196.906097 140.380005,200.227295 
	C140.056213,200.534775 139.732422,200.842255 139.408630,201.149719 
	C126.306740,193.606628 113.204842,186.063522 99.342552,178.082642 
	C107.328957,171.578018 114.845146,165.456375 122.989174,158.823364 
	C127.485497,169.456940 131.734314,179.505203 136.124817,189.908569 
z"/>
<path fill="#C5DFEE" opacity="1.000000" stroke="none" 
	d="
M142.702240,180.996582 
	C142.702026,186.633575 142.702026,191.771454 142.702026,198.076202 
	C141.600098,196.361526 140.930496,195.584442 140.548630,194.685165 
	C135.748917,183.382263 131.081482,172.021957 126.154198,160.775345 
	C125.013145,158.170883 125.257927,156.638260 127.531708,154.919495 
	C132.272903,151.335587 136.822540,147.498230 142.702438,142.755508 
	C142.702438,156.196503 142.702438,168.346985 142.702240,180.996582 
z"/>
<path fill="#C9E4F4" opacity="1.000000" stroke="none" 
	d="
M183.555267,147.509827 
	C185.183884,156.669861 186.699020,165.413010 188.427078,175.384781 
	C180.764420,169.128220 174.068802,163.740921 167.503052,158.199753 
	C166.679764,157.504944 165.860519,155.722290 166.189758,154.909851 
	C170.145859,145.147781 174.319061,135.473694 179.663620,125.896973 
	C180.923004,132.962296 182.182404,140.027634 183.555267,147.509827 
z"/>
<path fill="#C9E4F4" opacity="1.000000" stroke="none" 
	d="
M99.632263,173.630753 
	C102.325516,157.532547 105.018776,141.434326 107.712036,125.336121 
	C108.095963,125.319984 108.479889,125.303856 108.863815,125.287720 
	C113.237099,135.627686 117.610374,145.967651 122.117638,156.624405 
	C114.925812,162.439667 107.838249,168.170624 100.312233,173.887894 
	C99.873772,173.874222 99.632263,173.630753 99.632263,173.630753 
z"/>
<path fill="#C9E5F5" opacity="1.000000" stroke="none" 
	d="
M160.497894,162.420349 
	C155.507172,174.199448 150.692734,185.636063 145.285034,198.481979 
	C145.285034,179.304520 145.285034,161.620758 145.285034,143.222397 
	C150.820236,147.703323 156.205994,151.751419 161.107437,156.319214 
	C161.987534,157.139404 160.869598,160.103577 160.497894,162.420349 
z"/>
<path fill="#C9E5F4" opacity="1.000000" stroke="none" 
	d="
M115.305519,122.758179 
	C113.430122,121.643120 111.871170,120.700012 109.579735,119.313797 
	C116.288330,113.607170 122.747314,108.112877 128.977280,102.813400 
	C132.591919,112.840477 136.830841,124.599335 141.618011,137.879028 
	C132.083466,132.396240 123.852715,127.663193 115.305519,122.758179 
z"/>
<path fill="#C9E4F4" opacity="1.000000" stroke="none" 
	d="
M147.645432,136.630951 
	C147.222656,135.885788 146.923279,135.022110 147.162140,134.349564 
	C151.152466,123.113846 155.210083,111.902046 159.451385,100.133667 
	C165.670975,106.658096 171.572296,112.848648 177.876556,119.461876 
	C167.549728,125.389961 157.784515,130.995651 147.645432,136.630951 
z"/>
<path fill="#C8E3F2" opacity="1.000000" stroke="none" 
	d="
M155.150146,135.136902 
	C162.348572,130.984741 169.226334,127.008141 177.434326,122.262428 
	C172.533051,133.911118 168.164352,144.294022 163.590683,155.164062 
	C157.530792,150.227982 151.789230,145.551208 145.735886,140.620483 
	C149.116241,138.647324 151.972870,136.979889 155.150146,135.136902 
z"/>
<path fill="#C8E3F2" opacity="1.000000" stroke="none" 
	d="
M128.853531,133.138885 
	C133.149246,135.632736 137.123947,137.950867 141.720734,140.631805 
	C135.676102,145.547272 130.099625,150.082047 123.900871,155.122849 
	C119.301376,144.239182 114.981651,134.017548 110.661934,123.795891 
	C110.942032,123.577255 111.222130,123.358612 111.502228,123.139969 
	C117.178993,126.414368 122.855751,129.688766 128.853531,133.138885 
z"/>
<path fill="#C8E3F2" opacity="1.000000" stroke="none" 
	d="
M153.998322,75.011139 
	C151.383652,76.477089 149.095200,77.775078 145.545990,79.788147 
	C148.686020,67.212265 151.531708,55.815254 154.732452,42.996201 
	C159.691422,51.331474 164.024185,58.614189 168.682159,66.443535 
	C163.666718,69.377724 158.995636,72.110458 153.998322,75.011139 
z"/>
<path fill="#C8E3F3" opacity="1.000000" stroke="none" 
	d="
M131.302795,45.380676 
	C132.051270,45.131428 133.053116,45.073307 133.100647,45.259174 
	C135.807739,55.847389 138.442886,66.454079 141.044464,77.068916 
	C141.149948,77.499359 140.864914,78.025513 140.632263,79.112358 
	C133.308884,74.889694 126.183609,70.781250 118.790268,66.518250 
	C123.026344,59.355587 127.068611,52.520618 131.302795,45.380676 
z"/>
<path fill="#C2DCEB" opacity="1.000000" stroke="none" 
	d="
M139.749710,87.846931 
	C140.702133,87.019562 141.410583,86.431084 142.537781,85.494774 
	C142.537781,101.315460 142.537781,116.509499 142.537781,132.966934 
	C141.220398,129.816940 140.224915,127.676620 139.419312,125.467064 
	C136.583084,117.687927 133.956390,109.828598 130.942886,102.119843 
	C129.791946,99.175667 130.191849,97.220757 132.524399,95.173538 
	C135.010223,92.991806 137.191498,90.463066 139.749710,87.846931 
z"/>
<path fill="#C7E2F1" opacity="1.000000" stroke="none" 
	d="
M116.788254,75.173691 
	C116.954849,73.977837 117.060387,73.157066 117.373436,70.722527 
	C120.844292,80.240005 123.863029,88.393333 126.729362,96.599892 
	C126.974014,97.300339 126.459824,98.610886 125.865425,99.205284 
	C120.633820,104.436874 115.304092,109.570343 109.567841,115.157074 
	C112.009216,101.650482 114.368210,88.599632 116.788254,75.173691 
z"/>
<path fill="#C7E2F1" opacity="1.000000" stroke="none" 
	d="
M174.896332,98.206650 
	C175.752853,103.574463 176.542679,108.516075 177.332504,113.457680 
	C176.867584,113.659180 176.402679,113.860687 175.937775,114.062187 
	C171.062805,108.968452 166.115707,103.939751 161.397034,98.705116 
	C160.750320,97.987679 160.873322,96.117363 161.263611,94.998352 
	C163.878220,87.502037 166.661758,80.064659 169.934860,71.120621 
	C171.743240,80.970100 173.286453,89.375275 174.896332,98.206650 
z"/>
<path fill="#C9E5F5" opacity="1.000000" stroke="none" 
	d="
M144.916885,129.998444 
	C144.906799,115.257576 144.906799,100.909386 144.906799,85.501869 
	C149.274933,89.850937 152.923721,93.350998 156.372055,97.038498 
	C156.999100,97.709015 157.243164,99.298630 156.925705,100.205505 
	C153.371033,110.359795 149.674454,120.464462 145.992554,130.573914 
	C145.909973,130.800674 145.551331,130.926926 145.321472,131.100067 
	C145.189972,130.863754 145.058472,130.627441 144.916885,129.998444 
z"/>
<path fill="#C7E2F1" opacity="1.000000" stroke="none" 
	d="
M167.186432,71.172264 
	C164.437744,79.279404 161.689072,87.386543 158.966156,95.417717 
	C154.444702,91.130402 150.162720,87.070137 145.350342,82.506935 
	C152.552948,78.406647 159.246140,74.596359 166.418732,70.839775 
	C166.898117,70.893471 167.186432,71.172264 167.186432,71.172264 
z"/>
<path fill="#C8E3F3" opacity="1.000000" stroke="none" 
	d="
M120.992111,74.132492 
	C120.591286,72.717636 120.298531,71.662277 119.735771,69.633614 
	C127.509178,74.118805 134.439667,78.117630 141.698425,82.305870 
	C137.049149,86.497948 132.796463,90.332443 128.352829,94.339096 
	C126.136429,88.273849 123.618294,81.382919 120.992111,74.132492 
z"/>
<path fill="#BED7E5" opacity="1.000000" stroke="none" 
	d="
M138.725388,32.738914 
	C139.847198,30.891739 140.789963,29.359129 142.360031,26.806757 
	C142.360031,42.209473 142.360031,56.458042 142.360031,72.255280 
	C140.696716,65.906052 139.383255,60.895275 138.071609,55.884029 
	C137.442184,53.479271 137.009186,51.002186 136.150513,48.682495 
	C134.039383,42.979317 134.318756,37.738785 138.725388,32.738914 
z"/>
<path fill="#C5DFEE" opacity="1.000000" stroke="none" 
	d="
M122.650711,55.667881 
	C121.837677,56.869869 121.218124,57.761753 120.598564,58.653641 
	C120.307220,58.545998 120.015877,58.438354 119.724533,58.330715 
	C121.913239,45.866291 124.101952,33.401871 126.290657,20.937447 
	C126.533073,20.886065 126.775482,20.834681 127.017899,20.783297 
	C128.621643,26.972507 130.556763,33.105503 131.622101,39.386040 
	C131.931580,41.210526 129.832886,43.502903 128.696045,45.499916 
	C126.805862,48.820274 124.800850,52.075264 122.650711,55.667881 
z"/>
<path fill="#C8E3F3" opacity="1.000000" stroke="none" 
	d="
M144.896118,37.085453 
	C144.896072,33.778805 144.896072,30.955902 144.896072,27.026709 
	C149.720520,34.353703 154.928299,40.030102 151.180344,49.136395 
	C148.457779,55.751301 147.442520,63.068886 144.896179,69.946732 
	C144.896179,59.154221 144.896179,48.361710 144.896118,37.085453 
z"/>
<path fill="#C5DFEE" opacity="1.000000" stroke="none" 
	d="
M161.762512,23.805447 
	C163.596024,34.811592 165.363373,45.438622 167.093658,56.071686 
	C167.158905,56.472504 166.864883,56.931793 166.438400,58.387291 
	C162.785385,52.219940 159.435638,46.799549 156.383484,41.216476 
	C155.761902,40.079487 155.970886,38.263371 156.292984,36.875431 
	C157.527710,31.555012 158.964462,26.281485 160.470352,20.428741 
	C161.011078,21.758102 161.350555,22.592731 161.762512,23.805447 
z"/>
<path fill="#C9E4F4" opacity="1.000000" stroke="none" 
	d="
M99.992737,173.997711 
	C99.917519,174.335068 99.723335,174.548965 99.529152,174.762848 
	C99.456551,174.496857 99.383949,174.230850 99.471802,173.797806 
	C99.632263,173.630753 99.873772,173.874222 99.992737,173.997711 
z"/>
<path fill="#C7E2F1" opacity="1.000000" stroke="none" 
	d="
M166.757172,70.750839 
	C166.932236,70.714233 167.248260,70.820267 167.375366,71.049286 
	C167.186432,71.172264 166.898117,70.893471 166.757172,70.750839 
z"/>
<path fill="#C7E3F4" opacity="1.000000" stroke="none" 
	d="
M190.291412,235.030045 
	C190.392899,229.498810 189.785858,229.033279 181.470581,228.816162 
	C187.619095,225.047745 193.895752,220.384476 200.942047,217.936493 
	C203.913528,216.904160 208.885391,219.996292 212.204330,222.289734 
	C213.852463,223.428619 213.819672,227.000031 214.938721,230.800034 
	C205.305801,228.877304 197.560883,230.195145 190.291412,235.030045 
z"/>
<path fill="#C6E2F3" opacity="1.000000" stroke="none" 
	d="
M281.883087,213.080826 
	C281.162537,214.718903 280.441956,216.356964 279.699402,218.355972 
	C279.677399,218.716904 279.757233,218.840088 279.554077,218.858887 
	C279.238220,219.220383 279.125549,219.563095 279.012878,219.905792 
	C274.047058,222.580383 269.348541,226.289581 264.045685,227.659683 
	C257.844025,229.262009 251.115494,228.825165 244.615524,229.272964 
	C244.453018,228.709091 244.290527,228.145203 244.128021,227.581314 
	C251.469772,223.790009 258.811523,219.998718 266.744080,216.449020 
	C271.240204,215.050903 275.145477,213.411179 279.286316,211.991272 
	C280.308929,212.500992 281.096008,212.790909 281.883087,213.080826 
z"/>
<path fill="#C7E3F4" opacity="1.000000" stroke="none" 
	d="
M247.609558,192.191132 
	C249.130661,193.600693 250.316605,195.086044 251.803894,197.128540 
	C251.082291,199.770889 250.059341,201.856125 248.756897,204.151978 
	C245.340836,205.918106 242.204285,207.473602 238.733124,208.902084 
	C236.637070,207.697571 234.963608,206.419617 233.090118,205.597519 
	C231.117462,204.731918 228.953598,204.302048 226.873291,203.681763 
	C233.673660,199.876831 240.474030,196.071884 247.609558,192.191132 
z"/>
<path fill="#C7E3F4" opacity="1.000000" stroke="none" 
	d="
M262.649780,202.169952 
	C263.980408,203.025787 265.173737,203.917953 266.732117,205.269104 
	C266.162659,207.533554 265.228210,209.339020 264.293762,211.144485 
	C257.601654,214.593414 250.909561,218.042358 244.097351,220.803085 
	C242.562347,218.350189 241.147446,216.585510 239.961517,214.556793 
	C244.081329,212.246643 247.972183,210.200531 252.125336,208.383942 
	C256.716064,208.084518 261.048126,207.561127 262.228424,202.200974 
	C262.228424,202.200974 262.512451,202.206268 262.649780,202.169952 
z"/>
<path fill="#EFF4F8" opacity="1.000000" stroke="none" 
	d="
M239.732559,214.820816 
	C241.147446,216.585510 242.562347,218.350189 243.999481,220.490875 
	C236.488831,225.420227 228.383423,225.732361 220.137207,223.686935 
	C217.241669,222.968704 213.741486,222.156570 214.226242,217.312958 
	C216.486145,216.212891 218.485992,215.621719 220.528168,215.444977 
	C220.977036,216.874786 221.098297,218.232254 221.837494,218.848740 
	C225.937653,222.268250 234.905014,220.320633 237.650726,215.650162 
	C237.949722,215.141541 239.020020,215.086334 239.732559,214.820816 
z"/>
<path fill="#BFDDF1" opacity="1.000000" stroke="none" 
	d="
M220.274811,251.200150 
	C221.189499,244.258743 215.678986,246.182556 212.083710,245.071503 
	C215.315521,241.340408 219.430588,238.630737 224.844559,240.437881 
	C226.338882,240.936661 228.169159,242.605515 228.432068,244.003326 
	C228.693832,245.394913 227.553696,247.553162 226.351486,248.592178 
	C224.783173,249.947632 222.548752,250.532318 220.274811,251.200150 
z"/>
<path fill="#65676A" opacity="1.000000" stroke="none" 
	d="
M264.681702,211.099091 
	C265.228210,209.339020 266.162659,207.533554 267.042114,205.367828 
	C269.679138,205.009567 272.371155,205.011551 275.505554,205.056198 
	C276.451721,206.589355 276.955475,208.079849 277.859070,209.981995 
	C278.522888,210.852936 278.786804,211.312180 279.050751,211.771454 
	C275.145477,213.411179 271.240204,215.050903 267.085785,216.411255 
	C267.492981,214.823776 268.149292,213.515671 268.805603,212.207550 
	C267.560272,211.822922 266.314972,211.438309 264.681702,211.099091 
z"/>
<path fill="#EFF4F8" opacity="1.000000" stroke="none" 
	d="
M226.547546,203.792175 
	C228.953598,204.302048 231.117462,204.731918 233.090118,205.597519 
	C234.963608,206.419617 236.637070,207.697571 238.467575,209.162918 
	C232.710983,211.606750 226.874908,212.918701 220.989304,209.428024 
	C220.974213,208.323471 220.946671,207.587082 220.919128,206.850708 
	C222.686707,205.867981 224.454254,204.885269 226.547546,203.792175 
z"/>
<path fill="#BCDBEE" opacity="1.000000" stroke="none" 
	d="
M220.565796,206.909500 
	C220.946671,207.587082 220.974213,208.323471 220.880280,209.856232 
	C220.667816,212.111923 220.576828,213.571228 220.485840,215.030548 
	C218.485992,215.621719 216.486145,216.212891 214.153030,216.936569 
	C211.942291,216.213593 210.064835,215.358124 207.220474,214.062088 
	C212.112015,211.391251 216.162231,209.179779 220.565796,206.909500 
z"/>
<path fill="#BCDBEE" opacity="1.000000" stroke="none" 
	d="
M204.340775,243.005905 
	C206.037277,238.752594 205.402664,237.976898 198.637665,236.880066 
	C203.328964,232.387817 208.724396,235.797134 213.953201,235.194717 
	C214.154953,235.796494 214.356705,236.398270 214.558456,237.000046 
	C211.272934,239.002029 207.987396,241.004028 204.340775,243.005905 
z"/>
<path fill="#C7E3F4" opacity="1.000000" stroke="none" 
	d="
M186.928314,236.126465 
	C187.488525,235.459030 188.414444,234.908432 189.665237,234.637756 
	C189.547531,235.375458 189.104950,235.833237 188.334579,236.409973 
	C187.769196,236.433701 187.531616,236.338516 186.928314,236.126465 
z"/>
<path fill="#BFDDF1" opacity="1.000000" stroke="none" 
	d="
M217.014053,252.242706 
	C217.431381,251.777176 217.918961,251.583588 218.697266,251.657166 
	C218.838364,252.240433 218.688751,252.556549 218.279205,252.994049 
	C217.707611,252.915207 217.395966,252.714935 217.014053,252.242706 
z"/>
<path fill="#65676A" opacity="1.000000" stroke="none" 
	d="
M279.240234,219.810043 
	C279.125549,219.563095 279.238220,219.220383 279.626984,218.867432 
	C279.897583,219.213974 279.752411,219.499664 279.240234,219.810043 
z"/>
<path fill="#BFDDF1" opacity="1.000000" stroke="none" 
	d="
M219.288818,251.996384 
	C219.037445,251.624832 219.146713,251.268997 219.609924,250.926727 
	C219.859055,251.297562 219.754257,251.654831 219.288818,251.996384 
z"/>
<path fill="#CAE6F6" opacity="1.000000" stroke="none" 
	d="
M285.962219,206.592987 
	C291.947510,202.848221 297.932800,199.103470 303.405792,195.679230 
	C305.367645,198.545334 306.832916,200.685989 308.668060,202.896057 
	C303.703735,205.904022 298.369537,208.842590 292.988342,211.138977 
	C292.341522,206.108871 288.658844,207.232391 285.962219,206.592987 
z"/>
<path fill="#383939" opacity="1.000000" stroke="none" 
	d="
M285.588867,206.723846 
	C288.658844,207.232391 292.341522,206.108871 292.755005,210.872498 
	C292.107574,211.566101 291.646545,211.884003 291.049316,212.358978 
	C288.207062,212.696213 285.501007,212.876358 282.339050,213.068665 
	C281.096008,212.790909 280.308929,212.500992 279.286316,211.991257 
	C278.786804,211.312180 278.522888,210.852936 278.158417,210.143951 
	C280.443787,208.881042 282.829651,207.867874 285.588867,206.723846 
z"/>
<path fill="#65676A" opacity="1.000000" stroke="none" 
	d="
M262.128662,201.822418 
	C261.048126,207.561127 256.716064,208.084518 252.426880,208.204041 
	C253.071518,206.528931 253.676910,205.263214 254.282288,203.997498 
	C252.533661,203.978775 250.785019,203.960052 249.036392,203.941345 
	C250.059341,201.856125 251.082291,199.770889 252.105682,197.314529 
	C254.879944,196.864624 257.653778,196.785873 260.780334,196.805161 
	C261.431641,198.416763 261.730255,199.930328 262.128662,201.822418 
z"/>
<path fill="#22649D" opacity="1.000000" stroke="none" 
	d="
M248.756897,204.151978 
	C250.785019,203.960052 252.533661,203.978775 254.282288,203.997498 
	C253.676910,205.263214 253.071518,206.528931 252.164581,207.974548 
	C247.972183,210.200531 244.081329,212.246643 239.961517,214.556793 
	C239.020020,215.086334 237.949722,215.141541 237.650726,215.650162 
	C234.905014,220.320633 225.937653,222.268250 221.837494,218.848740 
	C221.098297,218.232254 220.977036,216.874786 220.528168,215.444977 
	C220.576828,213.571228 220.667816,212.111923 220.867828,210.224396 
	C226.874908,212.918701 232.710983,211.606750 238.802185,209.289932 
	C242.204285,207.473602 245.340836,205.918106 248.756897,204.151978 
z"/>
</svg>