<?xml version="1.0" encoding="UTF-8"?>
<svg width="700pt" height="700pt" version="1.1" viewBox="0 0 700 700" xmlns="http://www.w3.org/2000/svg" xmlns:xlink="http://www.w3.org/1999/xlink">
 <defs>
  <symbol id="t" overflow="visible">
   <path d="m3.6562-0.21875c-0.1875 0.09375-0.38672 0.16797-0.59375 0.21875-0.19922 0.050781-0.40625 0.078125-0.625 0.078125-0.66797 0-1.1992-0.17969-1.5938-0.54688-0.38672-0.375-0.57812-0.87891-0.57812-1.5156 0-0.64453 0.19141-1.1484 0.57812-1.5156 0.39453-0.375 0.92578-0.5625 1.5938-0.5625 0.21875 0 0.42578 0.027344 0.625 0.078125 0.20703 0.054687 0.40625 0.125 0.59375 0.21875v0.82812c-0.1875-0.125-0.375-0.21875-0.5625-0.28125-0.17969-0.0625-0.37109-0.09375-0.57812-0.09375-0.36719 0-0.65625 0.12109-0.875 0.35938-0.21094 0.23047-0.3125 0.55469-0.3125 0.96875 0 0.40625 0.10156 0.73047 0.3125 0.96875 0.21875 0.23047 0.50781 0.34375 0.875 0.34375 0.20703 0 0.39844-0.023437 0.57812-0.078125 0.1875-0.0625 0.375-0.16016 0.5625-0.29688z"/>
  </symbol>
  <symbol id="d" overflow="visible">
   <path d="m2.6875-2.1719c-0.085938-0.039063-0.16797-0.070313-0.25-0.09375-0.085938-0.019531-0.16797-0.03125-0.25-0.03125-0.25 0-0.44531 0.085937-0.57812 0.25-0.125 0.15625-0.1875 0.38281-0.1875 0.67188v1.375h-0.96875v-2.9844h0.96875v0.48438c0.11328-0.19531 0.25-0.33594 0.40625-0.42188 0.16406-0.09375 0.35938-0.14062 0.57812-0.14062h0.10938c0.039063 0 0.09375 0.007812 0.15625 0.015625z"/>
  </symbol>
  <symbol id="a" overflow="visible">
   <path d="m3.4375-1.5v0.26562h-2.2344c0.03125 0.23047 0.11328 0.40234 0.25 0.51562 0.13281 0.10547 0.32812 0.15625 0.57812 0.15625 0.20703 0 0.41406-0.023438 0.625-0.078125 0.20703-0.0625 0.42188-0.15625 0.64062-0.28125v0.73438c-0.21875 0.09375-0.44531 0.16406-0.67188 0.20312-0.23047 0.039062-0.45312 0.0625-0.67188 0.0625-0.54297 0-0.96484-0.13281-1.2656-0.40625-0.30469-0.28125-0.45312-0.67188-0.45312-1.1719 0-0.47656 0.14453-0.85938 0.4375-1.1406 0.30078-0.28125 0.70703-0.42188 1.2188-0.42188 0.46875 0 0.84375 0.14062 1.125 0.42188s0.42188 0.66406 0.42188 1.1406zm-0.96875-0.32812c0-0.17578-0.058594-0.31641-0.17188-0.42188-0.10547-0.11328-0.24219-0.17188-0.40625-0.17188-0.1875 0-0.33984 0.054687-0.45312 0.15625-0.11719 0.10547-0.1875 0.25-0.21875 0.4375z"/>
  </symbol>
  <symbol id="j" overflow="visible">
   <path d="m1.7969-1.3438c-0.19922 0-0.35156 0.039062-0.45312 0.10938-0.09375 0.0625-0.14062 0.16406-0.14062 0.29688 0 0.11719 0.035156 0.21094 0.10938 0.28125 0.082031 0.0625 0.19531 0.09375 0.34375 0.09375 0.17578 0 0.32812-0.0625 0.45312-0.1875s0.1875-0.28516 0.1875-0.48438v-0.10938zm1.4688-0.35938v1.7031h-0.96875v-0.4375c-0.125 0.17969-0.27344 0.30859-0.4375 0.39062-0.15625 0.082031-0.35156 0.125-0.57812 0.125-0.3125 0-0.57031-0.085938-0.76562-0.26562-0.1875-0.1875-0.28125-0.42188-0.28125-0.70312 0-0.35156 0.11719-0.61328 0.35938-0.78125 0.23828-0.16406 0.61719-0.25 1.1406-0.25h0.5625v-0.0625c0-0.15625-0.0625-0.26562-0.1875-0.32812-0.11719-0.070312-0.29688-0.10938-0.54688-0.10938-0.21094 0-0.40234 0.023437-0.57812 0.0625-0.17969 0.042969-0.33984 0.10156-0.48438 0.17188v-0.71875c0.19531-0.050781 0.39844-0.085938 0.60938-0.10938 0.20703-0.03125 0.41406-0.046875 0.625-0.046875 0.53906 0 0.92969 0.10938 1.1719 0.32812 0.23828 0.21094 0.35938 0.55469 0.35938 1.0312z"/>
  </symbol>
  <symbol id="c" overflow="visible">
   <path d="m1.5-3.8438v0.85938h0.98438v0.67188h-0.98438v1.2812c0 0.13672 0.023438 0.23047 0.078125 0.28125 0.0625 0.042969 0.17578 0.0625 0.34375 0.0625h0.48438v0.6875h-0.8125c-0.38672 0-0.65625-0.078125-0.8125-0.23438s-0.23438-0.42188-0.23438-0.79688v-1.2812h-0.46875v-0.67188h0.46875v-0.85938z"/>
  </symbol>
  <symbol id="i" overflow="visible">
   <path d="m2.5-2.5469v-1.6094h0.95312v4.1562h-0.95312v-0.4375c-0.13672 0.17969-0.28125 0.30859-0.4375 0.39062-0.15625 0.082031-0.33984 0.125-0.54688 0.125-0.375 0-0.68359-0.14453-0.92188-0.4375-0.23047-0.28906-0.34375-0.67188-0.34375-1.1406 0-0.45703 0.11328-0.83203 0.34375-1.125 0.23828-0.28906 0.54688-0.4375 0.92188-0.4375 0.19531 0 0.375 0.042969 0.53125 0.125 0.16406 0.085938 0.31641 0.21484 0.45312 0.39062zm-0.64062 1.9375c0.20703 0 0.36328-0.070313 0.46875-0.21875 0.11328-0.15625 0.17188-0.37891 0.17188-0.67188 0-0.28125-0.058594-0.49219-0.17188-0.64062-0.10547-0.15625-0.26172-0.23438-0.46875-0.23438-0.19922 0-0.35547 0.078125-0.46875 0.23438-0.10547 0.14844-0.15625 0.35938-0.15625 0.64062 0 0.29297 0.050781 0.51562 0.15625 0.67188 0.11328 0.14844 0.26953 0.21875 0.46875 0.21875z"/>
  </symbol>
  <symbol id="h" overflow="visible">
   <path d="m2.0469-0.60938c0.20703 0 0.36328-0.070313 0.46875-0.21875 0.11328-0.15625 0.17188-0.37891 0.17188-0.67188 0-0.28125-0.058594-0.49219-0.17188-0.64062-0.10547-0.15625-0.26172-0.23438-0.46875-0.23438-0.19922 0-0.35547 0.078125-0.46875 0.23438-0.10547 0.14844-0.15625 0.35938-0.15625 0.64062 0 0.29297 0.050781 0.51562 0.15625 0.67188 0.11328 0.14844 0.26953 0.21875 0.46875 0.21875zm-0.625-1.9375c0.125-0.17578 0.26562-0.30469 0.42188-0.39062 0.16406-0.082031 0.35156-0.125 0.5625-0.125 0.36328 0 0.66406 0.14844 0.90625 0.4375 0.23828 0.29297 0.35938 0.66797 0.35938 1.125 0 0.46875-0.12109 0.85156-0.35938 1.1406-0.24219 0.29297-0.54297 0.4375-0.90625 0.4375-0.21094 0-0.39844-0.042969-0.5625-0.125-0.15625-0.082031-0.29688-0.21094-0.42188-0.39062v0.4375h-0.96875v-4.1562h0.96875z"/>
  </symbol>
  <symbol id="g" overflow="visible">
   <path d="m0.0625-2.9844h0.95312l0.8125 2.0156 0.6875-2.0156h0.95312l-1.2656 3.2656c-0.125 0.33203-0.27344 0.56641-0.4375 0.70312-0.16797 0.13281-0.39062 0.20312-0.67188 0.20312h-0.54688v-0.64062h0.29688c0.16406 0 0.28516-0.027344 0.35938-0.078125 0.070313-0.054688 0.12891-0.14062 0.17188-0.26562l0.03125-0.09375z"/>
  </symbol>
  <symbol id="f" overflow="visible">
   <path d="m0.5-3.9844h1.0312v3.5938c0 0.5-0.13672 0.86719-0.40625 1.1094-0.27344 0.25-0.67969 0.375-1.2188 0.375h-0.21875v-0.78125h0.17188c0.20703 0 0.36328-0.0625 0.46875-0.1875 0.11328-0.11719 0.17188-0.28516 0.17188-0.51562z"/>
  </symbol>
  <symbol id="s" overflow="visible">
   <path d="m0.45312-2.9844h0.96875v2.9844h-0.96875zm0-1.1719h0.96875v0.78125h-0.96875z"/>
  </symbol>
  <symbol id="e" overflow="visible">
   <path d="m3.4688-1.8281v1.8281h-0.96875v-1.3906c0-0.25781-0.007812-0.4375-0.015625-0.53125-0.011719-0.10156-0.03125-0.17578-0.0625-0.21875-0.03125-0.0625-0.085937-0.10938-0.15625-0.14062-0.0625-0.039062-0.13281-0.0625-0.20312-0.0625-0.21094 0-0.37109 0.078125-0.48438 0.23438-0.10547 0.15625-0.15625 0.37109-0.15625 0.64062v1.4688h-0.96875v-2.9844h0.96875v0.4375c0.13281-0.17578 0.28516-0.30469 0.45312-0.39062 0.16406-0.082031 0.34375-0.125 0.53125-0.125 0.34375 0 0.60156 0.10938 0.78125 0.32812 0.1875 0.21094 0.28125 0.51172 0.28125 0.90625z"/>
  </symbol>
  <symbol id="b" overflow="visible">
   <path d="m1.875-2.375c-0.21094 0-0.37109 0.078125-0.48438 0.23438-0.10547 0.14844-0.15625 0.35938-0.15625 0.64062 0 0.29297 0.050781 0.51562 0.15625 0.67188 0.11328 0.14844 0.27344 0.21875 0.48438 0.21875 0.20703 0 0.36719-0.070313 0.48438-0.21875 0.11328-0.15625 0.17188-0.37891 0.17188-0.67188 0-0.28125-0.058594-0.49219-0.17188-0.64062-0.11719-0.15625-0.27734-0.23438-0.48438-0.23438zm0-0.6875c0.51953 0 0.92188 0.14062 1.2031 0.42188 0.28906 0.27344 0.4375 0.65234 0.4375 1.1406 0 0.5-0.14844 0.89062-0.4375 1.1719-0.28125 0.27344-0.68359 0.40625-1.2031 0.40625-0.51172 0-0.91406-0.13281-1.2031-0.40625-0.29297-0.28125-0.4375-0.67188-0.4375-1.1719 0-0.48828 0.14453-0.86719 0.4375-1.1406 0.28906-0.28125 0.69141-0.42188 1.2031-0.42188z"/>
  </symbol>
  <symbol id="r" overflow="visible">
   <path d="m2.4219-4.1562v0.625h-0.51562c-0.13672 0-0.23438 0.027344-0.29688 0.078125-0.054687 0.054687-0.078125 0.13672-0.078125 0.25v0.21875h0.82812v0.67188h-0.82812v2.3125h-0.95312v-2.3125h-0.46875v-0.67188h0.46875v-0.21875c0-0.32031 0.085937-0.5625 0.26562-0.71875 0.1875-0.15625 0.47266-0.23438 0.85938-0.23438z"/>
  </symbol>
  <symbol id="q" overflow="visible">
   <path d="m3.2344-2.5c0.11328-0.17578 0.25391-0.3125 0.42188-0.40625 0.16406-0.10156 0.35156-0.15625 0.5625-0.15625 0.33203 0 0.58594 0.10938 0.76562 0.32812 0.1875 0.21094 0.28125 0.51172 0.28125 0.90625v1.8281h-0.96875v-1.5625c0.007813-0.019531 0.015625-0.039062 0.015625-0.0625v-0.10938c0-0.21875-0.03125-0.375-0.09375-0.46875s-0.16406-0.14062-0.29688-0.14062c-0.1875 0-0.33594 0.078125-0.4375 0.23438-0.09375 0.14844-0.14062 0.35938-0.14062 0.64062v1.4688h-0.96875v-1.5625c0-0.33203-0.03125-0.54688-0.09375-0.64062-0.054688-0.09375-0.15234-0.14062-0.29688-0.14062-0.17969 0-0.32031 0.078125-0.42188 0.23438-0.09375 0.14844-0.14062 0.35938-0.14062 0.64062v1.4688h-0.96875v-2.9844h0.96875v0.4375c0.11328-0.17578 0.24219-0.30469 0.39062-0.39062 0.15625-0.082031 0.32812-0.125 0.51562-0.125 0.20703 0 0.39062 0.054688 0.54688 0.15625 0.15625 0.09375 0.27344 0.23047 0.35938 0.40625z"/>
  </symbol>
  <symbol id="p" overflow="visible">
   <path d="m3.4688-1.8281v1.8281h-0.96875v-1.3906c0-0.25781-0.007812-0.4375-0.015625-0.53125-0.011719-0.10156-0.03125-0.17578-0.0625-0.21875-0.03125-0.0625-0.085937-0.10938-0.15625-0.14062-0.0625-0.039062-0.13281-0.0625-0.20312-0.0625-0.21094 0-0.37109 0.078125-0.48438 0.23438-0.10547 0.15625-0.15625 0.37109-0.15625 0.64062v1.4688h-0.96875v-4.1562h0.96875v1.6094c0.13281-0.17578 0.28516-0.30469 0.45312-0.39062 0.16406-0.082031 0.34375-0.125 0.53125-0.125 0.34375 0 0.60156 0.10938 0.78125 0.32812 0.1875 0.21094 0.28125 0.51172 0.28125 0.90625z"/>
  </symbol>
  <symbol id="o" overflow="visible">
   <path d="m0.5-3.9844h1.1562l1.4375 2.7344v-2.7344h0.98438v3.9844h-1.1562l-1.4375-2.7344v2.7344h-0.98438z"/>
  </symbol>
  <symbol id="n" overflow="visible">
   <path d="m0.42188-1.1719v-1.8125h0.96875v0.29688 0.60938 0.48438c0 0.24219 0.003906 0.41797 0.015625 0.53125 0.007812 0.10547 0.03125 0.17969 0.0625 0.21875 0.039062 0.0625 0.09375 0.11719 0.15625 0.15625 0.0625 0.03125 0.13281 0.046875 0.21875 0.046875 0.19531 0 0.35156-0.078125 0.46875-0.23438 0.11328-0.15625 0.17188-0.36719 0.17188-0.64062v-1.4688h0.95312v2.9844h-0.95312v-0.4375c-0.14844 0.17969-0.30469 0.30859-0.46875 0.39062-0.15625 0.082031-0.33594 0.125-0.53125 0.125-0.34375 0-0.60938-0.10156-0.79688-0.3125-0.17969-0.21875-0.26562-0.53125-0.26562-0.9375z"/>
  </symbol>
  <symbol id="m" overflow="visible">
   <path d="m0.5-3.9844h1.7031c0.50781 0 0.89844 0.11719 1.1719 0.34375 0.26953 0.21875 0.40625 0.53906 0.40625 0.95312 0 0.41797-0.13672 0.74219-0.40625 0.96875-0.27344 0.21875-0.66406 0.32812-1.1719 0.32812h-0.67188v1.3906h-1.0312zm1.0312 0.75v1.1094h0.5625c0.19531 0 0.34766-0.046875 0.45312-0.14062 0.11328-0.10156 0.17188-0.24219 0.17188-0.42188 0-0.17578-0.058594-0.3125-0.17188-0.40625-0.10547-0.09375-0.25781-0.14062-0.45312-0.14062z"/>
  </symbol>
  <symbol id="l" overflow="visible">
   <path d="m0.45312-2.9844h0.96875v2.9375c0 0.39453-0.10156 0.69531-0.29688 0.90625-0.1875 0.21875-0.46484 0.32812-0.82812 0.32812h-0.48438v-0.64062h0.17188c0.17578 0 0.29688-0.042969 0.35938-0.125 0.070312-0.074219 0.10938-0.23047 0.10938-0.46875zm0-1.1719h0.96875v0.78125h-0.96875z"/>
  </symbol>
  <symbol id="k" overflow="visible">
   <path d="m2.875-2.8906v0.76562c-0.125-0.082031-0.25781-0.14453-0.39062-0.1875-0.13672-0.039062-0.27344-0.0625-0.40625-0.0625-0.27344 0-0.48047 0.078125-0.625 0.23438-0.14844 0.15625-0.21875 0.37109-0.21875 0.64062 0 0.28125 0.070313 0.5 0.21875 0.65625 0.14453 0.15625 0.35156 0.23438 0.625 0.23438 0.14453 0 0.28516-0.019531 0.42188-0.0625 0.13281-0.039063 0.25781-0.10938 0.375-0.20312v0.78125c-0.14844 0.0625-0.29688 0.10156-0.45312 0.125-0.15625 0.03125-0.3125 0.046875-0.46875 0.046875-0.54297 0-0.96484-0.13281-1.2656-0.40625-0.30469-0.28125-0.45312-0.67188-0.45312-1.1719 0-0.48828 0.14844-0.86719 0.45312-1.1406 0.30078-0.28125 0.72266-0.42188 1.2656-0.42188 0.15625 0 0.3125 0.015625 0.46875 0.046875 0.15625 0.023437 0.30469 0.0625 0.45312 0.125z"/>
  </symbol>
 </defs>
 <g>
  <path d="m541.71 227.5c-16.703 0-32.91-4.8789-45.652-13.738-13.844-9.4102-23.387-23.93-26.535-40.371-6.9336-35.273 12.73-62.344 31.719-88.418 7.0859-9.7344 13.781-18.934 19.02-28.438 6.8242-12.328 14.559-26.25 17.695-40.973h0.003907c0.53906-2.5234 2.7695-4.3281 5.3477-4.3281 2.582 0 4.8125 1.8047 5.3477 4.3281 2.8555 13.355 9.8438 25.988 16.656 38.203l1.543 2.7656c5.25 9.4922 11.945 18.691 19.043 28.438 19.008 26.098 38.664 53.078 31.719 88.344v0.003906c-3.168 16.473-12.762 31.008-26.664 40.402-12.809 8.8594-29.062 13.738-45.773 13.738h-3.4688zm1.6953-192.72c-3.9141 9.7109-8.9258 18.77-13.539 27.102-5.5781 10.086-12.773 19.984-19.754 29.531-17.633 24.227-35.875 49.285-29.859 79.844 4.4414 22.543 25.156 45.281 61.438 45.293h3.4883c36.508 0 57.312-22.762 61.754-45.312 6.0156-30.57-12.219-55.594-29.848-79.789-6.9688-9.582-14.219-19.48-19.766-29.531l-1.5312-2.7461c-4.5742-7.8945-8.707-16.039-12.383-24.391z"/>
  <path d="m351.09 549.06c-53.215 0-105.24-15.777-149.48-45.344-44.25-29.566-78.734-71.586-99.102-120.75-20.363-49.164-25.691-103.27-15.309-155.46 10.379-52.195 36.008-100.14 73.637-137.77 46.734-46.734 109.03-74.633 175.02-78.379 65.988-3.7422 131.04 16.93 182.76 58.078 1.1641 0.89453 1.9219 2.2188 2.1016 3.6758 0.17578 1.457-0.23828 2.9258-1.1523 4.0742-0.91406 1.1484-2.2539 1.8789-3.7148 2.0312-1.457 0.15234-2.918-0.29297-4.0508-1.2266-50.934-40.523-115.29-60.309-180.2-55.391-64.898 4.9141-125.55 34.164-169.8 81.895-44.254 47.73-68.84 110.41-68.836 175.5 0 51.055 15.137 100.96 43.5 143.41 28.363 42.449 68.676 75.535 115.84 95.07 47.168 19.539 99.07 24.652 149.14 14.691s96.066-34.547 132.16-70.648c33.801-33.844 57.547-76.402 68.598-122.94 11.051-46.539 8.9727-95.227-6-140.66-0.94922-2.8672 0.60938-5.9609 3.4766-6.9102 2.8711-0.94922 5.9648 0.60938 6.9141 3.4766 17.875 54.105 18.113 112.49 0.6875 166.74-17.43 54.254-51.625 101.57-97.668 135.15-46.039 33.57-101.55 51.668-158.53 51.676z"/>
  <path d="m351.09 514.06c-62.078 0-121.61-24.66-165.51-68.555-43.895-43.895-68.555-103.43-68.555-165.51s24.66-121.61 68.555-165.51c40.758-40.766 95.121-65.059 152.68-68.223 57.559-3.1641 114.26 15.023 159.24 51.074 2.3555 1.8906 2.7305 5.332 0.83984 7.6875s-5.332 2.7344-7.6875 0.84375c-39.5-31.898-88.789-49.207-139.56-49-123.04 0-223.12 100.09-223.12 223.12s100.09 223.12 223.12 223.12 223.12-100.09 223.12-223.12c0.011719-20.512-2.7969-40.926-8.3438-60.672-0.44922-1.4102-0.30859-2.9453 0.39453-4.25s1.9062-2.2695 3.332-2.6719c1.4258-0.39844 2.957-0.20703 4.2344 0.53906 1.2812 0.74609 2.207 1.9805 2.5586 3.4219 13.141 46.574 11.523 96.078-4.625 141.7-16.152 45.621-46.043 85.117-85.559 113.05-39.52 27.938-86.723 42.938-135.12 42.945z"/>
  <path d="m350 301.88c-6.0898 0-11.934-2.418-16.242-6.7266-4.3086-4.3086-6.7266-10.152-6.7266-16.242s2.418-11.934 6.7266-16.242c4.3086-4.3086 10.152-6.7266 16.242-6.7266s11.934 2.418 16.242 6.7266c4.3086 4.3086 6.7266 10.152 6.7266 16.242s-2.418 11.934-6.7266 16.242c-4.3086 4.3086-10.152 6.7266-16.242 6.7266zm0-35c-4.8672 0-9.2539 2.9297-11.117 7.4258-1.8594 4.4961-0.83203 9.6719 2.6094 13.113 3.4414 3.4414 8.6172 4.4688 13.113 2.6094 4.4961-1.8633 7.4258-6.25 7.4258-11.117 0-6.6445-5.3867-12.031-12.031-12.031z"/>
  <path d="m336.33 272.34c-1.4531 0.003906-2.8438-0.57031-3.8711-1.5977l-80.664-80.664c-2.1406-2.1367-2.1406-5.6055 0-7.7422 2.1367-2.1406 5.6055-2.1406 7.7422 0l80.621 80.664c1.5625 1.5586 2.0352 3.9023 1.1992 5.9453-0.83984 2.043-2.8203 3.3828-5.0273 3.3945z"/>
  <path d="m289.84 131.25c-2.2266 0-4.2266-1.3516-5.0625-3.4141l-9.7109-23.82h-0.003906c-1.1406-2.7969 0.19922-5.9883 2.9961-7.1328 2.7969-1.1406 5.9922 0.20313 7.1328 3l9.7031 23.832c1.1328 2.793-0.20703 5.9766-3 7.1211-0.64844 0.27344-1.3477 0.41406-2.0547 0.41406z"/>
  <path d="m173.34 356.63c-2.6133 0-4.8633-1.8516-5.3672-4.418-0.50391-2.5664 0.87891-5.1289 3.3008-6.1172l26.055-10.621v0.003906c2.7969-1.1445 5.9883 0.19922 7.1289 2.9961 1.1445 2.7969-0.19922 5.9883-2.9961 7.1289l-26.062 10.621c-0.65234 0.26562-1.3516 0.40625-2.0586 0.40625z"/>
  <path d="m199.36 219.84c-0.73047-0.003906-1.4492-0.14844-2.125-0.42578l-23.699-9.9648c-2.7461-1.1914-4.0234-4.3711-2.8672-7.1328 1.1602-2.7617 4.3242-4.0781 7.0977-2.9531l23.711 9.9844 0.003907 0.003907c2.4023 1.0078 3.7578 3.5703 3.2422 6.125-0.51562 2.5508-2.7617 4.3867-5.3633 4.3867z"/>
  <path d="m528.72 358.51c-0.72656 0-1.4492-0.14453-2.1211-0.42578l-25.934-10.938c-2.7852-1.1719-4.0938-4.3789-2.9219-7.1641 1.1719-2.7852 4.3828-4.0898 7.1641-2.918l25.934 10.938c2.4023 1.0078 3.7578 3.5703 3.2422 6.1211-0.51562 2.5547-2.7578 4.3906-5.3633 4.3867z"/>
  <path d="m415.8 130.44c-0.72656-0.003906-1.4453-0.15234-2.1133-0.4375-1.3359-0.5625-2.3945-1.6328-2.9414-2.9766-0.55078-1.3438-0.53906-2.8516 0.023437-4.1875l9.9766-23.703h-0.003906c1.1719-2.7852 4.3828-4.0898 7.1641-2.918 2.7852 1.1719 4.0938 4.3789 2.9219 7.1641l-9.9844 23.703v-0.003907c-0.85156 2.0352-2.8398 3.3594-5.043 3.3594z"/>
  <path d="m235.76 166.64c-1.457 0-2.8555-0.58203-3.8828-1.6211l-18.113-18.277v0.003906c-1.875-2.1836-1.7422-5.4453 0.30859-7.4648 2.0508-2.0195 5.3164-2.1055 7.4688-0.19141l18.102 18.277v-0.003906c1.5547 1.5703 2.0117 3.918 1.1641 5.9531-0.84766 2.0391-2.8398 3.3672-5.0469 3.3672z"/>
  <path d="m487.81 422.19c-1.5117 0-2.957-0.625-3.9922-1.7266l-20.32-21.711c-1.9766-2.2188-1.8203-5.6055 0.34766-7.6328 2.168-2.0273 5.5547-1.957 7.6367 0.16016l20.32 21.699c1.4922 1.5938 1.8945 3.918 1.0273 5.918-0.86719 2-2.8398 3.293-5.0195 3.293z"/>
  <path d="m214.38 422.19c-2.1602 0-4.1172-1.2734-4.9961-3.25-0.875-1.9727-0.50781-4.2773 0.9375-5.8828l20.32-22.465h0.003906c2.0469-2.1445 5.4297-2.2695 7.625-0.28125 2.1992 1.9922 2.4102 5.3711 0.47656 7.6211l-20.312 22.453h0.003906c-1.0391 1.1484-2.5117 1.8047-4.0586 1.8047z"/>
  <path d="m186.24 283.28-25.727-0.12109h0.003906c-3.0195 0-5.4688-2.4492-5.4688-5.4688 0-3.0195 2.4492-5.4688 5.4688-5.4688l25.727 0.12109h-0.003906c3.0234 0 5.4688 2.4492 5.4688 5.4688s-2.4453 5.4688-5.4688 5.4688z"/>
  <path d="m543.59 284.87-28.141-0.12109c-3.0234 0-5.4688-2.4492-5.4688-5.4688 0-3.0195 2.4453-5.4688 5.4688-5.4688l28.133 0.12109h-0.003907c3.0195 0 5.4688 2.4492 5.4688 5.4688 0 3.0195-2.4492 5.4688-5.4688 5.4688z"/>
  <path d="m351.79 117.6c-3.0195 0-5.4688-2.4492-5.4688-5.4688l0.10938-25.727c0-3.0195 2.4492-5.4688 5.4688-5.4688 1.4531 0 2.8438 0.57422 3.8672 1.6016 1.0273 1.0273 1.6016 2.418 1.6016 3.8672l-0.10938 25.727c0 1.4492-0.57422 2.8398-1.6016 3.8672-1.0234 1.0234-2.4141 1.6016-3.8672 1.6016z"/>
  <path d="m487.99 422.36c-2.2148 0.003907-4.2148-1.3281-5.0625-3.375-0.84766-2.0469-0.37891-4.4023 1.1914-5.9648 24.348-24.273 41.562-54.766 49.766-88.152 8.2031-33.387 7.0781-68.387-3.25-101.18-0.43359-1.3867-0.30078-2.8867 0.37109-4.1758 0.67188-1.2852 1.8242-2.2539 3.2109-2.6875 2.8828-0.90625 5.957 0.69531 6.8633 3.582 10.926 34.695 12.113 71.727 3.4336 107.05-8.6758 35.328-26.891 67.59-52.652 93.273-1.0234 1.0352-2.418 1.6172-3.8711 1.6211z"/>
  <path d="m214.2 422.36c-1.4492-0.003906-2.8359-0.58203-3.8594-1.6094-77.656-77.656-77.656-203.9 0-281.51 35.531-35.535 83.188-56.32 133.41-58.176 50.215-1.8594 99.277 15.344 137.34 48.156 2.2852 1.9766 2.5391 5.4297 0.5625 7.7148-1.9727 2.2891-5.4297 2.5391-7.7148 0.56641-35.969-31.008-82.336-47.266-129.79-45.508-47.453 1.7578-92.492 21.398-126.07 54.977-73.348 73.348-73.348 192.7 0 266.04v0.003907c1.5703 1.5625 2.0391 3.918 1.1914 5.9648-0.84766 2.0469-2.8477 3.3789-5.0625 3.375z"/>
  <path d="m402.5 437.5c-2.3203-0.003906-4.3828-1.4727-5.1523-3.6602-0.76562-2.1875-0.070312-4.6211 1.7383-6.0742l11.418-9.1445h0.003906c-12.371-20.586-34.512-33.305-58.523-33.617-24.016-0.31641-46.48 11.82-59.383 32.074l11.461 8.3906c2.2695 1.8359 2.6992 5.1289 0.97656 7.4844-1.7227 2.3555-4.9961 2.9414-7.4297 1.332l-15.422-11.309c-2.2148-1.6211-2.8867-4.625-1.5742-7.0352 9.3398-17.152 24.617-30.312 42.965-37.016 18.348-6.6992 38.512-6.4805 56.711 0.61719 18.195 7.0977 33.184 20.586 42.148 37.941 1.1992 2.3164 0.59375 5.1523-1.4414 6.7812l-15.039 12.031c-0.98047 0.78516-2.1992 1.2109-3.457 1.2031z"/>
  <use x="70" y="576.40625" xlink:href="#t"/>
  <use x="74.011719" y="576.40625" xlink:href="#d"/>
  <use x="76.710938" y="576.40625" xlink:href="#a"/>
  <use x="80.417969" y="576.40625" xlink:href="#j"/>
  <use x="84.109375" y="576.40625" xlink:href="#c"/>
  <use x="86.722656" y="576.40625" xlink:href="#a"/>
  <use x="90.433594" y="576.40625" xlink:href="#i"/>
  <use x="96.25" y="576.40625" xlink:href="#h"/>
  <use x="100.167969" y="576.40625" xlink:href="#g"/>
  <use x="105.636719" y="576.40625" xlink:href="#f"/>
  <use x="107.667969" y="576.40625" xlink:href="#s"/>
  <use x="109.542969" y="576.40625" xlink:href="#e"/>
  <use x="113.4375" y="576.40625" xlink:href="#b"/>
  <use x="70" y="581.875" xlink:href="#r"/>
  <use x="72.378906" y="581.875" xlink:href="#d"/>
  <use x="75.078125" y="581.875" xlink:href="#b"/>
  <use x="78.832031" y="581.875" xlink:href="#q"/>
  <use x="86.4375" y="581.875" xlink:href="#c"/>
  <use x="89.050781" y="581.875" xlink:href="#p"/>
  <use x="92.941406" y="581.875" xlink:href="#a"/>
  <use x="98.554688" y="581.875" xlink:href="#o"/>
  <use x="103.132812" y="581.875" xlink:href="#b"/>
  <use x="106.890625" y="581.875" xlink:href="#n"/>
  <use x="110.785156" y="581.875" xlink:href="#e"/>
  <use x="116.582031" y="581.875" xlink:href="#m"/>
  <use x="120.589844" y="581.875" xlink:href="#d"/>
  <use x="123.285156" y="581.875" xlink:href="#b"/>
  <use x="127.042969" y="581.875" xlink:href="#l"/>
  <use x="128.917969" y="581.875" xlink:href="#a"/>
  <use x="132.625" y="581.875" xlink:href="#k"/>
  <use x="135.867188" y="581.875" xlink:href="#c"/>
 </g>
</svg>
