<svg width="22" height="25" viewBox="0 0 22 25" fill="none" xmlns="http://www.w3.org/2000/svg">
<path fill-rule="evenodd" clip-rule="evenodd" d="M14.0462 24.9061C16.1823 21.4196 14.6265 17.0704 9.09825 14.9411L9.42248 18.7354C7.63784 19.7464 6.98666 22.656 8.04109 24.8539C0.572854 22.9554 -1.93381 14.3532 2.91877 8.12199C2.91877 8.12199 3.80155 11.7101 5.91587 11.9931C4.38735 6.95433 7.65692 1.97597 13.6511 0.756104L12.643 4.42943C15.0407 5.47895 16.5093 8.92974 16.3758 11.4134C18.0105 11.1689 18.4492 8.02858 18.4492 8.02858C23.4598 12.7377 22.2419 22.9719 14.0462 24.9061Z" fill="url(#paint0_linear_1912_8794)"/>
<defs>
<linearGradient id="paint0_linear_1912_8794" x1="11.0514" y1="25.6204" x2="11.0514" y2="0.756103" gradientUnits="userSpaceOnUse">
<stop stop-color="#FFC700"/>
<stop offset="1" stop-color="#FF0000"/>
</linearGradient>
</defs>
</svg>
