<svg width="67" height="79" viewBox="0 0 67 79" fill="none" xmlns="http://www.w3.org/2000/svg">
<path d="M28.7276 59.5965C28.7276 59.5349 27.9305 59.4849 26.9478 59.4849C25.9651 59.4849 25.1681 59.5349 25.1681 59.5965V78.613C25.1681 78.6746 25.9651 78.7245 26.9478 78.7245C27.9305 78.7245 28.7276 78.6746 28.7276 78.613V59.5965Z" fill="#312D29"/>
<path d="M28.7276 12.554C28.7276 12.4153 27.9305 12.3022 26.9478 12.3022C25.9651 12.3022 25.1681 12.4153 25.1681 12.554V55.6274C25.1681 55.7669 25.9651 55.8792 26.9478 55.8792C27.9305 55.8792 28.7276 55.7669 28.7276 55.6274V12.554Z" fill="#E1D4C8"/>
<path d="M55.3907 59.3396C55.5675 59.3396 55.7107 58.7261 55.7107 57.9687C55.7107 57.212 55.5675 56.5984 55.3907 56.5984H0.669272C0.492399 56.5984 0.349304 57.212 0.349304 57.9687C0.349304 58.7261 0.492399 59.3396 0.669272 59.3396H55.3907Z" fill="#E1D4C8"/>
<path d="M28.2821 32.2127C28.1302 32.2127 28.0069 32.8262 28.0069 33.5836C28.0069 34.3403 28.1302 34.9546 28.2821 34.9546H56.1928H58.1649C61.3523 34.9546 63.9364 37.5387 63.9364 40.7261V43.7564V78.3825C63.9364 78.5711 64.5499 78.7238 65.3073 78.7238C66.064 78.7238 66.6783 78.5711 66.6783 78.3825V43.7564V39.4278C66.6783 35.4427 63.4476 32.2127 59.4632 32.2127H56.1928H28.2821Z" fill="#E1D4C8"/>
<path d="M26.9236 46.2606C28.5838 46.2606 29.9297 44.9147 29.9297 43.2544C29.9297 41.5942 28.5838 40.2483 26.9236 40.2483C25.2633 40.2483 23.9174 41.5942 23.9174 43.2544C23.9174 44.9147 25.2633 46.2606 26.9236 46.2606Z" fill="#E1D4C8"/>
<path fill-rule="evenodd" clip-rule="evenodd" d="M26.9251 48.1341C29.5679 48.1341 31.7109 45.9919 31.7109 43.3483C31.7109 40.7055 29.5679 38.5624 26.9251 38.5624C24.2815 38.5624 22.1392 40.7055 22.1392 43.3483C22.1392 45.9919 24.2815 48.1341 26.9251 48.1341ZM22.9913 43.3483C22.9913 42.1366 23.5395 41.0519 24.4011 40.3304C24.5068 40.2424 24.6646 40.271 24.7402 40.3863L26.2829 42.7472C26.1288 42.9109 26.0348 43.1311 26.0348 43.3725C26.0348 43.5802 26.1045 43.7725 26.2212 43.9259L24.738 46.303C24.6646 46.4219 24.5046 46.4528 24.3975 46.3632C23.5373 45.6411 22.9913 44.5585 22.9913 43.3483ZM26.9251 39.4145C26.415 39.4145 25.9277 39.5114 25.48 39.6883C25.3493 39.7396 25.3009 39.896 25.3706 40.0178L26.7805 42.4742C26.8355 42.4639 26.8913 42.4588 26.9493 42.4588C27.3258 42.4588 27.6487 42.6863 27.7889 43.0122H30.5829C30.7238 43.0122 30.8354 42.8911 30.8141 42.7516C30.5264 40.8625 28.8949 39.4145 26.9251 39.4145ZM26.9493 44.2862C27.3258 44.2862 27.6487 44.0587 27.7889 43.7336L30.5785 43.6896C30.7209 43.6874 30.8346 43.8085 30.8134 43.9494C30.5242 45.837 28.8934 47.2821 26.9251 47.2821C26.4157 47.2821 25.9284 47.186 25.4822 47.0091C25.3508 46.9577 25.3024 46.8006 25.3736 46.6788L26.7805 44.2708C26.8355 44.2811 26.8913 44.2862 26.9493 44.2862Z" fill="#2D31AD"/>
<path d="M26.9478 43.7559C27.1603 43.7559 27.3326 43.5836 27.3326 43.3711C27.3326 43.1586 27.1603 42.9863 26.9478 42.9863C26.7353 42.9863 26.563 43.1586 26.563 43.3711C26.563 43.5836 26.7353 43.7559 26.9478 43.7559Z" fill="#B3B3B3"/>
<path d="M26.9236 26.2959C28.5838 26.2959 29.9297 24.9499 29.9297 23.2897C29.9297 21.6294 28.5838 20.2836 26.9236 20.2836C25.2633 20.2836 23.9174 21.6294 23.9174 23.2897C23.9174 24.9499 25.2633 26.2959 26.9236 26.2959Z" fill="#E1D4C8"/>
<path fill-rule="evenodd" clip-rule="evenodd" d="M26.9229 28.1724C29.5657 28.1724 31.7087 26.0294 31.7087 23.3866C31.7087 20.7437 29.5657 18.6007 26.9229 18.6007C24.2801 18.6007 22.137 20.7437 22.137 23.3866C22.137 26.0294 24.2801 28.1724 26.9229 28.1724ZM22.9891 23.3866C22.9891 22.1741 23.5373 21.0901 24.3989 20.3687C24.5046 20.2799 24.6624 20.3092 24.738 20.4245L26.2807 22.7855C26.1273 22.9491 26.0334 23.1686 26.0334 23.4108C26.0334 23.6185 26.1024 23.81 26.2191 23.9641L24.7365 26.3413C24.6624 26.4602 24.5024 26.491 24.3953 26.4007C23.5351 25.6793 22.9891 24.5968 22.9891 23.3866ZM26.9229 19.4528C26.4128 19.4528 25.9255 19.5497 25.4778 19.7265C25.3472 19.7779 25.2987 19.9342 25.3692 20.0553L26.7783 22.5125C26.8333 22.5022 26.8891 22.4971 26.9471 22.4971C27.3236 22.4971 27.6465 22.7246 27.7867 23.0497H30.5807C30.7216 23.0497 30.8332 22.9293 30.8119 22.7899C30.5242 20.9008 28.8927 19.4528 26.9229 19.4528ZM26.9471 24.3245C27.3236 24.3245 27.6465 24.097 27.7867 23.7711L30.5763 23.7279C30.7187 23.7256 30.8324 23.8467 30.8112 23.9876C30.522 25.8752 28.8912 27.3203 26.9229 27.3203C26.4135 27.3203 25.927 27.2234 25.48 27.0473C25.3486 26.9959 25.3002 26.8389 25.3714 26.7171L26.7783 24.3091C26.8333 24.3194 26.8891 24.3245 26.9471 24.3245Z" fill="#2D31AD"/>
<path d="M26.9478 23.7942C27.1603 23.7942 27.3326 23.6219 27.3326 23.4094C27.3326 23.1969 27.1603 23.0246 26.9478 23.0246C26.7353 23.0246 26.563 23.1969 26.563 23.4094C26.563 23.6219 26.7353 23.7942 26.9478 23.7942Z" fill="#B3B3B3"/>
<path d="M15.2353 60.9792C16.8955 60.9792 18.2414 59.6333 18.2414 57.973C18.2414 56.3128 16.8955 54.9669 15.2353 54.9669C13.575 54.9669 12.2292 56.3128 12.2292 57.973C12.2292 59.6333 13.575 60.9792 15.2353 60.9792Z" fill="#E1D4C8"/>
<path fill-rule="evenodd" clip-rule="evenodd" d="M15.2368 62.8529C17.8796 62.8529 20.0226 60.7099 20.0226 58.067C20.0226 55.4242 17.8796 53.2811 15.2368 53.2811C12.5939 53.2811 10.4509 55.4242 10.4509 58.067C10.4509 60.7099 12.5939 62.8529 15.2368 62.8529ZM11.303 58.067C11.303 56.8546 11.8512 55.7706 12.7136 55.0492C12.8192 54.9604 12.9763 54.9897 13.0519 55.1049L14.5946 57.4659C14.4412 57.6296 14.3473 57.849 14.3473 58.0912C14.3473 58.2989 14.4163 58.4905 14.5337 58.6438L13.0504 61.0218C12.9763 61.1407 12.8163 61.1715 12.7092 61.0812C11.8498 60.3598 11.303 59.2773 11.303 58.067ZM15.2368 54.1332C14.7267 54.1332 14.2394 54.2301 13.7917 54.407C13.6618 54.4584 13.6134 54.6147 13.6831 54.7358L15.0922 57.1929C15.1472 57.1826 15.203 57.1775 15.261 57.1775C15.6375 57.1775 15.9611 57.405 16.1006 57.7301H18.8946C19.0355 57.7301 19.1471 57.6098 19.1258 57.4703C18.8381 55.5805 17.2066 54.1332 15.2368 54.1332ZM15.261 59.0049C15.6375 59.0049 15.9611 58.7774 16.1006 58.4516L18.8909 58.4076C19.0333 58.4054 19.1463 58.5272 19.125 58.6681C18.8359 60.555 17.2051 62.0008 15.2368 62.0008C14.7274 62.0008 14.2408 61.9039 13.7939 61.7278C13.6625 61.6764 13.6148 61.5186 13.6853 61.3975L15.0922 58.9895C15.1472 58.9998 15.203 59.0049 15.261 59.0049Z" fill="#2D31AD"/>
<path d="M15.2595 58.4745C15.472 58.4745 15.6443 58.3023 15.6443 58.0897C15.6443 57.8772 15.472 57.705 15.2595 57.705C15.047 57.705 14.8747 57.8772 14.8747 58.0897C14.8747 58.3023 15.047 58.4745 15.2595 58.4745Z" fill="#B3B3B3"/>
<path d="M42.749 60.9792C44.4093 60.9792 45.7552 59.6333 45.7552 57.973C45.7552 56.3128 44.4093 54.9669 42.749 54.9669C41.0888 54.9669 39.7429 56.3128 39.7429 57.973C39.7429 59.6333 41.0888 60.9792 42.749 60.9792Z" fill="#E1D4C8"/>
<path fill-rule="evenodd" clip-rule="evenodd" d="M42.7483 62.8529C45.3918 62.8529 47.5341 60.7099 47.5341 58.067C47.5341 55.4242 45.3918 53.2811 42.7483 53.2811C40.1055 53.2811 37.9624 55.4242 37.9624 58.067C37.9624 60.7099 40.1055 62.8529 42.7483 62.8529ZM38.8145 58.067C38.8145 56.8546 39.3627 55.7706 40.2251 55.0492C40.3308 54.9604 40.4878 54.9897 40.5634 55.1049L42.1061 57.4659C41.9527 57.6296 41.8588 57.849 41.8588 58.0912C41.8588 58.2989 41.9285 58.4905 42.0452 58.6438L40.562 61.0218C40.4878 61.1407 40.3278 61.1715 40.2207 61.0812C39.3613 60.3598 38.8145 59.2773 38.8145 58.067ZM42.7483 54.1332C42.2382 54.1332 41.7509 54.2301 41.3039 54.407C41.1733 54.4584 41.1249 54.6147 41.1946 54.7358L42.6044 57.1929C42.6587 57.1826 42.7153 57.1775 42.7725 57.1775C43.149 57.1775 43.4726 57.405 43.6128 57.7301H46.4068C46.547 57.7301 46.6586 57.6098 46.6373 57.4703C46.3496 55.5805 44.7181 54.1332 42.7483 54.1332ZM42.7725 59.0049C43.149 59.0049 43.4726 58.7774 43.6128 58.4516L46.4024 58.4076C46.5448 58.4054 46.6586 58.5272 46.6366 58.6681C46.3474 60.555 44.7166 62.0008 42.7483 62.0008C42.2389 62.0008 41.7524 61.9039 41.3054 61.7278C41.1748 61.6764 41.1263 61.5186 41.1975 61.3975L42.6044 58.9895C42.6587 58.9998 42.7153 59.0049 42.7725 59.0049Z" fill="#2D31AD"/>
<path d="M42.771 58.4745C42.9836 58.4745 43.1558 58.3023 43.1558 58.0897C43.1558 57.8772 42.9836 57.705 42.771 57.705C42.5585 57.705 42.3862 57.8772 42.3862 58.0897C42.3862 58.3023 42.5585 58.4745 42.771 58.4745Z" fill="#B3B3B3"/>
<path d="M42.749 36.4503C44.4093 36.4503 45.7552 35.1044 45.7552 33.4442C45.7552 31.7839 44.4093 30.438 42.749 30.438C41.0888 30.438 39.7429 31.7839 39.7429 33.4442C39.7429 35.1044 41.0888 36.4503 42.749 36.4503Z" fill="#E1D4C8"/>
<path fill-rule="evenodd" clip-rule="evenodd" d="M42.7483 38.324C45.3918 38.324 47.5341 36.1817 47.5341 33.5381C47.5341 30.8953 45.3918 28.7523 42.7483 28.7523C40.1055 28.7523 37.9624 30.8953 37.9624 33.5381C37.9624 36.1817 40.1055 38.324 42.7483 38.324ZM38.8145 33.5381C38.8145 32.3257 39.3627 31.2417 40.2251 30.5203C40.3308 30.4315 40.4878 30.4608 40.5634 30.5761L42.1061 32.9371C41.9527 33.1007 41.8588 33.3202 41.8588 33.5623C41.8588 33.77 41.9285 33.9616 42.0452 34.1157L40.562 36.4929C40.4878 36.6117 40.3278 36.6426 40.2207 36.5523C39.3613 35.8309 38.8145 34.7483 38.8145 33.5381ZM42.7483 29.6043C42.2382 29.6043 41.7509 29.7012 41.3039 29.8781C41.1733 29.9295 41.1249 30.0858 41.1946 30.2076L42.6044 32.664C42.6587 32.6538 42.7153 32.6486 42.7725 32.6486C43.149 32.6486 43.4726 32.8761 43.6128 33.2013H46.4068C46.547 33.2013 46.6586 33.0809 46.6373 32.9414C46.3496 31.0524 44.7181 29.6043 42.7483 29.6043ZM42.7725 34.4761C43.149 34.4761 43.4726 34.2486 43.6128 33.9227L46.4024 33.8794C46.5448 33.8772 46.6586 33.9983 46.6366 34.1392C46.3474 36.0268 44.7166 37.4719 42.7483 37.4719C42.2389 37.4719 41.7524 37.375 41.3054 37.1989C41.1748 37.1475 41.1263 36.9905 41.1975 36.8686L42.6044 34.4607C42.6587 34.4709 42.7153 34.4761 42.7725 34.4761Z" fill="#2D31AD"/>
<path d="M42.771 33.9485C42.9836 33.9485 43.1558 33.7763 43.1558 33.5637C43.1558 33.3512 42.9836 33.179 42.771 33.179C42.5585 33.179 42.3862 33.3512 42.3862 33.5637C42.3862 33.7763 42.5585 33.9485 42.771 33.9485Z" fill="#B3B3B3"/>
<path d="M55.66 60.1139C55.66 60.3003 55.6175 60.4508 55.5654 60.4508C55.5125 60.4508 55.4699 60.3003 55.4699 60.1139C55.4699 59.9282 55.5125 59.7778 55.5654 59.7778C55.6175 59.7778 55.66 59.9282 55.66 60.1139Z" fill="#EDEDED"/>
<path d="M55.66 60.1139C55.66 60.3003 55.6175 60.4508 55.5654 60.4508H55.856C55.9081 60.4508 55.9507 60.3003 55.9507 60.1139C55.9507 59.9282 55.9081 59.7778 55.856 59.7778H55.5654C55.6175 59.7778 55.66 59.9282 55.66 60.1139Z" fill="#B5B5B5"/>
<path d="M55.66 55.1115C55.66 55.2972 55.6175 55.4484 55.5654 55.4484C55.5125 55.4484 55.4699 55.2972 55.4699 55.1115C55.4699 54.9258 55.5125 54.7747 55.5654 54.7747C55.6175 54.7747 55.66 54.9258 55.66 55.1115Z" fill="#EDEDED"/>
<path d="M55.66 55.1115C55.66 55.2972 55.6175 55.4484 55.5654 55.4484H55.856C55.9081 55.4484 55.9507 55.2972 55.9507 55.1115C55.9507 54.9258 55.9081 54.7747 55.856 54.7747H55.5654C55.6175 54.7747 55.66 54.9258 55.66 55.1115Z" fill="#B5B5B5"/>
<path d="M55.9015 59.0079C55.9015 59.1936 55.8589 59.3441 55.8068 59.3441C55.754 59.3441 55.7114 59.1936 55.7114 59.0079C55.7114 58.8215 55.754 58.6711 55.8068 58.6711C55.8589 58.6711 55.9015 58.8215 55.9015 59.0079Z" fill="#EDEDED"/>
<path d="M55.9015 59.0079C55.9015 59.1936 55.8589 59.3441 55.8068 59.3441H56.0975C56.1496 59.3441 56.1921 59.1936 56.1921 59.0079C56.1921 58.8215 56.1496 58.6711 56.0975 58.6711H55.8068C55.8589 58.6711 55.9015 58.8215 55.9015 59.0079Z" fill="#B5B5B5"/>
<path d="M55.42 58.6666C55.42 58.8522 55.3775 59.0035 55.3246 59.0035C55.2725 59.0035 55.2299 58.8522 55.2299 58.6666C55.2299 58.4802 55.2725 58.3297 55.3246 58.3297C55.3775 58.3297 55.42 58.4802 55.42 58.6666Z" fill="#EDEDED"/>
<path d="M55.42 58.6666C55.42 58.8522 55.3775 59.0035 55.3246 59.0035H55.616C55.6681 59.0035 55.7107 58.8522 55.7107 58.6666C55.7107 58.4802 55.6681 58.3297 55.616 58.3297H55.3246C55.3775 58.3297 55.42 58.4802 55.42 58.6666Z" fill="#B5B5B5"/>
<path d="M55.9015 57.6112C55.9015 57.7976 55.8589 57.9481 55.8068 57.9481C55.754 57.9481 55.7114 57.7976 55.7114 57.6112C55.7114 57.4255 55.754 57.2744 55.8068 57.2744C55.8589 57.2744 55.9015 57.4255 55.9015 57.6112Z" fill="#EDEDED"/>
<path d="M55.9015 57.6112C55.9015 57.7976 55.8589 57.9481 55.8068 57.9481H56.0975C56.1496 57.9481 56.1921 57.7976 56.1921 57.6112C56.1921 57.4255 56.1496 57.2744 56.0975 57.2744H55.8068C55.8589 57.2744 55.9015 57.4255 55.9015 57.6112Z" fill="#B5B5B5"/>
<path d="M55.9015 56.2183C55.9015 56.404 55.8589 56.5552 55.8068 56.5552C55.754 56.5552 55.7114 56.404 55.7114 56.2183C55.7114 56.0319 55.754 55.8815 55.8068 55.8815C55.8589 55.8815 55.9015 56.0319 55.9015 56.2183Z" fill="#EDEDED"/>
<path d="M55.9015 56.2183C55.9015 56.404 55.8589 56.5552 55.8068 56.5552H56.0975C56.1496 56.5552 56.1921 56.404 56.1921 56.2183C56.1921 56.0319 56.1496 55.8815 56.0975 55.8815H55.8068C55.8589 55.8815 55.9015 56.0319 55.9015 56.2183Z" fill="#B5B5B5"/>
<path d="M55.4215 56.5507C55.4215 56.7364 55.379 56.8876 55.3261 56.8876C55.274 56.8876 55.2314 56.7364 55.2314 56.5507C55.2314 56.365 55.274 56.2139 55.3261 56.2139C55.379 56.2139 55.4215 56.365 55.4215 56.5507Z" fill="#EDEDED"/>
<path d="M55.4215 56.5507C55.4215 56.7364 55.379 56.8876 55.3261 56.8876H55.6175C55.6696 56.8876 55.7122 56.7364 55.7122 56.5507C55.7122 56.365 55.6696 56.2139 55.6175 56.2139H55.3261C55.379 56.2139 55.4215 56.365 55.4215 56.5507Z" fill="#B5B5B5"/>
<path d="M54.6458 57.6098C54.6458 59.4159 54.4542 60.8801 54.2179 60.8801C53.9816 60.8801 53.79 59.4159 53.79 57.6098C53.79 55.8036 53.9816 54.3387 54.2179 54.3387C54.4542 54.3387 54.6458 55.8036 54.6458 57.6098Z" fill="#6C698B"/>
<path d="M54.6458 57.6098C54.6458 59.4159 54.4542 60.8801 54.2179 60.8801H55.5265C55.7628 60.8801 55.9543 59.4159 55.9543 57.6098C55.9543 55.8036 55.7628 54.3387 55.5265 54.3387H54.2179C54.4542 54.3387 54.6458 55.8036 54.6458 57.6098Z" fill="#1822AB"/>
<path d="M53.7379 56.5507C53.7379 56.7364 53.6954 56.8876 53.6425 56.8876C53.5904 56.8876 53.5478 56.7364 53.5478 56.5507C53.5478 56.365 53.5904 56.2139 53.6425 56.2139C53.6954 56.2139 53.7379 56.365 53.7379 56.5507Z" fill="#EDEDED"/>
<path d="M51.2367 56.5507C51.2367 56.7364 51.1942 56.8876 51.1413 56.8876H53.9331C53.986 56.8876 54.0285 56.7364 54.0285 56.5507C54.0285 56.365 53.986 56.2139 53.9331 56.2139H51.1413C51.1942 56.2139 51.2367 56.365 51.2367 56.5507Z" fill="#9C9C9C"/>
<path d="M53.7401 58.6666C53.7401 58.8522 53.6975 59.0035 53.6447 59.0035C53.5926 59.0035 53.55 58.8522 53.55 58.6666C53.55 58.4802 53.5926 58.3297 53.6447 58.3297C53.6975 58.3297 53.7401 58.4802 53.7401 58.6666Z" fill="#EDEDED"/>
<path d="M51.2389 58.6666C51.2389 58.8522 51.1964 59.0035 51.1435 59.0035H53.9353C53.9882 59.0035 54.0307 58.8522 54.0307 58.6666C54.0307 58.4802 53.9882 58.3297 53.9353 58.3297H51.1435C51.1964 58.3297 51.2389 58.4802 51.2389 58.6666Z" fill="#9C9C9C"/>
<path d="M53.9808 60.1139C53.9808 60.3003 53.9383 60.4508 53.8854 60.4508C53.8333 60.4508 53.7907 60.3003 53.7907 60.1139C53.7907 59.9282 53.8333 59.7778 53.8854 59.7778C53.9383 59.7778 53.9808 59.9282 53.9808 60.1139Z" fill="#EDEDED"/>
<path d="M51.0936 60.1139C51.0936 60.3003 51.0511 60.4508 50.9989 60.4508H54.1753C54.2282 60.4508 54.2707 60.3003 54.2707 60.1139C54.2707 59.9282 54.2282 59.7778 54.1753 59.7778H50.9989C51.0511 59.7778 51.0936 59.9282 51.0936 60.1139Z" fill="#B5B5B5"/>
<path d="M53.9808 55.1115C53.9808 55.2972 53.9383 55.4484 53.8854 55.4484C53.8333 55.4484 53.7907 55.2972 53.7907 55.1115C53.7907 54.9258 53.8333 54.7747 53.8854 54.7747C53.9383 54.7747 53.9808 54.9258 53.9808 55.1115Z" fill="#EDEDED"/>
<path d="M51.0936 55.1115C51.0936 55.2972 51.0511 55.4484 50.9989 55.4484H54.1753C54.2282 55.4484 54.2707 55.2972 54.2707 55.1115C54.2707 54.9258 54.2282 54.7747 54.1753 54.7747H50.9989C51.0511 54.7747 51.0936 54.9258 51.0936 55.1115Z" fill="#B5B5B5"/>
<path d="M54.2201 59.0079C54.2201 59.1936 54.1775 59.3441 54.1254 59.3441C54.0726 59.3441 54.03 59.1936 54.03 59.0079C54.03 58.8215 54.0726 58.6711 54.1254 58.6711C54.1775 58.6711 54.2201 58.8215 54.2201 59.0079Z" fill="#EDEDED"/>
<path d="M50.9982 59.0079C50.9982 59.1936 50.9556 59.3441 50.9028 59.3441H54.416C54.4689 59.3441 54.5115 59.1936 54.5115 59.0079C54.5115 58.8215 54.4689 58.6711 54.416 58.6711H50.9028C50.9556 58.6711 50.9982 58.8215 50.9982 59.0079Z" fill="#B5B5B5"/>
<path d="M54.2194 57.6112C54.2194 57.7976 54.1768 57.9481 54.1247 57.9481C54.0719 57.9481 54.0293 57.7976 54.0293 57.6112C54.0293 57.4255 54.0719 57.2744 54.1247 57.2744C54.1768 57.2744 54.2194 57.4255 54.2194 57.6112Z" fill="#EDEDED"/>
<path d="M51.2367 57.6112C51.2367 57.7976 51.1942 57.9481 51.1413 57.9481H54.4146C54.4667 57.9481 54.5093 57.7976 54.5093 57.6112C54.5093 57.4255 54.4667 57.2744 54.4146 57.2744H51.1413C51.1942 57.2744 51.2367 57.4255 51.2367 57.6112Z" fill="#B5B5B5"/>
<path d="M54.2216 56.2153C54.2216 56.401 54.179 56.5522 54.1269 56.5522C54.074 56.5522 54.0315 56.401 54.0315 56.2153C54.0315 56.0296 54.074 55.8784 54.1269 55.8784C54.179 55.8784 54.2216 56.0296 54.2216 56.2153Z" fill="#EDEDED"/>
<path d="M51.2389 56.2153C51.2389 56.401 51.1964 56.5522 51.1435 56.5522H54.4168C54.4689 56.5522 54.5114 56.401 54.5114 56.2153C54.5114 56.0296 54.4689 55.8784 54.4168 55.8784H51.1435C51.1964 55.8784 51.2389 56.0296 51.2389 56.2153Z" fill="#B5B5B5"/>
<path d="M50.0272 57.6098C50.0272 59.4159 49.8357 60.8801 49.5994 60.8801C49.3631 60.8801 49.1715 59.4159 49.1715 57.6098C49.1715 55.8036 49.3631 54.3387 49.5994 54.3387C49.8357 54.3387 50.0272 55.8036 50.0272 57.6098Z" fill="#6C698B"/>
<path d="M50.0272 57.6098C50.0272 59.4159 49.8357 60.8801 49.5994 60.8801H50.9079C51.1442 60.8801 51.3358 59.4159 51.3358 57.6098C51.3358 55.8036 51.1442 54.3387 50.9079 54.3387H49.5994C49.8357 54.3387 50.0272 55.8036 50.0272 57.6098Z" fill="#1822AB"/>
<path d="M49.3616 60.1139C49.3616 60.3003 49.319 60.4508 49.2669 60.4508C49.2141 60.4508 49.1715 60.3003 49.1715 60.1139C49.1715 59.9282 49.2141 59.7778 49.2669 59.7778C49.319 59.7778 49.3616 59.9282 49.3616 60.1139Z" fill="#EDEDED"/>
<path d="M49.3616 60.1139C49.3616 60.3003 49.319 60.4508 49.2669 60.4508H49.5575C49.6096 60.4508 49.6522 60.3003 49.6522 60.1139C49.6522 59.9282 49.6096 59.7778 49.5575 59.7778H49.2669C49.319 59.7778 49.3616 59.9282 49.3616 60.1139Z" fill="#B5B5B5"/>
<path d="M49.3616 55.1115C49.3616 55.2972 49.319 55.4484 49.2669 55.4484C49.2141 55.4484 49.1715 55.2972 49.1715 55.1115C49.1715 54.9258 49.2141 54.7747 49.2669 54.7747C49.319 54.7747 49.3616 54.9258 49.3616 55.1115Z" fill="#EDEDED"/>
<path d="M49.3616 55.1115C49.3616 55.2972 49.319 55.4484 49.2669 55.4484H49.5575C49.6096 55.4484 49.6522 55.2972 49.6522 55.1115C49.6522 54.9258 49.6096 54.7747 49.5575 54.7747H49.2669C49.319 54.7747 49.3616 54.9258 49.3616 55.1115Z" fill="#B5B5B5"/>
<path d="M49.6023 59.0079C49.6023 59.1936 49.5597 59.3441 49.5076 59.3441C49.4548 59.3441 49.4122 59.1936 49.4122 59.0079C49.4122 58.8215 49.4548 58.6711 49.5076 58.6711C49.5597 58.6711 49.6023 58.8215 49.6023 59.0079Z" fill="#EDEDED"/>
<path d="M49.6023 59.0079C49.6023 59.1936 49.5597 59.3441 49.5076 59.3441H49.7983C49.8504 59.3441 49.8929 59.1936 49.8929 59.0079C49.8929 58.8215 49.8504 58.6711 49.7983 58.6711H49.5076C49.5597 58.6711 49.6023 58.8215 49.6023 59.0079Z" fill="#B5B5B5"/>
<path d="M49.603 57.6112C49.603 57.7976 49.5605 57.9481 49.5084 57.9481C49.4555 57.9481 49.4129 57.7976 49.4129 57.6112C49.4129 57.4255 49.4555 57.2744 49.5084 57.2744C49.5605 57.2744 49.603 57.4255 49.603 57.6112Z" fill="#EDEDED"/>
<path d="M49.603 57.6112C49.603 57.7976 49.5605 57.9481 49.5084 57.9481H49.799C49.8511 57.9481 49.8937 57.7976 49.8937 57.6112C49.8937 57.4255 49.8511 57.2744 49.799 57.2744H49.5084C49.5605 57.2744 49.603 57.4255 49.603 57.6112Z" fill="#B5B5B5"/>
<path d="M49.6023 56.2183C49.6023 56.404 49.5597 56.5552 49.5076 56.5552C49.4548 56.5552 49.4122 56.404 49.4122 56.2183C49.4122 56.0319 49.4548 55.8815 49.5076 55.8815C49.5597 55.8815 49.6023 56.0319 49.6023 56.2183Z" fill="#EDEDED"/>
<path d="M49.6023 56.2183C49.6023 56.404 49.5597 56.5552 49.5076 56.5552H49.7983C49.8504 56.5552 49.8929 56.404 49.8929 56.2183C49.8929 56.0319 49.8504 55.8815 49.7983 55.8815H49.5076C49.5597 55.8815 49.6023 56.0319 49.6023 56.2183Z" fill="#B5B5B5"/>
<path d="M55.6622 35.5798C55.6622 35.7655 55.6197 35.916 55.5668 35.916C55.5147 35.916 55.4722 35.7655 55.4722 35.5798C55.4722 35.3934 55.5147 35.243 55.5668 35.243C55.6197 35.243 55.6622 35.3934 55.6622 35.5798Z" fill="#EDEDED"/>
<path d="M55.6622 35.5798C55.6622 35.7655 55.6197 35.916 55.5668 35.916H55.8582C55.9103 35.916 55.9529 35.7655 55.9529 35.5798C55.9529 35.3934 55.9103 35.243 55.8582 35.243H55.5668C55.6197 35.243 55.6622 35.3934 55.6622 35.5798Z" fill="#B5B5B5"/>
<path d="M55.6622 30.5768C55.6622 30.7632 55.6197 30.9137 55.5668 30.9137C55.5147 30.9137 55.4722 30.7632 55.4722 30.5768C55.4722 30.3911 55.5147 30.2407 55.5668 30.2407C55.6197 30.2407 55.6622 30.3911 55.6622 30.5768Z" fill="#EDEDED"/>
<path d="M55.6622 30.5768C55.6622 30.7632 55.6197 30.9137 55.5668 30.9137H55.8582C55.9103 30.9137 55.9529 30.7632 55.9529 30.5768C55.9529 30.3911 55.9103 30.2407 55.8582 30.2407H55.5668C55.6197 30.2407 55.6622 30.3911 55.6622 30.5768Z" fill="#B5B5B5"/>
<path d="M55.9022 34.4702C55.9022 34.6558 55.8597 34.807 55.8076 34.807C55.7547 34.807 55.7121 34.6558 55.7121 34.4702C55.7121 34.2845 55.7547 34.1333 55.8076 34.1333C55.8597 34.1333 55.9022 34.2845 55.9022 34.4702Z" fill="#EDEDED"/>
<path d="M55.9022 34.4702C55.9022 34.6558 55.8597 34.807 55.8076 34.807H56.0982C56.1503 34.807 56.1929 34.6558 56.1929 34.4702C56.1929 34.2845 56.1503 34.1333 56.0982 34.1333H55.8076C55.8597 34.1333 55.9022 34.2845 55.9022 34.4702Z" fill="#B5B5B5"/>
<path d="M55.42 34.1348C55.42 34.3205 55.3775 34.4717 55.3246 34.4717C55.2725 34.4717 55.2299 34.3205 55.2299 34.1348C55.2299 33.9491 55.2725 33.7979 55.3246 33.7979C55.3775 33.7979 55.42 33.9491 55.42 34.1348Z" fill="#EDEDED"/>
<path d="M55.42 34.1348C55.42 34.3205 55.3775 34.4717 55.3246 34.4717H55.616C55.6681 34.4717 55.7107 34.3205 55.7107 34.1348C55.7107 33.9491 55.6681 33.7979 55.616 33.7979H55.3246C55.3775 33.7979 55.42 33.9491 55.42 34.1348Z" fill="#B5B5B5"/>
<path d="M55.9015 33.0793C55.9015 33.2657 55.8589 33.4162 55.8068 33.4162C55.754 33.4162 55.7114 33.2657 55.7114 33.0793C55.7114 32.8936 55.754 32.7432 55.8068 32.7432C55.8589 32.7432 55.9015 32.8936 55.9015 33.0793Z" fill="#EDEDED"/>
<path d="M55.9015 33.0793C55.9015 33.2657 55.8589 33.4162 55.8068 33.4162H56.0975C56.1496 33.4162 56.1921 33.2657 56.1921 33.0793C56.1921 32.8936 56.1496 32.7432 56.0975 32.7432H55.8068C55.8589 32.7432 55.9015 32.8936 55.9015 33.0793Z" fill="#B5B5B5"/>
<path d="M55.9015 31.6835C55.9015 31.8692 55.8589 32.0203 55.8068 32.0203C55.754 32.0203 55.7114 31.8692 55.7114 31.6835C55.7114 31.4978 55.754 31.3466 55.8068 31.3466C55.8589 31.3466 55.9015 31.4978 55.9015 31.6835Z" fill="#EDEDED"/>
<path d="M55.9015 31.6835C55.9015 31.8692 55.8589 32.0203 55.8068 32.0203H56.0975C56.1496 32.0203 56.1921 31.8692 56.1921 31.6835C56.1921 31.4978 56.1496 31.3466 56.0975 31.3466H55.8068C55.8589 31.3466 55.9015 31.4978 55.9015 31.6835Z" fill="#B5B5B5"/>
<path d="M55.4208 32.0189C55.4208 32.2053 55.3782 32.3558 55.3254 32.3558C55.2733 32.3558 55.2307 32.2053 55.2307 32.0189C55.2307 31.8332 55.2733 31.682 55.3254 31.682C55.3782 31.682 55.4208 31.8332 55.4208 32.0189Z" fill="#EDEDED"/>
<path d="M55.4208 32.0189C55.4208 32.2053 55.3782 32.3558 55.3254 32.3558H55.6167C55.6688 32.3558 55.7114 32.2053 55.7114 32.0189C55.7114 31.8332 55.6688 31.682 55.6167 31.682H55.3254C55.3782 31.682 55.4208 31.8332 55.4208 32.0189Z" fill="#B5B5B5"/>
<path d="M54.6443 33.0779C54.6443 34.8841 54.4527 36.349 54.2164 36.349C53.9801 36.349 53.7885 34.8841 53.7885 33.0779C53.7885 31.2718 53.9801 29.8076 54.2164 29.8076C54.4527 29.8076 54.6443 31.2718 54.6443 33.0779Z" fill="#6C698B"/>
<path d="M54.6443 33.0779C54.6443 34.8841 54.4528 36.349 54.2164 36.349H55.525C55.7613 36.349 55.9529 34.8841 55.9529 33.0779C55.9529 31.2718 55.7613 29.8076 55.525 29.8076H54.2164C54.4528 29.8076 54.6443 31.2718 54.6443 33.0779Z" fill="#1822AB"/>
<path d="M53.7394 32.0189C53.7394 32.2053 53.6968 32.3558 53.644 32.3558C53.5919 32.3558 53.5493 32.2053 53.5493 32.0189C53.5493 31.8332 53.5919 31.682 53.644 31.682C53.6968 31.682 53.7394 31.8332 53.7394 32.0189Z" fill="#EDEDED"/>
<path d="M51.2382 32.0189C51.2382 32.2053 51.1956 32.3558 51.1428 32.3558H53.9346C53.9875 32.3558 54.03 32.2053 54.03 32.0189C54.03 31.8332 53.9875 31.682 53.9346 31.682H51.1428C51.1956 31.682 51.2382 31.8332 51.2382 32.0189Z" fill="#9C9C9C"/>
<path d="M53.7372 34.1348C53.7372 34.3205 53.6946 34.4717 53.6418 34.4717C53.5897 34.4717 53.5471 34.3205 53.5471 34.1348C53.5471 33.9491 53.5897 33.7979 53.6418 33.7979C53.6946 33.7979 53.7372 33.9491 53.7372 34.1348Z" fill="#EDEDED"/>
<path d="M51.236 34.1348C51.236 34.3205 51.1934 34.4717 51.1406 34.4717H53.9324C53.9852 34.4717 54.0278 34.3205 54.0278 34.1348C54.0278 33.9491 53.9852 33.7979 53.9324 33.7979H51.1406C51.1934 33.7979 51.236 33.9491 51.236 34.1348Z" fill="#9C9C9C"/>
<path d="M53.9816 35.5798C53.9816 35.7655 53.939 35.916 53.8861 35.916C53.834 35.916 53.7915 35.7655 53.7915 35.5798C53.7915 35.3934 53.834 35.243 53.8861 35.243C53.939 35.243 53.9816 35.3934 53.9816 35.5798Z" fill="#EDEDED"/>
<path d="M51.0943 35.5798C51.0943 35.7655 51.0518 35.916 50.9997 35.916H54.176C54.2289 35.916 54.2715 35.7655 54.2715 35.5798C54.2715 35.3934 54.2289 35.243 54.176 35.243H50.9997C51.0518 35.243 51.0943 35.3934 51.0943 35.5798Z" fill="#B5B5B5"/>
<path d="M53.9816 30.5768C53.9816 30.7632 53.939 30.9137 53.8861 30.9137C53.834 30.9137 53.7915 30.7632 53.7915 30.5768C53.7915 30.3911 53.834 30.2407 53.8861 30.2407C53.939 30.2407 53.9816 30.3911 53.9816 30.5768Z" fill="#EDEDED"/>
<path d="M51.0943 30.5768C51.0943 30.7632 51.0518 30.9137 50.9997 30.9137H54.176C54.2289 30.9137 54.2715 30.7632 54.2715 30.5768C54.2715 30.3911 54.2289 30.2407 54.176 30.2407H50.9997C51.0518 30.2407 51.0943 30.3911 51.0943 30.5768Z" fill="#B5B5B5"/>
<path d="M54.2186 34.4702C54.2186 34.6558 54.1761 34.807 54.1239 34.807C54.0711 34.807 54.0285 34.6558 54.0285 34.4702C54.0285 34.2845 54.0711 34.1333 54.1239 34.1333C54.1761 34.1333 54.2186 34.2845 54.2186 34.4702Z" fill="#EDEDED"/>
<path d="M50.9967 34.4702C50.9967 34.6558 50.9542 34.807 50.9013 34.807H54.4146C54.4674 34.807 54.51 34.6558 54.51 34.4702C54.51 34.2845 54.4674 34.1333 54.4146 34.1333H50.9013C50.9542 34.1333 50.9967 34.2845 50.9967 34.4702Z" fill="#B5B5B5"/>
<path d="M54.2201 33.0793C54.2201 33.2657 54.1775 33.4162 54.1254 33.4162C54.0726 33.4162 54.03 33.2657 54.03 33.0793C54.03 32.8936 54.0726 32.7432 54.1254 32.7432C54.1775 32.7432 54.2201 32.8936 54.2201 33.0793Z" fill="#EDEDED"/>
<path d="M51.2382 33.0793C51.2382 33.2657 51.1956 33.4162 51.1428 33.4162H54.416C54.4682 33.4162 54.5107 33.2657 54.5107 33.0793C54.5107 32.8936 54.4682 32.7432 54.416 32.7432H51.1428C51.1956 32.7432 51.2382 32.8936 51.2382 33.0793Z" fill="#B5B5B5"/>
<path d="M54.2208 31.6835C54.2208 31.8692 54.1783 32.0203 54.1261 32.0203C54.0733 32.0203 54.0307 31.8692 54.0307 31.6835C54.0307 31.4978 54.0733 31.3466 54.1261 31.3466C54.1783 31.3466 54.2208 31.4978 54.2208 31.6835Z" fill="#EDEDED"/>
<path d="M51.2382 31.6835C51.2382 31.8692 51.1956 32.0203 51.1428 32.0203H54.416C54.4682 32.0203 54.5107 31.8692 54.5107 31.6835C54.5107 31.4978 54.4682 31.3466 54.416 31.3466H51.1428C51.1956 31.3466 51.2382 31.4978 51.2382 31.6835Z" fill="#B5B5B5"/>
<path d="M50.025 33.0779C50.025 34.8841 49.8335 36.349 49.5972 36.349C49.3608 36.349 49.1693 34.8841 49.1693 33.0779C49.1693 31.2718 49.3608 29.8076 49.5972 29.8076C49.8335 29.8076 50.025 31.2718 50.025 33.0779Z" fill="#6C698B"/>
<path d="M50.025 33.0779C50.025 34.8841 49.8335 36.349 49.5972 36.349H50.9057C51.1421 36.349 51.3336 34.8841 51.3336 33.0779C51.3336 31.2718 51.1421 29.8076 50.9057 29.8076H49.5972C49.8335 29.8076 50.025 31.2718 50.025 33.0779Z" fill="#1822AB"/>
<path d="M49.3616 35.5798C49.3616 35.7655 49.319 35.916 49.2669 35.916C49.2141 35.916 49.1715 35.7655 49.1715 35.5798C49.1715 35.3934 49.2141 35.243 49.2669 35.243C49.319 35.243 49.3616 35.3934 49.3616 35.5798Z" fill="#EDEDED"/>
<path d="M49.3616 35.5798C49.3616 35.7655 49.319 35.916 49.2669 35.916H49.5575C49.6096 35.916 49.6522 35.7655 49.6522 35.5798C49.6522 35.3934 49.6096 35.243 49.5575 35.243H49.2669C49.319 35.243 49.3616 35.3934 49.3616 35.5798Z" fill="#B5B5B5"/>
<path d="M49.3616 30.5768C49.3616 30.7632 49.319 30.9137 49.2669 30.9137C49.2141 30.9137 49.1715 30.7632 49.1715 30.5768C49.1715 30.3911 49.2141 30.2407 49.2669 30.2407C49.319 30.2407 49.3616 30.3911 49.3616 30.5768Z" fill="#EDEDED"/>
<path d="M49.3616 30.5768C49.3616 30.7632 49.319 30.9137 49.2669 30.9137H49.5575C49.6096 30.9137 49.6522 30.7632 49.6522 30.5768C49.6522 30.3911 49.6096 30.2407 49.5575 30.2407H49.2669C49.319 30.2407 49.3616 30.3911 49.3616 30.5768Z" fill="#B5B5B5"/>
<path d="M49.6009 34.4702C49.6009 34.6558 49.5583 34.807 49.5062 34.807C49.4533 34.807 49.4108 34.6558 49.4108 34.4702C49.4108 34.2845 49.4533 34.1333 49.5062 34.1333C49.5583 34.1333 49.6009 34.2845 49.6009 34.4702Z" fill="#EDEDED"/>
<path d="M49.6008 34.4702C49.6008 34.6558 49.5583 34.807 49.5061 34.807H49.7968C49.8489 34.807 49.8922 34.6558 49.8922 34.4702C49.8922 34.2845 49.8489 34.1333 49.7968 34.1333H49.5061C49.5583 34.1333 49.6008 34.2845 49.6008 34.4702Z" fill="#B5B5B5"/>
<path d="M49.6016 33.0793C49.6016 33.2657 49.559 33.4162 49.5069 33.4162C49.454 33.4162 49.4115 33.2657 49.4115 33.0793C49.4115 32.8936 49.454 32.7432 49.5069 32.7432C49.559 32.7432 49.6016 32.8936 49.6016 33.0793Z" fill="#EDEDED"/>
<path d="M49.6016 33.0793C49.6016 33.2657 49.559 33.4162 49.5069 33.4162H49.7975C49.8496 33.4162 49.8922 33.2657 49.8922 33.0793C49.8922 32.8936 49.8496 32.7432 49.7975 32.7432H49.5069C49.559 32.7432 49.6016 32.8936 49.6016 33.0793Z" fill="#B5B5B5"/>
<path d="M49.6009 31.6806C49.6009 31.867 49.5583 32.0174 49.5062 32.0174C49.4533 32.0174 49.4108 31.867 49.4108 31.6806C49.4108 31.4949 49.4533 31.3437 49.5062 31.3437C49.5583 31.3437 49.6009 31.4949 49.6009 31.6806Z" fill="#EDEDED"/>
<path d="M49.6008 31.6806C49.6008 31.867 49.5583 32.0174 49.5061 32.0174H49.7968C49.8489 32.0174 49.8922 31.867 49.8922 31.6806C49.8922 31.4949 49.8489 31.3437 49.7968 31.3437H49.5061C49.5583 31.3437 49.6008 31.4949 49.6008 31.6806Z" fill="#B5B5B5"/>
<path d="M30.0731 29.7614H23.6761V36.1585H30.0731V29.7614Z" fill="#E1D4C8"/>
<path d="M26.9464 36.7006C28.7525 36.7006 30.2174 36.8922 30.2174 37.1285C30.2174 37.3648 28.7525 37.5564 26.9464 37.5564C25.1402 37.5564 23.6761 37.3648 23.6761 37.1285C23.6761 36.8922 25.1402 36.7006 26.9464 36.7006Z" fill="#6C698B"/>
<path d="M26.9464 36.7006C28.7525 36.7006 30.2174 36.8921 30.2174 37.1284V35.8198C30.2174 35.5835 28.7525 35.392 26.9464 35.392C25.1402 35.392 23.6761 35.5835 23.6761 35.8198V37.1284C23.6761 36.8921 25.1402 36.7006 26.9464 36.7006Z" fill="#1822AB"/>
<path d="M29.4483 37.3662C29.634 37.3662 29.7844 37.4088 29.7844 37.4616C29.7844 37.5137 29.634 37.5563 29.4483 37.5563C29.2619 37.5563 29.1114 37.5137 29.1114 37.4616C29.1114 37.4088 29.2619 37.3662 29.4483 37.3662Z" fill="#EDEDED"/>
<path d="M29.4483 37.3662C29.634 37.3662 29.7844 37.4088 29.7844 37.4617V37.1703C29.7844 37.1182 29.634 37.0756 29.4483 37.0756C29.2619 37.0756 29.1114 37.1182 29.1114 37.1703V37.4617C29.1114 37.4088 29.2619 37.3662 29.4483 37.3662Z" fill="#B5B5B5"/>
<path d="M24.4452 37.3662C24.6316 37.3662 24.782 37.4088 24.782 37.4616C24.782 37.5137 24.6316 37.5563 24.4452 37.5563C24.2595 37.5563 24.109 37.5137 24.109 37.4616C24.109 37.4088 24.2595 37.3662 24.4452 37.3662Z" fill="#EDEDED"/>
<path d="M24.4452 37.3662C24.6316 37.3662 24.782 37.4088 24.782 37.4617V37.1703C24.782 37.1182 24.6316 37.0756 24.4452 37.0756C24.2595 37.0756 24.109 37.1182 24.109 37.1703V37.4617C24.109 37.4088 24.2595 37.3662 24.4452 37.3662Z" fill="#B5B5B5"/>
<path d="M28.3415 37.1254C28.5272 37.1254 28.6784 37.168 28.6784 37.2208C28.6784 37.2729 28.5272 37.3155 28.3415 37.3155C28.1558 37.3155 28.0046 37.2729 28.0046 37.2208C28.0046 37.168 28.1558 37.1254 28.3415 37.1254Z" fill="#EDEDED"/>
<path d="M28.3415 37.1254C28.5272 37.1254 28.6784 37.168 28.6784 37.2208V36.9295C28.6784 36.8774 28.5272 36.8348 28.3415 36.8348C28.1558 36.8348 28.0046 36.8774 28.0046 36.9295V37.2208C28.0046 37.168 28.1558 37.1254 28.3415 37.1254Z" fill="#B5B5B5"/>
<path d="M26.9471 37.1254C27.1328 37.1254 27.2832 37.168 27.2832 37.2208C27.2832 37.2729 27.1328 37.3155 26.9471 37.3155C26.7607 37.3155 26.6102 37.2729 26.6102 37.2208C26.6102 37.168 26.7607 37.1254 26.9471 37.1254Z" fill="#EDEDED"/>
<path d="M26.9471 37.1254C27.1328 37.1254 27.2832 37.168 27.2832 37.2208V36.9295C27.2832 36.8774 27.1328 36.8348 26.9471 36.8348C26.7607 36.8348 26.6102 36.8774 26.6102 36.9295V37.2208C26.6102 37.168 26.7607 37.1254 26.9471 37.1254Z" fill="#B5B5B5"/>
<path d="M25.5519 37.1254C25.7376 37.1254 25.8888 37.168 25.8888 37.2208C25.8888 37.2729 25.7376 37.3155 25.5519 37.3155C25.3663 37.3155 25.2151 37.2729 25.2151 37.2208C25.2151 37.168 25.3663 37.1254 25.5519 37.1254Z" fill="#EDEDED"/>
<path d="M25.5519 37.1254C25.7376 37.1254 25.8888 37.168 25.8888 37.2208V36.9295C25.8888 36.8774 25.7376 36.8348 25.5519 36.8348C25.3663 36.8348 25.2151 36.8774 25.2151 36.9295V37.2208C25.2151 37.168 25.3663 37.1254 25.5519 37.1254Z" fill="#B5B5B5"/>
<path d="M26.9464 30.038C28.7525 30.038 30.2174 29.8464 30.2174 29.6101C30.2174 29.3738 28.7525 29.1823 26.9464 29.1823C25.1402 29.1823 23.6761 29.3738 23.6761 29.6101C23.6761 29.8464 25.1402 30.038 26.9464 30.038Z" fill="#6C698B"/>
<path d="M26.9464 30.038C28.7525 30.038 30.2174 29.8464 30.2174 29.6101V30.9187C30.2174 31.155 28.7525 31.3466 26.9464 31.3466C25.1402 31.3466 23.6761 31.155 23.6761 30.9187V29.6101C23.6761 29.8464 25.1402 30.038 26.9464 30.038Z" fill="#1822AB"/>
<path d="M29.449 29.3724C29.6347 29.3724 29.7852 29.3298 29.7852 29.2777C29.7852 29.2248 29.6347 29.1823 29.449 29.1823C29.2626 29.1823 29.1122 29.2248 29.1122 29.2777C29.1122 29.3298 29.2626 29.3724 29.449 29.3724Z" fill="#EDEDED"/>
<path d="M29.449 29.3725C29.6347 29.3725 29.7852 29.3299 29.7852 29.2778V29.5684C29.7852 29.6212 29.6347 29.6638 29.449 29.6638C29.2626 29.6638 29.1122 29.6212 29.1122 29.5684V29.2778C29.1122 29.3299 29.2626 29.3725 29.449 29.3725Z" fill="#B5B5B5"/>
<path d="M24.4459 29.3724C24.6323 29.3724 24.7828 29.3298 24.7828 29.2777C24.7828 29.2248 24.6323 29.1823 24.4459 29.1823C24.2602 29.1823 24.1098 29.2248 24.1098 29.2777C24.1098 29.3298 24.2602 29.3724 24.4459 29.3724Z" fill="#EDEDED"/>
<path d="M24.4459 29.3725C24.6323 29.3725 24.7828 29.3299 24.7828 29.2778V29.5684C24.7828 29.6212 24.6323 29.6638 24.4459 29.6638C24.2602 29.6638 24.1098 29.6212 24.1098 29.5684V29.2778C24.1098 29.3299 24.2602 29.3725 24.4459 29.3725Z" fill="#B5B5B5"/>
<path d="M28.343 29.6102C28.5287 29.6102 28.6799 29.5676 28.6799 29.5155C28.6799 29.4627 28.5287 29.4201 28.343 29.4201C28.1566 29.4201 28.0061 29.4627 28.0061 29.5155C28.0061 29.5676 28.1566 29.6102 28.343 29.6102Z" fill="#EDEDED"/>
<path d="M28.343 29.6102C28.5287 29.6102 28.6799 29.5676 28.6799 29.5155V29.8061C28.6799 29.859 28.5287 29.9015 28.343 29.9015C28.1566 29.9015 28.0061 29.859 28.0061 29.8061V29.5155C28.0061 29.5676 28.1566 29.6102 28.343 29.6102Z" fill="#B5B5B5"/>
<path d="M26.9478 29.6102C27.1342 29.6102 27.2847 29.5676 27.2847 29.5155C27.2847 29.4627 27.1342 29.4201 26.9478 29.4201C26.7621 29.4201 26.6117 29.4627 26.6117 29.5155C26.6117 29.5676 26.7621 29.6102 26.9478 29.6102Z" fill="#EDEDED"/>
<path d="M26.9478 29.6102C27.1342 29.6102 27.2847 29.5676 27.2847 29.5155V29.8061C27.2847 29.859 27.1342 29.9015 26.9478 29.9015C26.7621 29.9015 26.6117 29.859 26.6117 29.8061V29.5155C26.6117 29.5676 26.7621 29.6102 26.9478 29.6102Z" fill="#B5B5B5"/>
<path d="M25.5519 29.6102C25.7376 29.6102 25.8888 29.5676 25.8888 29.5155C25.8888 29.4627 25.7376 29.4201 25.5519 29.4201C25.3663 29.4201 25.2151 29.4627 25.2151 29.5155C25.2151 29.5676 25.3663 29.6102 25.5519 29.6102Z" fill="#EDEDED"/>
<path d="M25.5519 29.6102C25.7376 29.6102 25.8888 29.5676 25.8888 29.5155V29.8061C25.8888 29.859 25.7376 29.9015 25.5519 29.9015C25.3663 29.9015 25.2151 29.859 25.2151 29.8061V29.5155C25.2151 29.5676 25.3663 29.6102 25.5519 29.6102Z" fill="#B5B5B5"/>
<path d="M30.7084 33.5623C30.7084 35.3692 30.9 36.8334 31.1363 36.8334C31.3726 36.8334 31.5642 35.3692 31.5642 33.5623C31.5642 31.7561 31.3726 30.292 31.1363 30.292C30.9 30.292 30.7084 31.7561 30.7084 33.5623Z" fill="#6C698B"/>
<path d="M30.7084 33.5623C30.7084 35.3692 30.8999 36.8334 31.1363 36.8334H29.8277C29.5914 36.8334 29.3998 35.3692 29.3998 33.5623C29.3998 31.7561 29.5914 30.292 29.8277 30.292H31.1363C30.8999 30.292 30.7084 31.7561 30.7084 33.5623Z" fill="#1822AB"/>
<path d="M31.3755 36.0642C31.3755 36.2499 31.4181 36.4011 31.4702 36.4011C31.5231 36.4011 31.5656 36.2499 31.5656 36.0642C31.5656 35.8785 31.5231 35.7274 31.4702 35.7274C31.4181 35.7274 31.3755 35.8785 31.3755 36.0642Z" fill="#EDEDED"/>
<path d="M31.3756 36.0642C31.3756 36.2499 31.4181 36.4011 31.4702 36.4011H31.1796C31.1268 36.4011 31.0842 36.2499 31.0842 36.0642C31.0842 35.8785 31.1268 35.7274 31.1796 35.7274H31.4702C31.4181 35.7274 31.3756 35.8785 31.3756 36.0642Z" fill="#B5B5B5"/>
<path d="M31.3748 31.0611C31.3748 31.2475 31.4174 31.398 31.4695 31.398C31.5223 31.398 31.5649 31.2475 31.5649 31.0611C31.5649 30.8754 31.5223 30.725 31.4695 30.725C31.4174 30.725 31.3748 30.8754 31.3748 31.0611Z" fill="#EDEDED"/>
<path d="M31.3748 31.0611C31.3748 31.2475 31.4174 31.398 31.4695 31.398H31.1788C31.126 31.398 31.0834 31.2475 31.0834 31.0611C31.0834 30.8754 31.126 30.725 31.1788 30.725H31.4695C31.4174 30.725 31.3748 30.8754 31.3748 31.0611Z" fill="#B5B5B5"/>
<path d="M31.1341 34.9575C31.1341 35.1432 31.1766 35.2944 31.2287 35.2944C31.2816 35.2944 31.3241 35.1432 31.3241 34.9575C31.3241 34.7718 31.2816 34.6207 31.2287 34.6207C31.1766 34.6207 31.1341 34.7718 31.1341 34.9575Z" fill="#EDEDED"/>
<path d="M31.134 34.9575C31.134 35.1432 31.1766 35.2944 31.2287 35.2944H30.9381C30.8853 35.2944 30.8427 35.1432 30.8427 34.9575C30.8427 34.7718 30.8853 34.6207 30.9381 34.6207H31.2287C31.1766 34.6207 31.134 34.7718 31.134 34.9575Z" fill="#B5B5B5"/>
<path d="M31.1333 33.5615C31.1333 33.7472 31.1759 33.8977 31.228 33.8977C31.2808 33.8977 31.3234 33.7472 31.3234 33.5615C31.3234 33.3751 31.2808 33.2247 31.228 33.2247C31.1759 33.2247 31.1333 33.3751 31.1333 33.5615Z" fill="#EDEDED"/>
<path d="M31.1333 33.5615C31.1333 33.7472 31.1759 33.8977 31.228 33.8977H30.9374C30.8846 33.8977 30.842 33.7472 30.842 33.5615C30.842 33.3751 30.8846 33.2247 30.9374 33.2247H31.228C31.1759 33.2247 31.1333 33.3751 31.1333 33.5615Z" fill="#B5B5B5"/>
<path d="M31.1348 32.1649C31.1348 32.3513 31.1774 32.5018 31.2302 32.5018C31.2831 32.5018 31.3256 32.3513 31.3256 32.1649C31.3256 31.9793 31.2831 31.8288 31.2302 31.8288C31.1774 31.8288 31.1348 31.9793 31.1348 32.1649Z" fill="#EDEDED"/>
<path d="M31.1348 32.1649C31.1348 32.3513 31.1774 32.5018 31.2302 32.5018H30.9396C30.8867 32.5018 30.8442 32.3513 30.8442 32.1649C30.8442 31.9793 30.8867 31.8288 30.9396 31.8288H31.2302C31.1774 31.8288 31.1348 31.9793 31.1348 32.1649Z" fill="#B5B5B5"/>
<path d="M8.38055 58.8127C8.38055 58.9983 8.33798 59.1495 8.28587 59.1495C8.23303 59.1495 8.19046 58.9983 8.19046 58.8127C8.19046 58.627 8.23303 58.4758 8.28587 58.4758C8.33798 58.4758 8.38055 58.627 8.38055 58.8127Z" fill="#EDEDED"/>
<path d="M8.38053 58.8127C8.38053 58.9983 8.33797 59.1495 8.28586 59.1495H8.57649C8.62859 59.1495 8.67116 58.9983 8.67116 58.8127C8.67116 58.627 8.62859 58.4758 8.57649 58.4758H8.28586C8.33797 58.4758 8.38053 58.627 8.38053 58.8127Z" fill="#9C9C9C"/>
<path d="M8.37981 56.6968C8.37981 56.8832 8.33725 57.0336 8.28514 57.0336C8.2323 57.0336 8.18973 56.8832 8.18973 56.6968C8.18973 56.5111 8.2323 56.3599 8.28514 56.3599C8.33725 56.3599 8.37981 56.5111 8.37981 56.6968Z" fill="#EDEDED"/>
<path d="M8.3798 56.6968C8.3798 56.8832 8.33723 57.0336 8.28513 57.0336H8.57575C8.62786 57.0336 8.67043 56.8832 8.67043 56.6968C8.67043 56.5111 8.62786 56.3599 8.57575 56.3599H8.28513C8.33723 56.3599 8.3798 56.5111 8.3798 56.6968Z" fill="#9C9C9C"/>
<path d="M8.62127 60.2548C8.62127 60.4405 8.5787 60.5917 8.5266 60.5917C8.47375 60.5917 8.43118 60.4405 8.43118 60.2548C8.43118 60.0684 8.47375 59.918 8.5266 59.918C8.5787 59.918 8.62127 60.0684 8.62127 60.2548Z" fill="#EDEDED"/>
<path d="M8.62125 60.2548C8.62125 60.4405 8.57869 60.5917 8.52658 60.5917H8.81721C8.87005 60.5917 8.91262 60.4405 8.91262 60.2548C8.91262 60.0684 8.87005 59.918 8.81721 59.918H8.52658C8.57869 59.918 8.62125 60.0684 8.62125 60.2548Z" fill="#B5B5B5"/>
<path d="M8.62127 55.2517C8.62127 55.4381 8.5787 55.5886 8.5266 55.5886C8.47375 55.5886 8.43118 55.4381 8.43118 55.2517C8.43118 55.066 8.47375 54.9156 8.5266 54.9156C8.5787 54.9156 8.62127 55.066 8.62127 55.2517Z" fill="#EDEDED"/>
<path d="M8.62125 55.2517C8.62125 55.4381 8.57869 55.5886 8.52658 55.5886H8.81721C8.87005 55.5886 8.91262 55.4381 8.91262 55.2517C8.91262 55.066 8.87005 54.9156 8.81721 54.9156H8.52658C8.57869 54.9156 8.62125 55.066 8.62125 55.2517Z" fill="#B5B5B5"/>
<path d="M8.86123 59.1451C8.86123 59.3308 8.81866 59.482 8.76656 59.482C8.71371 59.482 8.67114 59.3308 8.67114 59.1451C8.67114 58.9594 8.71371 58.8082 8.76656 58.8082C8.81866 58.8082 8.86123 58.9594 8.86123 59.1451Z" fill="#EDEDED"/>
<path d="M8.86124 59.1451C8.86124 59.3308 8.81868 59.482 8.76657 59.482H9.0572C9.11004 59.482 9.15261 59.3308 9.15261 59.1451C9.15261 58.9594 9.11004 58.8082 9.0572 58.8082H8.76657C8.81868 58.8082 8.86124 58.9594 8.86124 59.1451Z" fill="#B5B5B5"/>
<path d="M8.86123 57.7521C8.86123 57.9378 8.81866 58.0883 8.76656 58.0883C8.71371 58.0883 8.67114 57.9378 8.67114 57.7521C8.67114 57.5657 8.71371 57.4153 8.76656 57.4153C8.81866 57.4153 8.86123 57.5657 8.86123 57.7521Z" fill="#EDEDED"/>
<path d="M8.86124 57.7521C8.86124 57.9378 8.81868 58.0883 8.76657 58.0883H9.0572C9.11004 58.0883 9.15261 57.9378 9.15261 57.7521C9.15261 57.5657 9.11004 57.4153 9.0572 57.4153H8.76657C8.81868 57.4153 8.86124 57.5657 8.86124 57.7521Z" fill="#B5B5B5"/>
<path d="M8.86123 56.3584C8.86123 56.5449 8.81866 56.6953 8.76656 56.6953C8.71371 56.6953 8.67114 56.5449 8.67114 56.3584C8.67114 56.1728 8.71371 56.0215 8.76656 56.0215C8.81866 56.0215 8.86123 56.1728 8.86123 56.3584Z" fill="#EDEDED"/>
<path d="M8.86124 56.3584C8.86124 56.5449 8.81868 56.6953 8.76657 56.6953H9.0572C9.11004 56.6953 9.15261 56.5449 9.15261 56.3584C9.15261 56.1728 9.11004 56.0215 9.0572 56.0215H8.76657C8.81868 56.0215 8.86124 56.1728 8.86124 56.3584Z" fill="#B5B5B5"/>
<path d="M7.60186 57.7499C7.60186 59.5568 7.4103 61.021 7.17398 61.021C6.93766 61.021 6.74612 59.5568 6.74612 57.7499C6.74612 55.9438 6.93766 54.4796 7.17398 54.4796C7.4103 54.4796 7.60186 55.9438 7.60186 57.7499Z" fill="#6C698B"/>
<path d="M7.60183 57.7499C7.60183 59.5568 7.41027 61.021 7.17395 61.021H8.48325C8.71884 61.021 8.91039 59.5568 8.91039 57.7499C8.91039 55.9438 8.71884 54.4796 8.48325 54.4796H7.17395C7.41027 54.4796 7.60183 55.9438 7.60183 57.7499Z" fill="#1822AB"/>
<path d="M6.69619 58.8127C6.69619 58.9983 6.65362 59.1495 6.60152 59.1495C6.54867 59.1495 6.5061 58.9983 6.5061 58.8127C6.5061 58.627 6.54867 58.4758 6.60152 58.4758C6.65362 58.4758 6.69619 58.627 6.69619 58.8127Z" fill="#EDEDED"/>
<path d="M6.69621 58.8127C6.69621 58.9983 6.65364 59.1495 6.60153 59.1495H6.89216C6.945 59.1495 6.98757 58.9983 6.98757 58.8127C6.98757 58.627 6.945 58.4758 6.89216 58.4758H6.60153C6.65364 58.4758 6.69621 58.627 6.69621 58.8127Z" fill="#9C9C9C"/>
<path d="M6.69692 56.6968C6.69692 56.8832 6.65436 57.0336 6.60225 57.0336C6.54941 57.0336 6.50684 56.8832 6.50684 56.6968C6.50684 56.5111 6.54941 56.3599 6.60225 56.3599C6.65436 56.3599 6.69692 56.5111 6.69692 56.6968Z" fill="#EDEDED"/>
<path d="M6.69694 56.6968C6.69694 56.8832 6.65437 57.0336 6.60226 57.0336H6.89289C6.94573 57.0336 6.9883 56.8832 6.9883 56.6968C6.9883 56.5111 6.94573 56.3599 6.89289 56.3599H6.60226C6.65437 56.3599 6.69694 56.5111 6.69694 56.6968Z" fill="#9C9C9C"/>
<path d="M6.93691 60.2548C6.93691 60.4405 6.89435 60.5917 6.84224 60.5917C6.7894 60.5917 6.74683 60.4405 6.74683 60.2548C6.74683 60.0684 6.7894 59.918 6.84224 59.918C6.89435 59.918 6.93691 60.0684 6.93691 60.2548Z" fill="#EDEDED"/>
<path d="M6.93693 60.2548C6.93693 60.4405 6.89436 60.5917 6.84225 60.5917H7.13288C7.18572 60.5917 7.22829 60.4405 7.22829 60.2548C7.22829 60.0684 7.18572 59.918 7.13288 59.918H6.84225C6.89436 59.918 6.93693 60.0684 6.93693 60.2548Z" fill="#B5B5B5"/>
<path d="M6.93691 55.2517C6.93691 55.4381 6.89435 55.5886 6.84224 55.5886C6.7894 55.5886 6.74683 55.4381 6.74683 55.2517C6.74683 55.066 6.7894 54.9156 6.84224 54.9156C6.89435 54.9156 6.93691 55.066 6.93691 55.2517Z" fill="#EDEDED"/>
<path d="M6.93693 55.2517C6.93693 55.4381 6.89436 55.5886 6.84225 55.5886H7.13288C7.18572 55.5886 7.22829 55.4381 7.22829 55.2517C7.22829 55.066 7.18572 54.9156 7.13288 54.9156H6.84225C6.89436 54.9156 6.93693 55.066 6.93693 55.2517Z" fill="#B5B5B5"/>
<path d="M7.17913 59.1451C7.17913 59.3308 7.13656 59.482 7.08446 59.482C7.03161 59.482 6.98904 59.3308 6.98904 59.1451C6.98904 58.9594 7.03161 58.8082 7.08446 58.8082C7.13656 58.8082 7.17913 58.9594 7.17913 59.1451Z" fill="#EDEDED"/>
<path d="M7.17912 59.1451C7.17912 59.3308 7.13655 59.482 7.08444 59.482H7.37507C7.42791 59.482 7.47048 59.3308 7.47048 59.1451C7.47048 58.9594 7.42791 58.8082 7.37507 58.8082H7.08444C7.13655 58.8082 7.17912 58.9594 7.17912 59.1451Z" fill="#B5B5B5"/>
<path d="M7.17764 57.7521C7.17764 57.9378 7.13507 58.0883 7.08223 58.0883C7.02939 58.0883 6.98682 57.9378 6.98682 57.7521C6.98682 57.5657 7.02939 57.4153 7.08223 57.4153C7.13507 57.4153 7.17764 57.5657 7.17764 57.7521Z" fill="#EDEDED"/>
<path d="M7.17763 57.7521C7.17763 57.9378 7.13506 58.0883 7.08221 58.0883H7.37284C7.42568 58.0883 7.46825 57.9378 7.46825 57.7521C7.46825 57.5657 7.42568 57.4153 7.37284 57.4153H7.08221C7.13506 57.4153 7.17763 57.5657 7.17763 57.7521Z" fill="#B5B5B5"/>
<path d="M7.17764 56.3584C7.17764 56.5449 7.13507 56.6953 7.08223 56.6953C7.02939 56.6953 6.98682 56.5449 6.98682 56.3584C6.98682 56.1728 7.02939 56.0215 7.08223 56.0215C7.13507 56.0215 7.17764 56.1728 7.17764 56.3584Z" fill="#EDEDED"/>
<path d="M7.17763 56.3584C7.17763 56.5449 7.13506 56.6953 7.08221 56.6953H7.37284C7.42568 56.6953 7.46825 56.5449 7.46825 56.3584C7.46825 56.1728 7.42568 56.0215 7.37284 56.0215H7.08221C7.13506 56.0215 7.17763 56.1728 7.17763 56.3584Z" fill="#B5B5B5"/>
<path d="M5.96523 57.7499C5.96523 59.5568 5.7737 61.021 5.53737 61.021C5.30105 61.021 5.1095 59.5568 5.1095 57.7499C5.1095 55.9438 5.30105 54.4796 5.53737 54.4796C5.7737 54.4796 5.96523 55.9438 5.96523 57.7499Z" fill="#6C698B"/>
<path d="M5.96521 57.7499C5.96521 59.5568 5.77367 61.021 5.53735 61.021H6.84592C7.08224 61.021 7.27379 59.5568 7.27379 57.7499C7.27379 55.9438 7.08224 54.4796 6.84592 54.4796H5.53735C5.77367 54.4796 5.96521 55.9438 5.96521 57.7499Z" fill="#1822AB"/>
<path d="M5.29809 60.2548C5.29809 60.4405 5.25552 60.5917 5.20268 60.5917C5.15057 60.5917 5.108 60.4405 5.108 60.2548C5.108 60.0684 5.15057 59.918 5.20268 59.918C5.25552 59.918 5.29809 60.0684 5.29809 60.2548Z" fill="#EDEDED"/>
<path d="M5.29808 60.2548C5.29808 60.4405 5.25551 60.5917 5.20267 60.5917H5.49403C5.54614 60.5917 5.58871 60.4405 5.58871 60.2548C5.58871 60.0684 5.54614 59.918 5.49403 59.918H5.20267C5.25551 59.918 5.29808 60.0684 5.29808 60.2548Z" fill="#B5B5B5"/>
<path d="M5.29809 55.2517C5.29809 55.4381 5.25552 55.5886 5.20268 55.5886C5.15057 55.5886 5.108 55.4381 5.108 55.2517C5.108 55.066 5.15057 54.9156 5.20268 54.9156C5.25552 54.9156 5.29809 55.066 5.29809 55.2517Z" fill="#EDEDED"/>
<path d="M5.29808 55.2517C5.29808 55.4381 5.25551 55.5886 5.20267 55.5886H5.49403C5.54614 55.5886 5.58871 55.4381 5.58871 55.2517C5.58871 55.066 5.54614 54.9156 5.49403 54.9156H5.20267C5.25551 54.9156 5.29808 55.066 5.29808 55.2517Z" fill="#B5B5B5"/>
<path d="M5.54031 59.1451C5.54031 59.3308 5.49774 59.482 5.44563 59.482C5.39279 59.482 5.35022 59.3308 5.35022 59.1451C5.35022 58.9594 5.39279 58.8082 5.44563 58.8082C5.49774 58.8082 5.54031 58.9594 5.54031 59.1451Z" fill="#EDEDED"/>
<path d="M5.54029 59.1451C5.54029 59.3308 5.49773 59.482 5.44562 59.482H5.73624C5.78835 59.482 5.83092 59.3308 5.83092 59.1451C5.83092 58.9594 5.78835 58.8082 5.73624 58.8082H5.44562C5.49773 58.8082 5.54029 58.9594 5.54029 59.1451Z" fill="#B5B5B5"/>
<path d="M5.54031 57.7521C5.54031 57.9378 5.49774 58.0883 5.44563 58.0883C5.39279 58.0883 5.35022 57.9378 5.35022 57.7521C5.35022 57.5657 5.39279 57.4153 5.44563 57.4153C5.49774 57.4153 5.54031 57.5657 5.54031 57.7521Z" fill="#EDEDED"/>
<path d="M5.54029 57.7521C5.54029 57.9378 5.49773 58.0883 5.44562 58.0883H5.73624C5.78835 58.0883 5.83092 57.9378 5.83092 57.7521C5.83092 57.5657 5.78835 57.4153 5.73624 57.4153H5.44562C5.49773 57.4153 5.54029 57.5657 5.54029 57.7521Z" fill="#B5B5B5"/>
<path d="M5.54031 56.3584C5.54031 56.5449 5.49774 56.6953 5.44563 56.6953C5.39279 56.6953 5.35022 56.5449 5.35022 56.3584C5.35022 56.1728 5.39279 56.0215 5.44563 56.0215C5.49774 56.0215 5.54031 56.1728 5.54031 56.3584Z" fill="#EDEDED"/>
<path d="M5.54029 56.3584C5.54029 56.5449 5.49773 56.6953 5.44562 56.6953H5.73624C5.78835 56.6953 5.83092 56.5449 5.83092 56.3584C5.83092 56.1728 5.78835 56.0215 5.73624 56.0215H5.44562C5.49773 56.0215 5.54029 56.1728 5.54029 56.3584Z" fill="#B5B5B5"/>
<path d="M25.8895 17.5351C25.7031 17.5351 25.5526 17.4926 25.5526 17.4404C25.5526 17.3876 25.7031 17.345 25.8895 17.345C26.0752 17.345 26.2256 17.3876 26.2256 17.4404C26.2256 17.4926 26.0752 17.5351 25.8895 17.5351Z" fill="#EDEDED"/>
<path d="M25.8895 17.5351C25.7031 17.5351 25.5526 17.4925 25.5526 17.4404V17.7311C25.5526 17.7839 25.7031 17.8265 25.8895 17.8265C26.0752 17.8265 26.2256 17.7839 26.2256 17.7311V17.4404C26.2256 17.4925 26.0752 17.5351 25.8895 17.5351Z" fill="#9C9C9C"/>
<path d="M28.0069 17.5351C27.8212 17.5351 27.6707 17.4926 27.6707 17.4404C27.6707 17.3876 27.8212 17.345 28.0069 17.345C28.1933 17.345 28.3437 17.3876 28.3437 17.4404C28.3437 17.4926 28.1933 17.5351 28.0069 17.5351Z" fill="#EDEDED"/>
<path d="M28.0069 17.5351C27.8212 17.5351 27.6707 17.4925 27.6707 17.4404V17.7311C27.6707 17.7839 27.8212 17.8265 28.0069 17.8265C28.1933 17.8265 28.3437 17.7839 28.3437 17.7311V17.4404C28.3437 17.4925 28.1933 17.5351 28.0069 17.5351Z" fill="#9C9C9C"/>
<path d="M24.4474 17.7736C24.261 17.7736 24.1105 17.7311 24.1105 17.6782C24.1105 17.6254 24.261 17.5828 24.4474 17.5828C24.6331 17.5828 24.7835 17.6254 24.7835 17.6782C24.7835 17.7311 24.6331 17.7736 24.4474 17.7736Z" fill="#EDEDED"/>
<path d="M24.4474 17.7736C24.261 17.7736 24.1105 17.7311 24.1105 17.6782V17.9688C24.1105 18.0217 24.261 18.0643 24.4474 18.0643C24.6331 18.0643 24.7835 18.0217 24.7835 17.9688V17.6782C24.7835 17.7311 24.6331 17.7736 24.4474 17.7736Z" fill="#B5B5B5"/>
<path d="M29.4498 17.7736C29.2641 17.7736 29.1129 17.7311 29.1129 17.6782C29.1129 17.6254 29.2641 17.5828 29.4498 17.5828C29.6354 17.5828 29.7866 17.6254 29.7866 17.6782C29.7866 17.7311 29.6354 17.7736 29.4498 17.7736Z" fill="#EDEDED"/>
<path d="M29.4498 17.7736C29.2641 17.7736 29.1129 17.7311 29.1129 17.6782V17.9688C29.1129 18.0217 29.2641 18.0643 29.4498 18.0643C29.6354 18.0643 29.7866 18.0217 29.7866 17.9688V17.6782C29.7866 17.7311 29.6354 17.7736 29.4498 17.7736Z" fill="#B5B5B5"/>
<path d="M25.5541 18.0173C25.3677 18.0173 25.2173 17.9747 25.2173 17.9219C25.2173 17.8698 25.3677 17.8265 25.5541 17.8265C25.7398 17.8265 25.8903 17.8698 25.8903 17.9219C25.8903 17.9747 25.7398 18.0173 25.5541 18.0173Z" fill="#EDEDED"/>
<path d="M25.5541 18.0173C25.3677 18.0173 25.2173 17.9748 25.2173 17.9219V18.2126C25.2173 18.2654 25.3677 18.308 25.5541 18.308C25.7398 18.308 25.8903 18.2654 25.8903 18.2126V17.9219C25.8903 17.9748 25.7398 18.0173 25.5541 18.0173Z" fill="#B5B5B5"/>
<path d="M26.9485 18.0173C26.7629 18.0173 26.6117 17.9747 26.6117 17.9219C26.6117 17.8698 26.7629 17.8265 26.9485 17.8265C27.1342 17.8265 27.2854 17.8698 27.2854 17.9219C27.2854 17.9747 27.1342 18.0173 26.9485 18.0173Z" fill="#EDEDED"/>
<path d="M26.9485 18.0173C26.7629 18.0173 26.6117 17.9748 26.6117 17.9219V18.2126C26.6117 18.2654 26.7629 18.308 26.9485 18.308C27.1342 18.308 27.2854 18.2654 27.2854 18.2126V17.9219C27.2854 17.9748 27.1342 18.0173 26.9485 18.0173Z" fill="#B5B5B5"/>
<path d="M28.343 18.0173C28.1573 18.0173 28.0069 17.9747 28.0069 17.9219C28.0069 17.8698 28.1573 17.8265 28.343 17.8265C28.5294 17.8265 28.6799 17.8698 28.6799 17.9219C28.6799 17.9747 28.5294 18.0173 28.343 18.0173Z" fill="#EDEDED"/>
<path d="M28.343 18.0173C28.1573 18.0173 28.0069 17.9748 28.0069 17.9219V18.2126C28.0069 18.2654 28.1573 18.308 28.343 18.308C28.5294 18.308 28.6799 18.2654 28.6799 18.2126V17.9219C28.6799 17.9748 28.5294 18.0173 28.343 18.0173Z" fill="#B5B5B5"/>
<path d="M26.9471 16.7616C25.1409 16.7616 23.6768 16.5701 23.6768 16.3338C23.6768 16.0974 25.1409 15.9059 26.9471 15.9059C28.754 15.9059 30.2182 16.0974 30.2182 16.3338C30.2182 16.5701 28.754 16.7616 26.9471 16.7616Z" fill="#6C698B"/>
<path d="M26.9471 16.7616C25.1409 16.7616 23.6768 16.5701 23.6768 16.3337V17.6423C23.6768 17.8786 25.1409 18.0702 26.9471 18.0702C28.754 18.0702 30.2182 17.8786 30.2182 17.6423V16.3337C30.2182 16.5701 28.754 16.7616 26.9471 16.7616Z" fill="#1822AB"/>
<path d="M25.8903 15.8523C25.7038 15.8523 25.5534 15.8097 25.5534 15.7576C25.5534 15.7047 25.7038 15.6622 25.8903 15.6622C26.0759 15.6622 26.2264 15.7047 26.2264 15.7576C26.2264 15.8097 26.0759 15.8523 25.8903 15.8523Z" fill="#EDEDED"/>
<path d="M25.8903 15.8522C25.7038 15.8522 25.5534 15.8096 25.5534 15.7575V16.0481C25.5534 16.101 25.7038 16.1435 25.8903 16.1435C26.0759 16.1435 26.2264 16.101 26.2264 16.0481V15.7575C26.2264 15.8096 26.0759 15.8522 25.8903 15.8522Z" fill="#9C9C9C"/>
<path d="M28.0061 15.8523C27.8204 15.8523 27.67 15.8097 27.67 15.7576C27.67 15.7047 27.8204 15.6622 28.0061 15.6622C28.1925 15.6622 28.343 15.7047 28.343 15.7576C28.343 15.8097 28.1925 15.8523 28.0061 15.8523Z" fill="#EDEDED"/>
<path d="M28.0061 15.8522C27.8204 15.8522 27.67 15.8096 27.67 15.7575V16.0481C27.67 16.101 27.8204 16.1435 28.0061 16.1435C28.1925 16.1435 28.343 16.101 28.343 16.0481V15.7575C28.343 15.8096 28.1925 15.8522 28.0061 15.8522Z" fill="#9C9C9C"/>
<path d="M24.4466 16.0959C24.2602 16.0959 24.1098 16.0534 24.1098 16.0013C24.1098 15.9485 24.2602 15.9059 24.4466 15.9059C24.6323 15.9059 24.7828 15.9485 24.7828 16.0013C24.7828 16.0534 24.6323 16.0959 24.4466 16.0959Z" fill="#EDEDED"/>
<path d="M24.4466 16.0958C24.2602 16.0958 24.1098 16.0533 24.1098 16.0012V16.2918C24.1098 16.3446 24.2602 16.3872 24.4466 16.3872C24.6323 16.3872 24.7828 16.3446 24.7828 16.2918V16.0012C24.7828 16.0533 24.6323 16.0958 24.4466 16.0958Z" fill="#B5B5B5"/>
<path d="M29.449 16.0959C29.2633 16.0959 29.1122 16.0534 29.1122 16.0013C29.1122 15.9485 29.2633 15.9059 29.449 15.9059C29.6354 15.9059 29.7859 15.9485 29.7859 16.0013C29.7859 16.0534 29.6354 16.0959 29.449 16.0959Z" fill="#EDEDED"/>
<path d="M29.449 16.0958C29.2633 16.0958 29.1122 16.0533 29.1122 16.0012V16.2918C29.1122 16.3446 29.2633 16.3872 29.449 16.3872C29.6354 16.3872 29.7859 16.3446 29.7859 16.2918V16.0012C29.7859 16.0533 29.6354 16.0958 29.449 16.0958Z" fill="#B5B5B5"/>
<path d="M25.5541 16.3344C25.3677 16.3344 25.2173 16.2918 25.2173 16.239C25.2173 16.1869 25.3677 16.1443 25.5541 16.1443C25.7398 16.1443 25.8903 16.1869 25.8903 16.239C25.8903 16.2918 25.7398 16.3344 25.5541 16.3344Z" fill="#EDEDED"/>
<path d="M25.5541 16.3344C25.3677 16.3344 25.2173 16.2919 25.2173 16.239V16.5296C25.2173 16.5825 25.3677 16.6251 25.5541 16.6251C25.7398 16.6251 25.8903 16.5825 25.8903 16.5296V16.239C25.8903 16.2919 25.7398 16.3344 25.5541 16.3344Z" fill="#B5B5B5"/>
<path d="M26.9485 16.3344C26.7629 16.3344 26.6117 16.2918 26.6117 16.239C26.6117 16.1869 26.7629 16.1443 26.9485 16.1443C27.1342 16.1443 27.2854 16.1869 27.2854 16.239C27.2854 16.2918 27.1342 16.3344 26.9485 16.3344Z" fill="#EDEDED"/>
<path d="M26.9485 16.3344C26.7629 16.3344 26.6117 16.2919 26.6117 16.239V16.5296C26.6117 16.5825 26.7629 16.6251 26.9485 16.6251C27.1342 16.6251 27.2854 16.5825 27.2854 16.5296V16.239C27.2854 16.2919 27.1342 16.3344 26.9485 16.3344Z" fill="#B5B5B5"/>
<path d="M28.343 16.3344C28.1573 16.3344 28.0069 16.2918 28.0069 16.239C28.0069 16.1869 28.1573 16.1443 28.343 16.1443C28.5294 16.1443 28.6799 16.1869 28.6799 16.239C28.6799 16.2918 28.5294 16.3344 28.343 16.3344Z" fill="#EDEDED"/>
<path d="M28.343 16.3344C28.1573 16.3344 28.0069 16.2919 28.0069 16.239V16.5296C28.0069 16.5825 28.1573 16.6251 28.343 16.6251C28.5294 16.6251 28.6799 16.5825 28.6799 16.5296V16.239C28.6799 16.2919 28.5294 16.3344 28.343 16.3344Z" fill="#B5B5B5"/>
<path d="M26.9456 15.1162C25.1395 15.1162 23.6753 14.9246 23.6753 14.6883C23.6753 14.452 25.1395 14.2604 26.9456 14.2604C28.7525 14.2604 30.2167 14.452 30.2167 14.6883C30.2167 14.9246 28.7525 15.1162 26.9456 15.1162Z" fill="#6C698B"/>
<path d="M26.9456 15.1161C25.1395 15.1161 23.6753 14.9246 23.6753 14.6882V15.9968C23.6753 16.2331 25.1395 16.4246 26.9456 16.4246C28.7525 16.4246 30.2167 16.2331 30.2167 15.9968V14.6882C30.2167 14.9246 28.7525 15.1161 26.9456 15.1161Z" fill="#1822AB"/>
<path d="M24.4474 14.4505C24.261 14.4505 24.1105 14.408 24.1105 14.3558C24.1105 14.303 24.261 14.2604 24.4474 14.2604C24.6331 14.2604 24.7835 14.303 24.7835 14.3558C24.7835 14.408 24.6331 14.4505 24.4474 14.4505Z" fill="#EDEDED"/>
<path d="M24.4474 14.4505C24.261 14.4505 24.1105 14.4079 24.1105 14.3558V14.6465C24.1105 14.6986 24.261 14.7411 24.4474 14.7411C24.6331 14.7411 24.7835 14.6986 24.7835 14.6465V14.3558C24.7835 14.4079 24.6331 14.4505 24.4474 14.4505Z" fill="#B5B5B5"/>
<path d="M29.4498 14.4505C29.2641 14.4505 29.1129 14.408 29.1129 14.3558C29.1129 14.303 29.2641 14.2604 29.4498 14.2604C29.6354 14.2604 29.7866 14.303 29.7866 14.3558C29.7866 14.408 29.6354 14.4505 29.4498 14.4505Z" fill="#EDEDED"/>
<path d="M29.4498 14.4505C29.2641 14.4505 29.1129 14.4079 29.1129 14.3558V14.6465C29.1129 14.6986 29.2641 14.7411 29.4498 14.7411C29.6354 14.7411 29.7866 14.6986 29.7866 14.6465V14.3558C29.7866 14.4079 29.6354 14.4505 29.4498 14.4505Z" fill="#B5B5B5"/>
<path d="M25.5519 14.6912C25.3655 14.6912 25.2151 14.6486 25.2151 14.5965C25.2151 14.5437 25.3655 14.5011 25.5519 14.5011C25.7376 14.5011 25.8881 14.5437 25.8881 14.5965C25.8881 14.6486 25.7376 14.6912 25.5519 14.6912Z" fill="#EDEDED"/>
<path d="M25.5519 14.6912C25.3655 14.6912 25.2151 14.6487 25.2151 14.5966V14.8872C25.2151 14.94 25.3655 14.9826 25.5519 14.9826C25.7376 14.9826 25.8881 14.94 25.8881 14.8872V14.5966C25.8881 14.6487 25.7376 14.6912 25.5519 14.6912Z" fill="#B5B5B5"/>
<path d="M26.9478 14.6912C26.7621 14.6912 26.611 14.6486 26.611 14.5965C26.611 14.5437 26.7621 14.5011 26.9478 14.5011C27.1335 14.5011 27.2847 14.5437 27.2847 14.5965C27.2847 14.6486 27.1335 14.6912 26.9478 14.6912Z" fill="#EDEDED"/>
<path d="M26.9478 14.6912C26.7621 14.6912 26.611 14.6487 26.611 14.5966V14.8872C26.611 14.94 26.7621 14.9826 26.9478 14.9826C27.1335 14.9826 27.2847 14.94 27.2847 14.8872V14.5966C27.2847 14.6487 27.1335 14.6912 26.9478 14.6912Z" fill="#B5B5B5"/>
<path d="M28.3423 14.6912C28.1566 14.6912 28.0061 14.6486 28.0061 14.5965C28.0061 14.5437 28.1566 14.5011 28.3423 14.5011C28.5287 14.5011 28.6791 14.5437 28.6791 14.5965C28.6791 14.6486 28.5287 14.6912 28.3423 14.6912Z" fill="#EDEDED"/>
<path d="M28.3423 14.6912C28.1566 14.6912 28.0061 14.6487 28.0061 14.5966V14.8872C28.0061 14.94 28.1566 14.9826 28.3423 14.9826C28.5287 14.9826 28.6791 14.94 28.6791 14.8872V14.5966C28.6791 14.6487 28.5287 14.6912 28.3423 14.6912Z" fill="#B5B5B5"/>
<path d="M26.9464 51.4911C25.1402 51.4911 23.6761 51.2996 23.6761 51.0633C23.6761 50.8269 25.1402 50.6354 26.9464 50.6354C28.7533 50.6354 30.2174 50.8269 30.2174 51.0633C30.2174 51.2996 28.7533 51.4911 26.9464 51.4911Z" fill="#1822AB"/>
<path d="M26.9464 51.4911C25.1402 51.4911 23.6761 51.2996 23.6761 51.0632V52.3718C23.6761 52.6081 25.1402 52.7997 26.9464 52.7997C28.7533 52.7997 30.2174 52.6081 30.2174 52.3718V51.0632C30.2174 51.2996 28.7533 51.4911 26.9464 51.4911Z" fill="#0E168A"/>
<path d="M26.9485 50.0028C25.1424 50.0028 23.6782 49.8112 23.6782 49.5749C23.6782 49.3386 25.1424 49.147 26.9485 49.147C28.7547 49.147 30.2196 49.3386 30.2196 49.5749C30.2196 49.8112 28.7547 50.0028 26.9485 50.0028Z" fill="#1822AB"/>
<path d="M26.9485 50.0028C25.1424 50.0028 23.6782 49.8113 23.6782 49.575V50.8835C23.6782 51.1199 25.1424 51.3114 26.9485 51.3114C28.7547 51.3114 30.2196 51.1199 30.2196 50.8835V49.575C30.2196 49.8113 28.7547 50.0028 26.9485 50.0028Z" fill="#0E168A"/>
<path d="M26.9486 48.6934C25.6738 48.6934 24.6404 48.5584 24.6404 48.3911C24.6404 48.2245 25.6738 48.0894 26.9486 48.0894C28.2241 48.0894 29.2575 48.2245 29.2575 48.3911C29.2575 48.5584 28.2241 48.6934 26.9486 48.6934Z" fill="#1822AB"/>
<path d="M26.9486 48.6934C25.6738 48.6934 24.6404 48.5584 24.6404 48.3911V49.315C24.6404 49.4816 25.6738 49.6174 26.9486 49.6174C28.2241 49.6174 29.2575 49.4816 29.2575 49.315V48.3911C29.2575 48.5584 28.2241 48.6934 26.9486 48.6934Z" fill="#0E168A"/>
<path d="M26.9486 47.9191C25.6738 47.9191 24.6404 47.7841 24.6404 47.6175C24.6404 47.4502 25.6738 47.3151 26.9486 47.3151C28.2241 47.3151 29.2575 47.4502 29.2575 47.6175C29.2575 47.7841 28.2241 47.9191 26.9486 47.9191Z" fill="#1822AB"/>
<path d="M26.9486 47.9192C25.6738 47.9192 24.6404 47.7842 24.6404 47.6176V48.5408C24.6404 48.7081 25.6738 48.8432 26.9486 48.8432C28.2241 48.8432 29.2575 48.7081 29.2575 48.5408V47.6176C29.2575 47.7842 28.2241 47.9192 26.9486 47.9192Z" fill="#0E168A"/>
<path d="M24.2089 55.6708C24.2089 55.3398 24.4342 55.0513 24.7586 54.9816C25.4257 54.8392 26.5662 54.6257 27.4073 54.6257C28.2491 54.6257 29.3896 54.8392 30.0567 54.9816C30.3811 55.0513 30.6064 55.3398 30.6064 55.6708V60.5814C30.6064 61.0504 30.1653 61.3975 29.7052 61.3065C29.0336 61.1737 28.1155 61.0232 27.4073 61.0232C26.6998 61.0232 25.7816 61.1737 25.1101 61.3065C24.6499 61.3975 24.2089 61.0504 24.2089 60.5814V55.6708Z" fill="#E1D4C8"/>
<path d="M23.814 58.0853C23.814 59.8922 23.6225 61.3564 23.3861 61.3564C23.1498 61.3564 22.9583 59.8922 22.9583 58.0853C22.9583 56.2792 23.1498 54.815 23.3861 54.815C23.6225 54.815 23.814 56.2792 23.814 58.0853Z" fill="#6C698B"/>
<path d="M23.814 58.0853C23.814 59.8922 23.6225 61.3564 23.3861 61.3564H24.6947C24.931 61.3564 25.1226 59.8922 25.1226 58.0853C25.1226 56.2792 24.931 54.815 24.6947 54.815H23.3861C23.6225 54.815 23.814 56.2792 23.814 58.0853Z" fill="#1822AB"/>
<path d="M23.1498 60.5872C23.1498 60.7729 23.1073 60.9241 23.0552 60.9241C23.0023 60.9241 22.9597 60.7729 22.9597 60.5872C22.9597 60.4015 23.0023 60.2504 23.0552 60.2504C23.1073 60.2504 23.1498 60.4015 23.1498 60.5872Z" fill="#EDEDED"/>
<path d="M23.1498 60.5872C23.1498 60.7729 23.1073 60.9241 23.0551 60.9241H23.3458C23.3979 60.9241 23.4404 60.7729 23.4404 60.5872C23.4404 60.4015 23.3979 60.2504 23.3458 60.2504H23.0551C23.1073 60.2504 23.1498 60.4015 23.1498 60.5872Z" fill="#B5B5B5"/>
<path d="M23.1484 55.5849C23.1484 55.7706 23.1058 55.921 23.0537 55.921C23.0008 55.921 22.9583 55.7706 22.9583 55.5849C22.9583 55.3985 23.0008 55.248 23.0537 55.248C23.1058 55.248 23.1484 55.3985 23.1484 55.5849Z" fill="#EDEDED"/>
<path d="M23.1483 55.5849C23.1483 55.7706 23.1058 55.921 23.0536 55.921H23.3443C23.3971 55.921 23.4397 55.7706 23.4397 55.5849C23.4397 55.3985 23.3971 55.248 23.3443 55.248H23.0536C23.1058 55.248 23.1483 55.3985 23.1483 55.5849Z" fill="#B5B5B5"/>
<path d="M23.3891 59.4805C23.3891 59.6662 23.3465 59.8174 23.2944 59.8174C23.2416 59.8174 23.199 59.6662 23.199 59.4805C23.199 59.2949 23.2416 59.1437 23.2944 59.1437C23.3465 59.1437 23.3891 59.2949 23.3891 59.4805Z" fill="#EDEDED"/>
<path d="M23.3891 59.4805C23.3891 59.6662 23.3465 59.8174 23.2944 59.8174H23.585C23.6379 59.8174 23.6804 59.6662 23.6804 59.4805C23.6804 59.2949 23.6379 59.1437 23.585 59.1437H23.2944C23.3465 59.1437 23.3891 59.2949 23.3891 59.4805Z" fill="#B5B5B5"/>
<path d="M23.3898 58.0875C23.3898 58.2732 23.3472 58.4237 23.2951 58.4237C23.2423 58.4237 23.1997 58.2732 23.1997 58.0875C23.1997 57.9011 23.2423 57.7507 23.2951 57.7507C23.3472 57.7507 23.3898 57.9011 23.3898 58.0875Z" fill="#EDEDED"/>
<path d="M23.3898 58.0875C23.3898 58.2732 23.3472 58.4237 23.2951 58.4237H23.5858C23.6386 58.4237 23.6812 58.2732 23.6812 58.0875C23.6812 57.9011 23.6386 57.7507 23.5858 57.7507H23.2951C23.3472 57.7507 23.3898 57.9011 23.3898 58.0875Z" fill="#B5B5B5"/>
<path d="M23.3891 56.691C23.3891 56.8774 23.3465 57.0279 23.2944 57.0279C23.2416 57.0279 23.199 56.8774 23.199 56.691C23.199 56.5053 23.2416 56.3549 23.2944 56.3549C23.3465 56.3549 23.3891 56.5053 23.3891 56.691Z" fill="#EDEDED"/>
<path d="M23.3891 56.691C23.3891 56.8774 23.3465 57.0279 23.2944 57.0279H23.585C23.6379 57.0279 23.6804 56.8774 23.6804 56.691C23.6804 56.5053 23.6379 56.3549 23.585 56.3549H23.2944C23.3465 56.3549 23.3891 56.5053 23.3891 56.691Z" fill="#B5B5B5"/>
<path d="M30.086 58.0853C30.086 59.8922 30.2776 61.3564 30.5139 61.3564C30.7502 61.3564 30.9418 59.8922 30.9418 58.0853C30.9418 56.2792 30.7502 54.815 30.5139 54.815C30.2776 54.815 30.086 56.2792 30.086 58.0853Z" fill="#6C698B"/>
<path d="M30.086 58.0853C30.086 59.8922 30.2776 61.3564 30.5139 61.3564H29.2053C28.969 61.3564 28.7775 59.8922 28.7775 58.0853C28.7775 56.2792 28.969 54.815 29.2053 54.815H30.5139C30.2776 54.815 30.086 56.2792 30.086 58.0853Z" fill="#1822AB"/>
<path d="M30.7495 60.5872C30.7495 60.7729 30.7921 60.9241 30.8449 60.9241C30.897 60.9241 30.9396 60.7729 30.9396 60.5872C30.9396 60.4015 30.897 60.2504 30.8449 60.2504C30.7921 60.2504 30.7495 60.4015 30.7495 60.5872Z" fill="#EDEDED"/>
<path d="M30.7495 60.5872C30.7495 60.7729 30.7921 60.9241 30.8449 60.9241H30.5536C30.5015 60.9241 30.4589 60.7729 30.4589 60.5872C30.4589 60.4015 30.5015 60.2504 30.5536 60.2504H30.8449C30.7921 60.2504 30.7495 60.4015 30.7495 60.5872Z" fill="#B5B5B5"/>
<path d="M30.751 55.5849C30.751 55.7706 30.7935 55.921 30.8464 55.921C30.8985 55.921 30.9411 55.7706 30.9411 55.5849C30.9411 55.3985 30.8985 55.248 30.8464 55.248C30.7935 55.248 30.751 55.3985 30.751 55.5849Z" fill="#EDEDED"/>
<path d="M30.751 55.5849C30.751 55.7706 30.7935 55.921 30.8464 55.921H30.555C30.5029 55.921 30.4603 55.7706 30.4603 55.5849C30.4603 55.3985 30.5029 55.248 30.555 55.248H30.8464C30.7935 55.248 30.751 55.3985 30.751 55.5849Z" fill="#B5B5B5"/>
<path d="M30.5103 59.4805C30.5103 59.6662 30.5528 59.8174 30.6049 59.8174C30.6578 59.8174 30.7003 59.6662 30.7003 59.4805C30.7003 59.2949 30.6578 59.1437 30.6049 59.1437C30.5528 59.1437 30.5103 59.2949 30.5103 59.4805Z" fill="#EDEDED"/>
<path d="M30.5102 59.4805C30.5102 59.6662 30.5528 59.8174 30.6049 59.8174H30.3143C30.2622 59.8174 30.2196 59.6662 30.2196 59.4805C30.2196 59.2949 30.2622 59.1437 30.3143 59.1437H30.6049C30.5528 59.1437 30.5102 59.2949 30.5102 59.4805Z" fill="#B5B5B5"/>
<path d="M30.5095 58.0875C30.5095 58.2732 30.5521 58.4237 30.6042 58.4237C30.657 58.4237 30.6996 58.2732 30.6996 58.0875C30.6996 57.9011 30.657 57.7507 30.6042 57.7507C30.5521 57.7507 30.5095 57.9011 30.5095 58.0875Z" fill="#EDEDED"/>
<path d="M30.5095 58.0875C30.5095 58.2732 30.5521 58.4237 30.6042 58.4237H30.3136C30.2615 58.4237 30.2189 58.2732 30.2189 58.0875C30.2189 57.9011 30.2615 57.7507 30.3136 57.7507H30.6042C30.5521 57.7507 30.5095 57.9011 30.5095 58.0875Z" fill="#B5B5B5"/>
<path d="M30.5103 56.691C30.5103 56.8774 30.5528 57.0279 30.6049 57.0279C30.6578 57.0279 30.7003 56.8774 30.7003 56.691C30.7003 56.5053 30.6578 56.3549 30.6049 56.3549C30.5528 56.3549 30.5103 56.5053 30.5103 56.691Z" fill="#EDEDED"/>
<path d="M30.5102 56.691C30.5102 56.8774 30.5528 57.0279 30.6049 57.0279H30.3143C30.2622 57.0279 30.2196 56.8774 30.2196 56.691C30.2196 56.5053 30.2622 56.3549 30.3143 56.3549H30.6049C30.5528 56.3549 30.5102 56.5053 30.5102 56.691Z" fill="#B5B5B5"/>
<path d="M28.6359 11.3718C28.6359 11.5428 27.8689 11.6815 26.9236 11.6815C25.9776 11.6815 25.2114 11.5428 25.2114 11.3718V12.6128C25.2114 12.7838 25.9776 12.9232 26.9236 12.9232C27.8689 12.9232 28.6359 12.7838 28.6359 12.6128V11.3718Z" fill="#B5B5B5"/>
<path d="M26.9236 11.6814C27.8689 11.6814 28.6359 11.5427 28.6359 11.3717C28.6359 11.2 27.8689 11.0612 26.9236 11.0612C25.9776 11.0612 25.2114 11.2 25.2114 11.3717C25.2114 11.5427 25.9776 11.6814 26.9236 11.6814Z" fill="#F2F2F2"/>
<path d="M28.0113 10.535C28.0113 10.6451 27.5181 10.7346 26.9104 10.7346C26.302 10.7346 25.8095 10.6451 25.8095 10.535V11.3335C25.8095 11.4436 26.302 11.5324 26.9104 11.5324C27.5181 11.5324 28.0113 11.4436 28.0113 11.3335V10.535Z" fill="#B5B5B5"/>
<path d="M26.9104 10.7346C27.5181 10.7346 28.0113 10.6451 28.0113 10.535C28.0113 10.425 27.5181 10.3354 26.9104 10.3354C26.302 10.3354 25.8095 10.425 25.8095 10.535C25.8095 10.6451 26.302 10.7346 26.9104 10.7346Z" fill="#F2F2F2"/>
<path d="M27.2458 8.0918C27.2458 8.15712 27.1394 8.20996 26.9265 8.20996C26.7401 8.20996 26.6073 8.15712 26.6073 8.0918L26.2748 10.5592C26.2748 10.6245 26.5662 10.6774 26.9265 10.6774C27.2869 10.6774 27.5782 10.6245 27.5782 10.5592L27.2458 8.0918Z" fill="#B5B5B5"/>
<path d="M26.9266 8.20992C27.1394 8.20992 27.2458 8.15707 27.2458 8.09176C27.2458 8.02644 27.1394 7.97363 26.9266 7.97363C26.7401 7.97363 26.6073 8.02644 26.6073 8.09176C26.6073 8.15707 26.7401 8.20992 26.9266 8.20992Z" fill="#F2F2F2"/>
<path d="M27.0197 8.5484C29.1316 8.5484 30.8436 6.83644 30.8436 4.7246C30.8436 2.61276 29.1316 0.900757 27.0197 0.900757C24.9079 0.900757 23.1959 2.61276 23.1959 4.7246C23.1959 6.83644 24.9079 8.5484 27.0197 8.5484Z" fill="#E0D7CF" stroke="black" stroke-width="0.192393"/>
<path d="M27.019 5.27667C27.2979 5.27667 27.524 5.05054 27.524 4.77162C27.524 4.49269 27.2979 4.2666 27.019 4.2666C26.7401 4.2666 26.514 4.49269 26.514 4.77162C26.514 5.05054 26.7401 5.27667 27.019 5.27667Z" fill="black"/>
<path d="M27.1952 5.76678L26.2792 1.83521L27.3082 5.73887C27.317 5.7741 27.2913 5.81006 27.2546 5.81153C27.2267 5.813 27.2018 5.79394 27.1952 5.76678Z" fill="black" stroke="black" stroke-width="0.0961971" stroke-linecap="round" stroke-linejoin="round"/>
</svg>
