<svg width="67" height="31" viewBox="0 0 67 31" fill="none" xmlns="http://www.w3.org/2000/svg">
<path d="M3.9937 30.0162V1.33008H14.4073V30.0162H3.9937Z" fill="url(#paint0_linear_1912_8873)"/>
<path fill-rule="evenodd" clip-rule="evenodd" d="M23.0077 4.37216L14.6649 9.56145C14.3715 9.74397 14.1931 10.065 14.1931 10.4106L14.1931 18.8392C14.1931 19.1847 14.3715 19.5058 14.6649 19.6883L23.0077 24.8776L23.0077 4.37216Z" fill="url(#paint1_linear_1912_8873)"/>
<g filter="url(#filter0_f_1912_8873)">
<path fill-rule="evenodd" clip-rule="evenodd" d="M22.9801 6.2651L14.7688 11.2996V11.6081L22.9801 7.01111V6.2651Z" fill="#AAAAAA" fill-opacity="0.6"/>
<path d="M22.9801 6.13361L14.7688 11.2152V11.2996L22.9801 6.2651V6.13361Z" fill="#AAAAAA" fill-opacity="0.4"/>
<path fill-rule="evenodd" clip-rule="evenodd" d="M14.7688 15.3631V14.3128L22.9801 17.219V19.416L14.7688 15.3631Z" fill="#AAAAAA" fill-opacity="0.6"/>
<path d="M14.7688 15.7802L22.9801 20.3769V19.416L14.7688 15.3631V15.7802Z" fill="#AAAAAA" fill-opacity="0.3"/>
<path fill-rule="evenodd" clip-rule="evenodd" d="M14.7688 12.3203V11.6081L22.9801 7.01111V10.6412L14.7688 12.3203Z" fill="#AAAAAA" fill-opacity="0.6"/>
<path d="M14.7688 12.8453H22.9801V10.6412L14.7688 12.3203V12.8453Z" fill="#AAAAAA" fill-opacity="0.8"/>
<path fill-rule="evenodd" clip-rule="evenodd" d="M14.7688 14.3128L22.9801 17.219V13.5481L14.7688 13.1466V14.3128Z" fill="#AAAAAA" fill-opacity="0.6"/>
<path d="M22.9801 12.8453H14.7688V13.0325V13.1466L22.9801 13.5481V13.0325V12.8453Z" fill="#AAAAAA" fill-opacity="0.8"/>
</g>
<path d="M23.0077 24.8776V4.37213L24.4854 7.27842V22.1732L23.0077 24.8776Z" fill="#4F4F4F"/>
<path d="M24.2226 26.3167V4.04376H32.2776V26.3167H24.2226Z" fill="url(#paint2_linear_1912_8873)"/>
<path d="M5.82362 0.0419919L12.0186 0.0419922L12.0186 1.33003L5.82362 1.33003L5.82362 0.0419919Z" fill="url(#paint3_linear_1912_8873)"/>
<path d="M32.2776 24.446V5.79749H33.4928V24.446H32.2776Z" fill="url(#paint4_linear_1912_8873)"/>
<path d="M33.4928 27.1351V3.34222H35.9481V27.1351H33.4928Z" fill="url(#paint5_linear_1912_8873)"/>
<path d="M0.140663 22.5062V8.70758H3.9937V22.5062H0.140663Z" fill="url(#paint6_linear_1912_8873)"/>
<rect x="35.9481" y="3.34222" width="22.4914" height="2.45526" fill="#585858"/>
<rect x="35.9481" y="5.79749" width="22.4914" height="2.23407" fill="#858585"/>
<rect x="35.9481" y="10.4868" width="22.4914" height="2.23407" fill="#858585"/>
<rect x="35.9481" y="15.1761" width="22.4914" height="2.23407" fill="#858585"/>
<rect x="35.9481" y="19.8655" width="22.4914" height="2.23407" fill="#858585"/>
<rect x="35.9481" y="24.5548" width="22.4914" height="2.23407" fill="#858585"/>
<rect x="35.9481" y="8.03156" width="22.4914" height="2.45526" fill="#585858"/>
<rect x="35.9481" y="12.7209" width="22.4914" height="2.45526" fill="#585858"/>
<rect x="35.9481" y="17.4102" width="22.4914" height="2.45526" fill="#585858"/>
<rect x="35.9481" y="22.0995" width="22.4914" height="2.45526" fill="#585858"/>
<mask id="mask0_1912_8873" style="mask-type:alpha" maskUnits="userSpaceOnUse" x="58" y="3" width="9" height="24">
<path d="M58.4395 3.34222V3.34222C63.0832 3.34222 66.8477 7.10669 66.8477 11.7504V18.3807C66.8477 23.0244 63.0832 26.7889 58.4395 26.7889V26.7889V3.34222Z" fill="#4F4F4F"/>
</mask>
<g mask="url(#mask0_1912_8873)">
<path d="M58.4395 3.34222V3.34222C63.0832 3.34222 66.8477 7.10669 66.8477 11.7504V18.3807C66.8477 23.0244 63.0832 26.7889 58.4395 26.7889V26.7889V3.34222Z" fill="#4F4F4F"/>
<g filter="url(#filter1_f_1912_8873)">
<path d="M58.4395 4.56396V4.56396C62.5301 4.56396 65.8463 7.88009 65.8463 11.9707V17.5924C65.8463 21.6831 62.5301 24.9992 58.4395 24.9992V24.9992V4.56396Z" fill="#DEDEDE" fill-opacity="0.4"/>
</g>
<g filter="url(#filter2_f_1912_8873)">
<path d="M58.4395 6.50153V6.50153C61.8898 6.50153 64.6868 9.29854 64.6868 12.7488V15.8522C64.6868 19.3025 61.8898 22.0995 58.4395 22.0995V22.0995V6.50153Z" fill="#DEDEDE" fill-opacity="0.6"/>
</g>
<g filter="url(#filter3_f_1912_8873)">
<path d="M58.8474 7.59552H58.9971C61.4362 7.59552 63.4135 9.57282 63.4135 12.0119V12.0119C63.4135 14.451 61.4362 16.4283 58.9971 16.4283H58.8474V7.59552Z" fill="#DEDEDE" fill-opacity="0.8"/>
</g>
</g>
<defs>
<filter id="filter0_f_1912_8873" x="14.2688" y="5.63361" width="9.21133" height="15.2433" filterUnits="userSpaceOnUse" color-interpolation-filters="sRGB">
<feFlood flood-opacity="0" result="BackgroundImageFix"/>
<feBlend mode="normal" in="SourceGraphic" in2="BackgroundImageFix" result="shape"/>
<feGaussianBlur stdDeviation="0.25" result="effect1_foregroundBlur_1912_8873"/>
</filter>
<filter id="filter1_f_1912_8873" x="56.4395" y="2.56396" width="11.4068" height="24.4352" filterUnits="userSpaceOnUse" color-interpolation-filters="sRGB">
<feFlood flood-opacity="0" result="BackgroundImageFix"/>
<feBlend mode="normal" in="SourceGraphic" in2="BackgroundImageFix" result="shape"/>
<feGaussianBlur stdDeviation="1" result="effect1_foregroundBlur_1912_8873"/>
</filter>
<filter id="filter2_f_1912_8873" x="56.4395" y="4.50153" width="10.2473" height="19.598" filterUnits="userSpaceOnUse" color-interpolation-filters="sRGB">
<feFlood flood-opacity="0" result="BackgroundImageFix"/>
<feBlend mode="normal" in="SourceGraphic" in2="BackgroundImageFix" result="shape"/>
<feGaussianBlur stdDeviation="1" result="effect1_foregroundBlur_1912_8873"/>
</filter>
<filter id="filter3_f_1912_8873" x="57.8474" y="6.59552" width="6.56612" height="10.8328" filterUnits="userSpaceOnUse" color-interpolation-filters="sRGB">
<feFlood flood-opacity="0" result="BackgroundImageFix"/>
<feBlend mode="normal" in="SourceGraphic" in2="BackgroundImageFix" result="shape"/>
<feGaussianBlur stdDeviation="0.5" result="effect1_foregroundBlur_1912_8873"/>
</filter>
<linearGradient id="paint0_linear_1912_8873" x1="9.20052" y1="1.33008" x2="9.20052" y2="30.0162" gradientUnits="userSpaceOnUse">
<stop stop-color="#5C5C5C"/>
<stop offset="0.050141" stop-color="#787878"/>
<stop offset="0.215162" stop-color="#9C9C9C"/>
<stop offset="0.281777" stop-color="#C3C3C3"/>
<stop offset="0.422575" stop-color="#C3C3C3"/>
<stop offset="0.510384" stop-color="#9C9C9C"/>
<stop offset="0.652696" stop-color="#787878"/>
<stop offset="1" stop-color="#4F4F4F"/>
</linearGradient>
<linearGradient id="paint1_linear_1912_8873" x1="25.3108" y1="7.87422" x2="17.2948" y2="22.4281" gradientUnits="userSpaceOnUse">
<stop stop-color="#696969"/>
<stop offset="0.702846" stop-color="#9F9F9F"/>
<stop offset="0.842409" stop-color="#777777"/>
<stop offset="1" stop-color="#505050"/>
</linearGradient>
<linearGradient id="paint2_linear_1912_8873" x1="28.2501" y1="4.04376" x2="28.2501" y2="26.3167" gradientUnits="userSpaceOnUse">
<stop stop-color="#5C5C5C"/>
<stop offset="0.050141" stop-color="#787878"/>
<stop offset="0.215162" stop-color="#9C9C9C"/>
<stop offset="0.281777" stop-color="#C3C3C3"/>
<stop offset="0.422575" stop-color="#C3C3C3"/>
<stop offset="0.510384" stop-color="#9C9C9C"/>
<stop offset="0.652696" stop-color="#787878"/>
<stop offset="1" stop-color="#4F4F4F"/>
</linearGradient>
<linearGradient id="paint3_linear_1912_8873" x1="12.0186" y1="0.686011" x2="5.82362" y2="0.686011" gradientUnits="userSpaceOnUse">
<stop stop-color="#5C5C5C"/>
<stop offset="0.050141" stop-color="#787878"/>
<stop offset="0.215162" stop-color="#9C9C9C"/>
<stop offset="0.281777" stop-color="#C3C3C3"/>
<stop offset="0.422575" stop-color="#C3C3C3"/>
<stop offset="0.510384" stop-color="#9C9C9C"/>
<stop offset="0.652696" stop-color="#787878"/>
<stop offset="1" stop-color="#4F4F4F"/>
</linearGradient>
<linearGradient id="paint4_linear_1912_8873" x1="32.8852" y1="5.79749" x2="32.8852" y2="24.446" gradientUnits="userSpaceOnUse">
<stop stop-color="#5C5C5C"/>
<stop offset="0.050141" stop-color="#787878"/>
<stop offset="0.215162" stop-color="#9C9C9C"/>
<stop offset="0.281777" stop-color="#C3C3C3"/>
<stop offset="0.422575" stop-color="#C3C3C3"/>
<stop offset="0.510384" stop-color="#9C9C9C"/>
<stop offset="0.652696" stop-color="#787878"/>
<stop offset="1" stop-color="#4F4F4F"/>
</linearGradient>
<linearGradient id="paint5_linear_1912_8873" x1="34.7205" y1="3.34222" x2="34.7205" y2="27.1351" gradientUnits="userSpaceOnUse">
<stop stop-color="#5C5C5C"/>
<stop offset="0.050141" stop-color="#787878"/>
<stop offset="0.215162" stop-color="#9C9C9C"/>
<stop offset="0.281777" stop-color="#C3C3C3"/>
<stop offset="0.422575" stop-color="#C3C3C3"/>
<stop offset="0.510384" stop-color="#9C9C9C"/>
<stop offset="0.652696" stop-color="#787878"/>
<stop offset="1" stop-color="#4F4F4F"/>
</linearGradient>
<linearGradient id="paint6_linear_1912_8873" x1="2.06718" y1="8.70758" x2="2.06718" y2="22.5062" gradientUnits="userSpaceOnUse">
<stop stop-color="#5C5C5C"/>
<stop offset="0.050141" stop-color="#787878"/>
<stop offset="0.215162" stop-color="#9C9C9C"/>
<stop offset="0.281777" stop-color="#C3C3C3"/>
<stop offset="0.422575" stop-color="#C3C3C3"/>
<stop offset="0.510384" stop-color="#9C9C9C"/>
<stop offset="0.652696" stop-color="#787878"/>
<stop offset="1" stop-color="#4F4F4F"/>
</linearGradient>
</defs>
</svg>
