<svg height="2048" width="2048" xmlns="http://www.w3.org/2000/svg"><path d="m1024.0215 99.355469c-19.3234-.016932-38.64591 7.149111-52.98048 21.550781l-850.10352 850.11133c-28.66915 28.66788-28.536351 77.29502.13281 105.96292l849.97071 849.9648c28.66915 28.6776 77.29378 28.8033 105.96288 0l850.1055-850.0996c28.6691-28.6679 28.5364-77.29696-.1348-105.96484l-849.9726-849.97461c-14.3346-14.33394-33.6571-21.533849-52.9805-21.550781zm-.0645 126.044921 798.6602 798.66601-798.6602 798.6563-798.66012-798.6563zm.045 339.55469-14.7032 10.67187-426.27927 309.45313 168.43945 517.96682h545.08202l168.4395-517.96682zm-.004 61.77539 382.1778 277.43945-145.9766 448.90428h-472.39842l-145.97656-448.90428z" transform="matrix(1.00000018909 0 0 1.00000018909 .00001499425 .00459879149)"/></svg>