<?xml version='1.0' encoding='ASCII' standalone='yes'?>
<svg xmlns="http://www.w3.org/2000/svg" xmlns:xlink="http://www.w3.org/1999/xlink" version="1.1">
  <g transform="translate(-7.5, 7.5) scale(1 1) ">
    <g transform=" rotate(90.000000 45.500000 38.000000)">
      <g transform="translate(0, 0) scale(1 1) "><g clip-path="url(#clip0_53_63)">
<path fill-rule="evenodd" clip-rule="evenodd" d="M45.5 74C57.9264 74 68 63.9264 68 51.5C68 39.0736 57.9264 29 45.5 29C33.0736 29 23 39.0736 23 51.5C23 63.9264 33.0736 74 45.5 74ZM45.5 76C59.031 76 70 65.031 70 51.5C70 37.969 59.031 27 45.5 27C31.969 27 21 37.969 21 51.5C21 65.031 31.969 76 45.5 76Z" fill="black"/>
<path fill-rule="evenodd" clip-rule="evenodd" d="M50.405 53.5895C51.8203 54.474 53.259 55 54.5 55C56.294 55 57.9874 54.438 59.345 53.5895C60.7156 52.7329 61.67 51.6324 62.0715 50.6286L63.9285 51.3714C63.33 52.8676 62.0344 54.2671 60.405 55.2855C58.7626 56.312 56.706 57 54.5 57C52.741 57 50.9297 56.276 49.345 55.2855C47.7476 54.2872 46.2883 52.9611 45.2191 51.6247L46.7809 50.3753C47.7117 51.5389 49.0024 52.7128 50.405 53.5895Z" fill="black"/>
<path fill-rule="evenodd" clip-rule="evenodd" d="M45.2191 51.6247C43.273 49.1921 40.5305 47 37.5 47C33.7616 47 30.7659 48.8647 29.9487 51.3162L28.0513 50.6838C29.2341 47.1353 33.2384 45 37.5 45C41.4695 45 44.727 47.8079 46.7809 50.3753L45.2191 51.6247Z" fill="black"/>
<path fill-rule="evenodd" clip-rule="evenodd" d="M46 0L46 27H45L45 4.37112e-08L46 0Z" fill="black"/>
</g>
<defs>
<clipPath id="clip0_53_63">
<rect width="91" height="76" fill="white"/>
</clipPath>
</defs>
</g>
    </g>
  </g>
</svg>
