<svg height="2048" width="2048" xmlns="http://www.w3.org/2000/svg"><path d="m1024.0215 99.355469c-19.3234-.016932-38.64591 7.149111-52.98048 21.550781l-850.10352 850.11133c-28.66915 28.66788-28.536351 77.29502.13281 105.96292l849.97071 849.9648c28.66915 28.6776 77.29378 28.8033 105.96288 0l850.1055-850.0996c28.6691-28.6679 28.5364-77.29696-.1348-105.96484l-849.9726-849.97461c-14.3346-14.33394-33.6571-21.533849-52.9805-21.550781zm-.0645 126.044921 798.6602 798.66601-798.6602 798.6563-798.66012-798.6563zm-21.8027 329.82031c0 .00968-9.65727 1.83789-9.66211 1.83789-.00997 0-7.90826 5.32227-7.91407 5.32227-.00996.00967-5.49711 8.12695-5.50195 8.12695 0 .00968-1.85941 9.67578-1.86328 9.67578v396.85157h-397.02539l-.06641-.07813c0 .00968-9.61821 2.12891-9.62304 2.12891-.00997.00967-7.90727 5.32226-7.91211 5.32226l.00781-.09765c-.00997.00967-5.49712 8.12695-5.50195 8.12695-.00997 0-1.86137 9.6758-1.86524 9.6758v43.4707s1.84827 9.7819 1.91406 9.8496c0 .0097 5.47852 7.9336 5.47852 7.9336.01006.0097 7.95705 5.3223 7.95898 5.3223.00997.0096 9.65629 2.1269 9.66016 2.1269h396.97852v396.7852l-.0625-.0586c0 .0096 1.91599 9.8496 1.91406 9.8496 0 .0097 5.47656 7.9336 5.47656 7.9336.01006.0096 7.959 5.3203 7.96094 5.3203 0 0 9.59054 2.0321 9.66214 2.1289l43.4609-.0098c.011 0 9.8463-2.0312 9.8516-2.0312 0 0 7.9082-5.3203 7.914-5.3203.01-.0097 5.4708-7.9356 5.4766-7.9356 0 0 1.8867-9.8203 1.8906-9.8203v-396.8027h396.8789c.0111.0096 9.8467-2.0313 9.8516-2.0313.01 0 7.9092-5.3222 7.914-5.3222.01-.0097 5.4708-7.9336 5.4766-7.9336 0 0 1.8858-9.8204 1.8906-9.8204v-43.4609c0-.0097-1.8779-9.57902-1.875-9.67577-.0099-.00968-5.4498-8.12695-5.5175-8.12695-.01-.00968-7.9581-5.32032-7.961-5.32032 0 .00968-9.8194-2.12995-9.8242-2.0332h-396.8379v-396.8418c0-.00967-1.8779-9.57707-1.875-9.67383-.01-.00967-5.4492-8.1289-5.4492-8.1289-.01-.00968-7.9571-5.32031-7.959-5.32031-.01 0-9.8474-1.93555-9.8516-1.93555z" transform="matrix(1.00000018909 0 0 1.00000018909 .00001499425 .00459879149)"/></svg>