<svg width="36" height="50" viewBox="0 0 36 50" fill="none" xmlns="http://www.w3.org/2000/svg">
<path d="M35.2113 17.6056C35.2113 32.3944 19.7183 50 17.6056 50C15.493 50 0 32.3944 0 17.6056C0 7.88231 7.88231 0 17.6056 0C27.329 0 35.2113 7.88231 35.2113 17.6056Z" fill="url(#paint0_linear_102_3300)"/>
<path fill-rule="evenodd" clip-rule="evenodd" d="M0.0931396 15.7836C1.00486 6.91638 8.49754 0 17.6056 0C27.0357 0 34.7341 7.41403 35.1899 16.7311C31.1585 21.7715 24.9563 25 18 25C10.6171 25 4.08359 21.3633 0.0931396 15.7836Z" fill="url(#paint1_radial_102_3300)"/>
<path d="M34.4613 17.6056C34.4613 24.7754 30.6884 32.7212 26.5753 38.9346C24.5278 42.0277 22.4183 44.6578 20.6985 46.5073C19.8373 47.4336 19.0846 48.1524 18.4947 48.6334C18.1986 48.8748 17.9583 49.0442 17.7764 49.1492C17.6946 49.1964 17.6388 49.2222 17.6056 49.2361C17.5724 49.2222 17.5166 49.1964 17.4348 49.1492C17.253 49.0442 17.0126 48.8748 16.7165 48.6334C16.1267 48.1524 15.374 47.4336 14.5127 46.5073C12.793 44.6578 10.6835 42.0277 8.63595 38.9346C4.52286 32.7212 0.75 24.7754 0.75 17.6056C0.75 8.29653 8.29652 0.75 17.6056 0.75C26.9147 0.75 34.4613 8.29653 34.4613 17.6056Z" stroke="url(#paint2_linear_102_3300)" stroke-width="1.5"/>
<circle cx="17.5" cy="17.5" r="13.5" fill="url(#paint3_radial_102_3300)"/>
<circle cx="17.5" cy="17.5" r="13" stroke="url(#paint4_linear_102_3300)"/>
<circle cx="17.5001" cy="17.5" r="13.4" transform="rotate(17.2793 17.5001 17.5)" stroke="url(#paint5_linear_102_3300)" stroke-width="0.2"/>
<mask id="path-7-inside-1_102_3300" fill="white">
<path fill-rule="evenodd" clip-rule="evenodd" d="M19.9065 8.80189C20.4508 8.30071 21.1701 8 21.9478 8C23.6391 8 25 9.4033 25 11.0873C25 12.8314 23.6391 14.2347 21.9478 14.2347C20.8202 14.2347 19.8287 13.5731 19.3038 12.6309C19.051 12.7512 18.7594 12.8113 18.4678 12.8113C17.904 12.8113 17.3986 12.5908 17.0097 12.25C16.7959 12.3502 16.5432 12.4104 16.2904 12.4104C15.7849 12.4104 15.3378 12.1899 15.0073 11.8691C14.8129 12.0295 14.5602 12.1097 14.3074 12.1097C14.0353 12.1097 13.7825 12.0094 13.5881 11.8491C13.452 12.0696 13.2382 12.2099 12.966 12.2099C12.5577 12.2099 12.2272 11.8691 12.2272 11.4481C12.2272 11.0271 12.5577 10.6863 12.966 10.6863C13.0243 10.6863 13.1021 10.7064 13.1604 10.7264C13.2576 10.1651 13.7436 9.7441 14.3074 9.7441C14.3905 9.7441 14.4593 9.75873 14.5382 9.77549C14.5517 9.77835 14.5654 9.78127 14.5796 9.7842C14.8518 9.12264 15.5128 8.64151 16.271 8.64151C16.5237 8.64151 16.7764 8.70165 16.9903 8.80189C17.3791 8.46108 17.8846 8.24057 18.4484 8.24057C19.0122 8.24057 19.5176 8.46108 19.9065 8.80189ZM13.7631 19.2115L13.5492 12.8514C13.5492 12.6108 13.3548 12.4304 13.1215 12.4304H12.305C12.0717 12.4304 11.8773 12.6108 11.8773 12.8514L11.6245 20.8101H9.64156C9.29162 20.8101 9 21.1108 9 21.4717V25.02H11.4885H11.8578H12.0522V19.8731C12.0522 19.5122 12.3439 19.2115 12.6938 19.2115H13.7631ZM23.2503 19.7877H21.7339L21.5784 15.7582C21.5784 15.5578 21.4034 15.3974 21.209 15.3974H20.4119C20.2175 15.3974 20.062 15.5578 20.0425 15.7582L19.887 19.7877H19.0899L18.9344 15.7582C18.9344 15.5578 18.7594 15.3974 18.565 15.3974H17.7679C17.5735 15.3974 17.418 15.5578 17.3985 15.7582L17.243 19.7877H16.4654L16.3876 15.7783C16.3876 15.5778 16.2126 15.4174 16.0182 15.4174H15.2211C15.0267 15.4174 14.8712 15.5778 14.8518 15.7783L14.6962 19.8078H13.0049C12.6549 19.8078 12.3828 20.1085 12.3828 20.4493V25.02H23.8724V20.4493C23.8919 20.0884 23.6002 19.7877 23.2503 19.7877ZM15.3378 22.5141C15.3378 22.6946 15.2017 22.8349 15.0267 22.8349C14.8518 22.8349 14.7157 22.6946 14.7157 22.5141V21.5519C14.7157 21.3715 14.8518 21.2311 15.0267 21.2311C15.2017 21.2311 15.3378 21.3715 15.3378 21.5519V22.5141ZM16.8931 22.5141C16.8931 22.6946 16.757 22.8349 16.582 22.8349C16.4071 22.8349 16.271 22.6946 16.271 22.5141V21.5519C16.271 21.3715 16.4071 21.2311 16.582 21.2311C16.757 21.2311 16.8931 21.3715 16.8931 21.5519V22.5141ZM18.4484 22.5141C18.4484 22.6946 18.3123 22.8349 18.1373 22.8349C17.9623 22.8349 17.8263 22.6946 17.8263 22.5141V21.5519C17.8263 21.3715 17.9623 21.2311 18.1373 21.2311C18.3123 21.2311 18.4484 21.3715 18.4484 21.5519V22.5141ZM20.0036 22.5141C20.0036 22.6946 19.8676 22.8349 19.6926 22.8349C19.5176 22.8349 19.3815 22.6946 19.3815 22.5141V21.5519C19.3815 21.3715 19.5176 21.2311 19.6926 21.2311C19.8676 21.2311 20.0036 21.3715 20.0036 21.5519V22.5141ZM21.5589 22.5141C21.5589 22.6946 21.4228 22.8349 21.2479 22.8349C21.0729 22.8349 20.9368 22.6946 20.9368 22.5141V21.5519C20.9368 21.3715 21.0729 21.2311 21.2479 21.2311C21.4228 21.2311 21.5589 21.3715 21.5589 21.5519V22.5141Z"/>
</mask>
<path fill-rule="evenodd" clip-rule="evenodd" d="M19.9065 8.80189C20.4508 8.30071 21.1701 8 21.9478 8C23.6391 8 25 9.4033 25 11.0873C25 12.8314 23.6391 14.2347 21.9478 14.2347C20.8202 14.2347 19.8287 13.5731 19.3038 12.6309C19.051 12.7512 18.7594 12.8113 18.4678 12.8113C17.904 12.8113 17.3986 12.5908 17.0097 12.25C16.7959 12.3502 16.5432 12.4104 16.2904 12.4104C15.7849 12.4104 15.3378 12.1899 15.0073 11.8691C14.8129 12.0295 14.5602 12.1097 14.3074 12.1097C14.0353 12.1097 13.7825 12.0094 13.5881 11.8491C13.452 12.0696 13.2382 12.2099 12.966 12.2099C12.5577 12.2099 12.2272 11.8691 12.2272 11.4481C12.2272 11.0271 12.5577 10.6863 12.966 10.6863C13.0243 10.6863 13.1021 10.7064 13.1604 10.7264C13.2576 10.1651 13.7436 9.7441 14.3074 9.7441C14.3905 9.7441 14.4593 9.75873 14.5382 9.77549C14.5517 9.77835 14.5654 9.78127 14.5796 9.7842C14.8518 9.12264 15.5128 8.64151 16.271 8.64151C16.5237 8.64151 16.7764 8.70165 16.9903 8.80189C17.3791 8.46108 17.8846 8.24057 18.4484 8.24057C19.0122 8.24057 19.5176 8.46108 19.9065 8.80189ZM13.7631 19.2115L13.5492 12.8514C13.5492 12.6108 13.3548 12.4304 13.1215 12.4304H12.305C12.0717 12.4304 11.8773 12.6108 11.8773 12.8514L11.6245 20.8101H9.64156C9.29162 20.8101 9 21.1108 9 21.4717V25.02H11.4885H11.8578H12.0522V19.8731C12.0522 19.5122 12.3439 19.2115 12.6938 19.2115H13.7631ZM23.2503 19.7877H21.7339L21.5784 15.7582C21.5784 15.5578 21.4034 15.3974 21.209 15.3974H20.4119C20.2175 15.3974 20.062 15.5578 20.0425 15.7582L19.887 19.7877H19.0899L18.9344 15.7582C18.9344 15.5578 18.7594 15.3974 18.565 15.3974H17.7679C17.5735 15.3974 17.418 15.5578 17.3985 15.7582L17.243 19.7877H16.4654L16.3876 15.7783C16.3876 15.5778 16.2126 15.4174 16.0182 15.4174H15.2211C15.0267 15.4174 14.8712 15.5778 14.8518 15.7783L14.6962 19.8078H13.0049C12.6549 19.8078 12.3828 20.1085 12.3828 20.4493V25.02H23.8724V20.4493C23.8919 20.0884 23.6002 19.7877 23.2503 19.7877ZM15.3378 22.5141C15.3378 22.6946 15.2017 22.8349 15.0267 22.8349C14.8518 22.8349 14.7157 22.6946 14.7157 22.5141V21.5519C14.7157 21.3715 14.8518 21.2311 15.0267 21.2311C15.2017 21.2311 15.3378 21.3715 15.3378 21.5519V22.5141ZM16.8931 22.5141C16.8931 22.6946 16.757 22.8349 16.582 22.8349C16.4071 22.8349 16.271 22.6946 16.271 22.5141V21.5519C16.271 21.3715 16.4071 21.2311 16.582 21.2311C16.757 21.2311 16.8931 21.3715 16.8931 21.5519V22.5141ZM18.4484 22.5141C18.4484 22.6946 18.3123 22.8349 18.1373 22.8349C17.9623 22.8349 17.8263 22.6946 17.8263 22.5141V21.5519C17.8263 21.3715 17.9623 21.2311 18.1373 21.2311C18.3123 21.2311 18.4484 21.3715 18.4484 21.5519V22.5141ZM20.0036 22.5141C20.0036 22.6946 19.8676 22.8349 19.6926 22.8349C19.5176 22.8349 19.3815 22.6946 19.3815 22.5141V21.5519C19.3815 21.3715 19.5176 21.2311 19.6926 21.2311C19.8676 21.2311 20.0036 21.3715 20.0036 21.5519V22.5141ZM21.5589 22.5141C21.5589 22.6946 21.4228 22.8349 21.2479 22.8349C21.0729 22.8349 20.9368 22.6946 20.9368 22.5141V21.5519C20.9368 21.3715 21.0729 21.2311 21.2479 21.2311C21.4228 21.2311 21.5589 21.3715 21.5589 21.5519V22.5141Z" fill="url(#paint6_radial_102_3300)"/>
<path d="M19.9065 8.80189L19.7746 8.95229L19.9097 9.07072L20.0419 8.94902L19.9065 8.80189ZM19.3038 12.6309L19.4785 12.5336L19.3872 12.3697L19.2178 12.4503L19.3038 12.6309ZM17.0097 12.25L17.1416 12.0996L17.0432 12.0134L16.9249 12.0689L17.0097 12.25ZM15.0073 11.8691L15.1466 11.7256L15.0181 11.6009L14.88 11.7148L15.0073 11.8691ZM13.5881 11.8491L13.7154 11.6948L13.5384 11.5488L13.4179 11.744L13.5881 11.8491ZM13.1604 10.7264L13.0954 10.9156L13.3174 10.9919L13.3575 10.7605L13.1604 10.7264ZM14.5382 9.77549L14.5797 9.57985L14.5797 9.57985L14.5382 9.77549ZM14.5796 9.7842L14.5392 9.98008L14.7015 10.0135L14.7646 9.86029L14.5796 9.7842ZM16.9903 8.80189L16.9054 8.98298L17.0238 9.03847L17.1221 8.95229L16.9903 8.80189ZM13.5492 12.8514H13.3491L13.3493 12.8581L13.5492 12.8514ZM13.7631 19.2115V19.4115H13.9699L13.9629 19.2048L13.7631 19.2115ZM11.8773 12.8514L12.0773 12.8578V12.8514H11.8773ZM11.6245 20.8101V21.0101H11.8183L11.8244 20.8165L11.6245 20.8101ZM9 25.02H8.8V25.22H9V25.02ZM12.0522 25.02V25.22H12.2522V25.02H12.0522ZM21.7339 19.7877L21.5341 19.7954L21.5415 19.9877H21.7339V19.7877ZM21.5784 15.7582H21.3782L21.3785 15.766L21.5784 15.7582ZM20.0425 15.7582L19.8431 15.7389L19.8427 15.7505L20.0425 15.7582ZM19.887 19.7877V19.9877H20.0794L20.0869 19.7954L19.887 19.7877ZM19.0899 19.7877L18.8901 19.7954L18.8975 19.9877H19.0899V19.7877ZM18.9344 15.7582H18.7342L18.7345 15.766L18.9344 15.7582ZM17.3985 15.7582L17.1991 15.7389L17.1987 15.7505L17.3985 15.7582ZM17.243 19.7877V19.9877H17.4354L17.4429 19.7954L17.243 19.7877ZM16.4654 19.7877L16.2654 19.7916L16.2692 19.9877H16.4654V19.7877ZM16.3876 15.7783H16.1876L16.1876 15.7822L16.3876 15.7783ZM14.8518 15.7783L14.6524 15.759L14.6519 15.7706L14.8518 15.7783ZM14.6962 19.8078V20.0078H14.8887L14.8961 19.8155L14.6962 19.8078ZM12.3828 25.02H12.1828V25.22H12.3828V25.02ZM23.8724 25.02V25.22H24.0724V25.02H23.8724ZM23.8724 20.4493L23.6724 20.4385V20.4493H23.8724ZM21.9478 7.8C21.1177 7.8 20.3506 8.12113 19.771 8.65475L20.0419 8.94902C20.551 8.48029 21.2226 8.2 21.9478 8.2V7.8ZM25.2 11.0873C25.2 9.29614 23.7529 7.8 21.9478 7.8V8.2C23.5254 8.2 24.8 9.51046 24.8 11.0873H25.2ZM21.9478 14.4347C23.7553 14.4347 25.2 12.936 25.2 11.0873H24.8C24.8 12.7267 23.5229 14.0347 21.9478 14.0347V14.4347ZM19.1291 12.7282C19.6853 13.7266 20.7398 14.4347 21.9478 14.4347V14.0347C20.9006 14.0347 19.9721 13.4196 19.4785 12.5336L19.1291 12.7282ZM18.4678 13.0113C18.7858 13.0113 19.1073 12.9459 19.3897 12.8115L19.2178 12.4503C18.9948 12.5564 18.733 12.6113 18.4678 12.6113V13.0113ZM16.8779 12.4004C17.299 12.7695 17.8502 13.0113 18.4678 13.0113V12.6113C17.9578 12.6113 17.4981 12.4121 17.1416 12.0996L16.8779 12.4004ZM16.2904 12.6104C16.5736 12.6104 16.8552 12.5433 17.0946 12.4311L16.9249 12.0689C16.7366 12.1571 16.5127 12.2104 16.2904 12.2104V12.6104ZM14.868 12.0126C15.2295 12.3635 15.7248 12.6104 16.2904 12.6104V12.2104C15.8451 12.2104 15.4461 12.0162 15.1466 11.7256L14.868 12.0126ZM14.3074 12.3097C14.6008 12.3097 14.9001 12.2168 15.1346 12.0234L14.88 11.7148C14.7257 11.8421 14.5196 11.9097 14.3074 11.9097V12.3097ZM13.4608 12.0033C13.6887 12.1913 13.9859 12.3097 14.3074 12.3097V11.9097C14.0847 11.9097 13.8763 11.8275 13.7154 11.6948L13.4608 12.0033ZM12.966 12.4099C13.3168 12.4099 13.5909 12.2253 13.7583 11.9541L13.4179 11.744C13.3131 11.9138 13.1596 12.0099 12.966 12.0099V12.4099ZM12.0272 11.4481C12.0272 11.9737 12.4415 12.4099 12.966 12.4099V12.0099C12.6739 12.0099 12.4272 11.7645 12.4272 11.4481H12.0272ZM12.966 10.4863C12.4415 10.4863 12.0272 10.9225 12.0272 11.4481H12.4272C12.4272 11.1317 12.6739 10.8863 12.966 10.8863V10.4863ZM13.2254 10.5373C13.1615 10.5153 13.0583 10.4863 12.966 10.4863V10.8863C12.9903 10.8863 13.0427 10.8974 13.0954 10.9156L13.2254 10.5373ZM14.3074 9.5441C13.6428 9.5441 13.0765 10.0386 12.9633 10.6923L13.3575 10.7605C13.4387 10.2916 13.8445 9.9441 14.3074 9.9441V9.5441ZM14.5797 9.57985C14.5025 9.56345 14.4143 9.5441 14.3074 9.5441V9.9441C14.3666 9.9441 14.416 9.954 14.4966 9.97112L14.5797 9.57985ZM14.62 9.58832C14.6065 9.58553 14.5933 9.58273 14.5797 9.57985L14.4966 9.97112C14.51 9.97397 14.5244 9.97701 14.5392 9.98008L14.62 9.58832ZM16.271 8.44151C15.4273 8.44151 14.6959 8.97576 14.3946 9.7081L14.7646 9.86029C15.0076 9.26953 15.5983 8.84151 16.271 8.84151V8.44151ZM17.0752 8.62079C16.8357 8.50857 16.5541 8.44151 16.271 8.44151V8.84151C16.4933 8.84151 16.7171 8.89474 16.9054 8.98298L17.0752 8.62079ZM18.4484 8.04057C17.8308 8.04057 17.2796 8.28239 16.8585 8.65148L17.1221 8.95229C17.4787 8.63978 17.9384 8.44057 18.4484 8.44057V8.04057ZM20.0383 8.65148C19.6172 8.28239 19.066 8.04057 18.4484 8.04057V8.44057C18.9584 8.44057 19.4181 8.63978 19.7746 8.95229L20.0383 8.65148ZM13.3493 12.8581L13.5632 19.2182L13.9629 19.2048L13.7491 12.8447L13.3493 12.8581ZM13.1215 12.6304C13.2508 12.6304 13.3492 12.7276 13.3492 12.8514H13.7492C13.7492 12.4941 13.4588 12.2304 13.1215 12.2304V12.6304ZM12.305 12.6304H13.1215V12.2304H12.305V12.6304ZM12.0773 12.8514C12.0773 12.7276 12.1757 12.6304 12.305 12.6304V12.2304C11.9677 12.2304 11.6773 12.4941 11.6773 12.8514H12.0773ZM11.8244 20.8165L12.0772 12.8578L11.6774 12.8451L11.4246 20.8038L11.8244 20.8165ZM9.64156 21.0101H11.6245V20.6101H9.64156V21.0101ZM9.2 21.4717C9.2 21.2155 9.40782 21.0101 9.64156 21.0101V20.6101C9.17542 20.6101 8.8 21.0062 8.8 21.4717H9.2ZM9.2 25.02V21.4717H8.8V25.02H9.2ZM11.4885 24.82H9V25.22H11.4885V24.82ZM11.8578 24.82H11.4885V25.22H11.8578V24.82ZM12.0522 24.82H11.8578V25.22H12.0522V24.82ZM11.8522 19.8731V25.02H12.2522V19.8731H11.8522ZM12.6938 19.0115C12.2277 19.0115 11.8522 19.4076 11.8522 19.8731H12.2522C12.2522 19.6168 12.4601 19.4115 12.6938 19.4115V19.0115ZM13.7631 19.0115H12.6938V19.4115H13.7631V19.0115ZM21.7339 19.9877H23.2503V19.5877H21.7339V19.9877ZM21.3785 15.766L21.5341 19.7954L21.9338 19.78L21.7782 15.7505L21.3785 15.766ZM21.209 15.5974C21.3012 15.5974 21.3784 15.6763 21.3784 15.7582H21.7784C21.7784 15.4392 21.5056 15.1974 21.209 15.1974V15.5974ZM20.4119 15.5974H21.209V15.1974H20.4119V15.5974ZM20.2416 15.7776C20.2527 15.6631 20.3362 15.5974 20.4119 15.5974V15.1974C20.0988 15.1974 19.8712 15.4524 19.8435 15.7389L20.2416 15.7776ZM20.0869 19.7954L20.2424 15.766L19.8427 15.7505L19.6872 19.78L20.0869 19.7954ZM19.0899 19.9877H19.887V19.5877H19.0899V19.9877ZM18.7345 15.766L18.8901 19.7954L19.2898 19.78L19.1342 15.7505L18.7345 15.766ZM18.565 15.5974C18.6572 15.5974 18.7344 15.6763 18.7344 15.7582H19.1344C19.1344 15.4392 18.8616 15.1974 18.565 15.1974V15.5974ZM17.7679 15.5974H18.565V15.1974H17.7679V15.5974ZM17.5976 15.7776C17.6087 15.6631 17.6922 15.5974 17.7679 15.5974V15.1974C17.4548 15.1974 17.2273 15.4524 17.1995 15.7389L17.5976 15.7776ZM17.4429 19.7954L17.5984 15.766L17.1987 15.7505L17.0432 19.78L17.4429 19.7954ZM16.4654 19.9877H17.243V19.5877H16.4654V19.9877ZM16.1876 15.7822L16.2654 19.7916L16.6653 19.7838L16.5876 15.7744L16.1876 15.7822ZM16.0182 15.6174C16.1105 15.6174 16.1876 15.6964 16.1876 15.7783H16.5876C16.5876 15.4593 16.3148 15.2174 16.0182 15.2174V15.6174ZM15.2211 15.6174H16.0182V15.2174H15.2211V15.6174ZM15.0508 15.7976C15.0619 15.6832 15.1455 15.6174 15.2211 15.6174V15.2174C14.908 15.2174 14.6805 15.4725 14.6527 15.759L15.0508 15.7976ZM14.8961 19.8155L15.0516 15.786L14.6519 15.7706L14.4964 19.8001L14.8961 19.8155ZM13.0049 20.0078H14.6962V19.6078H13.0049V20.0078ZM12.5828 20.4493C12.5828 20.209 12.7751 20.0078 13.0049 20.0078V19.6078C12.5348 19.6078 12.1828 20.008 12.1828 20.4493H12.5828ZM12.5828 25.02V20.4493H12.1828V25.02H12.5828ZM23.8724 24.82H12.3828V25.22H23.8724V24.82ZM23.6724 20.4493V25.02H24.0724V20.4493H23.6724ZM23.2503 19.9877C23.486 19.9877 23.686 20.1926 23.6727 20.4385L24.0721 20.46C24.0978 19.9843 23.7145 19.5877 23.2503 19.5877V19.9877ZM15.0267 23.0349C15.3179 23.0349 15.5378 22.7992 15.5378 22.5141H15.1378C15.1378 22.5899 15.0855 22.6349 15.0267 22.6349V23.0349ZM14.5157 22.5141C14.5157 22.7992 14.7356 23.0349 15.0267 23.0349V22.6349C14.968 22.6349 14.9157 22.5899 14.9157 22.5141H14.5157ZM14.5157 21.5519V22.5141H14.9157V21.5519H14.5157ZM15.0267 21.0311C14.7356 21.0311 14.5157 21.2668 14.5157 21.5519H14.9157C14.9157 21.4761 14.968 21.4311 15.0267 21.4311V21.0311ZM15.5378 21.5519C15.5378 21.2668 15.3179 21.0311 15.0267 21.0311V21.4311C15.0855 21.4311 15.1378 21.4761 15.1378 21.5519H15.5378ZM15.5378 22.5141V21.5519H15.1378V22.5141H15.5378ZM16.582 23.0349C16.8732 23.0349 17.0931 22.7992 17.0931 22.5141H16.6931C16.6931 22.5899 16.6408 22.6349 16.582 22.6349V23.0349ZM16.071 22.5141C16.071 22.7992 16.2909 23.0349 16.582 23.0349V22.6349C16.5233 22.6349 16.471 22.5899 16.471 22.5141H16.071ZM16.071 21.5519V22.5141H16.471V21.5519H16.071ZM16.582 21.0311C16.2909 21.0311 16.071 21.2668 16.071 21.5519H16.471C16.471 21.4761 16.5233 21.4311 16.582 21.4311V21.0311ZM17.0931 21.5519C17.0931 21.2668 16.8732 21.0311 16.582 21.0311V21.4311C16.6408 21.4311 16.6931 21.4761 16.6931 21.5519H17.0931ZM17.0931 22.5141V21.5519H16.6931V22.5141H17.0931ZM18.1373 23.0349C18.4285 23.0349 18.6484 22.7992 18.6484 22.5141H18.2484C18.2484 22.5899 18.1961 22.6349 18.1373 22.6349V23.0349ZM17.6263 22.5141C17.6263 22.7992 17.8461 23.0349 18.1373 23.0349V22.6349C18.0785 22.6349 18.0262 22.5899 18.0262 22.5141H17.6263ZM17.6263 21.5519V22.5141H18.0262V21.5519H17.6263ZM18.1373 21.0311C17.8461 21.0311 17.6263 21.2668 17.6263 21.5519H18.0262C18.0262 21.4761 18.0785 21.4311 18.1373 21.4311V21.0311ZM18.6484 21.5519C18.6484 21.2668 18.4285 21.0311 18.1373 21.0311V21.4311C18.1961 21.4311 18.2484 21.4761 18.2484 21.5519H18.6484ZM18.6484 22.5141V21.5519H18.2484V22.5141H18.6484ZM19.6926 23.0349C19.9838 23.0349 20.2036 22.7992 20.2036 22.5141H19.8036C19.8036 22.5899 19.7514 22.6349 19.6926 22.6349V23.0349ZM19.1815 22.5141C19.1815 22.7992 19.4014 23.0349 19.6926 23.0349V22.6349C19.6338 22.6349 19.5815 22.5899 19.5815 22.5141H19.1815ZM19.1815 21.5519V22.5141H19.5815V21.5519H19.1815ZM19.6926 21.0311C19.4014 21.0311 19.1815 21.2668 19.1815 21.5519H19.5815C19.5815 21.4761 19.6338 21.4311 19.6926 21.4311V21.0311ZM20.2036 21.5519C20.2036 21.2668 19.9838 21.0311 19.6926 21.0311V21.4311C19.7514 21.4311 19.8036 21.4761 19.8036 21.5519H20.2036ZM20.2036 22.5141V21.5519H19.8036V22.5141H20.2036ZM21.2479 23.0349C21.539 23.0349 21.7589 22.7992 21.7589 22.5141H21.3589C21.3589 22.5899 21.3066 22.6349 21.2479 22.6349V23.0349ZM20.7368 22.5141C20.7368 22.7992 20.9567 23.0349 21.2479 23.0349V22.6349C21.1891 22.6349 21.1368 22.5899 21.1368 22.5141H20.7368ZM20.7368 21.5519V22.5141H21.1368V21.5519H20.7368ZM21.2479 21.0311C20.9567 21.0311 20.7368 21.2668 20.7368 21.5519H21.1368C21.1368 21.4761 21.1891 21.4311 21.2479 21.4311V21.0311ZM21.7589 21.5519C21.7589 21.2668 21.539 21.0311 21.2479 21.0311V21.4311C21.3066 21.4311 21.3589 21.4761 21.3589 21.5519H21.7589ZM21.7589 22.5141V21.5519H21.3589V22.5141H21.7589Z" fill="url(#paint7_linear_102_3300)" mask="url(#path-7-inside-1_102_3300)"/>
<defs>
<linearGradient id="paint0_linear_102_3300" x1="17.6056" y1="0" x2="17.6056" y2="50" gradientUnits="userSpaceOnUse">
<stop stop-color="#136F97"/>
<stop offset="0.494415" stop-color="#0C516F"/>
<stop offset="1" stop-color="#136F97"/>
</linearGradient>
<radialGradient id="paint1_radial_102_3300" cx="0" cy="0" r="1" gradientUnits="userSpaceOnUse" gradientTransform="translate(18 0.411765) rotate(90) scale(21.3529)">
<stop stop-color="white"/>
<stop offset="1" stop-color="white" stop-opacity="0"/>
</radialGradient>
<linearGradient id="paint2_linear_102_3300" x1="17.6056" y1="0" x2="17.6056" y2="50" gradientUnits="userSpaceOnUse">
<stop stop-color="#095272"/>
<stop offset="0.489583" stop-color="#0D5473"/>
<stop offset="1" stop-color="#064E6D"/>
</linearGradient>
<radialGradient id="paint3_radial_102_3300" cx="0" cy="0" r="1" gradientUnits="userSpaceOnUse" gradientTransform="translate(17.5 17.5) rotate(90) scale(13.5)">
<stop offset="0.708333" stop-color="white"/>
<stop offset="1" stop-color="#BACDD6"/>
</radialGradient>
<linearGradient id="paint4_linear_102_3300" x1="8" y1="6" x2="27.5" y2="31" gradientUnits="userSpaceOnUse">
<stop offset="0.203125" stop-color="#1B7EA9"/>
<stop offset="0.484375" stop-color="#3A9ECA"/>
<stop offset="0.796875" stop-color="#1C7BA4"/>
</linearGradient>
<linearGradient id="paint5_linear_102_3300" x1="8.00008" y1="5.99999" x2="25.5001" y2="28" gradientUnits="userSpaceOnUse">
<stop stop-color="#0A5372"/>
<stop offset="0.317708" stop-color="#0A5372" stop-opacity="0"/>
<stop offset="0.776042" stop-color="white" stop-opacity="0"/>
<stop offset="1" stop-color="white"/>
</linearGradient>
<radialGradient id="paint6_radial_102_3300" cx="0" cy="0" r="1" gradientUnits="userSpaceOnUse" gradientTransform="translate(21.0064 22.3716) rotate(-125.949) scale(20.4078 20.6192)">
<stop stop-color="#136F97"/>
<stop offset="1" stop-color="#00AEFA"/>
</radialGradient>
<linearGradient id="paint7_linear_102_3300" x1="12" y1="11" x2="25.1954" y2="23.2079" gradientUnits="userSpaceOnUse">
<stop stop-color="#81D8FF"/>
<stop offset="0.265625" stop-color="#66D0FF" stop-opacity="0"/>
<stop offset="0.645833" stop-color="#005981" stop-opacity="0"/>
<stop offset="1" stop-color="#005981"/>
</linearGradient>
</defs>
</svg>
