<svg width="134" height="144" viewBox="0 0 134 144" fill="none" xmlns="http://www.w3.org/2000/svg">
<path d="M118.811 119.63H16.0386C14.3694 119.63 13.0159 118.278 13.0159 116.607V47.0843C13.0159 45.415 14.3694 44.0615 16.0386 44.0615H118.811C120.481 44.0615 121.834 45.415 121.834 47.0843V116.607C121.834 118.278 120.481 119.63 118.811 119.63ZM19.0613 113.584H115.789V50.107H19.0613V113.584Z" fill="black"/>
<path d="M124.857 134.74H9.99319C8.32395 134.74 6.97046 133.388 6.97046 131.717V116.604C6.97046 114.933 8.32395 113.581 9.99319 113.581H124.857C126.526 113.581 127.88 114.933 127.88 116.604V131.717C127.88 133.388 126.526 134.74 124.857 134.74ZM13.0159 128.694H121.834V119.626H13.0159V128.694Z" fill="black"/>
<path d="M124.857 50.1036H9.99319C8.32395 50.1036 6.97046 48.7501 6.97046 47.0808V31.9672C6.97046 30.2979 8.32395 28.9445 9.99319 28.9445H124.857C126.526 28.9445 127.88 30.2979 127.88 31.9672V47.0808C127.88 48.7501 126.526 50.1036 124.857 50.1036ZM13.0159 44.0581H121.834V34.9899H13.0159V44.0581Z" fill="black"/>
<path d="M28.1295 143.812H16.0386C14.3694 143.812 13.0159 142.459 13.0159 140.789V131.721C13.0159 130.05 14.3694 128.698 16.0386 128.698H28.1295C29.7987 128.698 31.1522 130.05 31.1522 131.721V140.789C31.1522 142.459 29.7987 143.812 28.1295 143.812ZM19.0613 137.766H25.1068V134.743H19.0613V137.766Z" fill="black"/>
<path d="M118.811 143.812H106.72C105.051 143.812 103.698 142.459 103.698 140.789V131.721C103.698 130.05 105.051 128.698 106.72 128.698H118.811C120.481 128.698 121.834 130.05 121.834 131.721V140.789C121.834 142.459 120.481 143.812 118.811 143.812ZM109.743 137.766H115.789V134.743H109.743V137.766Z" fill="black"/>
<path d="M16.0387 113.584C15.5772 113.584 15.113 113.478 14.6865 113.266L2.59564 107.22C1.57143 106.706 0.925049 105.662 0.925049 104.516V59.1751C0.925049 58.0295 1.57143 56.9837 2.59564 56.4709L14.6865 50.4254C15.6217 49.9572 16.7363 50.0098 17.6283 50.5577C18.5189 51.1096 19.0614 52.0812 19.0614 53.1297V110.562C19.0614 111.61 18.5189 112.58 17.6283 113.132C17.1425 113.433 16.5906 113.584 16.0387 113.584ZM6.97051 102.647L13.016 105.67V58.0213L6.97051 61.044V102.647Z" fill="black"/>
<path d="M118.812 113.584C118.26 113.584 117.708 113.433 117.222 113.132C116.331 112.58 115.789 111.61 115.789 110.561V53.1297C115.789 52.0811 116.331 51.1095 117.222 50.559C118.114 50.0098 119.23 49.9585 120.164 50.4267L132.255 56.4722C133.279 56.9836 133.925 58.0294 133.925 59.1751V104.516C133.925 105.662 133.279 106.706 132.255 107.22L120.164 113.266C119.737 113.478 119.273 113.584 118.812 113.584ZM121.834 58.0213V105.67L127.88 102.647V61.044L121.834 58.0213Z" fill="black"/>
<path d="M28.1294 28.9479H39.3432V34.9933H28.1294V28.9479Z" fill="black"/>
<path d="M61.8044 28.9479H73.048V34.9933H61.8044V28.9479Z" fill="black"/>
<path d="M95.5068 28.9479H106.721V34.9933H95.5068V28.9479Z" fill="black"/>
<path d="M41.5161 15.9933H26.8329C22.5472 15.9933 19.0615 12.5077 19.0615 8.22058C19.0615 3.93487 22.5472 0.446472 26.8343 0.446472H41.5175C45.8032 0.447822 49.2888 3.93487 49.2888 8.22058C49.2888 12.5077 45.8032 15.9933 41.5161 15.9933ZM26.8343 6.49331C25.8816 6.49331 25.107 7.26789 25.107 8.22058C25.107 9.17193 25.8816 9.94786 26.8343 9.94786H41.5175C42.4688 9.94786 43.2434 9.17328 43.2434 8.22058C43.2434 7.26654 42.4688 6.49196 41.5161 6.49196L26.8343 6.49331Z" fill="black"/>
<path d="M41.5161 25.4933H26.8329C22.5472 25.4933 19.0615 22.0063 19.0615 17.7206C19.0615 13.4349 22.5472 9.94788 26.8343 9.94788H41.5175C45.8032 9.94788 49.2888 13.4349 49.2888 17.7206C49.2888 22.0063 45.8032 25.4933 41.5161 25.4933ZM26.8343 15.9933C25.8816 15.9933 25.107 16.7679 25.107 17.7206C25.107 18.672 25.8816 19.4479 26.8343 19.4479H41.5175C42.4688 19.4479 43.2434 18.672 43.2434 17.7206C43.2434 16.7693 42.4688 15.9933 41.5161 15.9933H26.8343Z" fill="black"/>
<path d="M41.5161 34.9933H26.8329C22.5472 34.9933 19.0615 31.5077 19.0615 27.2206C19.0615 22.9349 22.5472 19.4465 26.8343 19.4465H41.5175C45.8032 19.4478 49.2888 22.9349 49.2888 27.2206C49.2888 31.5077 45.8032 34.9933 41.5161 34.9933ZM26.8343 25.4933C25.8816 25.4933 25.107 26.2679 25.107 27.2206C25.107 28.1733 25.8816 28.9479 26.8343 28.9479H41.5175C42.4688 28.9479 43.2434 28.1733 43.2434 27.2206C43.2434 26.2665 42.4688 25.492 41.5161 25.492L26.8343 25.4933Z" fill="black"/>
<path d="M74.7658 15.9933H60.0826C55.7969 15.9933 52.3113 12.5077 52.3113 8.22058C52.3113 3.93487 55.7969 0.446472 60.084 0.446472H74.7672C79.0529 0.447822 82.5386 3.93487 82.5386 8.22058C82.5386 12.5077 79.0529 15.9933 74.7658 15.9933ZM60.084 6.49331C59.1313 6.49331 58.3567 7.26789 58.3567 8.22058C58.3567 9.17193 59.1313 9.94786 60.084 9.94786H74.7672C75.7186 9.94786 76.4931 9.17328 76.4931 8.22058C76.4931 7.26654 75.7186 6.49196 74.7659 6.49196L60.084 6.49331Z" fill="black"/>
<path d="M74.7658 25.4933H60.0826C55.7969 25.4933 52.3113 22.0063 52.3113 17.7206C52.3113 13.4349 55.7969 9.94788 60.084 9.94788H74.7672C79.0529 9.94788 82.5386 13.4349 82.5386 17.7206C82.5386 22.0063 79.0529 25.4933 74.7658 25.4933ZM60.084 15.9933C59.1313 15.9933 58.3567 16.7679 58.3567 17.7206C58.3567 18.672 59.1313 19.4479 60.084 19.4479H74.7672C75.7186 19.4479 76.4931 18.672 76.4931 17.7206C76.4931 16.7693 75.7186 15.9933 74.7659 15.9933H60.084Z" fill="black"/>
<path d="M74.7658 34.9933H60.0826C55.7969 34.9933 52.3113 31.5077 52.3113 27.2206C52.3113 22.9349 55.7969 19.4465 60.084 19.4465H74.7672C79.0529 19.4478 82.5386 22.9349 82.5386 27.2206C82.5386 31.5077 79.0529 34.9933 74.7658 34.9933ZM60.084 25.4933C59.1313 25.4933 58.3567 26.2679 58.3567 27.2206C58.3567 28.1733 59.1313 28.9479 60.084 28.9479H74.7672C75.7186 28.9479 76.4931 28.1733 76.4931 27.2206C76.4931 26.2665 75.7186 25.492 74.7659 25.492L60.084 25.4933Z" fill="black"/>
<path d="M108.016 15.9933H93.3329C89.0472 15.9933 85.5615 12.5077 85.5615 8.22058C85.5615 3.93487 89.0472 0.446472 93.3343 0.446472H108.017C112.303 0.447822 115.789 3.93487 115.789 8.22058C115.789 12.5077 112.303 15.9933 108.016 15.9933ZM93.3343 6.49331C92.3816 6.49331 91.607 7.26789 91.607 8.22058C91.607 9.17193 92.3816 9.94786 93.3343 9.94786H108.017C108.969 9.94786 109.743 9.17328 109.743 8.22058C109.743 7.26654 108.969 6.49196 108.016 6.49196L93.3343 6.49331Z" fill="black"/>
<path d="M108.016 25.4933H93.3329C89.0472 25.4933 85.5615 22.0063 85.5615 17.7206C85.5615 13.4349 89.0472 9.94788 93.3343 9.94788H108.017C112.303 9.94788 115.789 13.4349 115.789 17.7206C115.789 22.0063 112.303 25.4933 108.016 25.4933ZM93.3343 15.9933C92.3816 15.9933 91.607 16.7679 91.607 17.7206C91.607 18.672 92.3816 19.4479 93.3343 19.4479H108.017C108.969 19.4479 109.743 18.672 109.743 17.7206C109.743 16.7693 108.969 15.9933 108.016 15.9933H93.3343Z" fill="black"/>
<path d="M108.016 34.9933H93.3329C89.0472 34.9933 85.5615 31.5077 85.5615 27.2206C85.5615 22.9349 89.0472 19.4465 93.3343 19.4465H108.017C112.303 19.4478 115.789 22.9349 115.789 27.2206C115.789 31.5077 112.303 34.9933 108.016 34.9933ZM93.3343 25.4933C92.3816 25.4933 91.607 26.2679 91.607 27.2206C91.607 28.1733 92.3816 28.9479 93.3343 28.9479H108.017C108.969 28.9479 109.743 28.1733 109.743 27.2206C109.743 26.2665 108.969 25.492 108.016 25.492L93.3343 25.4933Z" fill="black"/>
<path d="M63.125 67.0909V102H57.875V71.5909H41.4432V102H36.1932V67.0909H63.125ZM100.173 78.4432H94.8551C94.6506 77.3068 94.2699 76.3068 93.7131 75.4432C93.1563 74.5795 92.4744 73.8466 91.6676 73.2443C90.8608 72.642 89.9574 72.1875 88.9574 71.8807C87.9688 71.5739 86.9176 71.4205 85.804 71.4205C83.7926 71.4205 81.9915 71.9261 80.4006 72.9375C78.821 73.9489 77.571 75.4318 76.6506 77.3864C75.7415 79.3409 75.2869 81.7273 75.2869 84.5455C75.2869 87.3864 75.7415 89.7841 76.6506 91.7386C77.571 93.6932 78.8267 95.1705 80.4176 96.1705C82.0085 97.1705 83.7983 97.6705 85.7869 97.6705C86.8892 97.6705 87.9347 97.5227 88.9233 97.2273C89.9233 96.9205 90.8267 96.4716 91.6335 95.8807C92.4403 95.2898 93.1222 94.5682 93.679 93.7159C94.2472 92.8523 94.6392 91.8636 94.8551 90.75L100.173 90.767C99.8892 92.483 99.3381 94.0625 98.5199 95.5057C97.7131 96.9375 96.6733 98.1761 95.4006 99.2216C94.1392 100.256 92.696 101.057 91.071 101.625C89.446 102.193 87.6733 102.477 85.7528 102.477C82.7301 102.477 80.0369 101.761 77.6733 100.33C75.3097 98.8864 73.446 96.8239 72.0824 94.142C70.7301 91.4602 70.054 88.2614 70.054 84.5455C70.054 80.8182 70.7358 77.6193 72.0994 74.9489C73.4631 72.267 75.3267 70.2102 77.6903 68.7784C80.054 67.3352 82.7415 66.6136 85.7528 66.6136C87.6051 66.6136 89.3324 66.8807 90.9347 67.4148C92.5483 67.9375 93.9972 68.7102 95.2812 69.733C96.5653 70.7443 97.6278 71.983 98.4688 73.4489C99.3097 74.9034 99.8778 76.5682 100.173 78.4432Z" fill="black"/>
<path d="M63.125 67.0909H64.125V66.0909H63.125V67.0909ZM63.125 102V103H64.125V102H63.125ZM57.875 102H56.875V103H57.875V102ZM57.875 71.5909H58.875V70.5909H57.875V71.5909ZM41.4432 71.5909V70.5909H40.4432V71.5909H41.4432ZM41.4432 102V103H42.4432V102H41.4432ZM36.1932 102H35.1932V103H36.1932V102ZM36.1932 67.0909V66.0909H35.1932V67.0909H36.1932ZM62.125 67.0909V102H64.125V67.0909H62.125ZM63.125 101H57.875V103H63.125V101ZM58.875 102V71.5909H56.875V102H58.875ZM57.875 70.5909H41.4432V72.5909H57.875V70.5909ZM40.4432 71.5909V102H42.4432V71.5909H40.4432ZM41.4432 101H36.1932V103H41.4432V101ZM37.1932 102V67.0909H35.1932V102H37.1932ZM36.1932 68.0909H63.125V66.0909H36.1932V68.0909ZM100.173 78.4432V79.4432H101.343L101.161 78.2875L100.173 78.4432ZM94.8551 78.4432L93.8709 78.6203L94.019 79.4432H94.8551V78.4432ZM91.6676 73.2443L92.2658 72.443L92.2658 72.443L91.6676 73.2443ZM88.9574 71.8807L88.661 72.8358L88.6641 72.8367L88.9574 71.8807ZM80.4006 72.9375L79.8641 72.0936L79.8613 72.0953L80.4006 72.9375ZM76.6506 77.3864L75.7459 76.9603L75.7438 76.9646L76.6506 77.3864ZM76.6506 91.7386L75.7438 92.1604L75.7459 92.1647L76.6506 91.7386ZM80.4176 96.1705L79.8854 97.0171L79.8854 97.0171L80.4176 96.1705ZM88.9233 97.2273L89.2096 98.1854L89.2166 98.1833L88.9233 97.2273ZM93.679 93.7159L92.8436 93.1663L92.8418 93.169L93.679 93.7159ZM94.8551 90.75L94.8583 89.75L94.0309 89.7474L93.8734 90.5597L94.8551 90.75ZM100.173 90.767L101.16 90.9304L101.352 89.7708L100.177 89.7671L100.173 90.767ZM98.5199 95.5057L97.65 95.0125L97.6487 95.0148L98.5199 95.5057ZM95.4006 99.2216L96.0346 99.9949L96.0353 99.9943L95.4006 99.2216ZM91.071 101.625L91.4011 102.569L91.4011 102.569L91.071 101.625ZM77.6733 100.33L77.1522 101.183L77.1552 101.185L77.6733 100.33ZM72.0824 94.142L71.1895 94.5923L71.191 94.5953L72.0824 94.142ZM72.0994 74.9489L72.99 75.4036L72.9908 75.4021L72.0994 74.9489ZM77.6903 68.7784L78.2085 69.6337L78.2115 69.6319L77.6903 68.7784ZM90.9347 67.4148L90.6184 68.3635L90.6265 68.3661L90.9347 67.4148ZM95.2812 69.733L94.6582 70.5152L94.6625 70.5185L95.2812 69.733ZM98.4688 73.4489L97.6013 73.9465L97.603 73.9494L98.4688 73.4489ZM100.173 77.4432H94.8551V79.4432H100.173V77.4432ZM95.8393 78.266C95.6143 77.0158 95.1902 75.8888 94.5535 74.9013L92.8726 75.9851C93.3496 76.7249 93.6869 77.5978 93.8709 78.6203L95.8393 78.266ZM94.5535 74.9013C93.9334 73.9395 93.1702 73.1181 92.2658 72.443L91.0694 74.0457C91.7787 74.5751 92.3791 75.2196 92.8726 75.9851L94.5535 74.9013ZM92.2658 72.443C91.3634 71.7694 90.3561 71.2638 89.2507 70.9247L88.6641 72.8367C89.5586 73.1112 90.3582 73.5147 91.0694 74.0457L92.2658 72.443ZM89.2538 70.9256C88.1622 70.5868 87.0105 70.4205 85.804 70.4205V72.4205C86.8247 72.4205 87.7753 72.5609 88.661 72.8357L89.2538 70.9256ZM85.804 70.4205C83.6159 70.4205 81.6262 70.9734 79.8641 72.0936L80.9371 73.7814C82.3567 72.8789 83.9693 72.4205 85.804 72.4205V70.4205ZM79.8613 72.0953C78.1003 73.2229 76.7341 74.8619 75.7459 76.9603L77.5553 77.8124C78.4079 76.0018 79.5417 74.6748 80.9398 73.7797L79.8613 72.0953ZM75.7438 76.9646C74.7575 79.0853 74.2869 81.6245 74.2869 84.5455H76.2869C76.2869 81.8301 76.7255 79.5965 77.5573 77.8081L75.7438 76.9646ZM74.2869 84.5455C74.2869 87.4878 74.757 90.0387 75.7438 92.1604L77.5573 91.3169C76.7259 89.5294 76.2869 87.2849 76.2869 84.5455H74.2869ZM75.7459 92.1647C76.7353 94.2656 78.1096 95.9008 79.8854 97.0171L80.9498 95.3238C79.5438 94.4401 78.4068 93.1207 77.5553 91.3126L75.7459 92.1647ZM79.8854 97.0171C81.6452 98.1232 83.6215 98.6705 85.7869 98.6705V96.6705C83.9751 96.6705 82.3718 96.2177 80.9498 95.3238L79.8854 97.0171ZM85.7869 98.6705C86.9796 98.6705 88.122 98.5105 89.2096 98.1854L88.637 96.2691C87.7474 96.535 86.7988 96.6705 85.7869 96.6705V98.6705ZM89.2166 98.1833C90.3185 97.8452 91.3233 97.3474 92.2244 96.6874L91.0427 95.0739C90.3301 95.5958 89.5281 95.9957 88.63 96.2713L89.2166 98.1833ZM92.2244 96.6874C93.13 96.0242 93.8947 95.214 94.5161 94.2629L92.8418 93.169C92.3496 93.9224 91.7506 94.5554 91.0427 95.0739L92.2244 96.6874ZM94.5144 94.2655C95.161 93.2827 95.5985 92.1696 95.8368 90.9403L93.8734 90.5597C93.6799 91.5577 93.3333 92.4219 92.8436 93.1663L94.5144 94.2655ZM94.8519 91.75L100.17 91.767L100.177 89.7671L94.8583 89.75L94.8519 91.75ZM99.1867 90.6037C98.9209 92.2093 98.4074 93.6764 97.65 95.0125L99.3898 95.9989C100.269 94.4486 100.858 92.7566 101.16 90.9304L99.1867 90.6037ZM97.6487 95.0148C96.9027 96.3386 95.9432 97.4817 94.7658 98.4489L96.0353 99.9943C97.4034 98.8705 98.5234 97.5364 99.3911 95.9966L97.6487 95.0148ZM94.7666 98.4483C93.6007 99.4041 92.2616 100.149 90.741 100.681L91.4011 102.569C93.1304 101.964 94.6777 101.107 96.0346 99.9949L94.7666 98.4483ZM90.741 100.681C89.2336 101.208 87.5738 101.477 85.7528 101.477V103.477C87.7728 103.477 89.6585 103.178 91.4011 102.569L90.741 100.681ZM85.7528 101.477C82.8951 101.477 80.3843 100.803 78.1914 99.4742L77.1552 101.185C79.6895 102.72 82.5651 103.477 85.7528 103.477V101.477ZM78.1944 99.4761C76.0025 98.1377 74.261 96.2203 72.9738 93.6888L71.191 94.5953C72.6311 97.4275 74.6168 99.635 77.1522 101.183L78.1944 99.4761ZM72.9753 93.6918C71.7082 91.1788 71.054 88.1414 71.054 84.5455H69.054C69.054 88.3814 69.7521 91.7416 71.1895 94.5923L72.9753 93.6918ZM71.054 84.5455C71.054 80.9386 71.7137 77.9032 72.99 75.4036L71.2088 74.4941C69.7579 77.3355 69.054 80.6977 69.054 84.5455H71.054ZM72.9908 75.4021C74.2777 72.8712 76.0184 70.9604 78.2085 69.6337L77.1722 67.9231C74.6351 69.46 72.6484 71.6629 71.208 74.4956L72.9908 75.4021ZM78.2115 69.6319C80.4045 68.2928 82.9087 67.6136 85.7528 67.6136V65.6136C82.5742 65.6136 79.7034 66.3776 77.1692 67.9249L78.2115 69.6319ZM85.7528 67.6136C87.508 67.6136 89.1275 67.8665 90.6184 68.3635L91.2509 66.4661C89.5373 65.8949 87.7023 65.6136 85.7528 65.6136V67.6136ZM90.6265 68.3661C92.1297 68.8531 93.4712 69.5697 94.6582 70.5152L95.9043 68.9507C94.5231 67.8507 92.9669 67.0219 91.2428 66.4634L90.6265 68.3661ZM94.6625 70.5185C95.8426 71.448 96.8219 72.5877 97.6013 73.9464L99.3362 72.9513C98.4338 71.3782 97.2881 70.0406 95.9 68.9474L94.6625 70.5185ZM97.603 73.9494C98.3749 75.2845 98.9067 76.8297 99.1855 78.5988L101.161 78.2875C100.849 76.3067 100.244 74.5223 99.3345 72.9484L97.603 73.9494Z" fill="white"/>
</svg>
