<svg width="113" height="91" viewBox="0 0 113 91" fill="none" xmlns="http://www.w3.org/2000/svg">
<path fill-rule="evenodd" clip-rule="evenodd" d="M66 44H47V48H66V44ZM55 45C54.4477 45 54 45.4477 54 46C54 46.5523 54.4477 47 55 47H58C58.5523 47 59 46.5523 59 46C59 45.4477 58.5523 45 58 45H55Z" fill="#5F5F5F"/>
<path fill-rule="evenodd" clip-rule="evenodd" d="M47 44H28V48H47V44ZM36 45C35.4477 45 35 45.4477 35 46C35 46.5523 35.4477 47 36 47H39C39.5523 47 40 46.5523 40 46C40 45.4477 39.5523 45 39 45H36Z" fill="#5F5F5F"/>
<path fill-rule="evenodd" clip-rule="evenodd" d="M28 44H9V48H28V44ZM17 45C16.4477 45 16 45.4477 16 46C16 46.5523 16.4477 47 17 47H20C20.5523 47 21 46.5523 21 46C21 45.4477 20.5523 45 20 45H17Z" fill="#5F5F5F"/>
<path fill-rule="evenodd" clip-rule="evenodd" d="M85 44H66V48H85V44ZM74 45C73.4477 45 73 45.4477 73 46C73 46.5523 73.4477 47 74 47H77C77.5523 47 78 46.5523 78 46C78 45.4477 77.5523 45 77 45H74Z" fill="#5F5F5F"/>
<path fill-rule="evenodd" clip-rule="evenodd" d="M104 44H85V48H104V44ZM93 45C92.4477 45 92 45.4477 92 46C92 46.5523 92.4477 47 93 47H96C96.5523 47 97 46.5523 97 46C97 45.4477 96.5523 45 96 45H93Z" fill="#5F5F5F"/>
</svg>
