<svg width="45" height="45" viewBox="0 0 45 45" fill="none" xmlns="http://www.w3.org/2000/svg">
<path d="M22.0451 0.500613L22.0471 0.500603C22.6526 0.497573 23.25 0.505083 23.8424 0.543868L23.8424 0.543984L23.8531 0.544456C32.6575 0.930811 40.6768 7.32574 43.3917 15.6829L43.3916 15.683L43.3951 15.693C46.2431 23.8648 43.4093 33.471 36.9094 39.1046L36.9093 39.1045L36.9006 39.1124C30.5273 44.9048 20.641 46.1037 12.9413 42.3344L12.9414 42.3343L12.9316 42.3298C4.65443 38.496 -0.433302 29.042 0.642945 20.0023L0.643091 20.0023L0.644234 19.9902C1.64593 9.3902 11.4275 0.509568 22.0451 0.500613ZM22.4799 11.5773L22.49 11.5777L22.5002 11.5777C24.9408 11.5716 27.3743 12.4209 29.2826 13.9457L29.2905 13.952L29.2986 13.9579C32.1282 16.0375 33.4797 19.4761 33.3587 22.8965C33.2378 26.317 31.6469 29.6511 28.6776 31.525L28.6616 31.5351L28.6464 31.5463C25.8273 33.639 22.1491 33.9153 18.923 32.7888C15.697 31.6622 12.9867 29.1549 12.0765 25.7606L12.0717 25.7426L12.0655 25.725C10.9056 22.4104 11.7284 18.8074 13.7553 16.0521C15.7821 13.2968 18.9725 11.444 22.4799 11.5773ZM38.435 21.9033C38.3326 13.6065 30.7669 6.31465 22.4831 6.5514C19.6485 6.54925 16.8218 7.32386 14.3787 8.75917C7.6646 12.4582 4.87878 21.3207 7.62115 28.3287C10.1861 35.4431 18.2702 39.6498 25.5614 38.1909C33.1214 36.9127 38.7877 29.4784 38.435 21.9033Z" fill="#8A8B8E" stroke="black"/>
</svg>
