<svg width="90" height="90" viewBox="0 0 90 90" fill="none" xmlns="http://www.w3.org/2000/svg">
<path d="M72.6157 3.3299C74.509 3.49589 76.2322 4.217 77.8597 5.11333C81.2297 6.96924 83.8229 9.63341 85.5474 13.079C87.2757 16.5321 87.7433 20.2052 87.1818 24.0111C87.0445 24.9416 86.8171 25.8588 86.6326 26.7824C86.4319 27.7874 85.7685 28.518 85.0974 29.208C83.1169 31.2444 81.0758 33.2218 79.0939 35.2568C75.9597 38.4751 72.8517 41.7189 69.7377 44.9568C66.9888 47.8151 64.2466 50.6798 61.5019 53.5421C58.7774 56.3831 56.0502 59.2214 53.3302 62.0666C50.9932 64.5112 48.6675 66.9668 46.3315 69.4124C43.6912 72.1764 41.0427 74.9325 38.4027 77.6968C37.6406 78.4947 36.8956 79.3089 36.0767 80.0629C36.1038 79.8318 36.1801 79.6422 36.2923 79.477C39.1008 75.3415 40.1721 70.7938 39.252 65.8827C37.7352 57.7869 31.7002 52.1045 23.558 50.8674C25.6596 48.8066 27.7426 46.7999 29.8214 44.7887C33.5424 41.1888 37.2594 37.5848 40.9807 33.9853C44.4075 30.6707 47.8393 27.3613 51.2663 24.0469C54.9668 20.4679 58.672 16.8937 62.3606 13.3025C65.6103 10.1388 68.8394 6.95386 72.0801 3.78089C72.2464 3.61805 72.4366 3.47966 72.6157 3.3299Z" fill="#AEAEAF"/>
<path d="M23.5375 50.9195C31.7002 52.1045 37.7352 57.7869 39.252 65.8827C40.1721 70.7938 39.1008 75.3415 36.2923 79.4771C36.1801 79.6423 36.1038 79.8319 36.0185 80.073C33.4351 83.2359 30.3725 85.6359 26.4016 86.738C23.8335 87.4508 21.2502 87.4866 18.6185 87.2097C15.2581 86.8562 12.2992 85.506 9.7472 83.4285C6.68848 80.9384 4.56508 77.7419 3.49737 73.8713C2.85291 71.5351 2.78824 69.1483 3.04211 66.8189C3.46009 62.9838 4.97985 59.5376 7.7126 56.7177C8.54659 55.8571 9.41939 55.0341 10.3926 54.1849C10.7174 54.0738 10.9369 53.9913 11.1287 53.8664C14.9138 51.4019 19.0523 50.4327 23.5375 50.9195ZM30.0671 78.1854C33.0959 75.2634 34.4089 71.641 33.8501 67.5363C32.8895 60.4806 27.1684 55.9447 20.0402 56.4722C18.691 56.5721 17.3819 57.2152 15.9175 57.638C10.512 60.0414 7.50639 66.166 8.98994 72.0664C10.1756 76.782 13.1925 79.9263 17.8768 81.2392C22.4154 82.5112 26.4882 81.4519 30.0671 78.1854Z" fill="#D9DADD"/>
<path d="M23.558 50.8674C19.0524 50.4327 14.9138 51.4019 11.1287 53.8664C10.9369 53.9913 10.7174 54.0738 10.4474 54.1624C11.3357 53.2192 12.2881 52.2902 13.2391 51.3598C15.8289 48.8261 18.4076 46.2811 21.0101 43.7606C24.048 40.8184 27.1062 37.8972 30.1562 34.9675C31.544 33.6343 32.9345 32.3039 34.3216 30.97C37.455 27.9569 40.586 24.9413 43.7203 21.9291C45.0235 20.6766 46.3352 19.433 47.6383 18.1804C50.7932 15.1479 53.9432 12.1103 57.0996 9.07937C58.2767 7.94906 59.5524 6.90775 60.6286 5.68938C62.1125 4.00936 64.0284 3.33672 66.1176 3.19842C68.2474 3.05744 70.3955 3.19311 72.5756 3.26879C72.4366 3.47968 72.2464 3.61807 72.0801 3.78091C68.8394 6.95388 65.6103 10.1388 62.3607 13.3025C58.672 16.8937 54.9668 20.4679 51.2663 24.0469C47.8394 27.3613 44.4076 30.6707 40.9808 33.9853C37.2594 37.5848 33.5424 41.1888 29.8214 44.7887C27.7426 46.7999 25.6596 48.8066 23.558 50.8674Z" fill="#98999B"/>
<path d="M16.0543 57.6076C17.3819 57.2151 18.691 56.572 20.0402 56.4721C27.1684 55.9446 32.8895 60.4805 33.8501 67.5362C34.4089 71.6409 33.0959 75.2633 29.9402 78.2089C27.8478 78.6711 25.9055 79.1187 23.8436 78.7872C19.2411 78.0473 15.8567 75.638 13.9737 71.4097C12.0009 66.9794 12.5318 62.6904 15.364 58.7169C15.6162 58.363 15.8252 57.9781 16.0543 57.6076Z" fill="#8A8B8E"/>
<path d="M15.9858 57.6228C15.8252 57.9782 15.6162 58.363 15.3639 58.717C12.5318 62.6904 12.0009 66.9795 13.9737 71.4098C15.8566 75.638 19.2411 78.0474 23.8436 78.7873C25.9055 79.1187 27.8478 78.6711 29.8896 78.2313C26.4882 81.4519 22.4154 82.5112 17.8768 81.2392C13.1925 79.9263 10.1756 76.782 8.98993 72.0664C7.50637 66.166 10.5119 60.0414 15.9858 57.6228Z" fill="#67686D"/>
</svg>
