<svg xmlns="http://www.w3.org/2000/svg" viewBox="0 0 231.01 248.25"><defs><style>.ad6ff35f-f521-4eb2-a0f2-13bb5b76f34b{fill:#896245;}.a2d56dad-b82d-4460-b88b-a1818835bc37{fill:#7c4c24;}.b46533f1-903f-42f3-8cb5-6e3051915faf{fill:#342f28;}</style></defs><g id="b27d21e8-d936-47bf-bbce-631a6a8c5723" data-name="Слой 1"><path class="ad6ff35f-f521-4eb2-a0f2-13bb5b76f34b" d="M35.68,174.77A3.75,3.75,0,0,1,31.93,171V30.48a3.75,3.75,0,1,1,7.49,0V171A3.75,3.75,0,0,1,35.68,174.77Z"/><path class="ad6ff35f-f521-4eb2-a0f2-13bb5b76f34b" d="M102.5,211.92a3.75,3.75,0,0,1-1.8-7l37-20.33L92.11,167.2a3.75,3.75,0,0,1-.12-7l40.33-17L97.42,126.6a3.74,3.74,0,0,1-.18-6.67l31.57-17.18L102,85.91a3.74,3.74,0,0,1-.44-6l26.67-22.74a3.75,3.75,0,1,1,4.86,5.7L110.32,82.28l27.89,17.53a3.75,3.75,0,0,1-.2,6.46L107.27,123l35.8,17.07a3.75,3.75,0,0,1-.16,6.84l-39.4,16.61L148,180.43a3.75,3.75,0,0,1,.47,6.79L104.3,211.45a3.67,3.67,0,0,1-1.8.47Z"/><path class="a2d56dad-b82d-4460-b88b-a1818835bc37" d="M150.14,214.14a3.76,3.76,0,0,1-3.71-3.27L126.68,58.25a3.75,3.75,0,1,1,7.43-1l19.75,152.62a3.75,3.75,0,0,1-3.23,4.2,4,4,0,0,1-.49,0Z"/><path class="a2d56dad-b82d-4460-b88b-a1818835bc37" d="M87.19,215.54a2.77,2.77,0,0,1-.49,0,3.73,3.73,0,0,1-3.23-4.19l19.93-154a3.75,3.75,0,1,1,7.43,1l-19.93,154a3.75,3.75,0,0,1-3.71,3.27Z"/><path class="ad6ff35f-f521-4eb2-a0f2-13bb5b76f34b" d="M157.34,204.18H80.17a2.1,2.1,0,0,0-2.09,2.09v19.95l7.33,10h67.64l6.38-10V206.27A2.09,2.09,0,0,0,157.34,204.18Z"/><polygon class="ad6ff35f-f521-4eb2-a0f2-13bb5b76f34b" points="44.18 248.25 34 216.94 34 216.94 30.77 207.03 13.41 207.03 9.1 220.29 9.1 220.29 0 248.25 44.18 248.25"/><path class="a2d56dad-b82d-4460-b88b-a1818835bc37" d="M170.31,226.22H67.2a3.29,3.29,0,0,0-3.3,3.29v18.74H173.61V229.51A3.29,3.29,0,0,0,170.31,226.22Z"/><path class="ad6ff35f-f521-4eb2-a0f2-13bb5b76f34b" d="M146.62,30.55H90.9V57.46a4.81,4.81,0,0,0,4.81,4.82H141.8a4.82,4.82,0,0,0,4.82-4.82V30.55Z"/><path class="a2d56dad-b82d-4460-b88b-a1818835bc37" d="M47.37.62A33.44,33.44,0,0,0,11.66,17.34L9.54,21.2a2,2,0,0,0,1.57,3l183,19.66h0V29.24Z"/><path class="ad6ff35f-f521-4eb2-a0f2-13bb5b76f34b" d="M225.33,7.59h0a2.34,2.34,0,0,0-.15-.49,2.5,2.5,0,0,0-4-1l-27.1,23.12V156.55a1,1,0,0,0,1.42.9l.11,0C225.32,138.88,239.84,89.34,225.33,7.59Z"/><path class="b46533f1-903f-42f3-8cb5-6e3051915faf" d="M214.18,28.81A3.74,3.74,0,1,1,219,34.5L211,41.4a3.7,3.7,0,0,1-2.43.9,3.75,3.75,0,0,1-2.44-6.6"/><path class="a2d56dad-b82d-4460-b88b-a1818835bc37" d="M23.4,25.53,48,28.17V35.9a4.57,4.57,0,0,1-4.56,4.57H28A4.57,4.57,0,0,1,23.4,35.9Z"/><path class="a2d56dad-b82d-4460-b88b-a1818835bc37" d="M67,159.27a16.57,16.57,0,0,0-1.58-3,15,15,0,0,0-1-1.39c-.37-.45-.76-.89-1.18-1.31h0a17.23,17.23,0,0,0-24.35,0l-2.13,2.13h0L7.62,184.83A17.22,17.22,0,0,0,32,209.18l27.62-27.62,3.64-3.64A17.22,17.22,0,0,0,67,159.27Z"/><circle class="b46533f1-903f-42f3-8cb5-6e3051915faf" cx="20.37" cy="196.42" r="6.26"/><circle class="b46533f1-903f-42f3-8cb5-6e3051915faf" cx="49.74" cy="167.06" r="6.26"/></g></svg>