<svg xmlns="http://www.w3.org/2000/svg" viewBox="0 0 148.22 298.36"><defs><style>.be71d44a-8090-4fdd-ab30-ff5f505faac9{opacity:0.92;}.a98706f6-829b-4edd-bc57-72b37f9bdd19{fill:#9d9d9c;}.bd95a7ac-0cf6-4aba-8ee8-562d173d97c8{fill:#706f6f;}.b80d1b7e-9428-45ea-a237-f8088f59f13c{fill:#616160;}.b01b0fe2-60ea-4409-91ac-d34937b640c7{fill:#59aae2;}.a1472a42-f17e-4aff-9be5-4e3a8f2661b7{fill:#b2b2b2;}.b400fde6-9ef1-44eb-9bc3-870af4cd47fb{fill:#342f28;}.f3abd22c-c06a-465f-beb0-0dd7bbc482c9{fill:#fff;}.b3ced7de-a077-403e-b701-f07b9187a3ed{fill:#3c3c3b;}</style></defs><g id="f2c2acc2-8af6-4a92-b48c-ece5e14149ef" data-name="Слой 1"><g class="be71d44a-8090-4fdd-ab30-ff5f505faac9"><path class="a98706f6-829b-4edd-bc57-72b37f9bdd19" d="M143.44,298.36c-2.64,0-4.78-.58-4.78-3.22V62L82.55,57.23a4.79,4.79,0,1,1,.62-9.55l60.58,5.06a4.79,4.79,0,0,1,4.47,4.77V295.14C148.22,297.78,146.08,298.36,143.44,298.36Z"/><path class="bd95a7ac-0cf6-4aba-8ee8-562d173d97c8" d="M82.41,43.08H74.27c-2.08,0-3.77,4.38-3.77,9.78s1.69,9.77,3.77,9.77h8.14c2.08,0,3.77-4.37,3.77-9.77S84.49,43.08,82.41,43.08Z"/><path class="bd95a7ac-0cf6-4aba-8ee8-562d173d97c8" d="M83.5,200.06H72.86c-2.72,0-4.92,5.71-4.92,12.77s2.2,12.76,4.92,12.76H83.5c2.72,0,4.92-5.71,4.92-12.76S86.22,200.06,83.5,200.06Z"/><path class="a98706f6-829b-4edd-bc57-72b37f9bdd19" d="M143.44,221h-.25L99.35,217.6a4.78,4.78,0,1,1,.5-9.55l43.84,3.36a4.78,4.78,0,0,1-.25,9.56Z"/><path class="a98706f6-829b-4edd-bc57-72b37f9bdd19" d="M87.55,219.88H96.1c1.51,0,4.36-3.16,4.36-7s-2.85-7.06-4.36-7.06H87.55c-1.51,0-2.72,3.16-2.72,7.06S86,219.88,87.55,219.88Z"/><rect class="b80d1b7e-9428-45ea-a237-f8088f59f13c" x="54.49" y="24.75" width="4.45" height="5.27"/><path class="bd95a7ac-0cf6-4aba-8ee8-562d173d97c8" d="M56.51,39.63c7.34,0,13.29.71,13.29,1.59V31c0-.88-5.95-1.59-13.29-1.59S43.23,30.16,43.23,31V41.22C43.23,40.34,49.18,39.63,56.51,39.63Z"/><ellipse class="b01b0fe2-60ea-4409-91ac-d34937b640c7" cx="56.51" cy="41.22" rx="13.28" ry="1.59"/><path class="a98706f6-829b-4edd-bc57-72b37f9bdd19" d="M56.29,258.25c-14.08,0-25.5-1.07-25.5-2.4v38.31c0,1.33,11.42,2.4,25.5,2.4s25.49-1.07,25.49-2.4V255.85C81.78,257.18,70.37,258.25,56.29,258.25Z"/><path class="bd95a7ac-0cf6-4aba-8ee8-562d173d97c8" d="M56.51,242c-21.38,0-38.71-2.07-38.71-4.64v10C17.8,250,35.13,252,56.51,252s38.71-2.07,38.71-4.64v-10C95.22,239.94,77.89,242,56.51,242Z"/><path class="bd95a7ac-0cf6-4aba-8ee8-562d173d97c8" d="M56.51,253.16c-21.38,0-38.71-2.08-38.71-4.64v10c0,2.56,17.33,4.64,38.71,4.64s38.71-2.08,38.71-4.64v-10C95.22,251.08,77.89,253.16,56.51,253.16Z"/><ellipse class="b80d1b7e-9428-45ea-a237-f8088f59f13c" cx="56.51" cy="237.37" rx="38.71" ry="4.64"/><path class="a98706f6-829b-4edd-bc57-72b37f9bdd19" d="M56.51,64.15c11.68,0,21.14,1.13,21.14,2.53V40.75c0-1.4-9.46-2.54-21.14-2.54s-21.14,1.14-21.14,2.54V66.68C35.37,65.28,44.84,64.15,56.51,64.15Z"/><ellipse class="b80d1b7e-9428-45ea-a237-f8088f59f13c" cx="56.51" cy="66.68" rx="21.14" ry="2.53"/><path class="a98706f6-829b-4edd-bc57-72b37f9bdd19" d="M56.51,182.73c-9.82,0-17.79-.95-17.79-2.13v54.64c0,1.18,8,2.13,17.79,2.13s17.79-1,17.79-2.13V180.6C74.3,181.78,66.34,182.73,56.51,182.73Z"/><polygon class="bd95a7ac-0cf6-4aba-8ee8-562d173d97c8" points="40.68 151.77 72.23 151.6 83.97 158.96 29.06 158.96 40.68 151.77"/><polygon class="bd95a7ac-0cf6-4aba-8ee8-562d173d97c8" points="74.3 184.45 38.72 184.61 29.06 177.25 83.97 177.25 74.3 184.45"/><path class="bd95a7ac-0cf6-4aba-8ee8-562d173d97c8" d="M56.37,97.6c7.32,0,13.24.71,13.24,1.59V68c0-.87-5.92-1.58-13.24-1.58S43.14,67.16,43.14,68V99.19C43.14,98.31,49.06,97.6,56.37,97.6Z"/><circle class="a1472a42-f17e-4aff-9be5-4e3a8f2661b7" cx="56.71" cy="12.73" r="11.23"/><path class="b400fde6-9ef1-44eb-9bc3-870af4cd47fb" d="M56.71,25.45A12.73,12.73,0,1,1,69.44,12.73,12.73,12.73,0,0,1,56.71,25.45ZM56.71,3a9.73,9.73,0,1,0,9.73,9.73A9.73,9.73,0,0,0,56.71,3Z"/><path class="a98706f6-829b-4edd-bc57-72b37f9bdd19" d="M56.51,111.78c11.68,0,21.14,1.13,21.14,2.53V100c0-1.4-9.46-2.54-21.14-2.54S35.37,98.57,35.37,100v14.34C35.37,112.91,44.84,111.78,56.51,111.78Z"/><ellipse class="b80d1b7e-9428-45ea-a237-f8088f59f13c" cx="56.51" cy="114.31" rx="21.14" ry="2.53"/><path class="bd95a7ac-0cf6-4aba-8ee8-562d173d97c8" d="M56.37,145.45c7.32,0,13.24.71,13.24,1.59V116c0-.87-5.92-1.58-13.24-1.58s-13.23.71-13.23,1.58v31C43.14,146.16,49.06,145.45,56.37,145.45Z"/><rect class="a98706f6-829b-4edd-bc57-72b37f9bdd19" x="39.7" y="144.9" width="33.34" height="6.7"/><rect class="a98706f6-829b-4edd-bc57-72b37f9bdd19" x="29.06" y="158.96" width="54.92" height="18.3"/><line class="f3abd22c-c06a-465f-beb0-0dd7bbc482c9" x1="50.97" y1="5.22" x2="57.45" y2="13.48"/><path class="b3ced7de-a077-403e-b701-f07b9187a3ed" d="M51.09,5.13c.73.54,1.39,1.13,2.09,1.69s1.34,1.18,2,1.79,1.5,1.06,1.86,1.88a5.34,5.34,0,0,1,.46,1.31,4.77,4.77,0,0,1,.09,1.59l-.23.19a4.53,4.53,0,0,1-1.52-.48,5.06,5.06,0,0,1-1.16-.76,6.82,6.82,0,0,1-1.39-2.25Q52.6,9,52,7.75c-.38-.81-.79-1.6-1.14-2.44Z"/><path class="bd95a7ac-0cf6-4aba-8ee8-562d173d97c8" d="M29.06,225.59H39.69c2.72,0,4.93-5.71,4.93-12.76s-2.21-12.77-4.93-12.77H29.06c-2.72,0-4.92,5.71-4.92,12.77S26.34,225.59,29.06,225.59Z"/><path class="a98706f6-829b-4edd-bc57-72b37f9bdd19" d="M19.21,219.88h8.56c1.5,0,4.35-3.16,4.35-7s-2.85-7.06-4.35-7.06H19.21c-1.5,0-2.72,3.16-2.72,7.06S17.71,219.88,19.21,219.88Z"/><path class="b400fde6-9ef1-44eb-9bc3-870af4cd47fb" d="M95.22,192.29c-10.35,0-18.77,9.21-18.77,20.54s8.42,20.53,18.77,20.53S114,224.15,114,212.83,105.58,192.29,95.22,192.29Zm3.63,16.38a4.65,4.65,0,0,0-6.32-.06l-9.45-6.31a14.63,14.63,0,0,1,24.93.95Zm-1.92,21.1.27-11.9a5.34,5.34,0,0,0,3.42-5.1,5.64,5.64,0,0,0-.1-1.08l9-5.33a18.3,18.3,0,0,1,1.16,6.47C110.68,221.56,104.71,228.83,96.93,229.77Zm-3.05-12-.27,12c-7.83-.9-13.84-8.18-13.84-16.95a18.5,18.5,0,0,1,1.6-7.55l9.45,6.32a5.81,5.81,0,0,0-.12,1.17A5.36,5.36,0,0,0,93.88,217.78Z"/><path class="b400fde6-9ef1-44eb-9bc3-870af4cd47fb" d="M18.78,192.29C8.42,192.29,0,201.5,0,212.83s8.42,20.53,18.78,20.53,18.77-9.21,18.77-20.53S29.13,192.29,18.78,192.29Zm2,25.58a5.34,5.34,0,0,0,3.42-5.1,5.64,5.64,0,0,0-.1-1.08l9-5.33a18.52,18.52,0,0,1,1.15,6.47c0,8.73-6,16-13.75,16.94Zm1.66-9.2a4.65,4.65,0,0,0-6.32-.06L6.64,202.3a15,15,0,0,1,12.14-6.52,15,15,0,0,1,12.78,7.47Zm-5,9.11-.28,12c-7.83-.9-13.84-8.18-13.84-16.95a18.5,18.5,0,0,1,1.6-7.55l9.46,6.32a5.18,5.18,0,0,0-.13,1.17A5.37,5.37,0,0,0,17.44,217.78Z"/><path class="b400fde6-9ef1-44eb-9bc3-870af4cd47fb" d="M72.25,130.75a15.88,15.88,0,1,0-15.87,16A16,16,0,0,0,72.25,130.75Zm-15.87-13a12.55,12.55,0,0,1,10.4,5.53l-7.35,4a4.31,4.31,0,0,0-5.31,0l-7.6-4.7A12.63,12.63,0,0,1,56.38,117.76ZM58,143.63l.22-8.86a4.33,4.33,0,0,0,2.86-4.06A3.81,3.81,0,0,0,61,130l7.2-3.94a13.06,13.06,0,0,1,.88,4.73A12.89,12.89,0,0,1,58,143.63ZM44.89,125.19l7.6,4.7a3.74,3.74,0,0,0-.08.82,4.3,4.3,0,0,0,2.65,4l-.22,8.95a12.88,12.88,0,0,1-11.17-12.89A13.29,13.29,0,0,1,44.89,125.19Z"/><path class="b400fde6-9ef1-44eb-9bc3-870af4cd47fb" d="M72.25,83.05a15.88,15.88,0,1,0-15.87,16A16,16,0,0,0,72.25,83.05Zm-15.87-13a12.55,12.55,0,0,1,10.4,5.53l-7.35,4a4.31,4.31,0,0,0-5.31-.05l-7.6-4.7A12.63,12.63,0,0,1,56.38,70.06ZM58,95.93l.22-8.86A4.33,4.33,0,0,0,61.08,83a3.81,3.81,0,0,0-.07-.75l7.2-3.94a13.06,13.06,0,0,1,.88,4.73A12.89,12.89,0,0,1,58,95.93ZM44.89,77.49l7.6,4.7a3.74,3.74,0,0,0-.08.82,4.3,4.3,0,0,0,2.65,4l-.22,9A12.88,12.88,0,0,1,43.67,83.05,13.26,13.26,0,0,1,44.89,77.49Z"/><path class="b400fde6-9ef1-44eb-9bc3-870af4cd47fb" d="M110.26,52.68c0-10.6-7.67-19.22-17.11-19.22S76,42.08,76,52.68s7.67,19.21,17.11,19.21S110.26,63.27,110.26,52.68ZM93.15,37.12a13.2,13.2,0,0,1,11.21,6.63l-7.92,4.82a4.31,4.31,0,0,0-5.73-.06l-8.19-5.63A13.2,13.2,0,0,1,93.15,37.12Zm1.75,31,.24-10.61a5.19,5.19,0,0,0,3.08-4.87,5.26,5.26,0,0,0-.07-.89L105.91,47a17.06,17.06,0,0,1,.94,5.66C106.85,60.56,101.68,67.13,94.9,68.11ZM80.77,46,89,51.65a6.37,6.37,0,0,0-.08,1,5.18,5.18,0,0,0,2.86,4.77l-.24,10.72c-6.83-.93-12-7.52-12-15.44A17.31,17.31,0,0,1,80.77,46Z"/></g></g></svg>