<svg xmlns="http://www.w3.org/2000/svg" viewBox="0 0 185.8 259.63"><defs><style>.a2f39b05-0140-4dc1-8373-11f2c8dee1b0{fill:#3c3c3b;}.b3a3d389-18d1-431e-b370-8f6772519162{fill:#474747;}.b0442097-6460-425e-8287-c05ebae739b0{fill:#616160;}.ae21a161-dfee-49be-981d-6dbaf96d7de3{fill:#575756;}.aad1ed52-cdb4-4b57-af0d-1a459aae4878{opacity:0.92;}.b84fb614-f859-4c5b-a745-9f2d37f692d6{fill:#896245;}.ba73abaf-a968-4356-b3af-c270a208e504{fill:#7c4c24;}.bd9b73ca-ce36-4d11-8c13-40d5f0452319{fill:#59aae2;}.b1d2e079-9351-41d0-a1f2-e880d56b30d0{fill:#342f28;}.ab5d9c72-fdbe-4b96-87f4-c70ba3d8f197{fill:#b2b2b2;}.affb7b5e-38aa-4d24-9974-3433ab5eaefd{fill:#fff;}</style></defs><g id="f1a61e7e-71e7-49e5-9dcd-09331d0d1d8f" data-name="Слой 1"><polygon class="a2f39b05-0140-4dc1-8373-11f2c8dee1b0" points="93.76 212.38 92.99 234.53 61.56 238.82 63.66 213.79 93.76 212.38"/><polygon class="b3a3d389-18d1-431e-b370-8f6772519162" points="110.63 59.2 66.38 51.66 66.38 214.84 100.95 211.73 102.68 110.78 110.63 103.17 110.63 59.2"/><polygon class="b0442097-6460-425e-8287-c05ebae739b0" points="66.38 51.66 0 56.85 0 205.16 66.38 214.84 66.38 51.66"/><polygon class="ae21a161-dfee-49be-981d-6dbaf96d7de3" points="3.9 205.73 5.2 227.42 61.56 238.82 63.66 214.45 3.9 205.73"/><polygon class="ae21a161-dfee-49be-981d-6dbaf96d7de3" points="48.98 70 15.3 72.31 15.3 83.37 48.98 82.51 48.98 70"/><path class="ae21a161-dfee-49be-981d-6dbaf96d7de3" d="M60.94,102.07H6a1,1,0,0,1,0-2H60.94a1,1,0,0,1,0,2Z"/><g class="aad1ed52-cdb4-4b57-af0d-1a459aae4878"><path class="b84fb614-f859-4c5b-a745-9f2d37f692d6" d="M181.64,259.63c-2.29,0-4.16-.51-4.16-2.8V54.1L128.7,50a4.16,4.16,0,0,1,.53-8.3l52.68,4.4a4.15,4.15,0,0,1,3.89,4.15V256.83C185.8,259.12,183.94,259.63,181.64,259.63Z"/><path class="b84fb614-f859-4c5b-a745-9f2d37f692d6" d="M128.58,37.66H121.5c-1.81,0-3.28,3.8-3.28,8.5s1.47,8.5,3.28,8.5h7.08c1.81,0,3.27-3.81,3.27-8.5S130.39,37.66,128.58,37.66Z"/><path class="b84fb614-f859-4c5b-a745-9f2d37f692d6" d="M129.52,174.15h-9.24c-2.37,0-4.29,5-4.29,11.1s1.92,11.1,4.29,11.1h9.24c2.37,0,4.28-5,4.28-11.1S131.89,174.15,129.52,174.15Z"/><path class="b84fb614-f859-4c5b-a745-9f2d37f692d6" d="M181.65,192.33h-.22l-38.12-2.92a4.16,4.16,0,1,1,.43-8.3L181.86,184a4.16,4.16,0,0,1-.21,8.31Z"/><path class="ba73abaf-a968-4356-b3af-c270a208e504" d="M133.05,191.39h7.43c1.31,0,3.79-2.75,3.79-6.14s-2.48-6.14-3.79-6.14h-7.43c-1.31,0-2.37,2.75-2.37,6.14S131.74,191.39,133.05,191.39Z"/><rect class="b0442097-6460-425e-8287-c05ebae739b0" x="104.3" y="21.72" width="3.87" height="4.58"/><path class="b84fb614-f859-4c5b-a745-9f2d37f692d6" d="M106.06,34.66c6.38,0,11.55.62,11.55,1.38V27.19c0-.77-5.17-1.39-11.55-1.39s-11.55.62-11.55,1.39V36C94.51,35.28,99.68,34.66,106.06,34.66Z"/><ellipse class="bd9b73ca-ce36-4d11-8c13-40d5f0452319" cx="106.06" cy="36.04" rx="11.55" ry="1.38"/><path class="ba73abaf-a968-4356-b3af-c270a208e504" d="M105.86,224.75c-12.24,0-22.16-.94-22.16-2.09V256c0,1.15,9.92,2.08,22.16,2.08S128,257.13,128,256V222.66C128,223.81,118.11,224.75,105.86,224.75Z"/><path class="b84fb614-f859-4c5b-a745-9f2d37f692d6" d="M106.06,210.63c-18.59,0-33.66-1.81-33.66-4v8.71c0,2.23,15.07,4,33.66,4s33.66-1.8,33.66-4V206.6C139.72,208.82,124.65,210.63,106.06,210.63Z"/><path class="b84fb614-f859-4c5b-a745-9f2d37f692d6" d="M106.06,220.32c-18.59,0-33.66-1.8-33.66-4V225c0,2.23,15.07,4,33.66,4s33.66-1.81,33.66-4v-8.71C139.72,218.52,124.65,220.32,106.06,220.32Z"/><ellipse class="b1d2e079-9351-41d0-a1f2-e880d56b30d0" cx="106.06" cy="206.6" rx="33.66" ry="4.03"/><path class="ba73abaf-a968-4356-b3af-c270a208e504" d="M106.06,56c10.15,0,18.38,1,18.38,2.2V35.63c0-1.22-8.23-2.21-18.38-2.21s-18.38,1-18.38,2.21V58.18C87.68,57,95.91,56,106.06,56Z"/><ellipse class="b1d2e079-9351-41d0-a1f2-e880d56b30d0" cx="106.06" cy="58.18" rx="18.38" ry="2.2"/><path class="ba73abaf-a968-4356-b3af-c270a208e504" d="M106.06,159.09c-8.54,0-15.47-.83-15.47-1.86v47.51c0,1,6.93,1.86,15.47,1.86s15.47-.83,15.47-1.86V157.23C121.53,158.26,114.6,159.09,106.06,159.09Z"/><polygon class="b84fb614-f859-4c5b-a745-9f2d37f692d6" points="92.3 132.16 119.72 132.02 129.94 138.41 82.19 138.41 92.3 132.16"/><polygon class="b84fb614-f859-4c5b-a745-9f2d37f692d6" points="121.53 160.57 90.59 160.72 82.19 154.32 129.94 154.32 121.53 160.57"/><path class="b84fb614-f859-4c5b-a745-9f2d37f692d6" d="M105.94,85.06c6.36,0,11.51.62,11.51,1.38V59.35c0-.76-5.15-1.38-11.51-1.38s-11.51.62-11.51,1.38V86.44C94.43,85.68,99.58,85.06,105.94,85.06Z"/><circle class="ab5d9c72-fdbe-4b96-87f4-c70ba3d8f197" cx="106.23" cy="11.26" r="9.76"/><path class="b1d2e079-9351-41d0-a1f2-e880d56b30d0" d="M106.23,22.52A11.26,11.26,0,1,1,117.5,11.26,11.27,11.27,0,0,1,106.23,22.52Zm0-19.52a8.26,8.26,0,1,0,8.27,8.26A8.28,8.28,0,0,0,106.23,3Z"/><path class="ba73abaf-a968-4356-b3af-c270a208e504" d="M106.06,97.39c10.15,0,18.38,1,18.38,2.2V87.12c0-1.22-8.23-2.2-18.38-2.2s-18.38,1-18.38,2.2V99.59C87.68,98.37,95.91,97.39,106.06,97.39Z"/><ellipse class="b1d2e079-9351-41d0-a1f2-e880d56b30d0" cx="106.06" cy="99.59" rx="18.38" ry="2.2"/><path class="b84fb614-f859-4c5b-a745-9f2d37f692d6" d="M105.94,126.67c6.36,0,11.51.62,11.51,1.38v-27c0-.76-5.15-1.38-11.51-1.38s-11.51.62-11.51,1.38v27C94.43,127.29,99.58,126.67,105.94,126.67Z"/><rect class="ba73abaf-a968-4356-b3af-c270a208e504" x="91.44" y="126.19" width="28.99" height="5.83"/><rect class="ba73abaf-a968-4356-b3af-c270a208e504" x="82.18" y="138.41" width="47.75" height="15.91"/><line class="affb7b5e-38aa-4d24-9974-3433ab5eaefd" x1="101.24" y1="4.73" x2="106.87" y2="11.92"/><path class="a2f39b05-0140-4dc1-8373-11f2c8dee1b0" d="M101.36,4.64c.66.45,1.25,1,1.88,1.43s1.19,1,1.76,1.52,1.35.87,1.64,1.61a3.9,3.9,0,0,1,.36,1.17,4.21,4.21,0,0,1,0,1.46l-.24.18a4,4,0,0,1-1.41-.34,4.22,4.22,0,0,1-1.06-.62c-.64-.46-.8-1.31-1.17-2s-.72-1.37-1-2.08-.66-1.42-.94-2.16Z"/><path class="b84fb614-f859-4c5b-a745-9f2d37f692d6" d="M82.19,196.35h9.25c2.36,0,4.28-5,4.28-11.1s-1.92-11.1-4.28-11.1H82.19c-2.36,0-4.28,5-4.28,11.1S79.83,196.35,82.19,196.35Z"/><path class="ba73abaf-a968-4356-b3af-c270a208e504" d="M73.62,191.39h7.44c1.31,0,3.79-2.75,3.79-6.14s-2.48-6.14-3.79-6.14H73.62c-1.3,0-2.36,2.75-2.36,6.14S72.32,191.39,73.62,191.39Z"/><path class="b1d2e079-9351-41d0-a1f2-e880d56b30d0" d="M139.72,167.4c-9,0-16.33,8-16.33,17.85s7.33,17.85,16.33,17.85,16.32-8,16.32-17.85S148.72,167.4,139.72,167.4Zm3.16,14.24a4.06,4.06,0,0,0-5.5,0l-8.22-5.5a12.71,12.71,0,0,1,21.67.84ZM141.2,200l.24-10.34a4.66,4.66,0,0,0,3-4.44,4.88,4.88,0,0,0-.09-.93l7.83-4.64a15.89,15.89,0,0,1,1,5.62C153.16,192.85,148,199.16,141.2,200Zm-2.65-10.42L138.31,200c-6.8-.78-12-7.11-12-14.74a16.16,16.16,0,0,1,1.39-6.56l8.22,5.5a4.87,4.87,0,0,0-.1,1A4.67,4.67,0,0,0,138.55,189.56Z"/><path class="b1d2e079-9351-41d0-a1f2-e880d56b30d0" d="M73.25,167.4c-9,0-16.33,8-16.33,17.85s7.32,17.85,16.33,17.85,16.32-8,16.32-17.85S82.25,167.4,73.25,167.4ZM75,189.64a4.66,4.66,0,0,0,3-4.44,4.88,4.88,0,0,0-.09-.93l7.83-4.64a15.89,15.89,0,0,1,1,5.62c0,7.6-5.2,13.91-12,14.73Zm1.43-8a4,4,0,0,0-5.49,0l-8.22-5.5a12.71,12.71,0,0,1,21.67.84Zm-4.32,7.92L71.84,200c-6.8-.78-12-7.11-12-14.74a16.16,16.16,0,0,1,1.39-6.56l8.22,5.5a4.88,4.88,0,0,0-.11,1A4.68,4.68,0,0,0,72.08,189.56Z"/><path class="b1d2e079-9351-41d0-a1f2-e880d56b30d0" d="M119.74,113.88a13.8,13.8,0,1,0-13.8,14A13.89,13.89,0,0,0,119.74,113.88Zm-13.8-11.29a10.88,10.88,0,0,1,9,4.81l-6.38,3.5a3.83,3.83,0,0,0-2.34-.82,3.74,3.74,0,0,0-2.28.78l-6.61-4.09A11,11,0,0,1,105.94,102.59Zm1.41,22.49.19-7.7a3.76,3.76,0,0,0,2.49-3.53,3.57,3.57,0,0,0-.06-.65l6.26-3.43a11.36,11.36,0,0,1-8.88,15.31ZM96,109.05l6.6,4.08a3.51,3.51,0,0,0-.07.72,3.73,3.73,0,0,0,2.31,3.46l-.2,7.78a11.19,11.19,0,0,1-9.71-11.21A11.5,11.5,0,0,1,96,109.05Z"/><path class="b1d2e079-9351-41d0-a1f2-e880d56b30d0" d="M119.74,72.41a13.8,13.8,0,1,0-13.8,14A13.89,13.89,0,0,0,119.74,72.41Zm-13.8-11.3a10.91,10.91,0,0,1,9,4.81l-6.38,3.5a3.82,3.82,0,0,0-2.34-.81,3.73,3.73,0,0,0-2.28.77l-6.61-4.09A11,11,0,0,1,105.94,61.11Zm1.41,22.5.19-7.7A3.79,3.79,0,0,0,110,72.37a3.39,3.39,0,0,0-.06-.64l6.26-3.44a11.37,11.37,0,0,1-8.88,15.32ZM96,67.57l6.6,4.09a3.35,3.35,0,0,0-.07.71,3.75,3.75,0,0,0,2.31,3.47l-.2,7.78a11.21,11.21,0,0,1-9.71-11.21A11.51,11.51,0,0,1,96,67.57Z"/><path class="b1d2e079-9351-41d0-a1f2-e880d56b30d0" d="M152.8,46c0-9.21-6.68-16.71-14.88-16.71S123,36.79,123,46s6.67,16.71,14.88,16.71S152.8,55.21,152.8,46ZM137.92,32.48a11.49,11.49,0,0,1,9.75,5.76l-6.89,4.19a3.72,3.72,0,0,0-5,0l-7.13-4.9A11.46,11.46,0,0,1,137.92,32.48Zm1.52,26.94.21-9.23A4.49,4.49,0,0,0,142.32,46a4.9,4.9,0,0,0-.06-.77L149,41.08a14.77,14.77,0,0,1,.82,4.92C149.83,52.85,145.33,58.56,139.44,59.42ZM127.15,40.21l7.12,4.9a4.8,4.8,0,0,0-.08.85,4.52,4.52,0,0,0,2.49,4.15l-.21,9.32C130.54,58.62,126,52.89,126,46A15.18,15.18,0,0,1,127.15,40.21Z"/></g></g></svg>