<svg width="81" height="84" viewBox="0 0 81 84" fill="none" xmlns="http://www.w3.org/2000/svg">
<g clip-path="url(#clip0_4_1373)">
<path fill-rule="evenodd" clip-rule="evenodd" d="M2 59.5C2 71.9264 12.0736 82 24.5 82C36.9264 82 47 71.9264 47 59.5C47 47.0736 36.9264 37 24.5 37C12.0736 37 2 47.0736 2 59.5ZM0 59.5C0 73.031 10.969 84 24.5 84C38.031 84 49 73.031 49 59.5C49 45.969 38.031 35 24.5 35C10.969 35 0 45.969 0 59.5Z" fill="black"/>
<path fill-rule="evenodd" clip-rule="evenodd" d="M2 24.5C2 36.9264 12.0736 47 24.5 47C36.9264 47 47 36.9264 47 24.5C47 12.0736 36.9264 2 24.5 2C12.0736 2 2 12.0736 2 24.5ZM0 24.5C0 38.031 10.969 49 24.5 49C38.031 49 49 38.031 49 24.5C49 10.969 38.031 0 24.5 0C10.969 0 0 10.969 0 24.5Z" fill="black"/>
<path fill-rule="evenodd" clip-rule="evenodd" d="M34 41.5C34 53.9264 44.0736 64 56.5 64C68.9264 64 79 53.9264 79 41.5C79 29.0736 68.9264 19 56.5 19C44.0736 19 34 29.0736 34 41.5ZM32 41.5C32 55.031 42.969 66 56.5 66C70.031 66 81 55.031 81 41.5C81 27.969 70.031 17 56.5 17C42.969 17 32 27.969 32 41.5Z" fill="black"/>
<path fill-rule="evenodd" clip-rule="evenodd" d="M33 19.5L15 9V30L33 19.5ZM31.0154 19.5L16 10.741V28.259L31.0154 19.5Z" fill="black"/>
<path fill-rule="evenodd" clip-rule="evenodd" d="M24.2059 62.6805L29.6125 69.3158L30.3877 68.6842L24.534 61.5L30.3877 54.3158L29.6125 53.6842L23.6514 61H15.0001V62H23.3023L22.2842 68.3438L23.2716 68.5023L24.2059 62.6805Z" fill="black"/>
<path fill-rule="evenodd" clip-rule="evenodd" d="M60.2059 42.6805L65.6125 49.3158L66.3877 48.6842L60.534 41.5L66.3877 34.3158L65.6125 33.6842L59.6514 41H51.0001V42H59.3023L58.2842 48.3438L59.2716 48.5023L60.2059 42.6805Z" fill="black"/>
<path fill-rule="evenodd" clip-rule="evenodd" d="M73.4062 63.8477L77.4836 77.2345L76.6009 77.6741L68.7199 66.8284L69.5289 66.2405L74.0151 72.4144L39.1269 1.21989L40.0248 0.779846L74.7098 71.5595L72.4496 64.139L73.4062 63.8477Z" fill="black"/>
</g>
<defs>
<clipPath id="clip0_4_1373">
<rect width="84" height="81" fill="white" transform="translate(81) rotate(90)"/>
</clipPath>
</defs>
</svg>
