<svg width="149" height="138" viewBox="0 0 149 138" fill="none" xmlns="http://www.w3.org/2000/svg">
<path d="M107.66 105.975C115.49 105.975 121.842 102.007 121.842 97.1114V84.8284C120.052 88.5117 114.379 91.2021 107.66 91.2021C100.941 91.2021 95.2682 88.5117 93.4777 84.8284V97.1114C93.4777 102.007 99.8301 105.975 107.66 105.975Z" fill="url(#paint0_linear_1912_14051)"/>
<path d="M122.433 82.3383V77.6109C122.433 78.4293 122.25 79.2224 121.901 79.9746C120.176 83.7222 114.456 86.4748 107.66 86.4748C100.864 86.4748 95.1441 83.7222 93.4186 79.9746C93.07 79.2224 92.8868 78.4293 92.8868 77.6109V82.3383C92.8868 83.2028 93.0936 84.0384 93.4777 84.8284C95.2682 88.5117 100.941 91.2022 107.66 91.2022C114.379 91.2022 120.052 88.5117 121.842 84.8284C122.226 84.0384 122.433 83.2028 122.433 82.3383Z" fill="#5F6A84"/>
<path d="M122.433 77.6109C122.433 78.4293 122.25 79.2223 121.901 79.9746C120.176 83.7222 114.456 86.4747 107.66 86.4747C100.864 86.4747 95.1441 83.7222 93.4186 79.9746C93.07 79.2223 92.8868 78.4293 92.8868 77.6109C92.8868 72.7157 99.4992 68.747 107.66 68.747C115.821 68.747 122.433 72.7157 122.433 77.6109Z" fill="#9DA4B4"/>
<path d="M133.661 120.748C141.49 120.748 147.843 116.78 147.843 111.885V99.6016C146.052 103.285 140.379 105.975 133.661 105.975C126.942 105.975 121.269 103.285 119.478 99.6016V111.885C119.478 116.78 125.831 120.748 133.661 120.748Z" fill="url(#paint1_linear_1912_14051)"/>
<path d="M148.434 97.1114V92.384C148.434 93.2025 148.25 93.9955 147.902 94.7477C146.176 98.4954 140.456 101.248 133.661 101.248C126.865 101.248 121.145 98.4954 119.419 94.7477C119.071 93.9955 118.887 93.2025 118.887 92.384V97.1114C118.887 97.976 119.094 98.8115 119.478 99.6016C121.269 103.285 126.942 105.975 133.661 105.975C140.379 105.975 146.052 103.285 147.843 99.6016C148.227 98.8115 148.434 97.976 148.434 97.1114Z" fill="#5F6A84"/>
<path d="M148.434 92.384C148.434 93.2024 148.25 93.9955 147.902 94.7477C146.176 98.4953 140.456 101.248 133.661 101.248C126.865 101.248 121.145 98.4953 119.419 94.7477C119.071 93.9955 118.887 93.2024 118.887 92.384C118.887 87.4888 125.5 83.5201 133.661 83.5201C141.821 83.5201 148.434 87.4888 148.434 92.384Z" fill="#9DA4B4"/>
<path d="M82.2501 123.703C90.0799 123.703 96.4323 119.734 96.4323 114.839V102.556C94.6418 106.239 88.9689 108.93 82.2501 108.93C75.5313 108.93 69.8584 106.239 68.0679 102.556V114.839C68.0679 119.734 74.4204 123.703 82.2501 123.703Z" fill="url(#paint2_linear_1912_14051)"/>
<path d="M97.0232 100.066V95.3386C97.0232 96.1571 96.84 96.9501 96.4914 97.7023C94.7659 101.45 89.0458 104.202 82.2501 104.202C75.4545 104.202 69.7344 101.45 68.0089 97.7023C67.6602 96.9501 67.477 96.1571 67.477 95.3386V100.066C67.477 100.931 67.6839 101.766 68.068 102.556C69.8585 106.239 75.5313 108.93 82.2501 108.93C88.9689 108.93 94.6418 106.239 96.4323 102.556C96.8164 101.766 97.0232 100.931 97.0232 100.066Z" fill="#5F6A84"/>
<path d="M97.0232 95.3386C97.0232 96.157 96.84 96.95 96.4914 97.7023C94.7659 101.45 89.0458 104.202 82.2501 104.202C75.4545 104.202 69.7344 101.45 68.0089 97.7023C67.6602 96.95 67.477 96.157 67.477 95.3386C67.477 90.4434 74.0895 86.4747 82.2501 86.4747C90.4108 86.4747 97.0232 90.4434 97.0232 95.3386Z" fill="#9DA4B4"/>
<path d="M107.66 137.885C115.49 137.885 121.842 133.917 121.842 129.021V116.738C120.052 120.422 114.379 123.112 107.66 123.112C100.941 123.112 95.2682 120.422 93.4777 116.738V129.021C93.4777 133.917 99.8301 137.885 107.66 137.885Z" fill="url(#paint3_linear_1912_14051)"/>
<path d="M122.433 114.248V109.521C122.433 110.339 122.25 111.132 121.901 111.885C120.176 115.632 114.456 118.385 107.66 118.385C100.864 118.385 95.1441 115.632 93.4186 111.885C93.07 111.132 92.8868 110.339 92.8868 109.521V114.248C92.8868 115.113 93.0936 115.948 93.4777 116.738C95.2682 120.422 100.941 123.112 107.66 123.112C114.379 123.112 120.052 120.422 121.842 116.738C122.226 115.948 122.433 115.113 122.433 114.248Z" fill="#5F6A84"/>
<path d="M122.433 109.521C122.433 110.339 122.25 111.132 121.901 111.884C120.176 115.632 114.456 118.385 107.66 118.385C100.864 118.385 95.1441 115.632 93.4186 111.884C93.07 111.132 92.8868 110.339 92.8868 109.521C92.8868 104.626 99.4992 100.657 107.66 100.657C115.821 100.657 122.433 104.626 122.433 109.521Z" fill="#9DA4B4"/>
<path d="M50.9311 54.7947C50.9311 57.2063 47.492 59.1611 43.2491 59.1611C39.0063 59.1611 35.5671 57.2063 35.5671 54.7947V57.2896C35.5671 59.7012 39.0063 61.656 43.2491 61.656C47.492 61.656 50.9311 59.7012 50.9311 57.2896V54.7947Z" fill="#4E5B7B"/>
<path d="M50.9311 54.7947C50.9311 57.2063 47.492 59.161 43.2491 59.161C39.0063 59.161 35.5671 57.2063 35.5671 54.7947C35.5671 52.3831 39.0063 50.4283 43.2491 50.4283C47.492 50.4283 50.9311 52.3831 50.9311 54.7947Z" fill="#717E9E"/>
<path d="M43.2491 58.1104C46.186 58.1104 48.5674 56.7873 48.5674 55.1558L46.2037 3.74535C46.2037 2.44 44.8801 1.38165 43.2491 1.38165C41.6182 1.38165 40.2945 2.44 40.2945 3.74535L37.9308 55.1558C37.9308 56.7873 40.3122 58.1104 43.2491 58.1104Z" fill="url(#paint4_linear_1912_14051)"/>
<path d="M46.2037 2.85895C46.2037 4.0012 44.8801 4.92718 43.2491 4.92718C41.6182 4.92718 40.2945 4.0012 40.2945 2.85895V4.0408C40.2945 5.18305 41.6182 6.10903 43.2491 6.10903C44.8801 6.10903 46.2037 5.18305 46.2037 4.0408V2.85895Z" fill="#B7B7B7"/>
<path d="M46.2037 2.85895C46.2037 4.0012 44.8801 4.92718 43.2491 4.92718C41.6182 4.92718 40.2945 4.0012 40.2945 2.85895C40.2945 1.71669 41.6182 0.79071 43.2491 0.79071C44.8801 0.79071 46.2037 1.71669 46.2037 2.85895Z" fill="#E9E9E9"/>
<path d="M38.8645 89.1629C38.3858 91.9414 39.999 93.859 42.1914 94.9179L47.4388 97.8495C49.7552 98.2495 52.0244 96.3213 52.503 93.5422C52.9817 90.7637 51.2266 88.8361 49.182 87.7872L45.2051 85.5701C44.3601 85.0973 43.4205 84.6713 42.4692 84.8716C40.6727 85.2516 39.2486 86.9546 38.8645 89.1629Z" fill="url(#paint5_linear_1912_14051)"/>
<path d="M51.8175 97.1114V107.157L64.8179 99.1796L65.1133 89.7249L51.8175 97.1114Z" fill="#9C9C9C"/>
<path fill-rule="evenodd" clip-rule="evenodd" d="M42.3627 91.4976L55.6585 84.1111L65.1133 89.7249L51.8175 97.1114L42.3627 91.4976Z" fill="#B7B7B7"/>
<path d="M42.3627 91.4976V101.543L51.8175 107.157V97.1114L42.3627 91.4976Z" fill="#B7B7B7"/>
<path fill-rule="evenodd" clip-rule="evenodd" d="M42.3627 91.4976L55.6585 84.1111L65.1133 89.7249L51.8175 97.1114L42.3627 91.4976Z" fill="#E9E9E9"/>
<path d="M53.8858 91.0018C53.8858 92.0224 52.4321 92.849 50.6357 92.849C48.8393 92.849 47.3856 92.0224 47.3856 91.0018V92.0578C47.3856 93.0777 48.8393 93.905 50.6357 93.905C52.4321 93.905 53.8858 93.0777 53.8858 92.0578V91.0018Z" fill="#4E5B7B"/>
<path d="M53.8858 91.0018C53.8858 92.0224 52.4321 92.8491 50.6357 92.8491C48.8393 92.8491 47.3856 92.0224 47.3856 91.0018C47.3856 89.9819 48.8393 89.1546 50.6357 89.1546C52.4321 89.1546 53.8858 89.9819 53.8858 91.0018Z" fill="#717E9E"/>
<path d="M50.6357 92.4035C51.8766 92.4035 52.8871 91.8439 52.8871 91.1537L51.8825 82.9942C51.8825 82.4423 51.3271 81.9944 50.6357 81.9944C49.9443 81.9944 49.3829 82.4423 49.3829 82.9942L48.3842 91.1537C48.3842 91.8439 49.3947 92.4035 50.6357 92.4035Z" fill="url(#paint6_linear_1912_14051)"/>
<path d="M51.8825 82.0316C51.8825 82.5149 51.3211 82.9067 50.6357 82.9067C49.9443 82.9067 49.3829 82.5149 49.3829 82.0316V82.5315C49.3829 83.0149 49.9443 83.4067 50.6357 83.4067C51.3211 83.4067 51.8825 83.0149 51.8825 82.5315V82.0316Z" fill="#B7B7B7"/>
<path d="M51.8825 82.0316C51.8825 82.515 51.3211 82.9068 50.6357 82.9068C49.9443 82.9068 49.3829 82.515 49.3829 82.0316C49.3829 81.5482 49.9443 81.1564 50.6357 81.1564C51.3211 81.1564 51.8825 81.5482 51.8825 82.0316Z" fill="#E9E9E9"/>
<path d="M59.795 87.4563C59.795 88.4768 58.3413 89.3035 56.5449 89.3035C54.7485 89.3035 53.2948 88.4768 53.2948 87.4563V88.5123C53.2948 89.5322 54.7485 90.3595 56.5449 90.3595C58.3413 90.3595 59.795 89.5322 59.795 88.5123V87.4563Z" fill="#4E5B7B"/>
<path d="M59.795 87.4563C59.795 88.4768 58.3413 89.3035 56.5449 89.3035C54.7485 89.3035 53.2948 88.4768 53.2948 87.4563C53.2948 86.4364 54.7485 85.6091 56.5449 85.6091C58.3413 85.6091 59.795 86.4364 59.795 87.4563Z" fill="#717E9E"/>
<path d="M56.5449 88.8579C57.7859 88.8579 58.7964 88.2983 58.7964 87.6081L57.7918 79.4486C57.7918 78.8967 57.2363 78.4488 56.5449 78.4488C55.8535 78.4488 55.2922 78.8967 55.2922 79.4486L54.2935 87.6081C54.2935 88.2983 55.304 88.8579 56.5449 88.8579Z" fill="url(#paint7_linear_1912_14051)"/>
<path d="M57.7918 78.486C57.7918 78.9694 57.2304 79.3612 56.5449 79.3612C55.8535 79.3612 55.2922 78.9694 55.2922 78.486V78.9859C55.2922 79.4693 55.8535 79.8611 56.5449 79.8611C57.2304 79.8611 57.7918 79.4693 57.7918 78.9859V78.486Z" fill="#B7B7B7"/>
<path d="M57.7918 78.4861C57.7918 78.9694 57.2304 79.3612 56.5449 79.3612C55.8535 79.3612 55.2922 78.9694 55.2922 78.4861C55.2922 78.0027 55.8535 77.6109 56.5449 77.6109C57.2304 77.6109 57.7918 78.0027 57.7918 78.4861Z" fill="#E9E9E9"/>
<path fill-rule="evenodd" clip-rule="evenodd" d="M54.4767 71.4062V59.2922L57.1358 60.7695V73.179L54.4767 71.4062Z" fill="#939393"/>
<path d="M57.1358 73.179L59.4995 71.4062V59.2922L57.1358 60.7695V73.179Z" fill="#787878"/>
<path fill-rule="evenodd" clip-rule="evenodd" d="M73.9772 83.5201V68.4515L76.6364 69.9288V85.2929L73.9772 83.5201Z" fill="#939393"/>
<path d="M76.6364 85.2929L79.0001 83.5201V68.4515L76.6364 69.9288V85.2929Z" fill="#787878"/>
<path fill-rule="evenodd" clip-rule="evenodd" d="M88.1594 75.4759V62.3514L90.8185 63.6385V77.02L88.1594 75.4759Z" fill="#939393"/>
<path d="M90.8185 77.02L93.1822 75.4759V62.3514L90.8185 63.6385V77.02Z" fill="#787878"/>
<path d="M93.4777 60.7695L75.75 70.5198V71.7016L93.4777 61.9514V60.7695Z" fill="#9C9C9C"/>
<path d="M75.75 70.5198L54.1812 58.1104V59.2922L75.75 71.7016V70.5198Z" fill="#B7B7B7"/>
<path d="M75.75 70.5198L54.1812 58.1104L72.7953 48.6556L93.4777 60.7695L75.75 70.5198Z" fill="#E9E9E9"/>
<path d="M63.3406 53.968C63.9847 56.6661 62.9624 59.2225 61.0596 59.6775C59.1568 60.1331 57.0886 58.3148 56.4445 55.6166C55.8003 52.9191 56.8167 50.3627 58.7254 49.9071C60.6282 49.4521 62.6965 51.2698 63.3406 53.968Z" fill="#B7B7B7"/>
<path d="M63.3406 53.968C63.831 56.0179 63.3582 57.9857 62.2709 59.0127L71.4835 53.9461C72.4054 53.4362 73.5045 53.1448 74.2254 52.3719C75.2182 51.3124 75.6259 49.4273 75.159 47.4678C74.6922 45.5083 73.469 44.0127 72.1099 43.5157C71.1171 43.1523 70.0712 43.6658 69.1434 44.1752L58.7254 49.9072C60.6282 49.4522 62.6964 51.2698 63.3406 53.968Z" fill="url(#paint8_linear_1912_14051)"/>
<path d="M70.4317 58.1044C71.0758 60.8026 70.0535 63.3589 68.1507 63.8139C66.2479 64.2696 64.1797 62.4513 63.5355 59.7531C62.8914 57.0555 63.9078 54.4992 65.8165 54.0436C67.7193 53.5886 69.7876 55.4063 70.4317 58.1044Z" fill="#B7B7B7"/>
<path d="M70.4316 58.1045C70.9221 60.1544 70.4493 62.1222 69.362 63.1492L78.5746 58.0826C79.4964 57.5726 80.5956 57.2813 81.3165 56.5084C82.3093 55.4489 82.717 53.5638 82.2501 51.6043C81.7833 49.6448 80.5601 48.1492 79.2009 47.6522C78.2082 47.2888 77.1622 47.8023 76.2345 48.3117L65.8165 54.0437C67.7193 53.5886 69.7875 55.4063 70.4316 58.1045Z" fill="url(#paint9_linear_1912_14051)"/>
<path d="M77.5228 62.2409C78.1669 64.9391 77.1446 67.4954 75.2418 67.9504C73.339 68.406 71.2708 66.5877 70.6266 63.8896C69.9825 61.192 70.9989 58.6357 72.9076 58.1801C74.8104 57.7251 76.8787 59.5427 77.5228 62.2409Z" fill="#B7B7B7"/>
<path d="M77.5227 62.2409C78.0132 64.2909 77.5404 66.2587 76.4531 67.2857L85.6657 62.2191C86.5875 61.7091 87.6867 61.4178 88.4076 60.6449C89.4003 59.5853 89.8081 57.7003 89.3412 55.7408C88.8744 53.7813 87.6512 52.2856 86.292 51.7887C85.2993 51.4253 84.2533 51.9388 83.3256 52.4481L72.9076 58.1801C74.8104 57.7251 76.8786 59.5428 77.5227 62.2409Z" fill="url(#paint10_linear_1912_14051)"/>
<path fill-rule="evenodd" clip-rule="evenodd" d="M0.998024 76.1336V64.0197L3.65718 65.497V77.9064L0.998024 76.1336Z" fill="#939393"/>
<path d="M3.65718 77.9064L6.02088 76.1336V64.0197L3.65718 65.497V77.9064Z" fill="#787878"/>
<path fill-rule="evenodd" clip-rule="evenodd" d="M20.4985 88.2475V73.179L23.1577 74.6563V90.0203L20.4985 88.2475Z" fill="#939393"/>
<path d="M23.1577 90.0203L25.5214 88.2475V73.179L23.1577 74.6563V90.0203Z" fill="#787878"/>
<path fill-rule="evenodd" clip-rule="evenodd" d="M34.6807 80.2033V67.0789L37.3399 68.3659V81.7474L34.6807 80.2033Z" fill="#939393"/>
<path d="M37.3399 81.7474L39.7036 80.2033V67.0789L37.3399 68.3659V81.7474Z" fill="#787878"/>
<path d="M39.999 65.4969L22.2713 75.2472V76.4291L39.999 66.6788V65.4969Z" fill="#9C9C9C"/>
<path d="M22.2713 75.2472L0.70256 62.8378V64.0196L22.2713 76.429V75.2472Z" fill="#B7B7B7"/>
<path d="M22.2713 75.2472L0.70256 62.8378L19.3167 53.383L39.999 65.4969L22.2713 75.2472Z" fill="#E9E9E9"/>
<path d="M9.86069 58.6954C10.506 61.3935 9.48485 63.9499 7.58031 64.4049C5.67576 64.8605 3.60932 63.0422 2.96403 60.3441C2.31933 57.6465 3.34042 55.0901 5.24438 54.6345C7.14893 54.1795 9.21599 55.9972 9.86069 58.6954Z" fill="#B7B7B7"/>
<path d="M9.8607 58.6954C10.3512 60.7453 9.87962 62.7131 8.78936 63.7401L18.0048 58.6736C18.9267 58.1636 20.0258 57.8723 20.7467 57.0993C21.7395 56.0398 22.1472 54.1547 21.6804 52.1952C21.2136 50.2357 19.9904 48.7401 18.6312 48.2431C17.6385 47.8797 16.5925 48.3932 15.6648 48.9026L5.24439 54.6346C7.14894 54.1796 9.216 55.9973 9.8607 58.6954Z" fill="url(#paint11_linear_1912_14051)"/>
<path d="M16.953 62.8318C17.5971 65.53 16.5748 68.0864 14.6714 68.5414C12.7669 68.997 10.7004 67.1787 10.0551 64.4805C9.41043 61.783 10.4315 59.2266 12.3355 58.771C14.24 58.316 16.3089 60.1337 16.953 62.8318Z" fill="#B7B7B7"/>
<path d="M16.953 62.8319C17.4435 64.8818 16.9707 66.8496 15.8834 67.8766L25.0959 62.81C26.0178 62.3001 27.1169 62.0087 27.8378 61.2358C28.8306 60.1763 29.2383 58.2912 28.7715 56.3317C28.3046 54.3722 27.0814 52.8766 25.7223 52.3796C24.7296 52.0162 23.6836 52.5297 22.7559 53.0391L12.3355 58.7711C14.24 58.3161 16.3089 60.1337 16.953 62.8319Z" fill="url(#paint12_linear_1912_14051)"/>
<path d="M24.0441 66.9683C24.6882 69.6665 23.6659 72.2228 21.7631 72.6778C19.8604 73.1334 17.7921 71.3152 17.148 68.617C16.5039 65.9194 17.5203 63.3631 19.429 62.9075C21.3317 62.4525 23.4 64.2702 24.0441 66.9683Z" fill="#B7B7B7"/>
<path d="M24.0441 66.9684C24.5345 69.0183 24.0618 70.9861 22.9745 72.0131L32.187 66.9465C33.1089 66.4365 34.208 66.1452 34.9289 65.3723C35.9217 64.3128 36.3294 62.4277 35.8626 60.4682C35.3957 58.5087 34.1725 57.0131 32.8134 56.5161C31.8206 56.1527 30.7747 56.6662 29.8469 57.1756L19.429 62.9075C21.3317 62.4525 23.4 64.2702 24.0441 66.9684Z" fill="url(#paint13_linear_1912_14051)"/>
<defs>
<linearGradient id="paint0_linear_1912_14051" x1="93.7732" y1="93.5658" x2="121.547" y2="93.5658" gradientUnits="userSpaceOnUse">
<stop stop-color="#ABABAB"/>
<stop offset="1" stop-color="#7D7D7D"/>
</linearGradient>
<linearGradient id="paint1_linear_1912_14051" x1="119.774" y1="108.339" x2="147.547" y2="108.339" gradientUnits="userSpaceOnUse">
<stop stop-color="#ABABAB"/>
<stop offset="1" stop-color="#7D7D7D"/>
</linearGradient>
<linearGradient id="paint2_linear_1912_14051" x1="68.3634" y1="111.294" x2="96.1369" y2="111.294" gradientUnits="userSpaceOnUse">
<stop stop-color="#ABABAB"/>
<stop offset="1" stop-color="#7D7D7D"/>
</linearGradient>
<linearGradient id="paint3_linear_1912_14051" x1="93.7732" y1="125.476" x2="121.547" y2="125.476" gradientUnits="userSpaceOnUse">
<stop stop-color="#ABABAB"/>
<stop offset="1" stop-color="#7D7D7D"/>
</linearGradient>
<linearGradient id="paint4_linear_1912_14051" x1="35.5671" y1="24.7232" x2="48.5674" y2="24.7232" gradientUnits="userSpaceOnUse">
<stop stop-color="#C6C6C6"/>
<stop offset="1" stop-color="#808080"/>
</linearGradient>
<linearGradient id="paint5_linear_1912_14051" x1="44.431" y1="87.6566" x2="43.2491" y2="95.9296" gradientUnits="userSpaceOnUse">
<stop stop-color="#C6C6C6"/>
<stop offset="1" stop-color="#808080"/>
</linearGradient>
<linearGradient id="paint6_linear_1912_14051" x1="47.3855" y1="78.2787" x2="52.8871" y2="78.2787" gradientUnits="userSpaceOnUse">
<stop stop-color="#C6C6C6"/>
<stop offset="1" stop-color="#808080"/>
</linearGradient>
<linearGradient id="paint7_linear_1912_14051" x1="53.2948" y1="74.7331" x2="58.7964" y2="74.7331" gradientUnits="userSpaceOnUse">
<stop stop-color="#C6C6C6"/>
<stop offset="1" stop-color="#808080"/>
</linearGradient>
<linearGradient id="paint8_linear_1912_14051" x1="64.4337" y1="47.0146" x2="70.6384" y2="57.3558" gradientUnits="userSpaceOnUse">
<stop stop-color="#D1D1D1"/>
<stop offset="0.286458" stop-color="#F3F3F3"/>
<stop offset="1" stop-color="#7B7B7B"/>
</linearGradient>
<linearGradient id="paint9_linear_1912_14051" x1="71.5248" y1="51.1511" x2="77.7295" y2="61.4923" gradientUnits="userSpaceOnUse">
<stop stop-color="#D1D1D1"/>
<stop offset="0.286458" stop-color="#F3F3F3"/>
<stop offset="1" stop-color="#7B7B7B"/>
</linearGradient>
<linearGradient id="paint10_linear_1912_14051" x1="78.6159" y1="55.2875" x2="84.8206" y2="65.6287" gradientUnits="userSpaceOnUse">
<stop stop-color="#D1D1D1"/>
<stop offset="0.286458" stop-color="#F3F3F3"/>
<stop offset="1" stop-color="#7B7B7B"/>
</linearGradient>
<linearGradient id="paint11_linear_1912_14051" x1="10.9563" y1="51.742" x2="17.1598" y2="62.0832" gradientUnits="userSpaceOnUse">
<stop stop-color="#D1D1D1"/>
<stop offset="0.286458" stop-color="#F3F3F3"/>
<stop offset="1" stop-color="#7B7B7B"/>
</linearGradient>
<linearGradient id="paint12_linear_1912_14051" x1="18.0462" y1="55.8785" x2="24.2509" y2="66.2197" gradientUnits="userSpaceOnUse">
<stop stop-color="#D1D1D1"/>
<stop offset="0.286458" stop-color="#F3F3F3"/>
<stop offset="1" stop-color="#7B7B7B"/>
</linearGradient>
<linearGradient id="paint13_linear_1912_14051" x1="25.1373" y1="60.015" x2="31.342" y2="70.3561" gradientUnits="userSpaceOnUse">
<stop stop-color="#D1D1D1"/>
<stop offset="0.286458" stop-color="#F3F3F3"/>
<stop offset="1" stop-color="#7B7B7B"/>
</linearGradient>
</defs>
</svg>
