<svg width="96" height="88" viewBox="0 0 96 88" fill="none" xmlns="http://www.w3.org/2000/svg">
<g clip-path="url(#clip0_15_2229)">
<path d="M60.3737 59.6587C60.3737 60.5538 60.5855 61.2793 60.847 61.2793C61.1077 61.2793 61.3195 60.5538 61.3195 59.6587C61.3195 58.7635 61.1077 58.038 60.847 58.038C60.5855 58.038 60.3737 58.7635 60.3737 59.6587Z" fill="#ABAEB5"/>
<path d="M78.5133 71.3292C79.4076 71.3292 80.1331 71.1174 80.1331 70.8559C80.1331 70.5952 79.4076 70.3834 78.5133 70.3834C77.6182 70.3834 76.8926 70.5952 76.8926 70.8559C76.8926 71.1174 77.6182 71.3292 78.5133 71.3292Z" fill="#ABAEB5"/>
<path d="M60.8469 61.2793C61.1076 61.2793 61.3193 60.5538 61.3193 59.6587C61.3193 58.7635 61.1076 58.038 60.8469 58.038H77.1626C79.4987 58.038 80.1331 59.4966 80.1331 61.049V70.8558C80.1331 70.5951 79.4076 70.3834 78.5133 70.3834C77.6182 70.3834 76.8926 70.5951 76.8926 70.8558V62.4807C76.928 62.08 76.8951 61.2793 76.4741 61.2793H60.8469Z" fill="#ABAEB5"/>
<path d="M63.1407 62.193C63.1407 63.0882 63.3525 63.8129 63.6132 63.8129C63.8739 63.8129 64.0856 63.0882 64.0856 62.193C64.0856 61.2979 63.8739 60.5724 63.6132 60.5724C63.3525 60.5724 63.1407 61.2979 63.1407 62.193Z" fill="#A0A5B0"/>
<path d="M81.2796 73.8635C82.1747 73.8635 82.9003 73.6517 82.9003 73.3902C82.9003 73.1295 82.1747 72.9177 81.2796 72.9177C80.3845 72.9177 79.6589 73.1295 79.6589 73.3902C79.6589 73.6517 80.3845 73.8635 81.2796 73.8635Z" fill="#A0A5B0"/>
<path d="M63.6133 63.8129C63.874 63.8129 64.0857 63.0882 64.0857 62.193C64.0857 61.2979 63.874 60.5724 63.6133 60.5724H79.929C82.2651 60.5724 82.9004 62.0311 82.9004 63.5834V73.3902C82.9004 73.1295 82.1748 72.9178 81.2797 72.9178C80.3846 72.9178 79.659 73.1295 79.659 73.3902V65.0151C79.6953 64.6144 79.6615 63.8129 79.2406 63.8129H63.6133Z" fill="#A0A5B0"/>
<path d="M66.0591 64.7173C66.0591 65.6124 66.27 66.338 66.5315 66.338C66.7922 66.338 67.004 65.6124 67.004 64.7173C67.004 63.8221 66.7922 63.0966 66.5315 63.0966C66.27 63.0966 66.0591 63.8221 66.0591 64.7173Z" fill="#ABAEB5"/>
<path d="M84.1978 76.3877C85.093 76.3877 85.8186 76.176 85.8186 75.9145C85.8186 75.6538 85.093 75.442 84.1978 75.442C83.3027 75.442 82.5771 75.6538 82.5771 75.9145C82.5771 76.176 83.3027 76.3877 84.1978 76.3877Z" fill="#ABAEB5"/>
<path d="M66.5315 66.338C66.7922 66.338 67.004 65.6124 67.004 64.7173C67.004 63.8221 66.7922 63.0966 66.5315 63.0966H82.8472C85.1833 63.0966 85.8186 64.5553 85.8186 66.1085V75.9145C85.8186 75.6538 85.093 75.442 84.1979 75.442C83.3028 75.442 82.5772 75.6538 82.5772 75.9145V67.5394C82.6135 67.1386 82.5798 66.338 82.1588 66.338H66.5315Z" fill="#ABAEB5"/>
<path d="M69.1309 67.2483C69.1309 68.1434 69.3426 68.869 69.6042 68.869C69.8649 68.869 70.0766 68.1434 70.0766 67.2483C70.0766 66.3531 69.8649 65.6276 69.6042 65.6276C69.3426 65.6276 69.1309 66.3531 69.1309 67.2483Z" fill="#A0A5B0"/>
<path d="M87.2697 78.9188C88.1649 78.9188 88.8904 78.707 88.8904 78.4455C88.8904 78.1848 88.1649 77.973 87.2697 77.973C86.3755 77.973 85.6499 78.1848 85.6499 78.4455C85.6499 78.707 86.3755 78.9188 87.2697 78.9188Z" fill="#A0A5B0"/>
<path d="M69.6042 68.869C69.8649 68.869 70.0766 68.1434 70.0766 67.2483C70.0766 66.3531 69.8649 65.6276 69.6042 65.6276H85.9199C88.256 65.6276 88.8904 67.0863 88.8904 68.6395V78.4455C88.8904 78.1848 88.1649 77.973 87.2697 77.973C86.3755 77.973 85.6499 78.1848 85.6499 78.4455V70.0704C85.6853 69.6696 85.6524 68.869 85.2306 68.869H69.6042Z" fill="#A0A5B0"/>
<path d="M72.4019 69.7827C72.4019 70.6778 72.6136 71.4033 72.8743 71.4033C73.1359 71.4033 73.3476 70.6778 73.3476 69.7827C73.3476 68.8876 73.1359 68.162 72.8743 68.162C72.6136 68.162 72.4019 68.8876 72.4019 69.7827Z" fill="#ABAEB5"/>
<path d="M90.5406 81.4532C91.4358 81.4532 92.1613 81.2414 92.1613 80.9799C92.1613 80.7192 91.4358 80.5074 90.5406 80.5074C89.6463 80.5074 88.9208 80.7192 88.9208 80.9799C88.9208 81.2414 89.6463 81.4532 90.5406 81.4532Z" fill="#ABAEB5"/>
<path d="M72.8741 71.4033C73.1356 71.4033 73.3475 70.6778 73.3475 69.7827C73.3475 68.8876 73.1356 68.162 72.8741 68.162H89.1906C91.5268 68.162 92.1612 69.6207 92.1612 71.173V80.9798C92.1612 80.7191 91.4358 80.5074 90.5406 80.5074C89.6462 80.5074 88.9207 80.7191 88.9207 80.9798V72.6047C88.9561 72.204 88.9233 71.4033 88.5014 71.4033H72.8741Z" fill="#ABAEB5"/>
<path d="M75.7874 72.3069C75.7874 73.202 75.9992 73.9275 76.2599 73.9275C76.5214 73.9275 76.7323 73.202 76.7323 72.3069C76.7323 71.4117 76.5214 70.6862 76.2599 70.6862C75.9992 70.6862 75.7874 71.4117 75.7874 72.3069Z" fill="#A0A5B0"/>
<path d="M93.9264 83.9773C94.8215 83.9773 95.5471 83.7656 95.5471 83.5049C95.5471 83.2434 94.8215 83.0316 93.9264 83.0316C93.0312 83.0316 92.3057 83.2434 92.3057 83.5049C92.3057 83.7656 93.0312 83.9773 93.9264 83.9773Z" fill="#A0A5B0"/>
<path d="M76.2599 73.9275C76.5214 73.9275 76.7323 73.202 76.7323 72.3069C76.7323 71.4117 76.5214 70.6862 76.2599 70.6862H92.5756C94.9125 70.6862 95.547 72.1449 95.547 73.6981V83.5048C95.547 83.2433 94.8214 83.0316 93.9263 83.0316C93.0311 83.0316 92.3056 83.2433 92.3056 83.5048V75.1289C92.3419 74.7282 92.3081 73.9275 91.8871 73.9275H76.2599Z" fill="#A0A5B0"/>
<path d="M29.2061 28.4227H79.9949V80.9621H29.2061V28.4227Z" fill="#BBB9B9"/>
<path d="M17.8417 25.4648V63.7159L29.2059 80.9621V28.4227L17.8417 25.4648Z" fill="#BBB9B9"/>
<path d="M58.6289 25.4648H17.8417L29.2059 28.4227H79.9948L58.6289 25.4648Z" fill="#BBB9B9"/>
<path d="M17.8417 25.4648V63.7159L29.2059 80.9621V28.4227L17.8417 25.4648Z" fill="#D1D0D0"/>
<path d="M58.5707 25.4648H17.8417L29.2059 28.4227H79.9365L58.5707 25.4648Z" fill="#D1D0D0"/>
<path d="M66.7992 32.6224H45.1995V74.8102H66.7992V32.6224Z" fill="#4E5B7B"/>
<path d="M17.8401 25.4606L18.9301 25.744L28.5623 28.2514L29.2043 28.4185V26.764L23.8799 25.4606L17.8401 23.9816V25.4606Z" fill="#7284AF"/>
<path d="M29.2044 80.9554V28.4184L28.5623 28.2514V79.9826L29.2044 80.9554Z" fill="#7284AF"/>
<path d="M18.9301 25.744L17.8401 25.4606V62.6056L18.9301 64.2398V25.744Z" fill="#7284AF"/>
<path d="M79.9931 28.4185V26.764H29.2043V28.4185H30.9945H63.064H77.97H79.9931Z" fill="#4E5B7B"/>
<path d="M79.9931 80.9554V28.4185H77.97V80.9554H79.9931Z" fill="#4E5B7B"/>
<path d="M29.2043 28.4185V80.9554H30.9945V28.4185H29.2043Z" fill="#4E5B7B"/>
<path d="M79.9931 26.764L58.6272 23.9816H17.8401L23.8799 25.4606L29.2043 26.764H79.9931Z" fill="#717E9E"/>
<path d="M19.9686 60.8255C19.9686 61.7198 19.7568 62.4454 19.4961 62.4454C19.2346 62.4454 19.0237 61.7198 19.0237 60.8255C19.0237 59.9304 19.2346 59.2048 19.4961 59.2048C19.7568 59.2048 19.9686 59.9304 19.9686 60.8255Z" fill="#AEB1B9"/>
<path d="M1.82968 72.4951C0.934556 72.4951 0.208984 72.2842 0.208984 72.0226C0.208984 71.7619 0.934556 71.5502 1.82968 71.5502C2.72482 71.5502 3.45036 71.7619 3.45036 72.0226C3.45036 72.2842 2.72482 72.4951 1.82968 72.4951Z" fill="#AEB1B9"/>
<path d="M19.4962 62.4454C19.2346 62.4454 19.0237 61.7198 19.0237 60.8255C19.0237 59.9304 19.2346 59.2048 19.4962 59.2048H3.17956C0.843446 59.2048 0.208984 60.6636 0.208984 62.2159V72.0227C0.208984 71.762 0.934556 71.5502 1.82968 71.5502C2.72482 71.5502 3.45036 71.762 3.45036 72.0227V63.6476C3.41409 63.2468 3.44699 62.4454 3.86882 62.4454H19.4962Z" fill="#AEB1B9"/>
<path d="M21.526 63.1253C21.526 64.0204 21.3143 64.7459 21.0527 64.7459C20.7921 64.7459 20.5803 64.0204 20.5803 63.1253C20.5803 62.2301 20.7921 61.5046 21.0527 61.5046C21.3143 61.5046 21.526 62.2301 21.526 63.1253Z" fill="#A3A6AE"/>
<path d="M3.38719 74.7957C2.49206 74.7957 1.76648 74.5839 1.76648 74.3232C1.76648 74.0617 2.49206 73.8508 3.38719 73.8508C4.28148 73.8508 5.00702 74.0617 5.00702 74.3232C5.00702 74.5839 4.28148 74.7957 3.38719 74.7957Z" fill="#A3A6AE"/>
<path d="M21.0528 64.7459C20.7921 64.7459 20.5803 64.0204 20.5803 63.1253C20.5803 62.2301 20.7921 61.5046 21.0528 61.5046H4.73704C2.40092 61.5046 1.76648 62.9633 1.76648 64.5165V74.3232C1.76648 74.0617 2.49206 73.8508 3.38719 73.8508C4.28148 73.8508 5.00702 74.0617 5.00702 74.3232V65.9482C4.97158 65.5474 5.00449 64.7459 5.42633 64.7459H21.0528Z" fill="#A3A6AE"/>
<path d="M23.0826 65.4192C23.0826 66.3144 22.8717 67.0399 22.6102 67.0399C22.3495 67.0399 22.1377 66.3144 22.1377 65.4192C22.1377 64.5241 22.3495 63.7985 22.6102 63.7985C22.8717 63.7985 23.0826 64.5241 23.0826 65.4192Z" fill="#AEB1B9"/>
<path d="M4.94371 77.0896C4.04858 77.0896 3.323 76.8778 3.323 76.6171C3.323 76.3556 4.04858 76.1439 4.94371 76.1439C5.83884 76.1439 6.56439 76.3556 6.56439 76.6171C6.56439 76.8778 5.83884 77.0896 4.94371 77.0896Z" fill="#AEB1B9"/>
<path d="M22.6101 67.0399C22.3494 67.0399 22.1377 66.3144 22.1377 65.4192C22.1377 64.5241 22.3494 63.7985 22.6101 63.7985H6.29441C3.95829 63.7985 3.323 65.2572 3.323 66.8104V76.6172C3.323 76.3557 4.04858 76.1439 4.94371 76.1439C5.83884 76.1439 6.56439 76.3557 6.56439 76.6172V68.2413C6.52811 67.8405 6.56186 67.0399 6.98285 67.0399H22.6101Z" fill="#AEB1B9"/>
<path d="M24.6427 67.7097C24.6427 68.6048 24.4309 69.3304 24.1702 69.3304C23.9087 69.3304 23.6978 68.6048 23.6978 67.7097C23.6978 66.8146 23.9087 66.0891 24.1702 66.0891C24.4309 66.0891 24.6427 66.8146 24.6427 67.7097Z" fill="#A3A6AE"/>
<path d="M6.50363 79.3802C5.6085 79.3802 4.88293 79.1685 4.88293 78.907C4.88293 78.6463 5.6085 78.4345 6.50363 78.4345C7.39877 78.4345 8.12431 78.6463 8.12431 78.907C8.12431 79.1685 7.39877 79.3802 6.50363 79.3802Z" fill="#A3A6AE"/>
<path d="M24.1701 69.3304C23.9085 69.3304 23.6976 68.6048 23.6976 67.7097C23.6976 66.8146 23.9085 66.0891 24.1701 66.0891H7.85433C5.51737 66.0891 4.88293 67.5477 4.88293 69.1001V78.9069C4.88293 78.6462 5.6085 78.4344 6.50363 78.4344C7.39877 78.4344 8.12431 78.6462 8.12431 78.9069V70.5318C8.08804 70.1311 8.12178 69.3304 8.54277 69.3304H24.1701Z" fill="#A3A6AE"/>
<path d="M26.1982 70.0129C26.1982 70.9081 25.9864 71.6336 25.7258 71.6336C25.4642 71.6336 25.2524 70.9081 25.2524 70.0129C25.2524 69.1178 25.4642 68.3923 25.7258 68.3923C25.9864 68.3923 26.1982 69.1178 26.1982 70.0129Z" fill="#AEB1B9"/>
<path d="M8.05942 81.6834C7.16429 81.6834 6.43872 81.4717 6.43872 81.211C6.43872 80.9494 7.16429 80.7385 8.05942 80.7385C8.95371 80.7385 9.67925 80.9494 9.67925 81.211C9.67925 81.4717 8.95371 81.6834 8.05942 81.6834Z" fill="#AEB1B9"/>
<path d="M25.7258 71.6336C25.4643 71.6336 25.2525 70.9081 25.2525 70.0129C25.2525 69.1178 25.4643 68.3923 25.7258 68.3923H9.40929C7.07318 68.3923 6.43872 69.851 6.43872 71.4042V81.2109C6.43872 80.9494 7.16429 80.7385 8.05942 80.7385C8.95371 80.7385 9.67925 80.9494 9.67925 81.2109V72.8358C9.64381 72.4351 9.67673 71.6336 10.0985 71.6336H25.7258Z" fill="#AEB1B9"/>
<path d="M27.754 72.3069C27.754 73.202 27.5424 73.9275 27.2808 73.9275C27.0201 73.9275 26.8083 73.202 26.8083 72.3069C26.8083 71.4117 27.0201 70.6862 27.2808 70.6862C27.5424 70.6862 27.754 71.4117 27.754 72.3069Z" fill="#A3A6AE"/>
<path d="M9.61421 83.9773C8.71992 83.9773 7.99438 83.7656 7.99438 83.5049C7.99438 83.2434 8.71992 83.0316 9.61421 83.0316C10.5094 83.0316 11.2349 83.2434 11.2349 83.5049C11.2349 83.7656 10.5094 83.9773 9.61421 83.9773Z" fill="#A3A6AE"/>
<path d="M27.2807 73.9275C27.02 73.9275 26.8082 73.202 26.8082 72.3069C26.8082 71.4117 27.02 70.6862 27.2807 70.6862H10.965C8.62882 70.6862 7.99438 72.1449 7.99438 73.6981V83.5048C7.99438 83.2433 8.71992 83.0316 9.61421 83.0316C10.5094 83.0316 11.2349 83.2433 11.2349 83.5048V75.1289C11.1987 74.7282 11.2324 73.9275 11.6534 73.9275H27.2807Z" fill="#A3A6AE"/>
<path d="M76.7071 84.9695V87.568H52.444L45.1995 83.8609V75.6099H66.799L69.5562 76.3885L69.5823 78.5483L72.3006 79.3271V81.4286L74.4326 82.2065V84.1917L76.7071 84.9695Z" fill="#717E9E"/>
<path fill-rule="evenodd" clip-rule="evenodd" d="M47.0293 78.5484L48.8828 79.3271H70.4833H72.3005L69.5822 78.5484H47.0293ZM48.8828 81.4287L50.7001 82.2065H74.4325L72.3005 81.4287H48.8828ZM52.4439 84.9696L50.7001 84.1917H74.4325L76.707 84.9696H74.0435H52.4439Z" fill="#4E5B7B"/>
<path d="M47.0294 76.3885H68.629H69.5562L66.799 75.6099H45.1995L47.0294 76.3885Z" fill="#4E5B7B"/>
<path d="M68.6289 76.3885H47.0293V78.5483H69.5822L69.5561 76.3885H68.6289Z" fill="#3C4967"/>
<path d="M70.4833 79.3271H48.8828V81.4286H72.3005V79.3271H70.4833Z" fill="#3C4967"/>
<path d="M50.7001 82.2065V84.1917H74.4325V82.2065H50.7001Z" fill="#3C4967"/>
<path d="M74.0435 84.9695H52.4438V87.5681H76.7069V84.9695H74.0435Z" fill="#3C4967"/>
<path d="M11.3725 0.66687C12.0559 0.66687 12.611 0.825497 12.611 1.02207C12.611 1.2178 12.0559 1.3764 11.3725 1.3764C10.6883 1.3764 10.134 1.2178 10.134 1.02207C10.134 0.825497 10.6883 0.66687 11.3725 0.66687Z" fill="#727580"/>
<path d="M20.2917 48.1383C20.2917 48.8099 20.1297 49.354 19.9298 49.354C19.7307 49.354 19.5687 48.8099 19.5687 48.1383C19.5687 47.4668 19.7307 46.9218 19.9298 46.9218C20.1297 46.9218 20.2917 47.4668 20.2917 48.1383Z" fill="#727580"/>
<path d="M12.611 1.02197C12.611 1.2177 12.0559 1.3763 11.3725 1.3763C10.6883 1.3763 10.134 1.2177 10.134 1.02197V47.1242C10.134 48.8774 11.2485 49.354 12.4355 49.354H19.9298C19.7307 49.354 19.5687 48.8099 19.5687 48.1383C19.5687 47.4667 19.7307 46.9217 19.9298 46.9217H13.5289C13.2235 46.9487 12.611 46.9243 12.611 46.6079V1.02197Z" fill="#727580"/>
</g>
<defs>
<clipPath id="clip0_15_2229">
<rect width="96" height="88" fill="white"/>
</clipPath>
</defs>
</svg>
