<?xml version="1.0" encoding="UTF-8" standalone="no"?>
<svg
   version="1.1"
   width="82"
   viewBox="0 0 82.000001 60.959702"
   height="60.959702"
   id="svg8971"
   sodipodi:docname="r_Реактор шунтирующий с возможностью регулирования.svg"
   inkscape:version="1.2.1 (9c6d41e, 2022-07-14)"
   xmlns:inkscape="http://www.inkscape.org/namespaces/inkscape"
   xmlns:sodipodi="http://sodipodi.sourceforge.net/DTD/sodipodi-0.dtd"
   xmlns="http://www.w3.org/2000/svg"
   xmlns:svg="http://www.w3.org/2000/svg">
  <defs
     id="defs8973" />
  <g
     id="g8969">
    <g
       transform="rotate(180,41,30.479851)"
       id="g8967">
      <defs
         id="defs2545" />
      <sodipodi:namedview
         id="namedview2543"
         pagecolor="#ffffff"
         bordercolor="#111111"
         borderopacity="1"
         inkscape:showpageshadow="0"
         inkscape:pageopacity="0"
         inkscape:pagecheckerboard="1"
         inkscape:deskcolor="#d1d1d1"
         showgrid="false"
         inkscape:zoom="9.2197802"
         inkscape:cx="36.551848"
         inkscape:cy="39.534565"
         inkscape:window-width="1846"
         inkscape:window-height="1016"
         inkscape:window-x="0"
         inkscape:window-y="0"
         inkscape:window-maximized="1"
         inkscape:current-layer="svg8971" />
      <g
         id="g2539"
         transform="translate(-4.5,-5.9334)">
        <g
           transform="rotate(-90,45.5,41)"
           id="g2537">
          <g
             clip-path="url(#clip0_53_206)"
             id="g2530">
            <path
               fill-rule="evenodd"
               clip-rule="evenodd"
               d="M 68.9999,34.5 C 68.9999,21.5213 58.4786,11 45.4999,11 V 9 c 14.0833,0 25.5,11.4167 25.5,25.5 0,14.0833 -11.4167,25.5 -25.5,25.5 -14.0833,0 -25.5,-11.4167 -25.5,-25.5 h 2 c 0,12.9787 10.5213,23.5 23.5,23.5 12.9787,0 23.5,-10.5213 23.5,-23.5 z"
               fill="#000000"
               id="path2514" />
            <path
               fill-rule="evenodd"
               clip-rule="evenodd"
               d="m 45.9999,35 h -26 v -1 h 26 z"
               fill="#000000"
               id="path2516" />
            <path
               fill-rule="evenodd"
               clip-rule="evenodd"
               d="M 44.9999,71 V 34 h 1 v 37 z"
               fill="#000000"
               id="path2518" />
            <path
               fill-rule="evenodd"
               clip-rule="evenodd"
               d="m 45.9999,0 v 11 h -1 V 4.37114e-8 Z"
               fill="#000000"
               id="path2520" />
            <path
               fill-rule="evenodd"
               clip-rule="evenodd"
               d="m 36.9999,71 h 17 v 1 h -17 z"
               fill="#000000"
               id="path2522" />
            <path
               fill-rule="evenodd"
               clip-rule="evenodd"
               d="m 43.9999,81 h 3 v 1 h -3 z"
               fill="#000000"
               id="path2524" />
            <path
               fill-rule="evenodd"
               clip-rule="evenodd"
               d="m 40.9999,76 h 9 v 1 h -9 z"
               fill="#000000"
               id="path2526" />
            <path
               fill-rule="evenodd"
               clip-rule="evenodd"
               d="m 70.534,16.6795 10.0326,-4.0536 -6.4522,8.2505 -0.7878,-0.616 2.935,-3.7529 -56.0509,42.4563 -0.6038,-0.7971 56.1146,-42.5046 -4.8129,1.9446 z"
               fill="#000000"
               id="path2528" />
          </g>
          <defs
             id="defs2535">
            <clipPath
               id="clip0_53_206">
              <rect
                 width="91"
                 height="82"
                 fill="#ffffff"
                 id="rect2532"
                 x="0"
                 y="0" />
            </clipPath>
          </defs>
        </g>
      </g>
    </g>
  </g>
</svg>
