<svg height="2048" width="2048" xmlns="http://www.w3.org/2000/svg"><path d="m1024.0215 99.355469c-19.3234-.016932-38.64591 7.149111-52.98048 21.550781l-850.10352 850.11133c-28.66915 28.66788-28.536351 77.29502.13281 105.96292l849.97071 849.9648c28.66915 28.6776 77.29378 28.8033 105.96288 0l850.1055-850.0996c28.6691-28.6679 28.5364-77.29696-.1348-105.96484l-849.9726-849.97461c-14.3346-14.33394-33.6571-21.533849-52.9805-21.550781zm-.0645 126.044921 798.6602 798.66601-798.6602 798.6563-798.66012-798.6563zm-298.27145 444.38672c-.01376.00072-9.61179 1.83789-9.61914 1.83789-.01001 0-8.14488 5.51367-8.15039 5.51367l-30.73243 30.73828c-.00999 0-5.61057 8.22552-5.61328 8.32227 0 .00967-1.737 9.48047-1.73633 9.48047-.00069.00967 1.86771 9.38476 1.8711 9.38476 0 .00968 5.33756 8.32227 5.34375 8.32227l280.70703 280.69918-280.57227 280.5743v-.0879c0 .0096-5.61057 8.3203-5.61328 8.3203 0 .0097-1.73633 9.4824-1.73633 9.4824 0 .0194 1.86829 9.3848 1.8711 9.3848 0 0 5.33843 8.2235 5.34375 8.3203l30.73437 30.7285c.01001.0097 8.41062 5.5156 8.41797 5.5156.01 0 9.3452 1.8379 9.35352 1.8379.01 0 9.47878-1.7402 9.48633-1.7402.00999 0 8.27964-5.6133 8.28515-5.6133l280.57613-280.582 280.6368 280.6406c.01.0097 8.4121 5.5156 8.4179 5.5156.0101 0 9.3458 1.8379 9.3535 1.8379.0101 0 9.4806-1.7422 9.4883-1.7422.0101 0 8.2755-5.6113 8.2813-5.6113l30.7344-30.7285c.0099-.0097 5.4756-8.127 5.4804-8.127 0-.0097 1.8711-9.579 1.8711-9.6758 0-.0096-1.8692-9.3847-1.873-9.3847 0 0-5.4718-8.418-5.4785-8.418l-280.6055-280.6113 280.6074-280.60354c.01 0 5.4737-8.12695 5.4785-8.12695 0-.00968 1.8711-9.57813 1.8711-9.57813 0-.01935-1.8682-9.38476-1.8711-9.38476 0-.00968-5.6055-8.32227-5.6113-8.32227l-30.7344-30.73828c-.0099 0-8.1436-5.51367-8.1504-5.51367-.0099 0-9.3448-1.83985-9.3535-1.83985-.01 0-9.6124 1.83985-9.6191 1.83985-.01 0-8.1456 5.51367-8.1504 5.51367l-280.6133 280.61328-280.73828-280.74805v-.08789c-.01 0-8.27819-5.32031-8.28516-5.32031-.00999 0-9.34027-1.83715-9.35156-1.83789z" transform="matrix(1.00000018909 0 0 1.00000018909 .00001499425 .00459879149)"/></svg>