<svg height="2048" width="2048" xmlns="http://www.w3.org/2000/svg"><path d="m1015.4766 98.931641c-360.69746-1.197622-706.80251 231.866749-843.70121 565.263669-144.118852 330.15236-69.23696 740.28389 182.86133 997.77149 242.46366 260.992 641.94922 356.7865 976.51948 234.6719 346.7398-118.0736 602.7236-458.5937 616.6387-825.0918 23.3394-360.13069-188.5353-719.42134-512.9531-876.29299-127.044-63.3966-268.8828-96.451046-410.8418-96.250004-2.8419-.038544-5.6833-.062835-8.5234-.072265zm25.3515 99.972659c353.0725 1.93823 685.6047 257.35867 776.918 599.02929 97.0301 326.90771-34.2137 705.40541-315.9063 899.02541-292.6124 215.0744-726.54056 199.5138-1002.86324-36.1563-278.41404-221.9799-378.07185-632.5753-235.22656-958.18161 123.44784-300.73406 434.99823-507.65398 760.25-503.61718 5.6138-.09764 11.2238-.13038 16.8281-.09961zm-160.8281 425.0957v256h-256v288h256v256h288v-256h256v-288.00195h-256v-255.99805zm48 48h192v256h256v192h-256v256h-192v-257.5h-256v-190.5h256z"/></svg>