<?xml version="1.0" encoding="iso-8859-1"?>
<!-- Uploaded to: SVG Repo, www.svgrepo.com, Generator: SVG Repo Mixer Tools -->
<svg fill="#000000" height="800px" width="800px" version="1.1" id="Layer_1" xmlns="http://www.w3.org/2000/svg" xmlns:xlink="http://www.w3.org/1999/xlink" 
	 viewBox="0 0 512 512" xml:space="preserve">
<g>
	<g>
		<path d="M358.4,375.467c-5.12,0-8.533,3.413-8.533,8.533s3.413,8.533,8.533,8.533s8.533-3.413,8.533-8.533
			S363.52,375.467,358.4,375.467z"/>
	</g>
</g>
<g>
	<g>
		<path d="M290.133,375.467c-5.12,0-8.533,3.413-8.533,8.533s3.413,8.533,8.533,8.533s8.533-3.413,8.533-8.533
			S295.253,375.467,290.133,375.467z"/>
	</g>
</g>
<g>
	<g>
		<path d="M85.333,375.467c-5.12,0-8.533,3.413-8.533,8.533s3.413,8.533,8.533,8.533c5.12,0,8.533-3.413,8.533-8.533
			S90.453,375.467,85.333,375.467z"/>
	</g>
</g>
<g>
	<g>
		<path d="M153.6,375.467c-5.12,0-8.533,3.413-8.533,8.533s3.413,8.533,8.533,8.533c5.12,0,8.533-3.413,8.533-8.533
			S158.72,375.467,153.6,375.467z"/>
	</g>
</g>
<g>
	<g>
		<path d="M221.867,375.467c-5.12,0-8.533,3.413-8.533,8.533s3.413,8.533,8.533,8.533S230.4,389.12,230.4,384
			S226.987,375.467,221.867,375.467z"/>
	</g>
</g>
<g>
	<g>
		<path d="M426.667,375.467c-5.12,0-8.533,3.413-8.533,8.533s3.413,8.533,8.533,8.533S435.2,389.12,435.2,384
			S431.787,375.467,426.667,375.467z"/>
	</g>
</g>
<g>
	<g>
		<path d="M491.52,443.733c11.093,0,20.48-9.387,20.48-20.48v-79.36c0-10.24-7.68-18.773-17.067-19.627v-30.72
			c0-10.24-7.68-18.773-17.067-20.48V8.533c0-5.12-3.413-8.533-8.533-8.533h-51.2H153.6c-5.12,0-8.533,3.413-8.533,8.533v51.2
			c0,5.12,3.413,8.533,8.533,8.533h8.533v25.6c0,5.12,3.413,8.533,8.533,8.533h8.533v17.067c0,11.093,6.827,20.48,17.067,23.893
			v27.307c0,5.12,3.413,8.533,8.533,8.533c5.12,0,8.533-3.413,8.533-8.533V143.36c10.24-3.413,17.067-12.8,17.067-23.893V102.4
			h8.533c5.12,0,8.533-3.413,8.533-8.533v-25.6H358.4v42.667c0,29.867,22.187,54.613,51.2,58.88v103.253H256v-59.733
			c0-5.12-3.413-8.533-8.533-8.533h-85.333h-42.667v-17.067c0-5.12-3.413-8.533-8.533-8.533s-8.533,3.413-8.533,8.533v51.2
			c0,5.12,3.413,8.533,8.533,8.533s8.533-3.413,8.533-8.533v-17.067H153.6v51.2H38.4c-11.947,0-21.333,9.387-21.333,21.333v29.867
			C7.68,325.973,0,334.507,0,343.893v79.36c0,11.093,9.387,20.48,20.48,20.48h5.12v51.2H8.533c-5.12,0-8.533,3.413-8.533,8.533
			S3.413,512,8.533,512h25.6h51.2h341.333h51.2h25.6c5.12,0,8.533-3.413,8.533-8.533s-3.413-8.533-8.533-8.533H486.4v-51.2H491.52z
			 M375.467,110.933V68.267H409.6v84.48C389.973,148.48,375.467,131.413,375.467,110.933z M76.8,494.933H42.667v-51.2H76.8V494.933z
			 M59.733,384c0-14.507,11.093-25.6,25.6-25.6c14.507,0,25.6,11.093,25.6,25.6c0,14.507-11.093,25.6-25.6,25.6
			C70.827,409.6,59.733,398.507,59.733,384z M418.133,494.933H93.867v-51.2h324.267V494.933z M128,384
			c0-14.507,11.093-25.6,25.6-25.6c14.507,0,25.6,11.093,25.6,25.6c0,14.507-11.093,25.6-25.6,25.6
			C139.093,409.6,128,398.507,128,384z M196.267,384c0-14.507,11.093-25.6,25.6-25.6c14.507,0,25.6,11.093,25.6,25.6
			c0,14.507-11.093,25.6-25.6,25.6C207.36,409.6,196.267,398.507,196.267,384z M264.533,384c0-14.507,11.093-25.6,25.6-25.6
			c14.507,0,25.6,11.093,25.6,25.6c0,14.507-11.093,25.6-25.6,25.6C275.627,409.6,264.533,398.507,264.533,384z M332.8,384
			c0-14.507,11.093-25.6,25.6-25.6S384,369.493,384,384c0,14.507-11.093,25.6-25.6,25.6S332.8,398.507,332.8,384z M401.067,384
			c0-14.507,11.093-25.6,25.6-25.6s25.6,11.093,25.6,25.6c0,14.507-11.093,25.6-25.6,25.6S401.067,398.507,401.067,384z
			 M469.333,494.933H435.2v-51.2h34.133V494.933z M477.867,324.267H34.133V294.4c0-2.56,1.707-4.267,4.267-4.267h123.733h85.333
			h170.667h51.2h4.267c2.56,0,4.267,1.707,4.267,4.267V324.267z"/>
	</g>
</g>
</svg>