<?xml version="1.0" encoding="iso-8859-1"?>
<!-- Uploaded to: SVG Repo, www.svgrepo.com, Generator: SVG Repo Mixer Tools -->
<svg fill="#000000" height="800px" width="800px" version="1.1" id="Layer_1" xmlns="http://www.w3.org/2000/svg" xmlns:xlink="http://www.w3.org/1999/xlink" 
	 viewBox="0 0 512 512" xml:space="preserve">
<g>
	<g>
		<path d="M501.801,274.869h-21.349V68.875c0-2.705-1.075-5.299-2.987-7.212l-50.007-50.007c-1.912-1.912-4.507-2.987-7.212-2.987
			H91.754c-2.705,0-5.299,1.075-7.212,2.987L34.536,61.663c-1.912,1.913-2.987,4.507-2.987,7.212v205.993H10.199
			C4.566,274.869,0,279.436,0,285.068v166.247c0,5.632,4.566,10.199,10.199,10.199h21.349v31.617
			c0,5.632,4.566,10.199,10.199,10.199h428.506c5.633,0,10.199-4.567,10.199-10.199v-31.617h21.348
			c5.633,0,10.199-4.567,10.199-10.199V285.068C512,279.436,507.434,274.869,501.801,274.869z M31.548,441.116h-11.15V295.267h11.15
			V441.116z M460.053,482.932H51.947V73.101l44.032-44.033h320.043l44.032,44.033V482.932z M491.602,441.116h-11.15V295.267h11.15
			V441.116z"/>
	</g>
</g>
<g>
	<g>
		<path d="M433.068,83.355H157.052c-5.633,0-10.199,4.567-10.199,10.199V379.66c0,5.632,4.566,10.199,10.199,10.199h276.016
			c5.633,0,10.199-4.567,10.199-10.199V93.814c0-0.003,0-0.006,0-0.01v-0.25C443.268,87.922,438.701,83.355,433.068,83.355z
			 M167.253,104.014h255.617v7.668H167.253V104.014z M167.252,132.08h255.617v89.753H167.252V132.08z M316.175,263.649
			c0,11.81-9.608,21.418-21.418,21.418s-21.418-9.609-21.418-21.418c0-11.81,9.608-21.418,21.418-21.418
			S316.175,251.84,316.175,263.649z M201.93,369.462h-34.678v-63.468h34.678V369.462z M241.459,369.462h-19.131v-63.468h19.131
			V369.462z M167.253,285.596v-43.365h91.607c-3.754,6.269-5.92,13.595-5.92,21.418c0,8.045,2.289,15.562,6.242,21.947H167.253z
			 M328.265,369.462h-66.407v-63.468h66.407V369.462z M367.794,369.461h-19.131v-63.468h19.131V369.461z M422.869,369.461h-34.676
			v-63.468h34.676V369.461z M422.869,285.596h-92.537c3.953-6.384,6.242-13.902,6.242-21.947c0-7.824-2.164-15.149-5.92-21.418
			h92.215V285.596z"/>
	</g>
</g>
<g>
	<g>
		<path d="M99.952,113.721c-19.683,0-35.697,16.014-35.697,35.697c0,19.683,16.014,35.697,35.697,35.697
			c19.683,0,35.697-16.014,35.697-35.697C135.649,129.735,119.636,113.721,99.952,113.721z M99.952,164.717
			c-8.436,0-15.299-6.863-15.299-15.299c0-8.436,6.863-15.299,15.299-15.299c8.436,0,15.299,6.863,15.299,15.299
			C115.251,157.854,108.388,164.717,99.952,164.717z"/>
	</g>
</g>
<g>
	<g>
		<path d="M99.952,198.374c-19.683,0-35.697,16.014-35.697,35.697c0,19.683,16.014,35.697,35.697,35.697
			c19.683,0,35.697-16.014,35.697-35.697C135.649,214.388,119.636,198.374,99.952,198.374z M99.952,249.371
			c-8.436,0-15.299-6.863-15.299-15.299c0-8.436,6.863-15.299,15.299-15.299c8.436,0,15.299,6.863,15.299,15.299
			C115.251,242.507,108.388,249.371,99.952,249.371z"/>
	</g>
</g>
<g>
	<g>
		<path d="M129.53,451.315h-11.219c-5.633,0-10.199,4.567-10.199,10.199c0,5.632,4.566,10.199,10.199,10.199h11.219
			c5.633,0,10.199-4.567,10.199-10.199C139.729,455.882,135.163,451.315,129.53,451.315z"/>
	</g>
</g>
<g>
	<g>
		<path d="M433.466,451.315h-261.1c-5.633,0-10.199,4.567-10.199,10.199c0,5.632,4.566,10.199,10.199,10.199h261.1
			c5.633,0,10.199-4.567,10.199-10.199C443.665,455.882,439.099,451.315,433.466,451.315z"/>
	</g>
</g>
</svg>