<?xml version="1.0" encoding="iso-8859-1"?>
<!-- Uploaded to: SVG Repo, www.svgrepo.com, Generator: SVG Repo Mixer Tools -->
<svg version="1.1" id="Layer_1" xmlns="http://www.w3.org/2000/svg" xmlns:xlink="http://www.w3.org/1999/xlink" 
	 viewBox="0 0 512 512" xml:space="preserve">
<rect x="344.499" y="148.545" style="fill:#F4661E;" width="37.912" height="50.574"/>
<polygon style="fill:#546A79;" points="281.281,116.952 281.281,218.075 211.763,230.713 211.763,211.757 211.763,123.271 
	211.763,104.302 "/>
<polygon style="fill:#E7ECED;" points="211.763,123.271 211.763,211.757 154.87,211.757 154.87,205.438 154.87,123.271 "/>
<rect x="53.753" y="47.421" style="fill:#F4661E;" width="63.199" height="44.243"/>
<path style="fill:#E7ECED;" d="M154.87,123.271v82.168H85.352h-69.53V9.497H154.87V53.74
	C154.87,53.74,154.87,123.271,154.87,123.271z M116.946,91.665V47.421H53.746v44.243H116.946z"/>
<polygon style="fill:#546A79;" points="451.935,53.74 451.935,300.243 382.404,300.243 382.404,199.12 382.404,148.545 
	382.404,53.74 "/>
<rect x="123.258" y="350.805" style="fill:#E7ECED;" width="265.472" height="75.849"/>
<g>
	<polygon style="fill:#AFB6BB;" points="439.298,426.654 439.298,502.503 72.702,502.503 72.702,426.654 123.264,426.654 
		388.736,426.654 	"/>
	<polygon style="fill:#AFB6BB;" points="154.87,211.757 154.87,300.243 85.352,300.243 85.352,205.438 154.87,205.438 	"/>
	<rect x="15.822" y="205.438" style="fill:#AFB6BB;" width="69.53" height="94.805"/>
</g>
<polygon style="fill:#546A79;" points="496.178,300.243 496.178,426.654 439.298,426.654 388.736,426.654 388.736,350.805 
	123.264,350.805 123.264,426.654 72.702,426.654 15.822,426.654 15.822,300.243 85.352,300.243 154.87,300.243 382.404,300.243 
	451.935,300.243 "/>
<polygon style="fill:#AFB6BB;" points="496.178,9.497 496.178,300.243 451.935,300.243 451.935,53.74 382.404,53.74 154.87,53.74 
	154.87,9.497 "/>
<path d="M6.325,0v436.151h56.88V512h385.589v-75.849h56.88V0H6.325z M164.367,18.994h322.314v271.752h-25.248V44.243H164.367V18.994
	z M25.319,214.935h50.536v75.811H25.319C25.319,290.746,25.319,214.935,25.319,214.935z M94.849,214.935h50.523v75.811H94.849
	V214.935z M202.266,202.26h-37.9v-69.492h37.9V202.26z M164.367,221.254h37.9v20.838l88.51-16.09V109.028l-88.51-16.107v20.853
	h-37.9V63.237h208.541v75.811h-37.912v69.568h37.912v82.13H164.367V221.254z M221.26,219.333V115.682l50.523,9.194v85.273
	L221.26,219.333z M372.908,189.623H353.99v-31.581h18.918V189.623z M391.901,63.237h50.536v227.509h-50.536V63.237z M145.373,18.994
	v176.947H25.319V18.994H145.373z M429.801,493.006H82.199v-56.855h347.601L429.801,493.006L429.801,493.006z M379.239,417.157
	H132.761v-56.855h246.478V417.157z M486.681,417.157h-88.448v-75.849H113.767v75.849H25.319V309.74h461.362V417.157z"/>
<path d="M126.442,37.925H44.249v63.237h82.193V37.925z M107.449,82.168H63.243V56.918h44.205V82.168z"/>
<rect x="41.109" y="120.092" width="44.243" height="18.994"/>
<rect x="104.302" y="120.092" width="25.287" height="18.994"/>
<rect x="41.109" y="158.017" width="44.243" height="18.994"/>
<rect x="104.302" y="158.017" width="25.287" height="18.994"/>
<rect x="161.195" y="379.233" width="189.623" height="18.994"/>
<rect x="426.654" y="366.595" width="25.287" height="18.994"/>
<rect x="60.071" y="366.595" width="25.287" height="18.994"/>
</svg>