<?xml version="1.0" encoding="iso-8859-1"?>
<!-- Uploaded to: SVG Repo, www.svgrepo.com, Generator: SVG Repo Mixer Tools -->
<svg fill="#000000" height="800px" width="800px" version="1.1" id="Layer_1" xmlns="http://www.w3.org/2000/svg" xmlns:xlink="http://www.w3.org/1999/xlink" 
	 viewBox="0 0 512 512" xml:space="preserve">
<g>
	<g>
		<path d="M501.801,53.804H166.519V11.899c0-5.633-4.566-10.199-10.199-10.199H10.199C4.566,1.7,0,6.266,0,11.899v343.214v91.75
			c0,5.633,4.566,10.199,10.199,10.199h61.163v43.039c0,5.633,4.566,10.199,10.199,10.199h348.878
			c5.633,0,10.199-4.566,10.199-10.199v-43.039h61.163c5.633,0,10.199-4.566,10.199-10.199V64.004
			C512,58.371,507.434,53.804,501.801,53.804z M166.519,194.272h15.85v75.883h-15.85V194.272z M166.519,290.553h15.85v24.916
			c0,5.633,4.566,10.199,10.199,10.199h73.627c5.633,0,10.199-4.566,10.199-10.199V148.958c0-5.633-4.566-10.199-10.199-10.199
			h-73.627c-5.633,0-10.199,4.566-10.199,10.199v24.916h-15.85v-54.362h278.64v79.384h-31.711c-5.633,0-10.199,4.566-10.199,10.199
			v46.236c0,5.633,4.566,10.199,10.199,10.199h31.711v79.383h-278.64V290.553z M202.767,305.269V159.157h53.229v146.112H202.767z
			 M445.16,219.295v25.838h-21.512v-25.838H445.16z M20.398,22.098h125.722v322.816H20.398V22.098z M420.24,489.903H91.76v-32.839
			h328.48V489.903z M491.602,436.664H20.398v-71.352h434.96c5.633,0,10.199-4.566,10.199-10.199V109.313
			c0-5.633-4.566-10.199-10.199-10.199H166.519V74.203h325.082V436.664z"/>
	</g>
</g>
<g>
	<g>
		<path d="M119.955,39.079H46.565c-5.633,0-10.199,4.566-10.199,10.199v70.229c0,5.633,4.566,10.199,10.199,10.199h73.389
			c5.633,0,10.199-4.566,10.199-10.199V49.278C130.154,43.645,125.588,39.079,119.955,39.079z M109.756,109.308H56.765V59.477
			h52.991V109.308z"/>
	</g>
</g>
<g>
	<g>
		<path d="M83.826,153.484c-16.242,0-29.455,13.214-29.455,29.455c0,16.242,13.214,29.455,29.455,29.455
			s29.455-13.214,29.455-29.455S100.068,153.484,83.826,153.484z M83.826,191.997c-4.994,0-9.057-4.063-9.057-9.057
			c0-4.994,4.063-9.057,9.057-9.057s9.057,4.062,9.057,9.057C92.883,187.935,88.82,191.997,83.826,191.997z"/>
	</g>
</g>
<g>
	<g>
		<path d="M305.839,380.029H46.446c-5.633,0-10.199,4.566-10.199,10.199c0,5.633,4.566,10.199,10.199,10.199h259.393
			c5.633,0,10.199-4.566,10.199-10.199C316.039,384.595,311.472,380.029,305.839,380.029z"/>
	</g>
</g>
<g>
	<g>
		<path d="M354.547,380.029h-9.062c-5.633,0-10.199,4.566-10.199,10.199c0,5.633,4.566,10.199,10.199,10.199h9.062
			c5.633,0,10.199-4.566,10.199-10.199C364.746,384.595,360.18,380.029,354.547,380.029z"/>
	</g>
</g>
</svg>