<?xml version="1.0" encoding="iso-8859-1"?>
<!-- Uploaded to: SVG Repo, www.svgrepo.com, Generator: SVG Repo Mixer Tools -->
<svg fill="#000000" height="800px" width="800px" version="1.1" id="Layer_1" xmlns="http://www.w3.org/2000/svg" xmlns:xlink="http://www.w3.org/1999/xlink" 
	 viewBox="0 0 512.001 512.001" xml:space="preserve">
<g>
	<g>
		<g>
			<path d="M56.772,268.98H43.298c-4.466,0-8.084,3.619-8.084,8.084s3.618,8.084,8.084,8.084h13.474
				c4.466,0,8.084-3.619,8.084-8.084S61.238,268.98,56.772,268.98z"/>
			<path d="M234.378,268.98h-29.601c-4.466,0-8.084,3.619-8.084,8.084s3.618,8.084,8.084,8.084h29.601
				c4.466,0,8.084-3.619,8.084-8.084S238.844,268.98,234.378,268.98z"/>
			<path d="M175.177,268.98h-29.601c-4.466,0-8.084,3.619-8.084,8.084s3.618,8.084,8.084,8.084h29.601
				c4.466,0,8.084-3.619,8.084-8.084S179.642,268.98,175.177,268.98z"/>
			<path d="M115.974,268.98H86.373c-4.466,0-8.084,3.619-8.084,8.084s3.619,8.084,8.084,8.084h29.601
				c4.466,0,8.084-3.619,8.084-8.084S120.44,268.98,115.974,268.98z"/>
			<path d="M503.917,30.338h-21.768L467.228,4.09C465.791,1.561,463.107,0,460.199,0H321.17c-2.907,0-5.592,1.561-7.029,4.09
				L299.22,30.34h-21.768c-4.466,0-8.084,3.618-8.084,8.084v197.759h-25.212c0.177-1.051,0.291-2.122,0.291-3.223v-64.437
				c0-4.466-3.618-8.084-8.084-8.084c-4.466,0-8.084,3.618-8.084,8.084v64.437c0,1.776-1.447,3.223-3.223,3.223h-51.162v-18.505
				c0-4.466-3.618-8.084-8.084-8.084h-49.002c-4.466,0-8.084,3.619-8.084,8.084v18.505H57.561c-1.776,0-3.223-1.447-3.223-3.223
				V118.934c0-1.776,1.447-3.223,3.223-3.223h51.16v53.166c0,3.099,1.771,5.925,4.561,7.276c1.119,0.542,2.324,0.808,3.523,0.808
				c1.786,0,3.559-0.592,5.013-1.742l19.49-15.404l19.485,15.404c2.433,1.922,5.747,2.284,8.537,0.933
				c2.79-1.351,4.561-4.177,4.561-7.276v-53.166h51.162c1.776,0,3.223,1.447,3.223,3.223v22.648c0,4.466,3.618,8.084,8.084,8.084
				c4.466,0,8.084-3.619,8.084-8.084v-22.648c0-10.693-8.699-19.391-19.391-19.391h-59.247h-49.002H57.561
				c-10.693,0-19.391,8.699-19.391,19.391v114.025c0,1.121,0.116,2.213,0.3,3.282c-21.402,1.131-38.468,18.897-38.468,40.575v0.499
				c0,22.405,18.229,40.633,40.636,40.633h5.235l14.921,26.25c1.437,2.529,4.121,4.09,7.028,4.09h9.316v142.119
				c0,11.906,9.687,21.593,21.594,21.593h3.32c11.906,0,21.594-9.687,21.594-21.593v-29.925h341.848v29.925
				c0,11.906,9.687,21.593,21.593,21.593h3.32c11.906,0,21.593-9.687,21.593-21.593V340.203V38.423
				C512.002,33.958,508.383,30.338,503.917,30.338z M124.89,115.711h32.834v36.471l-11.401-9.012c-2.937-2.321-7.087-2.322-10.027,0
				l-11.406,9.014V115.711z M325.873,16.168h129.623l8.055,14.17H317.819L325.873,16.168z M124.89,225.761h32.834v10.421H124.89
				V225.761z M50.576,301.78h-9.939c-13.491,0-24.467-10.975-24.467-24.466v-0.499c0-13.491,10.976-24.465,24.467-24.465h16.924
				h59.244h49.002h59.246h44.313v16.63h-5.389c-4.466,0-8.084,3.618-8.084,8.084c0,4.466,3.618,8.084,8.084,8.084h5.389v16.632
				H50.576z M107.477,389.544v100.863c0,2.991-2.434,5.425-5.425,5.425h-3.32c-2.991,0-5.425-2.434-5.425-5.425V348.287h14.17
				V389.544z M115.562,332.119H85.223H72.526l-8.054-14.17h204.896v14.17H164.9H115.562z M145.384,348.287l-21.738,21.739v-21.739
				H145.384z M465.494,413.975h-24.253c-4.466,0-8.084,3.618-8.084,8.084c0,4.466,3.619,8.084,8.084,8.084h24.253v14.17H124.89
				v-14.17h289.404c4.466,0,8.084-3.618,8.084-8.084c0-4.466-3.618-8.084-8.084-8.084H123.646v-21.083l44.603-44.605h109.203H420.89
				l44.603,44.605V413.975z M465.494,370.026l-21.738-21.739h21.738V370.026z M495.833,490.407c0,2.991-2.434,5.425-5.425,5.425
				h-3.32c-2.991,0-5.425-2.434-5.425-5.425v-38.009v-30.338v-32.515v-41.256h14.17V490.407z M495.833,332.119h-22.255h-49.339
				H285.536v-22.254v-65.597V46.507h18.388h173.522h18.388V332.119z"/>
			<path d="M324.93,184.03h87.208c4.466,0,8.084-3.618,8.084-8.084c0-4.466-3.619-8.084-8.084-8.084H324.93
				c-1.985,0-3.6-1.615-3.6-3.6V87.96c0-1.985,1.615-3.6,3.6-3.6h131.512c1.986,0,3.6,1.615,3.6,3.6v76.302
				c0,1.986-1.615,3.6-3.6,3.6h-16.278c-4.466,0-8.084,3.618-8.084,8.084c0,4.466,3.618,8.084,8.084,8.084h16.278
				c10.9,0,19.769-8.869,19.769-19.769V87.96c0-10.9-8.868-19.769-19.769-19.769H324.93c-10.9,0-19.769,8.869-19.769,19.769v76.302
				C305.161,175.162,314.03,184.03,324.93,184.03z"/>
			<path d="M313.245,218.215h154.88c4.466,0,8.084-3.618,8.084-8.084c0-4.466-3.619-8.084-8.084-8.084h-154.88
				c-4.466,0-8.084,3.618-8.084,8.084C305.161,214.597,308.781,218.215,313.245,218.215z"/>
			<path d="M476.21,244.266c0-4.466-3.619-8.084-8.084-8.084h-154.88c-4.466,0-8.084,3.618-8.084,8.084
				c0,4.466,3.62,8.084,8.084,8.084h154.88C472.592,252.35,476.21,248.732,476.21,244.266z"/>
			<path d="M399.203,268.519c-13.372,0-24.253,10.88-24.253,24.253s10.88,24.253,24.253,24.253s24.253-10.88,24.253-24.253
				S412.577,268.519,399.203,268.519z M399.203,300.856c-4.458,0-8.084-3.626-8.084-8.084c0-4.458,3.626-8.084,8.084-8.084
				c4.458,0,8.084,3.626,8.084,8.084C407.287,297.229,403.661,300.856,399.203,300.856z"/>
			<path d="M455.463,268.519c-13.372,0-24.253,10.88-24.253,24.253s10.88,24.253,24.253,24.253s24.253-10.88,24.253-24.253
				S468.835,268.519,455.463,268.519z M455.463,300.856c-4.458,0-8.084-3.626-8.084-8.084c0-4.458,3.626-8.084,8.084-8.084
				c4.458,0,8.084,3.626,8.084,8.084C463.547,297.229,459.921,300.856,455.463,300.856z"/>
		</g>
	</g>
</g>
</svg>