<svg xmlns="http://www.w3.org/2000/svg" viewBox="0 0 100 100"><path d="M82 43c0-17.6-14.4-32-32-32S18 25.4 18 43c0 5 1.2 9.8 3.2 14h57.5c2.1-4.2 3.3-9 3.3-14zm-6 1c-.6 0-1-.4-1-1 0-13.4-10.6-24.4-23.8-25L55 42.8v.2c1.2 1.3 2 3 2 4.9 0 3.9-3.1 7-7 7s-7-3.1-7-7c0-1.9.8-3.6 2-4.9v-.2L48.8 18C35.6 18.6 25 29.6 25 43c0 .6-.4 1-1 1s-1-.4-1-1c0-14.9 12.1-27 27-27s27 12.1 27 27c0 .6-.4 1-1 1zM50 75c11.8 0 22.2-6.4 27.7-16H22.3c5.5 9.6 15.9 16 27.7 16zm-10-9h20c.6 0 1 .4 1 1s-.4 1-1 1H40c-.6 0-1-.4-1-1s.4-1 1-1z"/><circle cx="50" cy="48" r="5"/><path d="M50 80c20.4 0 37-16.6 37-37S70.4 6 50 6 13 22.6 13 43s16.6 37 37 37zm0-71c18.7 0 34 15.3 34 34S68.7 77 50 77 16 61.7 16 43 31.3 9 50 9zM36 88H21v6h58v-6H64z"/><path d="M37 79.8V86h26v-6.2c-4.1 1.4-8.4 2.2-13 2.2s-8.9-.8-13-2.2z"/></svg>