<?xml version="1.0" encoding="UTF-8"?>
<svg width="700pt" height="700pt" version="1.1" viewBox="0 0 700 700" xmlns="http://www.w3.org/2000/svg" xmlns:xlink="http://www.w3.org/1999/xlink">
 <defs>
  <symbol id="o" overflow="visible">
   <path d="m29.312-1.75c-1.5117 0.78125-3.0898 1.3711-4.7344 1.7656-1.6367 0.40625-3.3398 0.60938-5.1094 0.60938-5.3125 0-9.5273-1.4844-12.641-4.4531-3.1055-2.9688-4.6562-7-4.6562-12.094s1.5508-9.125 4.6562-12.094c3.1133-2.9688 7.3281-4.4531 12.641-4.4531 1.7695 0 3.4727 0.19922 5.1094 0.59375 1.6445 0.39844 3.2227 0.99219 4.7344 1.7812v6.5938c-1.5312-1.0391-3.0391-1.8008-4.5156-2.2812-1.4805-0.48828-3.0391-0.73438-4.6719-0.73438-2.9375 0-5.2461 0.94531-6.9219 2.8281-1.6797 1.875-2.5156 4.4648-2.5156 7.7656 0 3.293 0.83594 5.8828 2.5156 7.7656 1.6758 1.875 3.9844 2.8125 6.9219 2.8125 1.6328 0 3.1914-0.23828 4.6719-0.71875 1.4766-0.48828 2.9844-1.2539 4.5156-2.2969z"/>
  </symbol>
  <symbol id="h" overflow="visible">
   <path d="m21.453-17.406c-0.67969-0.3125-1.3516-0.53906-2.0156-0.6875-0.65625-0.15625-1.3203-0.23438-1.9844-0.23438-1.9688 0-3.4844 0.63281-4.5469 1.8906-1.0547 1.2617-1.5781 3.0703-1.5781 5.4219v11.016h-7.6562v-23.922h7.6562v3.9219c0.97656-1.5625 2.1016-2.7031 3.375-3.4219 1.2812-0.71875 2.8125-1.0781 4.5938-1.0781 0.25 0 0.52344 0.011719 0.82812 0.03125 0.30078 0.023438 0.73438 0.070312 1.2969 0.14062z"/>
  </symbol>
  <symbol id="c" overflow="visible">
   <path d="m27.562-12.031v2.1875h-17.891c0.1875 1.793 0.83203 3.1367 1.9375 4.0312 1.1133 0.89844 2.6719 1.3438 4.6719 1.3438 1.6016 0 3.25-0.23438 4.9375-0.70312 1.6875-0.47656 3.4219-1.2031 5.2031-2.1719v5.8906c-1.8047 0.6875-3.6094 1.2031-5.4219 1.5469-1.8125 0.35156-3.6211 0.53125-5.4219 0.53125-4.3359 0-7.7031-1.0977-10.109-3.2969-2.3984-2.207-3.5938-5.2969-3.5938-9.2656 0-3.9062 1.1758-6.9727 3.5312-9.2031 2.3633-2.2383 5.6094-3.3594 9.7344-3.3594 3.7578 0 6.7695 1.1367 9.0312 3.4062 2.2578 2.2617 3.3906 5.2812 3.3906 9.0625zm-7.8594-2.5312c0-1.457-0.42969-2.6289-1.2812-3.5156-0.84375-0.89453-1.9492-1.3438-3.3125-1.3438-1.4922 0-2.6992 0.41797-3.625 1.25-0.91797 0.83594-1.4922 2.0391-1.7188 3.6094z"/>
  </symbol>
  <symbol id="a" overflow="visible">
   <path d="m14.391-10.766c-1.5938 0-2.793 0.27344-3.5938 0.8125-0.80469 0.54297-1.2031 1.3398-1.2031 2.3906 0 0.96875 0.32031 1.7305 0.96875 2.2812 0.64453 0.54297 1.5469 0.8125 2.7031 0.8125 1.4375 0 2.6445-0.51562 3.625-1.5469 0.98828-1.0312 1.4844-2.3203 1.4844-3.875v-0.875zm11.688-2.8906v13.656h-7.7031v-3.5469c-1.0312 1.4492-2.1875 2.5078-3.4688 3.1719s-2.8398 1-4.6719 1c-2.4805 0-4.4961-0.72266-6.0469-2.1719-1.543-1.4453-2.3125-3.3203-2.3125-5.625 0-2.8125 0.96094-4.8672 2.8906-6.1719 1.9375-1.3125 4.9688-1.9688 9.0938-1.9688h4.5156v-0.60938c0-1.207-0.48047-2.0938-1.4375-2.6562-0.94922-0.5625-2.4375-0.84375-4.4688-0.84375-1.6367 0-3.1562 0.16797-4.5625 0.5-1.4062 0.32422-2.7188 0.8125-3.9375 1.4688v-5.8281c1.6445-0.40625 3.2891-0.70703 4.9375-0.90625 1.6562-0.20703 3.3047-0.3125 4.9531-0.3125 4.3203 0 7.4375 0.85547 9.3438 2.5625 1.9141 1.6992 2.875 4.4609 2.875 8.2812z"/>
  </symbol>
  <symbol id="g" overflow="visible">
   <path d="m12.031-30.719v6.7969h7.875v5.4688h-7.875v10.141c0 1.1172 0.21875 1.8711 0.65625 2.2656 0.4375 0.38672 1.3125 0.57812 2.625 0.57812h3.9375v5.4688h-6.5625c-3.0234 0-5.1641-0.62891-6.4219-1.8906-1.2617-1.2578-1.8906-3.3984-1.8906-6.4219v-10.141h-3.7969v-5.4688h3.7969v-6.7969z"/>
  </symbol>
  <symbol id="b" overflow="visible">
   <path d="m19.953-20.422v-12.812h7.6875v33.234h-7.6875v-3.4531c-1.0547 1.4062-2.2148 2.4375-3.4844 3.0938-1.2734 0.65625-2.7422 0.98438-4.4062 0.98438-2.9492 0-5.3711-1.1719-7.2656-3.5156-1.8867-2.3438-2.8281-5.3594-2.8281-9.0469s0.94141-6.7031 2.8281-9.0469c1.8945-2.3438 4.3164-3.5156 7.2656-3.5156 1.6562 0 3.1172 0.33594 4.3906 1 1.2812 0.65625 2.4453 1.6836 3.5 3.0781zm-5.0469 15.484c1.6445 0 2.8945-0.59766 3.75-1.7969 0.86328-1.1953 1.2969-2.9297 1.2969-5.2031 0-2.2812-0.43359-4.0195-1.2969-5.2188-0.85547-1.1953-2.1055-1.7969-3.75-1.7969-1.625 0-2.8711 0.60156-3.7344 1.7969-0.85547 1.1992-1.2812 2.9375-1.2812 5.2188 0 2.2734 0.42578 4.0078 1.2812 5.2031 0.86328 1.1992 2.1094 1.7969 3.7344 1.7969z"/>
  </symbol>
  <symbol id="f" overflow="visible">
   <path d="m16.406-4.9375c1.6328 0 2.8828-0.59766 3.75-1.7969 0.86328-1.1953 1.2969-2.9297 1.2969-5.2031 0-2.2812-0.43359-4.0195-1.2969-5.2188-0.86719-1.1953-2.1172-1.7969-3.75-1.7969-1.6367 0-2.8906 0.60547-3.7656 1.8125-0.875 1.1992-1.3125 2.9336-1.3125 5.2031 0 2.2617 0.4375 3.9961 1.3125 5.2031 0.875 1.1992 2.1289 1.7969 3.7656 1.7969zm-5.0781-15.484c1.0508-1.3945 2.2188-2.4219 3.5-3.0781 1.2812-0.66406 2.7539-1 4.4219-1 2.9453 0 5.3672 1.1719 7.2656 3.5156 1.8945 2.3438 2.8438 5.3594 2.8438 9.0469s-0.94922 6.7031-2.8438 9.0469c-1.8984 2.3438-4.3203 3.5156-7.2656 3.5156-1.668 0-3.1406-0.33594-4.4219-1s-2.4492-1.6914-3.5-3.0781v3.4531h-7.6562v-33.234h7.6562z"/>
  </symbol>
  <symbol id="e" overflow="visible">
   <path d="m0.53125-23.922h7.6562l6.4219 16.234 5.4688-16.234h7.6562l-10.062 26.188c-1.0117 2.6641-2.1953 4.5234-3.5469 5.5781-1.3438 1.0625-3.1211 1.5938-5.3281 1.5938h-4.4219v-5.0156h2.3906c1.3008 0 2.2422-0.21094 2.8281-0.625 0.59375-0.40625 1.0547-1.1484 1.3906-2.2188l0.20312-0.65625z"/>
  </symbol>
  <symbol id="d" overflow="visible">
   <path d="m4.0156-31.891h8.2188v31.891h-8.2188z"/>
  </symbol>
  <symbol id="n" overflow="visible">
   <path d="m27.734-14.562v14.562h-7.7031v-11.156c0-2.0625-0.046875-3.4844-0.14062-4.2656-0.085937-0.78125-0.24219-1.3594-0.46875-1.7344-0.30469-0.5-0.71094-0.88281-1.2188-1.1562-0.51172-0.28125-1.0938-0.42188-1.75-0.42188-1.5938 0-2.8516 0.61719-3.7656 1.8438-0.90625 1.2305-1.3594 2.9375-1.3594 5.125v11.766h-7.6562v-23.922h7.6562v3.5c1.1445-1.3945 2.3633-2.4219 3.6562-3.0781 1.3008-0.66406 2.7383-1 4.3125-1 2.7578 0 4.8516 0.85156 6.2812 2.5469 1.4375 1.6875 2.1562 4.1523 2.1562 7.3906z"/>
  </symbol>
  <symbol id="m" overflow="visible">
   <path d="m15.703-17.75c1.7188 0 2.9531-0.31641 3.7031-0.95312 0.75-0.64453 1.125-1.7031 1.125-3.1719 0-1.4453-0.375-2.4844-1.125-3.1094-0.75-0.63281-1.9844-0.95312-3.7031-0.95312h-3.4688v8.1875zm-3.4688 5.6875v12.062h-8.2188v-31.891h12.562c4.1953 0 7.2734 0.70312 9.2344 2.1094 1.957 1.4062 2.9375 3.6367 2.9375 6.6875 0 2.1055-0.51172 3.8359-1.5312 5.1875-1.0117 1.3555-2.543 2.3555-4.5938 3 1.125 0.25 2.1289 0.82812 3.0156 1.7344 0.89453 0.90625 1.7969 2.2773 2.7031 4.1094l4.4688 9.0625h-8.7656l-3.875-7.9219c-0.79297-1.5938-1.5898-2.6797-2.3906-3.2656-0.80469-0.58203-1.875-0.875-3.2188-0.875z"/>
  </symbol>
  <symbol id="l" overflow="visible">
   <path d="m27.734-14.562v14.562h-7.7031v-11.109c0-2.0938-0.046875-3.5312-0.14062-4.3125-0.085937-0.78125-0.24219-1.3594-0.46875-1.7344-0.30469-0.5-0.71094-0.88281-1.2188-1.1562-0.51172-0.28125-1.0938-0.42188-1.75-0.42188-1.5938 0-2.8516 0.61719-3.7656 1.8438-0.90625 1.2305-1.3594 2.9375-1.3594 5.125v11.766h-7.6562v-33.234h7.6562v12.812c1.1445-1.3945 2.3633-2.4219 3.6562-3.0781 1.3008-0.66406 2.7383-1 4.3125-1 2.7578 0 4.8516 0.85156 6.2812 2.5469 1.4375 1.6875 2.1562 4.1523 2.1562 7.3906z"/>
  </symbol>
  <symbol id="k" overflow="visible">
   <path d="m25.844-19.953c0.96875-1.4766 2.1172-2.6016 3.4531-3.375 1.332-0.78125 2.7969-1.1719 4.3906-1.1719 2.75 0 4.8438 0.85156 6.2812 2.5469 1.4375 1.6875 2.1562 4.1523 2.1562 7.3906v14.562h-7.6875v-12.469c0.007812-0.1875 0.019531-0.37891 0.03125-0.57812 0.007812-0.19531 0.015625-0.48438 0.015625-0.85938 0-1.6953-0.25-2.9258-0.75-3.6875-0.5-0.75781-1.3086-1.1406-2.4219-1.1406-1.4492 0-2.5703 0.60156-3.3594 1.7969-0.79297 1.1992-1.2031 2.9297-1.2344 5.1875v11.75h-7.6875v-12.469c0-2.6562-0.23047-4.3633-0.6875-5.125-0.44922-0.75781-1.2578-1.1406-2.4219-1.1406-1.4688 0-2.6055 0.60547-3.4062 1.8125-0.79297 1.1992-1.1875 2.918-1.1875 5.1562v11.766h-7.7031v-23.922h7.7031v3.5c0.9375-1.3516 2.0156-2.3672 3.2344-3.0469 1.2188-0.6875 2.5547-1.0312 4.0156-1.0312 1.6562 0 3.1133 0.40234 4.375 1.2031 1.2695 0.79297 2.2344 1.9062 2.8906 3.3438z"/>
  </symbol>
  <symbol id="j" overflow="visible">
   <path d="m3.6719-23.922h7.6562v23.922h-7.6562zm0-9.3125h7.6562v6.2344h-7.6562z"/>
  </symbol>
  <symbol id="i" overflow="visible">
   <path d="m4.0156-31.891h8.2188v11.641l11.859-11.641h9.5469l-15.359 15.094 16.938 16.797h-10.281l-12.703-12.562v12.562h-8.2188z"/>
  </symbol>
 </defs>
 <g>
  <path d="m257.2 249.91c-1.9766 0-3.9648-0.66797-5.6016-2.0352-3.7109-3.0938-4.207-8.6133-1.1094-12.32l9.0195-10.809-9.9531 0.17578c-3.2969-0.12109-6.3711-1.7578-7.9023-4.6914-1.5391-2.9297-1.2852-6.4766 0.64453-9.1641l17.527-24.379c2.8242-3.9219 8.2969-4.8164 12.211-2 3.9258 2.8203 4.8203 8.2891 2 12.211l-7.3438 10.219 11.641-0.20312c3.4766-0.14453 6.5664 1.8828 8.0469 4.9727 1.4766 3.0898 1.0195 6.7539-1.1758 9.3828l-21.277 25.5c-1.7383 2.0703-4.2227 3.1406-6.7266 3.1406z"/>
  <path d="m328.97 276.55h-127c-5.7617 0-10.922-2.9766-13.801-7.9688-2.8789-4.9844-2.875-10.941 0.003906-15.922l63.5-109.99c2.8789-4.9844 8.0312-7.9648 13.789-7.9688h0.007812c5.7578 0 10.918 2.9766 13.797 7.9688l63.5 109.99c2.8789 4.9844 2.8789 10.938 0 15.93-2.8789 4.9844-8.0352 7.9609-13.793 7.9609zm-124.29-17.5h121.56l-60.781-105.27zm62.148-107.64v0.003906l-0.003906 0.003907c0-0.003907 0.003906-0.003907 0.003906-0.007813z"/>
  <path d="m571.72 446.25h-402.5c-4.832 0-8.75-3.9141-8.75-8.75v-323.75c0-4.832 3.918-8.75 8.75-8.75h402.5c4.832 0 8.75 3.918 8.75 8.75v323.75c0 4.8359-3.918 8.75-8.75 8.75zm-393.75-17.5h385v-306.25h-385z"/>
  <path d="m470.26 411.25h-225.84c-7.6953 0-13.953-6.2617-13.953-13.953v-85.844c0-7.6914 6.2578-13.953 13.953-13.953h225.84c7.6953 0 13.957 6.2617 13.957 13.953v85.844c0 7.6914-6.2617 13.953-13.957 13.953zm-222.29-17.5h218.75v-78.75h-218.75z"/>
  <path d="m571.72 288.75h-210c-4.832 0-8.75-3.918-8.75-8.75v-166.25c0-4.832 3.918-8.75 8.75-8.75h210c4.832 0 8.75 3.918 8.75 8.75v166.25c0 4.832-3.918 8.75-8.75 8.75zm-201.25-17.5h192.5v-148.75h-192.5z"/>
  <path d="m170.47 376.25h-42.188c-4.832 0-8.75-3.9141-8.75-8.75v-128.44c0-2.3203 0.92188-4.5469 2.5625-6.1875l42.188-42.188 12.375 12.375-39.621 39.621-0.003906 116.07h33.438z"/>
  <path d="m230.47 498.75c-28.949 0-52.5-23.551-52.5-52.5 0-3.7852 0.36328-7.3672 1.082-10.629l17.09 3.7578c-0.44531 2.0273-0.67188 4.3398-0.67188 6.8711 0 19.305 15.703 35 35 35s35-15.695 35-35c0-2.5117-0.22656-4.8281-0.67578-6.8867l17.098-3.7266c0.71484 3.2734 1.0781 6.8438 1.0781 10.613 0 28.949-23.551 52.5-52.5 52.5z"/>
  <path d="m510.47 498.75c-28.949 0-52.5-23.551-52.5-52.5 0-3.7852 0.36328-7.3672 1.082-10.629l17.09 3.7578c-0.44531 2.0273-0.67188 4.3398-0.67188 6.8711 0 19.305 15.703 35 35 35s35-15.695 35-35c0-2.5117-0.22656-4.8281-0.67578-6.8867l17.098-3.7266c0.71484 3.2734 1.0781 6.8438 1.0781 10.613 0 28.949-23.551 52.5-52.5 52.5z"/>
  <path d="m414.22 253.75c-19.297 0-35-15.703-35-35s15.703-35 35-35 35 15.703 35 35-15.699 35-35 35zm0-52.5c-9.6523 0-17.5 7.8477-17.5 17.5s7.8477 17.5 17.5 17.5 17.5-7.8477 17.5-17.5-7.8477-17.5-17.5-17.5z"/>
  <path d="m492.97 253.75c-19.297 0-35-15.703-35-35s15.703-35 35-35 35 15.703 35 35-15.699 35-35 35zm0-52.5c-9.6523 0-17.5 7.8477-17.5 17.5s7.8477 17.5 17.5 17.5 17.5-7.8477 17.5-17.5-7.8477-17.5-17.5-17.5z"/>
  <path d="m291.72 96.25h-52.5c-4.832 0-8.75-3.918-8.75-8.75v-16.039c0-10.453 8.5078-18.961 18.961-18.961h32.078c10.453 0 18.961 8.5078 18.961 18.961v16.039c0 4.832-3.918 8.75-8.75 8.75zm-43.75-17.5h35v-7.2891c0-0.80859-0.65234-1.4609-1.4609-1.4609h-32.078c-0.80859 0-1.4609 0.65234-1.4609 1.4609z"/>
  <path d="m282.97 122.5h-35c-4.832 0-8.75-3.918-8.75-8.75v-26.25c0-4.832 3.918-8.75 8.75-8.75h35c4.832 0 8.75 3.918 8.75 8.75v26.25c0 4.832-3.918 8.75-8.75 8.75zm-26.25-17.5h17.5v-8.75h-17.5z"/>
  <path d="m420 153.12c0 7.25-5.875 13.125-13.125 13.125s-13.125-5.875-13.125-13.125 5.875-13.125 13.125-13.125 13.125 5.875 13.125 13.125"/>
  <path d="m560 205.62c0 7.25-5.875 13.125-13.125 13.125s-13.125-5.875-13.125-13.125 5.875-13.125 13.125-13.125 13.125 5.875 13.125 13.125"/>
  <path d="m560 240.62c0 7.25-5.875 13.125-13.125 13.125s-13.125-5.875-13.125-13.125 5.875-13.125 13.125-13.125 13.125 5.875 13.125 13.125"/>
 </g>
</svg>
