<?xml version="1.0" encoding="UTF-8"?>
<svg width="700pt" height="700pt" version="1.1" viewBox="0 0 700 700" xmlns="http://www.w3.org/2000/svg">
 <path d="m376.81 23.43c-17.148 0-32.645 7.3047-43.5 18.965-8.0508-5.9453-18.082-9.1875-28.68-9.1875-23.02 0-42.406 16.266-46.652 38.098-1.6172-0.19141-3.2695-0.38281-4.9531-0.38281-19.57 0-35.555 15.984-35.555 35.555 0 1.8633 0.10547 3.6914 0.38281 5.4961-9.4453 2.9844-16.387 11.777-16.57 22.125h0.007812c-0.011718 0.125-0.015624 0.25391-0.015624 0.38281v44.531h-15.164v-0.003907c-2.707 0.003907-5.043 1.9102-5.5898 4.5625l-5.3164 25.664h-1.0312c-9.6797 0-17.652 7.9727-17.652 17.652 0 7.5547 4.8672 14.055 11.602 16.551l-58.277 281.69h-28.539c-3.1602 0-5.7188 2.5625-5.7188 5.7227s2.5586 5.7188 5.7188 5.7188h537.39c3.1602 0 5.7188-2.5586 5.7188-5.7188s-2.5586-5.7227-5.7188-5.7227h-27.473v-197.18h-0.003906c0-1.543-0.625-3.0234-1.7305-4.1016-1.1094-1.0742-2.6055-1.6602-4.1484-1.6133-0.61328 0.027344-1.2148 0.16016-1.7891 0.38281l-123.61 44.953v-39.574l0.003906-0.003906c0-1.5469-0.62891-3.0273-1.7383-4.1055-1.1094-1.0742-2.6055-1.6562-4.1523-1.6094-0.61328 0.027344-1.2188 0.16016-1.7891 0.38281l-36.285 13.195-11.789-56.973c6.7305-2.4961 11.602-8.9883 11.602-16.547 0-9.6797-7.9727-17.652-17.652-17.652h-1.0234l-5.3047-25.668-0.003906-0.003906c-0.55078-2.6562-2.8906-4.5625-5.6055-4.5586h-59.668 0.003906c-2.7148-0.003906-5.0547 1.9023-5.6055 4.5586l-5.3047 25.668h-1.0234c-9.6836 0-17.656 7.9727-17.656 17.652 0 7.5547 4.8672 14.055 11.602 16.551l-10.805 52.23-14.754 5.3633-19.227-92.957c6.7305-2.4961 11.602-8.9883 11.602-16.547 0-9.6836-7.9727-17.656-17.656-17.656h-1.0234l-5.3047-25.664h0.003906c-0.54688-2.6562-2.8906-4.5625-5.6016-4.5586h-15.172v-21.613c7.9844-2.0078 14.402-8.1172 16.844-15.93 1.8086 0.28906 3.6914 0.57422 5.5469 0.57422 13.176 0 24.723-7.2266 30.859-17.945 6.4648 2.7617 13.746 4.0625 20.742 4.0625 9.6172 0 18.465-3.375 25.77-8.25 10.895 13.609 27.66 22.34 46.41 22.34 32.75 0 59.422-26.668 59.422-59.422s-26.668-59.43-59.422-59.43zm0 11.438c26.57 0 47.988 21.418 47.988 47.992 0 26.57-21.422 47.988-47.988 47.988-16.711 0-31.34-8.5195-39.941-21.418v0.003906c-0.97266-2.0938-3.1055-3.3984-5.4102-3.3086-1.0742 0.042969-2.1094 0.38672-2.9961 0.99219-0.035157 0.027343-0.070313 0.058593-0.10547 0.085937-0.0625 0.0625-0.125 0.125-0.1875 0.19141-0.066407 0.0625-0.12891 0.125-0.19141 0.1875-6.4141 5.3359-14.773 9.1797-23.242 9.1797-6.9219 0-14.547-1.8633-19.75-4.9336-0.99219-0.82031-2.2344-1.2812-3.5195-1.3086-0.25391-0.003906-0.51172 0.011719-0.76562 0.042969-2.6094 0.23047-4.7266 2.2031-5.1445 4.7891-3.5195 8.9297-12.188 15.285-22.438 15.285-1.4609 0-5.4961-0.76562-7.9062-1.3984l0.003906 0.003907c-0.75391-0.33203-1.5703-0.49219-2.3906-0.48047-3.0156 0.046875-5.4766 2.4297-5.625 5.4414-0.003907 0.0625-0.003907 0.125-0.007813 0.19141v0.10547c0 6.5586-5.0195 11.789-11.48 12.148h-0.003907c-0.25391-0.03125-0.50781-0.046876-0.76172-0.042969-3.1602 0.046875-5.6797 2.6445-5.6328 5.8047v0.0625 0.19141 26.43h-6.4648v-44.531c0-6.5195 4.9609-11.73 11.367-12.145 1.9766 0.29688 3.9688-0.46094 5.2461-2 1.2773-1.5391 1.6602-3.6328 1.0078-5.5234-0.019531-0.066406-0.042969-0.12891-0.066406-0.19141-0.003906-0.015625-0.007813-0.027344-0.011719-0.042969-0.95703-2.5625-1.3672-5.0586-1.3672-8.1445 0-13.387 10.727-24.125 24.113-24.125 2.8008 0 5.4688 0.47656 7.9648 1.3477 0.023438 0.007813 0.042969 0.011719 0.066407 0.019531 0.09375 0.027344 0.19141 0.058594 0.28516 0.082032 0.097656 0.03125 0.19141 0.058594 0.28906 0.085937 0.09375 0.015625 0.19141 0.03125 0.28516 0.042969 0.12891 0.023438 0.25391 0.046875 0.38281 0.0625 0.066406 0.003906 0.12891 0.007812 0.19141 0.011719 0.12891 0.011719 0.25391 0.019531 0.38281 0.019531 0.097656 0.003906 0.19141 0 0.28906-0.003906 0.09375 0 0.19141-0.003906 0.28906-0.007813 0.125-0.007812 0.25391-0.023437 0.38281-0.042969 0.0625-0.003906 0.125-0.011718 0.1875-0.019531 0.097657-0.019531 0.19531-0.039062 0.28906-0.0625 0.097656-0.019531 0.19141-0.042969 0.28516-0.066406 0.12891-0.03125 0.25781-0.066406 0.38281-0.10547 0.066406-0.019531 0.12891-0.039062 0.19141-0.0625 0.12891-0.058594 0.25781-0.12109 0.38281-0.19141 0.0625-0.019531 0.12891-0.039062 0.19141-0.0625 0.097656-0.0625 0.19141-0.125 0.28906-0.19141 0.0625-0.035156 0.125-0.070313 0.1875-0.10547 0.16406-0.089844 0.32422-0.18359 0.48047-0.28906l0.007812-0.007812c0.13281-0.089844 0.25781-0.1875 0.38281-0.28906 0.035156-0.027344 0.070313-0.054688 0.10547-0.082032 0.097656-0.09375 0.19531-0.1875 0.28906-0.28906l0.10547-0.10547c0.10156-0.125 0.19531-0.25 0.28516-0.38281v-0.003906c0.10547-0.15234 0.20312-0.3125 0.28906-0.47656 0-0.003906 0-0.003906 0.003906-0.003906 0.10156-0.15625 0.19922-0.31641 0.28516-0.48047 0.003906-0.003907 0.003906-0.007813 0.003906-0.011719 0.27734-0.62891 0.44141-1.3047 0.48047-1.9922 0.86328-19.141 16.574-33.957 36.035-33.957 9.4961 0 18.086 3.2891 24.414 9.0156 1.0039 1.5859 2.7227 2.5781 4.5977 2.6562 1.875 0.074219 3.6719-0.77344 4.8008-2.2734 0.066406-0.058594 0.12891-0.125 0.19141-0.1875 8.7695-11.527 22.586-18.961 38.219-18.961zm85.66 77.902c-16.273 0-29.594 13.32-29.594 29.594 0 16.273 13.32 29.594 29.594 29.594s29.586-13.32 29.586-29.594c0-16.273-13.312-29.594-29.586-29.594zm0 11.441c10.094 0 18.145 8.0586 18.145 18.152s-8.0508 18.152-18.145 18.152-18.152-8.0586-18.152-18.152 8.0586-18.152 18.152-18.152zm-55.273 25.938c-12.977 0-23.617 10.637-23.617 23.613 0 12.977 10.641 23.625 23.617 23.625 12.977 0 23.621-10.645 23.621-23.625 0-12.977-10.645-23.613-23.621-23.613zm0 11.43c6.7969 0 12.184 5.3828 12.184 12.184 0 6.7969-5.3828 12.184-12.184 12.184-6.7969 0-12.184-5.3828-12.184-12.184 0-6.7969 5.3906-12.184 12.184-12.184zm-50.793 8.4141c-9.6836 0-17.652 7.9727-17.652 17.652 0 9.6836 7.9727 17.652 17.652 17.652 9.6836 0 17.645-7.9727 17.645-17.652 0-9.6836-7.9648-17.652-17.645-17.652zm0 11.438c3.5 0 6.2148 2.7148 6.2148 6.2148s-2.7148 6.2227-6.2148 6.2227-6.2227-2.7266-6.2227-6.2227c0-3.5 2.7148-6.2148 6.2227-6.2148zm-165.62 9.082h32.699v0.003906c0.94531 0.24609 1.9336 0.24609 2.8789 0h14.789l3.8828 18.785h-58.133zm-16.59 30.227h77.172v0.003907c0.48437 0.0625 0.97656 0.0625 1.4648 0h4.9062c3.5469 0 6.2148 2.668 6.2148 6.2148s-2.668 6.2148-6.2148 6.2148h-83.543c-3.5391 0-6.2148-2.668-6.2148-6.2148s2.6758-6.2148 6.2148-6.2148zm157.02 5.1328h50.363l3.8828 18.785h-58.133zm-151.62 18.734h72.73l19.828 95.797-82.422 29.977v0.007813c-2.2578 0.82031-3.7656 2.9688-3.7656 5.375v149.43h-64.418zm135.03 11.492h77.152v0.003906c0.49609 0.066407 0.99609 0.066407 1.4922 0h4.8945c3.5391 0 6.2148 2.668 6.2148 6.2148s-2.668 6.2227-6.2148 6.2227h-83.543c-3.5469 0-6.2148-2.6758-6.2148-6.2227s2.668-6.2148 6.2148-6.2148zm5.3906 23.867h72.742l12.379 59.82-76.453 27.801v-39.574l0.003906 0.007812c0-1.5469-0.625-3.0273-1.7383-4.1055-1.1094-1.0781-2.6055-1.6602-4.1523-1.6133-0.60938 0.03125-1.2109 0.16406-1.7773 0.38281l-10.617 3.8633zm-2.7734 56.223v189h-119.84v-145.43zm131.28 0v189h-24.363v-83.793 0.007813c0-3.1602-2.5625-5.7188-5.7188-5.7188h-59.676c-3.1562 0-5.7148 2.5586-5.7148 5.7188v83.793h-24.363v-145.43zm131.28 0v189h-119.84v-145.43zm-191.28 50.184-0.003906 0.003906c-0.28906 0.007812-0.57422 0.035156-0.85938 0.085938h-28.898c-3.1602 0-5.7188 2.5586-5.7188 5.7188v23.867c-0.003906 1.5195 0.59766 2.9766 1.6719 4.0508 1.0742 1.0742 2.5273 1.6758 4.0469 1.6758h28.395c0.94531 0.24609 1.9375 0.24609 2.8867 0h28.391c1.5156 0 2.9727-0.60156 4.043-1.6758 1.0742-1.0742 1.6758-2.5312 1.6719-4.0508v-23.867c0-3.1602-2.5586-5.7188-5.7148-5.7188h-28.887c-0.34375-0.058594-0.69141-0.089844-1.043-0.085938zm-24.035 11.52h18.406v12.434h-18.406zm29.836 0h18.395v12.434h-18.395zm-150.3 12.547-0.003906 0.003906c-1.5195-0.003906-2.9766 0.59766-4.0508 1.6719-1.0742 1.0781-1.6758 2.5352-1.6758 4.0547v26.613c0 1.5156 0.60547 2.9727 1.6797 4.0469 1.0742 1.0703 2.5312 1.6719 4.0469 1.6719h26.613c3.1602-0.003906 5.7188-2.5625 5.7188-5.7188v-26.613c0-1.5195-0.59766-2.9766-1.6719-4.0508-1.0742-1.0742-2.5273-1.6758-4.0469-1.6758zm262.56 0-0.003907 0.003906c-1.5195-0.003906-2.9766 0.59766-4.0508 1.6719-1.0742 1.0781-1.6797 2.5352-1.6758 4.0547v26.613c0 1.5156 0.60156 2.9727 1.6758 4.0469 1.0742 1.0703 2.5312 1.6719 4.0508 1.6719h26.613c1.5156 0 2.9727-0.60156 4.0469-1.6719 1.0742-1.0742 1.6797-2.5312 1.6797-4.0469v-26.613c0-1.5195-0.60156-2.9766-1.6758-4.0547-1.0742-1.0742-2.5312-1.6758-4.0508-1.6719zm-256.84 11.438h15.18v15.18h-15.18zm262.56 0h15.18v15.18h-15.18zm-147.81 25.246h48.234v78.07h-48.234zm-120.46 16.547-0.007812 0.003906c-1.5195 0-2.9766 0.60156-4.0508 1.6758-1.0742 1.0742-1.6758 2.5312-1.6758 4.0508v26.613c0 1.5156 0.60547 2.9727 1.6797 4.0469 1.0742 1.0703 2.5312 1.6719 4.0469 1.6719h26.613c3.1602-0.003907 5.7188-2.5625 5.7188-5.7188v-26.613c0-1.5156-0.59766-2.9727-1.6719-4.0469-1.0742-1.0742-2.5273-1.6797-4.0469-1.6797zm262.56 0-0.007813 0.003906c-1.5195 0-2.9766 0.60156-4.0508 1.6758-1.0742 1.0742-1.6797 2.5312-1.6758 4.0508v26.613c0 1.5156 0.60156 2.9727 1.6758 4.0469 1.0742 1.0703 2.5312 1.6719 4.0508 1.6719h26.613c1.5156 0 2.9727-0.60156 4.0469-1.6719 1.0742-1.0742 1.6797-2.5312 1.6797-4.0469v-26.613c0-1.5195-0.60156-2.9766-1.6758-4.0508-1.0742-1.0742-2.5312-1.6758-4.0508-1.6758zm-256.84 11.441h15.18v15.172h-15.18zm262.56 0h15.18v15.172h-15.18z"/>
</svg>
