<svg width="91" height="91" viewBox="0 0 91 91" fill="none" xmlns="http://www.w3.org/2000/svg">
<g clip-path="url(#clip0_53_242)">
<path fill-rule="evenodd" clip-rule="evenodd" d="M46 21.5L46 62H45L45 21.5H46ZM46 4.37114e-08V15H45V0L46 4.37114e-08Z" fill="black"/>
<path fill-rule="evenodd" clip-rule="evenodd" d="M46 69.5V58H45V69.5H46ZM46 91V76H45V91H46Z" fill="black"/>
<path fill-rule="evenodd" clip-rule="evenodd" d="M45.5 14.2929L52.2175 21.0104L51.5104 21.7175L45.5 15.7071L39.4896 21.7175L38.7825 21.0104L45.5 14.2929Z" fill="black"/>
<path fill-rule="evenodd" clip-rule="evenodd" d="M45.5 76.435L52.2175 69.7175L51.5104 69.0104L45.5 75.0208L39.4896 69.0104L38.7825 69.7175L45.5 76.435Z" fill="black"/>
<path fill-rule="evenodd" clip-rule="evenodd" d="M45.5 20.2929L52.2175 27.0104L51.5104 27.7175L45.5 21.7071L39.4896 27.7175L38.7825 27.0104L45.5 20.2929Z" fill="black"/>
<path fill-rule="evenodd" clip-rule="evenodd" d="M45.5 70.435L52.2175 63.7175L51.5104 63.0104L45.5 69.0208L39.4896 63.0104L38.7825 63.7175L45.5 70.435Z" fill="black"/>
</g>
<defs>
<clipPath id="clip0_53_242">
<rect width="91" height="91" fill="white"/>
</clipPath>
</defs>
</svg>
