<svg width="76" height="91" viewBox="0 0 76 91" fill="none" xmlns="http://www.w3.org/2000/svg">
<path fill-rule="evenodd" clip-rule="evenodd" d="M74 45.5C74 33.0736 63.9264 23 51.5 23C39.0736 23 29 33.0736 29 45.5C29 57.9264 39.0736 68 51.5 68C63.9264 68 74 57.9264 74 45.5ZM76 45.5C76 31.969 65.031 21 51.5 21C37.969 21 27 31.969 27 45.5C27 59.031 37.969 70 51.5 70C65.031 70 76 59.031 76 45.5Z" fill="black"/>
<path fill-rule="evenodd" clip-rule="evenodd" d="M53.5894 40.595C54.4739 39.1797 54.9999 37.741 54.9999 36.5C54.9999 34.706 54.4379 33.0126 53.5894 31.655C52.7328 30.2844 51.6323 29.33 50.6285 28.9285L51.3713 27.0715C52.8675 27.67 54.267 28.9656 55.2854 30.595C56.3119 32.2374 56.9999 34.294 56.9999 36.5C56.9999 38.259 56.2759 40.0703 55.2854 41.655C54.2871 43.2524 52.961 44.7117 51.6246 45.7809L50.3752 44.2191C51.5388 43.2883 52.7127 41.9976 53.5894 40.595Z" fill="black"/>
<path fill-rule="evenodd" clip-rule="evenodd" d="M51.6247 45.7809C49.1921 47.727 47 50.4695 47 53.5C47 57.2384 48.8647 60.2341 51.3162 61.0513L50.6838 62.9487C47.1353 61.7659 45 57.7616 45 53.5C45 49.5305 47.8079 46.273 50.3753 44.2191L51.6247 45.7809Z" fill="black"/>
<path fill-rule="evenodd" clip-rule="evenodd" d="M0 45L27 45V46L4.37112e-08 46L0 45Z" fill="black"/>
</svg>
