<svg width="91" height="91" viewBox="0 0 91 91" fill="none" xmlns="http://www.w3.org/2000/svg">
<path fill-rule="evenodd" clip-rule="evenodd" d="M80 45H91L91 46H80V45Z" fill="black"/>
<path fill-rule="evenodd" clip-rule="evenodd" d="M11 37V54H10V37H11Z" fill="black"/>
<path fill-rule="evenodd" clip-rule="evenodd" d="M1 44L1 47H0L0 44H1Z" fill="black"/>
<path fill-rule="evenodd" clip-rule="evenodd" d="M6 41V50H5V41H6Z" fill="black"/>
<path fill-rule="evenodd" clip-rule="evenodd" d="M11 45H33V46H11V45Z" fill="black"/>
<path fill-rule="evenodd" clip-rule="evenodd" d="M79 51V40H34V51H79ZM80 39H33V52H80V39Z" fill="black"/>
<path fill-rule="evenodd" clip-rule="evenodd" d="M72 45H89V46H72V45Z" fill="black"/>
<path d="M64 45.5L75 42V49L64 45.5Z" fill="black"/>
<path fill-rule="evenodd" clip-rule="evenodd" d="M51 45H34V46H51V45Z" fill="black"/>
<path d="M59 45.5L48 42V49L59 45.5Z" fill="black"/>
</svg>
