<svg width="82" height="91" viewBox="0 0 82 91" fill="none" xmlns="http://www.w3.org/2000/svg">
<path fill-rule="evenodd" clip-rule="evenodd" d="M47.5 69C60.4787 69 71 58.4787 71 45.5H73C73 59.5833 61.5833 71 47.5 71C33.4167 71 22 59.5833 22 45.5C22 31.4167 33.4167 20 47.5 20V22C34.5213 22 24 32.5213 24 45.5C24 58.4787 34.5213 69 47.5 69Z" fill="black"/>
<path fill-rule="evenodd" clip-rule="evenodd" d="M47 46V20H48V46H47Z" fill="black"/>
<path fill-rule="evenodd" clip-rule="evenodd" d="M11 45H48V46H11V45Z" fill="black"/>
<path fill-rule="evenodd" clip-rule="evenodd" d="M82 46H71V45H82L82 46Z" fill="black"/>
<path fill-rule="evenodd" clip-rule="evenodd" d="M11 37V54H10V37H11Z" fill="black"/>
<path fill-rule="evenodd" clip-rule="evenodd" d="M1 44L1 47H0L0 44H1Z" fill="black"/>
<path fill-rule="evenodd" clip-rule="evenodd" d="M6 41V50H5V41H6Z" fill="black"/>
</svg>
