<svg width="49" height="91" viewBox="0 0 49 91" fill="none" xmlns="http://www.w3.org/2000/svg">
<g clip-path="url(#clip0_1_391)">
<path fill-rule="evenodd" clip-rule="evenodd" d="M47 45.5C47 33.0736 36.9264 23 24.5 23C12.0736 23 2 33.0736 2 45.5C2 57.9264 12.0736 68 24.5 68C36.9264 68 47 57.9264 47 45.5ZM49 45.5C49 31.969 38.031 21 24.5 21C10.969 21 0 31.969 0 45.5C0 59.031 10.969 70 24.5 70C38.031 70 49 59.031 49 45.5Z" fill="black"/>
<path fill-rule="evenodd" clip-rule="evenodd" d="M22 56L22 35H23L23 56H22Z" fill="black"/>
<path fill-rule="evenodd" clip-rule="evenodd" d="M27 56L27 35H28L28 56H27Z" fill="black"/>
</g>
<defs>
<clipPath id="clip0_1_391">
<rect width="91" height="49" fill="white" transform="translate(0 91) rotate(-90)"/>
</clipPath>
</defs>
</svg>
