<svg width="91" height="49" viewBox="0 0 91 49" fill="none" xmlns="http://www.w3.org/2000/svg">
<path fill-rule="evenodd" clip-rule="evenodd" d="M45.5 47C57.9264 47 68 36.9264 68 24.5C68 12.0736 57.9264 2 45.5 2C33.0736 2 23 12.0736 23 24.5C23 36.9264 33.0736 47 45.5 47ZM45.5 49C59.031 49 70 38.031 70 24.5C70 10.969 59.031 0 45.5 0C31.969 0 21 10.969 21 24.5C21 38.031 31.969 49 45.5 49Z" fill="black"/>
<path fill-rule="evenodd" clip-rule="evenodd" d="M35 22H56V23H35V22Z" fill="black"/>
<path fill-rule="evenodd" clip-rule="evenodd" d="M35 27H56V28H35V27Z" fill="black"/>
</svg>
