<svg width="91" height="91" viewBox="0 0 91 91" fill="none" xmlns="http://www.w3.org/2000/svg">
<path fill-rule="evenodd" clip-rule="evenodd" d="M57 57V34H34V57H57ZM58 33H33V58H58V33Z" fill="black"/>
<path fill-rule="evenodd" clip-rule="evenodd" d="M69.5 46H58V45H69.5V46ZM91 46H76V45H91L91 46Z" fill="black"/>
<path fill-rule="evenodd" clip-rule="evenodd" d="M21.5 46H33V45H21.5V46ZM0 46H15V45H0V46Z" fill="black"/>
<path fill-rule="evenodd" clip-rule="evenodd" d="M45 52V39H46V52H45Z" fill="black"/>
<path fill-rule="evenodd" clip-rule="evenodd" d="M76.707 45.5L69.9895 52.2175L69.2824 51.5104L75.2928 45.5L69.2824 39.4896L69.9895 38.7825L76.707 45.5Z" fill="black"/>
<path fill-rule="evenodd" clip-rule="evenodd" d="M14.5649 45.5L21.2824 52.2175L21.9895 51.5104L15.9791 45.5L21.9895 39.4896L21.2824 38.7825L14.5649 45.5Z" fill="black"/>
<path fill-rule="evenodd" clip-rule="evenodd" d="M70.707 45.5L63.9895 52.2175L63.2824 51.5104L69.2928 45.5L63.2824 39.4896L63.9895 38.7825L70.707 45.5Z" fill="black"/>
<path fill-rule="evenodd" clip-rule="evenodd" d="M20.5649 45.5L27.2824 52.2175L27.9895 51.5104L21.9791 45.5L27.9895 39.4896L27.2824 38.7825L20.5649 45.5Z" fill="black"/>
</svg>
