<svg width="91" height="91" viewBox="0 0 91 91" fill="none" xmlns="http://www.w3.org/2000/svg">
<path fill-rule="evenodd" clip-rule="evenodd" d="M45.5 13.2929L52.2175 20.0104L51.5104 20.7175L45.5 14.7071L39.4896 20.7175L38.7825 20.0104L45.5 13.2929Z" fill="black"/>
<path fill-rule="evenodd" clip-rule="evenodd" d="M46 4.37114e-08V14H45V0L46 4.37114e-08Z" fill="black"/>
<path fill-rule="evenodd" clip-rule="evenodd" d="M40 20H51V21H40V20Z" fill="black"/>
<path fill-rule="evenodd" clip-rule="evenodd" d="M45.5 77.435L52.2175 70.7175L51.5104 70.0104L45.5 76.0208L39.4896 70.0104L38.7825 70.7175L45.5 77.435Z" fill="black"/>
<path fill-rule="evenodd" clip-rule="evenodd" d="M45 91V76H46V91H45Z" fill="black"/>
<path fill-rule="evenodd" clip-rule="evenodd" d="M40 70.7279H51V69.7279H40V70.7279Z" fill="black"/>
<path fill-rule="evenodd" clip-rule="evenodd" d="M45.5 21.2929L52.2175 28.0104L51.5104 28.7175L45.5 22.7071L39.4896 28.7175L38.7825 28.0104L45.5 21.2929Z" fill="black"/>
<path fill-rule="evenodd" clip-rule="evenodd" d="M57 34H34V57H57V34ZM33 33V58H58V33H33Z" fill="black"/>
<path fill-rule="evenodd" clip-rule="evenodd" d="M52 46H39V45H52V46Z" fill="black"/>
<path fill-rule="evenodd" clip-rule="evenodd" d="M45 33V22H46V33H45Z" fill="black"/>
<path fill-rule="evenodd" clip-rule="evenodd" d="M45 68V57H46V68H45Z" fill="black"/>
<line x1="33.6464" y1="57.6464" x2="57.6465" y2="33.6464" stroke="black"/>
</svg>
