<svg width="89" height="81" viewBox="0 0 89 81" fill="none" xmlns="http://www.w3.org/2000/svg">
<path fill-rule="evenodd" clip-rule="evenodd" d="M23.45 45.5C25.5346 55.7703 34.6146 63.5004 45.5 63.5004C57.9264 63.5004 68 53.4268 68 41.0004C68 28.574 57.9264 18.5004 45.5 18.5004C34.9711 18.5004 26.1313 25.7324 23.6771 35.5H21.6199C24.1162 24.6175 33.8602 16.5004 45.5 16.5004C59.031 16.5004 70 27.4694 70 41.0004C70 54.5313 59.031 65.5004 45.5 65.5004C33.5061 65.5004 23.5251 56.8818 21.4123 45.5H23.45Z" fill="black"/>
<path fill-rule="evenodd" clip-rule="evenodd" d="M47.5039 0V35.5H22V34.5H46.5039V0L47.5039 0Z" fill="black"/>
<path fill-rule="evenodd" clip-rule="evenodd" d="M47.5039 80.9999V45.4999H22.0039V46.4999H46.5039V80.9999H47.5039Z" fill="black"/>
<path fill-rule="evenodd" clip-rule="evenodd" d="M89 41L70 41.0004V40H89L89 41Z" fill="black"/>
</svg>
