<svg width="82" height="85" viewBox="0 0 82 85" fill="none" xmlns="http://www.w3.org/2000/svg">
<g clip-path="url(#clip0_3_521)">
<path fill-rule="evenodd" clip-rule="evenodd" d="M79.5 25C79.5 12.5736 69.4264 2.5 57 2.5C44.5736 2.5 34.5 12.5736 34.5 25C34.5 37.4264 44.5736 47.5 57 47.5C69.4264 47.5 79.5 37.4264 79.5 25ZM81.5 25C81.5 11.469 70.531 0.5 57 0.5C43.469 0.5 32.5 11.469 32.5 25C32.5 38.531 43.469 49.5 57 49.5C70.531 49.5 81.5 38.531 81.5 25Z" fill="black"/>
<path fill-rule="evenodd" clip-rule="evenodd" d="M79.5 60C79.5 47.5736 69.4264 37.5 57 37.5C44.5736 37.5 34.5 47.5736 34.5 60C34.5 72.4264 44.5736 82.5 57 82.5C69.4264 82.5 79.5 72.4264 79.5 60ZM81.5 60C81.5 46.469 70.531 35.5 57 35.5C43.469 35.5 32.5 46.469 32.5 60C32.5 73.531 43.469 84.5 57 84.5C70.531 84.5 81.5 73.531 81.5 60Z" fill="black"/>
<path fill-rule="evenodd" clip-rule="evenodd" d="M47.5 43C47.5 30.5736 37.4264 20.5 25 20.5C12.5736 20.5 2.5 30.5736 2.5 43C2.5 55.4264 12.5736 65.5 25 65.5C37.4264 65.5 47.5 55.4264 47.5 43ZM49.5 43C49.5 29.469 38.531 18.5 25 18.5C11.469 18.5 0.5 29.469 0.5 43C0.5 56.531 11.469 67.5 25 67.5C38.531 67.5 49.5 56.531 49.5 43Z" fill="black"/>
<path fill-rule="evenodd" clip-rule="evenodd" d="M48.5 65L66.5 75.5V54.5L48.5 65ZM50.4846 65L65.5 73.759V56.241L50.4846 65Z" fill="black"/>
<path fill-rule="evenodd" clip-rule="evenodd" d="M57.2941 21.8195L51.8875 15.1842L51.1123 15.8158L56.966 23L51.1123 30.1842L51.8875 30.8158L57.8486 23.5H66.4999V22.5H58.1977L59.2158 16.1562L58.2284 15.9977L57.2941 21.8195Z" fill="black"/>
<path fill-rule="evenodd" clip-rule="evenodd" d="M23.2941 41.8195L17.8875 35.1842L17.1123 35.8158L22.966 43L17.1123 50.1842L17.8875 50.8158L23.8486 43.5H32.4999V42.5H24.1977L25.2158 36.1562L24.2284 35.9977L23.2941 41.8195Z" fill="black"/>
</g>
<defs>
<clipPath id="clip0_3_521">
<rect width="84" height="81" fill="white" transform="translate(0.5 84.5) rotate(-90)"/>
</clipPath>
</defs>
</svg>
