<svg width="91" height="91" viewBox="0 0 91 91" fill="none" xmlns="http://www.w3.org/2000/svg">
<path fill-rule="evenodd" clip-rule="evenodd" d="M57 34H34V57H57V34ZM33 33V58H58V33H33Z" fill="black"/>
<path fill-rule="evenodd" clip-rule="evenodd" d="M46 4.37114e-08L46 33H45L45 0L46 4.37114e-08Z" fill="black"/>
<path fill-rule="evenodd" clip-rule="evenodd" d="M52 46H39V45H52V46Z" fill="black"/>
<path fill-rule="evenodd" clip-rule="evenodd" d="M45 91L45 58H46L46 91H45Z" fill="black"/>
<path d="M63.08 40H59.71V33.33H62.99C63.5833 33.33 64.0467 33.4933 64.38 33.82C64.72 34.14 64.89 34.5433 64.89 35.03C64.89 35.43 64.7767 35.77 64.55 36.05C64.33 36.3233 64.0567 36.4933 63.73 36.56C64.09 36.6133 64.3933 36.8 64.64 37.12C64.8933 37.4333 65.02 37.7933 65.02 38.2C65.02 38.7333 64.8467 39.1667 64.5 39.5C64.16 39.8333 63.6867 40 63.08 40ZM62.75 36.09C63.0433 36.09 63.2733 36.01 63.44 35.85C63.6067 35.69 63.69 35.4833 63.69 35.23C63.69 34.97 63.6067 34.76 63.44 34.6C63.2733 34.44 63.0433 34.36 62.75 34.36H60.88V36.09H62.75ZM62.8 38.97C63.12 38.97 63.37 38.89 63.55 38.73C63.73 38.5633 63.82 38.3333 63.82 38.04C63.82 37.78 63.73 37.5633 63.55 37.39C63.37 37.21 63.12 37.12 62.8 37.12H60.88V38.97H62.8Z" fill="black"/>
<path d="M72.0044 40H70.8344V37.09H67.3644V40H66.1944V33.33H67.3644V36.06H70.8344V33.33H72.0044V40Z" fill="black"/>
</svg>
