<svg width="514" height="554" viewBox="0 0 514 554" fill="none" xmlns="http://www.w3.org/2000/svg">
<path d="M455 460.005H58.3333C51.8907 460.005 46.6667 454.787 46.6667 448.339V180.005C46.6667 173.563 51.8907 168.339 58.3333 168.339H455C461.443 168.339 466.667 173.563 466.667 180.005V448.339C466.667 454.787 461.443 460.005 455 460.005ZM70 436.672H443.333V191.672H70V436.672Z" fill="black"/>
<path d="M478.333 518.325H35C28.5573 518.325 23.3333 513.107 23.3333 506.659V448.325C23.3333 441.877 28.5573 436.659 35 436.659H478.333C484.776 436.659 490 441.877 490 448.325V506.659C490 513.107 484.776 518.325 478.333 518.325ZM46.6667 494.992H466.667V459.992H46.6667V494.992Z" fill="black"/>
<path d="M478.333 191.659H35C28.5573 191.659 23.3333 186.435 23.3333 179.992V121.659C23.3333 115.216 28.5573 109.992 35 109.992H478.333C484.776 109.992 490 115.216 490 121.659V179.992C490 186.435 484.776 191.659 478.333 191.659ZM46.6667 168.325H466.667V133.325H46.6667V168.325Z" fill="black"/>
<path d="M105 553.339H58.3333C51.8907 553.339 46.6667 548.12 46.6667 541.672V506.672C46.6667 500.224 51.8907 495.005 58.3333 495.005H105C111.443 495.005 116.667 500.224 116.667 506.672V541.672C116.667 548.12 111.443 553.339 105 553.339ZM70 530.005H93.3333V518.339H70V530.005Z" fill="black"/>
<path d="M455 553.339H408.333C401.891 553.339 396.667 548.12 396.667 541.672V506.672C396.667 500.224 401.891 495.005 408.333 495.005H455C461.443 495.005 466.667 500.224 466.667 506.672V541.672C466.667 548.12 461.443 553.339 455 553.339ZM420 530.005H443.333V518.339H420V530.005Z" fill="black"/>
<path d="M244.48 372.365C241.845 372.365 239.194 371.475 237.011 369.652C232.063 365.527 231.402 358.167 235.532 353.225L250.543 335.236L233.179 335.533C229.012 335.543 224.689 333.184 222.647 329.277C220.595 325.371 220.934 320.642 223.507 317.053L249.335 281.132C253.095 275.908 260.392 274.726 265.622 278.471C270.851 282.236 272.043 289.528 268.283 294.757L256.023 311.799L275.643 311.455C279.627 311.361 284.393 313.96 286.361 318.085C288.33 322.2 287.721 327.085 284.794 330.596L253.439 368.169C251.137 370.94 247.819 372.367 244.481 372.367L244.48 372.365Z" fill="black"/>
<path d="M350.253 411.619H163.08C155.038 411.619 147.835 407.462 143.815 400.499C139.794 393.525 139.794 385.207 143.82 378.248L237.399 216.155C241.419 209.186 248.623 205.03 256.664 205.03C264.705 205.03 271.915 209.197 275.929 216.16L369.513 378.24C373.534 385.204 373.534 393.516 369.513 400.491C365.492 407.454 358.289 411.616 350.248 411.616L350.253 411.619ZM164.973 388.285H348.373L256.676 229.459L164.973 388.285Z" fill="black"/>
<path d="M58.3333 436.672C56.5521 436.672 54.7604 436.261 53.1145 435.443L6.44788 412.11C2.49481 410.125 0 406.094 0 401.672V226.672C0 222.25 2.49481 218.214 6.44788 216.235L53.1145 192.901C56.7239 191.094 61.026 191.297 64.4687 193.412C67.9061 195.542 69.9999 199.292 69.9999 203.339V425.005C69.9999 429.052 67.9061 432.797 64.4687 434.927C62.5937 436.089 60.4635 436.672 58.3332 436.672L58.3333 436.672ZM23.3333 394.459L46.6667 406.125V222.219L23.3333 233.885V394.459Z" fill="black"/>
<path d="M455 436.672C452.87 436.672 450.74 436.089 448.865 434.927C445.427 432.797 443.333 429.052 443.333 425.005V203.339C443.333 199.292 445.427 195.542 448.865 193.417C452.307 191.297 456.615 191.099 460.219 192.906L506.885 216.24C510.838 218.214 513.333 222.25 513.333 226.672V401.672C513.333 406.094 510.838 410.125 506.885 412.109L460.219 435.443C458.573 436.261 456.781 436.672 455 436.672L455 436.672ZM466.667 222.219V406.125L490 394.459V233.885L466.667 222.219Z" fill="black"/>
<path d="M105 110.005H148.281V133.339H105V110.005Z" fill="black"/>
<path d="M234.973 110.005H278.369V133.339H234.973V110.005Z" fill="black"/>
<path d="M365.053 110.005H408.335V133.339H365.053V110.005Z" fill="black"/>
<path d="M156.667 60.0053H99.9947C83.4533 60.0053 70 46.552 70 30.0053C70 13.464 83.4533 0 100 0H156.672C173.213 0.005208 186.667 13.464 186.667 30.0053C186.667 46.552 173.213 60.0053 156.667 60.0053ZM100 23.3387C96.3229 23.3387 93.3333 26.3283 93.3333 30.0053C93.3333 33.6772 96.3229 36.672 100 36.672H156.672C160.344 36.672 163.333 33.6824 163.333 30.0053C163.333 26.3231 160.344 23.3335 156.667 23.3335L100 23.3387Z" fill="black"/>
<path d="M156.667 96.672H99.9947C83.4533 96.672 70 83.2133 70 66.672C70 50.1307 83.4533 36.672 100 36.672H156.672C173.213 36.672 186.667 50.1307 186.667 66.672C186.667 83.2133 173.213 96.672 156.667 96.672ZM100 60.0053C96.3229 60.0053 93.3333 62.9949 93.3333 66.672C93.3333 70.3439 96.3229 73.3387 100 73.3387H156.672C160.344 73.3387 163.333 70.3439 163.333 66.672C163.333 63.0001 160.344 60.0053 156.667 60.0053H100Z" fill="black"/>
<path d="M156.667 133.339H99.9947C83.4533 133.339 70 119.885 70 103.339C70 86.7974 83.4533 73.3334 100 73.3334H156.672C173.213 73.3386 186.667 86.7974 186.667 103.339C186.667 119.885 173.213 133.339 156.667 133.339ZM100 96.672C96.3229 96.672 93.3333 99.6616 93.3333 103.339C93.3333 107.016 96.3229 110.005 100 110.005H156.672C160.344 110.005 163.333 107.016 163.333 103.339C163.333 99.6564 160.344 96.6668 156.667 96.6668L100 96.672Z" fill="black"/>
<path d="M285 60.0053H228.328C211.787 60.0053 198.333 46.552 198.333 30.0053C198.333 13.464 211.787 0 228.333 0H285.005C301.547 0.005208 315 13.464 315 30.0053C315 46.552 301.547 60.0053 285 60.0053ZM228.333 23.3387C224.656 23.3387 221.667 26.3283 221.667 30.0053C221.667 33.6772 224.656 36.672 228.333 36.672H285.005C288.677 36.672 291.667 33.6824 291.667 30.0053C291.667 26.3231 288.677 23.3335 285 23.3335L228.333 23.3387Z" fill="black"/>
<path d="M285 96.672H228.328C211.787 96.672 198.333 83.2133 198.333 66.672C198.333 50.1307 211.787 36.672 228.333 36.672H285.005C301.547 36.672 315 50.1307 315 66.672C315 83.2133 301.547 96.672 285 96.672ZM228.333 60.0053C224.656 60.0053 221.667 62.9949 221.667 66.672C221.667 70.3439 224.656 73.3387 228.333 73.3387H285.005C288.677 73.3387 291.667 70.3439 291.667 66.672C291.667 63.0001 288.677 60.0053 285 60.0053H228.333Z" fill="black"/>
<path d="M285 133.339H228.328C211.787 133.339 198.333 119.885 198.333 103.339C198.333 86.7974 211.787 73.3334 228.333 73.3334H285.005C301.547 73.3386 315 86.7974 315 103.339C315 119.885 301.547 133.339 285 133.339ZM228.333 96.672C224.656 96.672 221.667 99.6616 221.667 103.339C221.667 107.016 224.656 110.005 228.333 110.005H285.005C288.677 110.005 291.667 107.016 291.667 103.339C291.667 99.6564 288.677 96.6668 285 96.6668L228.333 96.672Z" fill="black"/>
<path d="M413.333 60.0053H356.661C340.12 60.0053 326.667 46.552 326.667 30.0053C326.667 13.464 340.12 0 356.667 0H413.339C429.88 0.005208 443.333 13.464 443.333 30.0053C443.333 46.552 429.88 60.0053 413.333 60.0053ZM356.667 23.3387C352.99 23.3387 350 26.3283 350 30.0053C350 33.6772 352.99 36.672 356.667 36.672H413.339C417.011 36.672 420 33.6824 420 30.0053C420 26.3231 417.011 23.3335 413.333 23.3335L356.667 23.3387Z" fill="black"/>
<path d="M413.333 96.672H356.661C340.12 96.672 326.667 83.2133 326.667 66.672C326.667 50.1307 340.12 36.672 356.667 36.672H413.339C429.88 36.672 443.333 50.1307 443.333 66.672C443.333 83.2133 429.88 96.672 413.333 96.672ZM356.667 60.0053C352.99 60.0053 350 62.9949 350 66.672C350 70.3439 352.99 73.3387 356.667 73.3387H413.339C417.011 73.3387 420 70.3439 420 66.672C420 63.0001 417.011 60.0053 413.333 60.0053H356.667Z" fill="black"/>
<path d="M413.333 133.339H356.661C340.12 133.339 326.667 119.885 326.667 103.339C326.667 86.7974 340.12 73.3334 356.667 73.3334H413.339C429.88 73.3386 443.333 86.7974 443.333 103.339C443.333 119.885 429.88 133.339 413.333 133.339ZM356.667 96.672C352.99 96.672 350 99.6616 350 103.339C350 107.016 352.99 110.005 356.667 110.005H413.339C417.011 110.005 420 107.016 420 103.339C420 99.6564 417.011 96.6668 413.333 96.6668L356.667 96.672Z" fill="black"/>
</svg>
