<?xml version="1.0" encoding="UTF-8"?>
<svg width="700pt" height="700pt" version="1.1" viewBox="0 0 700 700" xmlns="http://www.w3.org/2000/svg" xmlns:xlink="http://www.w3.org/1999/xlink">
 <defs>
  <symbol id="s" overflow="visible">
   <path d="m1.1875-0.078125c-0.0625 0.042969-0.13281 0.070312-0.20312 0.078125-0.0625 0.019531-0.13281 0.03125-0.20312 0.03125-0.21094 0-0.375-0.054688-0.5-0.17188-0.125-0.125-0.1875-0.28906-0.1875-0.5 0-0.20703 0.0625-0.36719 0.1875-0.48438 0.125-0.125 0.28906-0.1875 0.5-0.1875 0.070312 0 0.14062 0.011719 0.20312 0.03125 0.070313 0.011719 0.14062 0.03125 0.20312 0.0625v0.26562c-0.0625-0.039063-0.125-0.066406-0.1875-0.078125-0.0625-0.019531-0.125-0.03125-0.1875-0.03125-0.11719 0-0.21094 0.039062-0.28125 0.10938-0.0625 0.074219-0.09375 0.17969-0.09375 0.3125 0 0.13672 0.03125 0.24219 0.09375 0.3125 0.070312 0.074219 0.16406 0.10938 0.28125 0.10938 0.0625 0 0.125-0.007812 0.1875-0.03125 0.0625-0.019531 0.125-0.050781 0.1875-0.09375z"/>
  </symbol>
  <symbol id="e" overflow="visible">
   <path d="m0.85938-0.70312c-0.023437-0.007813-0.046875-0.015625-0.078125-0.015625-0.023438-0.007812-0.046875-0.015625-0.078125-0.015625-0.085937 0-0.14844 0.027344-0.1875 0.078125-0.042969 0.042969-0.0625 0.11719-0.0625 0.21875v0.4375h-0.3125v-0.96875h0.3125v0.15625c0.039063-0.0625 0.085937-0.10156 0.14062-0.125 0.050781-0.03125 0.11328-0.046875 0.1875-0.046875h0.03125 0.046875z"/>
  </symbol>
  <symbol id="a" overflow="visible">
   <path d="m1.1094-0.48438v0.09375h-0.71875c0.007813 0.074219 0.035156 0.125 0.078125 0.15625 0.039062 0.03125 0.10156 0.046875 0.1875 0.046875 0.0625 0 0.125-0.003906 0.1875-0.015625 0.070312-0.019531 0.14453-0.050781 0.21875-0.09375v0.23438c-0.074219 0.03125-0.14844 0.054688-0.21875 0.0625-0.074219 0.019531-0.14844 0.03125-0.21875 0.03125-0.17969 0-0.3125-0.039062-0.40625-0.125-0.09375-0.09375-0.14062-0.22266-0.14062-0.39062 0-0.15625 0.046875-0.27344 0.14062-0.35938 0.09375-0.09375 0.22266-0.14062 0.39062-0.14062 0.15625 0 0.27344 0.046875 0.35938 0.14062 0.09375 0.085938 0.14062 0.20312 0.14062 0.35938zm-0.3125-0.10938c0-0.050781-0.023437-0.09375-0.0625-0.125-0.03125-0.039062-0.074219-0.0625-0.125-0.0625-0.0625 0-0.11719 0.015625-0.15625 0.046875-0.03125 0.03125-0.054687 0.078125-0.0625 0.14062z"/>
  </symbol>
  <symbol id="l" overflow="visible">
   <path d="m0.57812-0.4375c-0.0625 0-0.10938 0.011719-0.14062 0.03125-0.03125 0.023438-0.046875 0.054688-0.046875 0.09375 0 0.042969 0.007813 0.074219 0.03125 0.09375 0.03125 0.023438 0.066406 0.03125 0.10938 0.03125 0.0625 0 0.10938-0.019531 0.14062-0.0625 0.039063-0.039062 0.0625-0.09375 0.0625-0.15625v-0.03125zm0.46875-0.10938v0.54688h-0.3125v-0.14062c-0.042969 0.054688-0.089844 0.09375-0.14062 0.125-0.042969 0.03125-0.10547 0.046875-0.1875 0.046875-0.09375 0-0.17188-0.03125-0.23438-0.09375s-0.09375-0.14062-0.09375-0.23438c0-0.10156 0.035156-0.17969 0.10938-0.23438 0.082031-0.0625 0.20703-0.09375 0.375-0.09375h0.17188v-0.015625c0-0.050781-0.023437-0.085937-0.0625-0.10938-0.03125-0.019531-0.089844-0.03125-0.17188-0.03125-0.0625 0-0.125 0.007812-0.1875 0.015625-0.054688 0.011719-0.10547 0.03125-0.15625 0.0625v-0.23438c0.070312-0.019531 0.14062-0.03125 0.20312-0.03125 0.0625-0.007812 0.12891-0.015625 0.20312-0.015625 0.17578 0 0.30078 0.039063 0.375 0.10938 0.070312 0.0625 0.10938 0.17188 0.10938 0.32812z"/>
  </symbol>
  <symbol id="d" overflow="visible">
   <path d="m0.48438-1.2344v0.26562h0.3125v0.21875h-0.3125v0.42188c0 0.042969 0.003906 0.074219 0.015625 0.09375 0.019531 0.011719 0.0625 0.015625 0.125 0.015625h0.15625v0.21875h-0.26562c-0.125 0-0.21484-0.023438-0.26562-0.078125-0.054688-0.050781-0.078125-0.13281-0.078125-0.25v-0.42188h-0.15625v-0.21875h0.15625v-0.26562z"/>
  </symbol>
  <symbol id="k" overflow="visible">
   <path d="m0.8125-0.82812v-0.51562h0.29688v1.3438h-0.29688v-0.14062c-0.054688 0.0625-0.10547 0.10938-0.15625 0.14062-0.042969 0.019531-0.10156 0.03125-0.17188 0.03125-0.11719 0-0.21484-0.046875-0.29688-0.14062-0.074219-0.10156-0.10938-0.22656-0.10938-0.375 0-0.14453 0.035156-0.26562 0.10938-0.35938 0.082031-0.09375 0.17969-0.14062 0.29688-0.14062 0.070313 0 0.12891 0.015625 0.17188 0.046875 0.050781 0.023438 0.10156 0.058594 0.15625 0.10938zm-0.20312 0.625c0.0625 0 0.10938-0.019531 0.14062-0.0625 0.039062-0.050781 0.0625-0.125 0.0625-0.21875s-0.023438-0.16016-0.0625-0.20312c-0.03125-0.050781-0.078125-0.078125-0.14062-0.078125-0.074219 0-0.125 0.027344-0.15625 0.078125-0.03125 0.042969-0.046875 0.10938-0.046875 0.20312s0.015625 0.16797 0.046875 0.21875c0.03125 0.042969 0.082031 0.0625 0.15625 0.0625z"/>
  </symbol>
  <symbol id="g" overflow="visible">
   <path d="m0.65625-0.20312c0.070312 0 0.125-0.019531 0.15625-0.0625 0.03125-0.050781 0.046875-0.125 0.046875-0.21875s-0.015625-0.16016-0.046875-0.20312c-0.03125-0.050781-0.085938-0.078125-0.15625-0.078125-0.0625 0-0.11719 0.027344-0.15625 0.078125-0.03125 0.042969-0.046875 0.10938-0.046875 0.20312s0.015625 0.16797 0.046875 0.21875c0.039062 0.042969 0.09375 0.0625 0.15625 0.0625zm-0.20312-0.625c0.039063-0.050781 0.085937-0.085937 0.14062-0.10938 0.050781-0.03125 0.11328-0.046875 0.1875-0.046875 0.11328 0 0.20703 0.046875 0.28125 0.14062 0.082031 0.09375 0.125 0.21484 0.125 0.35938 0 0.14844-0.042969 0.27344-0.125 0.375-0.074219 0.09375-0.16797 0.14062-0.28125 0.14062-0.074219 0-0.13672-0.015625-0.1875-0.046875-0.054688-0.03125-0.10156-0.070312-0.14062-0.125v0.14062h-0.3125v-1.3438h0.3125z"/>
  </symbol>
  <symbol id="f" overflow="visible">
   <path d="m0.015625-0.96875h0.3125l0.26562 0.65625 0.21875-0.65625h0.3125l-0.40625 1.0625c-0.042969 0.10156-0.09375 0.17578-0.15625 0.21875-0.054688 0.039062-0.12109 0.0625-0.20312 0.0625h-0.1875v-0.20312h0.09375c0.0625 0 0.10156-0.011719 0.125-0.03125 0.019531-0.011719 0.035156-0.039063 0.046875-0.078125l0.015625-0.03125z"/>
  </symbol>
  <symbol id="j" overflow="visible">
   <path d="m0.15625-1.2812h0.34375v1.2812h-0.34375z"/>
  </symbol>
  <symbol id="i" overflow="visible">
   <path d="m0.92188-0.9375v0.25c-0.042969-0.03125-0.085937-0.050781-0.125-0.0625-0.042969-0.007812-0.085937-0.015625-0.125-0.015625-0.085937 0-0.15234 0.027344-0.20312 0.078125-0.054688 0.042969-0.078125 0.10938-0.078125 0.20312s0.023437 0.16797 0.078125 0.21875c0.050781 0.042969 0.11719 0.0625 0.20312 0.0625 0.050781 0 0.097656-0.003906 0.14062-0.015625 0.039062-0.007812 0.078125-0.03125 0.10938-0.0625v0.25c-0.042969 0.023438-0.089844 0.035156-0.14062 0.046875-0.054688 0.0078125-0.10547 0.015625-0.15625 0.015625-0.16797 0-0.30469-0.046875-0.40625-0.14062-0.09375-0.09375-0.14062-0.21875-0.14062-0.375s0.046875-0.27344 0.14062-0.35938c0.10156-0.09375 0.23828-0.14062 0.40625-0.14062 0.050781 0 0.10156 0.007813 0.15625 0.015625 0.050781 0 0.097656 0.011719 0.14062 0.03125z"/>
  </symbol>
  <symbol id="c" overflow="visible">
   <path d="m0.60938-0.76562c-0.074219 0-0.13281 0.027344-0.17188 0.078125-0.03125 0.042969-0.046875 0.10938-0.046875 0.20312s0.015625 0.16797 0.046875 0.21875c0.039062 0.042969 0.097656 0.0625 0.17188 0.0625 0.0625 0 0.10938-0.019531 0.14062-0.0625 0.039062-0.050781 0.0625-0.125 0.0625-0.21875s-0.023438-0.16016-0.0625-0.20312c-0.03125-0.050781-0.078125-0.078125-0.14062-0.078125zm0-0.21875c0.16406 0 0.29688 0.046875 0.39062 0.14062 0.09375 0.085938 0.14062 0.20312 0.14062 0.35938s-0.046875 0.28125-0.14062 0.375-0.22656 0.14062-0.39062 0.14062c-0.16797 0-0.29688-0.046875-0.39062-0.14062s-0.14062-0.21875-0.14062-0.375 0.046875-0.27344 0.14062-0.35938c0.09375-0.09375 0.22266-0.14062 0.39062-0.14062z"/>
  </symbol>
  <symbol id="b" overflow="visible">
   <path d="m1.125-0.59375v0.59375h-0.3125v-0.45312c0-0.082031-0.007812-0.14062-0.015625-0.17188 0-0.03125-0.007813-0.050781-0.015625-0.0625-0.011719-0.019531-0.027344-0.035156-0.046875-0.046875-0.023437-0.007813-0.046875-0.015625-0.078125-0.015625-0.0625 0-0.11719 0.027344-0.15625 0.078125-0.03125 0.042969-0.046875 0.10938-0.046875 0.20312v0.46875h-0.3125v-0.96875h0.3125v0.14062c0.050781-0.050781 0.10156-0.085937 0.15625-0.10938 0.050781-0.03125 0.10938-0.046875 0.17188-0.046875 0.11328 0 0.19531 0.039063 0.25 0.10938 0.0625 0.0625 0.09375 0.15625 0.09375 0.28125z"/>
  </symbol>
  <symbol id="h" overflow="visible">
   <path d="m0.14062-0.375v-0.59375h0.3125v0.09375 0.20312 0.15625 0.17188c0 0.03125 0.003906 0.058594 0.015625 0.078125 0.019531 0.023437 0.035156 0.039063 0.046875 0.046875 0.019531 0.011719 0.046875 0.015625 0.078125 0.015625 0.0625 0 0.10938-0.023437 0.14062-0.078125 0.039063-0.050781 0.0625-0.11719 0.0625-0.20312v-0.48438h0.3125v0.96875h-0.3125v-0.14062c-0.042969 0.054688-0.089844 0.09375-0.14062 0.125-0.054688 0.03125-0.10938 0.046875-0.17188 0.046875-0.11719 0-0.20312-0.035156-0.26562-0.10938-0.054688-0.070313-0.078125-0.17188-0.078125-0.29688z"/>
  </symbol>
  <symbol id="r" overflow="visible">
   <path d="m0.78125-1.3438v0.20312h-0.17188c-0.042969 0-0.074219 0.011719-0.09375 0.03125-0.011719 0.011719-0.015625 0.039063-0.015625 0.078125v0.0625h0.26562v0.21875h-0.26562v0.75h-0.3125v-0.75h-0.15625v-0.21875h0.15625v-0.0625c0-0.10156 0.023438-0.17969 0.078125-0.23438 0.0625-0.050781 0.15625-0.078125 0.28125-0.078125z"/>
  </symbol>
  <symbol id="q" overflow="visible">
   <path d="m1.0469-0.8125c0.039063-0.050781 0.085937-0.09375 0.14062-0.125 0.050781-0.03125 0.10938-0.046875 0.17188-0.046875 0.11328 0 0.19531 0.039063 0.25 0.10938 0.0625 0.0625 0.09375 0.15625 0.09375 0.28125v0.59375h-0.3125v-0.5-0.015625-0.046875c0-0.0625-0.011719-0.10938-0.03125-0.14062-0.023437-0.03125-0.054687-0.046875-0.09375-0.046875-0.0625 0-0.10938 0.027344-0.14062 0.078125-0.03125 0.042969-0.046875 0.10938-0.046875 0.20312v0.46875h-0.3125v-0.5c0-0.10156-0.011719-0.17188-0.03125-0.20312-0.011719-0.03125-0.042969-0.046875-0.09375-0.046875-0.0625 0-0.10938 0.027344-0.14062 0.078125-0.03125 0.042969-0.046875 0.10938-0.046875 0.20312v0.46875h-0.3125v-0.96875h0.3125v0.14062c0.039063-0.050781 0.082031-0.085937 0.125-0.10938 0.050781-0.03125 0.10938-0.046875 0.17188-0.046875s0.11719 0.015625 0.17188 0.046875c0.050781 0.03125 0.09375 0.074219 0.125 0.125z"/>
  </symbol>
  <symbol id="p" overflow="visible">
   <path d="m1.125-0.59375v0.59375h-0.3125v-0.45312c0-0.082031-0.007812-0.14062-0.015625-0.17188 0-0.03125-0.007813-0.050781-0.015625-0.0625-0.011719-0.019531-0.027344-0.035156-0.046875-0.046875-0.023437-0.007813-0.046875-0.015625-0.078125-0.015625-0.0625 0-0.11719 0.027344-0.15625 0.078125-0.03125 0.042969-0.046875 0.10938-0.046875 0.20312v0.46875h-0.3125v-1.3438h0.3125v0.51562c0.050781-0.050781 0.10156-0.085937 0.15625-0.10938 0.050781-0.03125 0.10938-0.046875 0.17188-0.046875 0.11328 0 0.19531 0.039063 0.25 0.10938 0.0625 0.0625 0.09375 0.15625 0.09375 0.28125z"/>
  </symbol>
  <symbol id="o" overflow="visible">
   <path d="m0.15625-1.2812h0.375l0.46875 0.875v-0.875h0.3125v1.2812h-0.375l-0.45312-0.89062v0.89062h-0.32812z"/>
  </symbol>
  <symbol id="n" overflow="visible">
   <path d="m0.15625-1.2812h0.5625c0.15625 0 0.27344 0.039062 0.35938 0.10938 0.09375 0.074219 0.14062 0.17188 0.14062 0.29688 0 0.13672-0.046875 0.24219-0.14062 0.3125-0.085937 0.074219-0.20312 0.10938-0.35938 0.10938h-0.21875v0.45312h-0.34375zm0.34375 0.23438v0.35938h0.17188c0.070313 0 0.125-0.015625 0.15625-0.046875s0.046875-0.078125 0.046875-0.14062c0-0.050781-0.015625-0.09375-0.046875-0.125s-0.085937-0.046875-0.15625-0.046875z"/>
  </symbol>
  <symbol id="m" overflow="visible">
   <path d="m0.14062-0.96875h0.3125v0.95312c0 0.125-0.03125 0.21875-0.09375 0.28125-0.0625 0.070313-0.15234 0.10938-0.26562 0.10938h-0.15625v-0.20312h0.0625c0.050781 0 0.085938-0.015625 0.10938-0.046875 0.019531-0.023438 0.03125-0.070312 0.03125-0.14062zm0-0.375h0.3125v0.25h-0.3125z"/>
  </symbol>
 </defs>
 <g>
  <path d="m325.05 432.48c-1.3828 0-2.7656-0.32031-4.0391-1.0273-3.4727-1.8789-5.2109-5.8828-4.1836-9.7109l16.551-61.176h-43.168c-3.3672 0-6.4141-1.9844-7.7969-5.0664-1.3477-3.082-0.78125-6.6641 1.4883-9.1445l83.68-92.012c2.6211-2.8711 6.8398-3.6133 10.277-1.7734 3.4375 1.8086 5.2109 5.7422 4.2891 9.5352l-14.07 57.949h41.715c3.332 0 6.3789 1.9492 7.7617 5.0312 1.3828 3.082 0.81641 6.6289-1.3828 9.1445l-84.746 95.449c-1.6602 1.8086-4 2.8008-6.375 2.8008zm-15.629-88.926h35.09c2.6602 0 5.1406 1.2422 6.7695 3.332 1.6289 2.0898 2.1602 4.8555 1.4531 7.4062l-10.031 36.969 48.168-54.262h-33.602c-2.6211 0-5.0664-1.2031-6.6992-3.2617-1.5938-2.0547-2.1992-4.7148-1.5938-7.2656l8.7539-36.082z"/>
  <path d="m561.66 486.28h-423.33c-4.7148 0-8.5078-3.8281-8.5078-8.5078v-271.53c0-4.7148 3.8281-8.5078 8.5078-8.5078h423.33c4.7148 0 8.5078 3.8281 8.5078 8.5078l-0.003906 271.53c0 4.7109-3.793 8.5039-8.5078 8.5039zm-414.82-17.012h406.32v-254.52h-406.32z"/>
  <path d="m586.97 214.75h-473.95c-4.7148 0-8.5078-3.8281-8.5078-8.5078v-33.848c0-4.7148 3.8281-8.5078 8.5078-8.5078h473.95c4.7148 0 8.5078 3.8281 8.5078 8.5078v33.848c-0.003907 4.6797-3.8281 8.5078-8.5078 8.5078zm-465.44-17.012h456.93v-16.836h-456.93z"/>
  <path d="m586.97 520.12h-473.95c-4.7148 0-8.5078-3.8281-8.5078-8.5078l0.003907-33.844c0-4.7148 3.8281-8.5078 8.5078-8.5078h473.95c4.7148 0 8.5078 3.8281 8.5078 8.5078v33.848c-0.007813 4.7148-3.832 8.5039-8.5117 8.5039zm-465.44-17.012h456.93l-0.003906-16.836h-456.93z"/>
  <path d="m277.3 552.2h-66.988c-4.7148 0-8.5078-3.8281-8.5078-8.5078v-32.074c0-4.7148 3.8281-8.5078 8.5078-8.5078h66.988c4.7148 0 8.5078 3.8281 8.5078 8.5078v32.074c0 4.7148-3.793 8.5078-8.5078 8.5078zm-58.48-17.012h49.977v-15.062h-49.977z"/>
  <path d="m489.68 552.2h-66.988c-4.7148 0-8.5078-3.8281-8.5078-8.5078v-32.074c0-4.7148 3.8281-8.5078 8.5078-8.5078h66.988c4.7148 0 8.5078 3.8281 8.5078 8.5078v32.074c0 4.7148-3.793 8.5078-8.5078 8.5078zm-58.48-17.012h49.977v-15.062h-49.977z"/>
  <path d="m201.18 118.17c-4.7148 0-8.5078-3.8281-8.5078-8.5078v-30.621c0-4.7148 3.8281-8.5078 8.5078-8.5078 4.6797 0 8.5078 3.8281 8.5078 8.5078v30.66c-0.003906 4.6758-3.832 8.4688-8.5078 8.4688z"/>
  <path d="m231.44 118.17c-4.7148 0-8.5078-3.8281-8.5078-8.5078l0.003906-30.621c0-4.7148 3.8281-8.5078 8.5078-8.5078 4.6797 0 8.5078 3.8281 8.5078 8.5078v30.66c-0.003906 4.6758-3.832 8.4688-8.5117 8.4688z"/>
  <path d="m231.44 180.9h-30.27c-4.7148 0-8.5078-3.8281-8.5078-8.5078l0.003907-28.496c0-4.7148 3.8281-8.5078 8.5078-8.5078 4.6797 0 8.5078 3.8281 8.5078 8.5078v19.988h13.254v-19.988c0-4.7148 3.8281-8.5078 8.5078-8.5078 4.6797 0 8.5078 3.8281 8.5078 8.5078v28.496c-0.003906 4.6797-3.832 8.5078-8.5117 8.5078z"/>
  <path d="m231.44 53.305c-4.7148 0-8.5078-3.8281-8.5078-8.5078l0.003906-19.988h-13.254v19.988c0 4.7148-3.8281 8.5078-8.5078 8.5078-4.6797 0-8.5078-3.8281-8.5078-8.5078v-28.492c0-4.7148 3.8281-8.5078 8.5078-8.5078h30.27c4.7148 0 8.5078 3.8281 8.5078 8.5078v28.496c-0.003906 4.7148-3.832 8.5039-8.5117 8.5039z"/>
  <path d="m248.39 87.543h-64.188c-4.7148 0-8.5078-3.8281-8.5078-8.5078v-34.203c0-4.7148 3.8281-8.5078 8.5078-8.5078h64.223c4.7148 0 8.5078 3.8281 8.5078 8.5078l-0.003907 34.207c-0.035156 4.6758-3.8281 8.5039-8.5391 8.5039zm-55.684-17.012h47.211v-17.191h-47.211z"/>
  <path d="m248.39 152.37h-64.188c-4.7148 0-8.5078-3.8281-8.5078-8.5078v-34.203c0-4.7148 3.8281-8.5078 8.5078-8.5078h64.223c4.7148 0 8.5078 3.8281 8.5078 8.5078v34.203c-0.039063 4.7148-3.832 8.5078-8.543 8.5078zm-55.684-17.016h47.211v-17.191l-47.211 0.003907z"/>
  <path d="m334.87 118.17c-4.7148 0-8.5078-3.8281-8.5078-8.5078v-30.621c0-4.7148 3.8281-8.5078 8.5078-8.5078 4.6797 0 8.5078 3.8281 8.5078 8.5078v30.66c-0.003906 4.6758-3.832 8.4688-8.5078 8.4688z"/>
  <path d="m365.13 118.17c-4.7148 0-8.5078-3.8281-8.5078-8.5078l0.003906-30.621c0-4.7148 3.8281-8.5078 8.5078-8.5078 4.6797 0 8.5078 3.8281 8.5078 8.5078v30.66c-0.003906 4.6758-3.7969 8.4688-8.5117 8.4688z"/>
  <path d="m365.13 180.9h-30.27c-4.7148 0-8.5078-3.8281-8.5078-8.5078l0.003906-28.496c0-4.7148 3.8281-8.5078 8.5078-8.5078 4.6797 0 8.5078 3.8281 8.5078 8.5078v19.988h13.254v-19.988c0-4.7148 3.8281-8.5078 8.5078-8.5078 4.6797 0 8.5078 3.8281 8.5078 8.5078v28.496c-0.003906 4.6797-3.7969 8.5078-8.5117 8.5078z"/>
  <path d="m365.13 53.305c-4.7148 0-8.5078-3.8281-8.5078-8.5078l0.003906-19.988h-13.254v19.988c0 4.7148-3.8281 8.5078-8.5078 8.5078-4.6797 0-8.5078-3.8281-8.5078-8.5078v-28.492c0-4.7148 3.8281-8.5078 8.5078-8.5078h30.27c4.7148 0 8.5078 3.8281 8.5078 8.5078v28.496c-0.003906 4.7148-3.7969 8.5039-8.5117 8.5039z"/>
  <path d="m382.11 87.543h-64.227c-4.7148 0-8.5078-3.8281-8.5078-8.5078v-34.203c0-4.7148 3.8281-8.5078 8.5078-8.5078h64.223c4.7148 0 8.5078 3.8281 8.5078 8.5078v34.207c0 4.6758-3.8281 8.5039-8.5039 8.5039zm-55.719-17.012h47.211v-17.191h-47.211z"/>
  <path d="m382.11 152.37h-64.227c-4.7148 0-8.5078-3.8281-8.5078-8.5078v-34.203c0-4.7148 3.8281-8.5078 8.5078-8.5078h64.223c4.7148 0 8.5078 3.8281 8.5078 8.5078v34.203c0 4.7148-3.8281 8.5078-8.5039 8.5078zm-55.719-17.016h47.211v-17.191l-47.211 0.003907z"/>
  <path d="m468.56 118.17c-4.7148 0-8.5078-3.8281-8.5078-8.5078v-30.621c0-4.7148 3.8281-8.5078 8.5078-8.5078 4.6797 0 8.5078 3.8281 8.5078 8.5078v30.66c-0.003906 4.6758-3.7969 8.4688-8.5078 8.4688z"/>
  <path d="m498.82 118.17c-4.7148 0-8.5078-3.8281-8.5078-8.5078l0.003906-30.621c0-4.7148 3.8281-8.5078 8.5078-8.5078s8.5078 3.8281 8.5078 8.5078v30.66c-0.003907 4.6758-3.7969 8.4688-8.5117 8.4688z"/>
  <path d="m498.82 180.9h-30.27c-4.7148 0-8.5078-3.8281-8.5078-8.5078l0.003906-28.496c0-4.7148 3.8281-8.5078 8.5078-8.5078 4.6797 0 8.5078 3.8281 8.5078 8.5078v19.988h13.254v-19.988c0-4.7148 3.8281-8.5078 8.5078-8.5078s8.5078 3.8281 8.5078 8.5078v28.496c-0.003907 4.6797-3.7969 8.5078-8.5117 8.5078z"/>
  <path d="m498.82 53.305c-4.7148 0-8.5078-3.8281-8.5078-8.5078l0.003906-19.988h-13.254v19.988c0 4.7148-3.8281 8.5078-8.5078 8.5078-4.6797 0-8.5078-3.8281-8.5078-8.5078v-28.492c0-4.7148 3.8281-8.5078 8.5078-8.5078h30.27c4.7148 0 8.5078 3.8281 8.5078 8.5078v28.496c-0.003907 4.7148-3.7969 8.5039-8.5117 8.5039z"/>
  <path d="m515.8 87.543h-64.223c-4.7148 0-8.5078-3.8281-8.5078-8.5078v-34.203c0-4.7148 3.8281-8.5078 8.5078-8.5078h64.223c4.7148 0 8.5078 3.8281 8.5078 8.5078v34.207c0 4.6758-3.793 8.5039-8.5078 8.5039zm-55.68-17.012h47.211v-17.191h-47.211z"/>
  <path d="m515.8 152.37h-64.223c-4.7148 0-8.5078-3.8281-8.5078-8.5078v-34.203c0-4.7148 3.8281-8.5078 8.5078-8.5078h64.223c4.7148 0 8.5078 3.8281 8.5078 8.5078v34.203c0 4.7148-3.793 8.5078-8.5078 8.5078zm-55.68-17.016h47.211v-17.191h-47.211z"/>
  <use x="70" y="565.316406" xlink:href="#s"/>
  <use x="71.300781" y="565.316406" xlink:href="#e"/>
  <use x="72.175781" y="565.316406" xlink:href="#a"/>
  <use x="73.375" y="565.316406" xlink:href="#l"/>
  <use x="74.574219" y="565.316406" xlink:href="#d"/>
  <use x="75.417969" y="565.316406" xlink:href="#a"/>
  <use x="76.621094" y="565.316406" xlink:href="#k"/>
  <use x="78.507813" y="565.316406" xlink:href="#g"/>
  <use x="79.773438" y="565.316406" xlink:href="#f"/>
  <use x="81.546875" y="565.316406" xlink:href="#j"/>
  <use x="82.207031" y="565.316406" xlink:href="#i"/>
  <use x="83.257812" y="565.316406" xlink:href="#c"/>
  <use x="84.476562" y="565.316406" xlink:href="#b"/>
  <use x="85.738281" y="565.316406" xlink:href="#g"/>
  <use x="87.003906" y="565.316406" xlink:href="#h"/>
  <use x="88.265625" y="565.316406" xlink:href="#b"/>
  <use x="89.527344" y="565.316406" xlink:href="#b"/>
  <use x="90.789062" y="565.316406" xlink:href="#f"/>
  <use x="70" y="567.089844" xlink:href="#r"/>
  <use x="70.769531" y="567.089844" xlink:href="#e"/>
  <use x="71.644531" y="567.089844" xlink:href="#c"/>
  <use x="72.863281" y="567.089844" xlink:href="#q"/>
  <use x="75.324219" y="567.089844" xlink:href="#d"/>
  <use x="76.171875" y="567.089844" xlink:href="#p"/>
  <use x="77.433594" y="567.089844" xlink:href="#a"/>
  <use x="79.253906" y="567.089844" xlink:href="#o"/>
  <use x="80.738281" y="567.089844" xlink:href="#c"/>
  <use x="81.953125" y="567.089844" xlink:href="#h"/>
  <use x="83.214844" y="567.089844" xlink:href="#b"/>
  <use x="85.09375" y="567.089844" xlink:href="#n"/>
  <use x="86.394531" y="567.089844" xlink:href="#e"/>
  <use x="87.265625" y="567.089844" xlink:href="#c"/>
  <use x="88.484375" y="567.089844" xlink:href="#m"/>
  <use x="89.09375" y="567.089844" xlink:href="#a"/>
  <use x="90.292969" y="567.089844" xlink:href="#i"/>
  <use x="91.34375" y="567.089844" xlink:href="#d"/>
 </g>
</svg>
