<?xml version="1.0" encoding="UTF-8"?>
<svg width="700pt" height="700pt" version="1.1" viewBox="0 0 700 700" xmlns="http://www.w3.org/2000/svg" xmlns:xlink="http://www.w3.org/1999/xlink">
 <defs>
  <symbol id="w" overflow="visible">
   <path d="m3.6562-0.21875c-0.1875 0.09375-0.38672 0.16797-0.59375 0.21875-0.19922 0.050781-0.40625 0.078125-0.625 0.078125-0.66797 0-1.1992-0.17969-1.5938-0.54688-0.38672-0.375-0.57812-0.87891-0.57812-1.5156 0-0.64453 0.19141-1.1484 0.57812-1.5156 0.39453-0.375 0.92578-0.5625 1.5938-0.5625 0.21875 0 0.42578 0.027344 0.625 0.078125 0.20703 0.054687 0.40625 0.125 0.59375 0.21875v0.82812c-0.1875-0.125-0.375-0.21875-0.5625-0.28125-0.17969-0.0625-0.37109-0.09375-0.57812-0.09375-0.36719 0-0.65625 0.12109-0.875 0.35938-0.21094 0.23047-0.3125 0.55469-0.3125 0.96875 0 0.40625 0.10156 0.73047 0.3125 0.96875 0.21875 0.23047 0.50781 0.34375 0.875 0.34375 0.20703 0 0.39844-0.023437 0.57812-0.078125 0.1875-0.0625 0.375-0.16016 0.5625-0.29688z"/>
  </symbol>
  <symbol id="d" overflow="visible">
   <path d="m2.6875-2.1719c-0.085938-0.039063-0.16797-0.070313-0.25-0.09375-0.085938-0.019531-0.16797-0.03125-0.25-0.03125-0.25 0-0.44531 0.085937-0.57812 0.25-0.125 0.15625-0.1875 0.38281-0.1875 0.67188v1.375h-0.96875v-2.9844h0.96875v0.48438c0.11328-0.19531 0.25-0.33594 0.40625-0.42188 0.16406-0.09375 0.35938-0.14062 0.57812-0.14062h0.10938c0.039063 0 0.09375 0.007812 0.15625 0.015625z"/>
  </symbol>
  <symbol id="a" overflow="visible">
   <path d="m3.4375-1.5v0.26562h-2.2344c0.03125 0.23047 0.11328 0.40234 0.25 0.51562 0.13281 0.10547 0.32812 0.15625 0.57812 0.15625 0.20703 0 0.41406-0.023438 0.625-0.078125 0.20703-0.0625 0.42188-0.15625 0.64062-0.28125v0.73438c-0.21875 0.09375-0.44531 0.16406-0.67188 0.20312-0.23047 0.039062-0.45312 0.0625-0.67188 0.0625-0.54297 0-0.96484-0.13281-1.2656-0.40625-0.30469-0.28125-0.45312-0.67188-0.45312-1.1719 0-0.47656 0.14453-0.85938 0.4375-1.1406 0.30078-0.28125 0.70703-0.42188 1.2188-0.42188 0.46875 0 0.84375 0.14062 1.125 0.42188s0.42188 0.66406 0.42188 1.1406zm-0.96875-0.32812c0-0.17578-0.058594-0.31641-0.17188-0.42188-0.10547-0.11328-0.24219-0.17188-0.40625-0.17188-0.1875 0-0.33984 0.054687-0.45312 0.15625-0.11719 0.10547-0.1875 0.25-0.21875 0.4375z"/>
  </symbol>
  <symbol id="k" overflow="visible">
   <path d="m1.7969-1.3438c-0.19922 0-0.35156 0.039062-0.45312 0.10938-0.09375 0.0625-0.14062 0.16406-0.14062 0.29688 0 0.11719 0.035156 0.21094 0.10938 0.28125 0.082031 0.0625 0.19531 0.09375 0.34375 0.09375 0.17578 0 0.32812-0.0625 0.45312-0.1875s0.1875-0.28516 0.1875-0.48438v-0.10938zm1.4688-0.35938v1.7031h-0.96875v-0.4375c-0.125 0.17969-0.27344 0.30859-0.4375 0.39062-0.15625 0.082031-0.35156 0.125-0.57812 0.125-0.3125 0-0.57031-0.085938-0.76562-0.26562-0.1875-0.1875-0.28125-0.42188-0.28125-0.70312 0-0.35156 0.11719-0.61328 0.35938-0.78125 0.23828-0.16406 0.61719-0.25 1.1406-0.25h0.5625v-0.0625c0-0.15625-0.0625-0.26562-0.1875-0.32812-0.11719-0.070312-0.29688-0.10938-0.54688-0.10938-0.21094 0-0.40234 0.023437-0.57812 0.0625-0.17969 0.042969-0.33984 0.10156-0.48438 0.17188v-0.71875c0.19531-0.050781 0.39844-0.085938 0.60938-0.10938 0.20703-0.03125 0.41406-0.046875 0.625-0.046875 0.53906 0 0.92969 0.10938 1.1719 0.32812 0.23828 0.21094 0.35938 0.55469 0.35938 1.0312z"/>
  </symbol>
  <symbol id="c" overflow="visible">
   <path d="m1.5-3.8438v0.85938h0.98438v0.67188h-0.98438v1.2812c0 0.13672 0.023438 0.23047 0.078125 0.28125 0.0625 0.042969 0.17578 0.0625 0.34375 0.0625h0.48438v0.6875h-0.8125c-0.38672 0-0.65625-0.078125-0.8125-0.23438s-0.23438-0.42188-0.23438-0.79688v-1.2812h-0.46875v-0.67188h0.46875v-0.85938z"/>
  </symbol>
  <symbol id="j" overflow="visible">
   <path d="m2.5-2.5469v-1.6094h0.95312v4.1562h-0.95312v-0.4375c-0.13672 0.17969-0.28125 0.30859-0.4375 0.39062-0.15625 0.082031-0.33984 0.125-0.54688 0.125-0.375 0-0.68359-0.14453-0.92188-0.4375-0.23047-0.28906-0.34375-0.67188-0.34375-1.1406 0-0.45703 0.11328-0.83203 0.34375-1.125 0.23828-0.28906 0.54688-0.4375 0.92188-0.4375 0.19531 0 0.375 0.042969 0.53125 0.125 0.16406 0.085938 0.31641 0.21484 0.45312 0.39062zm-0.64062 1.9375c0.20703 0 0.36328-0.070313 0.46875-0.21875 0.11328-0.15625 0.17188-0.37891 0.17188-0.67188 0-0.28125-0.058594-0.49219-0.17188-0.64062-0.10547-0.15625-0.26172-0.23438-0.46875-0.23438-0.19922 0-0.35547 0.078125-0.46875 0.23438-0.10547 0.14844-0.15625 0.35938-0.15625 0.64062 0 0.29297 0.050781 0.51562 0.15625 0.67188 0.11328 0.14844 0.26953 0.21875 0.46875 0.21875z"/>
  </symbol>
  <symbol id="i" overflow="visible">
   <path d="m2.0469-0.60938c0.20703 0 0.36328-0.070313 0.46875-0.21875 0.11328-0.15625 0.17188-0.37891 0.17188-0.67188 0-0.28125-0.058594-0.49219-0.17188-0.64062-0.10547-0.15625-0.26172-0.23438-0.46875-0.23438-0.19922 0-0.35547 0.078125-0.46875 0.23438-0.10547 0.14844-0.15625 0.35938-0.15625 0.64062 0 0.29297 0.050781 0.51562 0.15625 0.67188 0.11328 0.14844 0.26953 0.21875 0.46875 0.21875zm-0.625-1.9375c0.125-0.17578 0.26562-0.30469 0.42188-0.39062 0.16406-0.082031 0.35156-0.125 0.5625-0.125 0.36328 0 0.66406 0.14844 0.90625 0.4375 0.23828 0.29297 0.35938 0.66797 0.35938 1.125 0 0.46875-0.12109 0.85156-0.35938 1.1406-0.24219 0.29297-0.54297 0.4375-0.90625 0.4375-0.21094 0-0.39844-0.042969-0.5625-0.125-0.15625-0.082031-0.29688-0.21094-0.42188-0.39062v0.4375h-0.96875v-4.1562h0.96875z"/>
  </symbol>
  <symbol id="h" overflow="visible">
   <path d="m0.0625-2.9844h0.95312l0.8125 2.0156 0.6875-2.0156h0.95312l-1.2656 3.2656c-0.125 0.33203-0.27344 0.56641-0.4375 0.70312-0.16797 0.13281-0.39062 0.20312-0.67188 0.20312h-0.54688v-0.64062h0.29688c0.16406 0 0.28516-0.027344 0.35938-0.078125 0.070313-0.054688 0.12891-0.14062 0.17188-0.26562l0.03125-0.09375z"/>
  </symbol>
  <symbol id="g" overflow="visible">
   <path d="m0.5-3.9844h1.0312v3.9844h-1.0312z"/>
  </symbol>
  <symbol id="f" overflow="visible">
   <path d="m2.875-2.8906v0.76562c-0.125-0.082031-0.25781-0.14453-0.39062-0.1875-0.13672-0.039062-0.27344-0.0625-0.40625-0.0625-0.27344 0-0.48047 0.078125-0.625 0.23438-0.14844 0.15625-0.21875 0.37109-0.21875 0.64062 0 0.28125 0.070313 0.5 0.21875 0.65625 0.14453 0.15625 0.35156 0.23438 0.625 0.23438 0.14453 0 0.28516-0.019531 0.42188-0.0625 0.13281-0.039063 0.25781-0.10938 0.375-0.20312v0.78125c-0.14844 0.0625-0.29688 0.10156-0.45312 0.125-0.15625 0.03125-0.3125 0.046875-0.46875 0.046875-0.54297 0-0.96484-0.13281-1.2656-0.40625-0.30469-0.28125-0.45312-0.67188-0.45312-1.1719 0-0.48828 0.14844-0.86719 0.45312-1.1406 0.30078-0.28125 0.72266-0.42188 1.2656-0.42188 0.15625 0 0.3125 0.015625 0.46875 0.046875 0.15625 0.023437 0.30469 0.0625 0.45312 0.125z"/>
  </symbol>
  <symbol id="b" overflow="visible">
   <path d="m1.875-2.375c-0.21094 0-0.37109 0.078125-0.48438 0.23438-0.10547 0.14844-0.15625 0.35938-0.15625 0.64062 0 0.29297 0.050781 0.51562 0.15625 0.67188 0.11328 0.14844 0.27344 0.21875 0.48438 0.21875 0.20703 0 0.36719-0.070313 0.48438-0.21875 0.11328-0.15625 0.17188-0.37891 0.17188-0.67188 0-0.28125-0.058594-0.49219-0.17188-0.64062-0.11719-0.15625-0.27734-0.23438-0.48438-0.23438zm0-0.6875c0.51953 0 0.92188 0.14062 1.2031 0.42188 0.28906 0.27344 0.4375 0.65234 0.4375 1.1406 0 0.5-0.14844 0.89062-0.4375 1.1719-0.28125 0.27344-0.68359 0.40625-1.2031 0.40625-0.51172 0-0.91406-0.13281-1.2031-0.40625-0.29297-0.28125-0.4375-0.67188-0.4375-1.1719 0-0.48828 0.14453-0.86719 0.4375-1.1406 0.28906-0.28125 0.69141-0.42188 1.2031-0.42188z"/>
  </symbol>
  <symbol id="e" overflow="visible">
   <path d="m3.4688-1.8281v1.8281h-0.96875v-1.3906c0-0.25781-0.007812-0.4375-0.015625-0.53125-0.011719-0.10156-0.03125-0.17578-0.0625-0.21875-0.03125-0.0625-0.085937-0.10938-0.15625-0.14062-0.0625-0.039062-0.13281-0.0625-0.20312-0.0625-0.21094 0-0.37109 0.078125-0.48438 0.23438-0.10547 0.15625-0.15625 0.37109-0.15625 0.64062v1.4688h-0.96875v-2.9844h0.96875v0.4375c0.13281-0.17578 0.28516-0.30469 0.45312-0.39062 0.16406-0.082031 0.34375-0.125 0.53125-0.125 0.34375 0 0.60156 0.10938 0.78125 0.32812 0.1875 0.21094 0.28125 0.51172 0.28125 0.90625z"/>
  </symbol>
  <symbol id="v" overflow="visible">
   <path d="m2.5-0.5c-0.13672 0.16797-0.28125 0.29297-0.4375 0.375-0.15625 0.085938-0.33984 0.125-0.54688 0.125-0.36719 0-0.66797-0.14062-0.90625-0.42188-0.24219-0.28906-0.35938-0.66016-0.35938-1.1094 0-0.44531 0.11719-0.8125 0.35938-1.0938 0.23828-0.28906 0.53906-0.4375 0.90625-0.4375 0.20703 0 0.39062 0.042969 0.54688 0.125 0.15625 0.085938 0.30078 0.21484 0.4375 0.39062v-0.4375h0.95312v2.6875c0 0.47656-0.15234 0.84375-0.45312 1.0938-0.30469 0.25781-0.74609 0.39062-1.3281 0.39062-0.17969 0-0.35547-0.015625-0.53125-0.046875-0.17969-0.03125-0.35547-0.078125-0.53125-0.14062v-0.73438c0.16406 0.09375 0.32812 0.16016 0.48438 0.20312 0.16406 0.050781 0.33203 0.078125 0.5 0.078125 0.3125 0 0.53906-0.070313 0.6875-0.20312 0.14453-0.13672 0.21875-0.34766 0.21875-0.64062zm-0.64062-1.875c-0.19922 0-0.35547 0.074219-0.46875 0.21875-0.10547 0.14844-0.15625 0.35547-0.15625 0.625 0 0.27344 0.050781 0.48047 0.15625 0.625 0.11328 0.14844 0.26953 0.21875 0.46875 0.21875 0.19531 0 0.35156-0.070312 0.46875-0.21875 0.11328-0.14453 0.17188-0.35156 0.17188-0.625 0-0.26953-0.058594-0.47656-0.17188-0.625-0.11719-0.14453-0.27344-0.21875-0.46875-0.21875z"/>
  </symbol>
  <symbol id="u" overflow="visible">
   <path d="m0.45312-4.1562h0.96875v2.2656l1.0938-1.0938h1.1094l-1.4531 1.3594 1.5625 1.625h-1.1562l-1.1562-1.25v1.25h-0.96875z"/>
  </symbol>
  <symbol id="t" overflow="visible">
   <path d="m1.5781-0.75h1.75v0.75h-2.8906v-0.75l1.4531-1.2969c0.125-0.11328 0.21875-0.22266 0.28125-0.32812 0.0625-0.11328 0.09375-0.23438 0.09375-0.35938 0-0.1875-0.0625-0.33594-0.1875-0.45312-0.125-0.11328-0.29297-0.17188-0.5-0.17188-0.15625 0-0.33594 0.039063-0.53125 0.10938-0.1875 0.0625-0.39062 0.16406-0.60938 0.29688v-0.875c0.23828-0.070313 0.46875-0.12891 0.6875-0.17188 0.22656-0.039062 0.45312-0.0625 0.67188-0.0625 0.47656 0 0.84766 0.10938 1.1094 0.32812 0.25781 0.21094 0.39062 0.5 0.39062 0.875 0 0.21094-0.058594 0.41406-0.17188 0.60938-0.10547 0.1875-0.33984 0.4375-0.70312 0.75z"/>
  </symbol>
  <symbol id="s" overflow="visible">
   <path d="m1.9844-1.9688c-0.1875 0-0.32812 0.058594-0.42188 0.17188-0.085938 0.11719-0.125 0.29297-0.125 0.53125 0 0.23047 0.039062 0.40625 0.125 0.53125 0.09375 0.11719 0.23438 0.17188 0.42188 0.17188 0.17578 0 0.30469-0.054688 0.39062-0.17188 0.09375-0.125 0.14062-0.30078 0.14062-0.53125 0-0.23828-0.046875-0.41406-0.14062-0.53125-0.085938-0.11328-0.21484-0.17188-0.39062-0.17188zm1.2656-1.9062v0.73438c-0.16797-0.082031-0.32812-0.14062-0.48438-0.17188-0.14844-0.039062-0.29297-0.0625-0.4375-0.0625-0.30469 0-0.54297 0.085938-0.71875 0.25-0.16797 0.16797-0.26562 0.41797-0.29688 0.75 0.125-0.082031 0.25391-0.14453 0.39062-0.1875 0.13281-0.039062 0.28516-0.0625 0.45312-0.0625 0.40625 0 0.73438 0.12109 0.98438 0.35938 0.25 0.23047 0.375 0.54297 0.375 0.9375 0 0.42969-0.14062 0.77344-0.42188 1.0312-0.28125 0.25-0.65625 0.375-1.125 0.375-0.52344 0-0.92188-0.17188-1.2031-0.51562-0.28125-0.35156-0.42188-0.85156-0.42188-1.5 0-0.65625 0.16016-1.1719 0.48438-1.5469 0.33203-0.375 0.78906-0.5625 1.375-0.5625 0.1875 0 0.36328 0.015625 0.53125 0.046875 0.17578 0.023438 0.34766 0.0625 0.51562 0.125z"/>
  </symbol>
  <symbol id="r" overflow="visible">
   <path d="m2.4219-4.1562v0.625h-0.51562c-0.13672 0-0.23438 0.027344-0.29688 0.078125-0.054687 0.054687-0.078125 0.13672-0.078125 0.25v0.21875h0.82812v0.67188h-0.82812v2.3125h-0.95312v-2.3125h-0.46875v-0.67188h0.46875v-0.21875c0-0.32031 0.085937-0.5625 0.26562-0.71875 0.1875-0.15625 0.47266-0.23438 0.85938-0.23438z"/>
  </symbol>
  <symbol id="q" overflow="visible">
   <path d="m3.2344-2.5c0.11328-0.17578 0.25391-0.3125 0.42188-0.40625 0.16406-0.10156 0.35156-0.15625 0.5625-0.15625 0.33203 0 0.58594 0.10938 0.76562 0.32812 0.1875 0.21094 0.28125 0.51172 0.28125 0.90625v1.8281h-0.96875v-1.5625c0.007813-0.019531 0.015625-0.039062 0.015625-0.0625v-0.10938c0-0.21875-0.03125-0.375-0.09375-0.46875s-0.16406-0.14062-0.29688-0.14062c-0.1875 0-0.33594 0.078125-0.4375 0.23438-0.09375 0.14844-0.14062 0.35938-0.14062 0.64062v1.4688h-0.96875v-1.5625c0-0.33203-0.03125-0.54688-0.09375-0.64062-0.054688-0.09375-0.15234-0.14062-0.29688-0.14062-0.17969 0-0.32031 0.078125-0.42188 0.23438-0.09375 0.14844-0.14062 0.35938-0.14062 0.64062v1.4688h-0.96875v-2.9844h0.96875v0.4375c0.11328-0.17578 0.24219-0.30469 0.39062-0.39062 0.15625-0.082031 0.32812-0.125 0.51562-0.125 0.20703 0 0.39062 0.054688 0.54688 0.15625 0.15625 0.09375 0.27344 0.23047 0.35938 0.40625z"/>
  </symbol>
  <symbol id="p" overflow="visible">
   <path d="m3.4688-1.8281v1.8281h-0.96875v-1.3906c0-0.25781-0.007812-0.4375-0.015625-0.53125-0.011719-0.10156-0.03125-0.17578-0.0625-0.21875-0.03125-0.0625-0.085937-0.10938-0.15625-0.14062-0.0625-0.039062-0.13281-0.0625-0.20312-0.0625-0.21094 0-0.37109 0.078125-0.48438 0.23438-0.10547 0.15625-0.15625 0.37109-0.15625 0.64062v1.4688h-0.96875v-4.1562h0.96875v1.6094c0.13281-0.17578 0.28516-0.30469 0.45312-0.39062 0.16406-0.082031 0.34375-0.125 0.53125-0.125 0.34375 0 0.60156 0.10938 0.78125 0.32812 0.1875 0.21094 0.28125 0.51172 0.28125 0.90625z"/>
  </symbol>
  <symbol id="o" overflow="visible">
   <path d="m0.5-3.9844h1.1562l1.4375 2.7344v-2.7344h0.98438v3.9844h-1.1562l-1.4375-2.7344v2.7344h-0.98438z"/>
  </symbol>
  <symbol id="n" overflow="visible">
   <path d="m0.42188-1.1719v-1.8125h0.96875v0.29688 0.60938 0.48438c0 0.24219 0.003906 0.41797 0.015625 0.53125 0.007812 0.10547 0.03125 0.17969 0.0625 0.21875 0.039062 0.0625 0.09375 0.11719 0.15625 0.15625 0.0625 0.03125 0.13281 0.046875 0.21875 0.046875 0.19531 0 0.35156-0.078125 0.46875-0.23438 0.11328-0.15625 0.17188-0.36719 0.17188-0.64062v-1.4688h0.95312v2.9844h-0.95312v-0.4375c-0.14844 0.17969-0.30469 0.30859-0.46875 0.39062-0.15625 0.082031-0.33594 0.125-0.53125 0.125-0.34375 0-0.60938-0.10156-0.79688-0.3125-0.17969-0.21875-0.26562-0.53125-0.26562-0.9375z"/>
  </symbol>
  <symbol id="m" overflow="visible">
   <path d="m0.5-3.9844h1.7031c0.50781 0 0.89844 0.11719 1.1719 0.34375 0.26953 0.21875 0.40625 0.53906 0.40625 0.95312 0 0.41797-0.13672 0.74219-0.40625 0.96875-0.27344 0.21875-0.66406 0.32812-1.1719 0.32812h-0.67188v1.3906h-1.0312zm1.0312 0.75v1.1094h0.5625c0.19531 0 0.34766-0.046875 0.45312-0.14062 0.11328-0.10156 0.17188-0.24219 0.17188-0.42188 0-0.17578-0.058594-0.3125-0.17188-0.40625-0.10547-0.09375-0.25781-0.14062-0.45312-0.14062z"/>
  </symbol>
  <symbol id="l" overflow="visible">
   <path d="m0.45312-2.9844h0.96875v2.9375c0 0.39453-0.10156 0.69531-0.29688 0.90625-0.1875 0.21875-0.46484 0.32812-0.82812 0.32812h-0.48438v-0.64062h0.17188c0.17578 0 0.29688-0.042969 0.35938-0.125 0.070312-0.074219 0.10938-0.23047 0.10938-0.46875zm0-1.1719h0.96875v0.78125h-0.96875z"/>
  </symbol>
 </defs>
 <g>
  <path d="m529.68 206.31h-22.18v-39.789h20.781c2.125 0 4.1211-1.0312 5.3516-2.7656 1.2305-1.7344 1.543-3.957 0.84375-5.9648l-12.258-35.02h0.59375c2.125 0 4.1211-1.0312 5.3516-2.7656 1.2305-1.7344 1.543-3.957 0.84375-5.9648l-12.258-35.02h0.59375c2.1367 0 4.1367-1.0391 5.3672-2.7852 1.2305-1.75 1.5312-3.9844 0.80859-5.9961l-15.312-42.656c-0.93359-2.6055-3.4062-4.3438-6.1758-4.3438h-41.562c-2.7695 0-5.2422 1.7383-6.1758 4.3438l-15.312 42.656c-0.72266 2.0117-0.42188 4.2461 0.80859 5.9961 1.2305 1.7461 3.2305 2.7852 5.3672 2.7852h0.59375l-12.258 35.02c-0.69922 2.0078-0.38672 4.2305 0.84375 5.9648 1.2305 1.7344 3.2266 2.7656 5.3516 2.7656h0.59375l-12.258 35.02c-0.69922 2.0078-0.38672 4.2305 0.84375 5.9648 1.2305 1.7344 3.2266 2.7656 5.3516 2.7656h20.781v39.789h-18.594v-2.1875c0-7.4219-3.9609-14.285-10.391-17.996-6.4297-3.7109-14.352-3.7109-20.781 0-6.4297 3.7109-10.391 10.574-10.391 17.996v2.1875h-24.062v-2.1875c0-7.4219-3.9609-14.285-10.391-17.996-6.4297-3.7109-14.352-3.7109-20.781 0-6.4297 3.7109-10.391 10.574-10.391 17.996v2.1875h-24.062v-2.1875c0-7.4219-3.9609-14.285-10.391-17.996-6.4297-3.7109-14.352-3.7109-20.781 0-6.4297 3.7109-10.391 10.574-10.391 17.996v2.1875h-18.594v-39.789h20.781c2.125 0 4.1211-1.0312 5.3516-2.7656 1.2305-1.7344 1.543-3.957 0.84375-5.9648l-12.258-35.02h0.59375c2.125 0 4.1211-1.0312 5.3516-2.7656 1.2305-1.7344 1.543-3.957 0.84375-5.9648l-12.258-35.02h0.59375c2.1367 0 4.1367-1.0391 5.3672-2.7852 1.2305-1.75 1.5312-3.9844 0.80859-5.9961l-15.312-42.656c-0.93359-2.6055-3.4062-4.3438-6.1758-4.3438h-41.562c-2.7695 0-5.2422 1.7383-6.1758 4.3438l-15.312 42.656c-0.72266 2.0117-0.42188 4.2461 0.80859 5.9961 1.2305 1.7461 3.2305 2.7852 5.3672 2.7852h0.59375l-12.258 35.02c-0.69922 2.0078-0.38672 4.2305 0.84375 5.9648 1.2305 1.7344 3.2266 2.7656 5.3516 2.7656h0.59375l-12.258 35.02c-0.69922 2.0078-0.38672 4.2305 0.84375 5.9648 1.2305 1.7344 3.2266 2.7656 5.3516 2.7656h20.781v39.789h-22.18c-3.625 0-6.5625 2.9414-6.5625 6.5625v239.53c0 3.625 2.9375 6.5625 6.5625 6.5625h7.668v71.227h-0.003906c0 3.625 2.9414 6.5625 6.5625 6.5625h330.91c3.6211 0 6.5625-2.9375 6.5625-6.5625v-71.227h7.668-0.003906c3.625 0 6.5625-2.9375 6.5625-6.5625v-239.53c0-3.6211-2.9375-6.5625-6.5625-6.5625zm-64.594-169.95h32.328l10.602 29.531h-53.531zm-5.4297 42.656h43.188l10.719 30.625h-64.625zm-16.188 74.375 10.719-30.625h54.125l10.719 30.625zm37.781 29.945c-4.7852 0-9.4258 1.6562-13.125 4.6875v-21.508h26.25v21.492c-3.6992-3.0352-8.3398-4.6875-13.125-4.6719zm7.6562 20.781v257.03c0 4.2305-3.4297 7.6562-7.6562 7.6562s-7.6562-3.4258-7.6562-7.6562v-257.03c0.003906-4.2266 3.4297-7.6484 7.6562-7.6562 4.2266 0.007812 7.6523 3.4297 7.6562 7.6562zm-80.938 0c0.003906-4.2266 3.4297-7.6484 7.6562-7.6562 4.2266 0.007812 7.6523 3.4297 7.6562 7.6562v177.23c0 3.625 2.9375 6.5625 6.5625 6.5625s6.5625-2.9375 6.5625-6.5625v-161.92h24.062v226.41h-24.062v-40.426c0-3.625-2.9375-6.5625-6.5625-6.5625s-6.5625 2.9375-6.5625 6.5625v55.738c0 4.2305-3.4297 7.6562-7.6562 7.6562s-7.6562-3.4258-7.6562-7.6562zm-37.188 15.312h24.062v226.41h-24.062zm-28.438-15.312c0.003906-4.2266 3.4297-7.6484 7.6562-7.6562 4.2266 0.007812 7.6523 3.4297 7.6562 7.6562v257.03c0 4.2305-3.4297 7.6562-7.6562 7.6562s-7.6562-3.4258-7.6562-7.6562zm-37.188 15.312h24.062v226.41h-24.062zm-41.562 0v56.352c0 3.625 2.9375 6.5625 6.5625 6.5625s6.5625-2.9375 6.5625-6.5625v-71.664c0.003906-4.2266 3.4297-7.6484 7.6562-7.6562 4.2266 0.007812 7.6523 3.4297 7.6562 7.6562v257.03c0 4.2305-3.4297 7.6562-7.6562 7.6562s-7.6562-3.4258-7.6562-7.6562v-158.14c0-3.625-2.9375-6.5625-6.5625-6.5625s-6.5625 2.9375-6.5625 6.5625v142.83h-24.062v-226.41zm-61.008-183.07h32.328l10.602 29.531h-53.531zm-5.4297 42.656h43.188l10.719 30.625h-64.625zm-16.188 74.375 10.719-30.625h54.125l10.719 30.625zm37.781 29.945c-4.7852 0-9.4258 1.6562-13.125 4.6875v-21.508h26.25v21.492c-3.6992-3.0352-8.3398-4.6875-13.125-4.6719zm7.6562 20.781v257.03c0 4.2305-3.4297 7.6562-7.6562 7.6562s-7.6562-3.4258-7.6562-7.6562v-257.03c0.003906-4.2266 3.4297-7.6484 7.6562-7.6562 4.2266 0.007812 7.6523 3.4297 7.6562 7.6562zm-49.523 241.72v-226.41h21.086v226.41zm332.01 77.789h-317.78v-64.664h6.8594v2.1875c0 7.4258 3.9609 14.285 10.391 18 6.4297 3.7109 14.352 3.7109 20.781 0 6.4297-3.7148 10.391-10.574 10.391-18v-2.1875h24.062v2.1875c0 7.4258 3.9609 14.285 10.391 18 6.4297 3.7109 14.352 3.7109 20.781 0 6.4297-3.7148 10.391-10.574 10.391-18v-2.1875h24.062v2.1875c0 7.4258 3.9609 14.285 10.391 18 6.4297 3.7109 14.352 3.7109 20.781 0 6.4297-3.7148 10.391-10.574 10.391-18v-2.1875h24.062v2.1875c0 7.4258 3.9609 14.285 10.391 18 6.4297 3.7109 14.352 3.7109 20.781 0 6.4297-3.7148 10.391-10.574 10.391-18v-2.1875h24.062v2.1875c0 7.4258 3.9609 14.285 10.391 18 6.4297 3.7109 14.352 3.7109 20.781 0 6.4297-3.7148 10.391-10.574 10.391-18v-2.1875h6.8594zm14.23-77.789h-21.09v-226.41h21.086z"/>
 </g>
</svg>
