<svg width="134" height="145" viewBox="0 0 134 145" fill="none" xmlns="http://www.w3.org/2000/svg">
<path d="M118.811 119.995H16.0386C14.3694 119.995 13.0159 118.643 13.0159 116.972V47.4493C13.0159 45.7801 14.3694 44.4266 16.0386 44.4266H118.811C120.481 44.4266 121.834 45.7801 121.834 47.4493V116.972C121.834 118.643 120.481 119.995 118.811 119.995ZM19.0613 113.949H115.789V50.472H19.0613V113.949Z" fill="black"/>
<path d="M124.857 135.105H9.99319C8.32395 135.105 6.97046 133.753 6.97046 132.082V116.969C6.97046 115.298 8.32395 113.946 9.99319 113.946H124.857C126.526 113.946 127.88 115.298 127.88 116.969V132.082C127.88 133.753 126.526 135.105 124.857 135.105ZM13.0159 129.06H121.834V119.991H13.0159V129.06Z" fill="black"/>
<path d="M124.857 50.4686H9.99319C8.32395 50.4686 6.97046 49.1151 6.97046 47.4459V32.3322C6.97046 30.663 8.32395 29.3095 9.99319 29.3095H124.857C126.526 29.3095 127.88 30.663 127.88 32.3322V47.4459C127.88 49.1151 126.526 50.4686 124.857 50.4686ZM13.0159 44.4232H121.834V35.355H13.0159V44.4232Z" fill="black"/>
<path d="M28.1295 144.177H16.0386C14.3694 144.177 13.0159 142.824 13.0159 141.154V132.086C13.0159 130.415 14.3694 129.063 16.0386 129.063H28.1295C29.7987 129.063 31.1522 130.415 31.1522 132.086V141.154C31.1522 142.824 29.7987 144.177 28.1295 144.177ZM19.0613 138.131H25.1068V135.108H19.0613V138.131Z" fill="black"/>
<path d="M118.811 144.177H106.72C105.051 144.177 103.698 142.824 103.698 141.154V132.086C103.698 130.415 105.051 129.063 106.72 129.063H118.811C120.481 129.063 121.834 130.415 121.834 132.086V141.154C121.834 142.824 120.481 144.177 118.811 144.177ZM109.743 138.131H115.789V135.108H109.743V138.131Z" fill="black"/>
<path d="M16.0387 113.949C15.5772 113.949 15.113 113.843 14.6865 113.631L2.59564 107.585C1.57143 107.071 0.925049 106.027 0.925049 104.881V59.5402C0.925049 58.3945 1.57143 57.3487 2.59564 56.8359L14.6865 50.7905C15.6217 50.3222 16.7363 50.3749 17.6283 50.9227C18.5189 51.4747 19.0614 52.4463 19.0614 53.4947V110.927C19.0614 111.975 18.5189 112.945 17.6283 113.497C17.1425 113.798 16.5906 113.949 16.0387 113.949ZM6.97051 103.012L13.016 106.035V58.3864L6.97051 61.4091V103.012Z" fill="black"/>
<path d="M118.812 113.949C118.26 113.949 117.708 113.798 117.222 113.497C116.331 112.945 115.789 111.975 115.789 110.927V53.4947C115.789 52.4462 116.331 51.4746 117.222 50.924C118.114 50.3748 119.23 50.3235 120.164 50.7918L132.255 56.8373C133.279 57.3487 133.925 58.3945 133.925 59.5402V104.881C133.925 106.027 133.279 107.071 132.255 107.585L120.164 113.631C119.737 113.843 119.273 113.949 118.812 113.949ZM121.834 58.3863V106.035L127.88 103.012V61.4091L121.834 58.3863Z" fill="black"/>
<path d="M28.1294 29.3129H39.3432V35.3584H28.1294V29.3129Z" fill="black"/>
<path d="M61.8044 29.3129H73.048V35.3584H61.8044V29.3129Z" fill="black"/>
<path d="M95.5068 29.3129H106.721V35.3584H95.5068V29.3129Z" fill="black"/>
<path d="M41.5161 16.3584H26.8329C22.5472 16.3584 19.0615 12.8727 19.0615 8.58564C19.0615 4.29992 22.5472 0.811523 26.8343 0.811523H41.5175C45.8032 0.812873 49.2888 4.29992 49.2888 8.58564C49.2888 12.8727 45.8032 16.3584 41.5161 16.3584ZM26.8343 6.85836C25.8816 6.85836 25.107 7.63294 25.107 8.58564C25.107 9.53698 25.8816 10.3129 26.8343 10.3129H41.5175C42.4688 10.3129 43.2434 9.53833 43.2434 8.58564C43.2434 7.63159 42.4688 6.85701 41.5161 6.85701L26.8343 6.85836Z" fill="black"/>
<path d="M41.5161 25.8584H26.8329C22.5472 25.8584 19.0615 22.3714 19.0615 18.0857C19.0615 13.7999 22.5472 10.3129 26.8343 10.3129H41.5175C45.8032 10.3129 49.2888 13.7999 49.2888 18.0857C49.2888 22.3714 45.8032 25.8584 41.5161 25.8584ZM26.8343 16.3584C25.8816 16.3584 25.107 17.133 25.107 18.0857C25.107 19.037 25.8816 19.8129 26.8343 19.8129H41.5175C42.4688 19.8129 43.2434 19.037 43.2434 18.0857C43.2434 17.1343 42.4688 16.3584 41.5161 16.3584H26.8343Z" fill="black"/>
<path d="M41.5161 35.3584H26.8329C22.5472 35.3584 19.0615 31.8727 19.0615 27.5856C19.0615 23.2999 22.5472 19.8115 26.8343 19.8115H41.5175C45.8032 19.8129 49.2888 23.2999 49.2888 27.5856C49.2888 31.8727 45.8032 35.3584 41.5161 35.3584ZM26.8343 25.8584C25.8816 25.8584 25.107 26.6329 25.107 27.5856C25.107 28.5383 25.8816 29.3129 26.8343 29.3129H41.5175C42.4688 29.3129 43.2434 28.5383 43.2434 27.5856C43.2434 26.6316 42.4688 25.857 41.5161 25.857L26.8343 25.8584Z" fill="black"/>
<path d="M74.7658 16.3584H60.0826C55.7969 16.3584 52.3113 12.8727 52.3113 8.58564C52.3113 4.29992 55.7969 0.811523 60.084 0.811523H74.7672C79.0529 0.812873 82.5386 4.29992 82.5386 8.58564C82.5386 12.8727 79.0529 16.3584 74.7658 16.3584ZM60.084 6.85836C59.1313 6.85836 58.3567 7.63294 58.3567 8.58564C58.3567 9.53698 59.1313 10.3129 60.084 10.3129H74.7672C75.7186 10.3129 76.4931 9.53833 76.4931 8.58564C76.4931 7.63159 75.7186 6.85701 74.7659 6.85701L60.084 6.85836Z" fill="black"/>
<path d="M74.7658 25.8584H60.0826C55.7969 25.8584 52.3113 22.3714 52.3113 18.0857C52.3113 13.7999 55.7969 10.3129 60.084 10.3129H74.7672C79.0529 10.3129 82.5386 13.7999 82.5386 18.0857C82.5386 22.3714 79.0529 25.8584 74.7658 25.8584ZM60.084 16.3584C59.1313 16.3584 58.3567 17.133 58.3567 18.0857C58.3567 19.037 59.1313 19.8129 60.084 19.8129H74.7672C75.7186 19.8129 76.4931 19.037 76.4931 18.0857C76.4931 17.1343 75.7186 16.3584 74.7659 16.3584H60.084Z" fill="black"/>
<path d="M74.7658 35.3584H60.0826C55.7969 35.3584 52.3113 31.8727 52.3113 27.5856C52.3113 23.2999 55.7969 19.8115 60.084 19.8115H74.7672C79.0529 19.8129 82.5386 23.2999 82.5386 27.5856C82.5386 31.8727 79.0529 35.3584 74.7658 35.3584ZM60.084 25.8584C59.1313 25.8584 58.3567 26.6329 58.3567 27.5856C58.3567 28.5383 59.1313 29.3129 60.084 29.3129H74.7672C75.7186 29.3129 76.4931 28.5383 76.4931 27.5856C76.4931 26.6316 75.7186 25.857 74.7659 25.857L60.084 25.8584Z" fill="black"/>
<path d="M108.016 16.3584H93.3329C89.0472 16.3584 85.5615 12.8727 85.5615 8.58564C85.5615 4.29992 89.0472 0.811523 93.3343 0.811523H108.017C112.303 0.812873 115.789 4.29992 115.789 8.58564C115.789 12.8727 112.303 16.3584 108.016 16.3584ZM93.3343 6.85836C92.3816 6.85836 91.607 7.63294 91.607 8.58564C91.607 9.53698 92.3816 10.3129 93.3343 10.3129H108.017C108.969 10.3129 109.743 9.53833 109.743 8.58564C109.743 7.63159 108.969 6.85701 108.016 6.85701L93.3343 6.85836Z" fill="black"/>
<path d="M108.016 25.8584H93.3329C89.0472 25.8584 85.5615 22.3714 85.5615 18.0857C85.5615 13.7999 89.0472 10.3129 93.3343 10.3129H108.017C112.303 10.3129 115.789 13.7999 115.789 18.0857C115.789 22.3714 112.303 25.8584 108.016 25.8584ZM93.3343 16.3584C92.3816 16.3584 91.607 17.133 91.607 18.0857C91.607 19.037 92.3816 19.8129 93.3343 19.8129H108.017C108.969 19.8129 109.743 19.037 109.743 18.0857C109.743 17.1343 108.969 16.3584 108.016 16.3584H93.3343Z" fill="black"/>
<path d="M108.016 35.3584H93.3329C89.0472 35.3584 85.5615 31.8727 85.5615 27.5856C85.5615 23.2999 89.0472 19.8115 93.3343 19.8115H108.017C112.303 19.8129 115.789 23.2999 115.789 27.5856C115.789 31.8727 112.303 35.3584 108.016 35.3584ZM93.3343 25.8584C92.3816 25.8584 91.607 26.6329 91.607 27.5856C91.607 28.5383 92.3816 29.3129 93.3343 29.3129H108.017C108.969 29.3129 109.743 28.5383 109.743 27.5856C109.743 26.6316 108.969 25.857 108.016 25.857L93.3343 25.8584Z" fill="black"/>
<path d="M75.5455 102.365L63.8182 86.7173H60.1023V102.365H54.8352V67.4559H60.1023V82.2002H61.8239L75.017 67.4559H81.4432L67.483 83.0866L81.9716 102.365H75.5455Z" fill="black"/>
<path d="M75.5455 102.365L74.7452 102.965L75.0452 103.365H75.5455V102.365ZM63.8182 86.7173L64.6184 86.1175L64.3184 85.7173H63.8182V86.7173ZM60.1023 86.7173V85.7173H59.1023V86.7173H60.1023ZM60.1023 102.365V103.365H61.1023V102.365H60.1023ZM54.8352 102.365H53.8352V103.365H54.8352V102.365ZM54.8352 67.4559V66.4559H53.8352V67.4559H54.8352ZM60.1023 67.4559H61.1023V66.4559H60.1023V67.4559ZM60.1023 82.2002H59.1023V83.2002H60.1023V82.2002ZM61.8239 82.2002V83.2002H62.271L62.5691 82.867L61.8239 82.2002ZM75.017 67.4559V66.4559H74.57L74.2718 66.7891L75.017 67.4559ZM81.4432 67.4559L82.189 68.122L83.6771 66.4559H81.4432V67.4559ZM67.483 83.0866L66.7371 82.4205L66.191 83.032L66.6835 83.6874L67.483 83.0866ZM81.9716 102.365V103.365H83.9741L82.771 101.764L81.9716 102.365ZM76.3457 101.765L64.6184 86.1175L63.018 87.317L74.7452 102.965L76.3457 101.765ZM63.8182 85.7173H60.1023V87.7173H63.8182V85.7173ZM59.1023 86.7173V102.365H61.1023V86.7173H59.1023ZM60.1023 101.365H54.8352V103.365H60.1023V101.365ZM55.8352 102.365V67.4559H53.8352V102.365H55.8352ZM54.8352 68.4559H60.1023V66.4559H54.8352V68.4559ZM59.1023 67.4559V82.2002H61.1023V67.4559H59.1023ZM60.1023 83.2002H61.8239V81.2002H60.1023V83.2002ZM62.5691 82.867L75.7623 68.1227L74.2718 66.7891L61.0786 81.5334L62.5691 82.867ZM75.017 68.4559H81.4432V66.4559H75.017V68.4559ZM80.6973 66.7898L66.7371 82.4205L68.2288 83.7527L82.189 68.122L80.6973 66.7898ZM66.6835 83.6874L81.1722 102.966L82.771 101.764L68.2824 82.4858L66.6835 83.6874ZM81.9716 101.365H75.5455V103.365H81.9716V101.365Z" fill="white"/>
</svg>
