<svg width="179" height="112" viewBox="0 0 179 112" fill="none" xmlns="http://www.w3.org/2000/svg">
<path d="M1 82H175.996V60.4517H1V82Z" fill="white"/>
<path d="M125.576 60.4517H176.056V2.94449H125.576V60.4517Z" fill="white"/>
<path d="M1 60.4516H19.103V2.98929H1V60.4516Z" fill="white"/>
<path d="M139.283 31.8263H166.388V12.6119H139.283V31.8263Z" fill="#63D3FD"/>
<path d="M137.566 51.0409C136.125 51.0409 135.165 50.0803 135.165 48.6392V41.4337C135.165 39.9926 136.125 39.032 137.566 39.032C139.007 39.032 139.968 39.9926 139.968 41.4337V48.6392C139.968 50.0803 139.007 51.0409 137.566 51.0409Z" fill="black"/>
<path d="M166.388 51.0409C164.947 51.0409 163.986 50.0803 163.986 48.6392V41.4337C163.986 39.9926 164.947 39.032 166.388 39.032C167.829 39.032 168.79 39.9926 168.79 41.4337V48.6392C168.79 50.0803 167.829 51.0409 166.388 51.0409Z" fill="black"/>
<path d="M156.781 51.0409C155.34 51.0409 154.379 50.0803 154.379 48.6392V41.4337C154.379 39.9926 155.34 39.032 156.781 39.032C158.222 39.032 159.183 39.9926 159.183 41.4337V48.6392C159.183 50.0803 158.222 51.0409 156.781 51.0409Z" fill="black"/>
<path d="M147.114 50.9806C145.673 50.9806 144.712 50.02 144.712 48.5789V41.3735C144.712 39.9324 145.673 38.9717 147.114 38.9717C148.555 38.9717 149.515 39.9324 149.515 41.3735V48.5789C149.515 50.02 148.555 50.9806 147.114 50.9806Z" fill="black"/>
<path d="M175.996 82.2644H127.959C126.518 82.2644 125.557 81.3038 125.557 79.8627V3.00445C125.557 1.56336 126.518 0.602722 127.959 0.602722H175.996C177.437 0.602722 178.397 1.56336 178.397 3.00445V79.8627C178.397 81.3038 177.437 82.2644 175.996 82.2644ZM130.361 77.461H173.594V5.40645H130.361V77.461Z" fill="black"/>
<path d="M166.388 34.2283H137.566C136.125 34.2283 135.165 33.2677 135.165 31.8266V12.6119C135.165 11.1708 136.125 10.2102 137.566 10.2102H166.388C167.829 10.2102 168.79 11.1708 168.79 12.6119V31.8266C168.79 33.2674 167.829 34.2283 166.388 34.2283ZM139.968 29.4246H163.986V15.0137H139.968V29.4246Z" fill="black"/>
<path d="M147.174 70.2555H137.567C136.125 70.2555 135.165 69.2949 135.165 67.8538V58.2463C135.165 56.8052 136.125 55.8446 137.567 55.8446H147.174C148.615 55.8446 149.575 56.8052 149.575 58.2463V67.8535C149.575 69.2946 148.615 70.2555 147.174 70.2555ZM139.968 65.4518H144.772V60.6481H139.968V65.4518Z" fill="black"/>
<path d="M166.388 70.2555H156.781C155.34 70.2555 154.379 69.2949 154.379 67.8538V58.2463C154.379 56.8052 155.34 55.8446 156.781 55.8446H166.388C167.829 55.8446 168.79 56.8052 168.79 58.2463V67.8535C168.79 69.2946 167.829 70.2555 166.388 70.2555ZM159.183 65.4518H163.986V60.6481H159.183V65.4518Z" fill="black"/>
<path d="M127.396 82.2045H17.0176C15.2748 82.2045 14.113 81.2446 14.113 79.8045V3.00268C14.113 1.56265 15.2748 0.602722 17.0176 0.602722H127.396C129.139 0.602722 130.301 1.56265 130.301 3.00268V79.8045C130.301 81.2446 129.139 82.2045 127.396 82.2045ZM19.9226 77.4046H124.492V5.40292H19.9226V77.4046Z" fill="black"/>
<path d="M17.4154 82.2644H3.00451C1.56342 82.2644 0.602783 81.3038 0.602783 79.8627V3.00445C0.602783 1.56336 1.56342 0.602722 3.00451 0.602722H17.4154C18.8565 0.602722 19.8171 1.56336 19.8171 3.00445V79.8627C19.8174 81.3038 18.8565 82.2644 17.4154 82.2644ZM5.40651 77.461H15.0137V5.40645H5.40651V77.461Z" fill="black"/>
<path d="M96.2552 73.738C106.693 73.738 114.989 68.0137 114.989 53.7029C114.989 39.3921 101.608 39.3921 101.608 22.2191C93.5789 27.9434 89.9123 33.9539 88.2262 45.1164C85.5056 43.0657 83.5972 40.0044 82.8736 36.5299C80.1973 39.3921 77.521 47.9785 77.521 53.7029C77.521 62.6901 80.9467 73.738 96.2552 73.738Z" fill="#FC8440"/>
<path d="M95.8368 43.5377L94.2504 42.3943L93.9464 44.5865C93.4663 48.0489 91.497 51.2666 89.3261 53.5269C85.0749 57.9531 84.1439 62.7637 85.4605 66.738C86.7195 70.5385 89.9161 73.1418 93.1604 73.575L93.9121 73.6753C92.0552 72.3111 90.8632 69.126 91.2801 66.7471C91.69 64.4081 93.0906 62.2163 95.781 60.1963L97.1376 59.1776L97.6434 61.0008C97.9425 62.0792 98.4588 62.9442 98.9836 63.8236C99.2367 64.2476 99.4916 64.6749 99.7254 65.1309C100.535 66.712 100.75 68.4694 100.227 70.2134C99.7511 71.8005 98.9655 73.0466 97.8843 73.7381L99.1066 73.575C102.151 73.1685 104.387 71.9172 105.839 69.8243C107.278 67.7492 107.784 65.0792 107.784 62.2359C107.784 59.5872 106.879 56.8585 105.81 54.5878C104.559 51.9273 102.925 49.7189 101.141 47.5767C100.833 48.3182 100.857 48.6182 100.221 49.8089C99.4861 47.4563 98.0811 45.1553 95.8368 43.5377Z" fill="#FDFDFD"/>
<path d="M43.2952 73.738C53.7328 73.738 62.0294 68.0137 62.0294 53.7029C62.0294 39.3921 48.6478 39.3921 48.6478 22.2191C40.6189 27.9434 36.9524 33.9539 35.2663 45.1164C32.5456 43.0657 30.6372 40.0044 29.9137 36.5299C27.2373 39.3921 24.561 47.9785 24.561 53.7029C24.561 62.6901 27.9867 73.738 43.2952 73.738Z" fill="#FC8440"/>
<path d="M42.8768 43.5377L41.2905 42.3943L40.9864 44.5865C40.5063 48.0489 38.5371 51.2666 36.3661 53.5269C32.1149 57.9531 31.1839 62.7637 32.5005 66.738C33.7596 70.5385 36.9561 73.1418 40.2005 73.575L40.9522 73.6753C39.0953 72.3111 37.9032 69.126 38.3201 66.7471C38.73 64.4081 40.1306 62.2163 42.821 60.1963L44.1776 59.1776L44.6834 61.0008C44.9826 62.0792 45.4988 62.9442 46.0237 63.8236C46.2767 64.2476 46.5316 64.6749 46.7654 65.1309C47.5751 66.712 47.7896 68.4694 47.2668 70.2134C46.7911 71.8005 46.0055 73.0466 44.9244 73.7381L46.1466 73.575C49.1912 73.1685 51.4272 71.9172 52.8789 69.8243C54.3184 67.7492 54.8238 65.0792 54.8238 62.2359C54.8238 59.5872 53.9186 56.8585 52.8503 54.5878C51.5986 51.9273 49.9645 49.7189 48.1813 47.5767C47.8728 48.3182 47.8967 48.6182 47.261 49.8089C46.5261 47.4563 45.1211 45.1553 42.8768 43.5377Z" fill="#FDFDFD"/>
</svg>
