<svg width="179" height="112" viewBox="0 0 179 112" fill="none" xmlns="http://www.w3.org/2000/svg">
<path d="M1 82H175.996V60.4589H1V82Z" fill="white"/>
<path d="M125.576 60.4588H176.056V2.97083H125.576V60.4588Z" fill="white"/>
<path d="M1 60.4588H19.103V3.01562H1V60.4588Z" fill="white"/>
<path d="M139.283 31.8526H166.388V12.6382H139.283V31.8526Z" fill="#63D3FD"/>
<path d="M137.566 51.0672C136.125 51.0672 135.165 50.1066 135.165 48.6655V41.46C135.165 40.0189 136.125 39.0583 137.566 39.0583C139.007 39.0583 139.968 40.0189 139.968 41.46V48.6655C139.968 50.1066 139.007 51.0672 137.566 51.0672Z" fill="black"/>
<path d="M166.388 51.0672C164.947 51.0672 163.986 50.1066 163.986 48.6655V41.46C163.986 40.0189 164.947 39.0583 166.388 39.0583C167.829 39.0583 168.79 40.0189 168.79 41.46V48.6655C168.79 50.1066 167.829 51.0672 166.388 51.0672Z" fill="black"/>
<path d="M156.781 51.0672C155.34 51.0672 154.379 50.1066 154.379 48.6655V41.46C154.379 40.0189 155.34 39.0583 156.781 39.0583C158.222 39.0583 159.183 40.0189 159.183 41.46V48.6655C159.183 50.1066 158.222 51.0672 156.781 51.0672Z" fill="black"/>
<path d="M147.114 51.0069C145.673 51.0069 144.712 50.0463 144.712 48.6052V41.3998C144.712 39.9587 145.673 38.998 147.114 38.998C148.555 38.998 149.515 39.9587 149.515 41.3998V48.6052C149.515 50.0463 148.555 51.0069 147.114 51.0069Z" fill="black"/>
<path d="M175.996 82.2907H127.959C126.518 82.2907 125.557 81.3301 125.557 79.889V3.03075C125.557 1.58966 126.518 0.629028 127.959 0.629028H175.996C177.437 0.629028 178.397 1.58966 178.397 3.03075V79.889C178.397 81.3301 177.437 82.2907 175.996 82.2907ZM130.361 77.4873H173.594V5.43276H130.361V77.4873Z" fill="black"/>
<path d="M166.388 34.2546H137.566C136.125 34.2546 135.165 33.294 135.165 31.8529V12.6382C135.165 11.1971 136.125 10.2365 137.566 10.2365H166.388C167.829 10.2365 168.79 11.1971 168.79 12.6382V31.8529C168.79 33.2937 167.829 34.2546 166.388 34.2546ZM139.968 29.4509H163.986V15.04H139.968V29.4509Z" fill="black"/>
<path d="M147.174 70.2818H137.567C136.125 70.2818 135.165 69.3212 135.165 67.8801V58.2726C135.165 56.8315 136.125 55.8709 137.567 55.8709H147.174C148.615 55.8709 149.575 56.8315 149.575 58.2726V67.8798C149.575 69.3209 148.615 70.2818 147.174 70.2818ZM139.968 65.4781H144.772V60.6744H139.968V65.4781Z" fill="black"/>
<path d="M166.388 70.2818H156.781C155.34 70.2818 154.379 69.3212 154.379 67.8801V58.2726C154.379 56.8315 155.34 55.8709 156.781 55.8709H166.388C167.829 55.8709 168.79 56.8315 168.79 58.2726V67.8798C168.79 69.3209 167.829 70.2818 166.388 70.2818ZM159.183 65.4781H163.986V60.6744H159.183V65.4781Z" fill="black"/>
<path d="M127.396 82.2308H17.0176C15.2748 82.2308 14.113 81.2709 14.113 79.8308V3.02899C14.113 1.58896 15.2748 0.629028 17.0176 0.629028H127.396C129.139 0.629028 130.301 1.58896 130.301 3.02899V79.8308C130.301 81.2709 129.139 82.2308 127.396 82.2308ZM19.9226 77.4309H124.492V5.42923H19.9226V77.4309Z" fill="black"/>
<path d="M17.4154 82.2907H3.00451C1.56342 82.2907 0.602783 81.3301 0.602783 79.889V3.03075C0.602783 1.58966 1.56342 0.629028 3.00451 0.629028H17.4154C18.8565 0.629028 19.8171 1.58966 19.8171 3.03075V79.889C19.8174 81.3301 18.8565 82.2907 17.4154 82.2907ZM5.40651 77.4873H15.0137V5.43276H5.40651V77.4873Z" fill="black"/>
<path d="M96.2552 73.7643C106.693 73.7643 114.989 68.04 114.989 53.7292C114.989 39.4184 101.608 39.4184 101.608 22.2454C93.5789 27.9697 89.9123 33.9802 88.2262 45.1427C85.5056 43.0921 83.5972 40.0307 82.8736 36.5562C80.1973 39.4184 77.521 48.0049 77.521 53.7292C77.521 62.7164 80.9467 73.7643 96.2552 73.7643Z" fill="#0F0F0F"/>
<path d="M95.8368 43.564L94.2504 42.4207L93.9464 44.6129C93.4663 48.0752 91.497 51.293 89.3261 53.5532C85.0749 57.9794 84.1439 62.79 85.4605 66.7643C86.7195 70.5648 89.9161 73.1681 93.1604 73.6013L93.9121 73.7016C92.0552 72.3374 90.8632 69.1523 91.2801 66.7734C91.69 64.4344 93.0906 62.2426 95.781 60.2226L97.1376 59.2039L97.6434 61.0271C97.9425 62.1055 98.4588 62.9705 98.9836 63.8499C99.2367 64.2739 99.4916 64.7012 99.7254 65.1572C100.535 66.7383 100.75 68.4958 100.227 70.2398C99.7511 71.8268 98.9655 73.0729 97.8843 73.7644L99.1066 73.6013C102.151 73.1948 104.387 71.9435 105.839 69.8506C107.278 67.7755 107.784 65.1055 107.784 62.2622C107.784 59.6135 106.879 56.8848 105.81 54.6141C104.559 51.9536 102.925 49.7452 101.141 47.603C100.833 48.3445 100.857 48.6445 100.221 49.8352C99.4861 47.4826 98.0811 45.1816 95.8368 43.564Z" fill="#FDFDFD"/>
<path d="M43.2952 73.7643C53.7328 73.7643 62.0294 68.04 62.0294 53.7292C62.0294 39.4184 48.6478 39.4184 48.6478 22.2454C40.6189 27.9697 36.9524 33.9802 35.2663 45.1427C32.5456 43.0921 30.6372 40.0307 29.9137 36.5562C27.2373 39.4184 24.561 48.0049 24.561 53.7292C24.561 62.7164 27.9867 73.7643 43.2952 73.7643Z" fill="#0F0F0F"/>
<path d="M42.8768 43.564L41.2905 42.4207L40.9864 44.6129C40.5063 48.0752 38.5371 51.293 36.3661 53.5532C32.1149 57.9794 31.1839 62.79 32.5005 66.7643C33.7596 70.5648 36.9561 73.1681 40.2005 73.6013L40.9522 73.7016C39.0953 72.3374 37.9032 69.1523 38.3201 66.7734C38.73 64.4344 40.1306 62.2426 42.821 60.2226L44.1776 59.2039L44.6834 61.0271C44.9826 62.1055 45.4988 62.9705 46.0237 63.8499C46.2767 64.2739 46.5316 64.7012 46.7654 65.1572C47.5751 66.7383 47.7896 68.4958 47.2668 70.2398C46.7911 71.8268 46.0055 73.0729 44.9244 73.7644L46.1466 73.6013C49.1912 73.1948 51.4272 71.9435 52.8789 69.8506C54.3184 67.7755 54.8238 65.1055 54.8238 62.2622C54.8238 59.6135 53.9186 56.8848 52.8503 54.6141C51.5986 51.9536 49.9645 49.7452 48.1813 47.603C47.8728 48.3445 47.8967 48.6445 47.261 49.8352C46.5261 47.4826 45.1211 45.1816 42.8768 43.564Z" fill="#FDFDFD"/>
</svg>
