<svg width="25" height="15" viewBox="0 0 25 15" fill="none" xmlns="http://www.w3.org/2000/svg">
<g clip-path="url(#clip0_10_9621)">
<path d="M1.49019 14.524V0.643585H5.37586V14.524H1.49019Z" fill="url(#paint0_linear_10_9621)"/>
<path fill-rule="evenodd" clip-rule="evenodd" d="M8.58497 2.11557L5.47198 4.62652C5.3625 4.71483 5.29594 4.87017 5.29594 5.0374V9.11575C5.29594 9.28293 5.3625 9.4383 5.47198 9.52661L8.58497 12.0376V2.11557Z" fill="url(#paint1_linear_10_9621)"/>
<g filter="url(#filter0_f_10_9621)">
<path fill-rule="evenodd" clip-rule="evenodd" d="M8.57466 3.03149L5.51075 5.46754V5.61682L8.57466 3.39247V3.03149Z" fill="#40680C" fill-opacity="0.6"/>
<path d="M8.57466 2.96786L5.51075 5.4267V5.46754L8.57466 3.03149V2.96786Z" fill="#0D3C0F" fill-opacity="0.4"/>
<path fill-rule="evenodd" clip-rule="evenodd" d="M5.51075 7.43375V6.92554L8.57466 8.33176V9.39483L5.51075 7.43375Z" fill="#40680C" fill-opacity="0.6"/>
<path d="M5.51075 7.63557L8.57466 9.85978V9.39483L5.51075 7.43375V7.63557Z" fill="#0E7812" fill-opacity="0.3"/>
<path fill-rule="evenodd" clip-rule="evenodd" d="M5.51075 5.96142V5.61681L8.57466 3.39246V5.14895L5.51075 5.96142Z" fill="#40680C" fill-opacity="0.6"/>
<path d="M5.51075 6.21546H8.57466V5.14896L5.51075 5.96142V6.21546Z" fill="#127616" fill-opacity="0.8"/>
<path fill-rule="evenodd" clip-rule="evenodd" d="M5.51075 6.92553L8.57466 8.33175V6.55551L5.51075 6.36124V6.92553Z" fill="#40680C" fill-opacity="0.6"/>
<path d="M8.57466 6.21545H5.51075V6.30604V6.36124L8.57466 6.55552V6.30604V6.21545Z" fill="#127616" fill-opacity="0.8"/>
</g>
<path d="M8.58496 12.0375V2.11554L9.13634 3.52181V10.729L8.58496 12.0375Z" fill="#163D05"/>
<path d="M9.03828 12.7339V1.95667H12.0439V12.7339H9.03828Z" fill="url(#paint2_linear_10_9621)"/>
<path d="M2.17299 0.0203247L4.48455 0.0203249V0.643569H2.17299V0.0203247Z" fill="url(#paint3_linear_10_9621)"/>
<path d="M12.0439 11.8287V2.80524H12.4973V11.8287H12.0439Z" fill="url(#paint4_linear_10_9621)"/>
<path d="M12.4973 13.1299V1.61722H13.4135V13.1299H12.4973Z" fill="url(#paint5_linear_10_9621)"/>
<path d="M0.0524826 10.8901V4.21335H1.49018V10.8901H0.0524826Z" fill="url(#paint6_linear_10_9621)"/>
<path d="M21.8058 1.61722H13.4135V2.80525H21.8058V1.61722Z" fill="#3DCA0C"/>
<path d="M21.8058 2.80524H13.4135V3.88624H21.8058V2.80524Z" fill="#2D7D1F"/>
<path d="M21.8058 5.07425H13.4135V6.15525H21.8058V5.07425Z" fill="#2D7D1F"/>
<path d="M21.8058 7.34326H13.4135V8.42426H21.8058V7.34326Z" fill="#2D7D1F"/>
<path d="M21.8058 9.61234H13.4135V10.6933H21.8058V9.61234Z" fill="#2D7D1F"/>
<path d="M21.8058 11.8814H13.4135V12.9624H21.8058V11.8814Z" fill="#2D7D1F"/>
<path d="M21.8058 3.88623H13.4135V5.07426H21.8058V3.88623Z" fill="#3DCA0C"/>
<path d="M21.8058 6.15527H13.4135V7.3433H21.8058V6.15527Z" fill="#3DCA0C"/>
<path d="M21.8058 8.42429H13.4135V9.61231H21.8058V8.42429Z" fill="#3DCA0C"/>
<path d="M21.8058 10.6933H13.4135V11.8813H21.8058V10.6933Z" fill="#3DCA0C"/>
<mask id="mask0_10_9621" style="mask-type:alpha" maskUnits="userSpaceOnUse" x="21" y="1" width="4" height="12">
<path d="M21.8058 1.61722C23.5385 1.61722 24.9432 3.43874 24.9432 5.68569V8.8939C24.9432 11.1409 23.5385 12.9624 21.8058 12.9624V1.61722Z" fill="#4F4F4F"/>
</mask>
<g mask="url(#mask0_10_9621)">
<path d="M21.8058 1.61722C23.5385 1.61722 24.9432 3.43874 24.9432 5.68569V8.8939C24.9432 11.1409 23.5385 12.9624 21.8058 12.9624V1.61722Z" fill="#163D05"/>
<g filter="url(#filter1_f_10_9621)">
<path d="M21.8058 2.20837C23.3321 2.20837 24.5695 3.81295 24.5695 5.79228V8.51246C24.5695 10.4918 23.3321 12.0964 21.8058 12.0964V2.20837Z" fill="#DEDEDE" fill-opacity="0.4"/>
</g>
<g filter="url(#filter2_f_10_9621)">
<path d="M21.8058 3.1459C23.0932 3.1459 24.1369 4.4993 24.1369 6.16878V7.67042C24.1369 9.33992 23.0932 10.6933 21.8058 10.6933V3.1459Z" fill="#2A7E1C" fill-opacity="0.6"/>
</g>
<g filter="url(#filter3_f_10_9621)">
<path d="M21.958 3.67526H22.0138C22.924 3.67526 23.6618 4.63202 23.6618 5.81222C23.6618 6.99243 22.924 7.94919 22.0138 7.94919H21.958V3.67526Z" fill="#183203" fill-opacity="0.8"/>
</g>
</g>
</g>
<defs>
<filter id="filter0_f_10_9621" x="5.01075" y="2.46786" width="4.06392" height="7.89191" filterUnits="userSpaceOnUse" color-interpolation-filters="sRGB">
<feFlood flood-opacity="0" result="BackgroundImageFix"/>
<feBlend mode="normal" in="SourceGraphic" in2="BackgroundImageFix" result="shape"/>
<feGaussianBlur stdDeviation="0.25" result="effect1_foregroundBlur_10_9621"/>
</filter>
<filter id="filter1_f_10_9621" x="19.8058" y="0.208374" width="6.76373" height="13.888" filterUnits="userSpaceOnUse" color-interpolation-filters="sRGB">
<feFlood flood-opacity="0" result="BackgroundImageFix"/>
<feBlend mode="normal" in="SourceGraphic" in2="BackgroundImageFix" result="shape"/>
<feGaussianBlur stdDeviation="1" result="effect1_foregroundBlur_10_9621"/>
</filter>
<filter id="filter2_f_10_9621" x="19.8058" y="1.1459" width="6.33109" height="11.5474" filterUnits="userSpaceOnUse" color-interpolation-filters="sRGB">
<feFlood flood-opacity="0" result="BackgroundImageFix"/>
<feBlend mode="normal" in="SourceGraphic" in2="BackgroundImageFix" result="shape"/>
<feGaussianBlur stdDeviation="1" result="effect1_foregroundBlur_10_9621"/>
</filter>
<filter id="filter3_f_10_9621" x="20.958" y="2.67526" width="3.70377" height="6.27393" filterUnits="userSpaceOnUse" color-interpolation-filters="sRGB">
<feFlood flood-opacity="0" result="BackgroundImageFix"/>
<feBlend mode="normal" in="SourceGraphic" in2="BackgroundImageFix" result="shape"/>
<feGaussianBlur stdDeviation="0.5" result="effect1_foregroundBlur_10_9621"/>
</filter>
<linearGradient id="paint0_linear_10_9621" x1="3.43304" y1="0.643585" x2="3.43304" y2="14.524" gradientUnits="userSpaceOnUse">
<stop stop-color="#65AC44"/>
<stop offset="0.050141" stop-color="#77CB4F"/>
<stop offset="0.215162" stop-color="#5FB437"/>
<stop offset="0.281777" stop-color="#6AB148"/>
<stop offset="0.333333" stop-color="#C3C3C3"/>
<stop offset="0.422575" stop-color="#448D22"/>
<stop offset="0.510384" stop-color="#4EAD20"/>
<stop offset="0.652696" stop-color="#4EBB1B"/>
<stop offset="1" stop-color="#367818"/>
</linearGradient>
<linearGradient id="paint1_linear_10_9621" x1="9.44433" y1="3.81012" x2="5.10323" y2="9.88806" gradientUnits="userSpaceOnUse">
<stop stop-color="#366510"/>
<stop offset="0.702846" stop-color="#9F9F9F"/>
<stop offset="0.842409" stop-color="#777777"/>
<stop offset="1" stop-color="#505050"/>
</linearGradient>
<linearGradient id="paint2_linear_10_9621" x1="10.5411" y1="1.95667" x2="10.5411" y2="12.7339" gradientUnits="userSpaceOnUse">
<stop stop-color="#165C0A"/>
<stop offset="0.050141" stop-color="#787878"/>
<stop offset="0.215162" stop-color="#9C9C9C"/>
<stop offset="0.281777" stop-color="#C3C3C3"/>
<stop offset="0.422575" stop-color="#C3C3C3"/>
<stop offset="0.510384" stop-color="#9C9C9C"/>
<stop offset="0.652696" stop-color="#787878"/>
<stop offset="1" stop-color="#4F4F4F"/>
</linearGradient>
<linearGradient id="paint3_linear_10_9621" x1="4.48455" y1="0.331947" x2="2.17299" y2="0.331947" gradientUnits="userSpaceOnUse">
<stop stop-color="#0F3408"/>
<stop offset="0.050141" stop-color="#787878"/>
<stop offset="0.215162" stop-color="#9C9C9C"/>
<stop offset="0.281777" stop-color="#2A7C1D"/>
<stop offset="0.422575" stop-color="#C3C3C3"/>
<stop offset="0.510384" stop-color="#146507"/>
<stop offset="0.652696" stop-color="#16620A"/>
<stop offset="1" stop-color="#166209"/>
</linearGradient>
<linearGradient id="paint4_linear_10_9621" x1="12.2706" y1="2.80524" x2="12.2706" y2="11.8287" gradientUnits="userSpaceOnUse">
<stop stop-color="#06861B"/>
<stop offset="0.050141" stop-color="#178729"/>
<stop offset="0.215162" stop-color="#008B16"/>
<stop offset="0.281777" stop-color="#4FC963"/>
<stop offset="0.422575" stop-color="#299B3C"/>
<stop offset="0.510384" stop-color="#177827"/>
<stop offset="0.652696" stop-color="#1E7A2D"/>
<stop offset="1" stop-color="#025910"/>
</linearGradient>
<linearGradient id="paint5_linear_10_9621" x1="12.9554" y1="1.61722" x2="12.9554" y2="13.1299" gradientUnits="userSpaceOnUse">
<stop stop-color="#17700F"/>
<stop offset="0.050141" stop-color="#787878"/>
<stop offset="0.215162" stop-color="#9C9C9C"/>
<stop offset="0.281777" stop-color="#C3C3C3"/>
<stop offset="0.422575" stop-color="#C3C3C3"/>
<stop offset="0.510384" stop-color="#9C9C9C"/>
<stop offset="0.652696" stop-color="#787878"/>
<stop offset="1" stop-color="#4F4F4F"/>
</linearGradient>
<linearGradient id="paint6_linear_10_9621" x1="0.771332" y1="4.21335" x2="0.771332" y2="10.8901" gradientUnits="userSpaceOnUse">
<stop stop-color="#338F08"/>
<stop offset="0.050141" stop-color="#787878"/>
<stop offset="0.215162" stop-color="#9C9C9C"/>
<stop offset="0.281777" stop-color="#C3C3C3"/>
<stop offset="0.422575" stop-color="#C3C3C3"/>
<stop offset="0.510384" stop-color="#9C9C9C"/>
<stop offset="0.652696" stop-color="#787878"/>
<stop offset="1" stop-color="#4F4F4F"/>
</linearGradient>
<clipPath id="clip0_10_9621">
<rect width="25" height="15" fill="white"/>
</clipPath>
</defs>
</svg>
