<?xml version="1.0" encoding="UTF-8"?>
<svg width="700pt" height="700pt" version="1.1" viewBox="0 0 700 700" xmlns="http://www.w3.org/2000/svg" xmlns:xlink="http://www.w3.org/1999/xlink">
 <defs>
  <symbol id="l" overflow="visible">
   <path d="m37.516-2.25c-1.9297 1.0117-3.9453 1.7734-6.0469 2.2812-2.0938 0.50781-4.2812 0.76562-6.5625 0.76562-6.793 0-12.18-1.8984-16.156-5.7031-3.9688-3.8008-5.9531-8.957-5.9531-15.469 0-6.5195 1.9844-11.68 5.9531-15.484 3.9766-3.8008 9.3633-5.7031 16.156-5.7031 2.2812 0 4.4688 0.25781 6.5625 0.76562 2.1016 0.51172 4.1172 1.2656 6.0469 2.2656v8.4531c-1.9492-1.332-3.8711-2.3047-5.7656-2.9219-1.8984-0.625-3.8906-0.9375-5.9844-0.9375-3.7617 0-6.7188 1.2031-8.875 3.6094-2.1484 2.4062-3.2188 5.7266-3.2188 9.9531 0 4.2109 1.0703 7.5156 3.2188 9.9219 2.1562 2.4062 5.1133 3.6094 8.875 3.6094 2.0938 0 4.0859-0.30469 5.9844-0.92188 1.8945-0.625 3.8164-1.5977 5.7656-2.9219z"/>
  </symbol>
  <symbol id="h" overflow="visible">
   <path d="m27.453-22.281c-0.85547-0.40625-1.7109-0.70312-2.5625-0.89062-0.84375-0.19531-1.6953-0.29688-2.5469-0.29688-2.5234 0-4.4609 0.80859-5.8125 2.4219-1.3555 1.6172-2.0312 3.9297-2.0312 6.9375v14.109h-9.7969v-30.625h9.7969v5.0312c1.25-2.0078 2.6914-3.4727 4.3281-4.3906 1.6328-0.91406 3.5859-1.375 5.8594-1.375 0.33203 0 0.6875 0.015625 1.0625 0.046875 0.38281 0.023438 0.94141 0.078125 1.6719 0.17188z"/>
  </symbol>
  <symbol id="a" overflow="visible">
   <path d="m35.281-15.391v2.7812h-22.891c0.23828 2.3047 1.0664 4.0273 2.4844 5.1719 1.4258 1.1484 3.4141 1.7188 5.9688 1.7188 2.0508 0 4.1562-0.30078 6.3125-0.90625 2.1641-0.61328 4.3906-1.5391 6.6719-2.7812v7.5469c-2.3125 0.875-4.6328 1.5391-6.9531 1.9844-2.3125 0.44531-4.625 0.67188-6.9375 0.67188-5.543 0-9.8516-1.4062-12.922-4.2188-3.0742-2.8203-4.6094-6.7734-4.6094-11.859 0-5 1.5039-8.9258 4.5156-11.781 3.0195-2.8633 7.1758-4.2969 12.469-4.2969 4.8125 0 8.6602 1.4492 11.547 4.3438 2.8945 2.8984 4.3438 6.7734 4.3438 11.625zm-10.062-3.2656c0-1.8516-0.54688-3.3477-1.6406-4.4844-1.0859-1.1445-2.5-1.7188-4.25-1.7188-1.8984 0-3.4375 0.53906-4.625 1.6094-1.1797 1.0625-1.9141 2.5938-2.2031 4.5938z"/>
  </symbol>
  <symbol id="g" overflow="visible">
   <path d="m18.438-13.781c-2.043 0-3.5781 0.35156-4.6094 1.0469-1.0312 0.6875-1.5469 1.7031-1.5469 3.0469 0 1.2422 0.41016 2.2148 1.2344 2.9219 0.83203 0.69922 1.9883 1.0469 3.4688 1.0469 1.8438 0 3.3906-0.66016 4.6406-1.9844 1.2578-1.3203 1.8906-2.9727 1.8906-4.9531v-1.125zm14.953-3.6875v17.469h-9.875v-4.5469c-1.3125 1.8672-2.793 3.2266-4.4375 4.0781-1.6367 0.84375-3.6328 1.2656-5.9844 1.2656-3.168 0-5.7422-0.92578-7.7188-2.7812-1.9805-1.8516-2.9688-4.2539-2.9688-7.2031 0-3.5938 1.2344-6.2266 3.7031-7.9062 2.4688-1.6758 6.3477-2.5156 11.641-2.5156h5.7656v-0.76562c0-1.5508-0.60938-2.6875-1.8281-3.4062s-3.125-1.0781-5.7188-1.0781c-2.0938 0-4.0469 0.21484-5.8594 0.64062-1.8047 0.41797-3.4766 1.043-5.0156 1.875v-7.4688c2.0938-0.50781 4.1953-0.89453 6.3125-1.1562 2.1133-0.25781 4.2266-0.39062 6.3438-0.39062 5.5195 0 9.5039 1.0898 11.953 3.2656 2.457 2.1797 3.6875 5.7188 3.6875 10.625z"/>
  </symbol>
  <symbol id="f" overflow="visible">
   <path d="m15.391-39.328v8.7031h10.094v7h-10.094v12.984c0 1.4297 0.28125 2.3906 0.84375 2.8906 0.57031 0.5 1.6953 0.75 3.375 0.75h5.0312v7h-8.3906c-3.8672 0-6.6055-0.80469-8.2188-2.4219-1.6172-1.6133-2.4219-4.3516-2.4219-8.2188v-12.984h-4.875v-7h4.875v-8.7031z"/>
  </symbol>
  <symbol id="e" overflow="visible">
   <path d="m25.547-26.141v-16.406h9.8438v42.547h-9.8438v-4.4375c-1.3555 1.8125-2.8438 3.1406-4.4688 3.9844-1.6172 0.83203-3.4922 1.25-5.625 1.25-3.7734 0-6.8711-1.5-9.2969-4.5-2.4297-3-3.6406-6.8594-3.6406-11.578 0-4.7266 1.2109-8.5859 3.6406-11.578 2.4258-3 5.5234-4.5 9.2969-4.5 2.1133 0 3.9844 0.42188 5.6094 1.2656 1.6328 0.84375 3.1289 2.1641 4.4844 3.9531zm-6.4531 19.828c2.0938 0 3.6914-0.76562 4.7969-2.2969 1.1016-1.5312 1.6562-3.7539 1.6562-6.6719 0-2.9141-0.55469-5.1406-1.6562-6.6719-1.1055-1.5312-2.7031-2.2969-4.7969-2.2969-2.0859 0-3.6797 0.76562-4.7812 2.2969-1.1055 1.5312-1.6562 3.7578-1.6562 6.6719 0 2.918 0.55078 5.1406 1.6562 6.6719 1.1016 1.5312 2.6953 2.2969 4.7812 2.2969z"/>
  </symbol>
  <symbol id="d" overflow="visible">
   <path d="m21-6.3125c2.0938 0 3.6914-0.76562 4.7969-2.2969 1.1016-1.5312 1.6562-3.7539 1.6562-6.6719 0-2.9141-0.55469-5.1406-1.6562-6.6719-1.1055-1.5312-2.7031-2.2969-4.7969-2.2969s-3.7031 0.77344-4.8281 2.3125c-1.1172 1.5312-1.6719 3.75-1.6719 6.6562 0 2.8984 0.55469 5.1172 1.6719 6.6562 1.125 1.543 2.7344 2.3125 4.8281 2.3125zm-6.5-19.828c1.3438-1.7891 2.832-3.1094 4.4688-3.9531 1.6445-0.84375 3.5352-1.2656 5.6719-1.2656 3.7695 0 6.8672 1.5 9.2969 4.5 2.4258 2.9922 3.6406 6.8516 3.6406 11.578 0 4.7188-1.2148 8.5781-3.6406 11.578-2.4297 3-5.5273 4.5-9.2969 4.5-2.1367 0-4.0273-0.42188-5.6719-1.2656-1.6367-0.85156-3.125-2.1758-4.4688-3.9688v4.4375h-9.7969v-42.547h9.7969z"/>
  </symbol>
  <symbol id="c" overflow="visible">
   <path d="m0.6875-30.625h9.7812l8.2344 20.781 7-20.781h9.7969l-12.891 33.531c-1.293 3.4062-2.8047 5.7852-4.5312 7.1406-1.7188 1.3633-3.9922 2.0469-6.8125 2.0469h-5.6562v-6.4375h3.0625c1.6562 0 2.8594-0.26562 3.6094-0.79688 0.75781-0.52344 1.3516-1.4648 1.7812-2.8281l0.26562-0.85938z"/>
  </symbol>
  <symbol id="b" overflow="visible">
   <path d="m29.922-7.4375h-16.469l-2.5938 7.4375h-10.578l15.109-40.828h12.562l15.109 40.828h-10.578zm-13.844-7.5781h11.188l-5.5781-16.234z"/>
  </symbol>
  <symbol id="k" overflow="visible">
   <path d="m0.28125-40.828h37.625v7.9531h-13.547v32.875h-10.516v-32.875h-13.562z"/>
  </symbol>
  <symbol id="j" overflow="visible">
   <path d="m23.797-33.938c-3.2109 0-5.6992 1.1875-7.4688 3.5625-1.7734 2.3672-2.6562 5.6992-2.6562 10 0 4.2812 0.88281 7.6094 2.6562 9.9844 1.7695 2.3672 4.2578 3.5469 7.4688 3.5469 3.2188 0 5.7109-1.1797 7.4844-3.5469 1.7695-2.375 2.6562-5.7031 2.6562-9.9844 0-4.3008-0.88672-7.6328-2.6562-10-1.7734-2.375-4.2656-3.5625-7.4844-3.5625zm0-7.625c6.5625 0 11.703 1.8828 15.422 5.6406 3.7188 3.75 5.5781 8.9336 5.5781 15.547 0 6.6055-1.8594 11.789-5.5781 15.547-3.7188 3.75-8.8594 5.625-15.422 5.625-6.5547 0-11.695-1.875-15.422-5.625-3.7188-3.7578-5.5781-8.9414-5.5781-15.547 0-6.6133 1.8594-11.797 5.5781-15.547 3.7266-3.7578 8.8672-5.6406 15.422-5.6406z"/>
  </symbol>
  <symbol id="i" overflow="visible">
   <path d="m5.1406-40.828h13.406l9.2969 21.844 9.3438-21.844h13.375v40.828h-9.9531v-29.859l-9.4062 22.016h-6.6719l-9.4062-22.016v29.859h-9.9844z"/>
  </symbol>
 </defs>
 <g>
  <path d="m580.8 475.14h-54.422l-4.9258-59.266h59.348c1.1797 0 2.2305-0.73828 2.6367-1.8477 0.39453-1.1094 0.066406-2.3477-0.84375-3.1016l-66.129-55.07-4.418-53.133h49.32c1.1719 0 2.2188-0.72656 2.625-1.8203 0.40625-1.0977 0.085937-2.3281-0.78906-3.0938l-55.562-48.094-7.5547-90.891c-0.003906-0.027344-0.03125-0.039063-0.03125-0.066407v-31.039c0-0.89844-0.42578-1.7383-1.1484-2.2656l-43.102-31.344c-0.98438-0.71094-2.3203-0.71094-3.3047 0l-43.094 31.34c-0.72266 0.52344-1.1484 1.3672-1.1484 2.2656v31.039c-0.003907 0.027344-0.03125 0.039063-0.03125 0.066406l-7.5273 90.523-30.473 26.375-41.836-46.012c-0.52344-0.58594-1.2812-0.91797-2.0664-0.91797h-27.793v-22.859h7.5898c1.543 0 2.8008-1.2539 2.8008-2.8008v-20.504c10.453-6.3555 16.922-17.656 16.922-29.957 0-19.363-15.75-35.113-35.121-35.113-19.359 0-35.109 15.75-35.109 35.113 0 12.293 6.4688 23.594 16.91 29.953v20.504c0 1.5469 1.2578 2.8008 2.8008 2.8008h7.5898v22.859h-30.348l-10.098-108.69c-0.13281-1.4453-1.3438-2.543-2.7891-2.543h-26.445c-1.4453 0-2.6562 1.0977-2.7891 2.543l-7.5469 81.219-11.223-120.77c-0.13281-1.4453-1.3438-2.543-2.7891-2.543h-35.852c-1.4453 0-2.6562 1.0977-2.7891 2.543l-13.777 148.24h-3.9883c-1.543 0-2.8008 1.2539-2.8008 2.8008v243.55h-9c-1.543 0-2.8008 1.2539-2.8008 2.8008v16.102c0 1.5469 1.2578 2.8008 2.8008 2.8008h460.12c1.543 0 2.8008-1.2539 2.8008-2.8008v-16.102c0-1.5508-1.2578-2.8008-2.7969-2.8008zm-188.33-59.266h43.055v10.562l-47.633 44.504zm9.4062-113.15h45.301l-27.965 26.871-17.93-19.719zm-5.7383 1.4922-1.3594-1.4922h1.4805zm39.387 55.754v31.664l-33.895-31.664zm-34.027-5.6016 17.441-16.758 15.238 16.758zm39.629 5.6016h65.547l-52.52 49.066-13.027-12.172zm6.1484 50.305h-6.1484v-5.7461zm-0.44531 5.6016-5.707 5.332v-5.332zm64.625-52.707 3.9141 47.109h-54.34zm-70.484-8.8008c-0.085937-0.53516-0.20703-1.0781-0.57812-1.4805l-17.418-19.156 31.176-29.957 52.652 50.594zm61.668-97.18 3.3242 39.934h-44.883zm-48.488 38.832-43.844-42.129h87.688zm-43.934-47.73 43.938-43.051 43.938 43.051zm37.012 48.832h-44.883l3.3242-39.934zm-32.051 36.348-17.234 16.559 2.707-32.535zm-18.328 29.699 38.676 36.129v10.977h-42.59zm-9.5312 47.105h-50.098l53.973-46.586zm48.207 23.828v41.035h-43.922zm5.6016-5.2305 13.027-12.172 62.551 58.438h-75.574zm79.285 42.07-58.938-55.066h54.363zm52.652-60.668h-52.082l-3.875-46.59zm-62.703-60.246-49.234-47.309h45.301zm43.484-52.906h-42.27l-3.2773-39.43zm-52.32-53.301-43.375-42.5 36.836-36.094zm-47.375-46.418-36.281-35.551h72.559zm0-97.566 40.293 29.309v27.109h-80.586v-27.109zm-40.836 65.391 36.836 36.094-43.375 42.5zm-13.277 92.098-3.3086 39.797h-7.0391l-15.691-17.258zm-17.91 39.797h-28.062l15.703-13.594zm-103.91-139.02c-1.3984 0-2.5391-1.1367-2.5391-2.5391 0-1.3945 1.1367-2.5312 2.5391-2.5312 1.3984 0 2.5391 1.1367 2.5391 2.5312 0 1.4023-1.1367 2.5391-2.5391 2.5391zm7.0352 5.6016h10.926v14.344h-10.926zm15.434-8.1406c0-1.3945 1.1367-2.5312 2.5391-2.5312 1.3984 0 2.5391 1.1367 2.5391 2.5312 0 1.3984-1.1367 2.5391-2.5391 2.5391s-2.5391-1.1367-2.5391-2.5391zm2.6328 28.082v9.3203h-25.199v-9.3203zm-42.109-30.98c0-16.273 13.234-29.516 29.508-29.516 16.273 0 29.52 13.238 29.52 29.516 0 10.492-5.6289 20.082-14.648 25.379h-3.8164v-14.637c0.48438 0.089844 0.93359 0.29297 1.4453 0.29297 4.4844 0 8.1367-3.6523 8.1367-8.1367s-3.6523-8.1328-8.1367-8.1328c-4.4844 0-8.1367 3.6484-8.1367 8.1328 0 0.89844 0.24219 1.7266 0.51562 2.5391h-9.7578c0.26953-0.80859 0.51562-1.6367 0.51562-2.5391 0-4.4844-3.6523-8.1328-8.1367-8.1328-4.4844 0-8.1367 3.6484-8.1367 8.1328s3.6523 8.1367 8.1367 8.1367c0.50781 0 0.94922-0.19922 1.4336-0.28906v14.637h-3.8008c-9.0078-5.3008-14.641-14.895-14.641-25.383zm16.91 45.902h25.199v1.7617h-25.199zm10.391 7.3594h4.418v22.859h-4.418zm-41.57 22.859h-40.977l2.5859-27.82h35.805zm-9.8125-105.63 2.2422 24.148h-25.836l2.2422-24.148zm-24.113 29.75h26.875l3.9453 42.465h-34.766zm-17.555 28.934h-49.008l5.2656-56.699h38.473zm-39.883-98.234h30.758l3.3398 35.934h-37.438zm-9.6445 103.84h50.047l3.8398 41.348h-57.73zm-10.656 46.949h189.81l40.906 44.992-21.285 18.426c-0.875 0.76562-1.1914 1.9961-0.78906 3.0938 0.40625 1.0938 1.4531 1.8203 2.625 1.8203h40.672l8.2852 9.1133-3.6484 43.891-63.988 55.23c-0.88672 0.76562-1.2031 2-0.79688 3.0938 0.40625 1.0977 1.4531 1.8281 2.625 1.8281h57.16l-4.9258 59.266h-98.883v-13.301c0-1.5469-1.2578-2.8008-2.8008-2.8008h-2.3945v-177.8c0-1.5469-1.2578-2.8008-2.8008-2.8008h-96.129c-1.543 0-2.8008 1.2539-2.8008 2.8008v177.8h-2.1016c-1.543 0-2.8008 1.2539-2.8008 2.8008v13.301l-35.938-0.003906zm136.97 224.65h-90.531v-175h90.531zm-95.43 5.6016h100.62v10.5h-100.62zm401.18 26.598h-454.52v-10.5h454.52zm-386.5-110.57h20.695l-17.961 50.625c-0.44922 1.2422 0.042969 2.625 1.1719 3.3203 0.44922 0.27734 0.96094 0.41406 1.4648 0.41406 0.74219 0 1.4766-0.29688 2.0234-0.85938l65.898-68.648c0.77734-0.80859 0.99609-2.0078 0.54688-3.0391-0.4375-1.0352-1.4453-1.6992-2.5703-1.6992h-30.188l22.016-32.91c0.57031-0.85938 0.625-1.9688 0.14063-2.875-0.49219-0.91406-1.4453-1.4805-2.4727-1.4805h-26.852c-0.94141 0-1.8281 0.47656-2.3398 1.2617l-33.918 51.559c-0.57031 0.85938-0.61328 1.957-0.12109 2.8672 0.48438 0.90234 1.4375 1.4648 2.4648 1.4648zm35.426-51.559h20.102l-22.016 32.91c-0.57031 0.85937-0.625 1.9688-0.14062 2.875 0.49219 0.91406 1.4453 1.4805 2.4727 1.4805l28.852 0.003906-52.336 54.523 14.941-42.098c0.30469-0.85156 0.17578-1.8047-0.35156-2.5469-0.52344-0.74219-1.3789-1.1875-2.2852-1.1875h-19.469z"/>
 </g>
</svg>
