<svg height="2000" viewBox="0 0 2000 2000" width="2000" xmlns="http://www.w3.org/2000/svg"><path d="m1251.9355-739.74136c-286.23045.00065-572.46091.001-858.69136.002v1584.21096h1213.51176c0-406.6185 0-813.23699 0-1219.85549-118.2735-121.45248-236.5469-242.90495-354.8204-364.35743zm-104.207 90v371.64844h369.0274v1032.56448c-344.5039 0-689.00784 0-1033.51176 0 0-468.0703 0-936.14064 0-1404.21096 221.49479-.00065 442.98957-.001 664.48436-.002zm90 24.41211c83.5013 85.74544 167.0026 171.49089 250.5039 257.23633-83.5013 0-167.0026 0-250.5039 0 0-85.74544 0-171.49089 0-257.23633z" transform="translate(0 947.63784)"/></svg>