<svg height="2000" viewBox="0 0 2000 2000" width="2000" xmlns="http://www.w3.org/2000/svg"><path d="m1000.0449-608.55273c-157.81266 0-315.36613 13.01049-438.7617 39.92187-61.69778 13.45569-114.83321 30.18084-156.49023 52.13281-40.12412 21.14419-72.77527 48.41535-82.84375 87.82617-.69331 2.05845-1.19351 4.17696-1.49414 6.32813l-1.08594 5.26953.73633 3.57031c-.51535 315.041281 0 614.82949 0 938.8711l.7207 3.49609c8.633 41.89172 42.30977 70.4074 83.9668 92.35938 41.65702 21.95198 94.79245 38.67516 156.49023 52.13086 123.39557 26.91138 280.94904 39.92382 438.7617 39.92382 157.8127 0 315.3662-13.01244 438.7617-39.92382 61.6978-13.4557 114.8333-30.17888 156.4903-52.13086s75.3357-50.46766 83.9687-92.35938l.7188-3.49609c0-309.85815.01-647.33319 0-940.84766.096-1.4965.096-2.99764 0-4.49414v-.66797l-.1192-.57422c-.3037-2.86398-.9597-5.67953-1.9531-8.38281-10.3403-38.91405-42.8049-65.9196-82.6152-86.89844-41.657-21.95197-94.7925-38.67712-156.4903-52.13281-123.3955-26.91138-280.949-39.92187-438.7617-39.92187zm0 70c153.9084 0 308.076 13.06619 423.8457 38.31445 57.8849 12.62413 106.1932 28.50022 138.7715 45.66797 26.0001 13.70124 39.6105 27.31335 45.1797 37.49609-5.5695 10.18265-19.1804 23.79528-45.1797 37.4961-32.5783 17.16775-80.8866 33.04188-138.7715 45.66601-115.7697 25.24826-269.9373 38.31641-423.8457 38.31641-153.90834 0-308.07597-13.06815-423.84568-38.31641-57.88486-12.62413-106.19322-28.49826-138.77149-45.66601-25.99925-13.70082-39.61016-27.31345-45.17968-37.4961 5.56919-10.18274 19.17961-23.79485 45.17968-37.49609 32.57827-17.16775 80.88663-33.04384 138.77149-45.66797 115.76971-25.24826 269.93734-38.31445 423.84568-38.31445zm-609.93943 212.64257c4.76495 2.85244 9.66013 5.6105 14.6875 8.25977 41.65702 21.95198 94.79245 38.67517 156.49023 52.13086 123.39557 26.91138 280.94904 39.92383 438.7617 39.92383 157.8127 0 315.3662-13.01245 438.7617-39.92383 61.6978-13.45569 114.8333-30.17888 156.4903-52.13086 5.0273-2.64927 9.9225-5.40733 14.6875-8.25977v82.0625c-3.4205 10.40901-16.9417 26.30677-47.3223 42.31641-32.5783 17.16775-80.8866 33.04189-138.7715 45.66602-115.7697 25.24825-269.9373 38.3164-423.8457 38.3164-153.90834 0-308.07597-13.06815-423.84568-38.3164-57.88486-12.62413-106.19322-28.49827-138.77149-45.66602-30.38057-16.00964-43.90182-31.9074-47.32226-42.31641zm0 178.04688c4.76495 2.85243 9.66013 5.61049 14.6875 8.25976 41.65702 21.95198 94.79245 38.67517 156.49023 52.130864 123.39557 26.911384 280.94904 39.923828 438.7617 39.923828 157.8127 0 315.3662-13.012444 438.7617-39.923828 61.6978-13.455694 114.8333-30.178884 156.4903-52.130864 5.0273-2.64927 9.9225-5.40733 14.6875-8.25976v82.062499c-3.4205 10.409002-16.9417 26.306769-47.3223 42.316406-32.5783 17.1677511-80.8866 33.0418872-138.7715 45.666016-115.7697 25.248256-269.9373 38.316406-423.8457 38.316406-153.90834 0-308.07597-13.06815-423.84568-38.316406-57.88486-12.6241288-106.19322-28.4982648-138.77149-45.666016-30.38057-16.009637-43.90182-31.907403-47.32226-42.316406zm0 178.048827c4.76494 2.852428 9.66014 5.608546 14.6875 8.257812 41.65702 21.951979 94.79245 38.675168 156.49023 52.13086 123.39557 26.911381 280.94904 39.923831 438.7617 39.923831 157.8127 0 315.3662-13.01245 438.7617-39.923831 61.6978-13.455692 114.8333-30.178881 156.4903-52.13086 5.0273-2.649266 9.9225-5.405384 14.6875-8.257812v486.792973c-3.4205 10.409-16.9417 26.30676-47.3223 42.3164-32.5783 17.16775-80.8866 33.04384-138.7715 45.66797-115.7697 25.24826-269.9373 38.31445-423.8457 38.31445-153.90834 0-308.07597-13.06619-423.84568-38.31445-57.88486-12.62413-106.19322-28.50022-138.77149-45.66797-30.38057-16.00964-43.90182-31.9074-47.32226-42.3164z" transform="translate(0 947.63784)"/></svg>