<svg height="2048" width="2048" xmlns="http://www.w3.org/2000/svg"><path d="m1005.3027 98.988281c-447.58897.377086-859.06304 373.342199-901.29098 819.482309-45.313319 379.98791 168.53512 777.15461 517.56731 938.55881 324.13685 158.4229 740.17577 108.2876 1009.00967-135.6475 273.5264-236.6901 393.0417-640.1297 272.8932-984.32084-114.2578-351.14849-451.4607-619.98046-822.8422-636.25127-25.0784-1.639259-50.2131-1.947049-75.337-1.821509zm18.334 289.732419c329.6279-9.58811 631.8249 281.13767 635.693 610.89787 14.2549 301.67313-212.3842 597.90793-513.0172 648.48463-290.91361 58.275-613.56325-109.8546-715.39036-392.2817-109.622-279.28988 2.21735-632.47813 269.04449-779.06589 97.55974-57.28345 210.50789-88.17582 323.67007-88.03491zm103.0137 235.2793v205.74414c-154.2168 0-308.4336 0-462.6504 0v388.53126h462.6504v205.7246c112.4499-133.3314 224.8997-266.6627 337.3496-399.9941-112.4499-133.3353-224.8997-266.6706-337.3496-400.0059z"/></svg>