<svg height="2048" width="2048" xmlns="http://www.w3.org/2000/svg"><path d="m1005.3027 98.988281c-447.58897.377086-859.06304 373.342199-901.29098 819.482309-45.313319 379.98791 168.53512 777.15461 517.56731 938.55881 324.13685 158.4229 740.17577 108.2876 1009.00967-135.6475 273.5264-236.6901 393.0417-640.1297 272.8932-984.32084-114.2578-351.14849-451.4607-619.98046-822.8422-636.25127-25.0784-1.639259-50.2131-1.947049-75.337-1.821509zm18.334 289.732419c329.6279-9.58811 631.8249 281.13767 635.693 610.89787 14.2549 301.67313-212.3842 597.90793-513.0172 648.48463-290.91361 58.275-613.56325-109.8546-715.39036-392.2817-109.622-279.28988 2.21735-632.47813 269.04449-779.06589 97.55974-57.28345 210.50789-88.17582 323.67007-88.03491zm-32.36131 332.45313c-142.92448 100.90949-285.84896 201.81898-428.77344 302.72847 142.93434 100.9607 285.84746 201.9514 428.77344 302.9239 0-97.5716 0-195.1433 0-292.7149 138.01701 97.6523 276.15791 195.1299 414.22261 292.7149 0-201.8841 0-403.76825 0-605.65237-138.0742 97.51042-276.1484 195.02085-414.22261 292.53127 0-97.51042 0-195.02085 0-292.53127z"/></svg>