<svg height="2048" width="2048" xmlns="http://www.w3.org/2000/svg"><path d="m4.883559 1034.1379c-1.1907187.013-2.3896097.9029-2.6984029 2.127-.2265963.8482-.087227 1.7457-.1261672 2.6157v1.4909h1.0411058c.018927-1.1897-.03906-2.3836.031231-3.5706.1200405-.9597 1.001557-1.6827 1.9063746-1.6312h4.5682483v-1.0354c-1.5740848 0-3.1485086-.01-4.7223898 0zm6.678926 1.032h.979092v-1.0355h-.979092zm2.935629 0c.645623-.035 1.356972.023 1.83768.5383.528323.5013.61246 1.2867.572135 1.9948v3.2195h1.060129c-.01571-1.3653.03162-2.7337-.02401-4.097-.0868-1.3989-1.33605-2.607-2.66038-2.6705-.260578-.033-.523787-.01-.785595-.017.000015.344.000029.6879.000045 1.0318zm-12.4391251 8.3044h1.0411059v-1.0337h-1.0411059zm14.8489441.5526h1.060129v-1.0355h-1.060129zm-14.8489441 3.441c.00191 1.131.7105119 2.2267 1.6897946 2.6933.8814582.4349 1.8776012.2284 2.8160937.277.2190732-.057.6583338.1181.7317986-.093v-.9422c-.9116703-.022-1.8277671.048-2.7361839-.042-.8523602-.1802-1.4891334-1.0443-1.460397-1.9607v-1.8586h-1.041106v1.9264zm14.8489441-.035c.01986 1.0004-.769625 1.9317-1.725291 1.9599-.996645.031-1.996073.01-2.993798.013v1.0355c1.07996-.021 2.163734.041 3.241203-.032 1.287481-.1348 2.457876-1.3485 2.519827-2.7152.04081-.5298.0073-1.0634.01823-1.5947h-1.060129l-.000045 1.3333zm-7.654721 3.0087h.979092v-1.0355h-.979092z" transform="matrix(96.752895 0 0 96.752895 55.328158 -99820.70216999998)"/></svg>