<svg height="2048" width="2048" xmlns="http://www.w3.org/2000/svg"><path d="m1022.25-896.28431c-450.27718-9.21985-870.44899 360.94206-917.28663 809.18882-49.497461 379.09836 158.62881 778.96426 505.84634 944.17596 327.86485 164.75003 753.01379 115.1334 1024.92749-134.8932 274.5927-240.8284 389.3184-650.6203 262.2807-995.77136-116.801-340.19468-443.4762-599.2818-804.7969-620.00932-23.6123-1.78321-47.2915-2.6765-70.971-2.6909zm-10.4824 99.75976c412.893-15.54892 800.9522 328.74882 833.3068 741.03156 39.7358 363.60536-189.0399 740.29246-537.1885 860.12606-338.43232 125.1412-753.85656 3.4449-958.25708-297.5355-209.78772-293.8576-201.45565-727.62045 36.58034-1003.30796 152.35171-183.51465 386.11482-299.42096 625.55844-300.31416zm16.3965 89.92383c-381.95292-12.1471-733.34925 323.17969-740.24957 705.15368-16.83775 345.16801 238.97874 683.90321 580.72025 749.64161 316.64342 69.3173 670.44282-93.3594 811.71582-387.8808 146.1076-287.645 80.7642-670.44083-168.5252-880.55738-132.0887-117.00393-306.8046-186.15839-483.6613-186.35711zm-4.4942 98.04883c336.7078-8.91613 643.3673 294.1083 637.9672 631.14646 5.9519 311.5733-244.8213 607.6963-557.6586 639.1099-293.71508 38.5646-603.39407-149.7694-687.83742-437.1041-88.51436-273.76654 27.77622-603.49594 282.86364-744.45367 97.80337-57.62292 211.09884-88.87892 324.66518-88.69859zm-228.94724 228.41211c-59.74154 59.74154-119.48307 119.48307-179.22461 179.22461 76.87695 76.87761 153.75391 153.75523 230.63086 230.63284-75.48828 75.4889-150.97657 150.9779-226.46485 226.4668 58.79362 58.7936 117.58724 117.5872 176.38086 176.3808 75.48893-75.4889 150.97785-150.9779 226.46678-226.4668 76.9219 76.9219 153.8437 153.8438 230.7656 230.7657 59.7416-59.7416 119.4831-119.4831 179.2247-179.2247-76.9219-76.9219-153.8438-153.8437-230.7657-230.7656 75.4909-75.49153 150.9818-150.98306 226.4727-226.47459-58.7936-58.79362-117.5873-117.58724-176.3809-176.38086-75.4909 75.49089-150.9817 150.98177-226.4726 226.47266-76.87761-76.87695-153.75523-153.75391-230.63284-230.63086zm-.12696 70.67968c76.92187 76.92188 153.84373 153.84375 230.7656 230.76563 75.4888-75.48842 150.9779-150.97654 226.4668-226.46484 35.2318 35.23177 70.4635 70.46354 105.6953 105.69531-75.4889 75.48829-150.9779 150.97658-226.4668 226.46487 76.8776 76.8776 153.7553 153.7552 230.6329 230.6328-36.1367 36.1367-72.2735 72.2734-108.4102 108.4101-76.877-76.8776-153.7539-153.7552-230.6309-230.6328-75.48892 75.4889-150.97784 150.9779-226.46676 226.4668-35.23177-35.2318-70.46354-70.4635-105.69531-105.6953 75.48893-75.4889 150.97786-150.9779 226.46679-226.4668-76.92187-76.92187-153.84375-153.84374-230.76562-230.76561 36.13607-36.13672 72.27213-72.27344 108.4082-108.41016z" transform="translate(0 995.63783)"/></svg>