<svg height="2048" width="2048" xmlns="http://www.w3.org/2000/svg"><path d="m1024.0009-404.76184c-131.15554 235.41602-262.31114 470.832011-393.4667 706.24802h786.9316c-131.155-235.416007-262.3099-470.83201-393.4649-706.24802zm0 102.7344c102.791 184.50454 205.5821 369.009087 308.3731 553.51363-205.582 0-411.16407 0-616.7461 0 102.791-184.504543 205.582-369.00909 308.373-553.51363zm-.0009-594.61625c-83.78988 1.20119-169.45072 9.07958-248.85611 36.31197-49.26944 25.85441-14.76006 107.77605 38.22525 91.03094 130.38482-35.16185 268.80196-35.0931 400.33006-6.22266 54.0027 4.35325 71.0003-79.58849 19.5586-96.58594-68.2022-17.12262-139.0057-24.21163-209.2578-24.53431zm521.2148 169.69922c-52.7883-6.0468-73.5898 72.75739-26.249 95.29294 106.0256 78.63308 190.413 184.20952 249.2881 301.9512 30.3685 44.8674 106.5059 5.64961 87.6074-45.125-65.7223-137.9785-167.4773-259.66341-292.7011-347.38867-5.753-2.55325-11.7045-4.02819-17.9454-4.73047zm-1062.68746 19.88867c-44.071 5.12762-71.72232 46.79379-104.42578 73.26367-84.68538 83.2287-155.11942 182.28036-200.91601 292.01368-15.38848 51.9467 63.2537 85.87734 90.48242 39.03906 55.8185-125.49434 142.71651-236.23244 250.22656-321.54492 27.5132-29.77719 5.19274-82.0533-35.36719-82.77149zm541.47266.41211c-40.39962 3.82693-97.70492-9.30689-117.63086 36.71766-16.27706 42.38443 30.98259 78.53231 70.38672 65.04297 104.48954-8.45728 210.02494 11.75234 306.18394 52.47269 52.1299 14.75388 85.0969-64.29404 37.9316-90.95117-92.5542-42.53977-195.1604-62.98334-296.8714-63.28215zm-316.89844 78.92969c-48.31722 8.7324-87.73961 43.94882-127.85351 70.90234-69.57303 54.34452-134.05396 119.2317-176.76955 196.80187-19.13584 52.24698 61.45167 89.75826 89.46095 41.76645 60.43069-95.75246 150.1097-169.15066 247.80099-223.95827 31.52283-28.85276 9.92852-84.6267-32.63888-85.51239zm804.09764 122.34765c-50.5915-4.03263-70.5901 67.83057-28.9999 94.10526 76.6621 77.52258 126.5895 177.05656 158.9494 279.92681 27.0499 48.623515 108.1 12.12153 90.0701-40.43832-34.9282-122.4711-101.2853-236.9675-193.8318-324.77148-7.8386-5.19677-16.8181-8.18938-26.1878-8.82227zm-1154.94334 350.25196c-47.53885-4.04847-57.59995 47.79457-60.5197 84.18164-14.81424 111.576305-5.41969 227.41789 32.49621 333.61722 23.49906 48.81602 104.54341 21.12024 93.25-31.8672-35.51111-107.95663-41.38248-224.553278-19.32031-335.87307.35989-25.4467-20.52687-48.21831-45.9062-50.05859zm1543.47854 92.55468c-43.1217-2.148609-58.6389 45.403443-50.7989 80.65628 2.4567 138.39453-32.9994 275.95865-96.0156 398.748-17.9017 51.13519 58.9912 88.85816 88.4725 43.4043 78.9482-147.27424 116.5971-317.44771 105.3231-484.24022-5.0041-21.569674-24.8406-37.864478-46.9811-38.56836zm-1746.50588 33.03516c-45.22139-4.235294-60.350543 44.81586-53.935387 81.15822 3.906127 139.6622 38.233007 279.52892 104.603997 402.709 30.91138 44.49342 106.56595 4.3497 87.04883-46.1895-62.57939-122.31421-93.86383-259.58132-92.70701-396.8281-3.92936-21.789793-22.93313-39.048376-45.01043-40.84962zm1549.29488 117.00972c-44.9401-2.730002-55.0761 46.13947-59.0685 80.543-20.4365 97.85383-69.5282 186.89467-128.1506 266.51349-23.5512 50.41105 53.5178 94.70491 85.5451 49.29511 78.7724-100.25687 132.8272-221.35612 149.3945-348.0176-.5787-25.44279-22.2894-47.431331-47.7205-48.334zm-1208.04684 328.8125c-46.71363 1.06428-62.6021 64.90495-27.15625 91.9903 80.51151 92.93227 184.32566 166.92516 300.39649 208.1269 52.6356 12.83461 82.6897-67.36274 34.58203-92.2793-106.17179-40.49241-200.66646-109.07023-273.18164-196.4277-9.76015-7.85841-22.12585-11.92083-34.64063-11.4102zm870.86524 156.1543c-46.8818 11.24408-86.9802 43.97304-134.4902 56.2696-69.5639 26.4521-144.5443 30.99293-217.3575 38.373-50.24319 17.78576-33.12562 99.95065 20.0293 96.1992 127.3165-1.95157 255.1758-36.19204 363.9414-102.8424 34.95-28.6175 13.137-88.60579-32.123-87.9994zm-900.39649 81.3164c-48.17843.50254-64.18179 70.46722-22.88527 93.57826 114.85562 92.60977 252.0818 158.96128 397.2134 186.57604 54.00224 4.35471 71.00025-79.59104 19.55664-96.5839-134.4265-28.36427-260.98988-90.06669-366.95313-177.3789-8.3141-4.39792-17.53847-6.49005-26.93164-6.1915zm1110.89449 5.045c-44.2716 5.22655-71.7773 48.66534-111.1289 66.9687-87.7032 57.36318-188.0655 91.4026-288.9446 115.98107-50.4752 23.41287-20.0177 106.92327 33.7239 92.79243 147.1305-30.43017 288.0365-96.03634 402.7344-193.4141 27.1447-30.11203 4.1794-82.11199-36.3848-82.3281z" transform="translate(0 995.63783)"/></svg>