<svg height="2048" width="2048" xmlns="http://www.w3.org/2000/svg"><path d="m1022.25-896.28431c-450.27718-9.21985-870.44899 360.94206-917.28663 809.18882-49.497461 379.09836 158.62881 778.96426 505.84634 944.17596 327.86485 164.75003 753.01379 115.1334 1024.92749-134.8932 274.5927-240.8284 389.3184-650.6203 262.2807-995.77136-116.801-340.19468-443.4762-599.2818-804.7969-620.00932-23.6123-1.78321-47.2915-2.6765-70.971-2.6909zm-10.4824 99.75976c412.893-15.54892 800.9522 328.74882 833.3068 741.03156 39.7358 363.60536-189.0399 740.29246-537.1885 860.12606-338.43232 125.1412-753.85656 3.4449-958.25708-297.5355-209.78772-293.8576-201.45565-727.62045 36.58034-1003.30796 152.35171-183.51465 386.11482-299.42096 625.55844-300.31416zm16.3965 89.92383c-381.95292-12.1471-733.34925 323.17969-740.24957 705.15368-16.83775 345.16801 238.97874 683.90321 580.72025 749.64161 316.64342 69.3173 670.44282-93.3594 811.71582-387.8808 146.1076-287.645 80.7642-670.44083-168.5252-880.55738-132.0887-117.00393-306.8046-186.15839-483.6613-186.35711zm-4.4942 98.04883c336.7078-8.91613 643.3673 294.1083 637.9672 631.14646 5.9519 311.5733-244.8213 607.6963-557.6586 639.1099-293.71508 38.5646-603.39407-149.7694-687.83742-437.1041-88.51436-273.76654 27.77622-603.49594 282.86364-744.45367 97.80337-57.62292 211.09884-88.87892 324.66518-88.69859zm-124.48435 189.90625v320.28125c-108.72136 0-217.44271 0-326.16407 0v253.46286h326.16407v320.2715h249.44145c0-106.7572 0-213.5143 0-320.2715h326.3515c0-84.4876 0-168.97524 0-253.46286-108.7838 0-217.5677 0-326.3515 0 0-106.76042 0-213.52083 0-320.28125-83.1471 0-166.2943 0-249.44145 0zm50.07617 50.07812h149.47658v320.27149h326.1621v153.3164c-108.7207 0-217.4414 0-326.1621 0v320.2695c-49.8255 0-99.65105 0-149.47658 0 0-106.7565 0-213.513 0-320.2695-108.78385 0-217.56771 0-326.35156 0 0-51.1055 0-102.21093 0-153.3164h326.35156c0-106.75716 0-213.51433 0-320.27149z" transform="translate(0 995.63783)"/></svg>