<svg height="2048" width="2048" xmlns="http://www.w3.org/2000/svg"><path d="m1022.25 99.353516c-2.4444-.001486-4.8896.006203-7.334.023437-412.55826-3.38635-800.77038 306.319967-891.40233 708.550777-87.435157 354.29947 56.64784 752.50467 355.00586 964.28707 296.55573 219.1937 725.95127 237.529 1036.41997 36.0508 305.0591-189.5873 481.9825-565.0961 423.873-920.97263-52.3028-361.10115-335.0078-676.96887-691.4883-760.44727-73.525-18.39907-149.2974-27.446124-225.0742-27.492184zm-10.4824 99.759764c6.6906-.02641 13.3855.03571 20.084.18945 383.3603-3.87012 741.9823 297.90334 803.7617 676.42969 65.3962 341.93438-110.4323 714.48168-420.2031 875.89458-316.7147 174.3003-744.48179 109.0209-990.39653-157.7461-252.12274-260.217-301.10583-691.75431-106.81836-999.08988 144.23074-237.98 414.79699-394.57731 693.57229-395.67774zm16.3965 89.92383c-6.7669-.00917-13.5385.08219-20.3106.27539-353.00047 0-676.46898 292.14597-714.39061 643.10742-45.15482 328.88248 161.72985 671.90008 475.56641 782.31448 297.3222 112.3591 660.5507 5.8058 846.1445-253.4629 200.2793-265.2191 188.7604-667.6435-34.5058-916.04689-136.5107-158.93688-342.7301-255.90318-552.5039-256.1875zm-4.4942 98.04883c4.5118.00676 9.0229.06379 13.5352.16992 312.4619 0 597.2112 263.66167 621.0566 575.30273 32.5756 296.85721-171.1472 599.68241-461.2187 675.70121-279.55714 81.5433-605.01688-54.0835-737.46488-315.0938-142.55534-263.7967-69.4515-624.64691 174.34961-803.33983 110.66779-85.56554 249.87637-132.94979 389.74217-132.74023zm-7.959 197.86328c-171.52853 1.21202-335.10028 113.88462-398.31832 273.28516-65.7902 155.80082-29.41908 347.56962 88.88476 468.44142 115.0263 123.8297 304.55446 169.4641 463.30666 111.4277 166.3595-56.6747 288.5728-221.2307 292.9765-397.1894 8.8625-170.94524-93.8743-339.96924-248.5585-412.56644-59.0266-28.5789-124.5452-43.4576-190.1172-43.3711-2.7264-.03718-5.4512-.04658-8.1739-.02734zm15.6426 79.97266c156.7062.70105 303.7146 116.51969 340.2578 269.17578 40.6988 149.01854-27.8705 318.93594-161.3613 397.01564-136.3004 85.5433-328.47043 62.7447-440.39453-53.1094-118.11394-113.9435-139.14739-311.08537-48.53125-447.73437 64.1785-101.9465 182.05033-166.46657 302.56058-165.29297 2.4918-.04719 4.9813-.06581 7.4687-.05468zm105.9512 102.07226c-39.9674 72.5091-79.935 145.01824-119.9024 217.52734-37.03238 3.9378-45.82999 60.12112-11.6621 75.10552 22.5699 15.6663 40.2472-10.3922 60.793-9.4942h183.293v-50h-183.9375c38.4017-69.66799 76.8034-139.33589 115.2051-209.00389-14.5964-8.0449-29.1927-16.08987-43.7891-24.13477z"/></svg>