<svg height="2048" width="2048" xmlns="http://www.w3.org/2000/svg"><path d="m9.9937272 1032.7346c-4.6538895-.095-8.99662121 3.7306-9.48071689 8.3635-.51158625 3.9182 1.63952539 8.051 5.22823049 9.7586 3.3886833 1.7028 7.7828562 1.19 10.5932512-1.3942 2.838084-2.4891 4.023843-6.7246 2.710831-10.2919-1.20721-3.5161-4.583591-6.194-8.318067-6.4082-.244049-.018-.488788-.028-.7335288-.028zm-.108342 1.0311c4.2674948-.1607 8.2783328 3.3978 8.6127338 7.659.410694 3.7581-1.953842 7.6514-5.552171 8.8899-3.497904 1.2934-7.7915669.036-9.904171-3.0752-2.16828429-3.0372-2.08216685-7.5204.37808-10.3698 1.574648-1.8967 3.9907323-3.0947 6.4655282-3.1039zm.1694678.9294c-3.9477165-.1256-7.5796118 3.3403-7.6509309 7.2882-.1740284 3.5675 2.4699914 7.0685 6.0020981 7.748 3.2727028.7164 6.9294358-.9649 8.3895778-4.009 1.510113-2.973.834747-6.9294-1.74181-9.1011-1.365218-1.2093-3.171013-1.9241-4.998935-1.9261zm-.04645 1.0134c3.480081-.092 6.649592 3.0398 6.59378 6.5233.06151 3.2203-2.53037 6.2809-5.763742 6.6056-3.035732.3986-6.2364618-1.548-7.1092386-4.5178-.9148439-2.8295.2871045-6.2375 2.9235876-7.6944 1.0108587-.5955 2.1818378-.9186 3.355613-.9167zm-4.3336689 3.2749v6.6158h8.6741609c0-2.2052 0-4.4105 0-6.6158-2.891387 0-5.782774 0-8.6741609 0zm1.9269049 1.0336h4.819644c-.853685.5254-1.707454 1.6785-2.561032 1.8044-.7528441-.6015-1.5057273-1.2029-2.258612-1.8044zm5.714946.6085v3.94c-2.203181 0-4.4063608 0-6.6095414 0 0-1.3132 0-2.6265 0-3.9397 1.1012601.8801 2.2024726 1.7602 3.3037814 2.6402 1.101963-.8801 2.203846-1.7603 3.30576-2.6405z" transform="matrix(96.752895 0 0 96.752895 55.328158 -99820.70216999998)"/></svg>