<svg height="2048" width="2048" xmlns="http://www.w3.org/2000/svg"><path d="m9.9937272 1032.7346c-4.6538895-.095-8.99662121 3.7306-9.48071689 8.3635-.51158625 3.9182 1.63952539 8.051 5.22823049 9.7586 3.3886833 1.7028 7.7828562 1.19 10.5932512-1.3942 2.838084-2.4891 4.023843-6.7246 2.710831-10.2919-1.20721-3.5161-4.583591-6.194-8.318067-6.4082-.244049-.018-.488788-.028-.7335288-.028zm-.108342 1.0311c4.2674948-.1607 8.2783328 3.3978 8.6127338 7.659.410694 3.7581-1.953842 7.6514-5.552171 8.8899-3.497904 1.2934-7.7915669.036-9.904171-3.0752-2.16828429-3.0372-2.08216685-7.5204.37808-10.3698 1.574648-1.8967 3.9907323-3.0947 6.4655282-3.1039zm.1694678.9294c-3.9477165-.1256-7.5796118 3.3403-7.6509309 7.2882-.1740284 3.5675 2.4699914 7.0685 6.0020981 7.748 3.2727028.7164 6.9294358-.9649 8.3895778-4.009 1.510113-2.973.834747-6.9294-1.74181-9.1011-1.365218-1.2093-3.171013-1.9241-4.998935-1.9261zm-.04645 1.0134c3.480081-.092 6.649592 3.0398 6.59378 6.5233.06151 3.2203-2.53037 6.2809-5.763742 6.6056-3.035732.3986-6.2364618-1.548-7.1092386-4.5178-.9148439-2.8295.2871045-6.2375 2.9235876-7.6944 1.0108587-.5955 2.1818378-.9186 3.355613-.9167zm.0034 1.8384c-1.5192914 1.1028-3.0385456 2.2058-4.5578227 3.3086.5803082 1.7845 1.1606164 3.569 1.7409245 5.3535h5.6337552c.580308-1.7845 1.160617-3.569 1.740925-5.3535-1.51926-1.1029-3.038522-2.2057-4.557782-3.3086zm-.000041.6384c1.31668.9559 2.63336 1.9117 3.950041 2.8675-.50292 1.5466-1.005838 3.0932-1.508758 4.6397-1.627508 0-3.2550169 0-4.8825255 0-.5029189-1.5465-1.0058379-3.0931-1.5087568-4.6397 1.3166664-.9558 2.6333327-1.9116 3.9499993-2.8675z" transform="matrix(96.752895 0 0 96.752895 55.328158 -99820.70216999998)"/></svg>