<svg height="2048" width="2048" xmlns="http://www.w3.org/2000/svg"><path d="m9.9937272 1032.7346c-4.6538895-.095-8.99662121 3.7306-9.48071689 8.3635-.51158625 3.9182 1.63952539 8.051 5.22823049 9.7586 3.3886833 1.7028 7.7828562 1.19 10.5932512-1.3942 2.838084-2.4891 4.023843-6.7246 2.710831-10.2919-1.20721-3.5161-4.583591-6.194-8.318067-6.4082-.244049-.018-.488788-.028-.7335288-.028zm-.108342 1.0311c4.2674948-.1607 8.2783328 3.3978 8.6127338 7.659.410694 3.7581-1.953842 7.6514-5.552171 8.8899-3.497904 1.2934-7.7915669.036-9.904171-3.0752-2.16828429-3.0372-2.08216685-7.5204.37808-10.3698 1.574648-1.8967 3.9907323-3.0947 6.4655282-3.1039zm.1694678.9294c-3.9477165-.1256-7.5796118 3.3403-7.6509309 7.2882-.1740284 3.5675 2.4699914 7.0685 6.0020981 7.748 3.2727028.7164 6.9294358-.9649 8.3895778-4.009 1.510113-2.973.834747-6.9294-1.74181-9.1011-1.365218-1.2093-3.171013-1.9241-4.998935-1.9261zm-.04645 1.0134c3.480081-.092 6.649592 3.0398 6.59378 6.5233.06151 3.2203-2.53037 6.2809-5.763742 6.6056-3.035732.3986-6.2364618-1.548-7.1092386-4.5178-.9148439-2.8295.2871045-6.2375 2.9235876-7.6944 1.0108587-.5955 2.1818378-.9186 3.355613-.9167zm-3.5357275 3.2754c1.2045832.9772 2.4091665 1.9544 3.6137495 2.9316 1.204583-.9772 2.409166-1.9544 3.613749-2.9316-2.409167 0-4.8183323 0-7.2274985 0zm-.8018374.6803v5.9346h8.6819529c0-1.9379 0-3.8757 0-5.8136-1.422122 1.1538-2.844244 2.3075-4.266366 3.4613-1.4718622-1.1941-2.9437245-2.3882-4.4155869-3.5823z" transform="matrix(96.752895 0 0 96.752895 55.328158 -99820.70216999998)"/></svg>