<svg height="2048" width="2048" xmlns="http://www.w3.org/2000/svg"><path d="m604.37592-291.68665v640.09764h839.24818v-640.09764zm186.4336 100.00394h466.31258c-77.7388 62.067-155.4779 124.1343-233.2169 186.2109-77.69857-62.0766-155.39708-124.1439-233.09568-186.2109zm552.93568 58.873v381.2168h-639.49228v-381.1875c106.5507 85.1523 213.1016 170.3145 319.65228 255.457 106.6131-85.1522 213.2269-170.3244 319.84-255.4863zm-319.7452-763.83398-.3105.002-10.8711.0684-.3086.002-.3106.006-10.8554.20117-.3106.006-.3105.01-10.83793.33594-.31055.01-.3086.0137-10.82226.46875-.30859.0137-.31055.0176-10.80274.60351-.30859.0176-.30859.0195-10.78516.73633-.30664.0215-.30859.0234-10.76368.86914-.30664.0254-.30859.0274-10.74219 1-.30664.0293-.30664.0312-10.71875 1.13086-.30664.0332-.30469.0351-10.69531 1.26172-.30664.0371-.30469.0391-10.66992 1.39258-.30469.041-.30468.043-10.64258 1.52148-.30469.043-.30469.0488-10.61523 1.65039-.30469.0488-.30273.0508-10.58789 1.77929-.30079.0508-.30273.0547-10.55859 1.91016-.30079.0547-.30078.0586-10.52929 2.03711-.30078.0586-.29883.0606-10.4961 2.16602-.30078.0605-.29883.0664-10.46289 2.29101-.29882.0664-.29688.0684-10.42969 2.41992-.29687.0684-.29688.0723-10.39453 2.54687-.29687.0723-.29688.0762-9.83398 2.53516-8.76758 3.1582-8.03125 4.73047-7.01172 6.13867-5.75195 7.33398-4.29102 8.27344-2.67969 8.92578-.97851 9.26758.75976 9.28906 2.47071 8.98633 4.09375 8.37305 5.57812 7.4668 6.86524 6.30078 7.91797 4.91797 8.6914 3.36328 9.16406 1.69336 9.32032-.0391 7.62109-1.34765 9.5625-2.46485 9.73242-2.38281 9.875-2.29297 9.9043-2.16797 9.94141-2.04882 9.78711-1.89454 10.02539-1.81445 9.84179-1.6543 10.19727-1.58789 9.91601-1.41796 10.09766-1.31641 10.0957-1.19141 10.13868-1.07031 10.15624-.94531 10.15821-.81836 10.1914-.69336 10.19922-.56836 10.22657-.44336 10.07228-.3125 10.25-.18945 10.2617-.0645 10.2617.0645 10.25.18945 10.0723.3125 10.2265.44336 10.1993.56836 10.1914.69336 10.1582.81836 10.1562.94531 10.1387 1.07031 10.0957 1.19141 10.0977 1.31641 9.916 1.41796 10.1972 1.58789 9.8418 1.6543 10.0254 1.81445 9.7871 1.89454 9.9414 2.04882 8.8926 1.94727 9.25 1.13867 9.3008-.59961 9.0273-2.31445 8.4415-3.95117 7.5624-5.44727 6.418-6.75586 5.0547-7.83203 3.5117-8.63086 1.8496-9.13476.1231-9.32032-1.6094-9.17968-3.2851-8.72071-4.8458-7.96094-6.2402-6.92187-7.416-5.64648-8.334-4.16993-7.4082-2.23632-9.1523-2.00391-.2989-.0664-.3007-.0605-10.4961-2.16602-.2989-.0606-.3007-.0586-10.5293-2.03711-.3008-.0586-.3008-.0547-10.5586-1.91016-.3027-.0547-.3008-.0508-10.5879-1.77929-.3027-.0508-.3047-.0488-10.6153-1.65039-.3046-.0488-.3047-.043-10.6426-1.52148-.3047-.043-.3047-.041-10.6699-1.39258-.3047-.0391-.3066-.0371-10.6954-1.26172-.3046-.0351-.3067-.0332-10.7187-1.13086-.3067-.0312-.3066-.0293-10.7422-1-.3086-.0274-.3066-.0254-10.7637-.86914-.3086-.0234-.3066-.0215-10.7852-.73633-.3086-.0195-.3086-.0176-10.8027-.60351-.3106-.0176-.3086-.0137-10.8222-.46875-.3086-.0137-.3106-.01-10.8379-.33594-.3105-.01-.3106-.006-10.8554-.20117-.3106-.006-.3086-.002-10.8711-.0684-.3105-.002zm521.2148 169.69922-9.3183.20703-9.1172 1.93359-8.5996 3.5918-7.7832 5.125-6.6973 6.48047-5.3789 7.61133-3.873 8.47851-2.2325 9.04688-.5136 9.30664 1.2226 9.23828 2.9141 8.85352 4.5078 8.15625 5.9434 7.17968 5.875 5.03516 2.6347 1.92578 8.1778 6.12891 7.9043 6.08008 8.1113 6.40039 7.8633 6.36132 7.791 6.4629 7.793 6.63085 7.7324 6.7461 7.4765 6.6875 7.6504 7.01172 7.4102 6.96484 7.3281 7.06055 7.3262 7.23437 7.1601 7.25 7.1368 7.40625 7.0332 7.48438 6.7949 7.41015 6.8379 7.64453 6.7402 7.72657 6.5547 7.70312 6.541 7.88477 6.3652 7.86523 6.2598 7.9336 6.291 8.17968 6.0586 8.08008 5.9512 8.14453 5.8457 8.21094 5.748 8.28125 5.711 8.45117 5.5351 8.41406 5.4278 8.47071 5.3886 8.64258 5.2813 8.70703 5.0664 8.58984 5.002 8.7207 4.8886 8.76563 4.8457 8.94922 4.6387 8.81836 4.5625 8.93945 2.3301 4.69922 4.8945 7.93164 6.2832 6.88281 7.4512 5.59766 8.3613 4.11914 8.9785 2.49609 9.2871.78516 9.2715-.95313 8.9336-2.65429 8.2852-4.26758 7.3476-5.73242 6.1582-6.99414 4.7539-8.01758 3.1817-8.75977 1.5019-9.19726-.2304-9.31836-1.9571-9.11133-2.8867-7.17969-2.4199-4.88867-.1367-.27344-.1387-.27148-4.8535-9.51172-.1387-.27148-.1426-.26954-4.9726-9.45312-.1407-.27148-.1464-.26758-5.0879-9.39453-.1465-.26954-.1484-.26562-5.2032-9.33594-.1504-.26562-.1504-.26563-5.3203-9.27539-.1523-.26367-.1563-.26367-5.4336-9.21289-.1562-.26172-.1582-.26172-5.5488-9.14844-.1602-.26172-.1601-.25976-5.6641-9.08399-.1621-.25976-.166-.25781-5.7774-9.01954-.164-.25781-.17-.25586-5.8906-8.95312-.168-.25586-.1718-.25391-6.002-8.88476-.1719-.25391-.1757-.25195-6.1153-8.81641-.1758-.25195-.1777-.25-6.2266-8.74414-.1796-.25196-.1797-.24609-6.3399-8.67578-.1816-.24805-.1836-.24609-6.4492-8.60157-.1856-.24609-.1875-.24414-6.5605-8.5293-.1875-.24414-.1895-.24218-6.6699-8.45508-.1914-.24024-.1934-.24023-6.7812-8.37891-.1934-.24023-.1972-.23633-6.8887-8.30273-.1973-.23829-.1992-.23437-6.998-8.22461-.1993-.23633-.2031-.23242-7.1055-8.14648-.2031-.23243-.2051-.23047-7.2148-8.0664-.2051-.23047-.209-.22656-7.3203-7.98438-.209-.22851-.2128-.22657-7.4278-7.90234-.2109-.22461-.2149-.22461-7.5332-7.81836-.2148-.22265-.2188-.22071-7.6386-7.73437-.2188-.2207-.2207-.21876-7.7344-7.63867-.2207-.21875-.2226-.21484-7.8203-7.5332-.2227-.21485-.2246-.21289-7.9043-7.42578-.2246-.21289-.2285-.20898-7.9844-7.32032-.2285-.20898-.2305-.20703-8.0664-7.21289-.2285-.20508-.2344-.20313-8.1445-7.10546-.2344-.20313-.2344-.20117-8.2246-6.9961-.2343-.20117-.2383-.19726-8.3028-6.88867-.2363-.19532-.2402-.19531-8.3789-6.7793-.2403-.19336-.2421-.1914-8.4551-6.66992-.2403-.19141-.2441-.1875-8.5293-6.56055-.2441-.1875-.2461-.18359-8.6016-6.44922-.2461-.18555-.248-.17968-2.9082-2.125-8.0039-4.77344-8.752-3.20508zm-1062.68746 19.88867-9.31054.43359-9.06836 2.1504-8.50977 3.79882-6.42773 4.3086-2.33789 1.84375-.24219.1914-.24024.19336-8.3789 6.7793-.24024.19531-.23632.19532-8.30274 6.88867-.23828.19726-.23437.20117-8.22461 6.9961-.23438.20117-.23437.20313-8.14453 7.10546-.23438.20313-.22852.20508-8.0664 7.21289-.23047.20703-.22852.20898-7.98437 7.32032-.22852.20898-.22461.21289-7.90429 7.42578-.22461.21289-.22266.21485-7.82031 7.5332-.22266.21484-.2207.21875-7.73438 7.63867-.2207.21876-.21875.2207-7.63867 7.73437-.21875.22071-.21484.22265-7.53321 7.81836-.21484.22461-.21094.22461-7.42773 7.90234-.21289.22657-.20899.22851-7.32031 7.98438-.20898.22656-.20508.23047-7.21485 8.0664-.20507.23047-.20313.23243-7.10547 8.14648-.20312.23242-.19922.23633-6.99805 8.22461-.19922.23437-.19726.23829-6.88868 8.30273-.19726.23633-.19336.24023-6.78125 8.37891-.19336.24023-.19141.24024-6.66992 8.45508-.18945.24218-.1875.24414-6.56055 8.5293-.1875.24414-.18555.24609-6.44921 8.60157-.1836.24609-.18164.24805-6.33984 8.67578-.17969.24609-.17969.25196-6.22656 8.74414-.17773.25-.17578.25195-6.11524 8.81641-.17578.25195-.17188.25391-6.00195 8.88476-.17187.25391-.16797.25586-5.89063 8.95312-.16992.25586-.16406.25781-5.77735 9.01954-.16601.25781-.16211.25976-5.66406 9.08399-.16016.25976-.16016.26172-5.54882 9.14844-.15821.26172-.15625.26172-5.43359 9.21289-.15625.26367-.15234.26367-5.32032 9.27539-.15039.26563-.15039.26562-5.20312 9.33594-.14844.26562-.14649.26954-5.08789 9.39453-.14648.26758-.14063.27148-4.97265 9.45312-.14258.26954-.13867.27148-4.85352 9.51172-.13867.27148-.13672.27344-4.73633 9.56836-.13671.27344-.13086.27539-4.6211 9.62305-.13086.27539-.1289.27539-4.50196 9.67773-.12695.27734-.12695.27735-2.59961 5.77539-3.01953 8.81641-1.33008 9.2246.40625 9.3125 2.125 9.07227 3.77344 8.52344 5.28906 7.67383 6.62109 6.55859 7.72461 5.21484 8.55664 3.69141 9.09375 2.04102 9.31446.3164 9.21093-1.41797 8.78907-3.10156 8.06054-4.67969 7.05078-6.09375 5.79688-7.29687 3.71484-6.78906 2.47461-5.4961 4.28906-9.21875 4.33985-9.03711 4.48633-9.05469 4.56054-8.93554 4.63868-8.81836 4.8457-8.94922 4.88867-8.76563 5.00195-8.7207 5.06641-8.58984 5.28125-8.70703 5.38867-8.64258 5.42774-8.47071 5.53515-8.41406 5.71094-8.45117 5.74805-8.28125 5.8457-8.21094 5.95117-8.14453 6.0586-8.08008 6.29101-8.17968 6.25977-7.9336 6.36523-7.86523 6.54102-7.88477 6.55468-7.70312 6.74024-7.72657 6.83789-7.64453 6.79492-7.41015 7.0332-7.48438 7.13672-7.40625 7.16016-7.25 7.32617-7.23437 7.32813-7.06055 7.41015-6.96484 7.65039-7.01172 7.47656-6.6875 7.73243-6.7461 7.79297-6.63085 7.79101-6.4629 7.86914-6.36718 2.13477-1.68555 6.74609-6.42773 5.4375-7.57032 3.9375-8.44726 2.30078-9.03125.58594-9.30078-1.15039-9.24805-2.84766-8.875-4.44531-8.19141-5.88867-7.22461-7.125-6.00586-8.11719-4.58007-8.82617-2.99219-9.22852-1.30469zm541.47266.41211-.3105.002-8.5098.0527-.3106.002-.3105.006-8.4981.1582-.3085.006-.3106.01-8.48632.26367-.3086.01-.31054.0137-8.47071.36719-.31054.0137-.3086.0156-8.45703.47266-.30859.0176-.30859.0215-8.44336.57617-.30664.0195-.3086.0254-8.42578.67968-.30859.0254-.30664.0274-8.41016.7832-.30664.0293-.30664.0312-2.88281.30468-9.13672 1.83789-8.63672 3.5-7.83789 5.04493-6.76563 6.41015-5.45703 7.55274-3.96289 8.4375-2.32617 9.02344-.61133 9.30078 1.125 9.25195 2.82227 8.88086 4.42187 8.20508 5.86719 7.24023 7.10937 6.02734 8.10352 4.60157 8.81836 3.01758 9.22461 1.33007 7.73633-.21484 2.59375-.27148 7.83593-.73047 7.66602-.61914 7.85352-.53516 7.85546-.43945 7.87306-.34375 7.873-.24414 7.8887-.14649 7.9004-.0488 7.9004.0488 7.8887.14649 7.873.24414 7.8731.34375 7.8554.43945 7.8535.53516 7.6661.61914 7.8261.72851 7.793.82227 7.791.91992 7.7793 1.01367 7.6055 1.08789 7.7441 1.20508 7.7227 1.29688 7.6679 1.38867 7.6836 1.48633 7.5118 1.55078 7.6347 1.67187 7.6446 1.77344 7.4375 1.82031 7.5683 1.95313 7.3945 2.00195 7.461 2.11914 7.5176 2.23633 7.3086 2.26953 7.4179 2.40234 7.2891 2.46094 7.3535 2.58399 7.3691 2.68945 7.2911 2.76367 6.9746 2.74024 7.2695 2.95898 7.1191 2.99805.336.14257.012-.0273 8.5059 2.79492 9.2402 1.21875 9.3047-.51953 9.0468-2.23633 8.4766-3.87695 7.6074-5.38281 6.4786-6.70117 5.121-7.78516 3.586-8.60156 1.9297-9.11914.2031-9.31641-1.5293-9.19336-3.2109-8.75-4.7774-8.00195-6.1777-6.97656-7.3672-5.70899-6.834-3.63281-.2246-.0977-.2793-.12109-.2812-.11914-7.6993-3.24414-.2793-.11719-.2832-.11524-7.7363-3.15039-.2832-.11328-.2832-.11328-7.7754-3.05469-.2832-.11132-.2851-.10743-7.8126-2.96093-.2851-.10742-.2871-.10547-7.8496-2.86524-.2852-.10351-.289-.10157-7.8829-2.76953-.289-.10156-.2891-.0977-7.918-2.67382-.289-.0977-.291-.0937-7.9532-2.57813-.289-.0937-.291-.0898-7.9864-2.48242-.291-.0898-.2929-.0879-8.0176-2.38281-.293-.0879-.293-.082-8.0488-2.28711-.293-.084-.2949-.0801-8.0801-2.18945-.2949-.0781-.2949-.0781-8.1094-2.08984-.2949-.0762-.2969-.0723-8.1367-1.99218-.2969-.0742-.2988-.0684-8.1641-1.89453-.2968-.0684-.2989-.0664-8.1914-1.79297-.2988-.0664-.3008-.0606-8.2168-1.69531-.2988-.0625-.3008-.0586-8.2422-1.59375-.3007-.0586-.3028-.0547-8.2656-1.49414-.3008-.0547-.3027-.0508-8.2891-1.39453-.3027-.0508-.3028-.0469-8.3125-1.29296-.3027-.0488-.3047-.043-8.332-1.19141-.3047-.043-.3047-.041-8.3535-1.08985-.3047-.0391-.3066-.0371-8.3711-.98633-.3067-.0371-.3066-.0312-8.3906-.88672-.3067-.0312-.3066-.0293-8.4102-.7832-.3066-.0274-.3086-.0254-8.4258-.67968-.3086-.0254-.3066-.0195-8.4434-.57617-.3086-.0215-.3086-.0176-8.457-.47266-.3086-.0156-.3105-.0137-8.4707-.36719-.3106-.0137-.3086-.01-8.4863-.26367-.3106-.01-.3085-.006-8.4981-.1582-.3105-.006-.3106-.002-8.5098-.0527-.3105-.002zm-316.89844 78.92969-9.30859.45703-9.06055 2.17969-7.10742 3.06054-3.45898 1.81836-.26954.14258-.26757.14453-7.35547 3.98438-.26953.14453-.26563.14844-7.30859 4.07617-.26758.14844-.26367.15039-7.26172 4.16601-.26367.15235-.26367.15429-7.21094 4.25586-.26367.1543-.26172.1582-7.16211 4.3457-.26172.15821-.25977.16211-7.11133 4.43359-.25976.16211-.25781.16602-7.06055 4.52148-.25781.16602-.25586.16796-7.00781 4.61133-.25586.16797-.25391.17188-6.95703 4.70117-.25391.16992-.25195.17578-6.90039 4.78711-.25195.17578-.25.17774-6.84766 4.875-.25.17773-.24805.18164-6.79101 4.96289-.24805.18164-.24609.1836-6.73438 5.04882-.24609.18555-.24414.1875-6.67774 5.13477-.24219.1875-.24218.1914-6.61914 5.22071-.24219.1914-.23828.19336-6.56055 5.3086-.24023.19336-.23633.19726-6.5 5.39258-.23828.19727-.23438.19921-6.43945 5.47852-.23438.19922-.23242.20312-6.37695 5.5625-.23242.20313-.23047.20703-6.31445 5.64648-.23047.20703-.22852.20899-6.25195 5.73047-.22656.20898-.22657.21094-6.18554 5.81445-.22657.21289-.22265.21485-6.1211 5.89843-.22461.21485-.2207.2168-6.05469 5.98046-.2207.21875-.2168.22071-5.98047 6.05469-.21874.2207-.21485.22265-5.89844 6.1211-.21484.22461-.21094.22461-5.81445 6.1875-.21289.22461-.20899.22851-5.73046 6.25195-.20899.22657-.20703.23047-5.64648 6.31445-.20508.23047-.20313.23242-5.5625 6.37891-.20312.23242-.20117.23437-5.47657 6.43946-.20117.23437-.19726.23828-5.39258 6.5-.19727.23633-.19336.24024-5.30664 6.55859-.19531.24023-.18945.24219-5.22266 6.61914-.18945.24024-.1875.24414-5.13672 6.67773-.1875.24414-.1836.2461-5.05078 6.73437-.18359.24609-.18164.24805-4.96289 6.79102-.17969.24804-.17969.25-4.875 6.84571-.17773.25-.17383.25195-4.78906 6.90234-.17383.25196-.17187.2539-4.69922 6.95508-.17188.25391-.16992.25586-3.91602 5.95312-4.375 8.23047-2.77148 8.89648-1.07227 9.25977.66407 9.29492 2.37695 9.01172 4.00977 8.41406 5.5 7.52149 6.80273 6.37304 7.86523 4.99805 8.65625 3.45313 9.14844 1.78515 9.31836.0566 9.16992-1.67382 8.69727-3.34571 7.92773-4.90234 6.87696-6.28906 4.74218-6.11524 3.7461-5.69141 4.33789-6.41992 4.48828-6.4707 4.42187-6.20898 4.65235-6.37305 4.65039-6.20117 4.8125-6.25586 4.79492-6.08203 4.9668-6.13868 4.96875-5.98632 5.11132-6.00977 5.13282-5.88281 5.25781-5.88281 5.35156-5.83594 5.34961-5.69141 5.43164-5.63672 5.49805-5.56836 5.64648-5.57812 5.71094-5.50195 5.68945-5.34961 5.83008-5.34375 5.90039-5.27539 5.85938-5.11329 6.02148-5.12109 5.98828-4.96875 6.11914-4.95312 6.1211-4.82618 6.1582-4.73632 6.28711-4.7129 6.26172-4.57812 6.3125-4.49414 6.36719-4.41797 6.52148-4.4082 6.46289-4.25196 6.51953-4.17578 6.5625-4.09375 6.65039-4.03515 6.65625-3.92774 6.81641-3.91406 6.74023-3.75781 6.9043-3.73828 3.15235-1.65821 7.80859-5.08789 6.72851-6.44726 5.41407-7.58594 3.91406-8.45898 2.27539-9.03711.55664-9.30274-1.17773-9.24609-2.8711-8.86524-4.46875-8.17968-5.91015-7.20704-7.14258-5.98632-8.13086-4.55469-8.83399-2.96875-9.23242-1.27539zm804.09764 122.34765-9.3086.45118-9.0625 2.16992-8.5039 3.81445-7.6465 5.32813-6.5273 6.65234-5.1777 7.75-3.6485 8.57422-1.9961 9.10351-.2715 9.31641 1.4629 9.20508 3.1465 8.77344 4.7188 8.03515 4.9961 5.91016 5.205 5.27148 5.4317 5.63672 5.3496 5.69141 5.3516 5.83594 5.2578 5.88281 5.1328 5.88281 5.1113 6.00977 4.9688 5.98632 4.9667 6.13868 4.795 6.08203 4.8125 6.25586 4.6504 6.20117 4.6523 6.37305 4.4219 6.20898 4.4883 6.4707 4.3379 6.41797 4.3242 6.57422 4.1699 6.51172 4.0957 6.56836 4.0078 6.60742 3.9902 6.76563 3.8438 6.70117 3.7891 6.79687 3.6757 6.79102 3.5586 6.76562 3.5703 6.99414 3.3926 6.84961 3.3985 7.07813 3.25 6.99023 3.1406 6.9668 3.1347 7.19336 2.9903 7.0957 2.9375 7.2168 2.7969 7.11328 2.7773 7.33203 2.6719 7.31836 2.5332 7.21289 2.4961 7.39063 2.4199 7.46484 2.2676 7.29688 2.2246 7.48437 1.2539 4.41406 3.3711 8.6875 4.9258 7.91211 6.3066 6.86133 7.4727 5.57031 8.375 4.08789 8.9882 2.46094 9.2911.75 9.2675-.98633 8.9219-2.6875 8.2695-4.29883 7.3282-5.75781 6.1328-7.01953 4.7226-8.0332 3.1504-8.77149 1.4668-9.20312-.2656-9.31641-1.5312-7.58594-1.3477-4.73828-.084-.29492-.086-.29101-2.3848-8.01758-.086-.29297-.092-.29102-2.4805-7.98633-.09-.29101-.094-.29102-2.5781-7.95312-.096-.28906-.098-.28907-2.6738-7.91992-.098-.28906-.1015-.28711-2.7696-7.88477-.1015-.2871-.1035-.28711-2.8653-7.84766-.1054-.28711-.1075-.28516-2.9609-7.8125-.1074-.28515-.1113-.28321-3.0567-7.77539-.1113-.2832-.1152-.2832-3.1485-7.73633-.1152-.2832-.1192-.28125-3.2441-7.69727-.1172-.28125-.123-.2793-3.336-7.6582-.123-.2793-.125-.27929-3.4317-7.61719-.125-.27734-.1269-.27735-3.5254-7.57617-.1289-.27539-.1309-.27539-3.6172-7.5332-.1308-.27539-.1367-.27344-3.709-7.49024-.1348-.27343-.1387-.27149-3.8007-7.44531-.1387-.27344-.1426-.26953-3.8926-7.40039-.1406-.26953-.1465-.26953-3.9824-7.35547-.1465-.26758-.1484-.26758-4.0742-7.30664-.1485-.26758-.1523-.26562-4.1641-7.25977-.1523-.26562-.1543-.26172-4.2559-7.21289-.1562-.26367-.1582-.25977-4.3438-7.16211-.1582-.26172-.1621-.25976-4.4336-7.11133-.1621-.25977-.166-.25781-4.5235-7.06055-.164-.25781-.168-.25586-4.6113-7.00976-.1699-.25586-.1719-.25391-4.6992-6.95508-.1719-.2539-.1738-.25196-4.7891-6.90234-.1738-.25195-.1778-.25-4.875-6.84571-.1796-.25-.1797-.24804-4.9629-6.79102-.1817-.24805-.1836-.24609-5.0507-6.73437-.1836-.2461-.1875-.24414-5.1368-6.67773-.1874-.24414-.1895-.24024-5.2227-6.61914-.1894-.24219-.1953-.24023-5.3067-6.55859-.1933-.24024-.1973-.23633-5.3926-6.5-.1972-.23828-.2012-.23437-5.4766-6.43946-.2011-.23437-.2032-.23242-5.5625-6.37891-.2031-.23242-.2051-.23047-5.6465-6.31445-.207-.23047-.209-.22657-5.7304-6.25195-.209-.22851-.2129-.22461-5.8145-6.1875-.2109-.22461-.2148-.22461-5.8985-6.1211-.2148-.22265-.2188-.2207-5.3945-5.46094-7.1367-5.99219-8.127-4.5625-8.832-2.97461-9.2305-1.28516zm-1154.94334 350.25196-9.31836.10742-9.13672 1.83398-8.63867 3.4961-7.83984 5.04101-6.76758 6.40625-5.46094 7.55274-3.96484 8.43359-2.05469 7.46094-1.47461 7.62109-.0586.30078-.0547.30078-1.49414 8.26563-.0547.30273-.0508.30274-1.39453 8.28906-.0508.30274-.0469.30273-1.29297 8.31055-.0469.30468-.0449.30469-1.19141 8.33203-.043.30469-.0391.30469-1.08985 8.35351-.041.30469-.0352.30469-.98828 8.37305-.0371.30664-.0312.30664-.88476 8.39062-.0332.30664-.0293.30664-.78125 8.41016-.0293.30664-.0254.30664-.67969 8.42774-.0234.30664-.0215.30859-.57617 8.44336-.0215.30859-.0176.3086-.4707 8.45703-.0176.30859-.0137.3086-.36719 8.47265-.0137.30859-.01.31055-.26367 8.48633-.01.3086-.006.3105-.1582 8.4981-.004.3105-.004.3106-.0547 8.5097v.3106.3105l.0547 8.5098.004.3106.004.3085.1582 8.5.006.3086.01.3106.26367 8.4844.01.3105.0137.3086.36719 8.4727.0137.3086.0176.3085.4707 8.459.0176.3086.0215.3086.57617 8.4414.0215.3086.0234.3086.67969 8.4258.0254.3066.0293.3086.78125 8.4082.0293.3067.0332.3066.88476 8.3926.0312.3066.0371.3047.98828 8.3731.0352.3066.041.3047 1.08985 8.3535.0391.3047.043.3047 1.19141 8.332.0449.3047.0469.3027 1.29297 8.3106.0469.3047.0508.3027 1.39453 8.2871.0508.3028.0547.3027 1.49414 8.2656.0547.3008.0586.3027 1.5957 8.2403.0566.3007.0625.3008 1.69532 8.2168.0625.2988.0645.3008 1.79492 8.1895.0644.2988.0703.2988 1.89257 8.1641.0703.2988.0723.2969 1.99219 8.1367.0723.2969.0762.2949 2.09179 8.1094.0762.2949.0801.2949 2.1875 8.0782.0801.2949.084.2949 2.28711 8.0488.084.293.0859.293 2.38476 8.0176.0859.2929.0918.291 2.48047 7.9844.0898.293.0937.289 1.01953 3.1446 3.6875 8.5586 5.21094 7.7265 6.55664 6.625 7.66992 5.293 8.51953 3.7773 9.07227 2.1309 9.3125.4121 9.22461-1.3262 8.81836-3.0136 8.10742-4.5977 7.11133-6.0234 5.87109-7.2383 4.42578-8.2012 2.82617-8.8808 1.13086-9.252-.60742-9.2988-1.80859-7.5254-.95313-2.9395-2.26562-7.2949-2.22461-7.4844-2.10352-7.4043-2.04297-7.5351-1.90234-7.3731-1.90234-7.7695-1.72852-7.4629-1.67578-7.6387-1.54102-7.4785-1.48828-7.6816-1.39648-7.7285-1.29492-7.6973-1.18164-7.5859-1.13086-7.916-.99414-7.6231-.91797-7.7734-.82422-7.8106-.71485-7.6699-.64453-7.9922-.52343-7.6816-.43946-7.8614-.34765-8.0136-.23828-7.7227-.14649-7.8945-.0488-7.9004.0488-7.8984.14649-7.8926.23828-7.7266.34765-8.02342.43946-7.86133.52539-7.68359.64453-7.99414.71289-7.65625.82226-7.79297.92188-7.81055.99219-7.60352 1.13086-7.91796 1.17578-7.56055 1.30468-7.75 1.38868-7.67578 1.41015-7.29297.91016-9.27344-.82617-9.2832-2.53516-8.96875-4.15625-8.3418-5.63086-7.42578-6.91211-6.25195-7.95117-4.86133-8.7168-3.29883-9.17773-1.62695zm1543.47854 92.55468-9.3028.55079-9.041 2.26953-8.4609 3.90625-7.5879 5.41015-6.4551 6.72461-5.0918 7.80469-3.5566 8.61328-1.8965 9.125-.2637 7.73438.3477 8.03711.3183 10.23629.1914 10.2442.062 10.2617-.062 10.2578-.1914 10.2461-.3183 10.2324-.4434 10.2149-.5703 10.207-.6953 10.1777-.8223 10.1895-.9297 9.9902-1.0683 10.1192-1.1953 10.1347-1.3145 10.0703-1.4414 10.0723-1.5351 9.8691-1.6914 10.0508-1.8028 9.9707-1.9043 9.8418-2.0488 9.9395-2.1641 9.875-2.2636 9.7637-2.4473 9.9902-2.4941 9.666-2.5977 9.5938-2.7773 9.7792-2.8848 9.6973-3.002 9.666-3.0722 9.4785-3.252 9.627-3.3711 9.5937-3.3965 9.3028-3.6035 9.5078-3.5879 9.1328-3.8652 9.4941-3.8906 9.2305-4.0625 9.3223-4.0899 9.0781-4.2871 9.2188-4.3105 8.9746-4.5137 9.1152-4.6641 9.1348-3.4453 8.6601-1.7773 9.1485-.049 9.3203 1.6796 9.166 3.3536 8.6973 4.9082 7.9218 6.2949 6.8731 7.459 5.5859 8.3671 4.1055 8.9844 2.4804 9.2871.7715 9.2696-.9668 8.9297-2.6699 8.2773-4.2812 7.3418-5.7422 6.1465-7.0059 4.041-6.5996 4.8457-9.4961.1387-.2715.1367-.2734 4.7363-9.5684.1367-.2734.1309-.2734 4.6211-9.625.1308-.2735.129-.2773 4.5019-9.6778.127-.2753.1269-.2793 4.3809-9.7305.1269-.2774.1211-.2793 4.2637-9.7832.1211-.2793.1191-.2812 4.1426-9.832.1191-.2813.1153-.2832 4.0234-9.8828.1133-.2832.1133-.2832 3.9023-9.9316.1114-.2833.1074-.2851 3.7812-9.9805.1094-.2851.1035-.2852 3.6602-10.0273.1054-.2852.1-.289 3.5391-10.0704.1016-.289.098-.2871 3.4141-10.1172.098-.2891.096-.289 3.293-10.1582.094-.2911.092-.291 3.1679-10.2012.092-.291.086-.2929 3.0449-10.2403.088-.2929.084-.295 2.9199-10.2793.084-.2949.08-.2949 2.795-10.3184.08-.2949.076-.2969 2.6719-10.3574.076-.2949.072-.2969 2.545-10.3945.07-.2969.07-.2969 2.4179-10.4296.07-.2989.064-.2988 2.293-10.4629.064-.2988.061-.2988 2.164-10.4961.062-.3008.059-.3008 2.0371-10.5273.061-.3008.055-.3008 1.9082-10.5586.055-.3027.051-.3028 1.7812-10.5879.051-.3027.047-.3027 1.6523-10.6172.047-.3028.043-.3046 1.5235-10.6426.043-.3047.041-.3047 1.3906-10.6699.041-.3067.035-.3046 1.2617-10.6954.037-.3066.031-.3047 1.1309-10.7207.033-.3066.029-.3067.9981-10.7422.029-.3066.024-.3066.8672-10.7637.025-.3086.022-.3086.7343-10.7832.024-.3086.016-.3086.6055-10.8047.016-.3086.014-.3086.4707-10.8222.014-.3086.01-.3106.3359-10.8398.01-.3086.01-.3106.2011-10.8554.01-.3106v-.3105l.068-10.8692-.025-.2793.025-.3418-.068-10.871v-.3106l-.01-.3105-.2011-10.8555-.01-.3086-.01-.3105-.3359-10.83989-.01-.3086-.014-.30859-.3633-8.38086-1.2715-9.23438-2.9609-8.83593-4.5508-8.13282-5.9805-7.14843-7.2031-5.91407-8.1758-4.47461-8.8633-2.8789-9.2441-1.1836zm-1746.50588 33.03516-9.32032.08984-9.14062 1.81836-8.64453 3.48243-7.84766 5.02734-6.7793 6.39453-5.47265 7.54297-3.98047 8.42773-2.345704 9.01952-.646485 7.711-.05078 8.0585v.3106.3105l.06836 10.8692.002.3105.0059.3106.201172 10.8554.0059.3106.0098.3086.335937 10.8398.0098.3106.01367.3086.470706 10.8222.0137.3086.0156.3086.60352 10.8047.0176.3086.0215.3086.73438 10.7832.0215.3086.0254.3086.86719 10.7637.0254.3066.0293.3066.99804 10.7422.0293.3067.0332.3066 1.13086 10.7207.0312.3047.0371.3066 1.26172 10.6954.0352.3046.041.3067 1.39063 10.6699.041.3047.043.3047 1.52344 10.6426.043.3046.0469.3028 1.65235 10.6172.0469.3027.0508.3027 1.78125 10.5879.0508.3028.0547.3027 1.90821 10.5586.0547.3008.0586.3008 2.03711 10.5273.0586.3008.0625.3008 2.16406 10.4961.0625.2988.0645.2988 2.29296 10.4629.0645.2988.0703.2989 2.41797 10.4296.0703.2969.0723.2969 2.54492 10.3945.0723.2969.0762.2949 2.67187 10.3574.0762.2969.0801.2949 2.79492 10.3184.0801.2949.084.2949 2.91992 10.2793.084.295.0879.2929 3.04492 10.2403.0859.2929.0918.291 3.16797 10.2012.0918.291.0937.2911 3.29297 10.1582.0937.289.0977.2891 3.41406 10.1172.0977.2871.10156.289 3.53906 10.0704.0996.289.10547.2852 3.66016 10.0273.10351.2852.10938.2851 3.78125 9.9805.10742.2851.11133.2833 3.90234 9.9316.11328.2832.11328.2832 4.02344 9.8828.11524.2832.11914.2813 4.14258 9.832.11914.2812.12109.2793 4.26367 9.7832.1211.2793.12695.2774 4.38086 9.7305.12695.2793.12695.2753 4.50196 9.6778.1289.2773.13086.2735 4.6211 9.625.13086.2734.13671.2734 4.73633 9.5684.13672.2734.13867.2715 1.1836 2.3184 4.99218 7.8711 6.36524 6.8066 7.51953 5.5059 8.41016 4.0156 9.00781 2.3867 9.29687.6719 9.25782-1.0645 8.90039-2.7656 8.23242-4.3672 7.2793-5.8203 6.07226-7.0703 4.6543-8.0742 3.07617-8.7989 1.38867-9.2148-.34375-9.3125-2.06836-9.0879-2.97461-7.1445-.99804-1.957-4.51563-9.1172-4.31055-8.9746-4.2871-9.2188-4.08985-9.0781-4.0625-9.3223-3.89062-9.2305-3.86524-9.4941-3.58789-9.1328-3.60351-9.5078-3.39649-9.3028-3.37109-9.5937-3.25196-9.627-3.07226-9.4785-3.00195-9.666-2.88477-9.6973-2.77734-9.7792-2.59766-9.5938-2.49414-9.666-2.44727-9.9902-2.26367-9.7637-2.16406-9.875-2.04883-9.9395-1.9043-9.8418-1.80273-9.9707-1.69141-10.0508-1.53515-9.8691-1.44141-10.0723-1.31445-10.0703-1.19531-10.1347-1.06836-10.1192-.92969-9.9902-.82227-10.1895-.69531-10.1777-.57031-10.207-.44336-10.2149-.31836-10.2324-.19141-10.2461-.0625-10.2598.0469-7.7461-.81055-9.2851-2.51953-8.97267-4.14258-8.34765-5.61914-7.43555-6.90039-6.26367-7.94336-4.875-8.71094-3.31445-9.17382-1.64063zm1549.29488 117.00972-9.3164.4493-9.0625 2.1699-8.5058 3.8125-7.6485 5.3262-6.5273 6.6523-5.1797 7.7461-3.6504 8.5762-1.7266 7.3144-.014-.002-.035.2148v.004.0254l-1.3008 7.7266-1.3964 7.7285-1.4883 7.6816-1.541 7.4785-1.6758 7.6387-1.7285 7.4629-1.9024 7.7695-1.9023 7.3731-2.043 7.5351-2.1035 7.4043-2.2246 7.4844-2.2656 7.2988-2.4043 7.4161-2.4942 7.3886-2.5508 7.2598-2.6718 7.3203-2.7579 7.2793-2.8378 7.2168-2.9375 7.2168-2.9688 7.043-3.1113 7.1386-3.1641 7.0254-3.2207 6.9278-3.3984 7.0761-3.4219 6.9102-3.5703 6.9941-3.5938 6.8321-3.6406 6.7207-3.8262 6.8672-3.8437 6.7011-3.9531 6.7012-4.0078 6.6074-4.0918 6.5625-4.1739 6.5176-4.2793 6.5039-4.3828 6.4883-4.4883 6.4707-4.4218 6.2129-4.6504 6.3652-4.6524 6.2031-4.8691 6.3301-2.5606 3.2461-5.0644 7.8223-3.5274 8.6269-1.8632 9.1328-.1348 9.3184 1.5957 9.1816 3.2715 8.7266 4.834 7.9688 6.2285 6.9316 7.4082 5.6562 8.3281 4.1817 8.961 2.5644 9.2792.8575 9.2793-.8809 8.9532-2.5859 8.3183-4.2032 7.3926-5.6738 5.25-5.6875 2.8125-3.5644.1895-.2422.1875-.2442 5.1367-6.6777.1875-.2422.1836-.2461 5.0508-6.7344.1835-.2461.1817-.248 4.9629-6.791.1797-.2481.1797-.25 4.875-6.8476.1777-.25.1738-.252 4.7891-6.9023.1738-.252.1719-.2539 4.6992-6.9551.1719-.2539.1699-.2558 4.6113-7.0078.168-.2559.1641-.2578 4.5234-7.0606.166-.2578.1621-.2597 4.4336-7.1114.1621-.2597.1582-.2617 4.3438-7.1622.1582-.2617.1562-.2636 4.2559-7.211.1543-.2637.1523-.2656 4.1641-7.2597.1523-.2657.1485-.2656 4.0742-7.3086.1484-.2676.1465-.2675 3.9824-7.3555.1465-.2676.1406-.2715 3.8926-7.4004.1426-.2695.1387-.2715 3.8008-7.4472.1386-.2715.1348-.2735 3.709-7.4902.1367-.2734.1309-.2735 3.6171-7.5351.1309-.2735.1289-.2773 3.5254-7.5762.127-.2754.125-.2793 3.4316-7.6172.125-.2773.123-.2793 3.336-7.6582.123-.2813.1172-.2793 3.2442-7.6992.1191-.2812.1152-.2813 3.1485-7.7383.1152-.2812.1113-.2852 3.0567-7.7754.1113-.2832.1074-.2851 2.961-7.8125.1074-.2852.1054-.2851 2.8653-7.8496.1035-.2871.1016-.2872 2.7695-7.8847.1016-.2871.098-.2891 2.6738-7.9199.098-.2871.094-.291 2.5782-7.9532.096-.289.09-.293 2.4805-7.9844.092-.291.086-.2929 2.3848-8.0176.086-.293.084-.293 2.2871-8.0488.084-.2949.08-.2949 2.1875-8.0782.08-.2949.076-.2949 2.0918-8.1094.076-.2949.07-.2969 1.9922-8.1367.072-.2969.07-.2988 1.8926-8.1641.07-.2988.064-.2988 1.7949-8.1895.065-.3008.062-.2988 1.6953-8.2168.061-.3008.059-.3007 1.5957-8.2403.059-.3027.055-.3008 1.4942-8.2656.055-.3027.051-.3028 1.3946-8.2871.051-.3027.047-.3047.062-.3867.5684-9.3028-1.168-9.2461-2.8633-8.8691-4.4609-8.1836-5.9004-7.2129-7.1367-5.9941-8.127-4.5645-8.83-2.9765-9.2325-1.2872zm-1208.04684 328.8125-9.21679 1.379-8.80274 3.0664-8.07812 4.6445-7.07813 6.0644-5.82812 7.2715-4.37891 8.2285-2.77344 8.8965-1.07617 9.2578.66211 9.2969 2.375 9.0117 4.00586 8.4141 4.46484 6.3203 2.28907 2.7598.19726.2363.20117.2363 5.47657 6.4375.20117.2364.20312.2324 5.5625 6.3769.20313.2325.20508.2304 5.64648 6.3145.20703.2304.20899.2286 5.73046 6.25.20899.2285.21289.2265 5.81445 6.1856.21094.2265.21484.2227 5.89844 6.1211.21485.2227.21874.2207 5.98047 6.0546.2168.2208.2207.2187 6.05469 5.9805.2207.2187.22461.2149 6.1211 5.8964.22265.2149.22657.2129 6.18554 5.8144.22657.211.22656.2109 6.25195 5.7305.22852.209.23047.205 6.31445 5.6485.23047.2051.23242.2031 6.37695 5.5625.23242.2031.23438.1992 6.43945 5.4785.23438.1993.23828.1972 6.5 5.3946.23633.1953.24023.1953 6.56055 5.3066.23828.1934.24219.1914 6.61914 5.2226.24218.1895.24219.1875 6.67774 5.1367.24414.1875.24609.1836 6.73438 5.0488.24609.1856.24805.1816 6.79101 4.961.24805.1816.25.1777 6.84766 4.875.25.1797.25195.1739 6.90039 4.7871.25195.1757.25391.1719 6.95703 4.6992.25391.1719.25586.168 7.00781 4.6113.25586.1699.25781.1641 7.06055 4.5234.25781.1641.25976.1621 7.11133 4.4336.25977.1621.26172.1602 7.16211 4.3437.26172.1582.26367.1563 7.21094 4.2539.26367.1562.26367.1524 7.26172 4.164.26367.1524.26758.1484 7.30859 4.0742.26563.1485.26953.1445 7.35547 3.9844.26757.1445.26954.1426 7.40234 3.8926.26953.1425.27149.1387 7.44531 3.8008.27148.1387.27344.1347 7.49023 3.709.27344.1348.27539.1328 7.53321 3.6172.27539.1308.27734.1289 7.57617 3.5235.27539.1289.27735.125 7.61914 3.4316.27734.125.2793.1211 7.6582 3.3379.2793.1211.28125.1191 7.69922 3.2442.27929.1172.28321.1152 7.73632 3.1504.28321.1152.2832.1114 7.45117 2.9277 8.95313 2.5859 9.27929.877 9.2793-.8574 8.96094-2.5664 8.32617-4.1836 7.4082-5.6582 6.22657-6.9317 4.83398-7.9687 3.26953-8.7285 1.5957-9.1817-.13867-9.3183-1.86523-9.1309-3.52735-8.627-5.0664-7.8222-6.42969-6.7461-7.57031-5.4356-6.96289-3.3789-7.16602-2.8144-7.26758-2.961-7.04296-2.9668-7.06446-3.08-6.96875-3.1368-7.24609-3.371-6.88477-3.3047-6.91406-3.4239-6.93359-3.539-6.83008-3.5918-6.78516-3.6739-6.86133-3.8261-6.70312-3.8438-6.65625-3.9277-6.6543-4.0352-6.55859-4.0879-6.62891-4.248-6.4668-4.2539-6.41601-4.3359-6.36719-4.4141-6.41406-4.5684-6.36133-4.6484-6.28125-4.7109-6.15625-4.7383-6.02734-4.7559-6.1211-4.9512-6.07812-5.0449-5.83985-4.9687-6.0371-5.2637-5.81446-5.2031-5.74804-5.2676-5.7754-5.4297-5.6289-5.4219-5.72852-5.6582-5.41992-5.4882-5.57812-5.7891-5.34375-5.6875-5.35352-5.8399-5.12109-5.7265-5.20313-5.9649-5.10937-6.0058-2.06836-2.4922-6.59375-6.5879-7.70117-5.248-8.54102-3.7286-9.08594-2.0781zm870.86524 156.1543-9.2852.8028-8.9746 2.5078-6.9902 3.3203-3.457 1.9805-6.8672 3.83-6.7852 3.6739-6.8301 3.5918-6.9335 3.539-6.9141 3.4239-6.8848 3.3047-7.2461 3.371-6.9687 3.1368-7.0645 3.08-7.0429 2.9668-7.2676 2.959-7.25 2.8496-7.1485 2.709-7.3691 2.6895-7.2109 2.5332-7.4375 2.5117-7.2715 2.3574-7.5899 2.3574-7.3789 2.1934-7.3222 2.0801-7.5332 2.041-7.5606 1.9492-7.4433 1.8223-7.6485 1.7754-7.4824 1.6386-7.8066 1.6114-7.6797 1.4843-7.5254 1.3614-7.5723 1.2734-7.8945 1.2285-7.6094 1.0879-7.7812 1.0176-7.6329.9004-7.9433.8398-7.8242.7266-7.67.6191-8.0039.5449-7.8515.4376-7.7207.3339-7.8789.2461-8.125.1504-9.2618 1.041-8.9082 2.7422-8.2421 4.3477-7.29497 5.8008-6.08984 7.0546-4.67578 8.0625-3.09766 8.7891-1.41406 9.2129.32226 9.3145 2.04493 9.0917 3.69531 8.5567 5.2207 7.7207 6.56051 6.6172 7.6778 5.2851 8.5234 3.7696 9.0742 2.1211 7.7246.455 8.4161-.1562.3085-.008.3106-.01 8.4863-.2617.3086-.01.3106-.0136 8.4707-.3672.3105-.0137.3086-.0176 8.457-.4726.3086-.0176.3086-.0195 8.4434-.5762.3066-.0215.3086-.0254 8.4258-.6797.3086-.0234.3066-.0293 8.4102-.7832.3066-.0274.3067-.0332 8.3906-.8847.3066-.0332.3067-.0352 8.3711-.9883.3066-.0351.3047-.041 8.3535-1.0899.3047-.039.3047-.045 8.332-1.1914.3047-.0429.3027-.0469 8.3125-1.293.3028-.0469.3027-.0507 8.2891-1.3946.3027-.0508.3008-.0546 8.2656-1.4961.3028-.0528.3007-.0586 8.2422-1.5957.3008-.0586.2988-.0605 8.2168-1.6953.3008-.0625.2988-.0645 8.1914-1.7949.2989-.0664.2968-.0684 8.1641-1.8945.2988-.0684.2969-.0722 8.1367-1.9922.2969-.0723.2949-.0781 8.1094-2.0898.2949-.0762.2949-.0801 8.0801-2.1894.2949-.0801.293-.0821 8.0488-2.2871.293-.084.293-.0859 8.0176-2.3848.2929-.0878.291-.0899 7.9864-2.4805.291-.0918.289-.0937 7.9532-2.5762.291-.0957.289-.0976 7.918-2.6739.2891-.0976.289-.0996 7.8829-2.7696.289-.1015.2852-.1055 7.8496-2.8652.2871-.1035.2851-.1094 7.8126-2.959.2851-.1094.2832-.1113 7.7754-3.0547.2832-.1113.2832-.1153 7.7363-3.1503.2832-.1153.2793-.1172 7.6993-3.2441.2812-.1191.2793-.1211 7.6582-3.3379.2793-.1211.2773-.125 7.6192-3.4317.2773-.125.2754-.1289 7.5762-3.5234.2773-.1289.2754-.1309 7.5332-3.6172.2754-.1328.2735-.1347 7.4902-3.709.2734-.1348.2715-.1387 7.4453-3.8007.2715-.1387.2695-.1426 7.4024-3.8926.2695-.1426.2676-.1445 7.3555-3.9844.2695-.1445.2656-.1484 7.3086-4.0742.2676-.1485.2637-.1523 3.748-2.1504 7.6152-5.3692 6.4883-6.6914 5.1328-7.7793 3.6016-8.5957 1.9434-9.1152.2168-9.3164-1.5157-9.1953-3.1953-8.7559-4.7656-8.0097-6.168-6.9864-7.3593-5.7187-8.2911-4.2559-8.9375-2.6426-9.2734-.9375zm-900.39649 81.3164-9.21875 1.3692-8.80468 3.0547-8.08594 4.6367-7.08203 6.0566-5.83789 7.2657-4.38672 8.2226-2.78321 8.8945-1.08593 9.2579.65039 9.2968 2.36718 9.0137 3.9961 8.4199 5.49023 7.5313 5.55469 5.3867 1.81641 1.5059.23632.1972.24024.1934 8.3789 6.7793.24024.1953.24219.1894 8.45507 6.67.24024.1914.24414.1875 8.5293 6.5605.24414.1875.24609.1836 8.60156 6.4512.2461.1836.24804.1816 8.67579 6.3379.24804.1817.25.1777 8.7461 6.2285.25.1777.25195.1758 8.81641 6.1153.25.1738.25586.1719 8.88476 6.0039.25391.1718.25586.168 8.95117 5.8906.25586.168.25781.166 9.01953 5.7774.25781.164.25977.1621 9.08398 5.6641.25977.1621.26172.1582 9.14844 5.5508.26171.1582.26368.1543 9.21093 5.4355.26368.1563.26562.1523 9.27344 5.3184.26562.1523.26563.1485 9.33594 5.205.26757.1485.26758.1465 9.39453 5.0879.26953.1445.26954.1426 9.45312 4.9726.27149.1406.27148.1387 9.51172 4.8555.27148.1387.27344.1347 9.56641 4.7383.27343.1348.27539.1328 9.62305 4.6191.27539.1328.27539.1289 9.67774 4.5.27734.129.27734.125 9.73047 4.3828.2793.125.2793.123 9.78125 4.2617.28125.1231.27929.1172 9.83399 4.1445.28125.1172.28125.1152 9.88476 4.0235.28125.1152.28516.1113 9.93164 3.9024.2832.1132.28516.1075 9.98047 3.7812.2832.1074.28711.1055 10.02539 3.6602.28711.1035.28711.1015 10.07227 3.5391.28711.0996.28906.0977 10.11523 3.416.28906.0976.29102.0938 10.1582 3.293.29102.0937.29102.0899 10.19921 3.1699.29297.0898.29102.0879 10.24219 3.0449.29296.0879.29297.0821 10.28125 2.9218.29493.084.29492.0801 10.31836 2.7949.29492.0801.29687.0762 10.35547 2.6718.29688.0762.29687.0723 10.39453 2.5449.29688.0723.29687.0703 10.42969 2.4179.29688.0684.29882.0664 9.18164 2.0117 9.25196 1.1367 9.29883-.5996 9.02929-2.3144 8.44141-3.9492 7.56055-5.4493 6.41992-6.7558 5.05273-7.8301 3.51367-8.6328 1.84961-9.1348.1211-9.3183-1.60743-9.1797-3.28515-8.7227-4.84766-7.9609-6.23828-6.9219-7.41601-5.6445-8.33594-4.1699-7.4082-2.2364-8.88477-1.9472-9.72656-2.2539-9.88086-2.42-9.77149-2.5195-9.77539-2.6484-9.63476-2.7364-9.69922-2.8847-9.56445-2.9727-9.58204-3.1035-9.625-3.25-9.40039-3.3027-9.55078-3.4883-9.31445-3.5293-9.46094-3.7168-9.30273-3.7871-9.23047-3.8906-9.32227-4.0625-9.07812-4.0899-9.0918-4.2285-9.10547-4.3711-8.99023-4.4512-8.875-4.5293-9.00586-4.7343-8.82422-4.7793-8.89258-4.9551-8.70898-4.9961-8.77735-5.1797-8.52343-5.1699-8.53321-5.3223-8.58789-5.5-8.4082-5.5312-8.34375-5.6387-8.38477-5.8184-8.21679-5.8496-8.14844-5.955-8.07422-6.0528-8.10156-6.2304-8.01367-6.3243-7.86329-6.3613-1.57226-1.3047-7.69727-5.2558-8.53711-3.7383-9.08203-2.0879-9.3125-.3653zm1110.89449 5.045-9.3027.5488-9.041 2.2637-8.4629 3.9023-6.375 4.3867-3.668 2.9668-8.0136 6.3243-8.1016 6.2304-8.0742 6.0528-8.1485 5.955-8.2168 5.8496-8.3847 5.8184-8.3438 5.6387-8.4082 5.5312-8.5879 5.5-8.5332 5.3223-8.5234 5.1699-8.7773 5.1797-8.709 4.9961-8.8926 4.9551-8.8242 4.7793-9.0059 4.7343-8.875 4.5293-8.9902 4.4512-9.1055 4.3711-9.0918 4.2285-9.0781 4.0899-9.3223 4.0625-9.2304 3.8906-9.3028 3.7871-9.4609 3.7168-9.3145 3.5293-9.5508 3.4883-9.4003 3.3027-9.625 3.25-9.5821 3.1035-9.5644 2.9727-9.6992 2.8847-9.6348 2.7364-9.7754 2.6484-9.7715 2.5195-9.8808 2.42-9.7286 2.2558-9.7597 2.1387-6.4121 1.3223-8.9121 2.7246-8.252 4.332-7.3047 5.7891-6.1035 7.0429-4.6914 8.0528-3.1133 8.7851-1.4297 9.209.3028 9.3145 2.0273 9.0976 3.6816 8.5625 5.2051 7.7305 6.5488 6.6289 7.6661 5.3008 8.5175 3.7832 9.0704 2.1386 9.3105.418 7.6777-.9726 6.6075-1.3614.3007-.0625.2989-.0664 10.4629-2.291.2988-.0664.2969-.0684 10.4296-2.4179.2969-.0703.2969-.0723 10.3945-2.5449.2969-.0723.2969-.0762 10.3554-2.6718.2969-.0782.2949-.08 10.3184-2.795.2949-.08.2949-.084 10.2813-2.9219.293-.082.2929-.0879 10.2422-3.0449.291-.0879.293-.0899 10.1992-3.1699.291-.0898.2911-.0938 10.1582-3.293.291-.0918.289-.0996 10.1153-3.416.289-.0976.2871-.0996 10.0723-3.5391.2871-.1016.2871-.1035 10.0254-3.6601.2871-.1055.2832-.1074 9.9805-3.7813.2852-.1074.2832-.1133 9.9316-3.9023.2852-.1114.2812-.1152 9.8848-4.0234.2812-.1153.2813-.1172 9.834-4.1445.2793-.1172.2812-.123 9.7813-4.2617.2793-.1231.2792-.125 9.7305-4.3828.2774-.125.2773-.1289 9.6777-4.5.2754-.1289.2754-.1328 9.6231-4.6192.2754-.1328.2734-.1347 9.5664-4.7383.2734-.1348.2715-.1387 9.5117-4.8554.2715-.1387.2715-.1406 9.4531-4.9727.2696-.1426.2695-.1445 9.3945-5.0879.2676-.1465.2676-.1484 9.3359-5.2051.2656-.1484.2657-.1524 9.2734-5.3183.2656-.1524.2637-.1562 9.2109-5.4356.2637-.1543.2617-.1582 9.1485-5.5507.2617-.1583.2598-.1621 9.0839-5.664.2598-.1621.2578-.1641 9.0196-5.7773.2578-.1661.2558-.1679 8.9512-5.8906.2559-.168.2539-.1719 8.8847-6.0039.2559-.1719.25-.1738 8.8164-6.1152.2519-.1758.25-.1777 8.7461-6.2286.25-.1777.2481-.1816 8.6758-6.3379.248-.1817.2461-.1836 8.6016-6.4511.2461-.1836.2441-.1875 8.5293-6.5606.2441-.1875.2403-.1914 8.4551-6.6699.2421-.1895.2403-.1953 3.9492-3.1953 6.666-6.5117 5.3438-7.6348 3.832-8.4961 2.1914-9.0586.4707-9.3086-1.2656-9.2324-2.9571-8.8379-4.5449-8.1367-5.9765-7.1523-7.1993-5.918-8.1738-4.4785-8.8613-2.8848z" transform="translate(0 995.63783)"/></svg>