<svg height="2048" width="2048" xmlns="http://www.w3.org/2000/svg"><path d="m1023.8841-410.66202c-174.48423-2.3799-342.27004 111.3275-406.49154 273.2582-65.7902 155.8008-29.4187 347.5708 88.88511 468.4426 115.0263 123.8297 304.55323 169.4637 463.30543 111.4273 166.3595-56.6747 288.5746-221.2313 292.9783-397.19 8.8625-170.9452-93.875-339.9699-248.5592-412.5671-59.0266-28.5789-124.5461-43.4575-190.1181-43.371zm0 80c159.4805-3.0204 310.6037 114.043 347.727 269.1222 40.6988 149.0185-27.8712 318.9347-161.362 397.0144-136.3004 85.5433-328.46993 62.7465-440.39403-53.1076-118.11391-113.9435-139.14741-311.087-48.5313-447.736 64.1785-101.9465 182.0501-166.4666 302.56033-165.293zm113.4199 102.0176c-39.9674 72.5091-79.9349 145.0182-119.9023 217.5273-37.03243 3.9377995-45.82933 60.121-11.6614 75.1054 22.5699 15.6663 40.2472-10.392 60.793-9.494h183.2922c0-16.6667 0-33.3333 0-50.0000005-61.3125 0-122.625 0-183.9375 0 38.4017-69.6679995 76.8034-139.3358995 115.2051-209.0038995-14.5964-8.0449-29.1927-16.0899-43.7891-24.1348zm-113.6145-477.99816-8.5098.0527-.3106.002-.3105.006-8.4981.1582-.3085.006-.3106.01-8.48632.26367-.3086.01-.31054.0137-8.47071.36718-.31054.0137-.3086.0156-8.45703.47266-.30859.0176-.30859.0215-8.44336.57617-.30664.0195-.3086.0254-8.42578.67969-.30859.0254-.30664.0273-8.41016.78321-.30664.0293-.30664.0313-2.88281.30468-9.13672 1.83789-8.63672 3.5-7.83789 5.04493-6.76563 6.41015-5.45703 7.55274-3.96289 8.4375-2.32617 9.02343-.61133 9.30078 1.125 9.25196 2.82227 8.88086 4.42187 8.20508 5.86719 7.24023 7.10937 6.02734 8.10352 4.60157 8.81836 3.01757 9.22461 1.33008 7.73633-.21484 2.59375-.27149 7.83593-.73046 7.66602-.61915 7.85352-.53515 7.85546-.43946 7.87306-.34374 7.873-.24415 7.8887-.14648 7.9004-.0488 7.9004.0488 7.8887.14648 7.873.24415 7.8731.34374 7.8554.43946 7.8535.53515 7.6661.61915 7.8261.72851 7.793.82227 7.791.91992 7.7793 1.01367 7.6055 1.08789 7.7441 1.20508 7.7227 1.29687 7.6679 1.38868 7.6836 1.48632 7.5118 1.55079 7.6347 1.67187 7.6446 1.77344 7.4375 1.82031 7.5683 1.95312 7.3945 2.00196 7.461 2.11914 7.5176 2.23633 7.3086 2.26953 7.4179 2.40234 7.2891 2.46094 7.3535 2.58398 7.3691 2.68946 7.2911 2.76367 6.9746 2.74023 7.2695 2.95899 7.1191 2.99804.336.14258.012-.0273 8.5059 2.79492 9.2402 1.21875 9.3047-.51953 9.0468-2.23633 8.4766-3.87695 7.6074-5.38281 6.4786-6.70118 5.121-7.78515 3.586-8.60157 1.9297-9.11914.2031-9.3164-1.5293-9.19336-3.2109-8.75-4.7774-8.00195-6.1777-6.97657-7.3672-5.70898-6.834-3.63281-.2246-.0977-.2793-.12109-.2812-.11914-7.6993-3.24414-.2793-.11719-.2832-.11524-7.7363-3.15039-.2832-.11328-.2832-.11328-7.7754-3.05469-.2832-.11133-.2851-.10742-7.8126-2.96094-.2851-.10742-.2871-.10547-7.8496-2.86523-.2852-.10352-.289-.10156-7.8829-2.76953-.289-.10156-.2891-.0977-7.918-2.67383-.289-.0976-.291-.0937-7.9532-2.57813-.289-.0937-.291-.0898-7.9864-2.48242-.291-.0899-.2929-.0879-8.0176-2.38281-.293-.0879-.293-.082-8.0488-2.28711-.293-.084-.2949-.0801-8.0801-2.18946-.2949-.0781-.2949-.0781-8.1094-2.08984-.2949-.0762-.2969-.0723-8.1367-1.99219-.2969-.0742-.2988-.0684-8.1641-1.89453-.2968-.0684-.2989-.0664-8.1914-1.79297-.2988-.0664-.3008-.0605-8.2168-1.69531-.2988-.0625-.3008-.0586-8.2422-1.59375-.3007-.0586-.3028-.0547-8.2656-1.49414-.3008-.0547-.3027-.0508-8.2891-1.39453-.3027-.0508-.3028-.0469-8.3125-1.29297-.3027-.0488-.3047-.043-8.332-1.19141-.3047-.043-.3047-.041-8.3535-1.08985-.3047-.0391-.3066-.0371-8.3711-.98633-.3067-.0371-.3066-.0312-8.3906-.88671-.3067-.0313-.3066-.0293-8.4102-.78321-.3066-.0273-.3086-.0254-8.4258-.67969-.3086-.0254-.3066-.0195-8.4434-.57617-.3086-.0215-.3086-.0176-8.457-.47266-.3086-.0156-.3105-.0137-8.4707-.36718-.3106-.0137-.3086-.01-8.4863-.26367-.3106-.01-.3085-.006-8.4981-.1582-.3105-.006-.3106-.002-8.5098-.0527-.3105-.002zm-325.89653 79.38477-9.06055 2.17969-7.10742 3.06054-3.45898 1.81836-.26954.14258-.26757.14453-7.35547 3.98438-.26953.14453-.26563.14843-7.30859 4.07618-.26758.14843-.26367.15039-7.26172 4.16602-.26367.15234-.26367.1543-7.21094 4.25586-.26367.1543-.26172.1582-7.16211 4.3457-.26172.15821-.25977.16211-7.11133 4.43359-.25976.16211-.25781.16601-7.06055 4.52149-.25781.16601-.25586.16797-7.00781 4.61133-.25586.16797-.25391.17187-6.95703 4.70118-.25391.16992-.25195.17578-6.90039 4.78711-.25195.17578-.25.17773-6.84766 4.875-.25.17774-.24805.18164-6.79101 4.96289-.24805.18164-.24609.18359-6.73438 5.04883-.24609.18555-.24414.1875-6.67774 5.13477-.24219.1875-.24218.1914-6.61914 5.22071-.24219.1914-.23828.19336-6.56055 5.30859-.24023.19336-.23633.19727-6.5 5.39258-.23828.19726-.23438.19922-6.43945 5.47852-.23438.19922-.23242.20312-6.37695 5.5625-.23242.20313-.23047.20703-6.31445 5.64648-.23047.20703-.22852.20899-6.25195 5.73047-.22656.20898-.22657.21094-6.18554 5.81445-.22657.21289-.22265.21485-6.1211 5.89843-.22461.21485-.2207.21679-6.05469 5.98047-.2207.21875-.2168.22071-5.98047 6.05468-.21874.22071-.21485.22265-5.89844 6.1211-.21484.22461-.21094.22461-5.81445 6.1875-.21289.2246-.20899.22852-5.73046 6.25195-.20899.22657-.20703.23046-5.64648 6.31446-.20508.23047-.20313.23242-5.5625 6.3789-.20312.23243-.20117.23437-5.47657 6.43945-.20117.23438-.19726.23828-5.39258 6.5-.19727.23633-.19336.24023-5.30664 6.5586-.19531.24023-.18945.24219-5.22266 6.61914-.18945.24023-.1875.24414-5.13672 6.67774-.1875.24414-.1836.24609-5.05078 6.73438-.18359.24609-.18164.24805-4.96289 6.79101-.17969.24805-.17969.25-4.875 6.8457-.17773.25-.17383.25196-4.78906 6.90234-.17383.25195-.17187.25391-4.69922 6.95508-.17188.2539-.16992.25586-3.91602 5.95313-4.375 8.23047-2.77148 8.89648-1.07227 9.25977.66407 9.29492 2.37695 9.01172 4.00977 8.41406 5.5 7.52149 6.80273 6.37304 7.86523 4.99805 8.65625 3.45312 9.14844 1.78516 9.31836.0566 9.16992-1.67383 8.69727-3.3457 7.92773-4.90234 6.87696-6.28907 4.74218-6.11523 3.7461-5.69141 4.33789-6.41992 4.48828-6.4707 4.42187-6.20899 4.65235-6.37304 4.65039-6.20118 4.8125-6.25585 4.79492-6.08204 4.9668-6.13867 4.96875-5.98633 5.11132-6.00976 5.13282-5.88281 5.25781-5.88282 5.35156-5.83593 5.34961-5.69141 5.43164-5.63672 5.49805-5.56836 5.64648-5.57812 5.71094-5.50196 5.68945-5.34961 5.83008-5.34375 5.90039-5.27539 5.85938-5.11328 6.02148-5.12109 5.98828-4.96875 6.11914-4.95313 6.1211-4.82617 6.1582-4.73633 6.28711-4.71289 6.26172-4.57812 6.3125-4.49414 6.36719-4.41797 6.52148-4.4082 6.46289-4.25196 6.51953-4.17578 6.5625-4.09375 6.65039-4.03515 6.65625-3.92774 6.81641-3.91406 6.74023-3.75781 6.9043-3.73829 3.15235-1.6582 7.80859-5.08789 6.72851-6.44727 5.41407-7.58593 3.91406-8.45899 2.27539-9.03711.55664-9.30273-1.17773-9.24609-2.8711-8.86524-4.46875-8.17969-5.91015-7.20703-7.14258-5.98633-8.13086-4.55468-8.83399-2.96875-9.23242-1.27539zm804.09763 122.34179-9.0625 2.16993-8.5039 3.81445-7.6465 5.32812-6.5273 6.65235-5.1777 7.75-3.6485 8.57422-1.9961 9.10351-.2715 9.31641 1.4629 9.20508 3.1465 8.77343 4.7188 8.03516 4.9961 5.91016 5.205 5.27148 5.4317 5.63672 5.3496 5.69141 5.3516 5.83593 5.2578 5.88282 5.1328 5.88281 5.1113 6.00976 4.9688 5.98633 4.9667 6.13867 4.795 6.08204 4.8125 6.25585 4.6504 6.20118 4.6523 6.37304 4.4219 6.20899 4.4883 6.4707 4.3379 6.41797 4.3242 6.57422 4.1699 6.51172 4.0957 6.56836 4.0078 6.60742 3.9902 6.76562 3.8438 6.70118 3.7891 6.79687 3.6757 6.79102 3.5586 6.76562 3.5703 6.99414 3.3926 6.84961 3.3985 7.07813 3.25 6.99023 3.1406 6.9668 3.1347 7.19336 2.9903 7.0957 2.9375 7.2168 2.7969 7.11328 2.7773 7.33203 2.6719 7.31836 2.5332 7.21289 2.4961 7.39062 2.4199 7.46485 2.2676 7.29687 2.2246 7.48438 1.2539 4.41406 3.3711 8.6875 4.9258 7.91211 6.3066 6.86133 7.4727 5.57031 8.375 4.08789 8.9882 2.46094 9.2911.75 9.2675-.98633 8.9219-2.6875 8.2695-4.29883 7.3282-5.75781 6.1328-7.01953 4.7226-8.0332 3.1504-8.77149 1.4668-9.20312-.2656-9.31641-1.5312-7.58594-1.3477-4.73828-.084-.29492-.086-.29102-2.3848-8.01757-.086-.29297-.092-.29102-2.4805-7.98633-.09-.29101-.094-.29102-2.5781-7.95312-.094-.28907-.098-.28906-2.6739-7.91992-.098-.28906-.1016-.28711-2.7695-7.88477-.1016-.28711-.1035-.28711-2.8652-7.84765-.1055-.28711-.1074-.28516-2.9609-7.8125-.1075-.28515-.1113-.28321-3.0566-7.77539-.1114-.2832-.1152-.2832-3.1484-7.73633-.1153-.28321-.1191-.28125-3.2441-7.69726-.1172-.28125-.1231-.2793-3.3359-7.6582-.1231-.2793-.125-.2793-3.4316-7.61718-.125-.27735-.127-.27734-3.5254-7.57617-.1289-.27539-.1308-.27539-3.6172-7.53321-.1309-.27539-.1367-.27343-3.709-7.49024-.1347-.27344-.1387-.27148-3.8008-7.44531-.1387-.27344-.1425-.26953-3.8926-7.40039-.1406-.26953-.1465-.26953-3.9824-7.35547-.1465-.26758-.1485-.26758-4.0742-7.30664-.1484-.26758-.1524-.26562-4.164-7.25977-.1524-.26562-.1543-.26172-4.2558-7.21289-.1563-.26368-.1582-.25976-4.3437-7.16211-.1582-.26172-.1621-.25976-4.4336-7.11133-.1621-.25977-.1661-.25781-4.5234-7.06055-.1641-.25781-.1679-.25586-4.6114-7.00977-.1699-.25586-.1719-.2539-4.6992-6.95508-.1718-.25391-.1739-.25195-4.789-6.90234-.1739-.25196-.1777-.25-4.875-6.8457-.1797-.25-.1797-.24805-4.9629-6.79101-.1816-.24805-.1836-.24609-5.0508-6.73438-.1836-.24609-.1875-.24414-5.1367-6.67774-.1875-.24414-.1895-.24023-5.2226-6.61914-.1895-.24219-.1953-.24023-5.3066-6.5586-.1934-.24023-.1972-.23633-5.3926-6.5-.1973-.23828-.2012-.23438-5.4765-6.43945-.2012-.23437-.2031-.23243-5.5625-6.3789-.2031-.23242-.2051-.23047-5.6465-6.31446-.207-.23046-.209-.22657-5.7305-6.25195-.209-.22852-.2129-.2246-5.8144-6.1875-.2109-.22461-.2149-.22461-5.8984-6.1211-.2149-.22265-.2187-.22071-5.3946-5.46093-7.1367-5.99219-8.1269-4.5625-8.8321-2.97461-9.2304-1.28516zm-1154.9531 349.90821-9.13672 1.83398-8.63867 3.4961-7.83984 5.04101-6.76758 6.40625-5.46094 7.55274-3.96484 8.43359-2.05469 7.46094-1.47461 7.62109-.0586.30078-.0547.30078-1.49414 8.265628-.0547.302734-.0508.302735-1.39453 8.289062-.0508.302735-.0469.302734-1.29297 8.310547-.0469.304687-.0449.304688-1.19141 8.332031-.043.304688-.0391.304687-1.08985 8.353516-.041.304687-.0352.304688-.98828 8.373047-.0371.30664-.0312.306641-.88476 8.390625-.0332.306641-.0293.30664-.78125 8.410157-.0293.30664-.0254.306641-.67969 8.427734-.0234.306641-.0215.308594-.57617 8.443359-.0215.308594-.0176.308593-.4707 8.4570316-.0176.3085938-.0137.3085937-.36719 8.47265628-.0137.30859372-.01.3105469-.26367 8.4863281-.01.3085939-.006.310547-.1582 8.498047-.004.310546-.002.310547-.0547 8.509766v.310547.310547l.0547 8.509765.002.310547.004.308594.1582 8.5.006.308594.01.310547.26367 8.484375.01.310547.0137.308593.36719 8.472657.0137.308593.0176.308594.4707 8.458984.0176.308594.0215.308594.57617 8.441406.0215.308594.0234.308594.67969 8.425781.0254.30664.0293.308594.78125 8.408204.0293.30664.0332.30664.88476 8.39258.0312.30664.0371.30469.98828 8.37304.0352.30664.041.30469 1.08985 8.35352.0391.30468.043.30469 1.19141 8.33203.0449.30469.0469.30274 1.29297 8.31054.0469.30469.0508.30273 1.39453 8.28711.0508.30274.0547.30273 1.49414 8.26563.0547.30078.0586.30273 1.5957 8.24024.0566.30078.0625.30078 1.69532 8.2168.0625.29883.0645.30078 1.79492 8.18945.0644.29883.0703.29883 1.89257 8.16406.0703.29883.0723.29687 1.99219 8.13672.0723.29687.0762.29493 2.09179 8.10937.0762.29492.0801.29493 2.1875 8.07812.0801.29492.084.29492 2.28711 8.04883.084.29297.0859.29297 2.38476 8.01758.0859.29297.0918.29101 2.48047 7.98438.0898.29297.0937.28906 1.01953 3.14453 3.6875 8.55859 5.21094 7.72657 6.55664 6.625 7.66992 5.29296 8.51953 3.77735 9.07227 2.13086 9.3125.41211 9.22461-1.32617 8.81836-3.01368 8.10742-4.59765 7.11133-6.02344 5.87109-7.23828 4.42578-8.20117 2.82617-8.88086 1.13086-9.25196-.60742-9.29882-1.80859-7.52539-.95313-2.93946-2.26562-7.29492-2.22461-7.48437-2.10352-7.4043-2.04297-7.53516-1.90234-7.37304-1.90234-7.76954-1.72852-7.46289-1.67578-7.63867-1.54102-7.47851-1.48828-7.68164-1.39648-7.72852-1.29492-7.69727-1.18164-7.58593-1.13086-7.91602-.99414-7.62305-.91797-7.773433-.82422-7.810547-.71485-7.669922-.64453-7.992187-.52338-7.681641-.43946-7.861328-.34765-8.013672-.23828-7.722656-.14649-7.894532-.0488-7.90039.0488-7.898438.14649-7.892578.23828-7.7265622.34765-8.0234376.43946-7.8613282.52539-7.683594.64453-7.99414.71289-7.65625.82226-7.792969.92188-7.810547.99219-7.603516 1.13086-7.917968 1.17578-7.560547 1.30468-7.75 1.38868-7.675781 1.41015-7.292969.91016-9.273437-.82617-9.2832-2.53516-8.96875-4.15625-8.3418-5.63086-7.42578-6.91211-6.25195-7.95117-4.86133-8.7168-3.29883-9.17773-1.62695zm1346.2695 242.941404-9.0625 2.169922-8.5058 3.8125-7.6485 5.326172-6.5273 6.652342-5.1797 7.74609-3.6504 8.57618-1.7266 7.31445-.014-.002-.035.21484v.004.0254l-1.3008 7.72656-1.3965 7.72852-1.4883 7.68164-1.541 7.47851-1.6758 7.63867-1.7285 7.46289-1.9023 7.76954-1.9024 7.37304-2.043 7.53516-2.1035 7.4043-2.2246 7.48437-2.2656 7.29883-2.4043 7.41601-2.4941 7.38868-2.5508 7.25976-2.6719 7.32031-2.7578 7.2793-2.8379 7.2168-2.9375 7.21679-2.9688 7.04297-3.1113 7.13868-3.164 7.02539-3.2207 6.92773-3.3985 7.07617-3.4219 6.91016-3.5703 6.99414-3.5937 6.83203-3.6406 6.7207-3.8262 6.86719-3.8438 6.70117-3.9531 6.70117-4.0078 6.60743-4.0918 6.5625-4.1738 6.51757-4.2793 6.50391-4.3828 6.48828-4.4883 6.47071-4.4219 6.21289-4.6504 6.36523-4.6523 6.20313-4.8692 6.33007-2.5605 3.2461-5.0645 7.82226-3.5273 8.62696-1.8633 9.13281-.1348 9.31836 1.5957 9.18164 3.2715 8.72656 4.834 7.96875 6.2285 6.93164 7.4082 5.65625 8.3282 4.18164 8.9609 2.56446 9.2793.85742 9.2793-.88086 8.9531-2.58594 8.3184-4.20312 7.3926-5.67383 5.25-5.6875 2.8124-3.56446.1895-.24218.1875-.24414 5.1367-6.67774.1875-.24219.1836-.24609 5.0508-6.73437.1836-.2461.1816-.24805 4.9629-6.79101.1797-.24805.1797-.25 4.875-6.84765.1777-.25.1739-.25196 4.789-6.90234.1739-.25195.1718-.25391 4.6992-6.95508.1719-.2539.1699-.25586 4.6114-7.00782.1679-.25586.1641-.25781 4.5234-7.06054.1661-.25782.1621-.25976 4.4336-7.11133.1621-.25977.1582-.26172 4.3437-7.1621.1582-.26172.1563-.26368 4.2558-7.21093.1543-.26367.1524-.26563 4.164-7.25977.1524-.26562.1484-.26563 4.0742-7.30859.1485-.26758.1465-.26758 3.9824-7.35546.1465-.26758.1406-.27149 3.8926-7.40039.1425-.26953.1387-.27148 3.8008-7.44727.1387-.27148.1347-.27344 3.709-7.49024.1367-.27343.1309-.27344 3.6172-7.53516.1308-.27343.1289-.27735 3.5254-7.57617.127-.27539.125-.2793 3.4316-7.61718.125-.27735.1231-.2793 3.3359-7.6582.1231-.28125.1172-.27929 3.2441-7.69922.1191-.28125.1153-.28125 3.1484-7.73828.1152-.28126.1114-.28515 3.0566-7.77539.1113-.2832.1075-.28516 2.9609-7.8125.1074-.28516.1055-.28515 2.8652-7.84961.1035-.28711.1016-.28711 2.7695-7.88477.1016-.28711.098-.28906 2.6739-7.91992.098-.28711.094-.29102 2.5781-7.95312.094-.28906.09-.29297 2.4805-7.98438.092-.29101.086-.29297 2.3848-8.01758.086-.29297.084-.29297 2.2871-8.04883.084-.29492.08-.29492 2.1875-8.07812.08-.29493.076-.29492 2.0918-8.10937.076-.29493.072-.29687 1.9922-8.13672.072-.29687.07-.29883 1.8926-8.16406.07-.29883.065-.29883 1.7949-8.18945.064-.30078.062-.29883 1.6953-8.2168.062-.30078.057-.30078 1.5957-8.24024.059-.30273.055-.30078 1.4941-8.26563.055-.30273.051-.30274 1.3945-8.28711.051-.30273.047-.30469.061-.38672.5684-9.30273-1.168-9.24609-2.8633-8.86915-4.4609-8.18359-5.9004-7.21289-7.1367-5.99414-8.127-4.564453-8.8301-2.976563-9.2324-1.287109zm-1207.94723 329.742186-8.80274 3.06641-8.07812 4.64453-7.07813 6.06445-5.82812 7.27149-4.37891 8.22851-2.77344 8.89649-1.07617 9.25781.66211 9.29687 2.375 9.01172 4.00586 8.41406 4.46484 6.32032 2.28907 2.75976.19726.23633.20117.23633 5.47657 6.4375.20117.23633.20312.23242 5.5625 6.37695.20313.23242.20508.23047 5.64648 6.31446.20703.23047.20899.22851 5.73046 6.25.20899.22852.21289.22656 5.81445 6.18555.21094.22656.21484.22265 5.89844 6.1211.21485.22265.21874.22071 5.98047 6.05469.2168.2207.2207.21875 6.05469 5.98047.2207.21875.22461.21484 6.1211 5.89649.22265.21484.22657.21289 6.18554 5.81445.22657.21094.22656.21094 6.25195 5.73047.22852.20898.23047.20508 6.31445 5.64844.23047.20507.23242.20313 6.37695 5.5625.23242.20312.23438.19922 6.43945 5.47852.23438.19922.23828.19726 6.5 5.39453.23633.19532.24023.19531 6.56055 5.30664.23828.19336.24219.19141 6.61914 5.22265.24218.18945.24219.1875 6.67774 5.13672.24414.1875.24609.1836 6.73438 5.04883.24609.18554.24805.18164 6.79101 4.96094.24805.18164.25.17774 6.84766 4.875.25.17968.25195.17383 6.90039 4.78711.25195.17578.25391.17188 6.95703 4.69922.25391.17187.25586.16797 7.00781 4.61133.25586.16992.25781.16406 7.06055 4.52344.25781.16406.25976.16211 7.11133 4.43359.25977.16211.26172.16016 7.16211 4.34375.26172.1582.26367.15625 7.21094 4.25391.26367.15625.26367.15234 7.26172 4.16407.26367.15234.26758.14844 7.30859 4.07422.26563.14843.26953.14453 7.35547 3.98438.26757.14453.26954.14258 7.40234 3.89258.26953.14258.27149.13867 7.44531 3.80078.27148.13867.27344.13477 7.49023 3.70898.27344.13477.27539.13281 7.53321 3.61719.27539.13086.27734.1289 7.57617 3.52344.27539.12891.27735.125 7.61914 3.43164.27734.125.2793.12109 7.6582 3.33789.2793.12109.28125.11915 7.69922 3.24414.27929.11718.28321.11524 7.73632 3.15039.28321.11523.2832.11133 7.45117 2.92773 8.95313 2.58594 9.27929.87696 9.2793-.85743 8.96094-2.5664 8.32617-4.1836 7.4082-5.6582 6.22657-6.93164 4.83398-7.96875 3.26953-8.72852 1.5957-9.18164-.13867-9.31836-1.86523-9.13086-3.52735-8.62695-5.0664-7.82226-6.42969-6.7461-7.57031-5.43554-6.96289-3.37891-7.16602-2.81445-7.26758-2.96094-7.04296-2.9668-7.06446-3.08008-6.96875-3.13671-7.24609-3.3711-6.88477-3.30469-6.91406-3.42382-6.93359-3.53907-6.83008-3.59179-6.78516-3.67383-6.86133-3.82617-6.70312-3.84375-6.65625-3.92774-6.6543-4.03515-6.55859-4.08789-6.62891-4.24805-6.4668-4.25391-6.41601-4.33594-6.36719-4.41406-6.41406-4.56836-6.36133-4.64844-6.28125-4.71093-6.15625-4.73828-6.02734-4.75586-6.1211-4.95117-6.07812-5.04493-5.83985-4.96875-6.0371-5.26367-5.81446-5.20312-5.74804-5.26758-5.7754-5.42969-5.6289-5.42187-5.72852-5.65821-5.41992-5.48828-5.57812-5.78906-5.34375-5.6875-5.35352-5.83984-5.12109-5.72657-5.20313-5.96484-5.10937-6.00586-2.06836-2.49219-6.59375-6.58789-7.70117-5.24805-8.54102-3.72851-9.08594-2.07813-9.3125-.35546zm870.79683 155.57813-8.9746 2.50781-6.9902 3.32031-3.457 1.98047-6.8672 3.83008-6.7852 3.67383-6.8301 3.59179-6.9335 3.53907-6.9141 3.42382-6.8848 3.30469-7.2461 3.3711-6.9687 3.13671-7.0645 3.08008-7.0429 2.9668-7.2676 2.95898-7.25 2.84961-7.1485 2.70899-7.3691 2.68945-7.2109 2.5332-7.4375 2.51172-7.2715 2.35742-7.5899 2.35743-7.3789 2.19335-7.3222 2.08008-7.5332 2.04102-7.5606 1.94922-7.4433 1.82226-7.6485 1.77539-7.4824 1.63868-7.8066 1.61132-7.6797 1.48438-7.5254 1.36133-7.5723 1.27343-7.8945 1.22852-7.6094 1.08789-7.7812 1.01758-7.6329.90039-7.9433.83984-7.8242.72657-7.67.61914-8.0039.54492-7.8515.4375-7.7207.33398-7.8789.2461-8.125.15039-9.2618 1.04101-8.9082 2.74219-8.2421 4.34766-7.29497 5.80078-6.08984 7.05469-4.67578 8.0625-3.09766 8.78906-1.41406 9.21289.32226 9.31445 2.04493 9.0918 3.69531 8.55664 5.2207 7.7207 6.56051 6.61719 7.6778 5.28516 8.5234 3.76953 9.0742 2.12109 7.7246.45508 8.4161-.15625.3085-.006.3106-.01 8.4863-.26171.3086-.01.3106-.0137 8.4707-.36719.3105-.0137.3086-.0176 8.457-.47266.3086-.0176.3086-.0195 8.4434-.57617.3066-.0215.3086-.0254 8.4258-.67969.3086-.0234.3066-.0293 8.4102-.78321.3066-.0273.3067-.0332 8.3906-.88477.3066-.0332.3067-.0352 8.3711-.98828.3066-.0352.3047-.041 8.3535-1.08985.3047-.0391.3047-.0449 8.332-1.19141.3047-.043.3027-.0469 8.3125-1.29297.3028-.0469.3027-.0508 8.2891-1.39453.3027-.0508.3008-.0547 8.2656-1.49609.3028-.0527.3007-.0586 8.2422-1.5957.3008-.0586.2988-.0606 8.2168-1.69531.3008-.0625.2988-.0645 8.1914-1.79492.2989-.0664.2968-.0684 8.1641-1.89454.2988-.0684.2969-.0723 8.1367-1.99219.2969-.0723.2949-.0781 8.1094-2.08984.2949-.0762.2949-.0801 8.0801-2.18946.2949-.0801.293-.082 8.0488-2.2871.293-.084.293-.0859 8.0176-2.38476.2929-.0879.291-.0899 7.9864-2.48047.291-.0918.289-.0937 7.9532-2.57617.291-.0957.289-.0976 7.918-2.67383.2891-.0977.289-.0996 7.8829-2.76953.289-.10156.2852-.10547 7.8496-2.86523.2871-.10352.2851-.10937 7.8126-2.95899.2851-.10937.2832-.11133 7.7754-3.05469.2832-.11133.2832-.11523 7.7363-3.15039.2832-.11524.2793-.11718 7.6993-3.24414.2812-.11915.2793-.12109 7.6582-3.33789.2793-.12109.2773-.125 7.6192-3.43164.2773-.125.2754-.12891 7.5762-3.52344.2773-.1289.2754-.13086 7.5332-3.61719.2754-.13281.2735-.13477 7.4902-3.70898.2734-.13477.2715-.13867 7.4453-3.80078.2715-.13867.2695-.14258 7.4024-3.89258.2695-.14258.2676-.14453 7.3555-3.98438.2695-.14453.2656-.14843 7.3086-4.07422.2676-.14844.2637-.15234 3.748-2.15039 7.6152-5.36915 6.4883-6.6914 5.1328-7.7793 3.6016-8.5957 1.9434-9.11524.2168-9.3164-1.5157-9.19531-3.1953-8.75586-4.7656-8.00977-6.168-6.98633-7.3593-5.71875-8.2911-4.25586-8.9375-2.64258-9.2734-.9375zm-332.3671-1469.89649-10.8711.0684-.3086.002-.3106.006-10.8554.20118-.3106.006-.3105.01-10.83793.33594-.31055.01-.3086.0137-10.82226.46875-.30859.0137-.31055.0176-10.80274.60351-.30859.0176-.30859.0195-10.78516.73633-.30664.0215-.30859.0234-10.76368.86914-.30664.0254-.30859.0273-10.74219 1-.30664.0293-.30664.0312-10.71875 1.13086-.30664.0332-.30469.0352-10.69531 1.26172-.30664.0371-.30469.0391-10.66992 1.39258-.30469.041-.30468.043-10.64258 1.52149-.30469.043-.30469.0488-10.61523 1.65039-.30469.0488-.30273.0508-10.58789 1.77929-.30079.0508-.30273.0547-10.55859 1.91016-.30079.0547-.30078.0586-10.52929 2.03711-.30078.0586-.29883.0605-10.4961 2.16601-.30078.0606-.29883.0664-10.46289 2.29101-.29882.0664-.29688.0684-10.42969 2.41992-.29687.0684-.29688.0723-10.39453 2.54687-.29687.0723-.29688.0762-9.83398 2.53515-8.76758 3.15821-8.03125 4.73047-7.01172 6.13867-5.75195 7.33398-4.29102 8.27344-2.67969 8.92578-.97851 9.26758.75976 9.28906 2.47071 8.98633 4.09375 8.37305 5.57812 7.46679 6.86524 6.30079 7.91797 4.91796 8.6914 3.36328 9.16406 1.69336 9.32032-.0391 7.62109-1.34765 9.5625-2.46485 9.73242-2.38281 9.875-2.29297 9.9043-2.16797 9.94141-2.04883 9.78711-1.89453 10.02539-1.81445 9.84179-1.6543 10.19727-1.58789 9.91601-1.41797 10.09766-1.3164 10.0957-1.19141 10.13868-1.07031 10.15624-.94531 10.15821-.81836 10.1914-.69336 10.19922-.56836 10.22657-.44336 10.07228-.3125 10.25-.18945 10.2617-.0645 10.2617.0645 10.25.18945 10.0723.3125 10.2265.44336 10.1993.56836 10.1914.69336 10.1582.81836 10.1562.94531 10.1387 1.07031 10.0957 1.19141 10.0977 1.3164 9.916 1.41797 10.1972 1.58789 9.8418 1.6543 10.0254 1.81445 9.7871 1.89453 9.9414 2.04883 8.8926 1.94727 9.25 1.13867 9.3008-.59961 9.0273-2.31445 8.4415-3.95117 7.5624-5.44727 6.418-6.75586 5.0547-7.83203 3.5117-8.63086 1.8496-9.13477.1231-9.32031-1.6094-9.17969-3.2851-8.7207-4.8458-7.96094-6.2402-6.92187-7.416-5.64649-8.334-4.16992-7.4082-2.23633-9.1523-2.0039-.2989-.0664-.3007-.0606-10.4961-2.16601-.2989-.0605-.3007-.0586-10.5293-2.03711-.3008-.0586-.3008-.0547-10.5586-1.91016-.3027-.0547-.3008-.0508-10.5879-1.77929-.3027-.0508-.3047-.0488-10.6153-1.65039-.3046-.0488-.3047-.043-10.6426-1.52149-.3047-.043-.3047-.041-10.6699-1.39258-.3047-.0391-.3066-.0371-10.6954-1.26172-.3046-.0352-.3067-.0332-10.7187-1.13086-.3067-.0312-.3066-.0293-10.7422-1-.3086-.0273-.3066-.0254-10.7637-.86914-.3086-.0234-.3066-.0215-10.7852-.73633-.3086-.0195-.3086-.0176-10.8027-.60351-.3106-.0176-.3086-.0137-10.8222-.46875-.3086-.0137-.3106-.01-10.8379-.33594-.3105-.01-.3106-.006-10.8554-.20118-.3106-.006-.3086-.002-10.8711-.0684-.3105-.002zm512.207 169.9043-9.1172 1.93359-8.5996 3.5918-7.7832 5.125-6.6973 6.48047-5.3789 7.61133-3.873 8.47851-2.2325 9.04688-.5136 9.30664 1.2226 9.23828 2.9141 8.85351 4.5078 8.15625 5.9434 7.17969 5.875 5.03516 2.6347 1.92578 8.1778 6.12891 7.9043 6.08007 8.1113 6.40039 7.8633 6.36133 7.791 6.46289 7.793 6.63086 7.7324 6.7461 7.4765 6.6875 7.6504 7.01172 7.4102 6.96484 7.3281 7.06055 7.3262 7.23437 7.1601 7.25 7.1368 7.40625 7.0332 7.48438 6.7949 7.41015 6.8379 7.64453 6.7402 7.72657 6.5547 7.70312 6.541 7.88477 6.3652 7.86523 6.2598 7.93359 6.291 8.17969 6.0586 8.08008 5.9512 8.14453 5.8457 8.21094 5.748 8.28125 5.711 8.45117 5.5351 8.41406 5.4278 8.47071 5.3886 8.64257 5.2813 8.70704 5.0664 8.58984 5.002 8.7207 4.8886 8.76563 4.8457 8.94922 4.6387 8.81836 4.5625 8.93945 2.3301 4.69922 4.8945 7.93164 6.2832 6.88281 7.4512 5.59766 8.3613 4.11914 8.9785 2.49609 9.2871.78516 9.2715-.95313 8.9336-2.65429 8.2852-4.26758 7.3476-5.73242 6.1582-6.99415 4.7539-8.01757 3.1817-8.75977 1.5019-9.19726-.2304-9.31836-1.9571-9.11133-2.8867-7.17969-2.4199-4.88867-.1367-.27344-.1387-.27148-4.8535-9.51172-.1387-.27149-.1426-.26953-4.9726-9.45312-.1407-.27149-.1464-.26758-5.0879-9.39453-.1465-.26953-.1484-.26562-5.2032-9.33594-.1504-.26562-.1504-.26563-5.3203-9.27539-.1523-.26367-.1563-.26367-5.4336-9.2129-.1562-.26171-.1582-.26172-5.5488-9.14844-.1602-.26172-.1601-.25976-5.6641-9.08399-.1621-.25976-.166-.25782-5.7774-9.01953-.164-.25781-.17-.25586-5.8906-8.95312-.168-.25586-.1718-.25391-6.002-8.88477-.1719-.2539-.1757-.25196-6.1153-8.8164-.1758-.25196-.1777-.25-6.2266-8.74414-.1796-.25195-.1797-.24609-6.3399-8.67578-.1816-.24805-.1836-.24609-6.4492-8.60157-.1856-.24609-.1875-.24414-6.5605-8.5293-.1875-.24414-.1895-.24219-6.6699-8.45507-.1914-.24024-.1934-.24023-6.7812-8.37891-.1934-.24023-.1972-.23633-6.8887-8.30274-.1973-.23828-.1992-.23437-6.998-8.22461-.1993-.23633-.2031-.23242-7.1055-8.14649-.2031-.23242-.2051-.23047-7.2148-8.0664-.2051-.23047-.209-.22656-7.3203-7.98438-.209-.22852-.2128-.22656-7.4278-7.90234-.2109-.22461-.2149-.22461-7.5332-7.81836-.2148-.22266-.2188-.2207-7.6386-7.73437-.2188-.22071-.2207-.21875-7.7344-7.63867-.2207-.21875-.2226-.21484-7.8203-7.53321-.2227-.21484-.2246-.21289-7.9043-7.42578-.2246-.21289-.2285-.20899-7.9844-7.32031-.2285-.20898-.2305-.20703-8.0664-7.21289-.2285-.20508-.2344-.20313-8.1445-7.10547-.2344-.20312-.2344-.20117-8.2246-6.9961-.2343-.20117-.2383-.19726-8.3028-6.88868-.2363-.19531-.2402-.19531-8.3789-6.7793-.2403-.19336-.2421-.1914-8.4551-6.66993-.2403-.1914-.2441-.1875-8.5293-6.56055-.2441-.1875-.2461-.18359-8.6016-6.44922-.2461-.18555-.248-.17969-2.9082-2.125-8.0039-4.77343-8.752-3.20508-9.1934-1.52539zm-1062.6797 20.11523-9.06836 2.15039-8.50977 3.79883-6.42773 4.3086-2.33789 1.84375-.24219.1914-.24024.19336-8.3789 6.7793-.24024.19531-.23632.19531-8.30274 6.88868-.23828.19726-.23437.20117-8.22461 6.9961-.23438.20117-.23437.20312-8.14453 7.10547-.23438.20313-.22852.20508-8.0664 7.21289-.23047.20703-.22852.20898-7.98437 7.32031-.22852.20899-.22461.21289-7.90429 7.42578-.22461.21289-.22266.21484-7.82031 7.53321-.22266.21484-.2207.21875-7.73438 7.63867-.2207.21875-.21875.22071-7.63867 7.73437-.21875.2207-.21484.22266-7.53321 7.81836-.21484.22461-.21094.22461-7.42773 7.90234-.21289.22656-.20899.22852-7.32031 7.98438-.20898.22656-.20508.23047-7.21485 8.0664-.20507.23047-.20313.23242-7.10547 8.14649-.20312.23242-.19922.23633-6.99805 8.22461-.19922.23437-.19726.23828-6.88868 8.30274-.19726.23633-.19336.24023-6.78125 8.37891-.19336.24023-.19141.24024-6.66992 8.45507-.18945.24219-.1875.24414-6.56055 8.5293-.1875.24414-.18555.24609-6.44921 8.60157-.1836.24609-.18164.24805-6.33984 8.67578-.17969.24609-.17969.25195-6.22656 8.74414-.17773.25-.17578.25196-6.11524 8.8164-.17578.25196-.17188.2539-6.00195 8.88477-.17187.25391-.16797.25586-5.89063 8.95312-.16992.25586-.16406.25781-5.77735 9.01953-.16601.25782-.16211.25976-5.66406 9.08399-.16016.25976-.16016.26172-5.54882 9.14844-.15821.26172-.15625.26171-5.43359 9.2129-.15625.26367-.15234.26367-5.32032 9.27539-.15039.26563-.15039.26562-5.20312 9.33594-.14844.26562-.14649.26953-5.08789 9.39453-.14648.26758-.14063.27149-4.97265 9.45312-.14258.26953-.13867.27149-4.85352 9.51172-.13867.27148-.13672.27344-4.73633 9.56836-.13671.27344-.13086.27539-4.6211 9.62304-.13086.27539-.1289.27539-4.50196 9.67774-.12695.27734-.12695.27735-2.59961 5.77539-3.01953 8.8164-1.33008 9.22461.40625 9.3125 2.125 9.07227 3.77344 8.52344 5.28906 7.67382 6.62109 6.5586 7.72461 5.21484 8.55664 3.69141 9.09375 2.04101 9.31446.31641 9.21093-1.41797 8.78907-3.10156 8.06054-4.67969 7.05078-6.09375 5.79688-7.29687 3.71484-6.78907 2.47461-5.49609 4.28906-9.21875 4.33985-9.03711 4.48633-9.05469 4.56054-8.93554 4.63868-8.81836 4.8457-8.94922 4.88867-8.76563 5.00195-8.7207 5.06641-8.58984 5.28125-8.70704 5.38867-8.64257 5.42774-8.47071 5.53515-8.41406 5.71094-8.45117 5.74805-8.28125 5.8457-8.21094 5.95117-8.14453 6.0586-8.08008 6.29101-8.17969 6.25977-7.93359 6.36523-7.86523 6.54102-7.88477 6.55468-7.70312 6.74024-7.72657 6.83789-7.64453 6.79492-7.41015 7.0332-7.48438 7.13672-7.40625 7.16016-7.25 7.32617-7.23437 7.32813-7.06055 7.41015-6.96484 7.65039-7.01172 7.47656-6.6875 7.73243-6.7461 7.79297-6.63086 7.79101-6.46289 7.86914-6.36719 2.13477-1.68554 6.74609-6.42774 5.4375-7.57031 3.9375-8.44726 2.30078-9.03125.58594-9.30079-1.15039-9.24804-2.84766-8.875-4.44531-8.19141-5.88867-7.22461-7.125-6.00586-8.11719-4.58008-8.82617-2.99218-9.22852-1.30469zm1417.2148 644.613284-9.041 2.269532-8.4609 3.90625-7.5879 5.410156-6.4551 6.724609-5.0918 7.804688-3.5566 8.613281-1.8965 9.125-.2637 7.734375.3477 8.0371094.3183 10.2363281.1914 10.2441405.062 10.261719-.062 10.257812-.1914 10.246094-.3183 10.232422-.4434 10.214844-.5703 10.207031-.6953 10.177734-.8223 10.189453-.9297 9.990238-1.0683 10.11914-1.1953 10.13476-1.3145 10.07032-1.4414 10.07226-1.5351 9.86914-1.6914 10.05078-1.8028 9.97071-1.9043 9.84179-2.0488 9.93946-2.1641 9.875-2.2636 9.76367-2.4473 9.99023-2.4941 9.66602-2.5977 9.59375-2.7773 9.7793-2.8848 9.69726-3.002 9.66602-3.0722 9.47851-3.252 9.62695-3.3711 9.59376-3.3965 9.30273-3.6035 9.50781-3.5879 9.13281-3.8652 9.49415-3.8906 9.23046-4.0625 9.32227-4.0899 9.07812-4.2871 9.21875-4.3105 8.97461-4.5137 9.11524-4.6641 9.13476-3.4453 8.66016-1.7773 9.14844-.049 9.32031 1.6796 9.16602 3.3536 8.69726 4.9082 7.92188 6.2949 6.87304 7.459 5.58594 8.3671 4.10547 8.9844 2.48047 9.2871.77148 9.2696-.96679 8.9297-2.66993 8.2773-4.28125 7.3418-5.74218 6.1465-7.00586 4.041-6.59961 4.8457-9.4961.1387-.27148.1367-.27344 4.7363-9.56836.1367-.27344.1309-.27343 4.6211-9.625.1308-.27344.129-.27734 4.5019-9.67774.127-.27539.1269-.2793 4.3809-9.73046.1269-.27735.1211-.27929 4.2637-9.78321.1211-.27929.1191-.28126 4.1426-9.83203.1191-.28125.1153-.2832 4.0234-9.88281.1133-.28321.1133-.2832 3.9023-9.93164.1114-.2832.1074-.28516 3.7812-9.98047.1094-.28515.1035-.28516 3.6602-10.02734.1054-.28516.1-.28906 3.5391-10.07031.1016-.28907.098-.28711 3.4141-10.11718.098-.28907.094-.28906 3.293-10.1582.094-.29102.092-.29101 3.168-10.20117.092-.29102.086-.29297 3.0449-10.24023.088-.29297.084-.29492 2.9199-10.2793.084-.29492.08-.29493 2.7949-10.31835.08-.29493.076-.29687 2.6718-10.35742.076-.29493.072-.29687 2.5449-10.39453.072-.29688.07-.29687 2.4179-10.42969.07-.29883.064-.29883 2.293-10.46289.064-.29882.062-.29883 2.1641-10.4961.062-.30078.059-.30078 2.0371-10.52734.059-.30078.055-.30078 1.9082-10.5586.055-.30273.051-.30274 1.7812-10.58789.051-.30273.047-.30274 1.6523-10.61718.047-.30274.043-.30469 1.5235-10.64257.043-.30469.041-.30469 1.3906-10.66992.041-.30664.035-.30469 1.2617-10.69531.037-.30664.031-.30469 1.1309-10.7207.033-.30664.029-.30664.9981-10.74219.029-.30664.025-.30664.8672-10.763674.025-.308594.022-.308594.7344-10.783203.022-.308594.017-.308593.6036-10.804688.016-.308594.014-.308594.4707-10.822265.014-.308594.01-.310547.3359-10.839844.01-.308593.01-.310547.2011-10.855469.01-.310547v-.310547l.068-10.86914-.025-.279297.025-.341797-.068-10.871094v-.310547l-.01-.310546-.2011-10.8554692-.01-.3085938-.01-.3105469-.3359-10.8398437-.01-.3085938-.014-.3085937-.3633-8.3808589-1.2715-9.234376-2.9609-8.835937-4.5508-8.132813-5.9805-7.148437-7.2031-5.914063-8.1758-4.474609-8.8633-2.878906-9.2441-1.183594zm-1746.5234 32.574219-9.14062 1.818359-8.64453 3.482422-7.84766 5.027344-6.7793 6.394531-5.47265 7.5429691-3.98047 8.4277344-2.345704 9.0195315-.646485 7.710937-.050781 8.058594v.310547.310547l.06836 10.86914.002.310547.0059.310547.201172 10.855469.0059.310547.0098.308593.335937 10.839844.0098.310547.01367.308594.470701 10.822265.0137.308594.0156.308594.60352 10.804688.0176.308593.0215.308594.73438 10.783203.0215.308594.0254.308594.86719 10.763674.0254.30664.0293.30664.99804 10.74219.0293.30664.0332.30664 1.13086 10.7207.0312.30469.0371.30664 1.26172 10.69531.0352.30469.041.30664 1.39063 10.66992.041.30469.043.30469 1.52344 10.64257.043.30469.0469.30274 1.65235 10.61718.0469.30274.0508.30273 1.78125 10.58789.0508.30274.0547.30273 1.90821 10.5586.0547.30078.0586.30078 2.03711 10.52734.0586.30078.0625.30078 2.16406 10.4961.0625.29883.0645.29882 2.29296 10.46289.0645.29883.0703.29883 2.41797 10.42969.0703.29687.0723.29688 2.54492 10.39453.0723.29687.0762.29493 2.67187 10.35742.0762.29687.0801.29493 2.79492 10.31835.0801.29493.084.29492 2.91992 10.2793.084.29492.0879.29297 3.04492 10.24023.0859.29297.0918.29102 3.16797 10.20117.0918.29101.0937.29102 3.29297 10.1582.0937.28906.0977.28907 3.41406 10.11718.0977.28711.10156.28907 3.53906 10.07031.0996.28906.10547.28516 3.66016 10.02734.10351.28516.10938.28515 3.78125 9.98047.10742.28516.11133.2832 3.90234 9.93164.11328.2832.11328.28321 4.02344 9.88281.11524.2832.11914.28125 4.14258 9.83203.11914.28126.12109.27929 4.26367 9.78321.1211.27929.12695.27735 4.38086 9.73046.12695.2793.12695.27539 4.50196 9.67774.1289.27734.13086.27344 4.6211 9.625.13086.27343.13671.27344 4.73633 9.56836.13672.27344.13867.27148 1.1836 2.31836 4.99218 7.8711 6.36524 6.80664 7.51953 5.50586 8.41016 4.01562 9.00781 2.38672 9.29687.67188 9.25782-1.06446 8.90039-2.76562 8.23242-4.36719 7.2793-5.82031 6.07226-7.07032 4.6543-8.07421 3.07617-8.79883 1.38867-9.21485-.34375-9.3125-2.06836-9.08789-2.97461-7.14453-.99804-1.95703-4.51563-9.11719-4.31054-8.97461-4.28711-9.21875-4.08985-9.07812-4.0625-9.32227-3.89062-9.23046-3.86524-9.49415-3.58788-9.13281-3.60351-9.50781-3.39649-9.30273-3.37109-9.59376-3.25196-9.62695-3.07226-9.47851-3.00195-9.66602-2.88477-9.69726-2.77735-9.7793-2.59765-9.59375-2.49414-9.66602-2.44727-9.99023-2.26367-9.76367-2.16406-9.875-2.04883-9.93946-1.9043-9.84179-1.80273-9.97071-1.69141-10.05078-1.53515-9.86914-1.44141-10.07226-1.31445-10.07032-1.19531-10.13476-1.06836-10.11914-.92969-9.990238-.82227-10.189453-.69531-10.177734-.57031-10.207031-.44336-10.214844-.31837-10.232422-.1914-10.246094-.0625-10.259765.0469-7.746094-.81055-9.285156-2.51953-8.9726565-4.14258-8.3476563-5.61914-7.4355472-6.90038-6.263671-7.94337-4.875-8.71094-3.314454-9.17382-1.640625zm311.81836 684.572267-8.80468 3.05469-8.08594 4.63671-7.08203 6.05665-5.83789 7.26562-4.38672 8.22266-2.78321 8.89453-1.08593 9.25781.65039 9.29688 2.36718 9.01367 3.9961 8.41992 5.49023 7.53125 5.55469 5.38672 1.81641 1.50586.23632.19726.24024.19336 8.3789 6.7793.24024.19531.24219.18946 8.45507 6.66992.24024.1914.24414.1875 8.5293 6.56055.24414.1875.24609.18359 8.60156 6.45118.2461.18359.24804.18164 8.67579 6.33789.24804.18164.25.17774 8.7461 6.22851.25.17774.25195.17578 8.81641 6.11523.25.17383.25586.17187 8.88476 6.00391.25391.17188.25586.16796 8.95117 5.89063.25586.16797.25781.16601 9.01953 5.77735.25781.16406.25977.16211 9.08398 5.66406.25977.16211.26172.1582 9.14844 5.55079.26171.1582.26368.1543 9.21093 5.43554.26368.15625.26562.15235 9.27344 5.31836.26562.15234.26563.14844 9.33594 5.20508.26757.14843.26758.14649 9.39453 5.08789.26953.14453.26954.14258 9.45312 4.97265.27149.14063.27148.13867 9.51172 4.85547.27148.13867.27344.13477 9.56641 4.73828.27343.13476.27539.13282 9.62305 4.61914.27539.13281.27539.12891 9.67774 4.5.27734.1289.27734.125 9.73047 4.38281.2793.125.2793.12305 9.78125 4.26172.28125.12305.27929.11718 9.83399 4.14453.28125.11719.28125.11524 9.88476 4.02343.28125.11524.28516.11133 9.93164 3.90234.2832.11328.28516.10742 9.98047 3.78125.2832.10743.28711.10546 10.02539 3.66016.28711.10352.28711.10156 10.07227 3.53906.28711.0996.28906.0977 10.11523 3.41601.28906.0977.29102.0937 10.1582 3.29297.29102.0937.29102.0898 10.19921 3.16992.29297.0899.29102.0879 10.24219 3.04492.29296.0879.29297.082 10.28125 2.92188.29493.084.29492.0801 10.31836 2.79492.29492.0801.29687.0762 10.35547 2.67188.29688.0762.29687.0723 10.39453 2.54492.29688.0723.29687.0703 10.42969 2.41797.29688.0684.29882.0664 9.18164 2.01172 9.25196 1.13672 9.29883-.59961 9.02929-2.31446 8.44141-3.94922 7.56055-5.44921 6.41992-6.75586 5.05273-7.83008 3.51367-8.63282 1.84961-9.13476.1211-9.31836-1.60743-9.17969-3.28515-8.72265-4.84766-7.96094-6.23828-6.92188-7.41601-5.64453-8.33594-4.16992-7.4082-2.23633-8.88477-1.94726-9.72656-2.25391-9.88086-2.41992-9.77149-2.51953-9.77539-2.64844-9.63476-2.73633-9.69922-2.88476-9.56445-2.97266-9.58204-3.10352-9.625-3.25-9.40039-3.30273-9.55078-3.48828-9.31445-3.5293-9.46094-3.7168-9.30273-3.7871-9.23047-3.89063-9.32227-4.0625-9.07812-4.08984-9.0918-4.22852-9.10547-4.37109-8.99023-4.45117-8.875-4.5293-9.00586-4.73438-8.82422-4.77929-8.89258-4.95508-8.70898-4.9961-8.77735-5.17968-8.52343-5.16992-8.53321-5.32227-8.58789-5.5-8.4082-5.53125-8.34375-5.63867-8.38477-5.81836-8.21679-5.84961-8.14844-5.95508-8.07422-6.05273-8.10156-6.23047-8.01367-6.32422-7.86329-6.36133-1.57226-1.30469-7.69727-5.25586-8.53711-3.73828-9.08203-2.08789-9.3125-.36523zm1110.81054 4.22461-9.041 2.26367-8.4629 3.90234-6.375 4.38672-3.668 2.9668-8.0136 6.32422-8.1016 6.23047-8.0742 6.05273-8.1485 5.95508-8.2168 5.84961-8.3847 5.81836-8.3438 5.63867-8.4082 5.53125-8.5879 5.5-8.5332 5.32227-8.5234 5.16992-8.7773 5.17968-8.709 4.9961-8.8926 4.95508-8.8242 4.77929-9.0059 4.73438-8.875 4.5293-8.9902 4.45117-9.1055 4.37109-9.0918 4.22852-9.0781 4.08984-9.3223 4.0625-9.2304 3.89063-9.3028 3.7871-9.4609 3.7168-9.3145 3.5293-9.5508 3.48828-9.4003 3.30273-9.625 3.25-9.5821 3.10352-9.5644 2.97266-9.6992 2.88476-9.6348 2.73633-9.7754 2.64844-9.7715 2.51953-9.8808 2.41992-9.7286 2.25586-9.7597 2.13867-6.4121 1.32227-8.9121 2.72461-8.252 4.33203-7.3047 5.78906-6.1035 7.04297-4.6914 8.05273-3.1133 8.78516-1.4297 9.20898.3028 9.31446 2.0273 9.09765 3.6816 8.5625 5.2051 7.73047 6.5488 6.62891 7.6661 5.30078 8.5175 3.7832 9.0704 2.13868 9.3105.41796 7.6777-.97265 6.6075-1.36133.3007-.0625.2989-.0664 10.4629-2.29101.2988-.0664.2969-.0684 10.4296-2.41797.2969-.0703.2969-.0723 10.3945-2.54492.2969-.0723.2969-.0762 10.3554-2.67188.2969-.0762.2949-.0801 10.3184-2.79492.2949-.0801.2949-.084 10.2813-2.92188.293-.082.2929-.0879 10.2422-3.04492.291-.0879.293-.0899 10.1992-3.16992.291-.0898.2911-.0937 10.1582-3.29297.291-.0937.289-.0977 10.1153-3.41601.289-.0977.2871-.0996 10.0723-3.53906.2871-.10156.2871-.10352 10.0254-3.66016.2871-.10546.2832-.10743 9.9805-3.78125.2852-.10742.2832-.11328 9.9316-3.90234.2852-.11133.2812-.11524 9.8848-4.02343.2812-.11524.2813-.11719 9.834-4.14453.2793-.11718.2812-.12305 9.7813-4.26172.2793-.12305.2792-.125 9.7305-4.38281.2774-.125.2773-.1289 9.6777-4.5.2754-.12891.2754-.13281 9.6231-4.61914.2754-.13282.2734-.13476 9.5664-4.73828.2734-.13477.2715-.13867 9.5117-4.85547.2715-.13867.2715-.14063 9.4531-4.97265.2696-.14258.2695-.14453 9.3945-5.08789.2676-.14649.2676-.14843 9.3359-5.20508.2656-.14844.2657-.15234 9.2734-5.31836.2656-.15235.2637-.15625 9.2109-5.43554.2637-.1543.2617-.1582 9.1485-5.55079.2617-.1582.2598-.16211 9.0839-5.66406.2598-.16211.2578-.16406 9.0196-5.77735.2578-.16601.2558-.16797 8.9512-5.89063.2559-.16796.2539-.17188 8.8847-6.00391.2559-.17187.25-.17383 8.8164-6.11523.2519-.17578.25-.17774 8.7461-6.22851.25-.17774.2481-.18164 8.6758-6.33789.248-.18164.2461-.18359 8.6016-6.45118.2461-.18359.2441-.1875 8.5293-6.56055.2441-.1875.2403-.1914 8.4551-6.66992.2421-.18946.2403-.19531 3.9492-3.19531 6.666-6.51172 5.3438-7.63477 3.832-8.49609 2.1914-9.0586.4707-9.30859-1.2656-9.23242-2.9571-8.83789-4.5449-8.13672-5.9765-7.15234-7.1993-5.91797-8.1738-4.47852-8.8613-2.88476-9.2442-1.18946z" transform="translate(0 995.63783)"/></svg>