<svg height="2048" width="2048" xmlns="http://www.w3.org/2000/svg"><path d="m1022.25 99.353516c-2.4444-.001486-4.8896.006203-7.334.023437-412.55826-3.38635-800.77038 306.319967-891.40233 708.550777-87.435157 354.29947 56.64784 752.50467 355.00586 964.28707 296.55573 219.1937 725.95127 237.529 1036.41997 36.0508 305.0591-189.5873 481.9825-565.0961 423.873-920.97263-52.3028-361.10115-335.0078-676.96887-691.4883-760.44727-73.525-18.39907-149.2974-27.446124-225.0742-27.492184zm-10.4824 99.759764c6.6906-.02641 13.3855.03571 20.084.18945 383.3603-3.87012 741.9823 297.90334 803.7617 676.42969 65.3962 341.93438-110.4323 714.48168-420.2031 875.89458-316.7147 174.3003-744.48179 109.0209-990.39653-157.7461-252.12274-260.217-301.10583-691.75431-106.81836-999.08988 144.23074-237.98 414.79699-394.57731 693.57229-395.67774zm16.3965 89.92383c-6.7669-.00917-13.5385.08219-20.3106.27539-353.00047 0-676.46898 292.14597-714.39061 643.10742-45.15482 328.88248 161.72985 671.90008 475.56641 782.31448 297.3222 112.3591 660.5507 5.8058 846.1445-253.4629 200.2793-265.2191 188.7604-667.6435-34.5058-916.04689-136.5107-158.93688-342.7301-255.90318-552.5039-256.1875zm-4.4942 98.04883c4.5118.00676 9.0229.06379 13.5352.16992 312.4619 0 597.2112 263.66167 621.0566 575.30273 32.5756 296.85721-171.1472 599.68241-461.2187 675.70121-279.55714 81.5433-605.01688-54.0835-737.46488-315.0938-142.55534-263.7967-69.4515-624.64691 174.34961-803.33983 110.66779-85.56554 249.87637-132.94979 389.74217-132.74023zm-309.67576 246.8789v25.12696 754.9434h103.55469 412.71287 103.7442v-780.07036zm49.88672 50.07032h520.04684v679.91994h-53.666-412.71287-53.66797zm53.66797 76.54101v49.88477h412.71287v-49.88477zm0 150.60547v50.07813h412.71287v-50.07813zm0 174.03906v49.8945h412.71287v-49.8945zm0 157.2227v49.8964h412.71287v-49.8964z"/></svg>