<svg height="2048" width="2048" xmlns="http://www.w3.org/2000/svg"><path d="m1024 99c-363.757-4.933641-714.24892 229.17005-852.22557 565.19216-144.118834 330.15234-69.23634 740.28314 182.86195 997.77084 242.46368 260.9919 641.95021 356.7855 976.52052 234.6709 346.7397-118.0735 602.7227-458.5932 616.6378-825.0913 23.3394-360.13067-188.5355-719.42128-512.9533-876.29294-127.0345-63.39404-268.8921-96.452643-410.8414-96.24966zm0 100c359.2827-6.24861 700.9839 251.83638 793.7466 598.93035 97.0301 326.90765-34.2142 705.40425-315.9068 899.02415-292.6125 215.0744-726.53965 199.5143-1002.86235-36.1558-278.41405-221.9799-378.07351-632.5757-235.22824-958.18185 123.80746-301.01232 434.5886-507.43803 760.25079-503.61685zm-32.72461 522.17383c-142.92448 100.90949-285.84896 201.81898-428.77344 302.72847 142.93434 100.9607 285.84746 201.9514 428.77344 302.9239 0-97.5716 0-195.1433 0-292.7149 138.01701 97.6523 276.15791 195.1299 414.22261 292.7149 0-201.8841 0-403.76825 0-605.65237-138.0742 97.51042-276.1484 195.02085-414.22261 292.53127 0-97.51042 0-195.02085 0-292.53127zm-50.07812 96.375v412.33207c-97.38281-68.724-194.76563-137.4479-292.14844-206.1719 97.38281-68.72006 194.76563-137.44011 292.14844-206.16017zm414.41403 0v412.71877c-97.3828-68.7884-194.7656-137.5769-292.1484-206.3653 97.3828-68.78449 194.7656-137.56898 292.1484-206.35347z"/></svg>