<svg height="2048" width="2048" xmlns="http://www.w3.org/2000/svg"><path d="m1023.8841-410.66202c-174.48423-2.3799-342.27003 111.3275-406.49153 273.2582-65.7902 155.8008-29.4187 347.5708 88.8851 468.4426 115.0263 123.8297 304.55323 169.4637 463.30543 111.4273 166.3595-56.6747 288.5746-221.2313 292.9783-397.19 8.8625-170.9452-93.875-339.9699-248.5592-412.5671-59.0266-28.5789-124.5461-43.4575-190.1181-43.371zm0 80c159.4805-3.0204 310.6037 114.043 347.727 269.1222 40.6988 149.0185-27.8712 318.9347-161.362 397.0144-136.3004 85.5433-328.46993 62.7465-440.39403-53.1076-118.1139-113.9435-139.1474-311.087-48.5313-447.736 64.1785-101.9465 182.0501-166.4666 302.56033-165.293zm113.4199 102.0176c-39.9674 72.5091-79.9349 145.018199-119.9023 217.5273-37.03243 3.9378-45.82933 60.121-11.6614 75.1054 22.5699 15.6663 40.2472-10.392 60.793-9.494h183.2922c0-16.6667 0-33.3333 0-50-61.3125 0-122.625 0-183.9375 0 38.4017-69.668 76.8034-139.3359 115.2051-209.0039-14.5964-8.0449-29.1927-16.0899-43.7891-24.1348zm-105.9466-664.31066-12.7617.0215h-.3359l-.3379.006-12.7598.19335-.3379.006-.3359.01-12.75588.36523-.33789.01-.33594.0137-12.75.53711-.33593.0156-.33789.0176-12.74024.70899-.33789.0195-.33594.0234-12.73047.88086-.33593.0234-.33594.0273-12.7168 1.05273-.33594.0274-.33593.0312-12.70117 1.22461-.33594.0332-.33594.0352-12.68164 1.39649-.33594.0371-.33594.041-12.66015 1.56641-.33594.041-.33594.0469-12.63476 1.73633-.33594.0469-.33594.0508-12.60937 1.9082-.33594.0508-.33594.0547-12.58008 2.08008-.33593.0547-.33594.0606-12.54687 2.25-.3379.0606-.33398.0644-12.51367 2.41992-.33594.0664-.33594.0684-12.47656 2.59179-.33789.0703-.33398.0742-12.4375 2.76171-.33594.0742-.33594.0801-12.39453 2.93164-.33789.0801-.33399.084-6.6875 1.68165-8.78906 3.10156-8.05859 4.68164-7.05078 6.09375-5.79688 7.29883-4.3418 8.24609-2.73632 8.9082-1.03516 9.26172.70117 9.29492 2.41407 9 4.04296 8.39844 5.5293 7.50195 6.82813 6.34375 7.88476 4.9668 8.67188 3.41797 9.15429 1.74805 9.31836.0215 7.62891-1.30078 6.33594-1.5918 11.69531-2.76562 11.77148-2.61719 11.97657-2.48437 11.72265-2.26758 11.89844-2.13281 11.93555-1.97266 11.83007-1.79102 12.00196-1.65039 11.88476-1.4707 12.05274-1.32617 12.06836-1.16406 12.08984-.99805 12.11133-.83985 11.98047-.66601 12.1289-.50977 12.13286-.34765 11.9921-.18164 12.1407-.0215 12.1328.14258 11.9883.30469 11.9707.46289 12.248.64062 11.9395.78711 12.0742.96094 12.0488 1.12305 12.0274 1.28906 11.8632 1.43359 11.9317 1.60743 11.9511 1.77734 12.0098 1.95898 11.8613 2.10157 11.6622 2.23437 3.0234.62109 9.2637 1.02149 9.2929-.71484 8.9981-2.42774 8.3906-4.05469 7.4922-5.54297 6.334-6.83593 4.957-7.89453 3.4043-8.67579 1.7344-9.15625.01-9.32031-1.7246-9.1582-3.3925-8.67969-4.9473-7.89844-6.3242-6.8457-7.4864-5.55078-8.3867-4.06641-7.4355-2.14257-3.2949-.67774-.3418-.0703-.3418-.0664-12.504-2.39453-.3398-.0644-.3418-.0606-12.5391-2.22266-.3398-.0605-.3418-.0547-12.5723-2.04883-.3398-.0547-.3398-.0508-12.6016-1.875-.3399-.0508-.3417-.0469-12.629-1.70117-.3378-.0469-.3418-.041-12.6524-1.52929-.3398-.041-.3399-.0352-12.6758-1.35743-.3378-.0371-.3399-.0312-12.6953-1.18359-.3398-.0312-.3379-.0273-12.7129-1.01172-.3379-.0273-.3379-.0215-12.7285-.83984-.3379-.0215-.3379-.0176-12.7383-.66797-.3379-.0176-.3379-.0117-12.75-.49414-.3359-.0137-.3379-.008-12.7559-.32226-.3378-.01-.336-.004-12.7598-.15039-.3378-.004zm503.8946 160.92578-9.1114 1.96289-8.5879 3.6211-7.7656 5.15039-6.6758 6.5039-5.3535 7.62891-3.8437 8.49023-2.2012 9.05665-.4824 9.30664 1.2519 9.23437 2.9453 8.84375 4.5352 8.14063 5.9668 7.16015 5.8926 5.01563 3.0117 2.18359.064.0469 5.0157 3.70312.061.0449 4.7031 3.53125.082.0625 4.4316 3.38477.068.0527 4.8183 3.74219 4.7813 3.77734.088.0703 4.5488 3.65625.125.10156 4.4531 3.64258 4.6914 3.90039.1133.0937 4.4297 3.74609 4.3965 3.7793.094.082 4.5899 4.01367 4.5566 4.05274.098.0879 4.3105 3.90234 4.4922 4.13281.1.0918 4.2344 3.96289 4.4238 4.21094 4.1563 4.02344.1113.10937 4.4707 4.4043.031.0312 3.9786 3.98437.084.0859 4.2872 4.36914 4.0918 4.23828.051.0527 4.3301 4.5664.096.10157 3.9805 4.27148 3.9922 4.35547.041.0449 4.2168 4.68359 4.0664 4.59571.094.10547 3.9571 4.55468.055.0625 3.8535 4.51172 3.9629 4.7207 3.7402 4.53126.096.11914 3.8887 4.79882 3.8769 4.86719 3.6602 4.67969.068.0898 3.8809 5.05274.084.10937 3.6523 4.84571.078.10351 3.6933 4.99023.4531.61329.4727.59765 5.4805 6.94727 5.3535 6.94336 5.1777 6.86523 5.0625 6.86914 5.1153 7.09571 4.9804 7.07226 4.8242 7.00781 4.7149 7.00196.064.0977 4.8145 7.32227 4.6816 7.28906 4.6074 7.3457 4.4532 7.26758 4.5351 7.58203 4.2989 7.36524 4.3007 7.55078 4.2227 7.59766 4.0703 7.50781 4.0684 7.68945 3.9453 7.66016 2.6328 5.24219 4.9414 7.90429 6.3203 6.84766 7.4824 5.55664 8.3848 4.07031 8.9922 2.44531 9.291.73243 9.2656-1.00391 8.918-2.70508 8.2617-4.31445 7.3164-5.77344 6.1192-7.0293 4.7089-8.04296 3.1329-8.77735 1.4492-9.20703-.2832-9.31445-2.0078-9.10157-2.9278-7.16406-2.7558-5.48633-.1172-.23242-.1192-.23437-4.2011-8.15039-.1192-.23243-.123-.23242-4.2852-8.10547-.123-.23242-.125-.23047-4.3711-8.06054-.125-.23047-.1289-.23047-4.4551-8.01563-.127-.22851-.1308-.23047-4.5391-7.9668-.1308-.22851-.1328-.22852-4.625-7.91992-.1329-.22852-.1347-.22656-4.709-7.86914-.1348-.22852-.1386-.2246-4.7911-7.82032-.1386-.22656-.1407-.22461-4.873-7.76953-.1426-.22656-.1426-.22266-4.957-7.7168-.1445-.2246-.1465-.22266-5.0371-7.66602-.1465-.22265-.1504-.22266-5.1211-7.60937-.1484-.22266-.1524-.2207-5.2031-7.55664-.1523-.22071-.1543-.21875-5.2832-7.50195-.1543-.21875-.1582-.21875-5.3653-7.44336-.1562-.2207-.1602-.2168-5.4472-7.38672-.1602-.2168-.1621-.21679-5.5254-7.32813-.1641-.21679-.166-.21485-5.6054-7.26758-.1661-.21679-.1699-.21289-5.209-6.60352-3.5058-4.73633-.1309-.17578-.1308-.17578-3.9961-5.29688-.1309-.17382-.1328-.17383-4.0352-5.25195-.1328-.17383-.1328-.17188-4.0723-5.20703-.1347-.17187-.1367-.16993-4.1094-5.16406-.1367-.17187-.1368-.16797-4.1484-5.11914-.1367-.16992-.1387-.16797-4.1875-5.07422-.1387-.16797-.1386-.16602-4.2246-5.03125-.1387-.16601-.1406-.16602-4.2618-4.98633-.1406-.16406-.1426-.16406-4.2968-4.94141-.1426-.16406-.1426-.16016-4.334-4.89843-.1445-.16211-.1445-.16016-4.3692-4.85351-.1445-.16016-.1465-.16016-4.4062-4.80859-.1446-.1582-.1465-.15821-4.4414-4.76562-.1464-.15625-.1485-.15625-4.4765-4.72071-.1485-.15624-.1484-.1543-4.5117-4.67578-.1485-.1543-.1504-.15234-4.5449-4.63282-.1504-.15234-.1504-.15039-4.58-4.58984-.1524-.15039-.1504-.14844-4.6152-4.54492-.1504-.14844-.1543-.14844-4.6465-4.5-.1523-.14844-.1543-.14648-4.6817-4.45508-.1523-.14648-.1543-.14454-4.7149-4.4121-.1543-.14258-.1562-.14453-4.7461-4.36719-.1543-.14258-.1562-.14062-4.7793-4.32422-.1563-.14063-.1562-.14062-4.8125-4.2793-.1563-.13867-.1582-.13867-4.8418-4.23438-.1582-.13867-.1582-.13477-4.873-4.1914-.1582-.13672-.1602-.13477-4.9043-4.14648-.1602-.13477-.1601-.13281-4.9336-4.10352-.1602-.13281-.1621-.13086-4.9648-4.05859-.1602-.13086-.1621-.13086-4.9961-4.01367-.1601-.13086-.1621-.12695-5.0254-3.97071-.1621-.1289-.1621-.125-5.0547-3.92774-.1621-.125-.1641-.125-5.084-3.88281-.1621-.125-.1641-.12305-5.1132-3.83789-.1641-.12304-.1641-.1211-5.1406-3.79492-.1641-.12109-.166-.11914-3.3398-2.42579-8.0215-4.74609-8.7617-3.17578-9.1992-1.49414zm-1067.28325 24.63282-9.07227 2.13476-8.51757 3.7832-6.43555 4.29688-.41992.33008-.16016.12304-.15625.12696-4.98242 3.98047-.1582.12695-.15625.12695-4.95313 4.02344-.15625.12695-.15625.12891-4.92187 4.06641-.15625.1289-.15625.13086-4.89063 4.10742-.15625.13086-.15625.13282-4.85937 4.14843-.1543.13281-.1543.13282-4.82812 4.1914-.15625.13477-.15235.13477-4.79687 4.23242-.1543.13672-.15234.13671-4.76563 4.27539-.15234.13672-.15234.13868-4.73243 4.3164-.15234.13867-.15234.14063-4.69922 4.35937-.15235.14063-.15039.14062-4.66601 4.40039-.15039.14258-.15039.14453-4.63282 4.44141-.15039.14453-.14843.14453-4.59961 4.48438-.15039.14453-.14649.14844-4.56641 4.52539-.14843.14648-.14649.14844-4.53125 4.56641-.14843.15039-.14649.14843-4.49609 4.60938-.14649.15039-.14453.15234-4.46289 4.65039-.14453.15235-.14453.15234-4.42578 4.69336-.14649.1543-.14258.15429-4.39062 4.73438-.14453.1543-.14258.15625-4.35351 4.77539-.14258.1582-.14258.1582-4.31641 4.81641-.14258.1582-.14062.16016-4.28125 4.85937-.14063.16016-.14062.16016-4.24414 4.90039-.13867.16211-.13868.1621-4.20703 4.94336-.13867.16211-.13867.16407-4.16797 4.98437-.13867.16406-.13672.16602-4.13086 5.02539-.13672.16602-.13476.16796-4.09375 5.06641-.13477.16797-.13476.16797-4.05469 5.10937-.13281.16992-.13282.16993-4.01562 5.15039-.13281.16992-.13282.17187-3.97656 5.19141-.13086.17188-.13086.17382-3.9375 5.23243-.1289.17382-.12891.17383-3.89844 5.27539-.1289.17578-.12696.17383-3.85742 5.31836-.12695.17578-.12696.17578-3.8164 5.35938-.12696.17773-.125.17774-3.77539 5.40039-.125.17773-.12304.17969-3.73633 5.44141-.12305.17968-.12109.18164-3.69336 5.48243-.12305.18164-.11914.18164-3.65234 5.52539-.1211.18164-.11914.18359-3.60937 5.56641-.11914.18359-.11719.1836-2.67187 4.20117-2.94336 4.00781-.12891.17578-.12891.17774-3.8789 5.38086-.12891.17773-.125.17773-3.82617 5.4043-.12695.17969-.12305.17773-3.77344 5.42969-.12304.17969-.12305.17969-3.71875 5.45312-.12305.17969-.12109.17969-3.66406 5.47656-.1211.18164-.11914.18164-3.61133 5.49805-.11914.18164-.11719.18359-3.55859 5.52149-.11719.18164-.11523.18359-3.50391 5.54297-.11718.18359-.11329.1836-3.45117 5.5664-.11328.1836-.11328.18554-3.39844 5.58789-.11133.1836-.11132.18554-3.34375 5.60938-.11133.18555-.10938.18554-3.29101 5.63086-.10938.18555-.10742.18555-3.23828 5.65234-.10742.18555-.10547.1875-3.18555 5.67187-.10547.18555-.10351.18945-3.13477 5.69141-.10351.1875-.10157.1875-3.08007 5.71289-.10157.1875-.0996.1875-3.02929 5.73242-.0996.1875-.0996.18945-2.97657 5.75196-.0977.1875-.0957.18945-2.92579 5.76953-.0957.18945-.0937.19141-2.87305 5.78711-.0937.18945-.0937.19141-2.82031 5.80664-.0918.18945-.0918.19141-2.76953 5.82422-.0899.1914-.0879.19141-2.71875 5.8418-.0879.1914-.0879.19141-.70312 1.54687-3.05274 8.80469-1.36328 9.22071.36914 9.31054 2.0918 9.08203 3.74219 8.53711 5.25976 7.69336 6.5957 6.58399 7.70508 5.24414 8.54297 3.72461 9.08594 2.07422 9.3125.35156 9.2168-1.38282 8.80078-3.07031 8.07812-4.64843 7.07422-6.06836 5.82422-7.27344 3.74023-6.77539.60547-1.33008 2.53516-5.45117 2.63086-5.53516.0644-.13476 2.45117-5.04493.0254-.0527 2.76758-5.57617 2.77149-5.46485.043-.084 2.73438-5.27734.0488-.0957 2.72461-5.15234 2.91601-5.40235.0703-.13281 2.84375-5.16015 3.01367-5.36328.0508-.0899 2.95898-5.1582.0684-.11914 2.94922-5.04102 3.0293-5.08398.0723-.11914 3.20703-5.27344 3.25586-5.25 3.31055-5.23438.0527-.084 3.30664-5.12891.0176-.0273 3.13282-4.77148.0879-.13282 3.45898-5.16797 3.50195-5.13671 3.55665-5.11719.0586-.084 3.44531-4.86523 3.65625-5.07227 3.77344-5.13672.99023-1.34765.89649-1.41016 3.47265-5.45703 3.40625-5.25195.0625-.0957 3.28125-4.96289 3.33789-4.95703.043-.0625 3.58985-5.23047 3.55664-5.08593.0742-.10547 3.50195-4.91016.0645-.0918 3.46875-4.7793 3.67969-4.97852 3.6875-4.90429.0879-.11524 3.55664-4.64258 3.76953-4.83203 3.66211-4.61719.0586-.0723 3.86328-4.78516 3.875-4.71289 4.02539-4.8125.0273-.0312 3.93164-4.61523 3.68555-4.25586.0117-.0117 4.24219-4.81641.0273-.0312 3.93945-4.39453.0957-.10547 4.01171-4.39648.0586-.0644 3.98437-4.29493 4.1836-4.43359.0723-.0781 3.87891-4.04296.0371-.0371 4.36523-4.47657.0937-.0957 4.08008-4.11133 4.32227-4.28515.10156-.0996 4.14062-4.03321 4.38868-4.20703.10742-.10351 4.20703-3.96485 4.25-3.94336.0898-.082 4.61524-4.20898.0273-.0254 4.38477-3.93164.0742-.0664 4.17969-3.68945.0625-.0547 4.45703-3.86914.0234-.0195 4.52539-3.86719.10742-.0898 4.66407-3.91602.11914-.0996 4.4375-3.66406 4.72656-3.83984.084-.0684 4.35157-3.47657.0937-.0742.32617-.25586 6.75781-6.41797 5.45117-7.5586 3.95313-8.43945 2.31836-9.02734.60156-9.30078-1.13477-9.25-2.83007-8.88086-4.42969-8.19922-5.875-7.23438-7.11524-6.01953-8.10937-4.59375-8.82031-3.00976-9.22461-1.32032zm1422.17775 641.078121-9.0332 2.296875-8.4492 3.93164-7.5723 5.431641-6.4336 6.744141-5.0703 7.820312-3.5313 8.625-1.8691 9.128906-.2402 7.736328.3808 8.1855472.3125 8.8144532.2129 8.6347656.1211 8.630859.025 8.845703.064.671876-.037.855468.2149 6.330078.1582 6.416016v.0957l.096 6.105469v.08008l.043 5.882812-.01 6.390626v.06836l-.064 6.101562v.05273l-.1114 5.886718-.1699 6.166016-.2207 6.13086-.2754 6.125-.3281 6.130859-.3809 6.115238-.4355 6.09961-.01.12109-.4766 5.97071-.01.0957-.5117 5.78125-.5879 6.08984-.6406 6.07227-.6915 6.04883-.7031 5.73047-.014.10742-.8203 6.23828-.01.0703-.8086 5.75196-.8965 6.0371-.9434 5.98438-.019.12695-.9492 5.70313-1.0488 6.00195-1.0918 5.95313-.024.125-1.084 5.63867-1.1992 5.97265-1.25 5.96094-.018.0879-1.2324 5.64258-1.3476 5.94141-.027.12109-1.3164 5.58399-1.4492 5.92578-.033.13672-1.4043 5.55078-1.5449 5.89648-.037.14258-1.4551 5.3789-.024.0801-1.6542 5.92774-.041.14258-1.6484 5.71875-.01.0234-1.6641 5.60157-.037.125-1.6816 5.49414-1.7383 5.52929-.025.0781-1.8789 5.80859-1.8125 5.45899-.041.11914-1.9707 5.77929-.045.12891-1.9239 5.49023-.049.13868-1.9941 5.54492-.025.0703-1.9239 5.22656-.035.0918-2.1309 5.65233-2.084 5.40236-.037.0957-2.1816 5.52148-4.5703 11.17579-4.6582 10.9082-4.8614 10.90625-5.0781 10.94141-5.1562 10.67578-5.3262 10.61523-5.5156 10.59375-2.9102 5.38672-3.6445 8.57813-1.9903 9.10351-.2656 9.31641 1.4668 9.20312 3.1504 8.77149 4.7246 8.03515 6.1309 7.01758 7.3281 5.75781 8.2695 4.29883 8.9239 2.6875 9.2675.98633 9.2891-.75 8.9902-2.46289 8.375-4.08789 7.4707-5.57031 6.3086-6.86133 4.1934-6.50392 3.0703-5.68164.1777-.33203.1739-.33202 5.8633-11.25977.1757-.33398.168-.33789 5.6934-11.34767.1718-.33983.1641-.3418 5.5215-11.43359.166-.34375.1621-.34766 5.3457-11.51758.1621-.34961.1563-.35156 5.1699-11.60156.1562-.35352.1524-.35548 4.9902-11.68358.1543-.35938.1465-.35937 4.8105-11.76367.1094-.2715.1094-.27343 2.3359-5.91211.072-.18164.07-.1836 2.291-5.93164.07-.18359.07-.18555 2.2441-5.94922.068-.18554.068-.18555 2.1992-5.96875.068-.1875.066-.18554 2.1504-5.98828.068-.1875.064-.1875 2.1035-6.00781.066-.1875.064-.18946 2.0566-6.02539.064-.18946.062-.18945 2.0097-6.04492.062-.18946.062-.1914 1.961-6.0625.062-.19141.061-.19141 1.9121-6.08203.061-.1914.059-.19335 1.8652-6.09767.059-.19335.059-.19532 1.8164-6.11523.057-.19531.057-.19336 1.7676-6.13476.057-.19532.055-.19531 1.7168-6.15039.055-.19726.055-.19727 1.6679-6.16797.053-.19726.053-.19727 1.6191-6.18555.051-.19726.051-.19922 1.5703-6.20117.049-.19922.049-.19922 1.5195-6.21875.049-.19922.047-.20117 1.4688-6.23438.049-.20117.045-.20117 1.418-6.25.047-.20312.043-.20313 1.3672-6.26562.045-.20313.043-.20312 1.3144-6.28125.043-.20508.041-.20313 1.2657-6.29883.041-.20312.039-.20508 1.2129-6.31445.039-.20508.037-.20508 1.1602-6.32812.039-.20703.035-.20704 1.1093-6.34179.035-.20703.035-.20899 1.0566-6.35742.033-.20703.033-.20899 1.0039-6.37109.033-.20898.031-.20899.9492-6.38672.031-.21093.029-.20899.8965-6.40039.029-.21094.029-.21093.8418-6.41407.027-.21093.027-.21094.7891-6.42774.025-.21289.025-.21093.7344-6.44336.025-.21094.021-.21289.6816-6.45508.022-.21289.021-.21289.627-6.46875.019-.21485.02-.21289.5723-6.48242.018-.21289.017-.21484.5176-6.49414.016-.21485.016-.21484.4609-6.50781.016-.21485.014-.21484.4062-6.51953.014-.2168.012-.21484.3496-6.53321.012-.214844.01-.216797.293-6.542968.01-.216797.01-.216797.2383-6.556641.01-.216797.01-.216796.1797-6.56836.01-.216797v-.216797l.125-6.580078v-.216797-.21875l.066-6.589843v-.21875-.216797l.01-6.601563v-.21875-.21875l-.049-6.611328v-.21875-.21875l-.1074-6.623047v-.21875-.21875l-.166-6.634765v-.21875l-.01-.21875-.1973-5.898438-.025-8.396484v-.273438-.271484l-.127-9.1777345v-.2695313l-.01-.2714843-.2285-9.17382815-.01-.27148437-.01-.26953126-.3261-9.16992212-.01-.269531-.012-.269531-.3985-8.580078-1.2988-9.228516-2.9863-8.828125-4.5762-8.119141-6-7.130859-7.2207-5.890625-8.1894-4.451172-8.8731-2.851562-9.248-1.158204zm-1746.92775 38.1875-9.10547 1.986328-8.57812 3.640625-7.75586 5.169922-6.66016 6.519531-5.33398 7.6406249-3.82422 8.5-2.17969 9.0605471-.505859 7.722656.07813 6.392578.0039.357422.0098.357422.335937 12.707031.0098.355469.01367.355469.517582 12.705078.0137.353515.0195.353516.69727 12.699219.0195.351562.0234.351563.87695 12.691406.0234.349609.0293.351563 1.05468 12.679687.0293.34961.0332.347656 1.23243 12.66797.0352.3457.0371.3457 1.41016 12.6543.0371.34375.043.34375 1.58593 12.63672.043.3418.0469.34375 1.75976 12.61523.0488.33985.0508.34179 1.93359 12.5918.0527.33984.0566.33789 2.10742 12.56836.0566.33789.0605.33594 2.28125 12.54102.0606.33593.0644.33594 2.45117 12.50977.0664.33398.0703.33399 2.62109 12.47851.0703.33203.0742.33203 2.79101 12.44336.0742.33204.0801.33007 2.96093 12.40625.0781.33008.082.32813 3.12891 12.36718.084.32618.0879.32812 3.29492 12.32422.0879.32617.0918.32617 3.46289 12.2793.0918.32617.0957.32227 3.62891 12.23437.0957.32227.0996.32226 3.79297 12.18555.0996.32031.10547.32032 3.95703 12.13281.10352.32031.10937.31836 4.12109 12.08008.10743.31836.11328.3164 4.2832 12.02344.11133.31641.11719.31445 4.44531 11.96484.11719.31446.12109.31445 4.60547 11.90234.12109.31446.125.3125 4.76367 11.83789.12696.3125.1289.31055 4.92383 11.77343.13086.31055.13477.31055 5.08007 11.70312.13477.30859.13867.3086 5.23828 11.63281.13868.30859.14257.30665 5.39453 11.55859.14454.30664.14648.30664 5.55078 11.48242.14844.30469.15234.30469 1.79102 3.58203 4.92773 7.91211 6.31055 6.85742 7.47461 5.56836 8.37695 4.08398 8.99024 2.45899 9.28906.74805 9.26758-.99024 8.92187-2.69141 8.26758-4.30078 7.32617-5.76172 6.13086-7.01953 4.71875-8.03711 3.14844-8.77148 1.46289-9.20508-.26953-9.31641-1.99219-9.10351-2.91602-7.16797-1.61132-3.2207-5.29297-10.94727-5.06641-10.85742-5.00195-11.10742-4.7793-11.00391-4.68164-11.1914-4.5-11.18555-4.38281-11.32617-4.19922-11.30469-4.04688-11.36328-3.9082-11.45313-3.75195-11.5039-3.61133-11.60157-3.41602-11.51562-3.26953-11.5918-3.14843-11.76758-2.95118-11.66601-2.7832-11.66602-2.66406-11.86523-2.4961-11.88867-2.30273-11.75196-2.16992-11.93554-1.98633-11.83789-1.83398-11.94727-1.65235-11.84375-1.5039-11.98828-1.33399-11.994141-1.16797-11.998047-.99609-11.986328-.82813-11.998047-.6582-11.992188-.48633-11.988281-.3164-11.972656-.0742-6.025391-.98047-9.267578-2.68359-8.923828-4.29493-8.2734375-5.7539-7.3300785-7.01563-6.136718-8.03125-4.726563-8.76953-3.154297-9.20312-1.472656zm1421.53325 683.972659-9.0352 2.27929-8.457 3.91797-6.3672 4.40039-.8516.69141-9.4355 7.45508-9.5567 7.34375-9.7285 7.26758-9.8223 7.13671-9.8222 6.93555-9.9453 6.82227-10 6.66797-10.1856 6.59179-10.2656 6.45117-10.3516 6.3086-10.3242 6.10156-10.5097 6.02149-10.5215 5.84179-10.6543 5.72461-10.67 5.54883-10.8984 5.47656-10.7402 5.21485-10.9121 5.11523-11.0235 4.98047-10.9765 4.7793-11.1309 4.6621-11.25 4.5293-11.0605 4.27149-11.3926 4.21875-11.2676 3.99218-11.3105 3.82618-11.4727 3.69921-11.4258 3.50391-11.5371 3.35938-11.5684 3.18359-11.6367 3.02148-11.5039 2.8086-8.7734 2.00586-8.8516 2.91406-8.1582 4.50586-7.1797 5.94336-5.9531 7.17187-4.5176 8.15039-2.9258 8.84961-1.2343 9.23633.5019 9.30664 2.2207 9.05274 3.8633 8.48047 5.3692 7.61914 6.6894 6.48828 7.7774 5.13476 8.5937 3.60352 9.1152 1.94531 9.3184.21875 7.6543-1.13672 9.0996-2.08008.3594-.082.3574-.0859 12.3359-3.01172.3575-.0879.3535-.0918 12.2929-3.19336.3516-.0898.3516-.0977 12.2461-3.37109.3496-.0977.3476-.0996 12.1992-3.55078.3457-.10156.3458-.10547 12.1484-3.72461.3418-.10547.3418-.11133 12.0976-3.90039.3399-.10937.3379-.11524 12.041-4.07422.3379-.11328.334-.11914 11.9863-4.24414.334-.11914.3301-.12305 11.9277-4.41601.3301-.1211.33-.12695 11.8672-4.58594.3262-.12695.3262-.13086 11.8047-4.75195.3222-.12891.3223-.13477 11.7402-4.91796.3223-.13477.3184-.13867 11.6738-5.08203.3164-.13867.3164-.14258 11.6055-5.24414.3144-.14258.3125-.14649 11.5352-5.40625.3105-.14453.3106-.15039 11.4609-5.5664.3086-.14844.3066-.1543 11.3868-5.72461.3046-.15234.3047-.1582 11.3086-5.87891.3028-.1582.3007-.16211 11.2305-6.03321.2988-.16211.2989-.16406 11.1484-6.18945.2969-.16406.2949-.16993 11.0664-6.33984.293-.16797.2929-.17187 10.9805-6.49024.291-.17383.2891-.17578 10.8926-6.63867.289-.17578.2852-.17969 10.8047-6.78711.2851-.17968.2832-.1836 10.7129-6.93164.2813-.18359.2812-.1875 10.6192-7.07617.2793-.1875.2773-.18946 10.5234-7.2207.2774-.19141.2754-.19336 10.4238-7.36132.2754-.19336.2734-.19727 10.3243-7.50195.2714-.19727.2696-.20117 10.2246-7.64062.2695-.20118.2656-.20508 10.1192-7.77539.2676-.20507.2636-.20899 10.0137-7.91015.2637-.20899.2617-.21289 1.0723-.86914 6.6543-6.52539 5.3281-7.64649 3.8183-8.50195 2.1719-9.0625.4551-9.30859-1.2832-9.23047-2.9727-8.83399-4.5605-8.12695-5.9903-7.14062-7.2109-5.9043-8.1816-4.46484-8.8672-2.86719-9.2461-1.17188zm-1108.44731 3.15234-8.83789 2.95703-8.13477 4.54883-7.14844 5.97852-5.91601 7.20117-4.47656 8.17383-2.88282 8.86328-1.1875 9.24414.54883 9.30273 2.26758 9.04102 3.9043 8.46289 5.40625 7.58984 5.49609 5.44922 2.68945 2.28125.29688.25195.30078.2461 9.81836 8.07226.30273.24805.30469.24414 9.94727 7.91797.23242.18555.23242.17968 5.02148 3.90235.15625.12109.15625.12109 5.05469 3.86329.15625.11914.15821.11914 5.08593 3.82422.15821.11914.16015.11914 5.11719 3.78515.16016.11719.1621.11719 5.14844 3.74609.16211.11719.16211.11719 5.18164 3.70508.16211.11718.16406.11524 5.21094 3.66406.16602.11523.16406.11524 5.24414 3.625.16602.11328.16601.11328 5.27539 3.58399.16602.11328.16797.11328 5.30664 3.54101.16797.11328.16992.11133 5.33593 3.5.16993.11133.17187.11133 5.36719 3.45898.17187.10938.17188.10937 5.39844 3.41797.17187.10938.17383.10742 5.42969 3.375.17383.10742.17578.10742 5.45898 3.33203.17578.10547.17578.10743 5.49024 3.2871.17773.10743.17774.10351 5.51953 3.2461.17773.10351.17969.10352 5.55078 3.20312.17969.10352.17969.10156 5.58203 3.1582.17969.10157.18164.10156 5.61132 3.11328.18164.10156.1836.0996 5.64062 3.06836.1836.0996.18359.0977 5.67188 3.02539.18359.0976.18555.0977 5.70117 2.97852.18554.0977.1875.0957 5.73047 2.9336.18555.0957.18945.0937 5.75977 2.88867.1875.0937.18945.0937 5.78907 2.8418.18945.0937.1914.0918 5.81836 2.79492.18946.0918.1914.0898 5.84961 2.74805.19141.0918.19336.0879 5.875 2.70118.19336.0898.19531.0859 5.9043 2.65625.19531.0859.19531.0859 5.9336 2.60742.19531.0859.19726.084 5.96289 2.55859.19727.0859.19727.082 5.99218 2.51172.19727.082.19922.082 6.01953 2.46094.19922.082.19922.0801 6.04882 2.41406.20118.0781.19922.0781 6.07812 2.36523.20117.0781.20117.0762 6.10547 2.31445.20117.0781.20313.0742 6.13477 2.26562.20117.0742.20507.0742 6.16016 2.21484.20508.0723.20312.0723 6.19141 2.16602.20313.0703.20703.0703 6.21679 2.11524.20508.0684.20703.0684 6.2461 2.06445.20507.0684.20704.0664 6.27343 2.01172.20703.0664.20899.0645 6.30078 1.96093.20703.0645.20899.0644 6.32812 1.9082.20899.0625.20898.0625 6.35547 1.85547.20898.0625.21094.0586 6.38281 1.80469.21094.0605.21094.0566 4.82226 1.31836 4.71094 1.6289.20703.0703.20703.0703 6.28321 2.10937.20703.0703.20898.0684 6.28906 2.05078.20899.0684.20703.0644 6.29688 1.99414.20898.0644.20703.0645 6.30469 1.93554.20898.0645.20703.0605 6.3125 1.87696.20704.0625.20898.0605 6.31641 1.81836.20898.0606.20898.0586 6.32227 1.76172.20899.0586.21093.0566 6.32813 1.70312.20898.0566.20899.0547 6.33398 1.64649.20899.0547.20898.0527 6.33984 1.58984.20899.0527.20898.0508 6.34375 1.5332.21094.0508.20898.0488.2168.0488 9.23438 1.25586 9.30859-.47852 9.05664-2.19922 8.49023-3.8418 7.63086-5.3496 6.50586-6.67383 5.1543-7.76563 3.62305-8.58594 1.96679-9.10937.24219-9.31641-1.49023-9.19922-3.17383-8.76367-4.74414-8.02343-6.15039-7.00196-7.3418-5.73828-8.28125-4.27734-7.17969-2.26953.004-.0137-.20313-.0488-5.99609-1.44922-5.92969-1.48828-.13476-.0332-5.49805-1.42968-.0781-.0215-5.83204-1.56836-.0859-.0234-5.81836-1.61914-.0899-.0254-5.94921-1.71289-6.0293-1.79297-5.61328-1.72265-.12696-.041-5.94336-1.8789-5.86328-1.91211-5.85937-1.9668-6.10938-2.11133-1.56054-.53906-1.58985-.43555-6.1875-1.6914-6.01172-1.69922-5.99218-1.75196-.11524-.0332-5.64453-1.70312-5.87891-1.83008-5.91406-1.89649-5.88672-1.94531-5.93554-2.01953-.0274-.01-5.55078-1.94336-5.82031-2.09179-5.78516-2.13672-.10547-.0391-5.47461-2.07813-5.50195-2.13867-.0566-.0234-5.59375-2.22851-.12305-.0508-5.68945-2.32618-5.67578-2.3789-.12891-.0547-5.32617-2.28516-5.60937-2.46484-5.49414-2.4707-5.57227-2.56055-.11719-.0547-5.24023-2.46484-5.42969-2.60938-5.40625-2.65234-5.37891-2.69727-5.21679-2.66992-.041-.0215-5.51953-2.88282-5.07422-2.70507-.13672-.0742-5.13867-2.79492-.0508-.0274-5.4375-3.01758-.12305-.0684-5.01562-2.83984-5.03711-2.9043-.084-.0488-5.08398-2.98633-.11133-.0664-5.22851-3.13281-4.90821-2.99414-.13281-.084-5.12305-3.17968-4.88281-3.0918-.0977-.0625-5.23633-3.375-.0332-.0215-4.91015-3.22266-.0859-.0566-4.82617-3.22266-4.75-3.22656-.084-.0586-4.97461-3.4375-4.74023-3.33203-.0918-.0664-4.96875-3.55274-.11914-.0859-4.66406-3.39453-4.64062-3.42969-.0742-.0566-4.88282-3.66992-.1289-.0977-4.42578-3.38281-.10938-.084-4.73828-3.68359-9.31836-7.41992-9.33594-7.67383-2.30664-1.95899-7.63672-5.33984-8.49609-3.83203-9.06055-2.1875-9.30664-.4668z" transform="translate(0 995.63783)"/></svg>