<svg height="2048" width="2048" xmlns="http://www.w3.org/2000/svg"><path d="m1024.0009-404.76185c-131.15548 235.41606-262.31115 470.832018-393.4667 706.24804h786.9316c-131.155-235.415999-262.3099-470.83204-393.4649-706.24804zm0 102.73437c102.791 184.50457 205.5821 369.009099 308.3731 553.51367-205.582 0-411.16407 0-616.7461 0 102.791-184.504557 205.582-369.00911 308.373-553.51367zm7.6964-590.92871c-90.93865 13.64561-242.82423-16.46708-283.67768 79.96402 35.85593 98.5444 158.94866 3.94704 236.52269 21.08008 82.23179-7.50462 164.31519 11.62753 245.10979 14.99137 98.9708-93.01434-79.3478-118.44879-148.1467-114.46483-16.5888-.88354-33.1971-1.38594-49.8081-1.57064zm512.873 160.68555c-126.8457 40.1836 23.1906 130.81069 68.3468 179.11034 62.6387 66.65599 113.0776 143.73044 157.1146 223.62206 85.6696 58.20448 106.7843-72.94158 46.9055-117.50807-67.0417-109.81101-151.2391-214.40665-261.2079-283.06456zm-1067.291 24.46093c-103.75725 41.22381-168.35519 147.48603-232.06207 235.10769-44.78797 47.06936-128.01601 211.40977.26229 185.83063 65.0247-85.01255 108.19666-191.36633 189.08455-267.08225 38.44064-40.54262 158.00493-116.4976 42.71523-153.85607zm1422.1719 640.91211c-96.005 25.13915-27.0626 154.364546-57.315 225.43052-13.3238 89.81831-43.234 176.99915-86.6245 256.70225-13.3287 96.03522 115.2538 67.45559 116.7989-11.48251 63.1579-135.53469 89.0107-288.44823 72.5667-437.15031-6.1435-19.275862-25.4231-32.857754-45.4261-33.49995zm-1746.91604 38.50782c-97.048133 22.3384027-36.57711 154.37169-35.14516 224.37088 21.48398 93.94037 45.85024 193.88613 103.55405 271.82122 137.89513 18.60971 33.10398-135.3442 16.95066-202.13182-24.95439-82.28199-38.39645-168.062355-39.6076-254.04273-4.15376-21.5384602-23.85165-38.768859-45.75195-40.01755zm1421.51954 683.66795c-101.5841 50.03384-191.1859 131.10614-305.297 159.97475-67.2305-.89537-177.9218 73.58994-77.0303 121.6642 154.0202-25.83074 298.8451-100.26375 418.8664-199.37915 27.3219-29.26443 3.4979-82.91465-36.5391-82.2598zm-1108.51564 2.4473c-115.98292 45.47053 24.1003 139.17176 82.7876 168.61758 93.08848 52.32674 195.5721 94.69579 301.4331 108.61231 102.4618-46.49177-13.18187-121.21339-78.53589-119.98161-101.28198-31.07248-196.97216-80.7705-277.69451-149.67214l-13.14656-6.00374z" transform="translate(0 995.63783)"/></svg>