<svg height="2048" width="2048" xmlns="http://www.w3.org/2000/svg"><path d="m1024-381.23646c-96.78456 269.33117-158.21489 549.86628-255 819.19727 88.7945-88.27238 166.21051-187.16034 255-275.4375 85 91.8125 170 183.625 255 275.4375-86.6176-272.56051-168.3825-546.63678-255-819.19727zm1.8535 169.49607c47.5548 149.641469 92.4451 300.11446 140 449.7559-46.6667-50.40694-93.3333-100.81387-140-151.220805-39.45609 34.599785-141.91961 166.953845-135.34816 138.220665 50.43007-143.910952 83.79618-293.214151 135.34816-436.75576zm5.8438-681.2158c-87.35155.91589-176.77847 8.0251-259.87102 35.53297-49.43048 25.54551-15.43566 107.68228 37.65419 91.26862 131.06284-33.53953 269.32463-34.46012 401.74613-8.33204 54.0501 3.67947 70.0048-80.47132 18.3518-96.82227-64.663-15.09525-131.5524-20.90806-197.8811-21.64728zm512.873 160.68555c-53.8944-5.77275-73.0463 74.60318-24.5956 96.33593 107.7969 78.95383 186.4082 190.8384 250.0581 306.39617 35.6856 42.69131 108.461-8.35658 80.8941-56.60545-68.5002-131.65223-162.5093-253.63937-284.852-339.36097-6.3748-4.21476-14.0437-5.81346-21.5046-6.76568zm-1067.291 24.46093c-42.47619 4.49848-69.21282 44.07133-100.38477 69.78321-73.0403 72.29117-131.01446 158.56038-181.29282 247.73986-17.8857 30.88351-41.02115 76.99791-1.74671 102.28202 35.58778 24.98372 74.17609-7.64084 83.70473-42.96271 46.03573-85.32898 100.99032-167.22713 169.73328-236.03956 24.93035-31.71451 74.76829-47.55581 77.52523-92.29484-.48464-25.44464-22.11339-47.50924-47.53894-48.50798zm1422.1719 640.91211c-44.6294-1.947762-58.1177 47.389427-50.5247 83.133306 7.5323 138.554124-27.2619 277.495084-93.4148 398.999464-19.0854 50.70513 56.9116 90.20366 87.4395 45.4454 84.3148-148.55244 120.7264-324.56943 101.9251-494.078217-6.2047-19.318175-25.323-32.805812-45.4251-33.499953zm-1746.91604 38.50782c-44.77402-3.438529-59.718742 45.398117-52.38487 81.425021 6.79195 139.373759 42.37246 278.230909 107.48231 401.795729 30.54992 44.74309 106.52818 5.21788 87.42383-45.4805-61.56856-123.21156-94.82376-260.02237-96.76951-397.7227-4.32738-21.716625-23.64516-38.619429-45.75176-40.01755zm1421.51954 683.66795c-44.1172 5.71845-71.9621 48.30948-111.0623 67.1374-87.589 57.96946-187.3021 94.41773-288.0323 121.01343-49.9703 24.47906-17.7384 107.32814 35.6903 92.05427 146.2071-33.43411 285.1983-101.30244 399.9434-197.9453 27.0868-30.16457 4.0268-82.11953-36.5391-82.2598zm-1108.51564 2.4473c-48.93163.0742-64.84152 71.02995-22.88827 94.16634 96.31845 81.07058 212.18904 135.84128 333.24374 168.50556 35.78757 10.28147 85.75469 32.64437 109.54297-10.2344 20.5017-36.36285-13.10702-75.04076-50.36512-76.7696-114.06781-29.79094-226.31348-74.31405-318.14346-150.03103-15.04614-12.31757-30.22295-27.29996-51.38986-25.63687z" transform="translate(0 995.63783)"/></svg>