<svg height="2048" width="2048" xmlns="http://www.w3.org/2000/svg"><path d="m1024 99c-363.757-4.933641-714.24892 229.17005-852.22557 565.19216-144.118834 330.15234-69.23634 740.28314 182.86195 997.77084 242.46368 260.9919 641.95021 356.7855 976.52052 234.6709 346.7397-118.0735 602.7227-458.5932 616.6378-825.0913 23.3394-360.13067-188.5355-719.42128-512.9533-876.29294-127.0345-63.39404-268.8921-96.452643-410.8414-96.24966zm0 100c359.2827-6.24861 700.9839 251.83638 793.7466 598.93035 97.0301 326.90765-34.2142 705.40425-315.9068 899.02415-292.6125 215.0744-726.53965 199.5143-1002.86235-36.1558-278.41405-221.9799-378.07351-632.5757-235.22824-958.18185 123.80746-301.01232 434.5886-507.43803 760.25079-503.61685zm0 391.875c-131.15512 235.41657-262.30987 470.8333-393.46484 706.25h786.92964c-131.1549-235.4167-262.3099-470.83333-393.4648-706.25zm0 102.73633c102.7917 184.50456 205.5833 369.00907 308.375 553.51367-205.5833 0-411.16667 0-616.75 0 102.79167-184.5046 205.58333-369.00911 308.375-553.51367z"/></svg>