<svg height="2048" width="2048" xmlns="http://www.w3.org/2000/svg"><path d="m1024 99c-363.757-4.933641-714.24892 229.17005-852.22557 565.19216-144.118834 330.15234-69.23634 740.28314 182.86195 997.77084 242.46368 260.9919 641.95021 356.7855 976.52052 234.6709 346.7397-118.0735 602.7227-458.5932 616.6378-825.0913 23.3394-360.13067-188.5355-719.42128-512.9533-876.29294-127.0345-63.39404-268.8921-96.452643-410.8414-96.24966zm0 100c359.2827-6.24861 700.9839 251.83638 793.7466 598.93035 97.0301 326.90765-34.2142 705.40425-315.9068 899.02415-292.6125 215.0744-726.53965 199.5143-1002.86235-36.1558-278.41405-221.9799-378.07351-632.5757-235.22824-958.18185 123.80746-301.01232 434.5886-507.43803 760.25079-503.61685zm0 415.40039c-96.78456 269.33118-158.21489 549.86631-255 819.19731 88.7945-88.2724 166.21051-187.1603 255-275.4375l255 275.4375c-86.6176-272.5605-168.3825-546.6368-255-819.19731zm1.8535 169.49609c47.5548 149.64144 92.4451 300.11442 140 449.75582-46.6667-50.4069-93.3333-100.8138-140-151.2207-39.45607 34.5998-141.91956 166.9537-135.34814 138.2206 50.43047-143.9123 83.79567-293.21245 135.34814-436.75572z"/></svg>