<svg height="2048" width="2048" xmlns="http://www.w3.org/2000/svg"><path d="m429 274c-168.3646 0-305 136.6354-305 305v890c0 168.3646 136.6354 305 305 305h1190c168.3646 0 305-136.6354 305-305v-890c0-168.3646-136.6354-305-305-305zm0 70h1190c130.7954 0 235 104.20459 235 235v890c0 130.7954-104.2046 235-235 235h-1190c-130.7954 0-235-104.2046-235-235v-890c0-130.79541 104.2046-235 235-235zm59.40625 100c-104.31686 0-189.40625 85.04255-189.40625 189.33789v781.32621c0 104.2953 85.08939 189.3359 189.40625 189.3359h1071.18755c104.3168 0 189.4062-85.0406 189.4062-189.3359v-781.32621c0-104.29534-85.0894-189.33789-189.4062-189.33789zm0 70h1071.18755c66.7645 0 119.4062 52.62862 119.4062 119.33789v781.32621c0 66.7092-52.6418 119.3359-119.4062 119.3359h-1071.18755c-66.76454 0-119.40625-52.6267-119.40625-119.3359v-781.32621c0-66.70927 52.64171-119.33789 119.40625-119.33789z"/></svg>