<svg width="45" height="45" viewBox="0 0 45 45" fill="none" xmlns="http://www.w3.org/2000/svg">
<path d="M22.2755 0.000550205C12.1701 -0.0747899 2.68972 7.59615 0.563509 17.4782C-1.48719 26.1585 2.18454 35.841 9.53839 40.9015C16.6763 46.0207 26.8492 46.4219 34.2742 41.6675C41.7402 37.0894 46.1368 27.9475 44.7436 19.2483C43.4679 10.2305 36.274 2.38757 27.3405 0.533964C25.6796 0.162914 23.9768 -0.0107508 22.2755 0.000550205ZM22.8121 7.05449C30.2376 7.03094 37.0586 13.1846 37.8155 20.587C38.7816 27.6624 34.2261 35.0635 27.377 37.1906C20.6922 39.4685 12.6315 36.5615 9.14899 30.3525C5.29562 23.9107 6.93513 14.7311 13.0413 10.2587C15.8103 8.11928 19.316 6.97397 22.8121 7.05449Z" fill="#58472E"/>
</svg>
