<svg width="91" height="119" viewBox="0 0 91 119" fill="none" xmlns="http://www.w3.org/2000/svg">
<path fill-rule="evenodd" clip-rule="evenodd" d="M45.5 75C57.9264 75 68 64.9264 68 52.5C68 40.0736 57.9264 30 45.5 30C33.0736 30 23 40.0736 23 52.5C23 64.9264 33.0736 75 45.5 75ZM45.5 77C59.031 77 70 66.031 70 52.5C70 38.969 59.031 28 45.5 28C31.969 28 21 38.969 21 52.5C21 66.031 31.969 77 45.5 77Z" fill="black"/>
<path fill-rule="evenodd" clip-rule="evenodd" d="M60.9656 29.9952C56.8738 24.8203 51.3235 21.669 45.2304 19.963L45.7696 18.037C52.1765 19.831 58.1262 23.1797 62.5344 28.7548C66.9447 34.3325 69.7455 42.0546 69.9997 52.4756L68.0003 52.5244C67.7545 42.4454 65.0553 35.1675 60.9656 29.9952Z" fill="black"/>
<path fill-rule="evenodd" clip-rule="evenodd" d="M45.5 117C57.9264 117 68 106.926 68 94.5C68 82.0736 57.9264 72 45.5 72C33.0736 72 23 82.0736 23 94.5C23 106.926 33.0736 117 45.5 117ZM45.5 119C59.031 119 70 108.031 70 94.5C70 80.969 59.031 70 45.5 70C31.969 70 21 80.969 21 94.5C21 108.031 31.969 119 45.5 119Z" fill="black"/>
<path fill-rule="evenodd" clip-rule="evenodd" d="M46 4.37114e-08V20H45V0L46 4.37114e-08Z" fill="black"/>
<path fill-rule="evenodd" clip-rule="evenodd" d="M45.5 84L35 102H56L45.5 84ZM45.5 85.9846L36.741 101H54.259L45.5 85.9846Z" fill="black"/>
<path fill-rule="evenodd" clip-rule="evenodd" d="M46.6805 51.7942L53.3158 46.3876L52.6842 45.6124L45.5 51.4661L38.3158 45.6124L37.6842 46.3876L45 52.3487V61H46V52.6978L52.3438 53.7159L52.5023 52.7285L46.6805 51.7942Z" fill="black"/>
</svg>
