<?xml version='1.0' encoding='ASCII' standalone='yes'?>
<svg xmlns="http://www.w3.org/2000/svg" xmlns:xlink="http://www.w3.org/1999/xlink" version="1.1" width="91.0px" viewBox="0 0 91.0 91.0" height="91.0px">
  <g>
    <g transform=" rotate(180.000000 45.500000 45.500000)"><g>
    <g transform=" rotate(-90.000000 45.500000 45.500000)"><path fill-rule="evenodd" clip-rule="evenodd" d="M46 4.37114e-08L46 33H45L45 0L46 4.37114e-08Z" fill="black"/>
<path fill-rule="evenodd" clip-rule="evenodd" d="M40 33H51V34H40V33Z" fill="black"/>
<path fill-rule="evenodd" clip-rule="evenodd" d="M40 57H51V58H40V57Z" fill="black"/>
<path fill-rule="evenodd" clip-rule="evenodd" d="M45 80L45 58H46L46 80H45Z" fill="black"/>
<path fill-rule="evenodd" clip-rule="evenodd" d="M45 53.7279L62 36.7279L62.7071 37.435L45.7071 54.435L45 53.7279Z" fill="black"/>
<path fill-rule="evenodd" clip-rule="evenodd" d="M46 46H54V45H46V46Z" fill="black"/>
<path d="M38 45.5L49 49V42L38 45.5Z" fill="black"/>
<path fill-rule="evenodd" clip-rule="evenodd" d="M37 80H54V81H37L37 80Z" fill="black"/>
<path fill-rule="evenodd" clip-rule="evenodd" d="M44 90H47V91H44L44 90Z" fill="black"/>
<path fill-rule="evenodd" clip-rule="evenodd" d="M41 85H50V86H41V85Z" fill="black"/>
</g>
  </g>
</g>
  </g>
</svg>
