<?xml version="1.0" encoding="UTF-8" standalone="no"?>
<svg
   version="1.1"
   width="33"
   viewBox="0 0 33 45"
   height="45"
   id="svg7256"
   sodipodi:docname="r_Фильтр присоединения.svg"
   inkscape:version="1.2.1 (9c6d41e, 2022-07-14)"
   xmlns:inkscape="http://www.inkscape.org/namespaces/inkscape"
   xmlns:sodipodi="http://sodipodi.sourceforge.net/DTD/sodipodi-0.dtd"
   xmlns="http://www.w3.org/2000/svg"
   xmlns:svg="http://www.w3.org/2000/svg">
  <defs
     id="defs7258" />
  <g
     id="g7254">
    <g
       transform="rotate(180,16.5,22.5)"
       id="g7252">
      <defs
         id="defs966" />
      <sodipodi:namedview
         id="namedview964"
         pagecolor="#ffffff"
         bordercolor="#111111"
         borderopacity="1"
         inkscape:showpageshadow="0"
         inkscape:pageopacity="0"
         inkscape:pagecheckerboard="1"
         inkscape:deskcolor="#d1d1d1"
         showgrid="false"
         inkscape:zoom="9.2197802"
         inkscape:cx="-4.284267"
         inkscape:cy="30.098331"
         inkscape:window-width="1846"
         inkscape:window-height="1016"
         inkscape:window-x="0"
         inkscape:window-y="0"
         inkscape:window-maximized="1"
         inkscape:current-layer="svg7256" />
      <g
         id="g960"
         transform="translate(-29,3)">
        <g
           transform="rotate(-90,45.5,18.5)"
           id="g958">
          <path
             fill-rule="evenodd"
             clip-rule="evenodd"
             d="M 65,4 H 24 V 33 H 65 Z M 22,2 V 35 H 67 V 2 Z"
             fill="#000000"
             id="path944" />
          <path
             fill-rule="evenodd"
             clip-rule="evenodd"
             d="M 37,8 V 29 H 35 V 8 Z"
             fill="#000000"
             id="path946" />
          <path
             fill-rule="evenodd"
             clip-rule="evenodd"
             d="M 50,8 V 29 H 48 V 8 Z"
             fill="#000000"
             id="path948" />
          <path
             fill-rule="evenodd"
             clip-rule="evenodd"
             d="M 59,10 H 50 V 8 h 9 z"
             fill="#000000"
             id="path950" />
          <path
             fill-rule="evenodd"
             clip-rule="evenodd"
             d="M 61,8 V 29 H 59 V 8 Z"
             fill="#000000"
             id="path952" />
          <path
             fill-rule="evenodd"
             clip-rule="evenodd"
             d="m 37,10 v 9 h 6 V 10 Z M 36,8 c -0.5523,0 -1,0.44772 -1,1 v 11 c 0,0.5523 0.4477,1 1,1 h 8 c 0.5523,0 1,-0.4477 1,-1 V 9 C 45,8.44772 44.5523,8 44,8 Z"
             fill="#000000"
             id="path954" />
          <path
             fill-rule="evenodd"
             clip-rule="evenodd"
             d="m 30,10 v 9 h 5 V 10 Z M 29,8 c -0.5523,0 -1,0.44772 -1,1 v 11 c 0,0.5523 0.4477,1 1,1 h 7 c 0.5523,0 1,-0.4477 1,-1 V 9 C 37,8.44772 36.5523,8 36,8 Z"
             fill="#000000"
             id="path956" />
        </g>
      </g>
    </g>
  </g>
</svg>
