<svg width="61" height="61" viewBox="0 0 61 61" fill="none" xmlns="http://www.w3.org/2000/svg">
<rect x="0.581055" y="0.398438" width="60" height="60" rx="13.33" fill="#E1EFFE"/>
<path fill-rule="evenodd" clip-rule="evenodd" d="M25.0419 8.54662C25.133 8.23755 25.4168 8.02539 25.739 8.02539H34.4212C34.6555 8.02539 34.8755 8.13836 35.012 8.32881C35.1485 8.51926 35.1848 8.76383 35.1095 8.98572L31.0363 20.9903H39.6306C39.9069 20.9903 40.1593 21.147 40.2819 21.3946C40.4045 21.6423 40.3761 21.938 40.2085 22.1577L25.1593 41.8953C24.9445 42.177 24.558 42.2629 24.2442 42.0985C23.9304 41.9342 23.7808 41.5676 23.89 41.2306L28.328 27.5374H20.4138C20.1847 27.5374 19.9689 27.4294 19.8317 27.2459C19.6945 27.0623 19.6519 26.8249 19.7167 26.6051L25.0419 8.54662ZM26.2824 9.479L21.3859 26.0838H29.3276C29.5601 26.0838 29.7787 26.1951 29.9154 26.3832C30.0522 26.5713 30.0907 26.8135 30.019 27.0347L26.586 37.6268L38.1624 22.4439H30.0222C29.7879 22.4439 29.568 22.3309 29.4315 22.1405C29.295 21.95 29.2587 21.7054 29.334 21.4835L33.4071 9.479H26.2824Z" fill="#0579F7"/>
<path d="M21.3859 26.0838L26.2824 9.479H33.4071L29.334 21.4835C29.2587 21.7054 29.295 21.95 29.4315 22.1405C29.568 22.3309 29.7879 22.4439 30.0222 22.4439H38.1624L26.586 37.6268L30.019 27.0347C30.0907 26.8135 30.0522 26.5713 29.9154 26.3832C29.7787 26.1951 29.5601 26.0838 29.3276 26.0838H21.3859Z" fill="#0579F7"/>
<path d="M7.93687 50.7265C7.31925 50.7265 6.80457 50.5288 6.39282 50.1335C5.98107 49.7341 5.7752 49.2215 5.7752 48.5957C5.7752 47.9698 5.98107 47.4592 6.39282 47.064C6.80457 46.6646 7.31925 46.4649 7.93687 46.4649C8.65331 46.4649 9.20505 46.7737 9.5921 47.3913L8.97447 47.7063C8.87154 47.5292 8.72537 47.3851 8.53596 47.274C8.35068 47.1628 8.15098 47.1072 7.93687 47.1072C7.52924 47.1072 7.18955 47.2472 6.9178 47.5272C6.65016 47.8072 6.51634 48.1633 6.51634 48.5957C6.51634 49.028 6.65016 49.3842 6.9178 49.6642C7.18955 49.9441 7.52924 50.0841 7.93687 50.0841C8.1551 50.0841 8.35685 50.0285 8.54214 49.9174C8.72743 49.8062 8.87154 49.6621 8.97447 49.485L9.5921 49.8C9.19682 50.4176 8.64508 50.7265 7.93687 50.7265ZM9.81294 50.7265V50.1953C9.94058 50.1953 10.0415 50.113 10.1156 49.9483C10.1938 49.7836 10.2576 49.5077 10.307 49.1206L10.4862 47.6692H12.7899V50.6523H12.1414V48.2374H11.0605L10.9555 49.1948C10.8979 49.73 10.7764 50.1191 10.5911 50.3621C10.4059 50.605 10.1465 50.7265 9.81294 50.7265ZM14.9785 50.7265C14.5173 50.7265 14.1467 50.5762 13.8668 50.2756C13.5868 49.9709 13.4468 49.5983 13.4468 49.1577C13.4468 48.7171 13.5868 48.3466 13.8668 48.046C14.1467 47.7454 14.5173 47.5951 14.9785 47.5951C15.4437 47.5951 15.8164 47.7454 16.0964 48.046C16.3764 48.3466 16.5164 48.7171 16.5164 49.1577C16.5164 49.6024 16.3764 49.975 16.0964 50.2756C15.8164 50.5762 15.4437 50.7265 14.9785 50.7265ZM14.9785 50.1521C15.2461 50.1521 15.4561 50.0574 15.6084 49.868C15.7649 49.6744 15.8431 49.4377 15.8431 49.1577C15.8431 48.8818 15.7649 48.6492 15.6084 48.4598C15.4561 48.2663 15.2461 48.1695 14.9785 48.1695C14.715 48.1695 14.505 48.2663 14.3485 48.4598C14.1962 48.6492 14.12 48.8818 14.12 49.1577C14.12 49.4377 14.1962 49.6744 14.3485 49.868C14.505 50.0574 14.715 50.1521 14.9785 50.1521ZM17.7963 50.6523H17.1725V47.6692H17.821V49.6765L19.1921 47.6692H19.8406V50.6523H19.1921V48.5895L17.7963 50.6523ZM19.5874 46.8107C19.3198 47.1731 18.9595 47.3542 18.5066 47.3542C18.0578 47.3542 17.6954 47.1731 17.4196 46.8107L17.716 46.5637C17.9137 46.8354 18.1772 46.9713 18.5066 46.9713C18.836 46.9713 19.0974 46.8354 19.291 46.5637L19.5874 46.8107ZM23.14 50.7265C22.6417 50.7265 22.2609 50.5494 21.9974 50.1953L22.3988 49.8186C22.5841 50.0697 22.8208 50.1953 23.1091 50.1953C23.3396 50.1953 23.5311 50.1294 23.6835 49.9977C23.8399 49.8618 23.9408 49.6724 23.9861 49.4295H22.6397V48.8674H23.9799C23.9346 48.6368 23.8337 48.4557 23.6773 48.3239C23.5249 48.1922 23.3355 48.1263 23.1091 48.1263C22.8126 48.1263 22.5759 48.2519 22.3988 48.503L21.9974 48.1263C22.2609 47.7722 22.6417 47.5951 23.14 47.5951C23.5929 47.5951 23.9634 47.7433 24.2517 48.0398C24.5399 48.3321 24.684 48.7048 24.684 49.1577C24.684 49.6147 24.5399 49.9915 24.2517 50.2879C23.9634 50.5803 23.5929 50.7265 23.14 50.7265ZM25.9876 50.6523H25.3391V47.6692H25.9876V48.8427H27.3587V47.6692H28.0072V50.6523H27.3587V49.4109H25.9876V50.6523ZM30.2267 50.7265C29.7738 50.7265 29.3991 50.5823 29.1026 50.2941C28.8103 50.0018 28.6641 49.623 28.6641 49.1577C28.6641 48.7212 28.8062 48.3527 29.0903 48.0522C29.3785 47.7475 29.7409 47.5951 30.1773 47.5951C30.6179 47.5951 30.972 47.7475 31.2396 48.0522C31.5114 48.3569 31.6472 48.746 31.6472 49.2195V49.3739H29.3435C29.3682 49.6086 29.465 49.8041 29.6338 49.9606C29.8026 50.1171 30.0229 50.1953 30.2947 50.1953C30.447 50.1953 30.5994 50.1665 30.7517 50.1088C30.9082 50.0512 31.0379 49.9709 31.1408 49.868L31.4373 50.2941C31.1367 50.5823 30.7332 50.7265 30.2267 50.7265ZM31.0173 48.9168C31.009 48.711 30.9329 48.5277 30.7888 48.3671C30.6488 48.2066 30.4449 48.1263 30.1773 48.1263C29.922 48.1263 29.7223 48.2066 29.5782 48.3671C29.4341 48.5236 29.3538 48.7068 29.3373 48.9168H31.0173ZM33.8932 50.7265C33.4979 50.7265 33.1788 50.5638 32.9359 50.2385V51.7888H32.2874V47.6692H32.9359V48.0769C33.1747 47.7557 33.4938 47.5951 33.8932 47.5951C34.2843 47.5951 34.6014 47.7351 34.8443 48.0151C35.0914 48.2951 35.2149 48.676 35.2149 49.1577C35.2149 49.6394 35.0914 50.0224 34.8443 50.3065C34.6014 50.5865 34.2843 50.7265 33.8932 50.7265ZM33.7017 50.1521C33.957 50.1521 34.1608 50.0594 34.3132 49.8741C34.4655 49.6889 34.5417 49.45 34.5417 49.1577C34.5417 48.8654 34.4655 48.6286 34.3132 48.4474C34.1608 48.2622 33.957 48.1695 33.7017 48.1695C33.5535 48.1695 33.4073 48.2086 33.2632 48.2869C33.1191 48.3651 33.01 48.4598 32.9359 48.571V49.7506C33.01 49.8618 33.1191 49.9565 33.2632 50.0347C33.4073 50.113 33.5535 50.1521 33.7017 50.1521ZM38.1185 47.6692V48.2374H36.5065V50.6523H35.858V47.6692H38.1185ZM40.0278 50.7265C39.5749 50.7265 39.2002 50.5823 38.9038 50.2941C38.6114 50.0018 38.4653 49.623 38.4653 49.1577C38.4653 48.7212 38.6073 48.3527 38.8914 48.0522C39.1796 47.7475 39.542 47.5951 39.9784 47.5951C40.419 47.5951 40.7731 47.7475 41.0407 48.0522C41.3125 48.3569 41.4484 48.746 41.4484 49.2195V49.3739H39.1446C39.1693 49.6086 39.2661 49.8041 39.4349 49.9606C39.6037 50.1171 39.824 50.1953 40.0958 50.1953C40.2481 50.1953 40.4005 50.1665 40.5528 50.1088C40.7093 50.0512 40.839 49.9709 40.9419 49.868L41.2384 50.2941C40.9378 50.5823 40.5343 50.7265 40.0278 50.7265ZM40.8184 48.9168C40.8102 48.711 40.734 48.5277 40.5899 48.3671C40.4499 48.2066 40.2461 48.1263 39.9784 48.1263C39.7231 48.1263 39.5234 48.2066 39.3793 48.3671C39.2352 48.5236 39.1549 48.7068 39.1385 48.9168H40.8184ZM43.2805 50.6523H42.632V48.2374H41.7797V47.6692H44.139V48.2374H43.2805V50.6523ZM45.2937 50.6523H44.6699V47.6692H45.3184V49.6765L46.6895 47.6692H47.3381V50.6523H46.6895V48.5895L45.2937 50.6523ZM50.9719 50.6523H50.1566L49.2425 49.4233L48.8287 49.8494V50.6523H48.1802V47.6692H48.8287V49.1083L50.1443 47.6692H50.9472L49.7058 49.0218L50.9719 50.6523ZM52.055 50.6523H51.4312V47.6692H52.0797V49.6765L53.4508 47.6692H54.0993V50.6523H53.4508V48.5895L52.055 50.6523Z" fill="#0579F7"/>
</svg>
