<?xml version='1.0' encoding='ASCII' standalone='yes'?>
<svg xmlns="http://www.w3.org/2000/svg" xmlns:xlink="http://www.w3.org/1999/xlink" version="1.1" width="91.0px" viewBox="0 0 91.0 91.0" height="91.0px">
  <g>
    <g transform=" rotate(-90.000000 45.500000 45.500000)"><path fill-rule="evenodd" clip-rule="evenodd" d="M45.5 47C57.9264 47 68 36.9264 68 24.5C68 12.0736 57.9264 2 45.5 2C33.0736 2 23 12.0736 23 24.5C23 36.9264 33.0736 47 45.5 47ZM45.5 49C59.031 49 70 38.031 70 24.5C70 10.969 59.031 0 45.5 0C31.969 0 21 10.969 21 24.5C21 38.031 31.969 49 45.5 49Z" fill="black"/>
<path fill-rule="evenodd" clip-rule="evenodd" d="M45.5 89C57.9264 89 68 78.9264 68 66.5C68 54.0736 57.9264 44 45.5 44C33.0736 44 23 54.0736 23 66.5C23 78.9264 33.0736 89 45.5 89ZM45.5 91C59.031 91 70 80.031 70 66.5C70 52.969 59.031 42 45.5 42C31.969 42 21 52.969 21 66.5C21 80.031 31.969 91 45.5 91Z" fill="black"/>
</g>
  </g>
</svg>
