<?xml version='1.0' encoding='ASCII' standalone='yes'?>
<svg xmlns="http://www.w3.org/2000/svg" xmlns:xlink="http://www.w3.org/1999/xlink" version="1.1" width="76.0px" viewBox="0 0 76.0 76.0" height="76.0px">
  <g>
    <g transform=" rotate(180.000000 38.000000 38.000000)"><defs id="defs3079"/>
  <sodipodi:namedview xmlns:sodipodi="http://sodipodi.sourceforge.net/DTD/sodipodi-0.dtd" xmlns:inkscape="http://www.inkscape.org/namespaces/inkscape" id="namedview3077" pagecolor="#ffffff" bordercolor="#111111" borderopacity="1" inkscape:showpageshadow="0" inkscape:pageopacity="0" inkscape:pagecheckerboard="1" inkscape:deskcolor="#d1d1d1" showgrid="false" inkscape:zoom="9.2197802" inkscape:cx="30.532181" inkscape:cy="32.050656" inkscape:window-width="1846" inkscape:window-height="1016" inkscape:window-x="0" inkscape:window-y="0" inkscape:window-maximized="1" inkscape:current-layer="svg3075"/>
  <g id="g3073" transform="translate(-7.5)">
    <g transform="rotate(-90,45.5,38)" id="g3071">
      <g clip-path="url(#clip0_53_200)" id="g3064">
        <path fill-rule="evenodd" clip-rule="evenodd" d="M 45.5,74 C 57.9264,74 68,63.9264 68,51.5 68,39.0736 57.9264,29 45.5,29 33.0736,29 23,39.0736 23,51.5 23,63.9264 33.0736,74 45.5,74 Z m 0,2 C 59.031,76 70,65.031 70,51.5 70,37.969 59.031,27 45.5,27 31.969,27 21,37.969 21,51.5 21,65.031 31.969,76 45.5,76 Z" fill="#000000" id="path3058"/>
        <path d="M 54,60 H 51.1299 V 45.8996 L 46.101,60 H 44.8745 L 39.8701,45.8996 V 60 H 37 V 41 h 4.0476 L 45.4877,53.5052 49.9524,41 H 54 Z" fill="#000000" id="path3060"/>
        <path fill-rule="evenodd" clip-rule="evenodd" d="M 46,0 V 27 H 45 V 4.37112e-8 Z" fill="#000000" id="path3062"/>
      </g>
      <defs id="defs3069">
        <clipPath id="clip0_53_200">
          <rect width="91" height="76" fill="#ffffff" id="rect3066" x="0" y="0"/>
        </clipPath>
      </defs>
    </g>
  </g>
</g>
  </g>
</svg>
