<?xml version='1.0' encoding='ASCII' standalone='yes'?>
<svg xmlns="http://www.w3.org/2000/svg" xmlns:xlink="http://www.w3.org/1999/xlink" version="1.1" width="84.0px" viewBox="0 0 84.0 81.0" height="81.0px">
  <g>
    <g transform=" rotate(180.000000 40.500000 42.000000)"><defs id="defs1414"/>
  <sodipodi:namedview xmlns:sodipodi="http://sodipodi.sourceforge.net/DTD/sodipodi-0.dtd" xmlns:inkscape="http://www.inkscape.org/namespaces/inkscape" id="namedview1412" pagecolor="#ffffff" bordercolor="#111111" borderopacity="1" inkscape:showpageshadow="0" inkscape:pageopacity="0" inkscape:pagecheckerboard="1" inkscape:deskcolor="#d1d1d1" showgrid="false" inkscape:zoom="9.9880952" inkscape:cx="39.046484" inkscape:cy="43.501788" inkscape:window-width="1846" inkscape:window-height="1016" inkscape:window-x="0" inkscape:window-y="0" inkscape:window-maximized="1" inkscape:current-layer="svg1410"/>
  <g id="g1408" transform="translate(-1.5,1.5)">
    <g transform="rotate(-90,42,40.5)" id="g1406">
      <path fill-rule="evenodd" clip-rule="evenodd" d="M 59.5,79 C 71.9264,79 82,68.9264 82,56.5 82,44.0736 71.9264,34 59.5,34 47.0736,34 37,44.0736 37,56.5 37,68.9264 47.0736,79 59.5,79 Z m 0,2 C 73.031,81 84,70.031 84,56.5 84,42.969 73.031,32 59.5,32 45.969,32 35,42.969 35,56.5 35,70.031 45.969,81 59.5,81 Z" fill="#000000" id="path1394"/>
      <path fill-rule="evenodd" clip-rule="evenodd" d="M 24.5,79 C 36.9264,79 47,68.9264 47,56.5 47,44.0736 36.9264,34 24.5,34 12.0736,34 2,44.0736 2,56.5 2,68.9264 12.0736,79 24.5,79 Z m 0,2 C 38.031,81 49,70.031 49,56.5 49,42.969 38.031,32 24.5,32 10.969,32 0,42.969 0,56.5 0,70.031 10.969,81 24.5,81 Z" fill="#000000" id="path1396"/>
      <path fill-rule="evenodd" clip-rule="evenodd" d="M 41.5,47 C 53.9264,47 64,36.9264 64,24.5 64,12.0736 53.9264,2 41.5,2 29.0736,2 19,12.0736 19,24.5 19,36.9264 29.0736,47 41.5,47 Z m 0,2 C 55.031,49 66,38.031 66,24.5 66,10.969 55.031,0 41.5,0 27.969,0 17,10.969 17,24.5 17,38.031 27.969,49 41.5,49 Z" fill="#000000" id="path1398"/>
      <path fill-rule="evenodd" clip-rule="evenodd" d="M 19.5,48 9,66 h 21 z m 0,1.9846 L 10.741,65 h 17.518 z" fill="#000000" id="path1400"/>
      <path fill-rule="evenodd" clip-rule="evenodd" d="M 62.6805,56.7942 69.3158,51.3876 68.6842,50.6124 61.5,56.4661 54.3158,50.6124 53.6842,51.3876 61,57.3487 V 66 h 1 v -8.3022 l 6.3438,1.0181 0.1585,-0.9874 z" fill="#000000" id="path1402"/>
      <path fill-rule="evenodd" clip-rule="evenodd" d="M 42.6805,22.7942 49.3158,17.3876 48.6842,16.6124 41.5,22.4661 34.3158,16.6124 33.6842,17.3876 41,23.3487 V 32 h 1 v -8.3022 l 6.3438,1.0181 0.1585,-0.9874 z" fill="#000000" id="path1404"/>
    </g>
  </g>
</g>
  </g>
</svg>
