<?xml version="1.0" encoding="UTF-8" standalone="no"?>
<svg
   version="1.1"
   width="49"
   viewBox="0 0 49 49"
   height="49"
   id="svg2273"
   sodipodi:docname="r_Синхронный компенсатор.svg"
   inkscape:version="1.2.1 (9c6d41e, 2022-07-14)"
   xmlns:inkscape="http://www.inkscape.org/namespaces/inkscape"
   xmlns:sodipodi="http://sodipodi.sourceforge.net/DTD/sodipodi-0.dtd"
   xmlns="http://www.w3.org/2000/svg"
   xmlns:svg="http://www.w3.org/2000/svg">
  <defs
     id="defs2277" />
  <sodipodi:namedview
     id="namedview2275"
     pagecolor="#ffffff"
     bordercolor="#111111"
     borderopacity="1"
     inkscape:showpageshadow="0"
     inkscape:pageopacity="0"
     inkscape:pagecheckerboard="1"
     inkscape:deskcolor="#d1d1d1"
     showgrid="false"
     inkscape:zoom="9.2197802"
     inkscape:cx="3.4707986"
     inkscape:cy="45.5"
     inkscape:window-width="1846"
     inkscape:window-height="1016"
     inkscape:window-x="0"
     inkscape:window-y="0"
     inkscape:window-maximized="1"
     inkscape:current-layer="svg2273" />
  <g
     id="g2271"
     transform="translate(-21)">
    <g
       transform="rotate(-90,45.5,24.5)"
       id="g2269">
      <path
         fill-rule="evenodd"
         clip-rule="evenodd"
         d="M 45.5,47 C 57.9264,47 68,36.9264 68,24.5 68,12.0736 57.9264,2 45.5,2 33.0736,2 23,12.0736 23,24.5 23,36.9264 33.0736,47 45.5,47 Z m 0,2 C 59.031,49 70,38.031 70,24.5 70,10.969 59.031,0 45.5,0 31.969,0 21,10.969 21,24.5 21,38.031 31.969,49 45.5,49 Z"
         fill="#000000"
         id="path2263" />
      <path
         fill-rule="evenodd"
         clip-rule="evenodd"
         d="m 35,22 h 21 v 1 H 35 Z"
         fill="#000000"
         id="path2265" />
      <path
         fill-rule="evenodd"
         clip-rule="evenodd"
         d="m 35,27 h 21 v 1 H 35 Z"
         fill="#000000"
         id="path2267" />
    </g>
  </g>
</svg>
