<svg height="21" viewBox="0 0 21 20.999999" width="21" xmlns="http://www.w3.org/2000/svg"><path d="m14.15918 17h-7.3183597v4h7.3183597zm-7.3183597-17v15h3.6992187c2.4 0 3.601563-1.2 3.601563-3.5v-1.199219c0-1.5999998-.501172-2.800781-1.701172-3.300781 1-.5 1.40039-1.5 1.40039-3v-.5996094c0-2.2-1.00039-3.4003906-3.40039-3.4003906zm2.4003906 2.0996094h1.1992191c.9 0 1.201172.4996093 1.201172 1.5996094v.8007812c0 1.2-.500391 1.5996094-1.400391 1.5996094h-1.0000001zm-.099609 6.3007812h1.0996091c1 0 1.5.3988282 1.5 1.7988284v1.300781c0 1.1-.401171 1.5-1.201172 1.5h-1.3984375z" fill="#fff"/></svg>