<svg height="2048" width="2048" xmlns="http://www.w3.org/2000/svg"><path d="m1866.4062 206.69141s-585.4532 298.72407-882.8437 438.40625c63.7073 58.17753 122.9637 120.926 184.4375 181.40625-288.34237 292.18999-159.2904 166.97689-408.86133 420.39449l-428.29101 69.6036-82.20313 505.873 505.875-82.2012 4.91211-30.2363 64.67383-398.0137c251.54373-255.3955 121.48995-129.1602 410.39453-421.91989 61.5877 61.37037 122.8273 123.08649 184.4375 184.43749 158.8449-312.83119 447.4687-867.74999 447.4687-867.74999zm-1132.29682 1130.21479-53.66602 329.1836-329.1875 53.668 53.66797-329.375z" transform="matrix(1.00000018909 0 0 1.00000018909 .00001499425 .00459879149)"/></svg>