<svg height="2048" width="2048" xmlns="http://www.w3.org/2000/svg"><path d="m1876.6602 106.36523-840.543 224.07032 130.2754 193.13672-995.05276 671.17573 51.39844 76.1836 995.05082-671.17574 126.6933 187.8457 532.1621-681.22656zm-1.6446 671.8125-840.5429 224.06057 308.3671 457.1679 532.1602-681.2187zm-837.1386 502.77737-128.52348 86.6894 51.39843 76.1934 128.52345-86.6797zm-257.05473 173.3808-128.53125 86.6914 51.39648 76.211 128.5332-86.6992zm-273.63477 184.5762-128.53125 86.6992 51.39648 76.2032 128.53321-86.7188zm-257.05469 173.3809-78.79297 53.1562 51.39844 76.1934 78.79102-53.1465z" transform="matrix(1.00000018909 0 0 1.00000018909 .00001499425 .00459879149)"/></svg>