<svg height="2048" width="2048" xmlns="http://www.w3.org/2000/svg"><path d="m1866.4062 206.69141s-585.4532 298.72407-882.8437 438.40625c63.7073 58.17753 122.9637 120.926 184.4375 181.40625-187.96584 190.47409-375.93335 380.94569-563.90039 571.41799h-340.89063v88.0644h253.98633c-85.41926 86.558-170.83902 173.1153-256.25781 259.6739 22.17254 21.1599 44.32746 42.3108 66.5 63.4707 106.30042-107.7189 212.60127-215.4316 318.90234-323.1446h358.50586v-88.0644h-271.59765c167.08422-169.3025 334.16885-338.6053 501.25195-507.91799 61.5877 61.37037 122.8273 123.08649 184.4375 184.43749 158.8449-312.83119 447.4687-867.74999 447.4687-867.74999z" transform="matrix(1.00000018909 0 0 1.00000018909 .00001499425 .00459879149)"/></svg>