<svg height="2048" width="2048" xmlns="http://www.w3.org/2000/svg"><g transform="translate(-.000006 995.637842)"><path d="m96.000056 758.36216v-1460h1855.999944v1460zm1755.999944-97.6992v-1271.543h-1659.99994v1271.5411h1659.99994z"/><path d="m96.000007 315.36216v-100h131.999993v100zm231.999993 0v-100h200v100zm300 0v-100h200v100zm300 0v-100h200v100zm300 0v-100h200v100zm300 0v-100h200v100zm298 0v-100h126v50 50h-50z"/><path d="m96.000015-158.63784v-100h131.999995v100zm231.999995 0v-100h200v100zm300 0v-100h200v100zm300 0v-100h199.99999v100zm299.99999 0v-100h200v100zm300 0v-100h200v100zm298 0v-100h126v50 50h-50z"/></g></svg>