<svg height="2048" width="2048" xmlns="http://www.w3.org/2000/svg"><path d="m95.000006 847.00476v-182h100.000004v82h32v100zm232.000004 0v-100h200v100zm300 0v-100h200v100zm300 0v-100h199.99999v100zm299.99999 0v-100h200v100zm300 0v-100h200v100zm298 0v-100h26v-82h100v132 50h-50zm-1729.999994-282v-188h100.000004v188zm1755.999994 0v-188h100v188zm-1754.999994-284.64258v-1080.00002h1855.999994v1080.00002zm1755.999994-97.69922v-891.543h-1659.99999v891.54105l1659.99999.002z" transform="translate(-.000006 995.637842)"/></svg>