<svg width="45" height="45" viewBox="0 0 45 45" fill="none" xmlns="http://www.w3.org/2000/svg">
<path d="M22.0446 0.000608991C11.1698 0.00978559 1.17244 9.0861 0.146451 19.9432C-0.954502 29.1904 4.24126 38.8557 12.7215 42.7835C20.5969 46.6388 30.7052 45.4188 37.2369 39.4825C43.8826 33.7225 46.7864 23.9045 43.8672 15.5285C41.0912 6.98307 32.8983 0.440896 23.8751 0.0449365C23.2657 0.00504418 22.6551 -0.00244609 22.0446 0.000608991ZM22.4901 7.05141C30.4989 6.81808 37.8412 13.8931 37.9352 21.9179C38.2815 29.2593 32.775 36.4684 25.4707 37.6992C18.4025 39.1173 10.5633 35.0258 8.08922 28.1528C5.42579 21.3561 8.14309 12.7611 14.626 9.19379C16.9964 7.79976 19.7406 7.04798 22.4901 7.05141ZM22.4989 11.0777C15.0962 10.7962 9.14637 18.8967 11.5936 25.8901C13.5141 33.052 22.995 36.3642 28.9444 31.9478C35.2104 27.9935 35.5657 17.9434 29.5947 13.5551C27.5975 11.9592 25.0534 11.0713 22.4989 11.0777Z" fill="#58472E"/>
</svg>
