<svg height="2000" viewBox="0 0 2000 2000" width="2000" xmlns="http://www.w3.org/2000/svg"><path d="m300.00001 92.232481c58.33243-138.228514 134.89425-282.230651 266.546-360.085751 97.7838-58.39135 218.70131-22.41896 308.42844 34.81898 138.18715 85.20714 246.29115 211.842759 382.60565 299.507821 82.3352 48.264229 184.7331 8.717415 244.7474-58.0565283 72.4015-84.4454287 155.2156-164.0224627 197.6725-269.9809627v330.037636c-61.3313 121.670244-140.2313 248.152694-266.392 307.169314-103.2281 44.43963-223.1481 17.78892-312.5238-46.58565-131.01935-87.9789-227.48616-223.68984-369.85445-294.779603-69.17183-36.0046256-157.37678-27.5456121-215.33077 26.622558-104.48699 92.503835-164.36464 223.319945-235.89897 341.461865 0-103.37656 0-206.75312 0-310.129679z" transform="translate(0 947.63784)"/></svg>