<svg height="2000" viewBox="0 0 2000 2000" width="2000" xmlns="http://www.w3.org/2000/svg"><path d="m1003.1719-427.54214c-39.60796 5.794-68.12868 38.56118-102.1447 57.51603-186.37683 125.49923-373.21723 250.34472-559.3042 376.25275-35.93279 27.59579-23.84863 86.43052 16.0756 103.58172 206.32507 138.4236 412.21958 277.524 618.81387 415.5246 41.83143 24.8132 96.65733-16.1808 88.32893-63.0759 0-105.8146 0-211.6291 0-317.4437 188.9638 126.7544 377.4965 254.1864 566.7296 380.5177 41.8315 24.8133 96.6575-16.1808 88.329-63.076-.2007-278.6032.4013-557.22646-.3009-835.81704-2.7279-48.53139-67.3754-71.26567-101.6214-38.12699-184.3787 123.91483-368.7575 247.82966-553.1363 371.74449-.7888-113.15884 1.5844-226.51615-1.1984-339.55004-5.2041-28.0178-32.0958-49.35538-60.5711-48.04762zm-58.23049 172.58399v614.78511c-152.46029-102.4642-304.92057-204.9283-457.38086-307.3925 152.46029-102.4642 304.92057-204.92841 457.38086-307.39261zm655.05859.00195v614.78126c-152.4603-102.4635-304.9206-204.9271-457.3809-307.3906 152.4603-102.46355 304.9206-204.92711 457.3809-307.39066z" transform="translate(0 947.63784)"/></svg>