<svg height="2048" width="2048" xmlns="http://www.w3.org/2000/svg"><path d="m534.60547 370.92383h100v-100h-100zm200 0h100v-100h-100zm200 0h100.00003v-100h-100.00003zm200.00003 0h100v-100h-100zm200 0h100v-100h-100zm200 0c30.9735.73423 62.1811-1.93701 92.9648 2.50392 4.5938-33.01562 9.1875-66.03125 13.7813-99.04687-35.3263-5.41763-71.1731-2.86375-106.7461-3.45728zm-1087.87698-99.9043c-17.24598.40579-34.46298 2.12988-51.43946 5.1974 6.27169 32.7374 12.70103 65.44679 17.75586 98.40039 20.07986-5.7101 53.18251 5.51685 41.89436-27.15633-5.38756-21.4813 9.22404-67.92281-8.21076-76.44146zm1257.66798 128.20703c24.0173 13.14915 45.6039 30.72449 63.4748 51.43932 23.5957-22.4544 56.3567-43.67316 74.8164-66.35352-25.3149-29.13419-55.766-53.80996-89.582-72.42383zm-1420.59962-80.94336c-32.93135 19.8889-62.36335 45.57565-86.44727 75.58008 26.38187 18.71693 53.94179 48.31451 79.62305 60.56055 16.81392-20.37527 37.14259-37.85838 59.87109-51.33008-18.43496-27.72397-30.88513-59.32653-53.04687-84.81055zm1556.16212 191.96485c-31.619 2.58968-31.3004 19.24621-21.2402 44.04687 8.6856 14.02587-5.4623 48.4738 14.0601 47.75781 29.5179-1.27323 64.0626 2.48034 90.6156-1.75781-.058-38.78123-6.8926-77.56207-20.3279-113.95117-21.0359 7.9681-42.0717 15.9362-63.1076 23.9043zm-1700.38088-8.14844c-11.07216 35.1545-15.73617 72.14887-14.97282 108.95508h100c-.70755-28.09702 2.69513-56.42183 11.71291-83.11133l-95.14844-30.76563-1.44375 4.46454zm1683.81638 299.95312h100v-100h-100zm-1698.78903 9.00196h100v-100h-100zm1698.78903 190.99801h100v-99.99997h-100zm-1698.78903 9.002h100v-100.00001h-100zm1698.78903 190.998h100v-100h-100zm-1698.78903 9.002h100v-100h-100zm1698.78903 190.998h100v-100h-100zm-1698.78903 9.002h100v-100h-100zm1694.11333 82.6484c-5.3357 26.1874-15.2863 51.4355-29.3321 74.1758 28.4113 15.8819 58.7748 40.1796 86.0215 51.041 20.1598-33.1028 34.4193-69.7977 41.8027-107.8496-32.3903-5.2434-67.9565-14.8144-98.4921-17.3672zm-1685.54107 28.6133c8.81234 38.0444 24.46981 74.5007 46.0625 107.043l83.57227-54.9141c-15.31071-22.9882-26.3245-48.8039-32.46094-75.7285-32.39128 7.8665-64.78255 15.7331-97.17383 23.5996zm1598.01757 109.2207c-20.8815 15.6033-44.4457 27.5962-69.3515 35.291l30.7656 95.1504c37.2365-11.6459 72.3615-30.0069 103.1699-53.9453-20.2669-26.4642-40.5339-52.9284-60.8008-79.3926l-3.7256 2.8524-.058.044zm-1470.81249 82.6191c31.87265 23.2283 67.98936 40.6242 106.02539 51.0508 7.85362-32.004 19.31386-66.0856 24.98438-96.832-25.85581-7.3206-50.41734-19.2193-72.13477-35.0508zm218.11914 62.92h100v-100h-100zm199.52051 0h100.47949v-100h-100.47949zm200.47949 0h100v-100h-100zm200.00005 0h100v-100h-100zm194 0h97.9775v-100h-97.9775zm206 0h100v-100h-100zm-108.0225-30.6407v-701.2109h-692.45704v701.2109zm-629.46778-637.7226h565.97658v565.7226h-565.97658zm75.11328 224.7285v96.207h415.748v-96.207z" opacity=".97"/></svg>