<svg height="2000" viewBox="0 0 2000 2000" width="2000" xmlns="http://www.w3.org/2000/svg"><path d="m1057.0703-536.8019c-251.96066-3.53538-493.62301 172.22866-565.93613 414.14756-55.58419 173.97657-23.10548 373.061 85.52208 520.0263-89.69531-17.3633-179.39063-34.7266-269.08594-52.0899-7.60156 39.2715-15.20313 78.543-22.80469 117.8145 161.28841 31.2213 322.57683 62.4427 483.86524 93.664 31.22917-159.9954 62.45833-319.9909 93.6875-479.9863-39.25977-7.6628-78.51953-15.3255-117.7793-22.9883-18.95378 97.1055-37.90755 194.2109-56.86133 291.3164-138.7329-165.6011-136.72949-427.77296 4.36682-591.37897 137.41756-171.71599 399.20335-221.00758 590.73365-114 183.2317 94.56792 284.8875 318.59636 234.8961 518.74577-44.7698 208.9108-247.4038 367.3398-460.604 363.0532-55.485-3.9353-83.37472 76.1957-37.4367 107.5608 40.1043 24.9864 90.8465 7.3636 134.8085 4.4747 248.1809-37.7478 457.5194-249.4518 489.5199-498.9095 36.9941-238.02524-91.3838-488.93562-304.8033-600.24159-86.1681-46.76847-184.0681-71.36408-282.0884-71.20867z" transform="translate(0 947.63784)"/></svg>