<svg height="2000" viewBox="0 0 2000 2000" width="2000" xmlns="http://www.w3.org/2000/svg"><path d="m919.37891 382.98828c-22.29906.00706-42.95289 8.25791-60.56641 19.61524l-.0293.01757-.02734.01953c-94.69375 61.31949-418.86736 286.29013-490.12695 335.20118l-.00196.00195h-.00195c-64.37124 44.19611-107.73286 110.90376-132.66211 189.93555l-.00391.01562-.0039.01367c-25.95238 82.51551-22.62204 172.40331-22.3711 247.68551l.00196.0196v.0195c.2548 56.6856 1.60618 106.1552 16.30859 166.1484.001.005.00291.0104.00391.0157 21.37286 87.802 62.76795 151.336 121.23047 190.2851 58.45984 38.9473 130.61411 52.7676 211.57421 53.0176 292.2834 1.0972 584.74108 1.4897 877.18168 0h.0254.0253c32.2087-.2112 62.9594-13.7524 82.1348-37.6777 19.174-23.9235 27.0167-54.865 27.4297-88.8106.2909-22.768-2.9107-44.287-10.3066-63.5117h32.375c31.5311 0 60.4337-8.984 81.1523-27.916 20.7116-18.9256 31.3044-44.6209 36.8086-71.6797v-.0078c7.6823-37.6398 4.0544-74.8065-10.916-105.9961 32.9456-2.6615 62.0332-15.1028 80.7402-37.9063 21.0232-25.6268 27.1474-58.2054 27.2559-92.7207.1144-36.0334-8.6292-70.42038-28.8125-97.76559-20.1832-27.34521-53.7714-45.95605-91.5664-46.00976h-.0098-.0117c-13.7592-.01148-26.1597.0083-41.7813 0 7.5167-18.74416 10.8211-39.82651 10.752-62.00586v-.05664-.05664c-.2278-35.77236-9.2509-69.9535-29.5352-97.12696-20.2839-27.17298-53.8081-45.75325-91.5859-45.7539-224.4198-.88552-446.2514 2.15695-634.90235 1.20312 9.83058-9.88493 19.37754-19.52498 29.87109-29.96094 32.48128-32.30302 63.69921-62.74271 79.82618-83.61132 38.55508-49.62243 44.30778-116.85168 11.84958-166.30469-17.11281-26.14334-42.20715-43.83194-69.15037-47.51367-3.36896-.46036-6.70793-.72065-10.01171-.79883v.00195c-.72271-.0171-1.44279-.02562-2.16211-.02539zm.54687 70.02734c.76807.00854 1.48528.06171 2.14844.15235 5.30527.72495 10.98561 2.6202 20.07031 16.50586l.01758.02539.01562.02539c12.69172 19.32635 12.13123 58.30528-8.62304 84.99219l-.03516.04492-.03515.04492c-7.54652 9.76975-41.45389 44.61588-73.81836 76.80274-32.36448 32.18686-63.13394 61.89553-78.35743 80.4414-14.55691 17.73388-9.21576 32.64732-5.26757 41.98242 3.94818 9.3351 8.46468 20.23668 28.59765 25.01953 6.02788 1.43196 6.35987 1.0198 8.28906 1.15235 1.9292.13255 3.92333.22394 6.26758.30859 4.6885.1693 10.68742.29739 18.09375.40625 226.46494 1.37916 450.42254-1.24061 676.70894-.91992h.0313.0312c17.2119 0 26.557 5.65704 35.4922 17.62695 8.9293 11.9619 15.4685 31.8133 15.6289 55.65235.066 24.73018-5.8566 39.81995-13.0566 48.13281-7.2 8.31282-16.8453 13.52059-37.4746 13.58789h-484.6504v70h484.7422.0488c66.4784.0062 101.5408-.04157 151.3633 0 17.3073.02951 26.5288 5.66165 35.3242 17.5781 8.7993 11.9217 15.2095 31.8268 15.1328 55.9746v.002c-.081 25.8227-5.3461 41.1958-11.375 48.5449-6.0288 7.3491-14.6381 12.732-39.4824 12.9024-8.4298.0578-68.8079.0136-93.8633.0429-.397-.005-.7856-.0417-1.1836-.0429-180.2265-.8506-360.4546-.002-540.6816-.002h-.0254l-.0254 70h.0254c.043 0 382.5167.2386 541.3301.0469 19.7.2791 31.5109 8.2106 40.9336 23.6015 9.5635 15.621 14.3232 40.1095 8.6797 67.7559v.0137.0136c-3.7364 18.3805-9.4126 28.473-15.4356 33.9766s-14.3345 9.5918-33.9336 9.5918c-180.5235-.0861-361.0445-.4522-541.5683 0h-.0918l.0918 70h.0918 409.3066.0156c14.7071.0958 21.2468 4.0084 27.961 12.9766 6.7142 8.9681 12.4394 25.6424 12.1308 49.6523v.0137.0117c-.2841 23.4116-5.9517 38.2716-12.0566 45.8887-6.1048 7.617-12.405 11.3569-27.9727 11.459-292.1234 1.4878-584.35596 1.0967-876.50974 0h-.01368-.01171c-73.05296-.2231-130.4559-12.9316-173-41.2754-42.55051-28.344-73.60769-72.8685-92.03907-148.5977l-.00781-.0293-.00586-.0293c-12.87021-52.4926-14.05921-94.0103-14.31055-149.8105v-.041c-.25565-76.5706-1.72448-160.0496 19.14649-226.40825 21.39186-67.80123 55.9877-119.25225 105.51172-153.25586l.0039-.00196c72.12455-49.50477 398.22899-275.65881 488.5-334.11914l.00391-.00195c8.47608-5.46474 15.49926-7.78869 20.71875-8.30273.87005-.08569 1.68897-.12182 2.45703-.11329z"/></svg>