<svg height="2000" viewBox="0 0 2000 2000" width="2000" xmlns="http://www.w3.org/2000/svg"><path d="m1511.4512 292.91211c-110.277 0-216.0381 43.80753-294.0157 121.78516s-121.7851 183.73665-121.7851 294.01367c0 110.27701 43.8075 216.038 121.7851 294.01566 77.9776 77.9776 183.7387 121.7851 294.0157 121.7851 182.2684-.002 343.2871-118.7116 397.1933-292.82615l-298.3789 79.94922-232.3125-152.98633 124.6953-248.64453 156.6348-41.97071 156.6348-41.96875c-78.5706-84.77276-188.8824-133.01544-304.4668-133.15234zm-492.6035 555.19336-922.248091 631.91603c-28.475682 84.1749 63.923241 222.7733 158.994141 227.0664l902.88085-618.3535c-72.7912-61.7985-122.0951-146.76599-139.6269-240.62893z"/></svg>