<svg height="2000" viewBox="0 0 2000 2000" width="2000" xmlns="http://www.w3.org/2000/svg"><path d="m759.41016 378-8.26172 4.9043-2.69922 1.60351c-116.79146 69.21257-197.16482 132.67767-250.2207 194.65235-53.12936 62.06046-78.81652 124.54792-79.54688 184.78711-1.45347 119.88048 86.97228 209.71859 165.42578 290.06643 78.39382 80.2866 148.32259 156.0018 154.9043 218.664 3.35465 31.9387-4.19483 64.0189-39.01953 107.9434-34.67819 43.7398-97.61667 96.1282-198.24024 154.7851l-148.55859 86.5938h916.85354l10.8496-6.3125.0117-.0098c106.6354-62.1616 178.4767-119.591 224.2539-177.33 45.9137-57.9111 64.5936-118.4995 58.6191-175.3789-11.8376-112.702-103.6452-194.8266-180.8281-273.8731-77.2428-79.10787-139.8524-153.72081-139-224.02343.4304-35.49105 14.0718-75.08441 57.2188-125.48438 43.0731-50.31388 115.6956-109.18115 227.0312-175.1582v-.00196l145.8418-86.42773zm25.84179 92.91797h564.64255c-49.7292 37.07832-89.0484 72.89757-119.3066 108.24219-53.1293 62.06045-78.8165 124.54791-79.5469 184.78711-1.4534 119.88149 86.9766 209.71905 165.4297 290.06643 78.3934 80.2861 148.3166 156.0006 154.8984 218.664 3.3547 31.9388-4.1929 64.0189-39.0175 107.9434-33.3963 42.1228-93.4555 92.3857-187.7891 148.4609h-566.08984c39.27012-30.6267 70.46826-60.6354 94.33007-90.7324 45.91374-57.9111 64.59346-118.4995 58.61915-175.3789-11.83763-112.702-103.64524-194.8265-180.82813-273.87304-77.24277-79.10786-139.85041-153.72079-138.99805-224.02344.43032-35.49097 14.06988-75.0844 57.2168-125.48438 41.62668-48.62418 111.27423-105.34634 216.43945-168.67187zm-132.12109 158.47461v42.91992h441.39844v-42.91992zm-16.40234 231.17578v42.91797h456.38478v-42.91797zm206.79492 231.16994v42.9179h441.98826v-42.9179zm63.19726 231.1738v42.918h457.9863v-42.918z"/></svg>