<svg height="2048" width="2048" xmlns="http://www.w3.org/2000/svg"><path d="m879 220.18359c-118.95115 7.14037-143.48688-24.24664-145 105.60547v19.28516l-353.5 113.5957c-40.5497 10.47834-40.7948 60.5872 0 60.72266h1278c40 1.16103 38.5714-50.4862 0-60.72266l-344.5-111.86914v-21.01172c0-127.31718-13.0219-98.5425-145-105.60547h-145zm-440.62891 416.21289c-29.31733.0646-52.29 25.22113-49.69921 54.42383l102.04492 1135.32809c2.30723 25.7433 23.8528 45.4862 49.69922 45.5411h937.10348c25.3894.015 46.7604-18.9981 49.6993-44.2168l132.0917-1135.33598c3.4292-29.70174-19.8002-55.7547-49.6992-55.74024h-292.8105-292.8106zm54.80079 99.96485h530.81832 529.4961l-120.375 1035.36327h-846.96482zm245.10937 150.97265c-1.83043-.0876-3.6641-.0837-5.49414.0117-32.48122 1.75232-56.35549 31.15586-51.40039 63.30469l91.27344 654.21291c2.86306 31.2537 31.25362 53.7808 62.34 49.465 31.08637-4.3157 52.26666-33.7247 46.50765-64.5763l-91.27343-654.21487c-3.27993-26.56963-25.21262-46.91922-51.95313-48.20313zm575.21285.0117c-28.1862-.59596-52.2599 20.21525-55.7461 48.19141l-91.2734 654.21489c-5.7587 30.8515 15.4216 60.2601 46.5078 64.5758 31.0861 4.3157 59.4766-18.2111 62.3399-49.4645l91.2715-654.21291c5.0149-32.79753-19.9299-62.53632-53.0997-63.30469z" transform="matrix(1.00000018909 0 0 1.00000018909 .00001499425 .00459879149)"/></svg>