<svg width="36" height="50" viewBox="0 0 36 50" fill="none" xmlns="http://www.w3.org/2000/svg">
<path d="M35.2113 17.6056C35.2113 32.3944 19.7183 50 17.6056 50C15.493 50 0 32.3944 0 17.6056C0 7.88231 7.88231 0 17.6056 0C27.329 0 35.2113 7.88231 35.2113 17.6056Z" fill="url(#paint0_linear_102_3313)"/>
<path fill-rule="evenodd" clip-rule="evenodd" d="M0.0931395 15.7836C1.00486 6.91638 8.49754 0 17.6056 0C27.0357 0 34.7341 7.41403 35.1899 16.7311C31.1585 21.7715 24.9563 25 18 25C10.6171 25 4.08359 21.3633 0.0931395 15.7836Z" fill="url(#paint1_radial_102_3313)"/>
<path d="M34.4613 17.6056C34.4613 24.7754 30.6884 32.7212 26.5753 38.9346C24.5278 42.0277 22.4183 44.6578 20.6985 46.5073C19.8373 47.4336 19.0846 48.1524 18.4947 48.6334C18.1986 48.8748 17.9583 49.0442 17.7764 49.1492C17.6946 49.1964 17.6388 49.2222 17.6056 49.2361C17.5724 49.2222 17.5166 49.1964 17.4348 49.1492C17.253 49.0442 17.0126 48.8748 16.7165 48.6334C16.1267 48.1524 15.374 47.4336 14.5127 46.5073C12.793 44.6578 10.6835 42.0277 8.63595 38.9346C4.52286 32.7212 0.75 24.7754 0.75 17.6056C0.75 8.29653 8.29652 0.75 17.6056 0.75C26.9147 0.75 34.4613 8.29653 34.4613 17.6056Z" stroke="url(#paint2_linear_102_3313)" stroke-width="1.5"/>
<circle cx="17.5" cy="17.5" r="13.5" fill="url(#paint3_radial_102_3313)"/>
<circle cx="17.5" cy="17.5" r="13" stroke="url(#paint4_linear_102_3313)"/>
<circle cx="17.5001" cy="17.5" r="13.4" transform="rotate(17.2793 17.5001 17.5)" stroke="url(#paint5_linear_102_3313)" stroke-width="0.2"/>
<mask id="path-7-inside-1_102_3313" fill="white">
<path d="M24.2423 22.7024V22.1151V19.8205V14.1522V13.7151V13.1961C24.2423 12.7044 23.8197 12.3083 23.2951 12.3083H22.377V11.9668V10.8468C22.3625 10.3824 21.969 10 21.4736 10C20.9781 10 20.5701 10.3824 20.5701 10.8468V11.9668V12.4995H19.6812C19.1566 12.4995 18.7341 12.8956 18.7341 13.3873V19.1239V20.2439C18.7341 20.5171 18.5009 20.7356 18.2095 20.7356H17.918V14.1522C17.918 14.0156 17.8306 13.9063 17.6849 13.8654C15.1202 13.1141 13.2113 13.1141 10.6321 13.8654C10.5009 13.9063 10.3989 14.0293 10.3989 14.1522V14.3161H10.1658C9.52459 14.3161 9 14.8078 9 15.4088V16.802V18.3727V21.2956V22.7024V23.6859V24H25V22.7024H24.2423ZM10.1658 14.7668H10.4135V15.7093H10.1658C9.90346 15.7093 9.65574 15.7912 9.4663 15.9278V15.4088C9.4663 15.0537 9.78689 14.7668 10.1658 14.7668ZM10.4135 16.16V17.2937H10.1658C9.90346 17.2937 9.65574 17.3756 9.4663 17.5122V16.802C9.4663 16.4468 9.77231 16.16 10.1512 16.16H10.4135ZM10.4135 22.7024H9.4663V21.3093V18.3727C9.4663 18.0176 9.77231 17.7307 10.1512 17.7307H10.3989V18.9327V22.7024H10.4135ZM20.5701 19.8205H20.133V22.6888H17.918V21.1863H18.2532C18.7778 21.1863 19.2004 20.7902 19.2004 20.2985V14.1522V13.4283C19.2004 13.1551 19.4335 12.9366 19.725 12.9366H20.5701V19.8205ZM23.776 19.8205H22.377V15.5454H23.776V19.8205ZM23.776 15.1083H22.377V14.1659H23.776V15.1083ZM23.776 13.7151H22.377V12.7454H23.2514C23.5428 12.7454 23.776 12.9639 23.776 13.2371V13.7151Z"/>
</mask>
<path d="M24.2423 22.7024V22.1151V19.8205V14.1522V13.7151V13.1961C24.2423 12.7044 23.8197 12.3083 23.2951 12.3083H22.377V11.9668V10.8468C22.3625 10.3824 21.969 10 21.4736 10C20.9781 10 20.5701 10.3824 20.5701 10.8468V11.9668V12.4995H19.6812C19.1566 12.4995 18.7341 12.8956 18.7341 13.3873V19.1239V20.2439C18.7341 20.5171 18.5009 20.7356 18.2095 20.7356H17.918V14.1522C17.918 14.0156 17.8306 13.9063 17.6849 13.8654C15.1202 13.1141 13.2113 13.1141 10.6321 13.8654C10.5009 13.9063 10.3989 14.0293 10.3989 14.1522V14.3161H10.1658C9.52459 14.3161 9 14.8078 9 15.4088V16.802V18.3727V21.2956V22.7024V23.6859V24H25V22.7024H24.2423ZM10.1658 14.7668H10.4135V15.7093H10.1658C9.90346 15.7093 9.65574 15.7912 9.4663 15.9278V15.4088C9.4663 15.0537 9.78689 14.7668 10.1658 14.7668ZM10.4135 16.16V17.2937H10.1658C9.90346 17.2937 9.65574 17.3756 9.4663 17.5122V16.802C9.4663 16.4468 9.77231 16.16 10.1512 16.16H10.4135ZM10.4135 22.7024H9.4663V21.3093V18.3727C9.4663 18.0176 9.77231 17.7307 10.1512 17.7307H10.3989V18.9327V22.7024H10.4135ZM20.5701 19.8205H20.133V22.6888H17.918V21.1863H18.2532C18.7778 21.1863 19.2004 20.7902 19.2004 20.2985V14.1522V13.4283C19.2004 13.1551 19.4335 12.9366 19.725 12.9366H20.5701V19.8205ZM23.776 19.8205H22.377V15.5454H23.776V19.8205ZM23.776 15.1083H22.377V14.1659H23.776V15.1083ZM23.776 13.7151H22.377V12.7454H23.2514C23.5428 12.7454 23.776 12.9639 23.776 13.2371V13.7151Z" fill="url(#paint6_radial_102_3313)"/>
<path d="M24.2423 22.7024H24.0423V22.9024H24.2423V22.7024ZM22.377 12.3083H22.177V12.5083H22.377V12.3083ZM22.377 10.8468H22.5771L22.577 10.8406L22.377 10.8468ZM20.5701 12.4995V12.6995H20.7701V12.4995H20.5701ZM17.918 20.7356H17.718V20.9356H17.918V20.7356ZM17.6849 13.8654L17.6287 14.0573L17.6307 14.0579L17.6849 13.8654ZM10.6321 13.8654L10.5761 13.6733L10.5724 13.6745L10.6321 13.8654ZM10.3989 14.3161V14.5161H10.5989V14.3161H10.3989ZM9 24H8.8V24.2H9V24ZM25 24V24.2H25.2V24H25ZM25 22.7024H25.2V22.5024H25V22.7024ZM10.4135 14.7668H10.6135V14.5668H10.4135V14.7668ZM10.4135 15.7093V15.9093H10.6135V15.7093H10.4135ZM9.4663 15.9278H9.2663V16.3186L9.58327 16.09L9.4663 15.9278ZM10.4135 16.16H10.6135V15.96H10.4135V16.16ZM10.4135 17.2937V17.4937H10.6135V17.2937H10.4135ZM9.4663 17.5122H9.2663V17.903L9.58327 17.6744L9.4663 17.5122ZM9.4663 22.7024H9.2663V22.9024H9.4663V22.7024ZM10.3989 17.7307H10.5989V17.5307H10.3989V17.7307ZM10.3989 22.7024H10.1989V22.9024H10.3989V22.7024ZM20.133 19.8205V19.6205H19.933V19.8205H20.133ZM20.133 22.6888V22.8888H20.333V22.6888H20.133ZM17.918 22.6888H17.718V22.8888H17.918V22.6888ZM17.918 21.1863V20.9863H17.718V21.1863H17.918ZM20.5701 12.9366H20.7701V12.7366H20.5701V12.9366ZM23.776 19.8205V20.0205H23.976V19.8205H23.776ZM22.377 19.8205H22.177V20.0205H22.377V19.8205ZM22.377 15.5454V15.3454H22.177V15.5454H22.377ZM23.776 15.5454H23.976V15.3454H23.776V15.5454ZM23.776 15.1083V15.3083H23.976V15.1083H23.776ZM22.377 15.1083H22.177V15.3083H22.377V15.1083ZM22.377 14.1659V13.9659H22.177V14.1659H22.377ZM23.776 14.1659H23.976V13.9659H23.776V14.1659ZM23.776 13.7151V13.9151H23.976V13.7151H23.776ZM22.377 13.7151H22.177V13.9151H22.377V13.7151ZM22.377 12.7454V12.5454H22.177V12.7454H22.377ZM24.4423 22.7024V22.1151H24.0423V22.7024H24.4423ZM24.4423 22.1151V19.8205H24.0423V22.1151H24.4423ZM24.4423 19.8205V14.1522H24.0423V19.8205H24.4423ZM24.4423 14.1522V13.7151H24.0423V14.1522H24.4423ZM24.4423 13.7151V13.1961H24.0423V13.7151H24.4423ZM24.4423 13.1961C24.4423 12.5819 23.9177 12.1083 23.2951 12.1083V12.5083C23.7216 12.5083 24.0423 12.8268 24.0423 13.1961H24.4423ZM23.2951 12.1083H22.377V12.5083H23.2951V12.1083ZM22.577 12.3083V11.9668H22.177V12.3083H22.577ZM22.577 11.9668V10.8468H22.177V11.9668H22.577ZM22.577 10.8406C22.5589 10.2641 22.0729 9.8 21.4736 9.8V10.2C21.8652 10.2 22.1661 10.5008 22.1771 10.8531L22.577 10.8406ZM21.4736 9.8C20.8801 9.8 20.3701 10.26 20.3701 10.8468H20.7701C20.7701 10.5049 21.0762 10.2 21.4736 10.2V9.8ZM20.3701 10.8468V11.9668H20.7701V10.8468H20.3701ZM20.3701 11.9668V12.4995H20.7701V11.9668H20.3701ZM20.5701 12.2995H19.6812V12.6995H20.5701V12.2995ZM19.6812 12.2995C19.0586 12.2995 18.5341 12.7732 18.5341 13.3873H18.9341C18.9341 13.0181 19.2547 12.6995 19.6812 12.6995V12.2995ZM18.5341 13.3873V19.1239H18.9341V13.3873H18.5341ZM18.5341 19.1239V20.2439H18.9341V19.1239H18.5341ZM18.5341 20.2439C18.5341 20.3946 18.4028 20.5356 18.2095 20.5356V20.9356C18.599 20.9356 18.9341 20.6395 18.9341 20.2439H18.5341ZM18.2095 20.5356H17.918V20.9356H18.2095V20.5356ZM18.118 20.7356V14.1522H17.718V20.7356H18.118ZM18.118 14.1522C18.118 13.9155 17.9605 13.7351 17.739 13.6728L17.6307 14.0579C17.7007 14.0776 17.718 14.1157 17.718 14.1522H18.118ZM17.7411 13.6734C15.1396 12.9114 13.1918 12.9115 10.5761 13.6733L10.688 14.0574C13.2308 13.3168 15.1008 13.3169 17.6287 14.0573L17.7411 13.6734ZM10.5724 13.6745C10.3746 13.7363 10.1989 13.9253 10.1989 14.1522H10.5989C10.5989 14.1332 10.6272 14.0764 10.6917 14.0563L10.5724 13.6745ZM10.1989 14.1522V14.3161H10.5989V14.1522H10.1989ZM10.3989 14.1161H10.1658V14.5161H10.3989V14.1161ZM10.1658 14.1161C9.42653 14.1161 8.8 14.6853 8.8 15.4088H9.2C9.2 14.9303 9.62265 14.5161 10.1658 14.5161V14.1161ZM8.8 15.4088V16.802H9.2V15.4088H8.8ZM8.8 16.802V18.3727H9.2V16.802H8.8ZM8.8 18.3727V21.2956H9.2V18.3727H8.8ZM8.8 21.2956V22.7024H9.2V21.2956H8.8ZM8.8 22.7024V23.6859H9.2V22.7024H8.8ZM8.8 23.6859V24H9.2V23.6859H8.8ZM9 24.2H25V23.8H9V24.2ZM25.2 24V22.7024H24.8V24H25.2ZM25 22.5024H24.2423V22.9024H25V22.5024ZM10.1658 14.9668H10.4135V14.5668H10.1658V14.9668ZM10.2135 14.7668V15.7093H10.6135V14.7668H10.2135ZM10.4135 15.5093H10.1658V15.9093H10.4135V15.5093ZM10.1658 15.5093C9.86293 15.5093 9.57399 15.6036 9.34933 15.7656L9.58327 16.09C9.73749 15.9788 9.944 15.9093 10.1658 15.9093V15.5093ZM9.6663 15.9278V15.4088H9.2663V15.9278H9.6663ZM9.6663 15.4088C9.6663 15.1813 9.87929 14.9668 10.1658 14.9668V14.5668C9.69448 14.5668 9.2663 14.926 9.2663 15.4088H9.6663ZM10.2135 16.16V17.2937H10.6135V16.16H10.2135ZM10.4135 17.0937H10.1658V17.4937H10.4135V17.0937ZM10.1658 17.0937C9.86293 17.0937 9.57399 17.188 9.34933 17.35L9.58327 17.6744C9.73749 17.5632 9.944 17.4937 10.1658 17.4937V17.0937ZM9.6663 17.5122V16.802H9.2663V17.5122H9.6663ZM9.6663 16.802C9.6663 16.5693 9.87038 16.36 10.1512 16.36V15.96C9.67425 15.96 9.2663 16.3244 9.2663 16.802H9.6663ZM10.1512 16.36H10.4135V15.96H10.1512V16.36ZM10.4135 22.5024H9.4663V22.9024H10.4135V22.5024ZM9.6663 22.7024V21.3093H9.2663V22.7024H9.6663ZM9.6663 21.3093V18.3727H9.2663V21.3093H9.6663ZM9.6663 18.3727C9.6663 18.14 9.87038 17.9307 10.1512 17.9307V17.5307C9.67425 17.5307 9.2663 17.8951 9.2663 18.3727H9.6663ZM10.1512 17.9307H10.3989V17.5307H10.1512V17.9307ZM10.1989 17.7307V18.9327H10.5989V17.7307H10.1989ZM10.1989 18.9327V22.7024H10.5989V18.9327H10.1989ZM10.3989 22.9024H10.4135V22.5024H10.3989V22.9024ZM20.5701 19.6205H20.133V20.0205H20.5701V19.6205ZM19.933 19.8205V22.6888H20.333V19.8205H19.933ZM20.133 22.4888H17.918V22.8888H20.133V22.4888ZM18.118 22.6888V21.1863H17.718V22.6888H18.118ZM17.918 21.3863H18.2532V20.9863H17.918V21.3863ZM18.2532 21.3863C18.8758 21.3863 19.4004 20.9127 19.4004 20.2985H19.0004C19.0004 20.6678 18.6797 20.9863 18.2532 20.9863V21.3863ZM19.4004 20.2985V14.1522H19.0004V20.2985H19.4004ZM19.4004 14.1522V13.4283H19.0004V14.1522H19.4004ZM19.4004 13.4283C19.4004 13.2776 19.5316 13.1366 19.725 13.1366V12.7366C19.3355 12.7366 19.0004 13.0327 19.0004 13.4283H19.4004ZM19.725 13.1366H20.5701V12.7366H19.725V13.1366ZM20.3701 12.9366V19.8205H20.7701V12.9366H20.3701ZM23.776 19.6205H22.377V20.0205H23.776V19.6205ZM22.577 19.8205V15.5454H22.177V19.8205H22.577ZM22.377 15.7454H23.776V15.3454H22.377V15.7454ZM23.576 15.5454V19.8205H23.976V15.5454H23.576ZM23.776 14.9083H22.377V15.3083H23.776V14.9083ZM22.577 15.1083V14.1659H22.177V15.1083H22.577ZM22.377 14.3659H23.776V13.9659H22.377V14.3659ZM23.576 14.1659V15.1083H23.976V14.1659H23.576ZM23.776 13.5151H22.377V13.9151H23.776V13.5151ZM22.577 13.7151V12.7454H22.177V13.7151H22.577ZM22.377 12.9454H23.2514V12.5454H22.377V12.9454ZM23.2514 12.9454C23.4447 12.9454 23.576 13.0864 23.576 13.2371H23.976C23.976 12.8414 23.6409 12.5454 23.2514 12.5454V12.9454ZM23.576 13.2371V13.7151H23.976V13.2371H23.576Z" fill="url(#paint7_linear_102_3313)" mask="url(#path-7-inside-1_102_3313)"/>
<defs>
<linearGradient id="paint0_linear_102_3313" x1="17.6056" y1="0" x2="17.6056" y2="50" gradientUnits="userSpaceOnUse">
<stop stop-color="#136F97"/>
<stop offset="0.494415" stop-color="#0C516F"/>
<stop offset="1" stop-color="#136F97"/>
</linearGradient>
<radialGradient id="paint1_radial_102_3313" cx="0" cy="0" r="1" gradientUnits="userSpaceOnUse" gradientTransform="translate(18 0.411765) rotate(90) scale(21.3529)">
<stop stop-color="white"/>
<stop offset="1" stop-color="white" stop-opacity="0"/>
</radialGradient>
<linearGradient id="paint2_linear_102_3313" x1="17.6056" y1="0" x2="17.6056" y2="50" gradientUnits="userSpaceOnUse">
<stop stop-color="#095272"/>
<stop offset="0.489583" stop-color="#0D5473"/>
<stop offset="1" stop-color="#064E6D"/>
</linearGradient>
<radialGradient id="paint3_radial_102_3313" cx="0" cy="0" r="1" gradientUnits="userSpaceOnUse" gradientTransform="translate(17.5 17.5) rotate(90) scale(13.5)">
<stop offset="0.708333" stop-color="white"/>
<stop offset="1" stop-color="#BACDD6"/>
</radialGradient>
<linearGradient id="paint4_linear_102_3313" x1="8" y1="6" x2="27.5" y2="31" gradientUnits="userSpaceOnUse">
<stop offset="0.203125" stop-color="#1B7EA9"/>
<stop offset="0.484375" stop-color="#3A9ECA"/>
<stop offset="0.796875" stop-color="#1C7BA4"/>
</linearGradient>
<linearGradient id="paint5_linear_102_3313" x1="8.00008" y1="5.99999" x2="25.5001" y2="28" gradientUnits="userSpaceOnUse">
<stop stop-color="#0A5372"/>
<stop offset="0.317708" stop-color="#0A5372" stop-opacity="0"/>
<stop offset="0.776042" stop-color="white" stop-opacity="0"/>
<stop offset="1" stop-color="white"/>
</linearGradient>
<radialGradient id="paint6_radial_102_3313" cx="0" cy="0" r="1" gradientUnits="userSpaceOnUse" gradientTransform="translate(21.0064 21.8215) rotate(-131.4) scale(18.1166 19.1055)">
<stop stop-color="#136F97"/>
<stop offset="1" stop-color="#00AEFA"/>
</radialGradient>
<linearGradient id="paint7_linear_102_3313" x1="11.5" y1="12" x2="23.6704" y2="25.7189" gradientUnits="userSpaceOnUse">
<stop stop-color="#81D8FF"/>
<stop offset="0.265625" stop-color="#66D0FF" stop-opacity="0"/>
<stop offset="0.645833" stop-color="#005981" stop-opacity="0"/>
<stop offset="1" stop-color="#005981"/>
</linearGradient>
</defs>
</svg>
