<svg height="2048" width="2048" xmlns="http://www.w3.org/2000/svg"><path d="m1005.3027 98.988281c-447.58897.377086-859.06304 373.342199-901.29098 819.482309-45.313319 379.98791 168.53512 777.15461 517.56731 938.55881 324.13685 158.4229 740.17577 108.2876 1009.00967-135.6475 273.5264-236.6901 393.0417-640.1297 272.8932-984.32084-114.2578-351.14849-451.4607-619.98046-822.8422-636.25127-25.0784-1.639259-50.2131-1.947049-75.337-1.821509zm18.334 289.732419c329.6279-9.58811 631.8249 281.13767 635.693 610.89787 14.2549 301.67313-212.3842 597.90793-513.0172 648.48463-290.91361 58.275-613.56325-109.8546-715.39036-392.2817-109.622-279.28988 2.21735-632.47813 269.04449-779.06589 97.55974-57.28345 210.50789-88.17582 323.67007-88.03491zm-228.91404 226.77735c-59.74154 59.74154-119.48307 119.48307-179.22461 179.22461 76.87695 76.87761 153.75391 153.75523 230.63086 230.63284-75.48828 75.4889-150.97657 150.9779-226.46485 226.4668 58.79362 58.7936 117.58724 117.5872 176.38086 176.3808 75.48893-75.4889 150.97785-150.9779 226.46678-226.4668 76.9219 76.9219 153.8437 153.8438 230.7656 230.7657 59.7416-59.7416 119.4831-119.4831 179.2247-179.2247-76.9219-76.9219-153.8438-153.8437-230.7657-230.7656 75.4909-75.49153 150.9818-150.98306 226.4727-226.47459-58.7936-58.79362-117.5873-117.58724-176.3809-176.38086-75.4909 75.49089-150.9817 150.98177-226.4726 226.47266-76.87761-76.87695-153.75523-153.75391-230.63284-230.63086z" fill="#58472E"/>
</svg>