<svg width="36" height="50" viewBox="0 0 36 50" fill="none" xmlns="http://www.w3.org/2000/svg">
<path d="M35.2113 17.6056C35.2113 32.3944 19.7183 50 17.6056 50C15.493 50 0 32.3944 0 17.6056C0 7.88231 7.88231 0 17.6056 0C27.329 0 35.2113 7.88231 35.2113 17.6056Z" fill="url(#paint0_linear_102_3272)"/>
<path fill-rule="evenodd" clip-rule="evenodd" d="M0.0931396 15.7836C1.00486 6.91638 8.49754 0 17.6056 0C27.0357 0 34.7341 7.41403 35.1899 16.7311C31.1585 21.7715 24.9563 25 18 25C10.6171 25 4.08359 21.3633 0.0931396 15.7836Z" fill="url(#paint1_radial_102_3272)"/>
<path d="M34.4613 17.6056C34.4613 24.7754 30.6884 32.7212 26.5753 38.9346C24.5278 42.0277 22.4183 44.6578 20.6985 46.5073C19.8373 47.4336 19.0846 48.1524 18.4947 48.6334C18.1986 48.8748 17.9583 49.0442 17.7764 49.1492C17.6946 49.1964 17.6388 49.2222 17.6056 49.2361C17.5724 49.2222 17.5166 49.1964 17.4348 49.1492C17.253 49.0442 17.0126 48.8748 16.7165 48.6334C16.1267 48.1524 15.374 47.4336 14.5127 46.5073C12.793 44.6578 10.6835 42.0277 8.63595 38.9346C4.52286 32.7212 0.75 24.7754 0.75 17.6056C0.75 8.29653 8.29652 0.75 17.6056 0.75C26.9147 0.75 34.4613 8.29653 34.4613 17.6056Z" stroke="url(#paint2_linear_102_3272)" stroke-width="1.5"/>
<circle cx="17.5" cy="17.5" r="13.5" fill="url(#paint3_radial_102_3272)"/>
<circle cx="17.5" cy="17.5" r="13" stroke="url(#paint4_linear_102_3272)"/>
<circle cx="17.5001" cy="17.5" r="13.4" transform="rotate(17.2793 17.5001 17.5)" stroke="url(#paint5_linear_102_3272)" stroke-width="0.2"/>
<mask id="path-7-inside-1_102_3272" fill="white">
<path fill-rule="evenodd" clip-rule="evenodd" d="M21.2431 12.2809V12.5506V14.4831H22.9226C23.0552 14.4831 23.1878 14.3483 23.1436 14.2135L22.7458 9.98876H22.9226C23.1878 9.98876 23.4088 9.76405 23.4088 9.49438C23.4088 9.22472 23.1878 9 22.9226 9H19.5635C19.2983 9 19.0773 9.22472 19.0773 9.49438C19.0773 9.76405 19.2983 9.98876 19.5635 9.98876H19.7403L19.5635 11.5618H10.989V12.4157V12.5505V13.3595C11.1215 13.3146 11.2541 13.2696 11.4309 13.2696C11.6077 13.2247 11.7845 13.2696 11.9171 13.3146V12.5056H15.1436V13.3146C15.2762 13.2696 15.453 13.2247 15.6298 13.2247C15.7624 13.2247 15.9392 13.2696 16.0718 13.3146V12.5056H19.4751L19.5635 11.5618H20.5359C20.9337 11.5618 21.2431 11.8764 21.2431 12.2809ZM10.4144 18.1236H12.4476C12.6244 18.1236 12.8012 17.9888 12.8012 17.764V14.9326C12.8012 14.1685 12.1824 13.5393 11.431 13.5393C10.6796 13.5393 10.0609 14.1685 10.0609 14.9326V17.764C10.0609 17.9438 10.2376 18.1236 10.4144 18.1236ZM24.6022 18.7977H9.39779C9.1768 18.7977 9 18.9775 9 19.2022V24.5955C9 24.8202 9.1768 25 9.39779 25H19.8729V20.5056C19.8729 20.3258 20.0055 20.191 20.1823 20.191H22.1713C22.3481 20.191 22.4807 20.3258 22.4807 20.5056V25H24.6022C24.8232 25 25 24.8202 25 24.5955V19.2022C25 18.9775 24.8232 18.7977 24.6022 18.7977ZM12.6243 22.2584C12.6243 22.4382 12.4917 22.573 12.3149 22.573H10.5028C10.326 22.573 10.1934 22.4382 10.1934 22.2584V20.5506C10.1934 20.3708 10.326 20.2359 10.5028 20.2359H12.3149C12.4917 20.2359 12.6243 20.3708 12.6243 20.5506V22.2584ZM15.8066 22.2584C15.8066 22.4382 15.674 22.573 15.4972 22.573H13.6851C13.5083 22.573 13.3757 22.4382 13.3757 22.2584V20.5506C13.3757 20.3708 13.5083 20.2359 13.6851 20.2359H15.4972C15.674 20.2359 15.8066 20.3708 15.8066 20.5506V22.2584ZM18.989 22.2584C18.989 22.4382 18.8564 22.573 18.6796 22.573H16.8674C16.6906 22.573 16.558 22.4382 16.558 22.2584V20.5506C16.558 20.3708 16.6906 20.2359 16.8674 20.2359H18.6796C18.8564 20.2359 18.989 20.3708 18.989 20.5506V22.2584ZM14.2597 17.764V14.9326C14.2597 14.1685 14.8785 13.5393 15.6299 13.5393C16.3813 13.5393 17 14.1685 17 14.9326V17.764C17 17.9888 16.8232 18.1236 16.6464 18.1236H14.6133C14.3923 18.1236 14.2597 17.9438 14.2597 17.764ZM18.326 15.9663V17.8989C18.326 18.0337 18.4144 18.1236 18.547 18.1236H23.8508C23.9834 18.1236 24.0718 18.0337 24.0718 17.8989V15.9663C24.0718 15.6067 23.8067 15.3371 23.4531 15.3371H18.9448C18.5912 15.3371 18.326 15.6067 18.326 15.9663ZM19.9613 16.3708C19.9613 16.191 20.1381 16.0112 20.3149 16.0112H22.0829C22.2597 16.0112 22.4365 16.191 22.4365 16.3708V16.5056C22.4365 16.6854 22.2597 16.8652 22.0829 16.8652H20.3149C20.1381 16.8652 19.9613 16.6854 19.9613 16.5056V16.3708ZM20.3149 14.4382H19.5635C19.4309 14.4382 19.2983 14.3483 19.2983 14.1685L19.4751 12.5056H20.0939C20.2265 12.5056 20.3149 12.5955 20.3149 12.7303V14.4382Z"/>
</mask>
<path fill-rule="evenodd" clip-rule="evenodd" d="M21.2431 12.2809V12.5506V14.4831H22.9226C23.0552 14.4831 23.1878 14.3483 23.1436 14.2135L22.7458 9.98876H22.9226C23.1878 9.98876 23.4088 9.76405 23.4088 9.49438C23.4088 9.22472 23.1878 9 22.9226 9H19.5635C19.2983 9 19.0773 9.22472 19.0773 9.49438C19.0773 9.76405 19.2983 9.98876 19.5635 9.98876H19.7403L19.5635 11.5618H10.989V12.4157V12.5505V13.3595C11.1215 13.3146 11.2541 13.2696 11.4309 13.2696C11.6077 13.2247 11.7845 13.2696 11.9171 13.3146V12.5056H15.1436V13.3146C15.2762 13.2696 15.453 13.2247 15.6298 13.2247C15.7624 13.2247 15.9392 13.2696 16.0718 13.3146V12.5056H19.4751L19.5635 11.5618H20.5359C20.9337 11.5618 21.2431 11.8764 21.2431 12.2809ZM10.4144 18.1236H12.4476C12.6244 18.1236 12.8012 17.9888 12.8012 17.764V14.9326C12.8012 14.1685 12.1824 13.5393 11.431 13.5393C10.6796 13.5393 10.0609 14.1685 10.0609 14.9326V17.764C10.0609 17.9438 10.2376 18.1236 10.4144 18.1236ZM24.6022 18.7977H9.39779C9.1768 18.7977 9 18.9775 9 19.2022V24.5955C9 24.8202 9.1768 25 9.39779 25H19.8729V20.5056C19.8729 20.3258 20.0055 20.191 20.1823 20.191H22.1713C22.3481 20.191 22.4807 20.3258 22.4807 20.5056V25H24.6022C24.8232 25 25 24.8202 25 24.5955V19.2022C25 18.9775 24.8232 18.7977 24.6022 18.7977ZM12.6243 22.2584C12.6243 22.4382 12.4917 22.573 12.3149 22.573H10.5028C10.326 22.573 10.1934 22.4382 10.1934 22.2584V20.5506C10.1934 20.3708 10.326 20.2359 10.5028 20.2359H12.3149C12.4917 20.2359 12.6243 20.3708 12.6243 20.5506V22.2584ZM15.8066 22.2584C15.8066 22.4382 15.674 22.573 15.4972 22.573H13.6851C13.5083 22.573 13.3757 22.4382 13.3757 22.2584V20.5506C13.3757 20.3708 13.5083 20.2359 13.6851 20.2359H15.4972C15.674 20.2359 15.8066 20.3708 15.8066 20.5506V22.2584ZM18.989 22.2584C18.989 22.4382 18.8564 22.573 18.6796 22.573H16.8674C16.6906 22.573 16.558 22.4382 16.558 22.2584V20.5506C16.558 20.3708 16.6906 20.2359 16.8674 20.2359H18.6796C18.8564 20.2359 18.989 20.3708 18.989 20.5506V22.2584ZM14.2597 17.764V14.9326C14.2597 14.1685 14.8785 13.5393 15.6299 13.5393C16.3813 13.5393 17 14.1685 17 14.9326V17.764C17 17.9888 16.8232 18.1236 16.6464 18.1236H14.6133C14.3923 18.1236 14.2597 17.9438 14.2597 17.764ZM18.326 15.9663V17.8989C18.326 18.0337 18.4144 18.1236 18.547 18.1236H23.8508C23.9834 18.1236 24.0718 18.0337 24.0718 17.8989V15.9663C24.0718 15.6067 23.8067 15.3371 23.4531 15.3371H18.9448C18.5912 15.3371 18.326 15.6067 18.326 15.9663ZM19.9613 16.3708C19.9613 16.191 20.1381 16.0112 20.3149 16.0112H22.0829C22.2597 16.0112 22.4365 16.191 22.4365 16.3708V16.5056C22.4365 16.6854 22.2597 16.8652 22.0829 16.8652H20.3149C20.1381 16.8652 19.9613 16.6854 19.9613 16.5056V16.3708ZM20.3149 14.4382H19.5635C19.4309 14.4382 19.2983 14.3483 19.2983 14.1685L19.4751 12.5056H20.0939C20.2265 12.5056 20.3149 12.5955 20.3149 12.7303V14.4382Z" fill="url(#paint6_radial_102_3272)"/>
<path d="M21.2431 14.4831H21.0431V14.6831H21.2431V14.4831ZM23.1436 14.2135L22.9445 14.2322L22.9466 14.2545L22.9536 14.2758L23.1436 14.2135ZM22.7458 9.98876V9.78876H22.5261L22.5467 10.0075L22.7458 9.98876ZM19.7403 9.98876L19.9391 10.0111L19.9641 9.78876H19.7403V9.98876ZM19.5635 11.5618V11.7618H19.7423L19.7623 11.5841L19.5635 11.5618ZM10.989 11.5618V11.3618H10.789V11.5618H10.989ZM10.989 13.3595H10.789V13.6385L11.0532 13.549L10.989 13.3595ZM11.4309 13.2696V13.4696H11.456L11.4802 13.4635L11.4309 13.2696ZM11.9171 13.3146L11.8529 13.504L12.1171 13.5936V13.3146H11.9171ZM11.9171 12.5056V12.3056H11.7171V12.5056H11.9171ZM15.1436 12.5056H15.3436V12.3056H15.1436V12.5056ZM15.1436 13.3146H14.9436V13.5936L15.2079 13.504L15.1436 13.3146ZM16.0718 13.3146L16.0076 13.504L16.2718 13.5936V13.3146H16.0718ZM16.0718 12.5056V12.3056H15.8718V12.5056H16.0718ZM19.4751 12.5056V12.7056H19.6573L19.6743 12.5243L19.4751 12.5056ZM19.5635 11.5618V11.3618H19.3814L19.3644 11.5431L19.5635 11.5618ZM19.8729 25V25.2H20.0729V25H19.8729ZM22.4807 25H22.2807V25.2H22.4807V25ZM20.3149 14.4382V14.6382H20.5149V14.4382H20.3149ZM19.2983 14.1685L19.0995 14.1474L19.0983 14.1579V14.1685H19.2983ZM19.4751 12.5056V12.3056H19.2953L19.2763 12.4845L19.4751 12.5056ZM21.4431 12.5506V12.2809H21.0431V12.5506H21.4431ZM21.4431 14.4831V12.5506H21.0431V14.4831H21.4431ZM22.9226 14.2831H21.2431V14.6831H22.9226V14.2831ZM22.9536 14.2758C22.9529 14.2737 22.9524 14.2709 22.9523 14.2679C22.9522 14.265 22.9526 14.2629 22.9529 14.2618C22.9534 14.2598 22.9532 14.2622 22.9489 14.2672C22.9445 14.2722 22.9384 14.2769 22.932 14.28C22.9256 14.2832 22.9221 14.2831 22.9226 14.2831V14.6831C23.0539 14.6831 23.1729 14.6187 23.25 14.5305C23.3289 14.4403 23.3828 14.3011 23.3337 14.1512L22.9536 14.2758ZM22.5467 10.0075L22.9445 14.2322L23.3427 14.1947L22.945 9.97002L22.5467 10.0075ZM22.9226 9.78876H22.7458V10.1888H22.9226V9.78876ZM23.2088 9.49438C23.2088 9.65675 23.0742 9.78876 22.9226 9.78876V10.1888C23.3014 10.1888 23.6088 9.87134 23.6088 9.49438H23.2088ZM22.9226 9.2C23.0742 9.2 23.2088 9.33201 23.2088 9.49438H23.6088C23.6088 9.11743 23.3014 8.8 22.9226 8.8V9.2ZM19.5635 9.2H22.9226V8.8H19.5635V9.2ZM19.2773 9.49438C19.2773 9.33201 19.4119 9.2 19.5635 9.2V8.8C19.1847 8.8 18.8773 9.11743 18.8773 9.49438H19.2773ZM19.5635 9.78876C19.4119 9.78876 19.2773 9.65675 19.2773 9.49438H18.8773C18.8773 9.87134 19.1847 10.1888 19.5635 10.1888V9.78876ZM19.7403 9.78876H19.5635V10.1888H19.7403V9.78876ZM19.7623 11.5841L19.9391 10.0111L19.5416 9.96643L19.3648 11.5394L19.7623 11.5841ZM10.989 11.7618H19.5635V11.3618H10.989V11.7618ZM11.189 12.4157V11.5618H10.789V12.4157H11.189ZM11.189 12.5505V12.4157H10.789V12.5505H11.189ZM11.189 13.3595V12.5505H10.789V13.3595H11.189ZM11.4309 13.0696C11.2179 13.0696 11.0574 13.1252 10.9248 13.1701L11.0532 13.549C11.1857 13.504 11.2904 13.4696 11.4309 13.4696V13.0696ZM11.9813 13.1252C11.8414 13.0778 11.6175 13.0159 11.3817 13.0758L11.4802 13.4635C11.5979 13.4336 11.7277 13.4615 11.8529 13.504L11.9813 13.1252ZM11.7171 12.5056V13.3146H12.1171V12.5056H11.7171ZM15.1436 12.3056H11.9171V12.7056H15.1436V12.3056ZM15.3436 13.3146V12.5056H14.9436V13.3146H15.3436ZM15.6298 13.0247C15.4223 13.0247 15.2221 13.0768 15.0794 13.1252L15.2079 13.504C15.3304 13.4625 15.4838 13.4247 15.6298 13.4247V13.0247ZM16.136 13.1252C15.9979 13.0783 15.7959 13.0247 15.6298 13.0247V13.4247C15.7289 13.4247 15.8806 13.4609 16.0076 13.504L16.136 13.1252ZM15.8718 12.5056V13.3146H16.2718V12.5056H15.8718ZM19.4751 12.3056H16.0718V12.7056H19.4751V12.3056ZM19.3644 11.5431L19.276 12.487L19.6743 12.5243L19.7627 11.5804L19.3644 11.5431ZM20.5359 11.3618H19.5635V11.7618H20.5359V11.3618ZM21.4431 12.2809C21.4431 11.7691 21.0473 11.3618 20.5359 11.3618V11.7618C20.8201 11.7618 21.0431 11.9837 21.0431 12.2809H21.4431ZM12.4476 17.9236H10.4144V18.3236H12.4476V17.9236ZM12.6012 17.764C12.6012 17.8653 12.5274 17.9236 12.4476 17.9236V18.3236C12.7214 18.3236 13.0012 18.1122 13.0012 17.764H12.6012ZM12.6012 14.9326V17.764H13.0012V14.9326H12.6012ZM11.431 13.7393C12.0688 13.7393 12.6012 14.2758 12.6012 14.9326H13.0012C13.0012 14.0612 12.296 13.3393 11.431 13.3393V13.7393ZM10.2609 14.9326C10.2609 14.2758 10.7932 13.7393 11.431 13.7393V13.3393C10.566 13.3393 9.86085 14.0612 9.86085 14.9326H10.2609ZM10.2609 17.764V14.9326H9.86085V17.764H10.2609ZM10.4144 17.9236C10.3923 17.9236 10.3525 17.9102 10.3139 17.871C10.2756 17.832 10.2609 17.7901 10.2609 17.764H9.86085C9.86085 17.9178 9.93453 18.0557 10.0288 18.1515C10.1228 18.2471 10.2598 18.3236 10.4144 18.3236V17.9236ZM9.39779 18.9977H24.6022V18.5977H9.39779V18.9977ZM9.2 19.2022C9.2 19.0848 9.29039 18.9977 9.39779 18.9977V18.5977C9.0632 18.5977 8.8 18.8702 8.8 19.2022H9.2ZM9.2 24.5955V19.2022H8.8V24.5955H9.2ZM9.39779 24.8C9.29039 24.8 9.2 24.7129 9.2 24.5955H8.8C8.8 24.9275 9.0632 25.2 9.39779 25.2V24.8ZM19.8729 24.8H9.39779V25.2H19.8729V24.8ZM19.6729 20.5056V25H20.0729V20.5056H19.6729ZM20.1823 19.991C19.8919 19.991 19.6729 20.2185 19.6729 20.5056H20.0729C20.0729 20.4331 20.1191 20.391 20.1823 20.391V19.991ZM22.1713 19.991H20.1823V20.391H22.1713V19.991ZM22.6807 20.5056C22.6807 20.2185 22.4617 19.991 22.1713 19.991V20.391C22.2345 20.391 22.2807 20.4331 22.2807 20.5056H22.6807ZM22.6807 25V20.5056H22.2807V25H22.6807ZM24.6022 24.8H22.4807V25.2H24.6022V24.8ZM24.8 24.5955C24.8 24.7129 24.7096 24.8 24.6022 24.8V25.2C24.9368 25.2 25.2 24.9275 25.2 24.5955H24.8ZM24.8 19.2022V24.5955H25.2V19.2022H24.8ZM24.6022 18.9977C24.7096 18.9977 24.8 19.0848 24.8 19.2022H25.2C25.2 18.8702 24.9368 18.5977 24.6022 18.5977V18.9977ZM12.3149 22.773C12.6053 22.773 12.8243 22.5455 12.8243 22.2584H12.4243C12.4243 22.3309 12.3781 22.373 12.3149 22.373V22.773ZM10.5028 22.773H12.3149V22.373H10.5028V22.773ZM9.99337 22.2584C9.99337 22.5455 10.2124 22.773 10.5028 22.773V22.373C10.4396 22.373 10.3934 22.3309 10.3934 22.2584H9.99337ZM9.99337 20.5506V22.2584H10.3934V20.5506H9.99337ZM10.5028 20.0359C10.2124 20.0359 9.99337 20.2635 9.99337 20.5506H10.3934C10.3934 20.4781 10.4396 20.4359 10.5028 20.4359V20.0359ZM12.3149 20.0359H10.5028V20.4359H12.3149V20.0359ZM12.8243 20.5506C12.8243 20.2635 12.6053 20.0359 12.3149 20.0359V20.4359C12.3781 20.4359 12.4243 20.4781 12.4243 20.5506H12.8243ZM12.8243 22.2584V20.5506H12.4243V22.2584H12.8243ZM15.4972 22.773C15.7876 22.773 16.0066 22.5455 16.0066 22.2584H15.6066C15.6066 22.3309 15.5604 22.373 15.4972 22.373V22.773ZM13.6851 22.773H15.4972V22.373H13.6851V22.773ZM13.1757 22.2584C13.1757 22.5455 13.3947 22.773 13.6851 22.773V22.373C13.6219 22.373 13.5757 22.3309 13.5757 22.2584H13.1757ZM13.1757 20.5506V22.2584H13.5757V20.5506H13.1757ZM13.6851 20.0359C13.3947 20.0359 13.1757 20.2635 13.1757 20.5506H13.5757C13.5757 20.4781 13.6219 20.4359 13.6851 20.4359V20.0359ZM15.4972 20.0359H13.6851V20.4359H15.4972V20.0359ZM16.0066 20.5506C16.0066 20.2635 15.7876 20.0359 15.4972 20.0359V20.4359C15.5604 20.4359 15.6066 20.4781 15.6066 20.5506H16.0066ZM16.0066 22.2584V20.5506H15.6066V22.2584H16.0066ZM18.6796 22.773C18.9699 22.773 19.189 22.5455 19.189 22.2584H18.789C18.789 22.3309 18.7428 22.373 18.6796 22.373V22.773ZM16.8674 22.773H18.6796V22.373H16.8674V22.773ZM16.358 22.2584C16.358 22.5455 16.577 22.773 16.8674 22.773V22.373C16.8042 22.373 16.758 22.3309 16.758 22.2584H16.358ZM16.358 20.5506V22.2584H16.758V20.5506H16.358ZM16.8674 20.0359C16.577 20.0359 16.358 20.2635 16.358 20.5506H16.758C16.758 20.4781 16.8042 20.4359 16.8674 20.4359V20.0359ZM18.6796 20.0359H16.8674V20.4359H18.6796V20.0359ZM19.189 20.5506C19.189 20.2635 18.9699 20.0359 18.6796 20.0359V20.4359C18.7428 20.4359 18.789 20.4781 18.789 20.5506H19.189ZM19.189 22.2584V20.5506H18.789V22.2584H19.189ZM14.0597 14.9326V17.764H14.4597V14.9326H14.0597ZM15.6299 13.3393C14.7649 13.3393 14.0597 14.0612 14.0597 14.9326H14.4597C14.4597 14.2758 14.9921 13.7393 15.6299 13.7393V13.3393ZM17.2 14.9326C17.2 14.0612 16.4948 13.3393 15.6299 13.3393V13.7393C16.2677 13.7393 16.8 14.2758 16.8 14.9326H17.2ZM17.2 17.764V14.9326H16.8V17.764H17.2ZM16.6464 18.3236C16.9202 18.3236 17.2 18.1122 17.2 17.764H16.8C16.8 17.8653 16.7263 17.9236 16.6464 17.9236V18.3236ZM14.6133 18.3236H16.6464V17.9236H14.6133V18.3236ZM14.0597 17.764C14.0597 18.0343 14.2628 18.3236 14.6133 18.3236V17.9236C14.5611 17.9236 14.5262 17.9039 14.5022 17.8773C14.4757 17.848 14.4597 17.8063 14.4597 17.764H14.0597ZM18.526 17.8989V15.9663H18.126V17.8989H18.526ZM18.547 17.9236C18.5365 17.9236 18.5311 17.9218 18.5294 17.9212C18.5278 17.9206 18.5283 17.9205 18.5294 17.9216C18.5304 17.9226 18.5299 17.9227 18.5289 17.9201C18.5279 17.9174 18.526 17.9107 18.526 17.8989H18.126C18.126 18.0108 18.1634 18.12 18.2442 18.202C18.3252 18.2844 18.4342 18.3236 18.547 18.3236V17.9236ZM23.8508 17.9236H18.547V18.3236H23.8508V17.9236ZM23.8718 17.8989C23.8718 17.9107 23.8699 17.9174 23.8689 17.9201C23.8679 17.9227 23.8675 17.9226 23.8685 17.9216C23.8695 17.9205 23.87 17.9206 23.8685 17.9212C23.8668 17.9218 23.8613 17.9236 23.8508 17.9236V18.3236C23.9636 18.3236 24.0727 18.2844 24.1537 18.202C24.2344 18.12 24.2718 18.0107 24.2718 17.8989H23.8718ZM23.8718 15.9663V17.8989H24.2718V15.9663H23.8718ZM23.4531 15.5371C23.6931 15.5371 23.8718 15.714 23.8718 15.9663H24.2718C24.2718 15.4995 23.9202 15.1371 23.4531 15.1371V15.5371ZM18.9448 15.5371H23.4531V15.1371H18.9448V15.5371ZM18.526 15.9663C18.526 15.714 18.7048 15.5371 18.9448 15.5371V15.1371C18.4776 15.1371 18.126 15.4995 18.126 15.9663H18.526ZM20.3149 15.8112C20.1603 15.8112 20.0233 15.8878 19.9292 15.9834C19.835 16.0792 19.7613 16.217 19.7613 16.3708H20.1613C20.1613 16.3448 20.1761 16.3029 20.2144 16.2638C20.253 16.2246 20.2928 16.2112 20.3149 16.2112V15.8112ZM22.0829 15.8112H20.3149V16.2112H22.0829V15.8112ZM22.6365 16.3708C22.6365 16.217 22.5628 16.0792 22.4686 15.9834C22.3746 15.8878 22.2375 15.8112 22.0829 15.8112V16.2112C22.1051 16.2112 22.1448 16.2246 22.1834 16.2638C22.2218 16.3029 22.2365 16.3448 22.2365 16.3708H22.6365ZM22.6365 16.5056V16.3708H22.2365V16.5056H22.6365ZM22.0829 17.0652C22.2375 17.0652 22.3746 16.9887 22.4686 16.893C22.5628 16.7972 22.6365 16.6594 22.6365 16.5056H22.2365C22.2365 16.5316 22.2218 16.5736 22.1834 16.6126C22.1448 16.6518 22.1051 16.6652 22.0829 16.6652V17.0652ZM20.3149 17.0652H22.0829V16.6652H20.3149V17.0652ZM19.7613 16.5056C19.7613 16.6594 19.835 16.7972 19.9292 16.893C20.0233 16.9887 20.1603 17.0652 20.3149 17.0652V16.6652C20.2928 16.6652 20.253 16.6518 20.2144 16.6126C20.1761 16.5736 20.1613 16.5316 20.1613 16.5056H19.7613ZM19.7613 16.3708V16.5056H20.1613V16.3708H19.7613ZM19.5635 14.6382H20.3149V14.2382H19.5635V14.6382ZM19.0983 14.1685C19.0983 14.3115 19.1529 14.4341 19.2471 14.5192C19.3378 14.6012 19.4537 14.6382 19.5635 14.6382V14.2382C19.5408 14.2382 19.524 14.2303 19.5153 14.2224C19.5113 14.2188 19.5077 14.2142 19.5048 14.2075C19.5019 14.2007 19.4983 14.1885 19.4983 14.1685H19.0983ZM19.2763 12.4845L19.0995 14.1474L19.4972 14.1897L19.674 12.5268L19.2763 12.4845ZM20.0939 12.3056H19.4751V12.7056H20.0939V12.3056ZM20.5149 12.7303C20.5149 12.6185 20.4775 12.5093 20.3967 12.4272C20.3157 12.3448 20.2067 12.3056 20.0939 12.3056V12.7056C20.1044 12.7056 20.1098 12.7074 20.1115 12.708C20.1131 12.7086 20.1126 12.7087 20.1115 12.7076C20.1105 12.7066 20.111 12.7066 20.112 12.7091C20.113 12.7118 20.1149 12.7185 20.1149 12.7303H20.5149ZM20.5149 14.4382V12.7303H20.1149V14.4382H20.5149Z" fill="url(#paint7_linear_102_3272)" mask="url(#path-7-inside-1_102_3272)"/>
<defs>
<linearGradient id="paint0_linear_102_3272" x1="17.6056" y1="0" x2="17.6056" y2="50" gradientUnits="userSpaceOnUse">
<stop stop-color="#136F97"/>
<stop offset="0.494415" stop-color="#0C516F"/>
<stop offset="1" stop-color="#136F97"/>
</linearGradient>
<radialGradient id="paint1_radial_102_3272" cx="0" cy="0" r="1" gradientUnits="userSpaceOnUse" gradientTransform="translate(18 0.411765) rotate(90) scale(21.3529)">
<stop stop-color="white"/>
<stop offset="1" stop-color="white" stop-opacity="0"/>
</radialGradient>
<linearGradient id="paint2_linear_102_3272" x1="17.6056" y1="0" x2="17.6056" y2="50" gradientUnits="userSpaceOnUse">
<stop stop-color="#095272"/>
<stop offset="0.489583" stop-color="#0D5473"/>
<stop offset="1" stop-color="#064E6D"/>
</linearGradient>
<radialGradient id="paint3_radial_102_3272" cx="0" cy="0" r="1" gradientUnits="userSpaceOnUse" gradientTransform="translate(17.5 17.5) rotate(90) scale(13.5)">
<stop offset="0.708333" stop-color="white"/>
<stop offset="1" stop-color="#BACDD6"/>
</radialGradient>
<linearGradient id="paint4_linear_102_3272" x1="8" y1="6" x2="27.5" y2="31" gradientUnits="userSpaceOnUse">
<stop offset="0.203125" stop-color="#1B7EA9"/>
<stop offset="0.484375" stop-color="#3A9ECA"/>
<stop offset="0.796875" stop-color="#1C7BA4"/>
</linearGradient>
<linearGradient id="paint5_linear_102_3272" x1="8.00008" y1="5.99999" x2="25.5001" y2="28" gradientUnits="userSpaceOnUse">
<stop stop-color="#0A5372"/>
<stop offset="0.317708" stop-color="#0A5372" stop-opacity="0"/>
<stop offset="0.776042" stop-color="white" stop-opacity="0"/>
<stop offset="1" stop-color="white"/>
</linearGradient>
<radialGradient id="paint6_radial_102_3272" cx="0" cy="0" r="1" gradientUnits="userSpaceOnUse" gradientTransform="translate(21.0064 22.5103) rotate(-127.648) scale(19.6149 20.167)">
<stop stop-color="#136F97"/>
<stop offset="1" stop-color="#00AEFA"/>
</radialGradient>
<linearGradient id="paint7_linear_102_3272" x1="11" y1="11" x2="25.5104" y2="25.0908" gradientUnits="userSpaceOnUse">
<stop stop-color="#81D8FF"/>
<stop offset="0.265625" stop-color="#66D0FF" stop-opacity="0"/>
<stop offset="0.645833" stop-color="#005981" stop-opacity="0"/>
<stop offset="1" stop-color="#005981"/>
</linearGradient>
</defs>
</svg>
