<svg width="133" height="145" viewBox="0 0 133 145" fill="none" xmlns="http://www.w3.org/2000/svg">
<path d="M123.932 135.214H9.06814C7.3989 135.214 6.04541 133.862 6.04541 132.191V117.078C6.04541 115.407 7.3989 114.055 9.06814 114.055H123.932C125.601 114.055 126.955 115.407 126.955 117.078V132.191C126.955 133.862 125.601 135.214 123.932 135.214ZM12.0909 129.169H120.909V120.101H12.0909V129.169Z" fill="black"/>
<path d="M123.932 50.5778H9.06814C7.3989 50.5778 6.04541 49.2243 6.04541 47.5551V32.4414C6.04541 30.7722 7.3989 29.4187 9.06814 29.4187H123.932C125.601 29.4187 126.955 30.7722 126.955 32.4414V47.5551C126.955 49.2243 125.601 50.5778 123.932 50.5778ZM12.0909 44.5323H120.909V35.4642H12.0909V44.5323Z" fill="black"/>
<path d="M27.2045 144.286H15.1135C13.4443 144.286 12.0908 142.934 12.0908 141.263V132.195C12.0908 130.524 13.4443 129.172 15.1135 129.172H27.2045C28.8737 129.172 30.2272 130.524 30.2272 132.195V141.263C30.2272 142.934 28.8737 144.286 27.2045 144.286ZM18.1363 138.24H24.1817V135.218H18.1363V138.24Z" fill="black"/>
<path d="M117.886 144.286H105.795C104.126 144.286 102.772 142.934 102.772 141.263V132.195C102.772 130.524 104.126 129.172 105.795 129.172H117.886C119.555 129.172 120.909 130.524 120.909 132.195V141.263C120.909 142.934 119.555 144.286 117.886 144.286ZM108.818 138.24H114.863V135.218H108.818V138.24Z" fill="black"/>
<path d="M15.1136 114.058C14.6521 114.058 14.1879 113.952 13.7615 113.74L1.67059 107.695C0.646383 107.18 0 106.136 0 104.99V59.6493C0 58.5037 0.646383 57.4578 1.67059 56.9451L13.7615 50.8996C14.6966 50.4314 15.8113 50.484 16.7033 51.0319C17.5939 51.5838 18.1363 52.5554 18.1363 53.6039V111.036C18.1363 112.084 17.5939 113.054 16.7033 113.606C16.2175 113.907 15.6656 114.058 15.1136 114.058ZM6.04546 103.121L12.0909 106.144V58.4955L6.04546 61.5182V103.121Z" fill="black"/>
<path d="M117.886 114.058C117.335 114.058 116.783 113.907 116.297 113.606C115.406 113.054 114.864 112.084 114.864 111.036V53.6038C114.864 52.5553 115.406 51.5837 116.297 51.0332C117.189 50.484 118.305 50.4327 119.239 50.9009L131.33 56.9464C132.354 57.4578 133 58.5036 133 59.6493V104.99C133 106.136 132.354 107.18 131.33 107.694L119.239 113.74C118.812 113.952 118.348 114.058 117.886 114.058ZM120.909 58.4955V106.144L126.955 103.121V61.5182L120.909 58.4955Z" fill="black"/>
<path d="M27.2043 29.4221H38.4181V35.4676H27.2043V29.4221Z" fill="black"/>
<path d="M60.8794 29.4221H72.1229V35.4676H60.8794V29.4221Z" fill="black"/>
<path d="M94.5818 29.4221H105.796V35.4676H94.5818V29.4221Z" fill="black"/>
<path d="M40.591 16.4675H25.9078C21.6221 16.4675 18.1365 12.9819 18.1365 8.69477C18.1365 4.40905 21.6221 0.920654 25.9092 0.920654H40.5924C44.8781 0.922004 48.3638 4.40905 48.3638 8.69477C48.3638 12.9819 44.8781 16.4675 40.591 16.4675ZM25.9092 6.96749C24.9565 6.96749 24.1819 7.74207 24.1819 8.69477C24.1819 9.64611 24.9565 10.422 25.9092 10.422H40.5924C41.5438 10.422 42.3183 9.64746 42.3183 8.69477C42.3183 7.74072 41.5438 6.96615 40.5911 6.96615L25.9092 6.96749Z" fill="black"/>
<path d="M40.591 25.9675H25.9078C21.6221 25.9675 18.1365 22.4804 18.1365 18.1947C18.1365 13.909 21.6221 10.422 25.9092 10.422H40.5924C44.8781 10.422 48.3638 13.909 48.3638 18.1947C48.3638 22.4804 44.8781 25.9675 40.591 25.9675ZM25.9092 16.4675C24.9565 16.4675 24.1819 17.242 24.1819 18.1947C24.1819 19.1461 24.9565 19.922 25.9092 19.922H40.5924C41.5438 19.922 42.3183 19.1461 42.3183 18.1947C42.3183 17.2434 41.5438 16.4675 40.5911 16.4675H25.9092Z" fill="black"/>
<path d="M40.591 35.4675H25.9078C21.6221 35.4675 18.1365 31.9819 18.1365 27.6948C18.1365 23.4091 21.6221 19.9207 25.9092 19.9207H40.5924C44.8781 19.922 48.3638 23.4091 48.3638 27.6948C48.3638 31.9819 44.8781 35.4675 40.591 35.4675ZM25.9092 25.9675C24.9565 25.9675 24.1819 26.7421 24.1819 27.6948C24.1819 28.6475 24.9565 29.422 25.9092 29.422H40.5924C41.5438 29.422 42.3183 28.6475 42.3183 27.6948C42.3183 26.7407 41.5438 25.9661 40.5911 25.9661L25.9092 25.9675Z" fill="black"/>
<path d="M73.8408 16.4675H59.1576C54.8719 16.4675 51.3862 12.9819 51.3862 8.69477C51.3862 4.40905 54.8719 0.920654 59.159 0.920654H73.8422C78.1279 0.922004 81.6135 4.40905 81.6135 8.69477C81.6135 12.9819 78.1279 16.4675 73.8408 16.4675ZM59.159 6.96749C58.2063 6.96749 57.4317 7.74207 57.4317 8.69477C57.4317 9.64611 58.2063 10.422 59.159 10.422H73.8422C74.7935 10.422 75.5681 9.64746 75.5681 8.69477C75.5681 7.74072 74.7935 6.96615 73.8408 6.96615L59.159 6.96749Z" fill="black"/>
<path d="M73.8408 25.9675H59.1576C54.8719 25.9675 51.3862 22.4804 51.3862 18.1947C51.3862 13.909 54.8719 10.422 59.159 10.422H73.8422C78.1279 10.422 81.6135 13.909 81.6135 18.1947C81.6135 22.4804 78.1279 25.9675 73.8408 25.9675ZM59.159 16.4675C58.2063 16.4675 57.4317 17.242 57.4317 18.1947C57.4317 19.1461 58.2063 19.922 59.159 19.922H73.8422C74.7935 19.922 75.5681 19.1461 75.5681 18.1947C75.5681 17.2434 74.7935 16.4675 73.8408 16.4675H59.159Z" fill="black"/>
<path d="M73.8408 35.4675H59.1576C54.8719 35.4675 51.3862 31.9819 51.3862 27.6948C51.3862 23.4091 54.8719 19.9207 59.159 19.9207H73.8422C78.1279 19.922 81.6135 23.4091 81.6135 27.6948C81.6135 31.9819 78.1279 35.4675 73.8408 35.4675ZM59.159 25.9675C58.2063 25.9675 57.4317 26.7421 57.4317 27.6948C57.4317 28.6475 58.2063 29.422 59.159 29.422H73.8422C74.7935 29.422 75.5681 28.6475 75.5681 27.6948C75.5681 26.7407 74.7935 25.9661 73.8408 25.9661L59.159 25.9675Z" fill="black"/>
<path d="M107.091 16.4675H92.4078C88.1221 16.4675 84.6365 12.9819 84.6365 8.69477C84.6365 4.40905 88.1221 0.920654 92.4092 0.920654H107.092C111.378 0.922004 114.864 4.40905 114.864 8.69477C114.864 12.9819 111.378 16.4675 107.091 16.4675ZM92.4092 6.96749C91.4565 6.96749 90.6819 7.74207 90.6819 8.69477C90.6819 9.64611 91.4565 10.422 92.4092 10.422H107.092C108.044 10.422 108.818 9.64746 108.818 8.69477C108.818 7.74072 108.044 6.96615 107.091 6.96615L92.4092 6.96749Z" fill="black"/>
<path d="M107.091 25.9675H92.4078C88.1221 25.9675 84.6365 22.4804 84.6365 18.1947C84.6365 13.909 88.1221 10.422 92.4092 10.422H107.092C111.378 10.422 114.864 13.909 114.864 18.1947C114.864 22.4804 111.378 25.9675 107.091 25.9675ZM92.4092 16.4675C91.4565 16.4675 90.6819 17.242 90.6819 18.1947C90.6819 19.1461 91.4565 19.922 92.4092 19.922H107.092C108.044 19.922 108.818 19.1461 108.818 18.1947C108.818 17.2434 108.044 16.4675 107.091 16.4675H92.4092Z" fill="black"/>
<path d="M107.091 35.4675H92.4078C88.1221 35.4675 84.6365 31.9819 84.6365 27.6948C84.6365 23.4091 88.1221 19.9207 92.4092 19.9207H107.092C111.378 19.922 114.864 23.4091 114.864 27.6948C114.864 31.9819 111.378 35.4675 107.091 35.4675ZM92.4092 25.9675C91.4565 25.9675 90.6819 26.7421 90.6819 27.6948C90.6819 28.6475 91.4565 29.422 92.4092 29.422H107.092C108.044 29.422 108.818 28.6475 108.818 27.6948C108.818 26.7407 108.044 25.9661 107.091 25.9661L92.4092 25.9675Z" fill="black"/>
<path d="M117.795 119.664H15.0227C13.3535 119.664 12 118.311 12 116.641V47.1181C12 45.4488 13.3535 44.0953 15.0227 44.0953H117.795C119.465 44.0953 120.818 45.4488 120.818 47.1181V116.641C120.818 118.311 119.465 119.664 117.795 119.664ZM18.0455 113.618H114.773V50.1408H18.0455V113.618Z" fill="black"/>
<path d="M45.3409 94.4135C43.7803 94.4135 42.3864 94.1446 41.1591 93.6067C39.9394 93.0688 38.9735 92.3226 38.2614 91.3681C37.5568 90.4059 37.178 89.2923 37.125 88.0272H40.6932C40.7386 88.7165 40.9697 89.315 41.3864 89.8226C41.8106 90.3226 42.3636 90.709 43.0455 90.9817C43.7273 91.2544 44.4848 91.3908 45.3182 91.3908C46.2348 91.3908 47.0455 91.2317 47.75 90.9135C48.4621 90.5953 49.0189 90.1522 49.4205 89.584C49.822 89.0082 50.0227 88.3453 50.0227 87.5953C50.0227 86.815 49.822 86.1294 49.4205 85.5385C49.0265 84.94 48.447 84.4703 47.6818 84.1294C46.9242 83.7885 46.0076 83.6181 44.9318 83.6181H42.9659V80.7544H44.9318C45.7955 80.7544 46.553 80.5991 47.2045 80.2885C47.8636 79.9779 48.3788 79.5461 48.75 78.9931C49.1212 78.4325 49.3068 77.7772 49.3068 77.0272C49.3068 76.3075 49.1439 75.6825 48.8182 75.1522C48.5 74.6143 48.0455 74.1938 47.4545 73.8908C46.8712 73.5878 46.1818 73.4362 45.3864 73.4362C44.6288 73.4362 43.9205 73.5764 43.2614 73.8567C42.6098 74.1294 42.0795 74.5234 41.6705 75.0385C41.2614 75.5461 41.0417 76.1559 41.0114 76.8681H37.6136C37.6515 75.6105 38.0227 74.5044 38.7273 73.5499C39.4394 72.5953 40.3788 71.8491 41.5455 71.3112C42.7121 70.7734 44.0076 70.5044 45.4318 70.5044C46.9242 70.5044 48.2121 70.7961 49.2955 71.3794C50.3864 71.9552 51.2273 72.7241 51.8182 73.6862C52.4167 74.6484 52.7121 75.7014 52.7045 76.8453C52.7121 78.1484 52.3485 79.2544 51.6136 80.1635C50.8864 81.0726 49.9167 81.6825 48.7045 81.9931V82.1749C50.25 82.4097 51.447 83.0234 52.2955 84.0158C53.1515 85.0082 53.5758 86.2393 53.5682 87.709C53.5758 88.9893 53.2197 90.137 52.5 91.1522C51.7879 92.1673 50.8144 92.9665 49.5795 93.5499C48.3447 94.1256 46.9318 94.4135 45.3409 94.4135ZM58.1818 94.0953V70.8226H66.4773C68.2879 70.8226 69.7879 71.1522 70.9773 71.8112C72.1667 72.4703 73.0568 73.3719 73.6477 74.5158C74.2386 75.6522 74.5341 76.9325 74.5341 78.3567C74.5341 79.7885 74.2348 81.0764 73.6364 82.2203C73.0455 83.3567 72.1515 84.2582 70.9545 84.9249C69.7652 85.584 68.2689 85.9135 66.4659 85.9135H60.7614V82.9362H66.1477C67.2917 82.9362 68.2197 82.7393 68.9318 82.3453C69.6439 81.9438 70.1667 81.3984 70.5 80.709C70.8333 80.0196 71 79.2355 71 78.3567C71 77.4779 70.8333 76.6976 70.5 76.0158C70.1667 75.334 69.6402 74.7999 68.9205 74.4135C68.2083 74.0272 67.2689 73.834 66.1023 73.834H61.6932V94.0953H58.1818ZM80.2983 94.4135V91.3226H81.696C82.2794 91.3226 82.7604 91.2241 83.1392 91.0272C83.5256 90.8302 83.84 90.565 84.0824 90.2317C84.3324 89.8908 84.5407 89.5196 84.7074 89.1181L85.0369 88.2885L76.8551 70.8226H80.5824L86.6847 84.2772L92.1165 70.8226H95.7983L87.7528 90.0612C87.4119 90.834 87.018 91.5499 86.571 92.209C86.1316 92.8681 85.5445 93.4022 84.8097 93.8112C84.0748 94.2128 83.1013 94.4135 81.8892 94.4135H80.2983Z" fill="black"/>
<path d="M41.1591 93.6067L40.7556 94.5217L40.7577 94.5226L41.1591 93.6067ZM38.2614 91.3681L37.4545 91.9589L37.4598 91.966L38.2614 91.3681ZM37.125 88.0272V87.0272H36.0822L36.1259 88.069L37.125 88.0272ZM40.6932 88.0272L41.691 87.9614L41.6294 87.0272H40.6932V88.0272ZM41.3864 89.8226L40.6134 90.4571L40.6186 90.4634L40.6239 90.4696L41.3864 89.8226ZM43.0455 90.9817L43.4168 90.0532L43.4168 90.0532L43.0455 90.9817ZM47.75 90.9135L47.3421 90.0005L47.3384 90.0021L47.75 90.9135ZM49.4205 89.584L50.2371 90.1611L50.2407 90.156L49.4205 89.584ZM49.4205 85.5385L48.5852 86.0883L48.5892 86.0945L48.5933 86.1005L49.4205 85.5385ZM47.6818 84.1294L47.2715 85.0414L47.2748 85.0429L47.6818 84.1294ZM42.9659 83.6181H41.9659V84.6181H42.9659V83.6181ZM42.9659 80.7544V79.7544H41.9659V80.7544H42.9659ZM47.2045 80.2885L46.7782 79.3839L46.7742 79.3859L47.2045 80.2885ZM48.75 78.9931L49.5803 79.5504L49.5838 79.5452L48.75 78.9931ZM48.8182 75.1522L47.9575 75.6613L47.9617 75.6685L47.9661 75.6756L48.8182 75.1522ZM47.4545 73.8908L46.9935 74.7782L46.9982 74.7806L47.4545 73.8908ZM43.2614 73.8567L43.6475 74.7792L43.6527 74.7769L43.2614 73.8567ZM41.6705 75.0385L42.4491 75.6661L42.4536 75.6604L41.6705 75.0385ZM41.0114 76.8681V77.8681H41.9697L42.0105 76.9106L41.0114 76.8681ZM37.6136 76.8681L36.6141 76.838L36.5831 77.8681H37.6136V76.8681ZM38.7273 73.5499L37.9257 72.9519L37.9227 72.956L38.7273 73.5499ZM41.5455 71.3112L41.9641 72.2194L41.9641 72.2194L41.5455 71.3112ZM49.2955 71.3794L48.8213 72.2599L48.8287 72.2638L49.2955 71.3794ZM51.8182 73.6862L50.966 74.2096L50.9691 74.2144L51.8182 73.6862ZM52.7045 76.8453L51.7045 76.8387L51.7046 76.8512L52.7045 76.8453ZM51.6136 80.1635L50.8359 79.5349L50.8328 79.5388L51.6136 80.1635ZM48.7045 81.9931L48.4563 81.0244L47.7045 81.217V81.9931H48.7045ZM48.7045 82.1749H47.7045V83.0344L48.5543 83.1635L48.7045 82.1749ZM52.2955 84.0158L51.5354 84.6656L51.5382 84.669L52.2955 84.0158ZM53.5682 87.709L52.5681 87.7038L52.5682 87.7149L53.5682 87.709ZM52.5 91.1522L51.6842 90.5738L51.6813 90.5779L52.5 91.1522ZM49.5795 93.5499L50.0021 94.4562L50.0067 94.4541L49.5795 93.5499ZM45.3409 93.4135C43.8959 93.4135 42.6421 93.1648 41.5605 92.6908L40.7577 94.5226C42.1306 95.1243 43.6647 95.4135 45.3409 95.4135V93.4135ZM41.5626 92.6917C40.4815 92.215 39.66 91.5705 39.0629 90.7701L37.4598 91.966C38.2869 93.0747 39.3973 93.9227 40.7556 94.5217L41.5626 92.6917ZM39.0682 90.7773C38.4881 89.9851 38.1694 89.0653 38.1241 87.9853L36.1259 88.069C36.1867 89.5193 36.6255 90.8268 37.4546 91.9589L39.0682 90.7773ZM37.125 89.0272H40.6932V87.0272H37.125V89.0272ZM39.6953 88.0929C39.7538 88.9792 40.0571 89.7794 40.6134 90.4571L42.1593 89.1881C41.8823 88.8507 41.7235 88.4539 41.691 87.9614L39.6953 88.0929ZM40.6239 90.4696C41.1657 91.1082 41.8593 91.5843 42.6741 91.9102L43.4168 90.0532C42.868 89.8337 42.4555 89.537 42.1489 89.1756L40.6239 90.4696ZM42.6741 91.9102C43.4888 92.2361 44.3747 92.3908 45.3182 92.3908V90.3908C44.595 90.3908 43.9657 90.2728 43.4168 90.0532L42.6741 91.9102ZM45.3182 92.3908C46.3508 92.3908 47.3059 92.2113 48.1616 91.8249L47.3384 90.0021C46.785 90.2521 46.1189 90.3908 45.3182 90.3908V92.3908ZM48.1579 91.8265C49.0137 91.4442 49.7199 90.8931 50.2371 90.1611L48.6038 89.0069C48.318 89.4112 47.9106 89.7465 47.3421 90.0005L48.1579 91.8265ZM50.2407 90.156C50.7674 89.4007 51.0227 88.5351 51.0227 87.5953H49.0227C49.0227 88.1555 48.8765 88.6157 48.6002 89.012L50.2407 90.156ZM51.0227 87.5953C51.0227 86.6339 50.7721 85.7485 50.2476 84.9765L48.5933 86.1005C48.8718 86.5104 49.0227 86.9961 49.0227 87.5953H51.0227ZM50.2557 84.9887C49.74 84.2051 48.9985 83.6213 48.0888 83.216L47.2748 85.0429C47.8955 85.3194 48.3131 85.6749 48.5852 86.0883L50.2557 84.9887ZM48.0922 83.2175C47.1735 82.8041 46.109 82.6181 44.9318 82.6181V84.6181C45.9061 84.6181 46.675 84.7729 47.2715 85.0413L48.0922 83.2175ZM44.9318 82.6181H42.9659V84.6181H44.9318V82.6181ZM43.9659 83.6181V80.7544H41.9659V83.6181H43.9659ZM42.9659 81.7544H44.9318V79.7544H42.9659V81.7544ZM44.9318 81.7544C45.9155 81.7544 46.8251 81.5772 47.6349 81.1912L46.7742 79.3859C46.281 79.621 45.6754 79.7544 44.9318 79.7544V81.7544ZM47.6308 81.1931C48.4377 80.8129 49.099 80.2675 49.5803 79.5504L47.9197 78.4357C47.6586 78.8247 47.2896 79.143 46.7782 79.3839L47.6308 81.1931ZM49.5838 79.5452C50.0757 78.8023 50.3068 77.95 50.3068 77.0272H48.3068C48.3068 77.6043 48.1667 78.0626 47.9162 78.441L49.5838 79.5452ZM50.3068 77.0272C50.3068 76.1521 50.1071 75.3398 49.6703 74.6287L47.9661 75.6756C48.1808 76.0251 48.3068 76.4628 48.3068 77.0272H50.3068ZM49.6789 74.643C49.2584 73.9323 48.6588 73.3845 47.9109 73.001L46.9982 74.7806C47.4321 75.0031 47.7416 75.2963 47.9575 75.6613L49.6789 74.643ZM47.9155 73.0034C47.1629 72.6124 46.3089 72.4362 45.3864 72.4362V74.4362C46.0547 74.4362 46.5796 74.5631 46.9936 74.7782L47.9155 73.0034ZM45.3864 72.4362C44.5022 72.4362 43.6599 72.6005 42.87 72.9365L43.6527 74.7769C44.181 74.5523 44.7554 74.4362 45.3864 74.4362V72.4362ZM42.8752 72.9343C42.08 73.2672 41.409 73.7598 40.8873 74.4166L42.4536 75.6604C42.7501 75.287 43.1397 74.9917 43.6475 74.7791L42.8752 72.9343ZM40.8919 74.411C40.336 75.1007 40.0508 75.9209 40.0123 76.8255L42.0105 76.9106C42.0326 76.391 42.1867 75.9915 42.4491 75.666L40.8919 74.411ZM41.0114 75.8681H37.6136V77.8681H41.0114V75.8681ZM38.6132 76.8982C38.6453 75.831 38.9556 74.9244 39.5318 74.1437L37.9227 72.956C37.0898 74.0844 36.6577 75.39 36.6141 76.838L38.6132 76.8982ZM39.5288 74.1478C40.1334 73.3374 40.9367 72.6931 41.9641 72.2194L41.1268 70.4031C39.8209 71.0052 38.7454 71.8533 37.9257 72.9519L39.5288 74.1478ZM41.9641 72.2194C42.9859 71.7483 44.1363 71.5044 45.4318 71.5044V69.5044C43.8788 69.5044 42.4384 69.7984 41.1268 70.4031L41.9641 72.2194ZM45.4318 71.5044C46.7937 71.5044 47.9117 71.7701 48.8214 72.2599L49.7696 70.499C48.5126 69.8221 47.0548 69.5044 45.4318 69.5044V71.5044ZM48.8287 72.2638C49.7762 72.7639 50.4775 73.4141 50.9661 74.2096L52.6703 73.1629C51.977 72.0341 50.9965 71.1465 49.7622 70.495L48.8287 72.2638ZM50.9691 74.2144C51.4667 75.0145 51.7109 75.8818 51.7046 76.8387L53.7045 76.852C53.7133 75.521 53.3666 74.2822 52.6673 73.158L50.9691 74.2144ZM51.7046 76.8512C51.711 77.9515 51.4089 78.826 50.8359 79.5349L52.3913 80.7922C53.288 79.6828 53.7133 78.3452 53.7045 76.8395L51.7046 76.8512ZM50.8328 79.5388C50.2514 80.2655 49.475 80.7633 48.4563 81.0244L48.9528 82.9618C50.3584 82.6016 51.5213 81.8797 52.3945 80.7882L50.8328 79.5388ZM47.7045 81.9931V82.1749H49.7045V81.9931H47.7045ZM48.5543 83.1635C49.9115 83.3698 50.8724 83.8902 51.5354 84.6656L53.0555 83.366C52.0215 82.1566 50.5885 81.4497 48.8548 81.1862L48.5543 83.1635ZM51.5382 84.669C52.2172 85.456 52.5747 86.4443 52.5682 87.7038L54.5682 87.7141C54.5768 86.0343 54.0859 84.5604 53.0527 83.3626L51.5382 84.669ZM52.5682 87.7149C52.5746 88.7924 52.2792 89.7345 51.6842 90.5738L53.3158 91.7305C54.1602 90.5395 54.5769 89.1861 54.5682 87.7031L52.5682 87.7149ZM51.6813 90.5779C51.0788 91.4369 50.2466 92.1288 49.1524 92.6457L50.0067 94.4541C51.3821 93.8043 52.497 92.8977 53.3187 91.7264L51.6813 90.5779ZM49.157 92.6436C48.0748 93.1481 46.8101 93.4135 45.3409 93.4135V95.4135C47.0535 95.4135 48.6145 95.1032 50.0021 94.4562L49.157 92.6436ZM58.1818 94.0953H57.1818V95.0953H58.1818V94.0953ZM58.1818 70.8226V69.8226H57.1818V70.8226H58.1818ZM73.6477 74.5158L72.7593 74.9747L72.7605 74.9771L73.6477 74.5158ZM73.6364 82.2203L72.7503 81.7568L72.7491 81.759L73.6364 82.2203ZM70.9545 84.9249L71.4392 85.7996L71.4411 85.7985L70.9545 84.9249ZM60.7614 85.9135H59.7614V86.9135H60.7614V85.9135ZM60.7614 82.9362V81.9362H59.7614V82.9362H60.7614ZM68.9318 82.3453L69.4159 83.2204L69.423 83.2164L68.9318 82.3453ZM68.9205 74.4135L68.4436 75.2925L68.4475 75.2946L68.9205 74.4135ZM61.6932 73.834V72.834H60.6932V73.834H61.6932ZM61.6932 94.0953V95.0953H62.6932V94.0953H61.6932ZM59.1818 94.0953V70.8226H57.1818V94.0953H59.1818ZM58.1818 71.8226H66.4773V69.8226H58.1818V71.8226ZM66.4773 71.8226C68.1725 71.8226 69.4926 72.1318 70.4926 72.6859L71.462 70.9366C70.0831 70.1725 68.4033 69.8226 66.4773 69.8226V71.8226ZM70.4926 72.6859C71.5195 73.255 72.2642 74.0163 72.7593 74.9747L74.5362 74.0568C73.8495 72.7274 72.8138 71.6857 71.462 70.9366L70.4926 72.6859ZM72.7605 74.9771C73.2693 75.9556 73.5341 77.0748 73.5341 78.3567H75.5341C75.5341 76.7901 75.2079 75.3487 74.5349 74.0544L72.7605 74.9771ZM73.5341 78.3567C73.5341 79.645 73.2661 80.7709 72.7503 81.7568L74.5224 82.6839C75.2036 81.3818 75.5341 79.9321 75.5341 78.3567H73.5341ZM72.7491 81.759C72.2549 82.7094 71.5064 83.4729 70.468 84.0512L71.4411 85.7985C72.7966 85.0436 73.836 84.004 74.5236 82.6817L72.7491 81.759ZM70.4698 84.0502C69.4693 84.6046 68.1527 84.9135 66.4659 84.9135V86.9135C68.3852 86.9135 70.061 86.5633 71.4392 85.7996L70.4698 84.0502ZM66.4659 84.9135H60.7614V86.9135H66.4659V84.9135ZM61.7614 85.9135V82.9362H59.7614V85.9135H61.7614ZM60.7614 83.9362H66.1477V81.9362H60.7614V83.9362ZM66.1477 83.9362C67.3961 83.9362 68.5076 83.7228 69.4159 83.2204L68.4478 81.4703C67.9318 81.7557 67.1873 81.9362 66.1477 81.9362V83.9362ZM69.423 83.2164C70.3 82.7219 70.9721 82.0299 71.4003 81.1443L69.5997 80.2737C69.3613 80.7668 68.9878 81.1657 68.4407 81.4743L69.423 83.2164ZM71.4003 81.1443C71.8083 80.3004 72 79.364 72 78.3567H70C70 79.107 69.8584 79.7387 69.5997 80.2737L71.4003 81.1443ZM72 78.3567C72 77.3497 71.8084 76.4152 71.3984 75.5766L69.6016 76.455C69.8583 76.98 70 77.6061 70 78.3567H72ZM71.3984 75.5766C70.9659 74.6919 70.2828 74.0099 69.3934 73.5325L68.4475 75.2946C68.9975 75.5898 69.3674 75.976 69.6016 76.455L71.3984 75.5766ZM69.3973 73.5346C68.4885 73.0415 67.3669 72.834 66.1023 72.834V74.834C67.1709 74.834 67.9281 75.0128 68.4436 75.2925L69.3973 73.5346ZM66.1023 72.834H61.6932V74.834H66.1023V72.834ZM60.6932 73.834V94.0953H62.6932V73.834H60.6932ZM61.6932 93.0953H58.1818V95.0953H61.6932V93.0953ZM80.2983 94.4135H79.2983V95.4135H80.2983V94.4135ZM80.2983 91.3226V90.3226H79.2983V91.3226H80.2983ZM83.1392 91.0272L82.685 90.1362L82.6779 90.1399L83.1392 91.0272ZM84.0824 90.2317L83.276 89.6403L83.2737 89.6435L84.0824 90.2317ZM84.7074 89.1181L85.631 89.5014L85.6339 89.4944L85.6367 89.4873L84.7074 89.1181ZM85.0369 88.2885L85.9663 88.6577L86.1259 88.2559L85.9425 87.8643L85.0369 88.2885ZM76.8551 70.8226V69.8226H75.2824L75.9495 71.2468L76.8551 70.8226ZM80.5824 70.8226L81.4931 70.4096L81.2269 69.8226H80.5824V70.8226ZM86.6847 84.2772L85.774 84.6902L86.7381 86.816L87.6119 84.6515L86.6847 84.2772ZM92.1165 70.8226V69.8226H91.4418L91.1892 70.4482L92.1165 70.8226ZM95.7983 70.8226L96.7209 71.2084L97.3004 69.8226H95.7983V70.8226ZM87.7528 90.0612L88.6678 90.4649L88.6717 90.456L88.6754 90.4471L87.7528 90.0612ZM86.571 92.209L85.7434 91.6477L85.739 91.6543L86.571 92.209ZM84.8097 93.8112L85.2892 94.6888L85.2961 94.685L84.8097 93.8112ZM81.2983 94.4135V91.3226H79.2983V94.4135H81.2983ZM80.2983 92.3226H81.696V90.3226H80.2983V92.3226ZM81.696 92.3226C82.384 92.3226 83.0368 92.2075 83.6006 91.9144L82.6779 90.1399C82.484 90.2407 82.1747 90.3226 81.696 90.3226V92.3226ZM83.5934 91.9181C84.1126 91.6534 84.5512 91.2873 84.8911 90.8199L83.2737 89.6435C83.1288 89.8428 82.9385 90.007 82.685 90.1362L83.5934 91.9181ZM84.8888 90.8231C85.1873 90.4159 85.4346 89.9746 85.631 89.5014L83.7838 88.7347C83.6469 89.0645 83.4774 89.3656 83.276 89.6403L84.8888 90.8231ZM85.6367 89.4873L85.9663 88.6577L84.1076 87.9193L83.778 88.7489L85.6367 89.4873ZM85.9425 87.8643L77.7607 70.3984L75.9495 71.2468L84.1314 88.7127L85.9425 87.8643ZM76.8551 71.8226H80.5824V69.8226H76.8551V71.8226ZM79.6717 71.2357L85.774 84.6902L87.5954 83.8641L81.4931 70.4096L79.6717 71.2357ZM87.6119 84.6515L93.0438 71.197L91.1892 70.4482L85.7574 83.9028L87.6119 84.6515ZM92.1165 71.8226H95.7983V69.8226H92.1165V71.8226ZM94.8757 70.4368L86.8303 89.6754L88.6754 90.4471L96.7209 71.2084L94.8757 70.4368ZM86.8379 89.6576C86.5198 90.3786 86.1546 91.0413 85.7434 91.6477L87.3987 92.7702C87.8814 92.0584 88.304 91.2894 88.6678 90.4649L86.8379 89.6576ZM85.739 91.6543C85.3932 92.1729 84.928 92.6009 84.3233 92.9375L85.2961 94.685C86.161 94.2034 86.87 93.5632 87.4031 92.7637L85.739 91.6543ZM84.3302 92.9337C83.7936 93.2269 83.0038 93.4135 81.8892 93.4135V95.4135C83.1988 95.4135 84.3561 95.1986 85.2891 94.6888L84.3302 92.9337ZM81.8892 93.4135H80.2983V95.4135H81.8892V93.4135Z" fill="white"/>
</svg>
