<?xml version="1.0" encoding="UTF-8"?>
<svg width="700pt" height="700pt" version="1.1" viewBox="0 0 700 700" xmlns="http://www.w3.org/2000/svg" xmlns:xlink="http://www.w3.org/1999/xlink">
 <defs>
  <symbol id="t" overflow="visible">
   <path d="m3.6562-0.21875c-0.1875 0.09375-0.38672 0.16797-0.59375 0.21875-0.19922 0.050781-0.40625 0.078125-0.625 0.078125-0.66797 0-1.1992-0.17969-1.5938-0.54688-0.38672-0.375-0.57812-0.87891-0.57812-1.5156 0-0.64453 0.19141-1.1484 0.57812-1.5156 0.39453-0.375 0.92578-0.5625 1.5938-0.5625 0.21875 0 0.42578 0.027344 0.625 0.078125 0.20703 0.054687 0.40625 0.125 0.59375 0.21875v0.82812c-0.1875-0.125-0.375-0.21875-0.5625-0.28125-0.17969-0.0625-0.37109-0.09375-0.57812-0.09375-0.36719 0-0.65625 0.12109-0.875 0.35938-0.21094 0.23047-0.3125 0.55469-0.3125 0.96875 0 0.40625 0.10156 0.73047 0.3125 0.96875 0.21875 0.23047 0.50781 0.34375 0.875 0.34375 0.20703 0 0.39844-0.023437 0.57812-0.078125 0.1875-0.0625 0.375-0.16016 0.5625-0.29688z"/>
  </symbol>
  <symbol id="d" overflow="visible">
   <path d="m2.6875-2.1719c-0.085938-0.039063-0.16797-0.070313-0.25-0.09375-0.085938-0.019531-0.16797-0.03125-0.25-0.03125-0.25 0-0.44531 0.085937-0.57812 0.25-0.125 0.15625-0.1875 0.38281-0.1875 0.67188v1.375h-0.96875v-2.9844h0.96875v0.48438c0.11328-0.19531 0.25-0.33594 0.40625-0.42188 0.16406-0.09375 0.35938-0.14062 0.57812-0.14062h0.10938c0.039063 0 0.09375 0.007812 0.15625 0.015625z"/>
  </symbol>
  <symbol id="a" overflow="visible">
   <path d="m3.4375-1.5v0.26562h-2.2344c0.03125 0.23047 0.11328 0.40234 0.25 0.51562 0.13281 0.10547 0.32812 0.15625 0.57812 0.15625 0.20703 0 0.41406-0.023438 0.625-0.078125 0.20703-0.0625 0.42188-0.15625 0.64062-0.28125v0.73438c-0.21875 0.09375-0.44531 0.16406-0.67188 0.20312-0.23047 0.039062-0.45312 0.0625-0.67188 0.0625-0.54297 0-0.96484-0.13281-1.2656-0.40625-0.30469-0.28125-0.45312-0.67188-0.45312-1.1719 0-0.47656 0.14453-0.85938 0.4375-1.1406 0.30078-0.28125 0.70703-0.42188 1.2188-0.42188 0.46875 0 0.84375 0.14062 1.125 0.42188s0.42188 0.66406 0.42188 1.1406zm-0.96875-0.32812c0-0.17578-0.058594-0.31641-0.17188-0.42188-0.10547-0.11328-0.24219-0.17188-0.40625-0.17188-0.1875 0-0.33984 0.054687-0.45312 0.15625-0.11719 0.10547-0.1875 0.25-0.21875 0.4375z"/>
  </symbol>
  <symbol id="j" overflow="visible">
   <path d="m1.7969-1.3438c-0.19922 0-0.35156 0.039062-0.45312 0.10938-0.09375 0.0625-0.14062 0.16406-0.14062 0.29688 0 0.11719 0.035156 0.21094 0.10938 0.28125 0.082031 0.0625 0.19531 0.09375 0.34375 0.09375 0.17578 0 0.32812-0.0625 0.45312-0.1875s0.1875-0.28516 0.1875-0.48438v-0.10938zm1.4688-0.35938v1.7031h-0.96875v-0.4375c-0.125 0.17969-0.27344 0.30859-0.4375 0.39062-0.15625 0.082031-0.35156 0.125-0.57812 0.125-0.3125 0-0.57031-0.085938-0.76562-0.26562-0.1875-0.1875-0.28125-0.42188-0.28125-0.70312 0-0.35156 0.11719-0.61328 0.35938-0.78125 0.23828-0.16406 0.61719-0.25 1.1406-0.25h0.5625v-0.0625c0-0.15625-0.0625-0.26562-0.1875-0.32812-0.11719-0.070312-0.29688-0.10938-0.54688-0.10938-0.21094 0-0.40234 0.023437-0.57812 0.0625-0.17969 0.042969-0.33984 0.10156-0.48438 0.17188v-0.71875c0.19531-0.050781 0.39844-0.085938 0.60938-0.10938 0.20703-0.03125 0.41406-0.046875 0.625-0.046875 0.53906 0 0.92969 0.10938 1.1719 0.32812 0.23828 0.21094 0.35938 0.55469 0.35938 1.0312z"/>
  </symbol>
  <symbol id="c" overflow="visible">
   <path d="m1.5-3.8438v0.85938h0.98438v0.67188h-0.98438v1.2812c0 0.13672 0.023438 0.23047 0.078125 0.28125 0.0625 0.042969 0.17578 0.0625 0.34375 0.0625h0.48438v0.6875h-0.8125c-0.38672 0-0.65625-0.078125-0.8125-0.23438s-0.23438-0.42188-0.23438-0.79688v-1.2812h-0.46875v-0.67188h0.46875v-0.85938z"/>
  </symbol>
  <symbol id="i" overflow="visible">
   <path d="m2.5-2.5469v-1.6094h0.95312v4.1562h-0.95312v-0.4375c-0.13672 0.17969-0.28125 0.30859-0.4375 0.39062-0.15625 0.082031-0.33984 0.125-0.54688 0.125-0.375 0-0.68359-0.14453-0.92188-0.4375-0.23047-0.28906-0.34375-0.67188-0.34375-1.1406 0-0.45703 0.11328-0.83203 0.34375-1.125 0.23828-0.28906 0.54688-0.4375 0.92188-0.4375 0.19531 0 0.375 0.042969 0.53125 0.125 0.16406 0.085938 0.31641 0.21484 0.45312 0.39062zm-0.64062 1.9375c0.20703 0 0.36328-0.070313 0.46875-0.21875 0.11328-0.15625 0.17188-0.37891 0.17188-0.67188 0-0.28125-0.058594-0.49219-0.17188-0.64062-0.10547-0.15625-0.26172-0.23438-0.46875-0.23438-0.19922 0-0.35547 0.078125-0.46875 0.23438-0.10547 0.14844-0.15625 0.35938-0.15625 0.64062 0 0.29297 0.050781 0.51562 0.15625 0.67188 0.11328 0.14844 0.26953 0.21875 0.46875 0.21875z"/>
  </symbol>
  <symbol id="h" overflow="visible">
   <path d="m2.0469-0.60938c0.20703 0 0.36328-0.070313 0.46875-0.21875 0.11328-0.15625 0.17188-0.37891 0.17188-0.67188 0-0.28125-0.058594-0.49219-0.17188-0.64062-0.10547-0.15625-0.26172-0.23438-0.46875-0.23438-0.19922 0-0.35547 0.078125-0.46875 0.23438-0.10547 0.14844-0.15625 0.35938-0.15625 0.64062 0 0.29297 0.050781 0.51562 0.15625 0.67188 0.11328 0.14844 0.26953 0.21875 0.46875 0.21875zm-0.625-1.9375c0.125-0.17578 0.26562-0.30469 0.42188-0.39062 0.16406-0.082031 0.35156-0.125 0.5625-0.125 0.36328 0 0.66406 0.14844 0.90625 0.4375 0.23828 0.29297 0.35938 0.66797 0.35938 1.125 0 0.46875-0.12109 0.85156-0.35938 1.1406-0.24219 0.29297-0.54297 0.4375-0.90625 0.4375-0.21094 0-0.39844-0.042969-0.5625-0.125-0.15625-0.082031-0.29688-0.21094-0.42188-0.39062v0.4375h-0.96875v-4.1562h0.96875z"/>
  </symbol>
  <symbol id="g" overflow="visible">
   <path d="m0.0625-2.9844h0.95312l0.8125 2.0156 0.6875-2.0156h0.95312l-1.2656 3.2656c-0.125 0.33203-0.27344 0.56641-0.4375 0.70312-0.16797 0.13281-0.39062 0.20312-0.67188 0.20312h-0.54688v-0.64062h0.29688c0.16406 0 0.28516-0.027344 0.35938-0.078125 0.070313-0.054688 0.12891-0.14062 0.17188-0.26562l0.03125-0.09375z"/>
  </symbol>
  <symbol id="f" overflow="visible">
   <path d="m0.5-3.9844h1.0312v3.5938c0 0.5-0.13672 0.86719-0.40625 1.1094-0.27344 0.25-0.67969 0.375-1.2188 0.375h-0.21875v-0.78125h0.17188c0.20703 0 0.36328-0.0625 0.46875-0.1875 0.11328-0.11719 0.17188-0.28516 0.17188-0.51562z"/>
  </symbol>
  <symbol id="s" overflow="visible">
   <path d="m0.45312-2.9844h0.96875v2.9844h-0.96875zm0-1.1719h0.96875v0.78125h-0.96875z"/>
  </symbol>
  <symbol id="e" overflow="visible">
   <path d="m3.4688-1.8281v1.8281h-0.96875v-1.3906c0-0.25781-0.007812-0.4375-0.015625-0.53125-0.011719-0.10156-0.03125-0.17578-0.0625-0.21875-0.03125-0.0625-0.085937-0.10938-0.15625-0.14062-0.0625-0.039062-0.13281-0.0625-0.20312-0.0625-0.21094 0-0.37109 0.078125-0.48438 0.23438-0.10547 0.15625-0.15625 0.37109-0.15625 0.64062v1.4688h-0.96875v-2.9844h0.96875v0.4375c0.13281-0.17578 0.28516-0.30469 0.45312-0.39062 0.16406-0.082031 0.34375-0.125 0.53125-0.125 0.34375 0 0.60156 0.10938 0.78125 0.32812 0.1875 0.21094 0.28125 0.51172 0.28125 0.90625z"/>
  </symbol>
  <symbol id="b" overflow="visible">
   <path d="m1.875-2.375c-0.21094 0-0.37109 0.078125-0.48438 0.23438-0.10547 0.14844-0.15625 0.35938-0.15625 0.64062 0 0.29297 0.050781 0.51562 0.15625 0.67188 0.11328 0.14844 0.27344 0.21875 0.48438 0.21875 0.20703 0 0.36719-0.070313 0.48438-0.21875 0.11328-0.15625 0.17188-0.37891 0.17188-0.67188 0-0.28125-0.058594-0.49219-0.17188-0.64062-0.11719-0.15625-0.27734-0.23438-0.48438-0.23438zm0-0.6875c0.51953 0 0.92188 0.14062 1.2031 0.42188 0.28906 0.27344 0.4375 0.65234 0.4375 1.1406 0 0.5-0.14844 0.89062-0.4375 1.1719-0.28125 0.27344-0.68359 0.40625-1.2031 0.40625-0.51172 0-0.91406-0.13281-1.2031-0.40625-0.29297-0.28125-0.4375-0.67188-0.4375-1.1719 0-0.48828 0.14453-0.86719 0.4375-1.1406 0.28906-0.28125 0.69141-0.42188 1.2031-0.42188z"/>
  </symbol>
  <symbol id="r" overflow="visible">
   <path d="m2.4219-4.1562v0.625h-0.51562c-0.13672 0-0.23438 0.027344-0.29688 0.078125-0.054687 0.054687-0.078125 0.13672-0.078125 0.25v0.21875h0.82812v0.67188h-0.82812v2.3125h-0.95312v-2.3125h-0.46875v-0.67188h0.46875v-0.21875c0-0.32031 0.085937-0.5625 0.26562-0.71875 0.1875-0.15625 0.47266-0.23438 0.85938-0.23438z"/>
  </symbol>
  <symbol id="q" overflow="visible">
   <path d="m3.2344-2.5c0.11328-0.17578 0.25391-0.3125 0.42188-0.40625 0.16406-0.10156 0.35156-0.15625 0.5625-0.15625 0.33203 0 0.58594 0.10938 0.76562 0.32812 0.1875 0.21094 0.28125 0.51172 0.28125 0.90625v1.8281h-0.96875v-1.5625c0.007813-0.019531 0.015625-0.039062 0.015625-0.0625v-0.10938c0-0.21875-0.03125-0.375-0.09375-0.46875s-0.16406-0.14062-0.29688-0.14062c-0.1875 0-0.33594 0.078125-0.4375 0.23438-0.09375 0.14844-0.14062 0.35938-0.14062 0.64062v1.4688h-0.96875v-1.5625c0-0.33203-0.03125-0.54688-0.09375-0.64062-0.054688-0.09375-0.15234-0.14062-0.29688-0.14062-0.17969 0-0.32031 0.078125-0.42188 0.23438-0.09375 0.14844-0.14062 0.35938-0.14062 0.64062v1.4688h-0.96875v-2.9844h0.96875v0.4375c0.11328-0.17578 0.24219-0.30469 0.39062-0.39062 0.15625-0.082031 0.32812-0.125 0.51562-0.125 0.20703 0 0.39062 0.054688 0.54688 0.15625 0.15625 0.09375 0.27344 0.23047 0.35938 0.40625z"/>
  </symbol>
  <symbol id="p" overflow="visible">
   <path d="m3.4688-1.8281v1.8281h-0.96875v-1.3906c0-0.25781-0.007812-0.4375-0.015625-0.53125-0.011719-0.10156-0.03125-0.17578-0.0625-0.21875-0.03125-0.0625-0.085937-0.10938-0.15625-0.14062-0.0625-0.039062-0.13281-0.0625-0.20312-0.0625-0.21094 0-0.37109 0.078125-0.48438 0.23438-0.10547 0.15625-0.15625 0.37109-0.15625 0.64062v1.4688h-0.96875v-4.1562h0.96875v1.6094c0.13281-0.17578 0.28516-0.30469 0.45312-0.39062 0.16406-0.082031 0.34375-0.125 0.53125-0.125 0.34375 0 0.60156 0.10938 0.78125 0.32812 0.1875 0.21094 0.28125 0.51172 0.28125 0.90625z"/>
  </symbol>
  <symbol id="o" overflow="visible">
   <path d="m0.5-3.9844h1.1562l1.4375 2.7344v-2.7344h0.98438v3.9844h-1.1562l-1.4375-2.7344v2.7344h-0.98438z"/>
  </symbol>
  <symbol id="n" overflow="visible">
   <path d="m0.42188-1.1719v-1.8125h0.96875v0.29688 0.60938 0.48438c0 0.24219 0.003906 0.41797 0.015625 0.53125 0.007812 0.10547 0.03125 0.17969 0.0625 0.21875 0.039062 0.0625 0.09375 0.11719 0.15625 0.15625 0.0625 0.03125 0.13281 0.046875 0.21875 0.046875 0.19531 0 0.35156-0.078125 0.46875-0.23438 0.11328-0.15625 0.17188-0.36719 0.17188-0.64062v-1.4688h0.95312v2.9844h-0.95312v-0.4375c-0.14844 0.17969-0.30469 0.30859-0.46875 0.39062-0.15625 0.082031-0.33594 0.125-0.53125 0.125-0.34375 0-0.60938-0.10156-0.79688-0.3125-0.17969-0.21875-0.26562-0.53125-0.26562-0.9375z"/>
  </symbol>
  <symbol id="m" overflow="visible">
   <path d="m0.5-3.9844h1.7031c0.50781 0 0.89844 0.11719 1.1719 0.34375 0.26953 0.21875 0.40625 0.53906 0.40625 0.95312 0 0.41797-0.13672 0.74219-0.40625 0.96875-0.27344 0.21875-0.66406 0.32812-1.1719 0.32812h-0.67188v1.3906h-1.0312zm1.0312 0.75v1.1094h0.5625c0.19531 0 0.34766-0.046875 0.45312-0.14062 0.11328-0.10156 0.17188-0.24219 0.17188-0.42188 0-0.17578-0.058594-0.3125-0.17188-0.40625-0.10547-0.09375-0.25781-0.14062-0.45312-0.14062z"/>
  </symbol>
  <symbol id="l" overflow="visible">
   <path d="m0.45312-2.9844h0.96875v2.9375c0 0.39453-0.10156 0.69531-0.29688 0.90625-0.1875 0.21875-0.46484 0.32812-0.82812 0.32812h-0.48438v-0.64062h0.17188c0.17578 0 0.29688-0.042969 0.35938-0.125 0.070312-0.074219 0.10938-0.23047 0.10938-0.46875zm0-1.1719h0.96875v0.78125h-0.96875z"/>
  </symbol>
  <symbol id="k" overflow="visible">
   <path d="m2.875-2.8906v0.76562c-0.125-0.082031-0.25781-0.14453-0.39062-0.1875-0.13672-0.039062-0.27344-0.0625-0.40625-0.0625-0.27344 0-0.48047 0.078125-0.625 0.23438-0.14844 0.15625-0.21875 0.37109-0.21875 0.64062 0 0.28125 0.070313 0.5 0.21875 0.65625 0.14453 0.15625 0.35156 0.23438 0.625 0.23438 0.14453 0 0.28516-0.019531 0.42188-0.0625 0.13281-0.039063 0.25781-0.10938 0.375-0.20312v0.78125c-0.14844 0.0625-0.29688 0.10156-0.45312 0.125-0.15625 0.03125-0.3125 0.046875-0.46875 0.046875-0.54297 0-0.96484-0.13281-1.2656-0.40625-0.30469-0.28125-0.45312-0.67188-0.45312-1.1719 0-0.48828 0.14844-0.86719 0.45312-1.1406 0.30078-0.28125 0.72266-0.42188 1.2656-0.42188 0.15625 0 0.3125 0.015625 0.46875 0.046875 0.15625 0.023437 0.30469 0.0625 0.45312 0.125z"/>
  </symbol>
 </defs>
 <g>
  <path d="m524.15 453.91c-20.539 0-40.469-5.9922-56.133-16.875-16.961-11.539-28.656-29.336-32.516-49.484-8.5312-43.391 15.805-76.812 39.375-109.14 8.8477-12.172 17.215-23.656 23.801-35.547 8.5547-15.453 18.234-32.965 22.191-51.406 0.53516-2.5234 2.7656-4.3281 5.3477-4.3281 2.5781 0 4.8086 1.8047 5.3477 4.3281 3.5977 16.832 12.402 32.672 20.902 47.984l1.9141 3.457c6.5625 11.898 14.961 23.395 23.82 35.559 23.527 32.297 47.852 65.691 39.32 109.07v-0.003906c-3.8867 20.188-15.645 37.996-32.68 49.504-15.773 10.859-35.777 16.887-56.316 16.887zm2.1016-242.54c-5.0078 13.234-11.812 25.527-18.035 36.781-6.9141 12.48-15.871 24.785-24.531 36.684-22.121 30.441-45.09 61.887-37.434 100.61 5.6328 28.633 31.906 57.52 77.898 57.531h4.375c18.398 0 36.18-5.3047 50.105-14.941h-0.003906c14.684-9.9141 24.82-25.262 28.176-42.656 7.6562-38.688-15.312-70.121-37.43-100.52-8.6719-11.898-17.633-24.215-24.555-36.707l-1.9023-3.4336c-6.0039-10.738-12.105-21.723-16.668-33.348z"/>
  <path d="m262.5 546.88c-3.0195 0-5.4688-2.4492-5.4688-5.4688v-228.59c0-10.938-11.102-11.965-12.371-12.031-3.0195-0.1875-5.3164-2.7891-5.1289-5.8086 0.1875-3.0195 2.7891-5.3164 5.8086-5.1289 7.832 0.49219 22.629 5.918 22.629 22.969v228.59c0 1.4492-0.57422 2.8398-1.6016 3.8672-1.0273 1.0273-2.418 1.6016-3.8672 1.6016z"/>
  <path d="m298.59 546.88c-3.0195 0-5.4688-2.4492-5.4688-5.4688v-228.59c0-8.75 4.1328-15.738 11.648-19.688 3.3984-1.7852 7.1133-2.8789 10.938-3.2266 3.0195-0.1875 5.6211 2.1094 5.8086 5.1289 0.1875 3.0195-2.1094 5.6211-5.1289 5.8086-2.0352 0.15234-12.371 1.4648-12.371 12.031v228.54c0 3.0039-2.4219 5.4453-5.4258 5.4688z"/>
  <path d="m578.59 546.88h-491.09c-3.0195 0-5.4688-2.4492-5.4688-5.4688s2.4492-5.4688 5.4688-5.4688h491.09c3.0195 0 5.4688 2.4492 5.4688 5.4688s-2.4492 5.4688-5.4688 5.4688z"/>
  <path d="m473.59 231.88h-386.09c-3.0195 0-5.4688-2.4492-5.4688-5.4688v-24.062c0-3.0195 2.4492-5.4688 5.4688-5.4688h386.09c1.4492 0 2.8398 0.57422 3.8672 1.6016 1.0273 1.0273 1.6016 2.418 1.6016 3.8672v24.062c0 1.4492-0.57422 2.8398-1.6016 3.8672-1.0273 1.0273-2.418 1.6016-3.8672 1.6016zm-380.62-10.938h375.16v-13.125h-375.16z"/>
  <path d="m436.41 207.81c-3.0195 0-5.4688-2.4492-5.4688-5.4688v-147.66c-10.25-6.2773-56.535-30.941-150.94-30.941-94.785 0-140.74 24.621-150.94 30.941v147.66c0 3.0195-2.4492 5.4688-5.4688 5.4688s-5.4688-2.4492-5.4688-5.4688v-150.62c0-1.7188 0.80859-3.3398 2.1875-4.375 1.9375-1.4102 47.973-34.539 159.69-34.539s157.75 33.129 159.69 34.52c1.3789 1.0312 2.1875 2.6523 2.1875 4.375v150.64c0 1.4492-0.57422 2.8398-1.6016 3.8672-1.0273 1.0273-2.418 1.6016-3.8672 1.6016z"/>
  <path d="m436.41 56.875h-312.81c-3.0195 0-5.4688-2.4492-5.4688-5.4688s2.4492-5.4688 5.4688-5.4688h312.81c3.0195 0 5.4688 2.4492 5.4688 5.4688s-2.4492 5.4688-5.4688 5.4688z"/>
  <path d="m391.7 280.63c-2.5156-0.003906-4.7031-1.7227-5.3008-4.1641-0.59766-2.4453 0.54688-4.9805 2.7773-6.1484 36.664-19.109 42.93-44.844 42.984-45.105 0.64844-2.9531 3.5664-4.8164 6.5156-4.168 2.9531 0.64844 4.8164 3.5664 4.168 6.5195-0.27344 1.2461-7.0977 30.82-48.617 52.5-0.78516 0.38672-1.6484 0.58203-2.5273 0.56641z"/>
  <path d="m316.09 300.78c-3.0195 0.14062-5.582-2.1953-5.7188-5.2188-0.14062-3.0195 2.1953-5.5781 5.2148-5.7188 13.387-1.1914 26.66-3.457 39.684-6.7812 1.418-0.41797 2.9453-0.24219 4.2305 0.48438 1.2891 0.73047 2.2266 1.9492 2.6016 3.3789 0.375 1.4297 0.15234 2.9531-0.61328 4.2148-0.76563 1.2656-2.0117 2.168-3.4531 2.5-13.594 3.4922-27.449 5.8789-41.43 7.1406z"/>
  <path d="m245 300.78h-0.53516c-14.219-1.3203-28.309-3.8047-42.121-7.4258-2.8711-0.82031-4.5547-3.7891-3.7852-6.6719 0.76953-2.8828 3.7109-4.6172 6.6055-3.8945 13.238 3.4531 26.738 5.8125 40.359 7.0547 3.0234 0.14062 5.3555 2.707 5.2148 5.7266-0.14453 3.0195-2.707 5.3516-5.7266 5.2109z"/>
  <path d="m170.1 280.9c-0.86328-0.003907-1.7148-0.21094-2.4844-0.60156-42.359-21.625-50.117-51.328-50.422-52.578-0.65234-2.8984 1.1289-5.7891 4.0117-6.5078 2.8828-0.71875 5.8125 0.99609 6.5977 3.8594 0.12109 0.46094 7.3281 26.359 44.777 45.477v0.003906c2.2617 1.1445 3.4375 3.6914 2.8477 6.1523-0.59375 2.4648-2.7969 4.1992-5.3281 4.1953z"/>
  <path d="m105.55 207.81c-3.0195 0-5.4688-2.4492-5.4688-5.4688v-28.438c0-3.0195 2.4492-5.4688 5.4688-5.4688h349.45c1.4492 0 2.8398 0.57422 3.8672 1.6016 1.0273 1.0273 1.6016 2.418 1.6016 3.8672v27.344c0 3.0195-2.4492 5.4688-5.4688 5.4688s-5.4688-2.4492-5.4688-5.4688v-21.875h-338.52v22.969c0 1.4492-0.57422 2.8398-1.6016 3.8672-1.0273 1.0273-2.418 1.6016-3.8672 1.6016z"/>
  <path d="m140.56 546.88c-0.20312 0.011719-0.41016 0.011719-0.61328 0-1.4414-0.16016-2.7617-0.88672-3.668-2.0156-0.90625-1.1328-1.3242-2.582-1.168-4.0234l35-315c0.33203-3 3.0352-5.1641 6.0391-4.832 3.0039 0.33203 5.168 3.0352 4.8359 6.0352l-35 315c-0.32422 2.7539-2.6523 4.832-5.4258 4.8359z"/>
  <path d="m170.09 546.88c-0.20312 0.011719-0.41016 0.011719-0.61328 0-1.4414-0.16016-2.7617-0.88672-3.668-2.0156-0.90625-1.1328-1.3242-2.582-1.168-4.0234l35-315c0.33203-3 3.0352-5.1641 6.0391-4.832 3.0039 0.33203 5.168 3.0352 4.8359 6.0352l-35 315c-0.32422 2.7539-2.6523 4.832-5.4258 4.8359z"/>
  <path d="m420.54 546.88c-2.8008 0.015625-5.1602-2.082-5.4688-4.8672l-35-315c-0.16016-1.4414 0.26172-2.8867 1.168-4.0195 0.90625-1.1328 2.2266-1.8594 3.668-2.0195 3-0.33203 5.7031 1.832 6.0352 4.8359l35 315c0.16016 1.4414-0.25781 2.8867-1.1641 4.0195-0.90625 1.1328-2.2266 1.8594-3.668 2.0195-0.19141 0.019531-0.37891 0.03125-0.57031 0.03125z"/>
  <path d="m389.91 546.88c-2.8008 0.015625-5.1602-2.082-5.4688-4.8672l-35-315c-0.16016-1.4414 0.26172-2.8867 1.168-4.0195 0.90625-1.1328 2.2266-1.8594 3.668-2.0195 3-0.33203 5.7031 1.832 6.0352 4.8359l35 315c0.16016 1.4414-0.25781 2.8867-1.1641 4.0195-0.90625 1.1328-2.2266 1.8594-3.668 2.0195-0.19141 0.019531-0.37891 0.03125-0.57031 0.03125z"/>
  <path d="m409.06 336.88h-258.12c-3.0195 0-5.4688-2.4492-5.4688-5.4688s2.4492-5.4688 5.4688-5.4688h258.12c3.0195 0 5.4688 2.4492 5.4688 5.4688s-2.4492 5.4688-5.4688 5.4688z"/>
  <path d="m420 441.88h-280c-3.0195 0-5.4688-2.4492-5.4688-5.4688s2.4492-5.4688 5.4688-5.4688h280c3.0195 0 5.4688 2.4492 5.4688 5.4688s-2.4492 5.4688-5.4688 5.4688z"/>
  <path d="m261.41 417.81c-1.7109 0.011719-3.332-0.77734-4.375-2.1328l-62.344-80.938c-1.8281-2.418-1.3516-5.8555 1.0664-7.6836 2.418-1.8281 5.8555-1.3516 7.6836 1.0664l62.344 80.938c1.2773 1.6562 1.4961 3.8984 0.5625 5.7695-0.92969 1.8711-2.8477 3.0508-4.9375 3.0352z"/>
  <path d="m262.5 538.12c-1.7109 0.015625-3.3281-0.76953-4.375-2.1211l-74.375-96.25c-1.8477-2.3945-1.4062-5.832 0.98438-7.6797 2.3906-1.8477 5.8281-1.4062 7.6797 0.98438l74.375 96.25c1.2812 1.6562 1.5039 3.9023 0.57422 5.7773-0.93359 1.8789-2.8555 3.0586-4.9492 3.0391z"/>
  <path d="m379.53 546.88c-1.7109 0.011719-3.332-0.77734-4.375-2.1328l-80.938-105c-1.8281-2.418-1.3516-5.8555 1.0664-7.6836 2.418-1.8281 5.8555-1.3516 7.6836 1.0664l80.938 105c1.2773 1.6562 1.4961 3.8984 0.5625 5.7695-0.92969 1.8711-2.8477 3.0508-4.9375 3.0352z"/>
  <path d="m372.97 433.12c-1.7109 0.015625-3.3281-0.76953-4.375-2.1211l-74.375-96.25c-1.8477-2.3945-1.4062-5.832 0.98438-7.6797 2.3906-1.8477 5.8281-1.4062 7.6797 0.98438l74.375 96.25c1.2812 1.6562 1.5039 3.9023 0.57422 5.7773-0.93359 1.8789-2.8555 3.0586-4.9492 3.0391z"/>
  <path d="m526.09 426.09c-3.0195 0.18359-5.6172-2.1172-5.8008-5.1367-0.1875-3.0195 2.1133-5.6172 5.1328-5.8008 20.551-2.5703 35.316-10.16 43.883-22.562 13.32-19.293 7.4688-44.363 7.4062-44.613l-0.003906-0.003907c-0.70703-2.9375 1.0977-5.8906 4.0312-6.6016 2.9375-0.71094 5.8906 1.0938 6.6016 4.0312 0.29688 1.2148 7.1211 29.957-8.9805 53.352-10.402 15.125-27.758 24.312-51.582 27.289-0.23828 0.023437-0.46875 0.046875-0.6875 0.046875z"/>
  <path d="m141.09 207.81c-3.0195 0-5.4688-2.4492-5.4688-5.4688v-28.438c0-3.0195 2.4492-5.4688 5.4688-5.4688s5.4688 2.4492 5.4688 5.4688v28.438c0 1.4492-0.57422 2.8398-1.6016 3.8672-1.0273 1.0273-2.418 1.6016-3.8672 1.6016z"/>
  <path d="m175.68 207.81c-3.0234 0-5.4688-2.4492-5.4688-5.4688v-28.438c0-3.0195 2.4453-5.4688 5.4688-5.4688 3.0195 0 5.4688 2.4492 5.4688 5.4688v28.438c0 1.4492-0.57813 2.8398-1.6016 3.8672-1.0273 1.0273-2.418 1.6016-3.8672 1.6016z"/>
  <path d="m210.27 207.81c-3.0195 0-5.4688-2.4492-5.4688-5.4688v-28.438c0-3.0195 2.4492-5.4688 5.4688-5.4688 3.0195 0 5.4688 2.4492 5.4688 5.4688v28.438c0 1.4492-0.57422 2.8398-1.6016 3.8672-1.0273 1.0273-2.418 1.6016-3.8672 1.6016z"/>
  <path d="m244.87 207.81c-3.0195 0-5.4688-2.4492-5.4688-5.4688v-28.438c0-3.0195 2.4492-5.4688 5.4688-5.4688 3.0234 0 5.4688 2.4492 5.4688 5.4688v28.438c0 1.4492-0.57422 2.8398-1.6016 3.8672-1.0234 1.0273-2.4141 1.6016-3.8672 1.6016z"/>
  <path d="m314.04 207.81c-3.0234 0-5.4688-2.4492-5.4688-5.4688v-28.438c0-3.0195 2.4453-5.4688 5.4688-5.4688 3.0195 0 5.4688 2.4492 5.4688 5.4688v28.438c0 1.4492-0.57812 2.8398-1.6016 3.8672-1.0273 1.0273-2.418 1.6016-3.8672 1.6016z"/>
  <path d="m348.63 207.81c-3.0195 0-5.4688-2.4492-5.4688-5.4688v-28.438c0-3.0195 2.4492-5.4688 5.4688-5.4688 3.0195 0 5.4688 2.4492 5.4688 5.4688v28.438c0 1.4492-0.57422 2.8398-1.6016 3.8672-1.0273 1.0273-2.418 1.6016-3.8672 1.6016z"/>
  <path d="m383.23 207.81c-3.0195 0-5.4688-2.4492-5.4688-5.4688v-28.438c0-3.0195 2.4492-5.4688 5.4688-5.4688 3.0234 0 5.4688 2.4492 5.4688 5.4688v28.438c0 1.4492-0.57422 2.8398-1.6016 3.8672-1.0234 1.0273-2.4141 1.6016-3.8672 1.6016z"/>
  <path d="m417.81 207.81c-3.0195 0-5.4688-2.4492-5.4688-5.4688v-28.438c0-3.0195 2.4492-5.4688 5.4688-5.4688s5.4688 2.4492 5.4688 5.4688v28.438c0 1.4492-0.57422 2.8398-1.6016 3.8672-1.0273 1.0273-2.418 1.6016-3.8672 1.6016z"/>
  <path d="m279.45 207.81c-3.0195 0-5.4688-2.4492-5.4688-5.4688v-28.438c0-3.0195 2.4492-5.4688 5.4688-5.4688s5.4688 2.4492 5.4688 5.4688v28.438c0 1.4492-0.57422 2.8398-1.6016 3.8672-1.0273 1.0273-2.418 1.6016-3.8672 1.6016z"/>
  <path d="m436.41 98.438h-312.81c-3.0195 0-5.4688-2.4492-5.4688-5.4688s2.4492-5.4688 5.4688-5.4688h312.81c3.0195 0 5.4688 2.4492 5.4688 5.4688s-2.4492 5.4688-5.4688 5.4688z"/>
  <path d="m436.41 140h-312.81c-3.0195 0-5.4688-2.4492-5.4688-5.4688s2.4492-5.4688 5.4688-5.4688h312.81c3.0195 0 5.4688 2.4492 5.4688 5.4688s-2.4492 5.4688-5.4688 5.4688z"/>
  <use x="70" y="576.40625" xlink:href="#t"/>
  <use x="74.011719" y="576.40625" xlink:href="#d"/>
  <use x="76.710938" y="576.40625" xlink:href="#a"/>
  <use x="80.417969" y="576.40625" xlink:href="#j"/>
  <use x="84.109375" y="576.40625" xlink:href="#c"/>
  <use x="86.722656" y="576.40625" xlink:href="#a"/>
  <use x="90.433594" y="576.40625" xlink:href="#i"/>
  <use x="96.25" y="576.40625" xlink:href="#h"/>
  <use x="100.167969" y="576.40625" xlink:href="#g"/>
  <use x="105.636719" y="576.40625" xlink:href="#f"/>
  <use x="107.667969" y="576.40625" xlink:href="#s"/>
  <use x="109.542969" y="576.40625" xlink:href="#e"/>
  <use x="113.4375" y="576.40625" xlink:href="#b"/>
  <use x="70" y="581.875" xlink:href="#r"/>
  <use x="72.378906" y="581.875" xlink:href="#d"/>
  <use x="75.078125" y="581.875" xlink:href="#b"/>
  <use x="78.832031" y="581.875" xlink:href="#q"/>
  <use x="86.4375" y="581.875" xlink:href="#c"/>
  <use x="89.050781" y="581.875" xlink:href="#p"/>
  <use x="92.941406" y="581.875" xlink:href="#a"/>
  <use x="98.554688" y="581.875" xlink:href="#o"/>
  <use x="103.132812" y="581.875" xlink:href="#b"/>
  <use x="106.890625" y="581.875" xlink:href="#n"/>
  <use x="110.785156" y="581.875" xlink:href="#e"/>
  <use x="116.582031" y="581.875" xlink:href="#m"/>
  <use x="120.589844" y="581.875" xlink:href="#d"/>
  <use x="123.285156" y="581.875" xlink:href="#b"/>
  <use x="127.042969" y="581.875" xlink:href="#l"/>
  <use x="128.917969" y="581.875" xlink:href="#a"/>
  <use x="132.625" y="581.875" xlink:href="#k"/>
  <use x="135.867188" y="581.875" xlink:href="#c"/>
 </g>
</svg>
