<?xml version="1.0" encoding="UTF-8"?>
<svg width="700pt" height="700pt" version="1.1" viewBox="0 0 700 700" xmlns="http://www.w3.org/2000/svg" xmlns:xlink="http://www.w3.org/1999/xlink">
 <defs>
  <symbol id="n" overflow="visible">
   <path d="m29.312-1.75c-1.5117 0.78125-3.0898 1.3711-4.7344 1.7656-1.6367 0.40625-3.3398 0.60938-5.1094 0.60938-5.3125 0-9.5273-1.4844-12.641-4.4531-3.1055-2.9688-4.6562-7-4.6562-12.094s1.5508-9.125 4.6562-12.094c3.1133-2.9688 7.3281-4.4531 12.641-4.4531 1.7695 0 3.4727 0.19922 5.1094 0.59375 1.6445 0.39844 3.2227 0.99219 4.7344 1.7812v6.5938c-1.5312-1.0391-3.0391-1.8008-4.5156-2.2812-1.4805-0.48828-3.0391-0.73438-4.6719-0.73438-2.9375 0-5.2461 0.94531-6.9219 2.8281-1.6797 1.875-2.5156 4.4648-2.5156 7.7656 0 3.293 0.83594 5.8828 2.5156 7.7656 1.6758 1.875 3.9844 2.8125 6.9219 2.8125 1.6328 0 3.1914-0.23828 4.6719-0.71875 1.4766-0.48828 2.9844-1.2539 4.5156-2.2969z"/>
  </symbol>
  <symbol id="e" overflow="visible">
   <path d="m21.453-17.406c-0.67969-0.3125-1.3516-0.53906-2.0156-0.6875-0.65625-0.15625-1.3203-0.23438-1.9844-0.23438-1.9688 0-3.4844 0.63281-4.5469 1.8906-1.0547 1.2617-1.5781 3.0703-1.5781 5.4219v11.016h-7.6562v-23.922h7.6562v3.9219c0.97656-1.5625 2.1016-2.7031 3.375-3.4219 1.2812-0.71875 2.8125-1.0781 4.5938-1.0781 0.25 0 0.52344 0.011719 0.82812 0.03125 0.30078 0.023438 0.73438 0.070312 1.2969 0.14062z"/>
  </symbol>
  <symbol id="d" overflow="visible">
   <path d="m27.562-12.031v2.1875h-17.891c0.1875 1.793 0.83203 3.1367 1.9375 4.0312 1.1133 0.89844 2.6719 1.3438 4.6719 1.3438 1.6016 0 3.25-0.23438 4.9375-0.70312 1.6875-0.47656 3.4219-1.2031 5.2031-2.1719v5.8906c-1.8047 0.6875-3.6094 1.2031-5.4219 1.5469-1.8125 0.35156-3.6211 0.53125-5.4219 0.53125-4.3359 0-7.7031-1.0977-10.109-3.2969-2.3984-2.207-3.5938-5.2969-3.5938-9.2656 0-3.9062 1.1758-6.9727 3.5312-9.2031 2.3633-2.2383 5.6094-3.3594 9.7344-3.3594 3.7578 0 6.7695 1.1367 9.0312 3.4062 2.2578 2.2617 3.3906 5.2812 3.3906 9.0625zm-7.8594-2.5312c0-1.457-0.42969-2.6289-1.2812-3.5156-0.84375-0.89453-1.9492-1.3438-3.3125-1.3438-1.4922 0-2.6992 0.41797-3.625 1.25-0.91797 0.83594-1.4922 2.0391-1.7188 3.6094z"/>
  </symbol>
  <symbol id="b" overflow="visible">
   <path d="m14.391-10.766c-1.5938 0-2.793 0.27344-3.5938 0.8125-0.80469 0.54297-1.2031 1.3398-1.2031 2.3906 0 0.96875 0.32031 1.7305 0.96875 2.2812 0.64453 0.54297 1.5469 0.8125 2.7031 0.8125 1.4375 0 2.6445-0.51562 3.625-1.5469 0.98828-1.0312 1.4844-2.3203 1.4844-3.875v-0.875zm11.688-2.8906v13.656h-7.7031v-3.5469c-1.0312 1.4492-2.1875 2.5078-3.4688 3.1719s-2.8398 1-4.6719 1c-2.4805 0-4.4961-0.72266-6.0469-2.1719-1.543-1.4453-2.3125-3.3203-2.3125-5.625 0-2.8125 0.96094-4.8672 2.8906-6.1719 1.9375-1.3125 4.9688-1.9688 9.0938-1.9688h4.5156v-0.60938c0-1.207-0.48047-2.0938-1.4375-2.6562-0.94922-0.5625-2.4375-0.84375-4.4688-0.84375-1.6367 0-3.1562 0.16797-4.5625 0.5-1.4062 0.32422-2.7188 0.8125-3.9375 1.4688v-5.8281c1.6445-0.40625 3.2891-0.70703 4.9375-0.90625 1.6562-0.20703 3.3047-0.3125 4.9531-0.3125 4.3203 0 7.4375 0.85547 9.3438 2.5625 1.9141 1.6992 2.875 4.4609 2.875 8.2812z"/>
  </symbol>
  <symbol id="h" overflow="visible">
   <path d="m12.031-30.719v6.7969h7.875v5.4688h-7.875v10.141c0 1.1172 0.21875 1.8711 0.65625 2.2656 0.4375 0.38672 1.3125 0.57812 2.625 0.57812h3.9375v5.4688h-6.5625c-3.0234 0-5.1641-0.62891-6.4219-1.8906-1.2617-1.2578-1.8906-3.3984-1.8906-6.4219v-10.141h-3.7969v-5.4688h3.7969v-6.7969z"/>
  </symbol>
  <symbol id="c" overflow="visible">
   <path d="m19.953-20.422v-12.812h7.6875v33.234h-7.6875v-3.4531c-1.0547 1.4062-2.2148 2.4375-3.4844 3.0938-1.2734 0.65625-2.7422 0.98438-4.4062 0.98438-2.9492 0-5.3711-1.1719-7.2656-3.5156-1.8867-2.3438-2.8281-5.3594-2.8281-9.0469s0.94141-6.7031 2.8281-9.0469c1.8945-2.3438 4.3164-3.5156 7.2656-3.5156 1.6562 0 3.1172 0.33594 4.3906 1 1.2812 0.65625 2.4453 1.6836 3.5 3.0781zm-5.0469 15.484c1.6445 0 2.8945-0.59766 3.75-1.7969 0.86328-1.1953 1.2969-2.9297 1.2969-5.2031 0-2.2812-0.43359-4.0195-1.2969-5.2188-0.85547-1.1953-2.1055-1.7969-3.75-1.7969-1.625 0-2.8711 0.60156-3.7344 1.7969-0.85547 1.1992-1.2812 2.9375-1.2812 5.2188 0 2.2734 0.42578 4.0078 1.2812 5.2031 0.86328 1.1992 2.1094 1.7969 3.7344 1.7969z"/>
  </symbol>
  <symbol id="g" overflow="visible">
   <path d="m16.406-4.9375c1.6328 0 2.8828-0.59766 3.75-1.7969 0.86328-1.1953 1.2969-2.9297 1.2969-5.2031 0-2.2812-0.43359-4.0195-1.2969-5.2188-0.86719-1.1953-2.1172-1.7969-3.75-1.7969-1.6367 0-2.8906 0.60547-3.7656 1.8125-0.875 1.1992-1.3125 2.9336-1.3125 5.2031 0 2.2617 0.4375 3.9961 1.3125 5.2031 0.875 1.1992 2.1289 1.7969 3.7656 1.7969zm-5.0781-15.484c1.0508-1.3945 2.2188-2.4219 3.5-3.0781 1.2812-0.66406 2.7539-1 4.4219-1 2.9453 0 5.3672 1.1719 7.2656 3.5156 1.8945 2.3438 2.8438 5.3594 2.8438 9.0469s-0.94922 6.7031-2.8438 9.0469c-1.8984 2.3438-4.3203 3.5156-7.2656 3.5156-1.668 0-3.1406-0.33594-4.4219-1s-2.4492-1.6914-3.5-3.0781v3.4531h-7.6562v-33.234h7.6562z"/>
  </symbol>
  <symbol id="a" overflow="visible">
   <path d="m0.53125-23.922h7.6562l6.4219 16.234 5.4688-16.234h7.6562l-10.062 26.188c-1.0117 2.6641-2.1953 4.5234-3.5469 5.5781-1.3438 1.0625-3.1211 1.5938-5.3281 1.5938h-4.4219v-5.0156h2.3906c1.3008 0 2.2422-0.21094 2.8281-0.625 0.59375-0.40625 1.0547-1.1484 1.3906-2.2188l0.20312-0.65625z"/>
  </symbol>
  <symbol id="f" overflow="visible">
   <path d="m12.234-25.672v19.453h2.9531c3.3633 0 5.9297-0.83203 7.7031-2.5 1.7695-1.6641 2.6562-4.0859 2.6562-7.2656 0-3.1562-0.88672-5.5547-2.6562-7.2031-1.7617-1.6562-4.3281-2.4844-7.7031-2.4844zm-8.2188-6.2188h8.6719c4.8438 0 8.4453 0.34375 10.812 1.0312 2.375 0.6875 4.4102 1.8594 6.1094 3.5156 1.4883 1.4375 2.5977 3.1016 3.3281 4.9844 0.72656 1.875 1.0938 4 1.0938 6.375 0 2.4062-0.36719 4.5586-1.0938 6.4531-0.73047 1.8867-1.8398 3.5469-3.3281 4.9844-1.7109 1.6484-3.7617 2.8203-6.1562 3.5156-2.3984 0.6875-5.9844 1.0312-10.766 1.0312h-8.6719z"/>
  </symbol>
  <symbol id="m" overflow="visible">
   <path d="m3.6719-23.922h7.6562v23.922h-7.6562zm0-9.3125h7.6562v6.2344h-7.6562z"/>
  </symbol>
  <symbol id="l" overflow="visible">
   <path d="m23-23.172v6.2344c-1.0312-0.71875-2.0742-1.2422-3.125-1.5781-1.043-0.34375-2.125-0.51562-3.25-0.51562-2.1367 0-3.8047 0.625-5 1.875-1.1875 1.2422-1.7812 2.9805-1.7812 5.2188 0 2.2305 0.59375 3.9688 1.7812 5.2188 1.1953 1.25 2.8633 1.875 5 1.875 1.1953 0 2.332-0.17578 3.4062-0.53125 1.0703-0.36328 2.0625-0.89453 2.9688-1.5938v6.2656c-1.1875 0.4375-2.4023 0.76562-3.6406 0.98438-1.2305 0.22656-2.4648 0.34375-3.7031 0.34375-4.3125 0-7.6875-1.1094-10.125-3.3281s-3.6562-5.2969-3.6562-9.2344c0-3.9453 1.2188-7.0234 3.6562-9.2344 2.4375-2.2188 5.8125-3.3281 10.125-3.3281 1.25 0 2.4844 0.10938 3.7031 0.32812s2.4297 0.55469 3.6406 1z"/>
  </symbol>
  <symbol id="k" overflow="visible">
   <path d="m3.6719-33.234h7.6562v18.094l8.7969-8.7812h8.8906l-11.688 10.969 12.594 12.953h-9.2656l-9.3281-9.9688v9.9688h-7.6562z"/>
  </symbol>
  <symbol id="j" overflow="visible">
   <path d="m4.0156-31.891h13.656c4.0508 0 7.1602 0.90234 9.3281 2.7031 2.1758 1.8047 3.2656 4.3711 3.2656 7.7031 0 3.3438-1.0898 5.918-3.2656 7.7188-2.168 1.8047-5.2773 2.7031-9.3281 2.7031h-5.4375v11.062h-8.2188zm8.2188 5.9531v8.9062h4.5625c1.5938 0 2.8203-0.38281 3.6875-1.1562 0.875-0.78125 1.3125-1.8789 1.3125-3.2969 0-1.4258-0.4375-2.5234-1.3125-3.2969-0.86719-0.76953-2.0938-1.1562-3.6875-1.1562z"/>
  </symbol>
  <symbol id="i" overflow="visible">
   <path d="m3.4219-9.3125v-14.609h7.6875v2.3906c0 1.293-0.011719 2.918-0.03125 4.875-0.011719 1.9609-0.015625 3.2656-0.015625 3.9219 0 1.9297 0.046875 3.3125 0.14062 4.1562 0.10156 0.84375 0.28125 1.4609 0.53125 1.8438 0.3125 0.5 0.71875 0.88672 1.2188 1.1562 0.50781 0.27344 1.0938 0.40625 1.75 0.40625 1.5938 0 2.8438-0.60938 3.75-1.8281 0.91406-1.2266 1.375-2.9297 1.375-5.1094v-11.812h7.6406v23.922h-7.6406v-3.4531c-1.1562 1.3867-2.3828 2.4141-3.6719 3.0781-1.2812 0.66406-2.6992 1-4.25 1-2.7734 0-4.8828-0.84766-6.3281-2.5469-1.4375-1.6953-2.1562-4.1602-2.1562-7.3906z"/>
  </symbol>
 </defs>
 <g>
  <path d="m612.5 511.26c-1.1016 0.011719-2.1836-0.26172-3.1484-0.78516l-43.75-23.711v-0.003906c-25.355-13.738-55.934-13.738-81.289 0-29.273 15.664-64.438 15.664-93.711 0-25.402-13.426-55.801-13.426-81.203 0-29.305 15.664-64.492 15.664-93.797 0-25.402-13.426-55.801-13.426-81.203 0l-43.75 23.711v0.003906c-2.0391 1.0586-4.4844 0.98828-6.4609-0.1875-1.9766-1.1758-3.207-3.2891-3.25-5.5898v-43.75-43.75-233.45c0-5.6406 2.2383-11.047 6.2266-15.035 3.9883-3.9883 9.3984-6.2266 15.035-6.2266h42.262l2.4492-85.75h0.003906c0.042969-5.4609 2.2539-10.684 6.1406-14.52 3.8867-3.8398 9.1328-5.9805 14.594-5.957h36.84c5.5 0 10.773 2.1875 14.664 6.0742 3.8867 3.8906 6.0742 9.1641 6.0742 14.664v10.5h56c20.562-66.852 116.9-66.852 137.55 0h56l-0.003906-10.5c0.023437-5.4844 2.2188-10.738 6.1055-14.605 3.8867-3.8711 9.1484-6.043 14.633-6.043h36.84c5.4688 0 10.715 2.1602 14.602 6.0117 3.8828 3.8516 6.0898 9.0781 6.1328 14.551l2.4492 85.664h42.262l0.003906-0.003906c5.625 0 11.02 2.2305 15.004 6.1992 3.9844 3.9688 6.2344 9.3516 6.2578 14.977v320.95c-0.046875 3.6055-2.957 6.5156-6.5625 6.5625zm-87.5-47.512c27.301-1.75 57.664 17.5 80.938 30.363v-29.574l-40.336-21.875c-25.355-13.738-55.934-13.738-81.289 0-29.273 15.664-64.438 15.664-93.711 0-25.402-13.426-55.801-13.426-81.203 0-29.305 15.664-64.492 15.664-93.797 0-25.402-13.426-55.801-13.426-81.203 0l-40.336 21.875v29.137l34.125-18.461v-0.003906c29.316-15.492 64.395-15.492 93.711 0 25.367 13.566 55.836 13.566 81.203 0 29.344-15.492 64.453-15.492 93.797 0 25.367 13.566 55.836 13.566 81.203 0 14.449-7.6172 30.559-11.555 46.898-11.461zm-430.94-43.312v29.137l34.125-18.461c29.316-15.496 64.395-15.496 93.711 0 25.367 13.562 55.836 13.562 81.203 0 29.344-15.496 64.453-15.496 93.797 0 25.367 13.562 55.836 13.562 81.203 0 29.227-15.84 64.48-15.84 93.711 0l34.125 18.461v-29.137l-40.336-21.875c-25.348-13.645-55.855-13.645-81.203 0-32.289 18.637-71.75 13.824-102.99-4.2891h0.003906c-19.633-7.7617-41.43-8.0391-61.25-0.78516-32.289 18.113-71.398 24.5-105 5.0742-25.367-13.691-55.922-13.691-81.289 0zm467.69-38.148c6.9141 2.4492 37.012 19.512 43.75 23.188v-221.73c0-4.4961-3.6445-8.1367-8.1367-8.1367h-41.477zm-459.55-206.59c-4.4922 0-8.1367 3.6445-8.1367 8.1367v221.64c7.7891-4.0273 36.312-20.477 44.188-23.188l5.8633-206.59zm301 214.46v0.003906c12.598 5.5352 26.344 7.9648 40.074 7.0859l-5.7734-158.29h-54.688l-4.9883 140c8.7852 2.9492 17.277 6.6992 25.375 11.203zm-140.7 7.2656c22.137 1.1367 39.812-11.461 59.762-18.289l-4.9883-140h-54.773l-5.7734 158.11zm-37.102-8.75c5.8711 2.8945 12.07 5.0664 18.465 6.4727l5.6875-163.01c0.64844-13.949 8.4688-26.57 20.668-33.363 12.203-6.793 27.047-6.793 39.25 0 12.199 6.793 20.02 19.414 20.668 33.363l4.9883 144.11c9.8359-1.4453 19.828-1.4453 29.664 0l5.1641-144.11h-0.003906c-0.40625-11.012 3.707-21.707 11.387-29.609 7.6797-7.9023 18.258-12.316 29.273-12.223 11.02 0.097656 21.52 4.6953 29.059 12.73 7.543 8.0312 11.469 18.801 10.871 29.801l5.7734 162.4v0.003906c6.3984-1.3945 12.598-3.5664 18.461-6.4766v-257.51h-56c-20.562 66.762-116.99 66.852-137.55 0h-56zm270.11-319.2c-4.168 0-7.5625 3.3516-7.6133 7.5234v305.38c19.238-7.7305 40.418-9.2305 60.551-4.2891l-8.75-301.09c-0.046875-4.1719-3.4414-7.5234-7.6133-7.5234zm-292.07 309.84c2.8867 0.875 5.7734 1.9258 8.75 3.0625v-305.38c-0.046875-4.1719-3.4414-7.5234-7.6133-7.5234h-36.926c-4.168 0-7.5625 3.3516-7.6094 7.5234l-2.5391 92.312-5.9492 208.77c17.094-4.2344 35.012-3.8125 51.887 1.2266zm180.43-153.48h52.5c-2.1133-7.7266-7.5234-14.133-14.793-17.508-7.2656-3.375-15.648-3.375-22.918 0-7.2656 3.375-12.676 9.7812-14.789 17.508zm-120.57 0h52.5c-2.1133-7.7266-7.5234-14.133-14.793-17.508-7.2656-3.375-15.652-3.375-22.918 0-7.2695 3.375-12.68 9.7812-14.789 17.508zm29.398-102.38c17.5 67.023 115.32 55.125 116.38-14.176-1.1367-70-99.488-81.199-116.46-13.648-2.2461 9.1445-2.2188 18.699 0.085938 27.824zm128.98-5.6016h53.113v-17.5l-53.113 0.003906c0.73047 5.8086 0.73047 11.688 0 17.5zm-196.44 0h53.113l-0.003906 0.003906c-0.73047-5.8125-0.73047-11.691 0-17.5h-53.109zm327.86-40.859m-208.95 83.387c-3.6055-0.046875-6.5156-2.957-6.5625-6.5625v-31.324h-12.336c-2.3633-0.023438-4.5352-1.3047-5.707-3.3555-1.168-2.0547-1.1641-4.5742 0.019531-6.6211l30.449-51.273c1.5742-2.4609 4.5703-3.6055 7.3867-2.8242 2.8164 0.78516 4.7891 3.3164 4.8633 6.2383v28.086h12.336c2.3281 0.027344 4.4688 1.2695 5.6484 3.2734 1.1836 2.0039 1.2305 4.4766 0.12891 6.5273l-30.363 54.949c-1.3125 1.9219-3.5391 3.0195-5.8633 2.8867zm-7.3516-51.102h7.3516v0.003906c3.625 0 6.5625 2.9375 6.5625 6.5625v12.949l12.863-22.836h-7.6992v-0.003906c-1.75 0.023437-3.4297-0.66016-4.668-1.8945-1.2344-1.2344-1.918-2.918-1.8945-4.668v-10.938z"/>
  <use x="70" y="691.25" xlink:href="#n"/>
  <use x="102.109375" y="691.25" xlink:href="#e"/>
  <use x="123.683594" y="691.25" xlink:href="#d"/>
  <use x="153.355469" y="691.25" xlink:href="#b"/>
  <use x="182.878906" y="691.25" xlink:href="#h"/>
  <use x="203.792969" y="691.25" xlink:href="#d"/>
  <use x="233.464844" y="691.25" xlink:href="#c"/>
  <use x="280.011719" y="691.25" xlink:href="#g"/>
  <use x="311.328125" y="691.25" xlink:href="#a"/>
  <use x="355.078125" y="691.25" xlink:href="#f"/>
  <use x="391.394531" y="691.25" xlink:href="#m"/>
  <use x="406.390625" y="691.25" xlink:href="#l"/>
  <use x="432.324219" y="691.25" xlink:href="#k"/>
  <use x="461.421875" y="691.25" xlink:href="#a"/>
  <use x="505.171875" y="691.25" xlink:href="#j"/>
  <use x="537.234375" y="691.25" xlink:href="#e"/>
  <use x="558.8125" y="691.25" xlink:href="#b"/>
  <use x="588.335938" y="691.25" xlink:href="#a"/>
  <use x="616.855469" y="691.25" xlink:href="#i"/>
  <use x="648" y="691.25" xlink:href="#c"/>
  <use x="679.316406" y="691.25" xlink:href="#b"/>
 </g>
</svg>
