<svg width="134" height="144" viewBox="0 0 134 144" fill="none" xmlns="http://www.w3.org/2000/svg">
<path d="M124.007 134.754H9.14309C7.47385 134.754 6.12036 133.402 6.12036 131.731V116.617C6.12036 114.947 7.47385 113.595 9.14309 113.595H124.007C125.676 113.595 127.03 114.947 127.03 116.617V131.731C127.03 133.402 125.676 134.754 124.007 134.754ZM12.1658 128.708H120.984V119.64H12.1658V128.708Z" fill="black"/>
<path d="M124.007 50.1174H9.14309C7.47385 50.1174 6.12036 48.7639 6.12036 47.0946V31.981C6.12036 30.3117 7.47385 28.9583 9.14309 28.9583H124.007C125.676 28.9583 127.03 30.3117 127.03 31.981V47.0946C127.03 48.7639 125.676 50.1174 124.007 50.1174ZM12.1658 44.0719H120.984V35.0037H12.1658V44.0719Z" fill="black"/>
<path d="M27.2794 143.825H15.1885C13.5193 143.825 12.1658 142.473 12.1658 140.803V131.734C12.1658 130.064 13.5193 128.712 15.1885 128.712H27.2794C28.9486 128.712 30.3021 130.064 30.3021 131.734V140.803C30.3021 142.473 28.9486 143.825 27.2794 143.825ZM18.2112 137.78H24.2567V134.757H18.2112V137.78Z" fill="black"/>
<path d="M117.961 143.825H105.87C104.201 143.825 102.848 142.473 102.848 140.803V131.734C102.848 130.064 104.201 128.712 105.87 128.712H117.961C119.631 128.712 120.984 130.064 120.984 131.734V140.803C120.984 142.473 119.631 143.825 117.961 143.825ZM108.893 137.78H114.939V134.757H108.893V137.78Z" fill="black"/>
<path d="M15.1886 113.598C14.7271 113.598 14.2629 113.491 13.8365 113.28L1.74554 107.234C0.721334 106.72 0.0749512 105.676 0.0749512 104.53V59.1889C0.0749512 58.0433 0.721334 56.9974 1.74554 56.4847L13.8365 50.4392C14.7716 49.971 15.8862 50.0236 16.7782 50.5715C17.6688 51.1234 18.2113 52.095 18.2113 53.1435V110.575C18.2113 111.624 17.6688 112.594 16.7782 113.146C16.2924 113.447 15.7405 113.598 15.1886 113.598ZM6.12041 102.661L12.1659 105.684V58.0351L6.12041 61.0578V102.661Z" fill="black"/>
<path d="M117.961 113.598C117.41 113.598 116.858 113.447 116.372 113.146C115.481 112.594 114.939 111.624 114.939 110.575V53.1435C114.939 52.0949 115.481 51.1233 116.372 50.5728C117.264 50.0236 118.38 49.9723 119.314 50.4405L131.404 56.486C132.429 56.9974 133.075 58.0432 133.075 59.1889V104.53C133.075 105.675 132.429 106.72 131.404 107.234L119.314 113.28C118.887 113.491 118.423 113.598 117.961 113.598ZM120.984 58.0351V105.684L127.03 102.661V61.0578L120.984 58.0351Z" fill="black"/>
<path d="M27.2793 28.9617H38.4931V35.0071H27.2793V28.9617Z" fill="black"/>
<path d="M60.9543 28.9617H72.1979V35.0071H60.9543V28.9617Z" fill="black"/>
<path d="M94.6567 28.9617H105.871V35.0071H94.6567V28.9617Z" fill="black"/>
<path d="M40.666 16.0071H25.9828C21.6971 16.0071 18.2114 12.5215 18.2114 8.23438C18.2114 3.94867 21.6971 0.460266 25.9842 0.460266H40.6674C44.9531 0.461615 48.4387 3.94867 48.4387 8.23438C48.4387 12.5215 44.9531 16.0071 40.666 16.0071ZM25.9842 6.5071C25.0315 6.5071 24.2569 7.28168 24.2569 8.23438C24.2569 9.18573 25.0315 9.96165 25.9842 9.96165H40.6674C41.6187 9.96165 42.3933 9.18707 42.3933 8.23438C42.3933 7.28034 41.6187 6.50576 40.666 6.50576L25.9842 6.5071Z" fill="black"/>
<path d="M40.666 25.5071H25.9828C21.6971 25.5071 18.2114 22.0201 18.2114 17.7344C18.2114 13.4487 21.6971 9.96167 25.9842 9.96167H40.6674C44.9531 9.96167 48.4387 13.4487 48.4387 17.7344C48.4387 22.0201 44.9531 25.5071 40.666 25.5071ZM25.9842 16.0071C25.0315 16.0071 24.2569 16.7817 24.2569 17.7344C24.2569 18.6858 25.0315 19.4617 25.9842 19.4617H40.6674C41.6187 19.4617 42.3933 18.6858 42.3933 17.7344C42.3933 16.7831 41.6187 16.0071 40.666 16.0071H25.9842Z" fill="black"/>
<path d="M40.666 35.0071H25.9828C21.6971 35.0071 18.2114 31.5215 18.2114 27.2344C18.2114 22.9487 21.6971 19.4603 25.9842 19.4603H40.6674C44.9531 19.4616 48.4387 22.9487 48.4387 27.2344C48.4387 31.5215 44.9531 35.0071 40.666 35.0071ZM25.9842 25.5071C25.0315 25.5071 24.2569 26.2817 24.2569 27.2344C24.2569 28.1871 25.0315 28.9617 25.9842 28.9617H40.6674C41.6187 28.9617 42.3933 28.1871 42.3933 27.2344C42.3933 26.2803 41.6187 25.5058 40.666 25.5058L25.9842 25.5071Z" fill="black"/>
<path d="M73.9157 16.0071H59.2325C54.9468 16.0071 51.4612 12.5215 51.4612 8.23438C51.4612 3.94867 54.9468 0.460266 59.2339 0.460266H73.9171C78.2028 0.461615 81.6885 3.94867 81.6885 8.23438C81.6885 12.5215 78.2028 16.0071 73.9157 16.0071ZM59.2339 6.5071C58.2812 6.5071 57.5066 7.28168 57.5066 8.23438C57.5066 9.18573 58.2812 9.96165 59.2339 9.96165H73.9171C74.8685 9.96165 75.643 9.18707 75.643 8.23438C75.643 7.28034 74.8685 6.50576 73.9158 6.50576L59.2339 6.5071Z" fill="black"/>
<path d="M73.9157 25.5071H59.2325C54.9468 25.5071 51.4612 22.0201 51.4612 17.7344C51.4612 13.4487 54.9468 9.96167 59.2339 9.96167H73.9171C78.2028 9.96167 81.6885 13.4487 81.6885 17.7344C81.6885 22.0201 78.2028 25.5071 73.9157 25.5071ZM59.2339 16.0071C58.2812 16.0071 57.5066 16.7817 57.5066 17.7344C57.5066 18.6858 58.2812 19.4617 59.2339 19.4617H73.9171C74.8685 19.4617 75.643 18.6858 75.643 17.7344C75.643 16.7831 74.8685 16.0071 73.9158 16.0071H59.2339Z" fill="black"/>
<path d="M73.9157 35.0071H59.2325C54.9468 35.0071 51.4612 31.5215 51.4612 27.2344C51.4612 22.9487 54.9468 19.4603 59.2339 19.4603H73.9171C78.2028 19.4616 81.6885 22.9487 81.6885 27.2344C81.6885 31.5215 78.2028 35.0071 73.9157 35.0071ZM59.2339 25.5071C58.2812 25.5071 57.5066 26.2817 57.5066 27.2344C57.5066 28.1871 58.2812 28.9617 59.2339 28.9617H73.9171C74.8685 28.9617 75.643 28.1871 75.643 27.2344C75.643 26.2803 74.8685 25.5058 73.9158 25.5058L59.2339 25.5071Z" fill="black"/>
<path d="M107.166 16.0071H92.4828C88.1971 16.0071 84.7114 12.5215 84.7114 8.23438C84.7114 3.94867 88.1971 0.460266 92.4842 0.460266H107.167C111.453 0.461615 114.939 3.94867 114.939 8.23438C114.939 12.5215 111.453 16.0071 107.166 16.0071ZM92.4842 6.5071C91.5315 6.5071 90.7569 7.28168 90.7569 8.23438C90.7569 9.18573 91.5315 9.96165 92.4842 9.96165H107.167C108.119 9.96165 108.893 9.18707 108.893 8.23438C108.893 7.28034 108.119 6.50576 107.166 6.50576L92.4842 6.5071Z" fill="black"/>
<path d="M107.166 25.5071H92.4828C88.1971 25.5071 84.7114 22.0201 84.7114 17.7344C84.7114 13.4487 88.1971 9.96167 92.4842 9.96167H107.167C111.453 9.96167 114.939 13.4487 114.939 17.7344C114.939 22.0201 111.453 25.5071 107.166 25.5071ZM92.4842 16.0071C91.5315 16.0071 90.7569 16.7817 90.7569 17.7344C90.7569 18.6858 91.5315 19.4617 92.4842 19.4617H107.167C108.119 19.4617 108.893 18.6858 108.893 17.7344C108.893 16.7831 108.119 16.0071 107.166 16.0071H92.4842Z" fill="black"/>
<path d="M107.166 35.0071H92.4828C88.1971 35.0071 84.7114 31.5215 84.7114 27.2344C84.7114 22.9487 88.1971 19.4603 92.4842 19.4603H107.167C111.453 19.4616 114.939 22.9487 114.939 27.2344C114.939 31.5215 111.453 35.0071 107.166 35.0071ZM92.4842 25.5071C91.5315 25.5071 90.7569 26.2817 90.7569 27.2344C90.7569 28.1871 91.5315 28.9617 92.4842 28.9617H107.167C108.119 28.9617 108.893 28.1871 108.893 27.2344C108.893 26.2803 108.119 25.5058 107.166 25.5058L92.4842 25.5071Z" fill="black"/>
<path d="M117.961 119.644H15.1885C13.5193 119.644 12.1658 118.291 12.1658 116.621V47.098C12.1658 45.4288 13.5193 44.0753 15.1885 44.0753H117.961C119.63 44.0753 120.984 45.4288 120.984 47.098V116.621C120.984 118.291 119.63 119.644 117.961 119.644ZM18.2112 113.598H114.939V50.1208H18.2112V113.598Z" fill="black"/>
<path d="M39.3636 93L31.5455 82.5682H29.0682V93H25.5568V69.7273H29.0682V79.5568H30.2159L39.0114 69.7273H43.2955L33.9886 80.1477L43.6477 93H39.3636ZM46.9006 93V69.7273H55.196C57.0066 69.7273 58.5066 70.0568 59.696 70.7159C60.8854 71.375 61.7756 72.2765 62.3665 73.4205C62.9574 74.5568 63.2528 75.8371 63.2528 77.2614C63.2528 78.6932 62.9536 79.9811 62.3551 81.125C61.7642 82.2614 60.8703 83.1629 59.6733 83.8295C58.4839 84.4886 56.9877 84.8182 55.1847 84.8182H49.4801V81.8409H54.8665C56.0104 81.8409 56.9384 81.6439 57.6506 81.25C58.3627 80.8485 58.8854 80.303 59.2188 79.6136C59.5521 78.9242 59.7188 78.1402 59.7188 77.2614C59.7188 76.3826 59.5521 75.6023 59.2188 74.9205C58.8854 74.2386 58.3589 73.7045 57.6392 73.3182C56.9271 72.9318 55.9877 72.7386 54.821 72.7386H50.4119V93H46.9006ZM69.017 93.3182V90.2273H70.4148C70.9981 90.2273 71.4792 90.1288 71.858 89.9318C72.2443 89.7348 72.5587 89.4697 72.8011 89.1364C73.0511 88.7955 73.2595 88.4242 73.4261 88.0227L73.7557 87.1932L65.5739 69.7273H69.3011L75.4034 83.1818L80.8352 69.7273H84.517L76.4716 88.9659C76.1307 89.7386 75.7367 90.4545 75.2898 91.1136C74.8504 91.7727 74.2633 92.3068 73.5284 92.7159C72.7936 93.1174 71.8201 93.3182 70.608 93.3182H69.017ZM87.8381 93V69.7273H91.3494V79.8409H102.952V69.7273H106.474V93H102.952V82.8523H91.3494V93H87.8381Z" fill="black"/>
<path d="M39.3636 93L38.5634 93.5997L38.8634 94H39.3636V93ZM31.5455 82.5682L32.3457 81.9685L32.0457 81.5682H31.5455V82.5682ZM29.0682 82.5682V81.5682H28.0682V82.5682H29.0682ZM29.0682 93V94H30.0682V93H29.0682ZM25.5568 93H24.5568V94H25.5568V93ZM25.5568 69.7273V68.7273H24.5568V69.7273H25.5568ZM29.0682 69.7273H30.0682V68.7273H29.0682V69.7273ZM29.0682 79.5568H28.0682V80.5568H29.0682V79.5568ZM30.2159 79.5568V80.5568H30.663L30.9611 80.2236L30.2159 79.5568ZM39.0114 69.7273V68.7273H38.5643L38.2661 69.0605L39.0114 69.7273ZM43.2955 69.7273L44.0413 70.3934L45.5294 68.7273H43.2955V69.7273ZM33.9886 80.1477L33.2428 79.4816L32.6967 80.0931L33.1892 80.7485L33.9886 80.1477ZM43.6477 93V94H45.6502L44.4471 92.3992L43.6477 93ZM40.1638 92.4003L32.3457 81.9685L30.7452 83.1679L38.5634 93.5997L40.1638 92.4003ZM31.5455 81.5682H29.0682V83.5682H31.5455V81.5682ZM28.0682 82.5682V93H30.0682V82.5682H28.0682ZM29.0682 92H25.5568V94H29.0682V92ZM26.5568 93V69.7273H24.5568V93H26.5568ZM25.5568 70.7273H29.0682V68.7273H25.5568V70.7273ZM28.0682 69.7273V79.5568H30.0682V69.7273H28.0682ZM29.0682 80.5568H30.2159V78.5568H29.0682V80.5568ZM30.9611 80.2236L39.7566 70.3941L38.2661 69.0605L29.4707 78.89L30.9611 80.2236ZM39.0114 70.7273H43.2955V68.7273H39.0114V70.7273ZM42.5496 69.0611L33.2428 79.4816L34.7345 80.8139L44.0413 70.3934L42.5496 69.0611ZM33.1892 80.7485L42.8483 93.6008L44.4471 92.3992L34.788 79.5469L33.1892 80.7485ZM43.6477 92H39.3636V94H43.6477V92ZM46.9006 93H45.9006V94H46.9006V93ZM46.9006 69.7273V68.7273H45.9006V69.7273H46.9006ZM62.3665 73.4205L61.478 73.8794L61.4793 73.8818L62.3665 73.4205ZM62.3551 81.125L61.4691 80.6614L61.4679 80.6636L62.3551 81.125ZM59.6733 83.8295L60.158 84.7042L60.1599 84.7032L59.6733 83.8295ZM49.4801 84.8182H48.4801V85.8182H49.4801V84.8182ZM49.4801 81.8409V80.8409H48.4801V81.8409H49.4801ZM57.6506 81.25L58.1346 82.1251L58.1417 82.1211L57.6506 81.25ZM57.6392 73.3182L57.1623 74.1972L57.1662 74.1992L57.6392 73.3182ZM50.4119 72.7386V71.7386H49.4119V72.7386H50.4119ZM50.4119 93V94H51.4119V93H50.4119ZM47.9006 93V69.7273H45.9006V93H47.9006ZM46.9006 70.7273H55.196V68.7273H46.9006V70.7273ZM55.196 70.7273C56.8912 70.7273 58.2114 71.0365 59.2113 71.5906L60.1807 69.8412C58.8019 69.0772 57.122 68.7273 55.196 68.7273V70.7273ZM59.2113 71.5906C60.2383 72.1597 60.9829 72.9209 61.478 73.8794L63.2549 72.9615C62.5682 71.6321 61.5326 70.5903 60.1807 69.8412L59.2113 71.5906ZM61.4793 73.8818C61.9881 74.8603 62.2528 75.9795 62.2528 77.2614H64.2528C64.2528 75.6948 63.9267 74.2533 63.2537 72.9591L61.4793 73.8818ZM62.2528 77.2614C62.2528 78.5496 61.9848 79.6756 61.4691 80.6614L63.2412 81.5886C63.9224 80.2865 64.2528 78.8367 64.2528 77.2614H62.2528ZM61.4679 80.6636C60.9737 81.6141 60.2252 82.3775 59.1867 82.9559L60.1599 84.7032C61.5154 83.9482 62.5547 82.9087 63.2423 81.5864L61.4679 80.6636ZM59.1886 82.9549C58.1881 83.5093 56.8715 83.8182 55.1847 83.8182V85.8182C57.1039 85.8182 58.7797 85.468 60.158 84.7042L59.1886 82.9549ZM55.1847 83.8182H49.4801V85.8182H55.1847V83.8182ZM50.4801 84.8182V81.8409H48.4801V84.8182H50.4801ZM49.4801 82.8409H54.8665V80.8409H49.4801V82.8409ZM54.8665 82.8409C56.1148 82.8409 57.2264 82.6275 58.1346 82.125L57.1665 80.375C56.6505 80.6604 55.906 80.8409 54.8665 80.8409V82.8409ZM58.1417 82.1211C59.0188 81.6266 59.6908 80.9346 60.119 80.0489L58.3185 79.1783C58.08 79.6715 57.7066 80.0704 57.1594 80.3789L58.1417 82.1211ZM60.119 80.0489C60.527 79.2051 60.7188 78.2686 60.7188 77.2614H58.7188C58.7188 78.0117 58.5771 78.6434 58.3185 79.1783L60.119 80.0489ZM60.7188 77.2614C60.7188 76.2544 60.5271 75.3199 60.1171 74.4812L58.3204 75.3597C58.577 75.8847 58.7188 76.5108 58.7188 77.2614H60.7188ZM60.1171 74.4812C59.6846 73.5966 59.0016 72.9146 58.1122 72.4371L57.1662 74.1992C57.7162 74.4945 58.0862 74.8807 58.3204 75.3597L60.1171 74.4812ZM58.1161 72.4392C57.2073 71.9461 56.0857 71.7386 54.821 71.7386V73.7386C55.8897 73.7386 56.6469 73.9175 57.1623 74.1971L58.1161 72.4392ZM54.821 71.7386H50.4119V73.7386H54.821V71.7386ZM49.4119 72.7386V93H51.4119V72.7386H49.4119ZM50.4119 92H46.9006V94H50.4119V92ZM69.017 93.3182H68.017V94.3182H69.017V93.3182ZM69.017 90.2273V89.2273H68.017V90.2273H69.017ZM71.858 89.9318L71.4038 89.0409L71.3966 89.0446L71.858 89.9318ZM72.8011 89.1364L71.9947 88.545L71.9924 88.5482L72.8011 89.1364ZM73.4261 88.0227L74.3497 88.4061L74.3527 88.399L74.3555 88.3919L73.4261 88.0227ZM73.7557 87.1932L74.685 87.5624L74.8447 87.1605L74.6612 86.769L73.7557 87.1932ZM65.5739 69.7273V68.7273H64.0011L64.6683 70.1515L65.5739 69.7273ZM69.3011 69.7273L70.2118 69.3142L69.9456 68.7273H69.3011V69.7273ZM75.4034 83.1818L74.4927 83.5949L75.4569 85.7207L76.3307 83.5562L75.4034 83.1818ZM80.8352 69.7273V68.7273H80.1605L79.9079 69.3529L80.8352 69.7273ZM84.517 69.7273L85.4396 70.1131L86.0192 68.7273H84.517V69.7273ZM76.4716 88.9659L77.3865 89.3695L77.3904 89.3607L77.3942 89.3517L76.4716 88.9659ZM75.2898 91.1136L74.4621 90.5523L74.4577 90.5589L75.2898 91.1136ZM73.5284 92.7159L74.0079 93.5935L74.0148 93.5896L73.5284 92.7159ZM70.017 93.3182V90.2273H68.017V93.3182H70.017ZM69.017 91.2273H70.4148V89.2273H69.017V91.2273ZM70.4148 91.2273C71.1028 91.2273 71.7555 91.1122 72.3193 90.819L71.3966 89.0446C71.2028 89.1454 70.8934 89.2273 70.4148 89.2273V91.2273ZM72.3121 90.8227C72.8313 90.558 73.2699 90.192 73.6099 89.7245L71.9924 88.5482C71.8475 88.7474 71.6573 88.9117 71.4038 89.0409L72.3121 90.8227ZM73.6075 89.7277C73.9061 89.3206 74.1533 88.8793 74.3497 88.4061L72.5025 87.6393C72.3656 87.9692 72.1962 88.2703 71.9947 88.545L73.6075 89.7277ZM74.3555 88.3919L74.685 87.5624L72.8263 86.824L72.4968 87.6535L74.3555 88.3919ZM74.6612 86.769L66.4794 69.3031L64.6683 70.1515L72.8501 87.6174L74.6612 86.769ZM65.5739 70.7273H69.3011V68.7273H65.5739V70.7273ZM68.3904 70.1403L74.4927 83.5949L76.3141 82.7688L70.2118 69.3142L68.3904 70.1403ZM76.3307 83.5562L81.7625 70.1016L79.9079 69.3529L74.4761 82.8075L76.3307 83.5562ZM80.8352 70.7273H84.517V68.7273H80.8352V70.7273ZM83.5945 69.3415L75.549 88.5801L77.3942 89.3517L85.4396 70.1131L83.5945 69.3415ZM75.5567 88.5623C75.2386 89.2832 74.8734 89.946 74.4621 90.5524L76.1174 91.6749C76.6001 90.9631 77.0228 90.194 77.3865 89.3695L75.5567 88.5623ZM74.4577 90.5589C74.112 91.0776 73.6467 91.5055 73.042 91.8422L74.0148 93.5896C74.8798 93.1081 75.5888 92.4679 76.1218 91.6683L74.4577 90.5589ZM73.0489 91.8384C72.5123 92.1316 71.7226 92.3182 70.608 92.3182V94.3182C71.9176 94.3182 73.0748 94.1033 74.0079 93.5935L73.0489 91.8384ZM70.608 92.3182H69.017V94.3182H70.608V92.3182ZM87.8381 93H86.8381V94H87.8381V93ZM87.8381 69.7273V68.7273H86.8381V69.7273H87.8381ZM91.3494 69.7273H92.3494V68.7273H91.3494V69.7273ZM91.3494 79.8409H90.3494V80.8409H91.3494V79.8409ZM102.952 79.8409V80.8409H103.952V79.8409H102.952ZM102.952 69.7273V68.7273H101.952V69.7273H102.952ZM106.474 69.7273H107.474V68.7273H106.474V69.7273ZM106.474 93V94H107.474V93H106.474ZM102.952 93H101.952V94H102.952V93ZM102.952 82.8523H103.952V81.8523H102.952V82.8523ZM91.3494 82.8523V81.8523H90.3494V82.8523H91.3494ZM91.3494 93V94H92.3494V93H91.3494ZM88.8381 93V69.7273H86.8381V93H88.8381ZM87.8381 70.7273H91.3494V68.7273H87.8381V70.7273ZM90.3494 69.7273V79.8409H92.3494V69.7273H90.3494ZM91.3494 80.8409H102.952V78.8409H91.3494V80.8409ZM103.952 79.8409V69.7273H101.952V79.8409H103.952ZM102.952 70.7273H106.474V68.7273H102.952V70.7273ZM105.474 69.7273V93H107.474V69.7273H105.474ZM106.474 92H102.952V94H106.474V92ZM103.952 93V82.8523H101.952V93H103.952ZM102.952 81.8523H91.3494V83.8523H102.952V81.8523ZM90.3494 82.8523V93H92.3494V82.8523H90.3494ZM91.3494 92H87.8381V94H91.3494V92Z" fill="white"/>
</svg>
