<svg width="133" height="144" viewBox="0 0 133 144" fill="none" xmlns="http://www.w3.org/2000/svg">
<path d="M123.932 134.389H9.06814C7.3989 134.389 6.04541 133.037 6.04541 131.366V116.252C6.04541 114.582 7.3989 113.23 9.06814 113.23H123.932C125.601 113.23 126.955 114.582 126.955 116.252V131.366C126.955 133.037 125.601 134.389 123.932 134.389ZM12.0909 128.343H120.909V119.275H12.0909V128.343Z" fill="black"/>
<path d="M123.932 49.7523H9.06814C7.3989 49.7523 6.04541 48.3988 6.04541 46.7296V31.6159C6.04541 29.9467 7.3989 28.5932 9.06814 28.5932H123.932C125.601 28.5932 126.955 29.9467 126.955 31.6159V46.7296C126.955 48.3988 125.601 49.7523 123.932 49.7523ZM12.0909 43.7068H120.909V34.6387H12.0909V43.7068Z" fill="black"/>
<path d="M27.2045 143.46H15.1135C13.4443 143.46 12.0908 142.108 12.0908 140.438V131.369C12.0908 129.699 13.4443 128.347 15.1135 128.347H27.2045C28.8737 128.347 30.2272 129.699 30.2272 131.369V140.438C30.2272 142.108 28.8737 143.46 27.2045 143.46ZM18.1363 137.415H24.1817V134.392H18.1363V137.415Z" fill="black"/>
<path d="M117.886 143.46H105.795C104.126 143.46 102.772 142.108 102.772 140.438V131.369C102.772 129.699 104.126 128.347 105.795 128.347H117.886C119.555 128.347 120.909 129.699 120.909 131.369V140.438C120.909 142.108 119.555 143.46 117.886 143.46ZM108.818 137.415H114.863V134.392H108.818V137.415Z" fill="black"/>
<path d="M15.1136 113.233C14.6521 113.233 14.1879 113.126 13.7615 112.915L1.67059 106.869C0.646383 106.355 0 105.31 0 104.165V58.8239C0 57.6782 0.646383 56.6324 1.67059 56.1196L13.7615 50.0742C14.6966 49.6059 15.8113 49.6586 16.7033 50.2064C17.5939 50.7584 18.1363 51.7299 18.1363 52.7784V110.21C18.1363 111.259 17.5939 112.229 16.7033 112.781C16.2175 113.082 15.6656 113.233 15.1136 113.233ZM6.04546 102.296L12.0909 105.319V57.6701L6.04546 60.6928V102.296Z" fill="black"/>
<path d="M117.886 113.233C117.335 113.233 116.783 113.082 116.297 112.781C115.406 112.229 114.864 111.259 114.864 110.21V52.7784C114.864 51.7299 115.406 50.7583 116.297 50.2077C117.189 49.6585 118.305 49.6072 119.239 50.0755L131.33 56.1209C132.354 56.6324 133 57.6782 133 58.8239V104.165C133 105.31 132.354 106.355 131.33 106.869L119.239 112.914C118.812 113.126 118.348 113.233 117.886 113.233ZM120.909 57.67V105.319L126.955 102.296V60.6928L120.909 57.67Z" fill="black"/>
<path d="M27.2043 28.5966H38.4181V34.6421H27.2043V28.5966Z" fill="black"/>
<path d="M60.8794 28.5966H72.1229V34.6421H60.8794V28.5966Z" fill="black"/>
<path d="M94.5818 28.5966H105.796V34.6421H94.5818V28.5966Z" fill="black"/>
<path d="M40.591 15.6421H25.9078C21.6221 15.6421 18.1365 12.1564 18.1365 7.86933C18.1365 3.58362 21.6221 0.0952148 25.9092 0.0952148H40.5924C44.8781 0.0965642 48.3638 3.58362 48.3638 7.86933C48.3638 12.1564 44.8781 15.6421 40.591 15.6421ZM25.9092 6.14205C24.9565 6.14205 24.1819 6.91663 24.1819 7.86933C24.1819 8.82067 24.9565 9.5966 25.9092 9.5966H40.5924C41.5438 9.5966 42.3183 8.82202 42.3183 7.86933C42.3183 6.91528 41.5438 6.14071 40.5911 6.14071L25.9092 6.14205Z" fill="black"/>
<path d="M40.591 25.1421H25.9078C21.6221 25.1421 18.1365 21.6551 18.1365 17.3694C18.1365 13.0836 21.6221 9.59662 25.9092 9.59662H40.5924C44.8781 9.59662 48.3638 13.0836 48.3638 17.3694C48.3638 21.6551 44.8781 25.1421 40.591 25.1421ZM25.9092 15.6421C24.9565 15.6421 24.1819 16.4167 24.1819 17.3694C24.1819 18.3207 24.9565 19.0966 25.9092 19.0966H40.5924C41.5438 19.0966 42.3183 18.3207 42.3183 17.3694C42.3183 16.418 41.5438 15.6421 40.5911 15.6421H25.9092Z" fill="black"/>
<path d="M40.591 34.6421H25.9078C21.6221 34.6421 18.1365 31.1564 18.1365 26.8693C18.1365 22.5836 21.6221 19.0952 25.9092 19.0952H40.5924C44.8781 19.0966 48.3638 22.5836 48.3638 26.8693C48.3638 31.1564 44.8781 34.6421 40.591 34.6421ZM25.9092 25.1421C24.9565 25.1421 24.1819 25.9166 24.1819 26.8693C24.1819 27.822 24.9565 28.5966 25.9092 28.5966H40.5924C41.5438 28.5966 42.3183 27.822 42.3183 26.8693C42.3183 25.9153 41.5438 25.1407 40.5911 25.1407L25.9092 25.1421Z" fill="black"/>
<path d="M73.8408 15.6421H59.1576C54.8719 15.6421 51.3862 12.1564 51.3862 7.86933C51.3862 3.58362 54.8719 0.0952148 59.159 0.0952148H73.8422C78.1279 0.0965642 81.6135 3.58362 81.6135 7.86933C81.6135 12.1564 78.1279 15.6421 73.8408 15.6421ZM59.159 6.14205C58.2063 6.14205 57.4317 6.91663 57.4317 7.86933C57.4317 8.82067 58.2063 9.5966 59.159 9.5966H73.8422C74.7935 9.5966 75.5681 8.82202 75.5681 7.86933C75.5681 6.91528 74.7935 6.14071 73.8408 6.14071L59.159 6.14205Z" fill="black"/>
<path d="M73.8408 25.1421H59.1576C54.8719 25.1421 51.3862 21.6551 51.3862 17.3694C51.3862 13.0836 54.8719 9.59662 59.159 9.59662H73.8422C78.1279 9.59662 81.6135 13.0836 81.6135 17.3694C81.6135 21.6551 78.1279 25.1421 73.8408 25.1421ZM59.159 15.6421C58.2063 15.6421 57.4317 16.4167 57.4317 17.3694C57.4317 18.3207 58.2063 19.0966 59.159 19.0966H73.8422C74.7935 19.0966 75.5681 18.3207 75.5681 17.3694C75.5681 16.418 74.7935 15.6421 73.8408 15.6421H59.159Z" fill="black"/>
<path d="M73.8408 34.6421H59.1576C54.8719 34.6421 51.3862 31.1564 51.3862 26.8693C51.3862 22.5836 54.8719 19.0952 59.159 19.0952H73.8422C78.1279 19.0966 81.6135 22.5836 81.6135 26.8693C81.6135 31.1564 78.1279 34.6421 73.8408 34.6421ZM59.159 25.1421C58.2063 25.1421 57.4317 25.9166 57.4317 26.8693C57.4317 27.822 58.2063 28.5966 59.159 28.5966H73.8422C74.7935 28.5966 75.5681 27.822 75.5681 26.8693C75.5681 25.9153 74.7935 25.1407 73.8408 25.1407L59.159 25.1421Z" fill="black"/>
<path d="M107.091 15.6421H92.4078C88.1221 15.6421 84.6365 12.1564 84.6365 7.86933C84.6365 3.58362 88.1221 0.0952148 92.4092 0.0952148H107.092C111.378 0.0965642 114.864 3.58362 114.864 7.86933C114.864 12.1564 111.378 15.6421 107.091 15.6421ZM92.4092 6.14205C91.4565 6.14205 90.6819 6.91663 90.6819 7.86933C90.6819 8.82067 91.4565 9.5966 92.4092 9.5966H107.092C108.044 9.5966 108.818 8.82202 108.818 7.86933C108.818 6.91528 108.044 6.14071 107.091 6.14071L92.4092 6.14205Z" fill="black"/>
<path d="M107.091 25.1421H92.4078C88.1221 25.1421 84.6365 21.6551 84.6365 17.3694C84.6365 13.0836 88.1221 9.59662 92.4092 9.59662H107.092C111.378 9.59662 114.864 13.0836 114.864 17.3694C114.864 21.6551 111.378 25.1421 107.091 25.1421ZM92.4092 15.6421C91.4565 15.6421 90.6819 16.4167 90.6819 17.3694C90.6819 18.3207 91.4565 19.0966 92.4092 19.0966H107.092C108.044 19.0966 108.818 18.3207 108.818 17.3694C108.818 16.418 108.044 15.6421 107.091 15.6421H92.4092Z" fill="black"/>
<path d="M107.091 34.6421H92.4078C88.1221 34.6421 84.6365 31.1564 84.6365 26.8693C84.6365 22.5836 88.1221 19.0952 92.4092 19.0952H107.092C111.378 19.0966 114.864 22.5836 114.864 26.8693C114.864 31.1564 111.378 34.6421 107.091 34.6421ZM92.4092 25.1421C91.4565 25.1421 90.6819 25.9166 90.6819 26.8693C90.6819 27.822 91.4565 28.5966 92.4092 28.5966H107.092C108.044 28.5966 108.818 27.822 108.818 26.8693C108.818 25.9153 108.044 25.1407 107.091 25.1407L92.4092 25.1421Z" fill="black"/>
<path d="M117.886 119.278H15.1135C13.4443 119.278 12.0908 117.926 12.0908 116.256V46.733C12.0908 45.0638 13.4443 43.7103 15.1135 43.7103H117.886C119.556 43.7103 120.909 45.0638 120.909 46.733V116.256C120.909 117.926 119.556 119.278 117.886 119.278ZM18.1363 113.233H114.864V49.7557H18.1363V113.233Z" fill="black"/>
<path d="M48.5568 93V69.7273H56.8523C58.6629 69.7273 60.1629 70.0568 61.3523 70.7159C62.5417 71.375 63.4318 72.2765 64.0227 73.4205C64.6136 74.5568 64.9091 75.8371 64.9091 77.2614C64.9091 78.6932 64.6098 79.9811 64.0114 81.125C63.4205 82.2614 62.5265 83.1629 61.3295 83.8295C60.1402 84.4886 58.6439 84.8182 56.8409 84.8182H51.1364V81.8409H56.5227C57.6667 81.8409 58.5947 81.6439 59.3068 81.25C60.0189 80.8485 60.5417 80.303 60.875 79.6136C61.2083 78.9242 61.375 78.1402 61.375 77.2614C61.375 76.3826 61.2083 75.6023 60.875 74.9205C60.5417 74.2386 60.0152 73.7045 59.2955 73.3182C58.5833 72.9318 57.6439 72.7386 56.4773 72.7386H52.0682V93H48.5568ZM70.6733 93.3182V90.2273H72.071C72.6544 90.2273 73.1354 90.1288 73.5142 89.9318C73.9006 89.7348 74.215 89.4697 74.4574 89.1364C74.7074 88.7955 74.9157 88.4242 75.0824 88.0227L75.4119 87.1932L67.2301 69.7273H70.9574L77.0597 83.1818L82.4915 69.7273H86.1733L78.1278 88.9659C77.7869 89.7386 77.393 90.4545 76.946 91.1136C76.5066 91.7727 75.9195 92.3068 75.1847 92.7159C74.4498 93.1174 73.4763 93.3182 72.2642 93.3182H70.6733Z" fill="black"/>
<path d="M48.5568 93H47.5568V94H48.5568V93ZM48.5568 69.7273V68.7273H47.5568V69.7273H48.5568ZM64.0227 73.4205L63.1343 73.8794L63.1355 73.8818L64.0227 73.4205ZM64.0114 81.125L63.1253 80.6614L63.1241 80.6636L64.0114 81.125ZM61.3295 83.8295L61.8142 84.7042L61.8161 84.7032L61.3295 83.8295ZM51.1364 84.8182H50.1364V85.8182H51.1364V84.8182ZM51.1364 81.8409V80.8409H50.1364V81.8409H51.1364ZM59.3068 81.25L59.7909 82.1251L59.798 82.1211L59.3068 81.25ZM59.2955 73.3182L58.8186 74.1972L58.8225 74.1992L59.2955 73.3182ZM52.0682 72.7386V71.7386H51.0682V72.7386H52.0682ZM52.0682 93V94H53.0682V93H52.0682ZM49.5568 93V69.7273H47.5568V93H49.5568ZM48.5568 70.7273H56.8523V68.7273H48.5568V70.7273ZM56.8523 70.7273C58.5475 70.7273 59.8676 71.0365 60.8676 71.5906L61.837 69.8412C60.4581 69.0772 58.7783 68.7273 56.8523 68.7273V70.7273ZM60.8676 71.5906C61.8945 72.1597 62.6392 72.9209 63.1343 73.8794L64.9112 72.9615C64.2245 71.6321 63.1888 70.5903 61.837 69.8412L60.8676 71.5906ZM63.1355 73.8818C63.6443 74.8603 63.9091 75.9795 63.9091 77.2614H65.9091C65.9091 75.6948 65.5829 74.2533 64.9099 72.9591L63.1355 73.8818ZM63.9091 77.2614C63.9091 78.5496 63.6411 79.6756 63.1253 80.6614L64.8974 81.5886C65.5786 80.2865 65.9091 78.8367 65.9091 77.2614H63.9091ZM63.1241 80.6636C62.6299 81.6141 61.8814 82.3775 60.843 82.9559L61.8161 84.7032C63.1716 83.9482 64.211 82.9087 64.8986 81.5864L63.1241 80.6636ZM60.8448 82.9549C59.8443 83.5093 58.5277 83.8182 56.8409 83.8182V85.8182C58.7602 85.8182 60.436 85.468 61.8142 84.7042L60.8448 82.9549ZM56.8409 83.8182H51.1364V85.8182H56.8409V83.8182ZM52.1364 84.8182V81.8409H50.1364V84.8182H52.1364ZM51.1364 82.8409H56.5227V80.8409H51.1364V82.8409ZM56.5227 82.8409C57.7711 82.8409 58.8826 82.6275 59.7909 82.125L58.8228 80.375C58.3068 80.6604 57.5623 80.8409 56.5227 80.8409V82.8409ZM59.798 82.1211C60.675 81.6266 61.3471 80.9346 61.7753 80.0489L59.9747 79.1783C59.7363 79.6715 59.3628 80.0704 58.8157 80.3789L59.798 82.1211ZM61.7753 80.0489C62.1833 79.2051 62.375 78.2686 62.375 77.2614H60.375C60.375 78.0117 60.2334 78.6434 59.9747 79.1783L61.7753 80.0489ZM62.375 77.2614C62.375 76.2544 62.1834 75.3199 61.7734 74.4812L59.9766 75.3597C60.2333 75.8847 60.375 76.5108 60.375 77.2614H62.375ZM61.7734 74.4812C61.3409 73.5966 60.6578 72.9146 59.7684 72.4371L58.8225 74.1992C59.3725 74.4945 59.7424 74.8807 59.9766 75.3597L61.7734 74.4812ZM59.7723 72.4392C58.8635 71.9461 57.7419 71.7386 56.4773 71.7386V73.7386C57.5459 73.7386 58.3031 73.9175 58.8186 74.1971L59.7723 72.4392ZM56.4773 71.7386H52.0682V73.7386H56.4773V71.7386ZM51.0682 72.7386V93H53.0682V72.7386H51.0682ZM52.0682 92H48.5568V94H52.0682V92ZM70.6733 93.3182H69.6733V94.3182H70.6733V93.3182ZM70.6733 90.2273V89.2273H69.6733V90.2273H70.6733ZM73.5142 89.9318L73.06 89.0409L73.0529 89.0446L73.5142 89.9318ZM74.4574 89.1364L73.651 88.545L73.6487 88.5482L74.4574 89.1364ZM75.0824 88.0227L76.006 88.4061L76.0089 88.399L76.0117 88.3919L75.0824 88.0227ZM75.4119 87.1932L76.3413 87.5624L76.5009 87.1605L76.3175 86.769L75.4119 87.1932ZM67.2301 69.7273V68.7273H65.6574L66.3245 70.1515L67.2301 69.7273ZM70.9574 69.7273L71.8681 69.3142L71.6019 68.7273H70.9574V69.7273ZM77.0597 83.1818L76.149 83.5949L77.1131 85.7207L77.9869 83.5562L77.0597 83.1818ZM82.4915 69.7273V68.7273H81.8168L81.5642 69.3529L82.4915 69.7273ZM86.1733 69.7273L87.0959 70.1131L87.6754 68.7273H86.1733V69.7273ZM78.1278 88.9659L79.0428 89.3695L79.0467 89.3607L79.0504 89.3517L78.1278 88.9659ZM76.946 91.1136L76.1184 90.5523L76.114 90.5589L76.946 91.1136ZM75.1847 92.7159L75.6642 93.5935L75.6711 93.5896L75.1847 92.7159ZM71.6733 93.3182V90.2273H69.6733V93.3182H71.6733ZM70.6733 91.2273H72.071V89.2273H70.6733V91.2273ZM72.071 91.2273C72.759 91.2273 73.4118 91.1122 73.9756 90.819L73.0529 89.0446C72.859 89.1454 72.5497 89.2273 72.071 89.2273V91.2273ZM73.9684 90.8227C74.4876 90.558 74.9262 90.192 75.2661 89.7245L73.6487 88.5482C73.5038 88.7474 73.3135 88.9117 73.06 89.0409L73.9684 90.8227ZM75.2638 89.7277C75.5623 89.3206 75.8096 88.8793 76.006 88.4061L74.1588 87.6393C74.0219 87.9692 73.8524 88.2703 73.651 88.545L75.2638 89.7277ZM76.0117 88.3919L76.3413 87.5624L74.4826 86.824L74.153 87.6535L76.0117 88.3919ZM76.3175 86.769L68.1357 69.3031L66.3245 70.1515L74.5064 87.6174L76.3175 86.769ZM67.2301 70.7273H70.9574V68.7273H67.2301V70.7273ZM70.0467 70.1403L76.149 83.5949L77.9704 82.7688L71.8681 69.3142L70.0467 70.1403ZM77.9869 83.5562L83.4188 70.1016L81.5642 69.3529L76.1324 82.8075L77.9869 83.5562ZM82.4915 70.7273H86.1733V68.7273H82.4915V70.7273ZM85.2507 69.3415L77.2053 88.5801L79.0504 89.3517L87.0959 70.1131L85.2507 69.3415ZM77.2129 88.5623C76.8948 89.2832 76.5296 89.946 76.1184 90.5524L77.7737 91.6749C78.2564 90.9631 78.679 90.194 79.0428 89.3695L77.2129 88.5623ZM76.114 90.5589C75.7682 91.0776 75.303 91.5055 74.6983 91.8422L75.6711 93.5896C76.536 93.1081 77.245 92.4679 77.7781 91.6683L76.114 90.5589ZM74.7052 91.8384C74.1686 92.1316 73.3788 92.3182 72.2642 92.3182V94.3182C73.5738 94.3182 74.7311 94.1033 75.6641 93.5935L74.7052 91.8384ZM72.2642 92.3182H70.6733V94.3182H72.2642V92.3182Z" fill="white"/>
</svg>
