<svg width="91" height="91" viewBox="0 0 91 91" fill="none" xmlns="http://www.w3.org/2000/svg">
<path fill-rule="evenodd" clip-rule="evenodd" d="M91 46H79.5V45H91L91 46Z" fill="black"/>
<path fill-rule="evenodd" clip-rule="evenodd" d="M11.5 46H0V45H11.5V46Z" fill="black"/>
<path fill-rule="evenodd" clip-rule="evenodd" d="M56.5 45.5C56.5 39.4248 51.5751 34.5 45.5 34.5C39.4249 34.5 34.5 39.4248 34.5 45.5H33.5C33.5 38.8726 38.8726 33.5 45.5 33.5C52.1274 33.5 57.5 38.8726 57.5 45.5H56.5Z" fill="black"/>
<path fill-rule="evenodd" clip-rule="evenodd" d="M79.5 45.5C79.5 39.4248 74.5751 34.5 68.5 34.5C62.4249 34.5 57.5 39.4248 57.5 45.5H56.5C56.5 38.8726 61.8726 33.5 68.5 33.5C75.1274 33.5 80.5 38.8726 80.5 45.5H79.5Z" fill="black"/>
<path fill-rule="evenodd" clip-rule="evenodd" d="M33.5 45.5C33.5 39.4248 28.5751 34.5 22.5 34.5C16.4249 34.5 11.5 39.4248 11.5 45.5H10.5C10.5 38.8726 15.8726 33.5 22.5 33.5C29.1274 33.5 34.5 38.8726 34.5 45.5H33.5Z" fill="black"/>
<path fill-rule="evenodd" clip-rule="evenodd" d="M69.0737 56.0067L75.5544 64.6718L65.93 60.54L66.3245 59.6211L70.7024 61.5005L15.342 18.1477L15.9585 17.3604L71.3818 60.7625L68.2728 56.6057L69.0737 56.0067Z" fill="black"/>
</svg>
