<svg width="91" height="91" viewBox="0 0 91 91" fill="none" xmlns="http://www.w3.org/2000/svg">
<path fill-rule="evenodd" clip-rule="evenodd" d="M91 46H58V45H91L91 46Z" fill="black"/>
<path fill-rule="evenodd" clip-rule="evenodd" d="M58 40V51H57V40H58Z" fill="black"/>
<path fill-rule="evenodd" clip-rule="evenodd" d="M34 40V51H33V40H34Z" fill="black"/>
<path fill-rule="evenodd" clip-rule="evenodd" d="M11 45H33V46H11V45Z" fill="black"/>
<path fill-rule="evenodd" clip-rule="evenodd" d="M11 37V54H10V37H11Z" fill="black"/>
<path fill-rule="evenodd" clip-rule="evenodd" d="M1 44L1 47H0L0 44H1Z" fill="black"/>
<path fill-rule="evenodd" clip-rule="evenodd" d="M6 41V50H5V41H6Z" fill="black"/>
<path fill-rule="evenodd" clip-rule="evenodd" d="M45 37V45H46V37H45Z" fill="black"/>
<path d="M45.5 29L42 40H49L45.5 29Z" fill="black"/>
<path fill-rule="evenodd" clip-rule="evenodd" d="M37 46H54V45H37V46Z" fill="black"/>
</svg>
