<svg width="91" height="91" viewBox="0 0 91 91" fill="none" xmlns="http://www.w3.org/2000/svg">
<path fill-rule="evenodd" clip-rule="evenodd" d="M13.293 45.5L20.0105 38.7824L20.7176 39.4896L14.7072 45.5L20.7176 51.5104L20.0105 52.2175L13.293 45.5Z" fill="black"/>
<path fill-rule="evenodd" clip-rule="evenodd" d="M4.37114e-08 45H14V46H0L4.37114e-08 45Z" fill="black"/>
<path fill-rule="evenodd" clip-rule="evenodd" d="M20 51V40H21V51H20Z" fill="black"/>
<path fill-rule="evenodd" clip-rule="evenodd" d="M77.4351 45.5L70.7176 38.7824L70.0105 39.4896L76.0209 45.5L70.0105 51.5104L70.7176 52.2175L77.4351 45.5Z" fill="black"/>
<path fill-rule="evenodd" clip-rule="evenodd" d="M91 46H76V45H91V46Z" fill="black"/>
<path fill-rule="evenodd" clip-rule="evenodd" d="M70.7278 51V40H69.7278V51H70.7278Z" fill="black"/>
<path fill-rule="evenodd" clip-rule="evenodd" d="M21.293 45.5L28.0105 38.7825L28.7176 39.4896L22.7072 45.5L28.7176 51.5104L28.0105 52.2175L21.293 45.5Z" fill="black"/>
<path fill-rule="evenodd" clip-rule="evenodd" d="M69.4351 45.5L62.7176 38.7825L62.0105 39.4896L68.0209 45.5L62.0105 51.5104L62.7176 52.2175L69.4351 45.5Z" fill="black"/>
<path fill-rule="evenodd" clip-rule="evenodd" d="M68 46H22V45H68V46Z" fill="black"/>
</svg>
