<svg width="91" height="91" viewBox="0 0 91 91" fill="none" xmlns="http://www.w3.org/2000/svg">
<path fill-rule="evenodd" clip-rule="evenodd" d="M44 45.5C44 57.9264 54.0736 68 66.5 68C78.9264 68 89 57.9264 89 45.5C89 33.0736 78.9264 23 66.5 23C54.0736 23 44 33.0736 44 45.5ZM42 45.5C42 59.031 52.969 70 66.5 70C80.031 70 91 59.031 91 45.5C91 31.969 80.031 21 66.5 21C52.969 21 42 31.969 42 45.5Z" fill="black"/>
<path fill-rule="evenodd" clip-rule="evenodd" d="M2 45.5C2 57.9264 12.0736 68 24.5 68C36.9264 68 47 57.9264 47 45.5C47 33.0736 36.9264 23 24.5 23C12.0736 23 2 33.0736 2 45.5ZM0 45.5C0 59.031 10.969 70 24.5 70C38.031 70 49 59.031 49 45.5C49 31.969 38.031 21 24.5 21C10.969 21 0 31.969 0 45.5Z" fill="black"/>
<path fill-rule="evenodd" clip-rule="evenodd" d="M35 45.5L17 35V56L35 45.5ZM33.0154 45.5L18 36.741V54.259L33.0154 45.5Z" fill="black"/>
<path fill-rule="evenodd" clip-rule="evenodd" d="M67.2059 46.6805L72.6125 53.3158L73.3877 52.6842L67.534 45.5L73.3877 38.3158L72.6125 37.6842L66.6514 45H58.0001V46H66.3023L65.2842 52.3438L66.2716 52.5023L67.2059 46.6805Z" fill="black"/>
</svg>
