<svg width="91" height="91" viewBox="0 0 91 91" fill="none" xmlns="http://www.w3.org/2000/svg">
<path fill-rule="evenodd" clip-rule="evenodd" d="M4.37114e-08 45L33 45V46L0 46L4.37114e-08 45Z" fill="black"/>
<path fill-rule="evenodd" clip-rule="evenodd" d="M33 51V40H34V51H33Z" fill="black"/>
<path fill-rule="evenodd" clip-rule="evenodd" d="M57 51V40H58V51H57Z" fill="black"/>
<path fill-rule="evenodd" clip-rule="evenodd" d="M80 46L58 46V45L80 45V46Z" fill="black"/>
<path fill-rule="evenodd" clip-rule="evenodd" d="M53.7278 46L36.7278 29L37.4349 28.2929L54.4349 45.2929L53.7278 46Z" fill="black"/>
<path fill-rule="evenodd" clip-rule="evenodd" d="M46 45V37H45V45H46Z" fill="black"/>
<path d="M45.5 53L49 42H42L45.5 53Z" fill="black"/>
<path fill-rule="evenodd" clip-rule="evenodd" d="M80 54V37H81V54H80Z" fill="black"/>
<path fill-rule="evenodd" clip-rule="evenodd" d="M90 47V44H91V47H90Z" fill="black"/>
<path fill-rule="evenodd" clip-rule="evenodd" d="M85 50V41H86V50H85Z" fill="black"/>
</svg>
