<svg width="185" height="87" viewBox="0 0 185 87" fill="none" xmlns="http://www.w3.org/2000/svg">
<path d="M0.41333 86.7183H182.501V63.7613H0.41333V86.7183Z" fill="white"/>
<path d="M130.038 63.7613H182.563V2.49484H130.038V63.7613Z" fill="white"/>
<path d="M0.41333 63.7613H19.25V2.5426H0.41333V63.7613Z" fill="white"/>
<path d="M144.301 33.2646H172.504V12.7942H144.301V33.2646Z" fill="white"/>
<path d="M142.514 53.7354C141.015 53.7354 140.015 52.7119 140.015 51.1766V43.5002C140.015 41.9649 141.015 40.9414 142.514 40.9414C144.014 40.9414 145.013 41.9649 145.013 43.5002V51.1766C145.014 52.7119 144.014 53.7354 142.514 53.7354Z" fill="black"/>
<path d="M172.504 53.7354C171.004 53.7354 170.005 52.7119 170.005 51.1766V43.5002C170.005 41.9649 171.004 40.9414 172.504 40.9414C174.003 40.9414 175.003 41.9649 175.003 43.5002V51.1766C175.003 52.7119 174.003 53.7354 172.504 53.7354Z" fill="black"/>
<path d="M162.508 53.7354C161.008 53.7354 160.009 52.7119 160.009 51.1766V43.5002C160.009 41.9649 161.008 40.9414 162.508 40.9414C164.007 40.9414 165.007 41.9649 165.007 43.5002V51.1766C165.007 52.7119 164.007 53.7354 162.508 53.7354Z" fill="black"/>
<path d="M152.448 53.6712C150.949 53.6712 149.949 52.6478 149.949 51.1125V43.436C149.949 41.9007 150.949 40.8773 152.448 40.8773C153.948 40.8773 154.947 41.9007 154.947 43.436V51.1125C154.947 52.6478 153.948 53.6712 152.448 53.6712Z" fill="black"/>
<path d="M182.501 87H132.518C131.018 87 130.019 85.9766 130.019 84.4413V2.55873C130.019 1.02343 131.018 0 132.518 0H182.501C184 0 185 1.02343 185 2.55873V84.4413C185 85.9766 184 87 182.501 87ZM135.017 81.8825H180.001V5.11775H135.017V81.8825Z" fill="black"/>
<path d="M172.504 35.8237H142.514C141.015 35.8237 140.015 34.8003 140.015 33.265V12.7943C140.015 11.259 141.015 10.2355 142.514 10.2355H172.504C174.004 10.2355 175.003 11.259 175.003 12.7943V33.265C175.003 34.8 174.004 35.8237 172.504 35.8237ZM145.014 30.7059H170.005V15.353H145.014V30.7059Z" fill="black"/>
<path d="M152.511 74.2061H142.514C141.015 74.2061 140.015 73.1827 140.015 71.6474V61.4118C140.015 59.8766 141.015 58.8531 142.514 58.8531H152.511C154.01 58.8531 155.01 59.8766 155.01 61.4118V71.6471C155.01 73.1823 154.01 74.2061 152.511 74.2061ZM145.013 69.0883H150.012V63.9706H145.013V69.0883Z" fill="black"/>
<path d="M172.504 74.2061H162.508C161.008 74.2061 160.009 73.1827 160.009 71.6474V61.4118C160.009 59.8766 161.008 58.8531 162.508 58.8531H172.504C174.004 58.8531 175.003 59.8766 175.003 61.4118V71.6471C175.003 73.1823 174.004 74.2061 172.504 74.2061ZM165.007 69.0883H170.005V63.9706H165.007V69.0883Z" fill="black"/>
<path d="M131.932 86.9361H17.0802C15.2667 86.9361 14.0579 85.9135 14.0579 84.3793V2.55685C14.0579 1.02268 15.2667 0 17.0802 0H131.932C133.746 0 134.955 1.02268 134.955 2.55685V84.3793C134.955 85.9135 133.746 86.9361 131.932 86.9361ZM20.1028 81.8224H128.91V5.114H20.1028V81.8224Z" fill="black"/>
<path d="M17.494 87H2.49906C0.999565 87 0 85.9766 0 84.4413V2.55873C0 1.02343 0.999565 0 2.49906 0H17.494C18.9935 0 19.9931 1.02343 19.9931 2.55873V84.4413C19.9933 85.9766 18.9935 87 17.494 87ZM4.99841 81.8825H14.9949V5.11775H4.99841V81.8825Z" fill="black"/>
<path d="M99.5288 77.9162C110.389 77.9162 119.022 71.8177 119.022 56.5714C119.022 41.325 105.098 41.325 105.098 23.0294C96.744 29.128 92.9289 35.5314 91.1745 47.4236C88.3436 45.2389 86.3578 41.9774 85.6049 38.2758C82.8202 41.325 80.0354 50.4728 80.0354 56.5714C80.0354 66.1461 83.5999 77.9162 99.5288 77.9162Z" fill="black"/>
<path d="M99.0935 45.7417L97.4428 44.5236L97.1264 46.8591C96.6269 50.5478 94.5778 53.9758 92.3189 56.3839C87.8954 61.0994 86.9267 66.2245 88.2966 70.4586C89.6067 74.5075 92.9328 77.281 96.3087 77.7425L97.0908 77.8494C95.1587 76.396 93.9183 73.0027 94.3521 70.4683C94.7786 67.9764 96.236 65.6412 99.0354 63.4892L100.447 62.404L100.973 64.3463C101.285 65.4952 101.822 66.4168 102.368 67.3537C102.631 67.8054 102.896 68.2606 103.14 68.7465C103.982 70.4309 104.205 72.3032 103.661 74.1612C103.166 75.8521 102.349 77.1796 101.224 77.9162L102.496 77.7425C105.664 77.3095 107.99 75.9764 109.501 73.7466C110.999 71.5359 111.525 68.6913 111.525 65.6622C111.525 62.8404 110.583 59.9333 109.471 57.5141C108.169 54.6797 106.468 52.3269 104.613 50.0447C104.292 50.8346 104.317 51.1542 103.655 52.4229C102.891 49.9165 101.429 47.465 99.0935 45.7417Z" fill="#FDFDFD"/>
<path d="M44.4226 77.9162C55.2832 77.9162 63.916 71.8177 63.916 56.5714C63.916 41.325 49.9922 41.325 49.9922 23.0294C41.6378 29.128 37.8227 35.5314 36.0683 47.4236C33.2374 45.2389 31.2516 41.9774 30.4987 38.2758C27.714 41.325 24.9292 50.4728 24.9292 56.5714C24.9292 66.1461 28.4937 77.9162 44.4226 77.9162Z" fill="black"/>
<path d="M43.9873 45.7417L42.3366 44.5236L42.0202 46.8591C41.5207 50.5478 39.4716 53.9758 37.2127 56.3839C32.7892 61.0994 31.8205 66.2245 33.1904 70.4586C34.5005 74.5075 37.8266 77.281 41.2025 77.7425L41.9846 77.8494C40.0525 76.396 38.8121 73.0027 39.2459 70.4683C39.6724 67.9764 41.1298 65.6412 43.9292 63.4892L45.3408 62.404L45.8671 64.3463C46.1784 65.4952 46.7156 66.4168 47.2617 67.3537C47.5249 67.8054 47.7902 68.2606 48.0334 68.7465C48.876 70.4309 49.0992 72.3032 48.5552 74.1612C48.0602 75.8521 47.2428 77.1796 46.1178 77.9162L47.3896 77.7425C50.5576 77.3095 52.8842 75.9764 54.3947 73.7466C55.8925 71.5359 56.4185 68.6913 56.4185 65.6622C56.4185 62.8404 55.4766 59.9333 54.365 57.5141C53.0625 54.6797 51.3622 52.3269 49.5068 50.0447C49.1857 50.8346 49.2106 51.1542 48.5491 52.4229C47.7844 49.9165 46.3225 47.465 43.9873 45.7417Z" fill="#FDFDFD"/>
</svg>
