<svg width="34" height="80" viewBox="0 0 34 80" fill="none" xmlns="http://www.w3.org/2000/svg">
<rect x="9" y="41" width="16" height="28" fill="url(#paint0_linear_34_145)" stroke="black" stroke-width="0.4"/>
<rect x="1" y="69" width="32" height="10" fill="url(#paint1_linear_34_145)" stroke="black" stroke-width="0.4"/>
<rect x="6" y="34" width="22" height="7" fill="url(#paint2_linear_34_145)" stroke="black" stroke-width="0.4"/>
<path d="M17 30C24.2429 30 30 26.6667 30 18.3333C30 10 20.7143 10 20.7143 0C15.1429 3.33333 12.5986 6.83333 11.4286 13.3333C9.54066 12.1392 8.21639 10.3566 7.71429 8.33333C5.85714 10 4 15 4 18.3333C4 23.5667 6.37714 30 17 30Z" fill="#FC9A40" fill-opacity="0.83"/>
<path d="M16.7097 12.414L15.6089 11.7482L15.3979 13.0248C15.0648 15.0409 13.6983 16.9147 12.1918 18.2308C9.24184 20.8082 8.59579 23.6095 9.50941 25.9238C10.3831 28.1368 12.6013 29.6527 14.8526 29.905L15.3742 29.9634C14.0857 29.169 13.2585 27.3143 13.5477 25.9291C13.8322 24.5671 14.8041 23.2907 16.671 22.1145L17.6124 21.5213L17.9634 22.5829C18.171 23.2109 18.5292 23.7146 18.8934 24.2267C19.069 24.4736 19.2459 24.7224 19.4081 24.988C19.97 25.9086 20.1188 26.932 19.756 27.9476C19.4259 28.8717 18.8808 29.5973 18.1306 30L18.9787 29.905C21.0914 29.6683 22.643 28.9397 23.6504 27.7209C24.6493 26.5126 25 24.9578 25 23.3022C25 21.7598 24.3719 20.1709 23.6305 18.8486C22.762 17.2993 21.628 16.0134 20.3906 14.766C20.1765 15.1977 20.1931 15.3724 19.752 16.0658C19.242 14.6959 18.2671 13.3559 16.7097 12.414Z" fill="#FDFDFD"/>
<defs>
<linearGradient id="paint0_linear_34_145" x1="9" y1="54" x2="25" y2="54" gradientUnits="userSpaceOnUse">
<stop offset="0.229167" stop-color="#676363"/>
<stop offset="0.5625" stop-color="#D9D9D9" stop-opacity="0"/>
<stop offset="0.828125" stop-color="#646161"/>
</linearGradient>
<linearGradient id="paint1_linear_34_145" x1="1" y1="73.6429" x2="33" y2="73.6429" gradientUnits="userSpaceOnUse">
<stop offset="0.229167" stop-color="#545151"/>
<stop offset="0.5625" stop-color="#A7A6A6" stop-opacity="0.69"/>
<stop offset="0.828125" stop-color="#454242"/>
</linearGradient>
<linearGradient id="paint2_linear_34_145" x1="6" y1="37.25" x2="28" y2="37.25" gradientUnits="userSpaceOnUse">
<stop offset="0.229167" stop-color="#676363"/>
<stop offset="0.5625" stop-color="#D9D9D9" stop-opacity="0"/>
<stop offset="0.828125" stop-color="#646161"/>
</linearGradient>
</defs>
</svg>
