<svg width="119" height="91" viewBox="0 0 119 91" fill="none" xmlns="http://www.w3.org/2000/svg">
<g clip-path="url(#clip0_1_417)">
<path fill-rule="evenodd" clip-rule="evenodd" d="M75 45.5C75 33.0736 64.9264 23 52.5 23C40.0736 23 30 33.0736 30 45.5C30 57.9264 40.0736 68 52.5 68C64.9264 68 75 57.9264 75 45.5ZM77 45.5C77 31.969 66.031 21 52.5 21C38.969 21 28 31.969 28 45.5C28 59.031 38.969 70 52.5 70C66.031 70 77 59.031 77 45.5Z" fill="black"/>
<path fill-rule="evenodd" clip-rule="evenodd" d="M29.9953 30.0344C24.8204 34.1262 21.6691 39.6765 19.9631 45.7696L18.0371 45.2304C19.8311 38.8235 23.1798 32.8738 28.7549 28.4656C34.3326 24.0553 42.0547 21.2545 52.4757 21.0003L52.5245 22.9997C42.4455 23.2455 35.1676 25.9447 29.9953 30.0344Z" fill="black"/>
<path fill-rule="evenodd" clip-rule="evenodd" d="M117 45.5C117 33.0736 106.926 23 94.5 23C82.0736 23 72 33.0736 72 45.5C72 57.9264 82.0736 68 94.5 68C106.926 68 117 57.9264 117 45.5ZM119 45.5C119 31.969 108.031 21 94.5 21C80.969 21 70 31.969 70 45.5C70 59.031 80.969 70 94.5 70C108.031 70 119 59.031 119 45.5Z" fill="black"/>
<path fill-rule="evenodd" clip-rule="evenodd" d="M4.37114e-08 45H20V46H0L4.37114e-08 45Z" fill="black"/>
<path fill-rule="evenodd" clip-rule="evenodd" d="M84 45.5L102 56V35L84 45.5ZM85.9846 45.5L101 54.259V36.741L85.9846 45.5Z" fill="black"/>
<path fill-rule="evenodd" clip-rule="evenodd" d="M51.7941 44.3195L46.3875 37.6842L45.6123 38.3158L51.466 45.5L45.6123 52.6842L46.3875 53.3158L52.3486 46H60.9999V45H52.6977L53.7158 38.6562L52.7284 38.4977L51.7941 44.3195Z" fill="black"/>
</g>
<defs>
<clipPath id="clip0_1_417">
<rect width="91" height="119" fill="white" transform="translate(0 91) rotate(-90)"/>
</clipPath>
</defs>
</svg>
