<svg width="91" height="91" viewBox="0 0 91 91" fill="none" xmlns="http://www.w3.org/2000/svg">
<path fill-rule="evenodd" clip-rule="evenodd" d="M34 34L34 57L57 57V34H34ZM33 58L58 58V33H33L33 58Z" fill="black"/>
<path fill-rule="evenodd" clip-rule="evenodd" d="M4.37114e-08 45L33 45V46L0 46L4.37114e-08 45Z" fill="black"/>
<path fill-rule="evenodd" clip-rule="evenodd" d="M46 39V52H45V39H46Z" fill="black"/>
<path fill-rule="evenodd" clip-rule="evenodd" d="M91 46L58 46V45L91 45V46Z" fill="black"/>
<path d="M33.8878 28.4778H30.5178V21.8078H33.7978C34.3911 21.8078 34.8545 21.9711 35.1878 22.2978C35.5278 22.6178 35.6978 23.0211 35.6978 23.5078C35.6978 23.9078 35.5845 24.2478 35.3578 24.5278C35.1378 24.8011 34.8645 24.9711 34.5378 25.0378C34.8978 25.0911 35.2011 25.2778 35.4478 25.5978C35.7011 25.9111 35.8278 26.2711 35.8278 26.6778C35.8278 27.2111 35.6545 27.6445 35.3078 27.9778C34.9678 28.3111 34.4945 28.4778 33.8878 28.4778ZM33.5578 24.5678C33.8511 24.5678 34.0811 24.4878 34.2478 24.3278C34.4145 24.1678 34.4978 23.9611 34.4978 23.7078C34.4978 23.4478 34.4145 23.2378 34.2478 23.0778C34.0811 22.9178 33.8511 22.8378 33.5578 22.8378H31.6878V24.5678H33.5578ZM33.6078 27.4478C33.9278 27.4478 34.1778 27.3678 34.3578 27.2078C34.5378 27.0411 34.6278 26.8111 34.6278 26.5178C34.6278 26.2578 34.5378 26.0411 34.3578 25.8678C34.1778 25.6878 33.9278 25.5978 33.6078 25.5978H31.6878V27.4478H33.6078Z" fill="black"/>
<path d="M42.8122 28.4778H41.6422V25.5678H38.1722V28.4778H37.0022V21.8078H38.1722V24.5378H41.6422V21.8078H42.8122V28.4778Z" fill="black"/>
</svg>
