<svg width="91" height="91" viewBox="0 0 91 91" fill="none" xmlns="http://www.w3.org/2000/svg">
<path fill-rule="evenodd" clip-rule="evenodd" d="M57 57V34H34V57H57ZM58 33H33V58H58V33Z" fill="black"/>
<path fill-rule="evenodd" clip-rule="evenodd" d="M91 46H58V45H91L91 46Z" fill="black"/>
<path fill-rule="evenodd" clip-rule="evenodd" d="M52 46H39V45H52V46Z" fill="black"/>
<path fill-rule="evenodd" clip-rule="evenodd" d="M0 45H33V46H0V45Z" fill="black"/>
<path d="M57.1122 62.5221H60.4822V69.1921H57.2022C56.6089 69.1921 56.1455 69.0288 55.8122 68.7021C55.4722 68.3821 55.3022 67.9788 55.3022 67.4921C55.3022 67.0921 55.4155 66.7521 55.6422 66.4721C55.8622 66.1988 56.1355 66.0288 56.4622 65.9621C56.1022 65.9088 55.7989 65.7221 55.5522 65.4021C55.2989 65.0888 55.1722 64.7288 55.1722 64.3221C55.1722 63.7888 55.3455 63.3554 55.6922 63.0221C56.0322 62.6888 56.5055 62.5221 57.1122 62.5221ZM57.4422 66.4321C57.1489 66.4321 56.9189 66.5121 56.7522 66.6721C56.5855 66.8321 56.5022 67.0388 56.5022 67.2921C56.5022 67.5521 56.5855 67.7621 56.7522 67.9221C56.9189 68.0821 57.1489 68.1621 57.4422 68.1621H59.3122V66.4321H57.4422ZM57.3922 63.5521C57.0722 63.5521 56.8222 63.6321 56.6422 63.7921C56.4622 63.9588 56.3722 64.1888 56.3722 64.4821C56.3722 64.7421 56.4622 64.9588 56.6422 65.1321C56.8222 65.3121 57.0722 65.4021 57.3922 65.4021H59.3122V63.5521H57.3922Z" fill="black"/>
<path d="M48.1878 62.5221H49.3578V65.4321H52.8278V62.5221H53.9978V69.1921H52.8278V66.4621H49.3578V69.1921H48.1878V62.5221Z" fill="black"/>
</svg>
