<svg width="76" height="91" viewBox="0 0 76 91" fill="none" xmlns="http://www.w3.org/2000/svg">
<path fill-rule="evenodd" clip-rule="evenodd" d="M2 45.5C2 57.9264 12.0736 68 24.5 68C36.9264 68 47 57.9264 47 45.5C47 33.0736 36.9264 23 24.5 23C12.0736 23 2 33.0736 2 45.5ZM0 45.5C0 59.031 10.969 70 24.5 70C38.031 70 49 59.031 49 45.5C49 31.969 38.031 21 24.5 21C10.969 21 0 31.969 0 45.5Z" fill="black"/>
<path fill-rule="evenodd" clip-rule="evenodd" d="M22.4106 50.405C21.5261 51.8203 21.0001 53.259 21.0001 54.5C21.0001 56.294 21.5621 57.9874 22.4106 59.345C23.2672 60.7156 24.3677 61.67 25.3715 62.0715L24.6287 63.9285C23.1325 63.33 21.733 62.0344 20.7146 60.405C19.6881 58.7626 19.0001 56.706 19.0001 54.5C19.0001 52.741 19.7241 50.9297 20.7146 49.345C21.7129 47.7476 23.039 46.2883 24.3754 45.2191L25.6248 46.7809C24.4612 47.7117 23.2873 49.0024 22.4106 50.405Z" fill="black"/>
<path fill-rule="evenodd" clip-rule="evenodd" d="M24.3753 45.2191C26.8079 43.273 29 40.5305 29 37.5C29 33.7616 27.1353 30.7659 24.6838 29.9487L25.3162 28.0513C28.8647 29.2341 31 33.2384 31 37.5C31 41.4695 28.1921 44.727 25.6247 46.7809L24.3753 45.2191Z" fill="black"/>
<path fill-rule="evenodd" clip-rule="evenodd" d="M76 46H49V45H76L76 46Z" fill="black"/>
</svg>
