<svg width="76" height="91" viewBox="0 0 76 91" fill="none" xmlns="http://www.w3.org/2000/svg">
<path fill-rule="evenodd" clip-rule="evenodd" d="M74 45.5C74 33.0736 63.9264 23 51.5 23C39.0736 23 29 33.0736 29 45.5C29 57.9264 39.0736 68 51.5 68C63.9264 68 74 57.9264 74 45.5ZM76 45.5C76 31.969 65.031 21 51.5 21C37.969 21 27 31.969 27 45.5C27 59.031 37.969 70 51.5 70C65.031 70 76 59.031 76 45.5Z" fill="black"/>
<path d="M60 37V39.8701H45.8996L60 44.899V46.1255L45.8996 51.1299H60V54H41V49.9524L53.5052 45.5123L41 41.0476V37H60Z" fill="black"/>
<path fill-rule="evenodd" clip-rule="evenodd" d="M0 45L27 45V46L4.37112e-08 46L0 45Z" fill="black"/>
</svg>
