<svg width="76" height="91" viewBox="0 0 76 91" fill="none" xmlns="http://www.w3.org/2000/svg">
<path fill-rule="evenodd" clip-rule="evenodd" d="M2 45.5C2 57.9264 12.0736 68 24.5 68C36.9264 68 47 57.9264 47 45.5C47 33.0736 36.9264 23 24.5 23C12.0736 23 2 33.0736 2 45.5ZM0 45.5C0 59.031 10.969 70 24.5 70C38.031 70 49 59.031 49 45.5C49 31.969 38.031 21 24.5 21C10.969 21 0 31.969 0 45.5Z" fill="black"/>
<path d="M16 54V51.1299H30.1004L16 46.101V44.8745L30.1004 39.8701H16V37H35V41.0476L22.4948 45.4877L35 49.9524V54H16Z" fill="black"/>
<path fill-rule="evenodd" clip-rule="evenodd" d="M76 46H49V45H76L76 46Z" fill="black"/>
</svg>
