<svg width="91" height="91" viewBox="0 0 91 91" fill="none" xmlns="http://www.w3.org/2000/svg">
<path fill-rule="evenodd" clip-rule="evenodd" d="M1.31134e-07 45H11.5V46H0L1.31134e-07 45Z" fill="black"/>
<path fill-rule="evenodd" clip-rule="evenodd" d="M79.5 45H91V46H79.5V45Z" fill="black"/>
<path fill-rule="evenodd" clip-rule="evenodd" d="M34.5 45.5C34.5 51.5752 39.4249 56.5 45.5 56.5C51.5751 56.5 56.5 51.5752 56.5 45.5H57.5C57.5 52.1274 52.1274 57.5 45.5 57.5C38.8726 57.5 33.5 52.1274 33.5 45.5H34.5Z" fill="black"/>
<path fill-rule="evenodd" clip-rule="evenodd" d="M11.5 45.5C11.5 51.5752 16.4249 56.5 22.5 56.5C28.5751 56.5 33.5 51.5752 33.5 45.5H34.5C34.5 52.1274 29.1274 57.5 22.5 57.5C15.8726 57.5 10.5 52.1274 10.5 45.5H11.5Z" fill="black"/>
<path fill-rule="evenodd" clip-rule="evenodd" d="M57.5 45.5C57.5 51.5752 62.4249 56.5 68.5 56.5C74.5751 56.5 79.5 51.5752 79.5 45.5H80.5C80.5 52.1274 75.1274 57.5 68.5 57.5C61.8726 57.5 56.5 52.1274 56.5 45.5H57.5Z" fill="black"/>
<path fill-rule="evenodd" clip-rule="evenodd" d="M21.9263 34.9933L15.4456 26.3282L25.07 30.46L24.6755 31.3789L20.2976 29.4995L75.658 72.8523L75.0415 73.6396L19.6182 30.2375L22.7272 34.3943L21.9263 34.9933Z" fill="black"/>
</svg>
