<svg width="91" height="91" viewBox="0 0 91 91" fill="none" xmlns="http://www.w3.org/2000/svg">
<path fill-rule="evenodd" clip-rule="evenodd" d="M11 46H1.19249e-08L0 45H11V46Z" fill="black"/>
<path fill-rule="evenodd" clip-rule="evenodd" d="M80 54V37H81V54H80Z" fill="black"/>
<path fill-rule="evenodd" clip-rule="evenodd" d="M90 47V44H91V47H90Z" fill="black"/>
<path fill-rule="evenodd" clip-rule="evenodd" d="M85 50V41H86V50H85Z" fill="black"/>
<path fill-rule="evenodd" clip-rule="evenodd" d="M80 46L58 46V45L80 45V46Z" fill="black"/>
<path fill-rule="evenodd" clip-rule="evenodd" d="M12 40L12 51L57 51V40L12 40ZM11 52L58 52V39L11 39L11 52Z" fill="black"/>
<path fill-rule="evenodd" clip-rule="evenodd" d="M19 46H2V45H19V46Z" fill="black"/>
<path d="M27 45.5L16 49V42L27 45.5Z" fill="black"/>
<path fill-rule="evenodd" clip-rule="evenodd" d="M40 46H57V45H40V46Z" fill="black"/>
<path d="M32 45.5L43 49V42L32 45.5Z" fill="black"/>
</svg>
