<svg width="82" height="91" viewBox="0 0 82 91" fill="none" xmlns="http://www.w3.org/2000/svg">
<path fill-rule="evenodd" clip-rule="evenodd" d="M34.5 22.0001C21.5213 22.0001 11 32.5214 11 45.5001H9C9 31.4168 20.4167 20.0001 34.5 20.0001C48.5833 20.0001 60 31.4168 60 45.5001C60 59.5834 48.5833 71.0001 34.5 71.0001V69.0001C47.4787 69.0001 58 58.4788 58 45.5001C58 32.5214 47.4787 22.0001 34.5 22.0001Z" fill="black"/>
<path fill-rule="evenodd" clip-rule="evenodd" d="M35 45.0001L35 71.0001H34L34 45.0001H35Z" fill="black"/>
<path fill-rule="evenodd" clip-rule="evenodd" d="M71 46.0001L34 46.0001V45.0001L71 45.0001V46.0001Z" fill="black"/>
<path fill-rule="evenodd" clip-rule="evenodd" d="M0 45.0001H11V46.0001H4.37114e-08L0 45.0001Z" fill="black"/>
<path fill-rule="evenodd" clip-rule="evenodd" d="M71 54.0001V37.0001H72V54.0001H71Z" fill="black"/>
<path fill-rule="evenodd" clip-rule="evenodd" d="M81 47.0001V44.0001H82V47.0001H81Z" fill="black"/>
<path fill-rule="evenodd" clip-rule="evenodd" d="M76 50.0001V41.0001H77V50.0001H76Z" fill="black"/>
<path fill-rule="evenodd" clip-rule="evenodd" d="M16.6796 20.466L12.626 10.4334L20.8765 16.8856L20.2605 17.6734L16.5076 14.7384L58.9639 70.7893L58.1668 71.3931L15.6622 15.2785L17.6068 20.0914L16.6796 20.466Z" fill="black"/>
</svg>
