<svg width="82" height="91" viewBox="0 0 82 91" fill="none" xmlns="http://www.w3.org/2000/svg">
<path fill-rule="evenodd" clip-rule="evenodd" d="M34.5 22C21.5213 22 11 32.5213 11 45.5H9C9 31.4167 20.4167 20 34.5 20C48.5833 20 60 31.4167 60 45.5C60 59.5833 48.5833 71 34.5 71V69C47.4787 69 58 58.4787 58 45.5C58 32.5213 47.4787 22 34.5 22Z" fill="black"/>
<path fill-rule="evenodd" clip-rule="evenodd" d="M35 45L35 71H34L34 45H35Z" fill="black"/>
<path fill-rule="evenodd" clip-rule="evenodd" d="M71 46L34 46V45L71 45V46Z" fill="black"/>
<path fill-rule="evenodd" clip-rule="evenodd" d="M0 45H11V46H4.37114e-08L0 45Z" fill="black"/>
<path fill-rule="evenodd" clip-rule="evenodd" d="M71 54V37H72V54H71Z" fill="black"/>
<path fill-rule="evenodd" clip-rule="evenodd" d="M81 47V44H82V47H81Z" fill="black"/>
<path fill-rule="evenodd" clip-rule="evenodd" d="M76 50V41H77V50H76Z" fill="black"/>
</svg>
