<svg width="82" height="91" viewBox="0 0 82 91" fill="none" xmlns="http://www.w3.org/2000/svg">
<path fill-rule="evenodd" clip-rule="evenodd" d="M47.5 68.9999C60.4787 68.9999 71 58.4786 71 45.4999H73C73 59.5832 61.5833 70.9999 47.5 70.9999C33.4167 70.9999 22 59.5832 22 45.4999C22 31.4166 33.4167 19.9999 47.5 19.9999V21.9999C34.5213 21.9999 24 32.5212 24 45.4999C24 58.4786 34.5213 68.9999 47.5 68.9999Z" fill="black"/>
<path fill-rule="evenodd" clip-rule="evenodd" d="M47 45.9999V19.9999H48V45.9999H47Z" fill="black"/>
<path fill-rule="evenodd" clip-rule="evenodd" d="M11 44.9999H48V45.9999H11V44.9999Z" fill="black"/>
<path fill-rule="evenodd" clip-rule="evenodd" d="M82 45.9999H71V44.9999H82L82 45.9999Z" fill="black"/>
<path fill-rule="evenodd" clip-rule="evenodd" d="M11 36.9999V53.9999H10V36.9999H11Z" fill="black"/>
<path fill-rule="evenodd" clip-rule="evenodd" d="M1 43.9999L1 46.9999H0L0 43.9999H1Z" fill="black"/>
<path fill-rule="evenodd" clip-rule="evenodd" d="M6 40.9999V49.9999H5V40.9999H6Z" fill="black"/>
<path fill-rule="evenodd" clip-rule="evenodd" d="M65.3204 70.534L69.374 80.5666L61.1235 74.1144L61.7395 73.3266L65.4924 76.2616L23.0361 20.2107L23.8332 19.6069L66.3378 75.7215L64.3932 70.9086L65.3204 70.534Z" fill="black"/>
</svg>
