<svg width="91" height="91" viewBox="0 0 91 91" fill="none" xmlns="http://www.w3.org/2000/svg">
<path fill-rule="evenodd" clip-rule="evenodd" d="M34 34V57H57V34H34ZM33 58H58V33H33V58Z" fill="black"/>
<path fill-rule="evenodd" clip-rule="evenodd" d="M21.5 45H33V46H21.5V45ZM4.37114e-08 45H15V46H0L4.37114e-08 45Z" fill="black"/>
<path fill-rule="evenodd" clip-rule="evenodd" d="M69.5 45H58V46H69.5V45ZM91 45H76V46H91V45Z" fill="black"/>
<path fill-rule="evenodd" clip-rule="evenodd" d="M46 39V52H45V39H46Z" fill="black"/>
<path fill-rule="evenodd" clip-rule="evenodd" d="M14.293 45.5L21.0105 38.7825L21.7176 39.4896L15.7072 45.5L21.7176 51.5104L21.0105 52.2175L14.293 45.5Z" fill="black"/>
<path fill-rule="evenodd" clip-rule="evenodd" d="M76.4351 45.5L69.7176 38.7825L69.0105 39.4896L75.0209 45.5L69.0105 51.5104L69.7176 52.2175L76.4351 45.5Z" fill="black"/>
<path fill-rule="evenodd" clip-rule="evenodd" d="M20.293 45.5L27.0105 38.7825L27.7176 39.4896L21.7072 45.5L27.7176 51.5104L27.0105 52.2175L20.293 45.5Z" fill="black"/>
<path fill-rule="evenodd" clip-rule="evenodd" d="M70.4351 45.5L63.7176 38.7825L63.0105 39.4896L69.0209 45.5L63.0105 51.5104L63.7176 52.2175L70.4351 45.5Z" fill="black"/>
<line x1="33.3536" y1="33.6464" x2="57.3536" y2="57.6464" stroke="black"/>
</svg>
