<svg width="91" height="91" viewBox="0 0 91 91" fill="none" xmlns="http://www.w3.org/2000/svg">
<path fill-rule="evenodd" clip-rule="evenodd" d="M77.707 45.5L70.9895 52.2175L70.2824 51.5104L76.2928 45.5L70.2824 39.4896L70.9895 38.7825L77.707 45.5Z" fill="black"/>
<path fill-rule="evenodd" clip-rule="evenodd" d="M91 46H77V45H91L91 46Z" fill="black"/>
<path fill-rule="evenodd" clip-rule="evenodd" d="M71 40V51H70V40H71Z" fill="black"/>
<path fill-rule="evenodd" clip-rule="evenodd" d="M13.5649 45.5L20.2824 52.2175L20.9895 51.5104L14.9791 45.5L20.9895 39.4896L20.2824 38.7825L13.5649 45.5Z" fill="black"/>
<path fill-rule="evenodd" clip-rule="evenodd" d="M0 45H15V46H0V45Z" fill="black"/>
<path fill-rule="evenodd" clip-rule="evenodd" d="M20.2722 40V51H21.2722V40H20.2722Z" fill="black"/>
<path fill-rule="evenodd" clip-rule="evenodd" d="M69.707 45.5L62.9895 52.2175L62.2824 51.5104L68.2928 45.5L62.2824 39.4896L62.9895 38.7825L69.707 45.5Z" fill="black"/>
<path fill-rule="evenodd" clip-rule="evenodd" d="M21.5649 45.5L28.2824 52.2175L28.9895 51.5104L22.9791 45.5L28.9895 39.4896L28.2824 38.7825L21.5649 45.5Z" fill="black"/>
<path fill-rule="evenodd" clip-rule="evenodd" d="M57 57V34H34V57H57ZM58 33H33V58H58V33Z" fill="black"/>
<path fill-rule="evenodd" clip-rule="evenodd" d="M45 52V39H46V52H45Z" fill="black"/>
<path fill-rule="evenodd" clip-rule="evenodd" d="M58 45H69V46H58V45Z" fill="black"/>
<path fill-rule="evenodd" clip-rule="evenodd" d="M23 45H34V46H23V45Z" fill="black"/>
</svg>
