<svg width="89" height="81" viewBox="0 0 89 81" fill="none" xmlns="http://www.w3.org/2000/svg">
<path fill-rule="evenodd" clip-rule="evenodd" d="M65.55 35.5C63.4654 25.2297 54.3854 17.4996 43.5 17.4996C31.0736 17.4996 21 27.5732 21 39.9996C21 52.426 31.0736 62.4996 43.5 62.4996C54.0289 62.4996 62.8687 55.2676 65.3229 45.5H67.3801C64.8838 56.3825 55.1398 64.4996 43.5 64.4996C29.969 64.4996 19 53.5306 19 39.9996C19 26.4687 29.969 15.4996 43.5 15.4996C55.4939 15.4996 65.4749 24.1182 67.5877 35.5H65.55Z" fill="black"/>
<path fill-rule="evenodd" clip-rule="evenodd" d="M41.4961 81V45.5H67V46.5H42.4961V81H41.4961Z" fill="black"/>
<path fill-rule="evenodd" clip-rule="evenodd" d="M41.4961 0.00012207V35.5001H66.9961V34.5001H42.4961V0.00012207H41.4961Z" fill="black"/>
<path fill-rule="evenodd" clip-rule="evenodd" d="M0 40L19 39.9996V41H4.37115e-08L0 40Z" fill="black"/>
</svg>
