<svg width="91" height="91" viewBox="0 0 91 91" fill="none" xmlns="http://www.w3.org/2000/svg">
<path fill-rule="evenodd" clip-rule="evenodd" d="M45.5 47C57.9264 47 68 36.9264 68 24.5C68 12.0736 57.9264 2 45.5 2C33.0735 2 23 12.0736 23 24.5C23 36.9264 33.0735 47 45.5 47ZM45.5 49C59.0309 49 70 38.031 70 24.5C70 10.969 59.0309 0 45.5 0C31.969 0 21 10.969 21 24.5C21 38.031 31.969 49 45.5 49Z" fill="black"/>
<path fill-rule="evenodd" clip-rule="evenodd" d="M45.5 89C57.9264 89 68 78.9264 68 66.5C68 54.0736 57.9264 44 45.5 44C33.0735 44 23 54.0736 23 66.5C23 78.9264 33.0735 89 45.5 89ZM45.5 91C59.0309 91 70 80.031 70 66.5C70 52.969 59.0309 42 45.5 42C31.969 42 21 52.969 21 66.5C21 80.031 31.969 91 45.5 91Z" fill="black"/>
<path fill-rule="evenodd" clip-rule="evenodd" d="M45.5 56L35 74H56L45.5 56ZM45.5 57.9846L36.741 73H54.2589L45.5 57.9846Z" fill="black"/>
<path fill-rule="evenodd" clip-rule="evenodd" d="M46.6805 23.7942L53.3158 18.3876L52.6841 17.6124L45.5 23.4661L38.3158 17.6124L37.6841 18.3876L45 24.3487V33H46V24.6978L52.3438 25.7159L52.5023 24.7285L46.6805 23.7942Z" fill="black"/>
<path fill-rule="evenodd" clip-rule="evenodd" d="M74.2027 12.518L84.3234 8.68982L77.6882 16.7939L76.9145 16.1604L79.9658 12.4336L11.0737 61.862L10.4907 61.0495L79.3634 11.6351L74.5564 13.4533L74.2027 12.518Z" fill="black"/>
</svg>
