<svg width="84" height="81" viewBox="0 0 84 81" fill="none" xmlns="http://www.w3.org/2000/svg">
<g clip-path="url(#clip0_3_186)">
<path fill-rule="evenodd" clip-rule="evenodd" d="M59.5 79C71.9264 79 82 68.9264 82 56.5C82 44.0736 71.9264 34 59.5 34C47.0736 34 37 44.0736 37 56.5C37 68.9264 47.0736 79 59.5 79ZM59.5 81C73.031 81 84 70.031 84 56.5C84 42.969 73.031 32 59.5 32C45.969 32 35 42.969 35 56.5C35 70.031 45.969 81 59.5 81Z" fill="black"/>
<path fill-rule="evenodd" clip-rule="evenodd" d="M24.5 79C36.9264 79 47 68.9264 47 56.5C47 44.0736 36.9264 34 24.5 34C12.0736 34 2 44.0736 2 56.5C2 68.9264 12.0736 79 24.5 79ZM24.5 81C38.031 81 49 70.031 49 56.5C49 42.969 38.031 32 24.5 32C10.969 32 0 42.969 0 56.5C0 70.031 10.969 81 24.5 81Z" fill="black"/>
<path fill-rule="evenodd" clip-rule="evenodd" d="M41.5 47C53.9264 47 64 36.9264 64 24.5C64 12.0736 53.9264 2 41.5 2C29.0736 2 19 12.0736 19 24.5C19 36.9264 29.0736 47 41.5 47ZM41.5 49C55.031 49 66 38.031 66 24.5C66 10.969 55.031 0 41.5 0C27.969 0 17 10.969 17 24.5C17 38.031 27.969 49 41.5 49Z" fill="black"/>
</g>
<defs>
<clipPath id="clip0_3_186">
<rect width="84" height="81" fill="white"/>
</clipPath>
</defs>
</svg>
