<svg width="91" height="91" viewBox="0 0 91 91" fill="none" xmlns="http://www.w3.org/2000/svg">
<path fill-rule="evenodd" clip-rule="evenodd" d="M47 45.5C47 33.0736 36.9264 23 24.5 23C12.0736 23 2 33.0736 2 45.5C2 57.9265 12.0736 68 24.5 68C36.9264 68 47 57.9265 47 45.5ZM49 45.5C49 31.9691 38.031 21 24.5 21C10.969 21 0 31.9691 0 45.5C0 59.031 10.969 70 24.5 70C38.031 70 49 59.031 49 45.5Z" fill="black"/>
<path fill-rule="evenodd" clip-rule="evenodd" d="M89 45.5C89 33.0736 78.9264 23 66.5 23C54.0736 23 44 33.0736 44 45.5C44 57.9265 54.0736 68 66.5 68C78.9264 68 89 57.9265 89 45.5ZM91 45.5C91 31.9691 80.031 21 66.5 21C52.969 21 42 31.9691 42 45.5C42 59.031 52.969 70 66.5 70C80.031 70 91 59.031 91 45.5Z" fill="black"/>
<path fill-rule="evenodd" clip-rule="evenodd" d="M56 45.5L74 56V35L56 45.5ZM57.9846 45.5L73 54.259V36.7411L57.9846 45.5Z" fill="black"/>
<path fill-rule="evenodd" clip-rule="evenodd" d="M23.7941 44.3195L18.3875 37.6842L17.6123 38.3159L23.466 45.5L17.6123 52.6842L18.3875 53.3159L24.3486 46H32.9999V45H24.6977L25.7158 38.6562L24.7284 38.4977L23.7941 44.3195Z" fill="black"/>
<path fill-rule="evenodd" clip-rule="evenodd" d="M12.5179 16.7973L8.6897 6.67657L16.7938 13.3118L16.1603 14.0855L12.4335 11.0342L61.8619 79.9263L61.0494 80.5093L11.635 11.6366L13.4532 16.4436L12.5179 16.7973Z" fill="black"/>
</svg>
