<svg width="37" height="91" viewBox="0 0 37 91" fill="none" xmlns="http://www.w3.org/2000/svg">
<g clip-path="url(#clip0_3_553)">
<path fill-rule="evenodd" clip-rule="evenodd" d="M4 26L4 67H33V26H4ZM2 69H35V24H2L2 69Z" fill="black"/>
<path fill-rule="evenodd" clip-rule="evenodd" d="M8 54H29V56H8V54Z" fill="black"/>
<path fill-rule="evenodd" clip-rule="evenodd" d="M8 41H29V43H8V41Z" fill="black"/>
<path fill-rule="evenodd" clip-rule="evenodd" d="M10 32V41H8V32H10Z" fill="black"/>
<path fill-rule="evenodd" clip-rule="evenodd" d="M8 30H29V32H8V30Z" fill="black"/>
<path fill-rule="evenodd" clip-rule="evenodd" d="M10 54H19V48H10V54ZM8 55C8 55.5523 8.44772 56 9 56H20C20.5523 56 21 55.5523 21 55V47C21 46.4477 20.5523 46 20 46H9C8.44772 46 8 46.4477 8 47V55Z" fill="black"/>
<path fill-rule="evenodd" clip-rule="evenodd" d="M10 61H19V56H10V61ZM8 62C8 62.5523 8.44772 63 9 63H20C20.5523 63 21 62.5523 21 62V55C21 54.4477 20.5523 54 20 54H9C8.44772 54 8 54.4477 8 55V62Z" fill="black"/>
</g>
<defs>
<clipPath id="clip0_3_553">
<rect width="91" height="37" fill="white" transform="translate(0 91) rotate(-90)"/>
</clipPath>
</defs>
</svg>
