<svg width="91" height="91" viewBox="0 0 91 91" fill="none" xmlns="http://www.w3.org/2000/svg">
<path fill-rule="evenodd" clip-rule="evenodd" d="M46 1.31134e-07L46 11.5H45L45 0L46 1.31134e-07Z" fill="black"/>
<path fill-rule="evenodd" clip-rule="evenodd" d="M46 79.5V91H45V79.5H46Z" fill="black"/>
<path fill-rule="evenodd" clip-rule="evenodd" d="M45.5 34.5C39.4249 34.5 34.5 39.4249 34.5 45.5C34.5 51.5751 39.4249 56.5 45.5 56.5V57.5C38.8726 57.5 33.5 52.1274 33.5 45.5C33.5 38.8726 38.8726 33.5 45.5 33.5V34.5Z" fill="black"/>
<path fill-rule="evenodd" clip-rule="evenodd" d="M45.5 11.5C39.4249 11.5 34.5 16.4249 34.5 22.5C34.5 28.5751 39.4249 33.5 45.5 33.5V34.5C38.8726 34.5 33.5 29.1274 33.5 22.5C33.5 15.8726 38.8726 10.5 45.5 10.5V11.5Z" fill="black"/>
<path fill-rule="evenodd" clip-rule="evenodd" d="M45.5 57.5C39.4249 57.5 34.5 62.4249 34.5 68.5C34.5 74.5751 39.4249 79.5 45.5 79.5V80.5C38.8726 80.5 33.5 75.1274 33.5 68.5C33.5 61.8726 38.8726 56.5 45.5 56.5V57.5Z" fill="black"/>
</svg>
