<svg width="91" height="37" viewBox="0 0 91 37" fill="none" xmlns="http://www.w3.org/2000/svg">
<path fill-rule="evenodd" clip-rule="evenodd" d="M65 4H24V33H65V4ZM22 2V35H67V2H22Z" fill="black"/>
<path fill-rule="evenodd" clip-rule="evenodd" d="M37 8L37 29H35L35 8H37Z" fill="black"/>
<path fill-rule="evenodd" clip-rule="evenodd" d="M50 8V29H48V8H50Z" fill="black"/>
<path fill-rule="evenodd" clip-rule="evenodd" d="M59 10H50V8H59V10Z" fill="black"/>
<path fill-rule="evenodd" clip-rule="evenodd" d="M61 8V29H59V8H61Z" fill="black"/>
<path fill-rule="evenodd" clip-rule="evenodd" d="M37 10V19H43V10H37ZM36 8C35.4477 8 35 8.44772 35 9V20C35 20.5523 35.4477 21 36 21H44C44.5523 21 45 20.5523 45 20V9C45 8.44772 44.5523 8 44 8H36Z" fill="black"/>
<path fill-rule="evenodd" clip-rule="evenodd" d="M30 10V19H35V10H30ZM29 8C28.4477 8 28 8.44772 28 9V20C28 20.5523 28.4477 21 29 21H36C36.5523 21 37 20.5523 37 20V9C37 8.44772 36.5523 8 36 8H29Z" fill="black"/>
</svg>
