<svg width="91" height="91" viewBox="0 0 91 91" fill="none" xmlns="http://www.w3.org/2000/svg">
<path fill-rule="evenodd" clip-rule="evenodd" d="M45 11V1.19249e-08L46 0V11H45Z" fill="black"/>
<path fill-rule="evenodd" clip-rule="evenodd" d="M37 80H54V81H37V80Z" fill="black"/>
<path fill-rule="evenodd" clip-rule="evenodd" d="M44 90H47V91H44V90Z" fill="black"/>
<path fill-rule="evenodd" clip-rule="evenodd" d="M41 85H50V86H41V85Z" fill="black"/>
<path fill-rule="evenodd" clip-rule="evenodd" d="M45 80V58H46V80H45Z" fill="black"/>
<path fill-rule="evenodd" clip-rule="evenodd" d="M51 12H40V57H51V12ZM39 11V58H52V11H39Z" fill="black"/>
<path fill-rule="evenodd" clip-rule="evenodd" d="M45 19V2H46V19H45Z" fill="black"/>
<path d="M45.5 27L42 16H49L45.5 27Z" fill="black"/>
<path fill-rule="evenodd" clip-rule="evenodd" d="M45 40V57H46V40H45Z" fill="black"/>
<path d="M45.5 32L42 43H49L45.5 32Z" fill="black"/>
</svg>
