<svg width="65" height="91" viewBox="0 0 65 91" fill="none" xmlns="http://www.w3.org/2000/svg">
<g clip-path="url(#clip0_3_639)">
<path fill-rule="evenodd" clip-rule="evenodd" d="M32.5 22C19.5213 22 9 32.5213 9 45.5H7C7 31.4167 18.4167 20 32.5 20C46.5833 20 58 31.4167 58 45.5C58 59.5833 46.5833 71 32.5 71V69C45.4787 69 56 58.4787 56 45.5C56 32.5213 45.4787 22 32.5 22Z" fill="black"/>
<path fill-rule="evenodd" clip-rule="evenodd" d="M33 45V71H32V45H33Z" fill="black"/>
<path fill-rule="evenodd" clip-rule="evenodd" d="M65 46H32V45H65V46Z" fill="black"/>
<path fill-rule="evenodd" clip-rule="evenodd" d="M0 45H9V46H4.37115e-08L0 45Z" fill="black"/>
</g>
<defs>
<clipPath id="clip0_3_639">
<rect width="91" height="65" fill="white" transform="translate(0 91) rotate(-90)"/>
</clipPath>
</defs>
</svg>
